<svg xmlns="http://www.w3.org/2000/svg" width="160.989" height="142" viewBox="0 0 160.989 142">
  <g id="_x33_6_Digital_Strategy" transform="translate(-3.5 -33.281)">
    <g id="Grupo_107440" data-name="Grupo 107440" transform="translate(3.5 33.281)">
      <g id="Grupo_107436" data-name="Grupo 107436" transform="translate(2.391 17.345)">
        <path id="Trazado_156812" data-name="Trazado 156812" d="M158.241,209.958H19.965A8.965,8.965,0,0,1,11,200.992V96.661A8.965,8.965,0,0,1,19.965,87.7H158.241a8.965,8.965,0,0,1,8.965,8.965V200.992A8.965,8.965,0,0,1,158.241,209.958Z" transform="translate(-11 -87.694)" fill="#b1e874"/>
        <path id="Trazado_156813" data-name="Trazado 156813" d="M440.1,96.659V200.987a8.969,8.969,0,0,1-8.965,8.968H411.6a8.967,8.967,0,0,0,8.965-8.968V96.659a8.967,8.967,0,0,0-8.965-8.968h19.535A8.969,8.969,0,0,1,440.1,96.659Z" transform="translate(-283.891 -87.691)" fill="#96e83c"/>
        <path id="Trazado_156814" data-name="Trazado 156814" d="M167.206,96.659v21.482H11V96.659a8.967,8.967,0,0,1,8.965-8.968H158.242A8.969,8.969,0,0,1,167.206,96.659Z" transform="translate(-10.999 -87.691)" fill="#b0c0d2"/>
        <path id="Trazado_156815" data-name="Trazado 156815" d="M440.1,96.659v21.482H420.564V96.659a8.969,8.969,0,0,0-8.965-8.968h19.535A8.969,8.969,0,0,1,440.1,96.659Z" transform="translate(-283.892 -87.691)" fill="#727997"/>
        <circle id="Elipse_5039" data-name="Elipse 5039" cx="7.296" cy="7.296" r="7.296" transform="translate(83.104 7.284)" fill="#ff6680"/>
        <circle id="Elipse_5040" data-name="Elipse 5040" cx="7.296" cy="7.296" r="7.296" transform="translate(107.691 7.284)" fill="#f3ff3c"/>
        <circle id="Elipse_5041" data-name="Elipse 5041" cx="7.296" cy="7.296" r="7.296" transform="translate(132.276 7.284)" fill="#ff642b"/>
      </g>
      <g id="Grupo_107439" data-name="Grupo 107439" transform="translate(0 0)">
        <g id="Grupo_107437" data-name="Grupo 107437" transform="translate(41.449 2.391)">
          <path id="Trazado_156816" data-name="Trazado 156816" d="M234.569,40.782l.031.142a10.122,10.122,0,0,1,8.439,9.979v.015a2.566,2.566,0,0,0,1.2,2.192,22.689,22.689,0,0,1,3.693,2.875c27.295,22.794,16.11,53.794,16.286,72.869.957,2.407,1.781,4.389,2.43,5.836,38.879-68.7-15-93.908-32.081-93.908Z" transform="translate(-202.356 -40.782)" fill="#d44713"/>
          <path id="Trazado_156817" data-name="Trazado 156817" d="M181.535,55.984a22.69,22.69,0,0,0-3.693-2.875,2.566,2.566,0,0,1-1.2-2.192V50.9a10.121,10.121,0,0,0-10.121-10.121h-.785v8.91a22.615,22.615,0,0,0-22.469,22.614v.031a5.8,5.8,0,0,1-2.649,4.873l-3.653,2.363a7.531,7.531,0,0,0-2.234,10.413l3.69,5.705a7.53,7.53,0,0,0,10.413,2.234L151.5,96.2a12.646,12.646,0,0,1,9.539-1.792,22.793,22.793,0,0,0,10.428-.179.879.879,0,0,1,1.031,1.182c-5.152,12.34-27.051,17.2-26.226,41.384h52.631c-5.653-17.2,14.154-54.478-17.371-80.806Z" transform="translate(-133.52 -40.782)" fill="#ff642b"/>
          <path id="Trazado_156818" data-name="Trazado 156818" d="M243.04,55.984a22.691,22.691,0,0,0-3.693-2.875,2.566,2.566,0,0,1-1.2-2.192V50.9a10.121,10.121,0,0,0-10.121-10.121h-.785v8.91a22.771,22.771,0,0,0-3.43.281c.028.307.044.617.044.931v.015a2.566,2.566,0,0,0,1.2,2.192,22.69,22.69,0,0,1,3.693,2.875c31.525,26.327,11.718,63.6,17.372,80.805h14.292C254.758,119.585,274.565,82.312,243.04,55.984Z" transform="translate(-195.025 -40.782)" fill="#f85316"/>
          <path id="Trazado_156819" data-name="Trazado 156819" d="M219.328,341.891h-50.96a3.268,3.268,0,1,1,0-6.535h50.96a3.268,3.268,0,0,1,0,6.535Z" transform="translate(-155.033 -241.449)" fill="#ff642b"/>
          <path id="Trazado_156820" data-name="Trazado 156820" d="M304.576,335.357H290.243a3.268,3.268,0,0,1,0,6.535h14.333a3.268,3.268,0,1,0,0-6.535Z" transform="translate(-240.281 -241.449)" fill="#f85316"/>
          <path id="Trazado_156821" data-name="Trazado 156821" d="M215.783,362.453H159.568a3.529,3.529,0,0,1-3.529-3.529v-.565a3.529,3.529,0,0,1,3.529-3.529h56.215a3.529,3.529,0,0,1,3.529,3.529v.565A3.529,3.529,0,0,1,215.783,362.453Z" transform="translate(-148.86 -254.715)" fill="#ff642b"/>
          <path id="Trazado_156822" data-name="Trazado 156822" d="M312.732,354.828H298.358a3.529,3.529,0,0,1,3.529,3.529v.565a3.529,3.529,0,0,1-3.529,3.529h14.374a3.529,3.529,0,0,0,3.529-3.529v-.565A3.529,3.529,0,0,0,312.732,354.828Z" transform="translate(-245.809 -254.713)" fill="#d44713"/>
        </g>
        <g id="Grupo_107438" data-name="Grupo 107438">
          <path id="Trazado_156823" data-name="Trazado 156823" d="M386.863,238.135a2.391,2.391,0,0,0-2.391,2.391v62.948a6.582,6.582,0,0,1-6.577,6.573H335.841a2.391,2.391,0,1,0,0,4.782H377.9a11.37,11.37,0,0,0,11.359-11.355V240.526A2.391,2.391,0,0,0,386.863,238.135Z" transform="translate(-228.265 -172.83)" fill="#12263f"/>
          <path id="Trazado_156824" data-name="Trazado 156824" d="M5.891,129.6a2.39,2.39,0,0,0,2.391-2.391V115.422H42.925a9.962,9.962,0,0,0,1.225,2.706l3.69,5.705a9.933,9.933,0,0,0,13.719,2.943l2.673-1.729a10.312,10.312,0,0,1,7.732-1.464,25.266,25.266,0,0,0,8.281.4,26.3,26.3,0,0,1-3.09,3.594,2.391,2.391,0,0,0,3.371,3.391,24.3,24.3,0,0,0,5.612-7.8,3.269,3.269,0,0,0-3.827-4.42,20.49,20.49,0,0,1-9.329.16,15.123,15.123,0,0,0-11.347,2.121l-2.673,1.729a5.145,5.145,0,0,1-7.107-1.524l-3.69-5.705a5.139,5.139,0,0,1,1.524-7.106l3.653-2.363a8.17,8.17,0,0,0,3.742-6.912,19.994,19.994,0,0,1,4.472-12.682,2.391,2.391,0,0,0-3.722-3A25.066,25.066,0,0,0,52.3,99.15v.033a3.394,3.394,0,0,1-1.557,2.863l-3.653,2.363a9.857,9.857,0,0,0-4.308,6.231H8.282V91.545a6.573,6.573,0,0,1,6.573-6.573H47.279a2.391,2.391,0,0,0,0-4.782H14.855A11.355,11.355,0,0,0,3.5,91.545v35.66A2.39,2.39,0,0,0,5.891,129.6Z" transform="translate(-3.5 -65.236)" fill="#12263f"/>
          <path id="Trazado_156825" data-name="Trazado 156825" d="M91.949,338.686H14.856a6.581,6.581,0,0,1-6.573-6.573V282.566a2.391,2.391,0,1,0-4.782,0v49.546a11.368,11.368,0,0,0,11.355,11.355H91.949a2.391,2.391,0,1,0,0-4.782Z" transform="translate(-3.501 -201.468)" fill="#12263f"/>
          <path id="Trazado_156826" data-name="Trazado 156826" d="M437.806,112.729a9.688,9.688,0,1,0-9.688,9.687A9.7,9.7,0,0,0,437.806,112.729Zm-14.593,0a4.906,4.906,0,1,1,4.906,4.906A4.911,4.911,0,0,1,423.213,112.729Z" transform="translate(-286.155 -80.802)" fill="#12263f"/>
          <path id="Trazado_156827" data-name="Trazado 156827" d="M264.617,113.854c.708,11.285-2.244,23.928-8.789,37.691.166-2.837.485-5.907.819-9.152l.172-1.683a2.391,2.391,0,1,0-4.756-.488l-.172,1.68c-.668,6.453-1.265,12.262-.791,17.243H222.677a2.391,2.391,0,0,0,0,4.782h30.639a.871.871,0,0,1,.679,1.424h-1.4a2.391,2.391,0,0,0,0,4.782h3.349a1.14,1.14,0,0,1,1.138,1.138v.565a1.14,1.14,0,0,1-1.138,1.138H217.387a2.391,2.391,0,1,0,0,4.782h38.558a5.927,5.927,0,0,0,5.92-5.92v-.565a5.923,5.923,0,0,0-3.044-5.171,5.617,5.617,0,0,0-2.092-5.8c8.866-16.329,13.144-31.4,12.743-44.877h36.7a2.392,2.392,0,0,0,2.391-2.391c0-.019,0-.038,0-.057s0-.015,0-.024v-21.4A11.358,11.358,0,0,0,297.2,80.19H263.932a2.391,2.391,0,1,0,0,4.782h33.275a6.574,6.574,0,0,1,6.573,6.573v19.1H269.128q-.261-2.258-.7-4.438a9.685,9.685,0,1,0-7.546-17.828A51.249,51.249,0,0,0,255.9,82.24a2.39,2.39,0,1,0-3.475,3.284,44.169,44.169,0,0,1,12.188,28.331Zm.335-21.6a4.9,4.9,0,0,1,2.28,9.246,47.675,47.675,0,0,0-3.807-9A4.884,4.884,0,0,1,264.952,92.256Z" transform="translate(-147.573 -65.236)" fill="#12263f"/>
          <path id="Trazado_156828" data-name="Trazado 156828" d="M212.9,47.6a20.322,20.322,0,0,1,4.89-.629,2.391,2.391,0,0,0,2.376-2.391V38.231a7.748,7.748,0,0,1,6.125,7.574,4.935,4.935,0,0,0,2.327,4.224,20.352,20.352,0,0,1,3.3,2.572q.059.057.123.11c8.362,6.983,17.912,18.01,17.537,41.488a2.391,2.391,0,0,0,2.352,2.429h.039a2.391,2.391,0,0,0,2.39-2.353c.2-12.337-1.579-30.436-19.191-45.183a25.128,25.128,0,0,0-4.021-3.119.2.2,0,0,1-.078-.179,12.442,12.442,0,0,0-1.007-4.914,54.261,54.261,0,0,1,8.208,4.095,2.391,2.391,0,1,0,2.483-4.087c-6.473-3.934-13.972-6.677-19.984-7.406a12.529,12.529,0,0,0-2.212-.2h-.787a2.391,2.391,0,0,0-2.389,2.391v6.646a25.045,25.045,0,0,0-3.666.65A2.391,2.391,0,1,0,212.9,47.6Z" transform="translate(-144.116 -33.281)" fill="#12263f"/>
          <path id="Trazado_156829" data-name="Trazado 156829" d="M195.442,287.969a2.391,2.391,0,0,0-2.391-2.391H156.407a.867.867,0,0,1-.2-.548.876.876,0,0,1,.877-.877h6.047a2.391,2.391,0,0,0,0-4.782h-4.1c.867-8.81,5.286-14.318,9.663-18.589a2.391,2.391,0,0,0-3.338-3.424c-4.942,4.82-10.489,11.685-11.185,22.83a5.623,5.623,0,0,0-2.588,6.139,5.923,5.923,0,0,0-3.043,5.17v.565a5.927,5.927,0,0,0,5.92,5.92h3.383a2.391,2.391,0,0,0,0-4.782h-3.383a1.14,1.14,0,0,1-1.138-1.138V291.5a1.14,1.14,0,0,1,1.138-1.138h38.592A2.391,2.391,0,0,0,195.442,287.969Z" transform="translate(-102.302 -185.463)" fill="#12263f"/>
          <path id="Trazado_156830" data-name="Trazado 156830" d="M41.685,223.34a2.391,2.391,0,0,0,3.381,0l5.664-5.664,5.664,5.664a2.391,2.391,0,0,0,3.381-3.381l-5.664-5.664,5.664-5.664a2.391,2.391,0,1,0-3.381-3.381l-5.664,5.664-5.664-5.664a2.391,2.391,0,1,0-3.381,3.381l5.664,5.664-5.664,5.664a2.391,2.391,0,0,0,0,3.381Z" transform="translate(-29.035 -149.95)" fill="#12263f"/>
          <path id="Trazado_156831" data-name="Trazado 156831" d="M432.267,386.884a2.391,2.391,0,0,0-3.381,0l-5.664,5.664-5.664-5.664a2.391,2.391,0,1,0-3.381,3.381l5.664,5.664-5.664,5.664a2.391,2.391,0,0,0,3.381,3.381l5.664-5.664,5.664,5.664a2.391,2.391,0,1,0,3.381-3.381l-5.664-5.664,5.664-5.664A2.391,2.391,0,0,0,432.267,386.884Z" transform="translate(-282.78 -273.682)" fill="#12263f"/>
          <path id="Trazado_156832" data-name="Trazado 156832" d="M432.267,205.249a2.391,2.391,0,0,0-3.381,0l-5.664,5.664-5.664-5.664a2.391,2.391,0,0,0-3.381,3.381l5.664,5.664-5.664,5.664a2.391,2.391,0,0,0,3.381,3.381l5.664-5.664,5.664,5.664a2.391,2.391,0,1,0,3.381-3.381l-5.664-5.664,5.664-5.664A2.391,2.391,0,0,0,432.267,205.249Z" transform="translate(-282.78 -149.95)" fill="#12263f"/>
          <path id="Trazado_156833" data-name="Trazado 156833" d="M52.153,405.741a9.688,9.688,0,1,0-9.687-9.688A9.7,9.7,0,0,0,52.153,405.741Zm0-14.593a4.906,4.906,0,1,1-4.906,4.906A4.911,4.911,0,0,1,52.153,391.148Z" transform="translate(-30.044 -273.806)" fill="#12263f"/>
          <path id="Trazado_156834" data-name="Trazado 156834" d="M93.129,276.669a2.391,2.391,0,0,0,0-4.782H80.95a10.827,10.827,0,0,1-10.814-10.814,2.391,2.391,0,1,0-4.782,0,15.614,15.614,0,0,0,15.6,15.6Z" transform="translate(-45.636 -186.826)" fill="#12263f"/>
          <path id="Trazado_156835" data-name="Trazado 156835" d="M396.662,261.074a2.391,2.391,0,1,0-4.782,0,10.826,10.826,0,0,1-10.814,10.814h-7.7a2.391,2.391,0,0,0,0,4.782h7.7A15.614,15.614,0,0,0,396.662,261.074Z" transform="translate(-253.83 -186.827)" fill="#12263f"/>
          <path id="Trazado_156836" data-name="Trazado 156836" d="M111.117,399.822H123.3a15.574,15.574,0,0,0,14.369-9.525,2.391,2.391,0,0,0-4.4-1.863,10.8,10.8,0,0,1-9.965,6.606H111.117a2.391,2.391,0,1,0,0,4.782Z" transform="translate(-75.181 -274.22)" fill="#12263f"/>
          <path id="Trazado_156837" data-name="Trazado 156837" d="M340.209,408.44a2.391,2.391,0,1,0,0-4.782H328.031c-5.254,0-9.044-1.651-10.342-3.186a2.391,2.391,0,1,0-3.651,3.088c2.546,3.009,7.908,4.879,13.993,4.879Z" transform="translate(-214.656 -282.838)" fill="#12263f"/>
        </g>
      </g>
    </g>
  </g>
</svg>
