<svg id="_x32_1_Calculator" xmlns="http://www.w3.org/2000/svg" width="142.906" height="142" viewBox="0 0 142.906 142">
  <g id="Grupo_107461" data-name="Grupo 107461" transform="translate(0 0)">
    <g id="Grupo_107457" data-name="Grupo 107457" transform="translate(35.911 2.122)">
      <g id="Grupo_107441" data-name="Grupo 107441">
        <path id="Trazado_156838" data-name="Trazado 156838" d="M229.9,150.355h-94.12a5.376,5.376,0,0,1-5.376-5.376v-127a5.376,5.376,0,0,1,5.376-5.376H229.9a5.376,5.376,0,0,1,5.376,5.376v127A5.377,5.377,0,0,1,229.9,150.355Z" transform="translate(-130.401 -12.6)" fill="#b1e874"/>
        <path id="Trazado_156839" data-name="Trazado 156839" d="M434.093,12.6H415.185a5.376,5.376,0,0,1,5.376,5.376v127a5.376,5.376,0,0,1-5.376,5.376h18.908a5.376,5.376,0,0,0,5.376-5.376v-127A5.376,5.376,0,0,0,434.093,12.6Z" transform="translate(-334.596 -12.6)" fill="#96e83c"/>
      </g>
      <g id="Grupo_107453" data-name="Grupo 107453" transform="translate(10.063 65.312)">
        <g id="Grupo_107445" data-name="Grupo 107445">
          <g id="Grupo_107442" data-name="Grupo 107442">
            <path id="Trazado_156840" data-name="Trazado 156840" d="M183.882,259.945H171.338a5.376,5.376,0,0,1-5.376-5.376v-5.792a5.376,5.376,0,0,1,5.376-5.376h12.544a5.376,5.376,0,0,1,5.376,5.376v5.792A5.376,5.376,0,0,1,183.882,259.945Z" transform="translate(-165.962 -243.401)" fill="#727997"/>
            <path id="Trazado_156841" data-name="Trazado 156841" d="M213.4,259.945h-6.272V243.4H213.4a5.376,5.376,0,0,1,5.376,5.376v5.792A5.376,5.376,0,0,1,213.4,259.945Z" transform="translate(-195.477 -243.401)" fill="#575c73"/>
          </g>
          <g id="Grupo_107443" data-name="Grupo 107443" transform="translate(30.725)">
            <path id="Trazado_156842" data-name="Trazado 156842" d="M292.458,259.945H279.914a5.376,5.376,0,0,1-5.376-5.376v-5.792a5.376,5.376,0,0,1,5.376-5.376h12.544a5.376,5.376,0,0,1,5.376,5.376v5.792A5.376,5.376,0,0,1,292.458,259.945Z" transform="translate(-274.538 -243.401)" fill="#727997"/>
            <path id="Trazado_156843" data-name="Trazado 156843" d="M321.973,259.945H315.7V243.4h6.272a5.376,5.376,0,0,1,5.376,5.376v5.792A5.376,5.376,0,0,1,321.973,259.945Z" transform="translate(-304.053 -243.401)" fill="#575c73"/>
          </g>
          <g id="Grupo_107444" data-name="Grupo 107444" transform="translate(61.45)">
            <path id="Trazado_156844" data-name="Trazado 156844" d="M401.033,259.945H388.489a5.376,5.376,0,0,1-5.376-5.376v-5.792a5.376,5.376,0,0,1,5.376-5.376h12.544a5.376,5.376,0,0,1,5.376,5.376v5.792A5.376,5.376,0,0,1,401.033,259.945Z" transform="translate(-383.113 -243.401)" fill="#727997"/>
            <path id="Trazado_156845" data-name="Trazado 156845" d="M430.548,259.945h-6.272V243.4h6.272a5.376,5.376,0,0,1,5.376,5.376v5.792A5.376,5.376,0,0,1,430.548,259.945Z" transform="translate(-412.628 -243.401)" fill="#575c73"/>
          </g>
        </g>
        <g id="Grupo_107448" data-name="Grupo 107448" transform="translate(0 24.459)">
          <g id="Grupo_107446" data-name="Grupo 107446">
            <path id="Trazado_156846" data-name="Trazado 156846" d="M183.882,346.377H171.338A5.376,5.376,0,0,1,165.962,341v-5.792a5.376,5.376,0,0,1,5.376-5.376h12.544a5.376,5.376,0,0,1,5.376,5.376V341A5.376,5.376,0,0,1,183.882,346.377Z" transform="translate(-165.962 -329.833)" fill="#727997"/>
            <path id="Trazado_156847" data-name="Trazado 156847" d="M213.4,346.377h-6.272V329.833H213.4a5.376,5.376,0,0,1,5.376,5.376V341A5.376,5.376,0,0,1,213.4,346.377Z" transform="translate(-195.477 -329.833)" fill="#575c73"/>
          </g>
          <g id="Grupo_107447" data-name="Grupo 107447" transform="translate(30.725)">
            <path id="Trazado_156848" data-name="Trazado 156848" d="M292.458,346.377H279.914A5.376,5.376,0,0,1,274.538,341v-5.792a5.376,5.376,0,0,1,5.376-5.376h12.544a5.376,5.376,0,0,1,5.376,5.376V341A5.376,5.376,0,0,1,292.458,346.377Z" transform="translate(-274.538 -329.833)" fill="#727997"/>
            <path id="Trazado_156849" data-name="Trazado 156849" d="M321.973,346.377H315.7V329.833h6.272a5.376,5.376,0,0,1,5.376,5.376V341A5.376,5.376,0,0,1,321.973,346.377Z" transform="translate(-304.053 -329.833)" fill="#575c73"/>
          </g>
        </g>
        <g id="Grupo_107451" data-name="Grupo 107451" transform="translate(0 49.058)">
          <g id="Grupo_107449" data-name="Grupo 107449">
            <path id="Trazado_156850" data-name="Trazado 156850" d="M183.882,433.305H171.338a5.376,5.376,0,0,1-5.376-5.376v-5.791a5.376,5.376,0,0,1,5.376-5.376h12.544a5.376,5.376,0,0,1,5.376,5.376v5.791A5.376,5.376,0,0,1,183.882,433.305Z" transform="translate(-165.962 -416.761)" fill="#727997"/>
            <path id="Trazado_156851" data-name="Trazado 156851" d="M213.4,433.305h-6.272V416.761H213.4a5.376,5.376,0,0,1,5.376,5.376v5.791A5.376,5.376,0,0,1,213.4,433.305Z" transform="translate(-195.477 -416.761)" fill="#6a647f"/>
          </g>
          <g id="Grupo_107450" data-name="Grupo 107450" transform="translate(30.725)">
            <path id="Trazado_156852" data-name="Trazado 156852" d="M292.458,433.305H279.914a5.376,5.376,0,0,1-5.376-5.376v-5.791a5.376,5.376,0,0,1,5.376-5.376h12.544a5.376,5.376,0,0,1,5.376,5.376v5.791A5.376,5.376,0,0,1,292.458,433.305Z" transform="translate(-274.538 -416.761)" fill="#727997"/>
            <path id="Trazado_156853" data-name="Trazado 156853" d="M321.973,433.305H315.7V416.761h6.272a5.376,5.376,0,0,1,5.376,5.376v5.791A5.376,5.376,0,0,1,321.973,433.305Z" transform="translate(-304.053 -416.761)" fill="#575c73"/>
          </g>
        </g>
        <g id="Grupo_107452" data-name="Grupo 107452" transform="translate(61.45 24.479)">
          <path id="Trazado_156854" data-name="Trazado 156854" d="M401.033,371.121H388.489a5.376,5.376,0,0,1-5.376-5.376V335.28a5.376,5.376,0,0,1,5.376-5.376h12.544a5.376,5.376,0,0,1,5.376,5.376v30.464A5.376,5.376,0,0,1,401.033,371.121Z" transform="translate(-383.113 -329.904)" fill="#ff642b"/>
          <path id="Trazado_156855" data-name="Trazado 156855" d="M430.548,371.121h-6.272V329.9h6.272a5.376,5.376,0,0,1,5.376,5.376v30.464A5.376,5.376,0,0,1,430.548,371.121Z" transform="translate(-412.628 -329.904)" fill="#f85316"/>
        </g>
      </g>
      <g id="Grupo_107456" data-name="Grupo 107456" transform="translate(8.6 9.589)">
        <g id="Grupo_107454" data-name="Grupo 107454">
          <path id="Trazado_156856" data-name="Trazado 156856" d="M243.088,91.307h-76.92a5.376,5.376,0,0,1-5.376-5.376V51.862a5.376,5.376,0,0,1,5.376-5.376h76.92a5.376,5.376,0,0,1,5.376,5.376V85.93A5.376,5.376,0,0,1,243.088,91.307Z" transform="translate(-160.792 -46.486)" fill="#727997"/>
          <path id="Trazado_156857" data-name="Trazado 156857" d="M403.488,46.485H384.5a5.376,5.376,0,0,1,5.376,5.376V85.929a5.376,5.376,0,0,1-5.376,5.376h18.992a5.376,5.376,0,0,0,5.376-5.376V51.862a5.377,5.377,0,0,0-5.376-5.377Z" transform="translate(-321.192 -46.485)" fill="#575c73"/>
        </g>
        <g id="Grupo_107455" data-name="Grupo 107455" transform="translate(7.43 7.318)">
          <path id="Trazado_156858" data-name="Trazado 156858" d="M254.993,102.531H191.914a4.867,4.867,0,0,1-4.867-4.867V77.214a4.867,4.867,0,0,1,4.867-4.867h63.079a4.867,4.867,0,0,1,4.867,4.867v20.45A4.867,4.867,0,0,1,254.993,102.531Z" transform="translate(-187.047 -72.347)" fill="#d2e1f1"/>
          <path id="Trazado_156859" data-name="Trazado 156859" d="M382.6,72.347H365.174a4.873,4.873,0,0,1,4.984,4.753V97.778a4.873,4.873,0,0,1-4.984,4.753H382.6a4.872,4.872,0,0,0,4.984-4.753V77.1a4.872,4.872,0,0,0-4.984-4.753Z" transform="translate(-314.767 -72.347)" fill="#b0c0d2"/>
        </g>
      </g>
    </g>
    <g id="Grupo_107460" data-name="Grupo 107460">
      <ellipse id="Elipse_5042" data-name="Elipse 5042" cx="24.311" cy="24.311" rx="24.311" ry="24.311" transform="translate(2.122 88.76)" fill="#f3ff3c"/>
      <path id="Trazado_156860" data-name="Trazado 156860" d="M100.737,343.073a24.327,24.327,0,0,1-32.4,22.934,24.32,24.32,0,0,0,0-45.868,24.327,24.327,0,0,1,32.4,22.934Z" transform="translate(-49.992 -230.002)" fill="#dce736"/>
      <g id="Grupo_107458" data-name="Grupo 107458">
        <path id="Trazado_156861" data-name="Trazado 156861" d="M138.907,5.1H44.787a7.508,7.508,0,0,0-7.5,7.5V78.3a2.122,2.122,0,1,0,4.245,0V12.6a3.258,3.258,0,0,1,3.254-3.254h94.12a3.258,3.258,0,0,1,3.254,3.254v127a3.258,3.258,0,0,1-3.254,3.254H44.787a3.247,3.247,0,0,1-2.58-1.279,26.579,26.579,0,0,0,6.384-4.7,7.491,7.491,0,0,0,6.258,3.382H67.394a7.508,7.508,0,0,0,7.5-7.5v-5.793a7.508,7.508,0,0,0-7.5-7.5H56.335q.031-.645.032-1.3c0-.841-.044-1.678-.123-2.511h11.15a7.5,7.5,0,0,0,7.5-7.5v-5.793a7.5,7.5,0,0,0-7.5-7.5H54.85a7.5,7.5,0,0,0-1.273.108,2.122,2.122,0,1,0,.725,4.182,3.272,3.272,0,0,1,.548-.046H67.395a3.254,3.254,0,0,1,3.254,3.254v5.793a3.254,3.254,0,0,1-3.254,3.254h-11.9c-.093-.353-.192-.7-.3-1.053a2.122,2.122,0,1,0-4.056,1.252,22.207,22.207,0,1,1-9.924-12.551,2.122,2.122,0,0,0,2.162-3.653,26.432,26.432,0,1,0-5.122,47.85,7.5,7.5,0,0,0,6.533,3.838h94.119a7.508,7.508,0,0,0,7.5-7.5V12.6a7.508,7.508,0,0,0-7.5-7.5ZM55.781,123.714H67.394a3.258,3.258,0,0,1,3.254,3.254v5.793a3.258,3.258,0,0,1-3.254,3.254H54.85a3.257,3.257,0,0,1-3.214-2.771,26.3,26.3,0,0,0,4.145-9.531Z" transform="translate(-3.5 -5.1)" fill="#12263f"/>
        <path id="Trazado_156862" data-name="Trazado 156862" d="M165.961,235.9a7.507,7.507,0,0,0-7.5,7.5v5.791a7.507,7.507,0,0,0,7.5,7.5H178.5a7.507,7.507,0,0,0,7.5-7.5V243.4a7.507,7.507,0,0,0-7.5-7.5H165.961Zm15.8,7.5v5.792a3.258,3.258,0,0,1-3.254,3.254H165.961a3.258,3.258,0,0,1-3.254-3.254V243.4a3.258,3.258,0,0,1,3.254-3.254h12.544A3.258,3.258,0,0,1,181.759,243.4Z" transform="translate(-114.611 -170.589)" fill="#12263f"/>
        <path id="Trazado_156863" data-name="Trazado 156863" d="M294.579,243.4a7.507,7.507,0,0,0-7.5-7.5H274.537a7.507,7.507,0,0,0-7.5,7.5v5.792a7.507,7.507,0,0,0,7.5,7.5h12.544a7.507,7.507,0,0,0,7.5-7.5Zm-4.245,5.792a3.257,3.257,0,0,1-3.254,3.254H274.537a3.257,3.257,0,0,1-3.254-3.254V243.4a3.258,3.258,0,0,1,3.254-3.254h12.544a3.258,3.258,0,0,1,3.254,3.254Z" transform="translate(-192.462 -170.589)" fill="#12263f"/>
        <path id="Trazado_156864" data-name="Trazado 156864" d="M403.155,243.4a7.507,7.507,0,0,0-7.5-7.5H383.112a7.507,7.507,0,0,0-7.5,7.5v5.792a7.507,7.507,0,0,0,7.5,7.5h12.544a7.507,7.507,0,0,0,7.5-7.5Zm-4.245,5.792a3.257,3.257,0,0,1-3.254,3.254H383.112a3.258,3.258,0,0,1-3.254-3.254V243.4a3.258,3.258,0,0,1,3.254-3.254h12.544a3.258,3.258,0,0,1,3.254,3.254Z" transform="translate(-270.312 -170.589)" fill="#12263f"/>
        <path id="Trazado_156865" data-name="Trazado 156865" d="M294.579,329.833a7.507,7.507,0,0,0-7.5-7.5H274.537a7.507,7.507,0,0,0-7.5,7.5v5.791a7.507,7.507,0,0,0,7.5,7.5h12.544a7.507,7.507,0,0,0,7.5-7.5Zm-4.245,5.791a3.258,3.258,0,0,1-3.254,3.254H274.537a3.257,3.257,0,0,1-3.254-3.254v-5.791a3.257,3.257,0,0,1,3.254-3.254h12.544a3.258,3.258,0,0,1,3.254,3.254Z" transform="translate(-192.462 -232.563)" fill="#12263f"/>
        <path id="Trazado_156866" data-name="Trazado 156866" d="M287.081,409.262H274.537a7.507,7.507,0,0,0-7.5,7.5v5.792a7.507,7.507,0,0,0,7.5,7.5h12.544a7.507,7.507,0,0,0,7.5-7.5v-5.792A7.507,7.507,0,0,0,287.081,409.262Zm3.254,13.29a3.258,3.258,0,0,1-3.254,3.254H274.537a3.258,3.258,0,0,1-3.254-3.254v-5.792a3.258,3.258,0,0,1,3.254-3.254h12.544a3.258,3.258,0,0,1,3.254,3.254Z" transform="translate(-192.462 -294.892)" fill="#12263f"/>
        <path id="Trazado_156867" data-name="Trazado 156867" d="M401.032,344.8a2.122,2.122,0,0,0,2.122-2.122V329.9a7.507,7.507,0,0,0-7.5-7.5H383.112a7.507,7.507,0,0,0-7.5,7.5v30.464a7.507,7.507,0,0,0,7.5,7.5h12.544a7.507,7.507,0,0,0,7.5-7.5,2.122,2.122,0,0,0-4.245,0,3.258,3.258,0,0,1-3.254,3.254H383.112a3.258,3.258,0,0,1-3.254-3.254V329.9a3.258,3.258,0,0,1,3.254-3.254h12.544a3.258,3.258,0,0,1,3.254,3.254v12.779A2.122,2.122,0,0,0,401.032,344.8Z" transform="translate(-270.312 -232.613)" fill="#12263f"/>
        <path id="Trazado_156868" data-name="Trazado 156868" d="M160.791,38.985a7.507,7.507,0,0,0-7.5,7.5V80.552a7.507,7.507,0,0,0,7.5,7.5h76.92a7.507,7.507,0,0,0,7.5-7.5V46.484a7.507,7.507,0,0,0-7.5-7.5H177.9a2.122,2.122,0,1,0,0,4.245H237.71a3.258,3.258,0,0,1,3.254,3.254V80.552a3.258,3.258,0,0,1-3.254,3.254h-76.92a3.258,3.258,0,0,1-3.254-3.254V46.484a3.258,3.258,0,0,1,3.254-3.254,2.122,2.122,0,1,0,0-4.245Z" transform="translate(-110.904 -29.396)" fill="#12263f"/>
        <path id="Trazado_156869" data-name="Trazado 156869" d="M249.616,95.031h-8.632a2.122,2.122,0,0,0,0,4.245h8.632a7,7,0,0,0,6.989-6.989V71.836a7,7,0,0,0-6.989-6.989H186.536a7,7,0,0,0-6.989,6.989v20.45a7,7,0,0,0,6.989,6.989h37.469a2.122,2.122,0,0,0,0-4.245H186.536a2.748,2.748,0,0,1-2.745-2.745V71.836a2.748,2.748,0,0,1,2.745-2.745h63.079a2.748,2.748,0,0,1,2.745,2.745v20.45a2.748,2.748,0,0,1-2.745,2.745Z" transform="translate(-129.729 -47.94)" fill="#12263f"/>
      </g>
      <g id="Grupo_107459" data-name="Grupo 107459" transform="translate(15.173 94.742)">
        <path id="Trazado_156870" data-name="Trazado 156870" d="M68.8,339.9a1.807,1.807,0,0,1,1.82,1.82v.931a15.409,15.409,0,0,1,6.561,2.328,2.266,2.266,0,0,1,1.27,2.032,2.331,2.331,0,0,1-2.371,2.328,2.452,2.452,0,0,1-1.27-.381,15.366,15.366,0,0,0-4.36-1.863v8.128c6.434,1.609,9.186,4.191,9.186,8.72,0,4.656-3.641,7.747-9.017,8.255v2.54a1.807,1.807,0,0,1-1.82,1.82,1.843,1.843,0,0,1-1.863-1.82v-2.624a18.311,18.311,0,0,1-8.678-3.3,2.327,2.327,0,0,1-1.143-2.032,2.328,2.328,0,0,1,3.725-1.863,15,15,0,0,0,6.265,2.836v-8.339c-6.181-1.609-9.059-3.937-9.059-8.72,0-4.53,3.6-7.662,8.89-8.086v-.889A1.844,1.844,0,0,1,68.8,339.9ZM67.11,354.333V346.84c-2.709.254-4.064,1.693-4.064,3.556C63.045,352.174,63.85,353.275,67.11,354.333Zm3.344,5.884v7.7c2.709-.3,4.191-1.651,4.191-3.683C74.645,362.376,73.713,361.233,70.454,360.218Z" transform="translate(-57.119 -339.898)" fill="#231f20"/>
      </g>
    </g>
  </g>
</svg>
