<svg xmlns="http://www.w3.org/2000/svg" xmlns:xlink="http://www.w3.org/1999/xlink" width="610" height="388" viewBox="0 0 610 388">
  <defs>
    <filter id="Elipse_5103" x="80.542" y="89.188" width="100.457" height="100.457" filterUnits="userSpaceOnUse">
      <feOffset dy="4" input="SourceAlpha"/>
      <feGaussianBlur stdDeviation="4" result="blur"/>
      <feFlood flood-opacity="0.251"/>
      <feComposite operator="in" in2="blur"/>
      <feComposite in="SourceGraphic"/>
    </filter>
    <filter id="Elipse_5104" x="167.804" y="176.452" width="100.457" height="100.457" filterUnits="userSpaceOnUse">
      <feOffset dy="4" input="SourceAlpha"/>
      <feGaussianBlur stdDeviation="4" result="blur-2"/>
      <feFlood flood-opacity="0.251"/>
      <feComposite operator="in" in2="blur-2"/>
      <feComposite in="SourceGraphic"/>
    </filter>
    <filter id="Elipse_5105" x="341.804" y="176.452" width="100.457" height="100.457" filterUnits="userSpaceOnUse">
      <feOffset dy="4" input="SourceAlpha"/>
      <feGaussianBlur stdDeviation="4" result="blur-3"/>
      <feFlood flood-opacity="0.2"/>
      <feComposite operator="in" in2="blur-3"/>
      <feComposite in="SourceGraphic"/>
    </filter>
    <filter id="Elipse_5106" x="254.475" y="89.786" width="100.457" height="100.457" filterUnits="userSpaceOnUse">
      <feOffset dy="4" input="SourceAlpha"/>
      <feGaussianBlur stdDeviation="4" result="blur-4"/>
      <feFlood flood-opacity="0.2"/>
      <feComposite operator="in" in2="blur-4"/>
      <feComposite in="SourceGraphic"/>
    </filter>
    <filter id="Elipse_5107" x="428.475" y="89.786" width="100.457" height="100.457" filterUnits="userSpaceOnUse">
      <feOffset dy="4" input="SourceAlpha"/>
      <feGaussianBlur stdDeviation="4" result="blur-5"/>
      <feFlood flood-opacity="0.2"/>
      <feComposite operator="in" in2="blur-5"/>
      <feComposite in="SourceGraphic"/>
    </filter>
  </defs>
  <g id="Grupo_108364" data-name="Grupo 108364" transform="translate(-495 -2044)">
    <rect id="Rectángulo_36806" data-name="Rectángulo 36806" width="610" height="388" transform="translate(495 2044)" fill="none"/>
    <g id="Grupo_108333" data-name="Grupo 108333" transform="translate(-1587.131 285.361)">
      <path id="Trazado_158312" data-name="Trazado 158312" d="M2427.7,1935.075c2.846,2.846,3.294,7.434,3.294,7.434a9.73,9.73,0,0,0,2.41,5.106l.6.6a3.01,3.01,0,0,0,4.243,0l33.793-33.793a3.008,3.008,0,0,1,4.244,0l33.792,33.793a3.01,3.01,0,0,0,4.24,0l.027-.026a9.745,9.745,0,0,0,2.412-5.107s.447-4.588,3.289-7.433a12.577,12.577,0,0,1,17.787,17.786c-2.846,2.846-7.438,3.291-7.438,3.291a9.767,9.767,0,0,0-5.1,2.408l-.026.025a3.011,3.011,0,0,0,0,4.241l33.8,33.794a3.01,3.01,0,0,1,0,4.241l-33.792,33.8a3.016,3.016,0,0,1-4.244,0l-.374-.375a9.742,9.742,0,0,1-2.412-5.109s-.446-4.586-3.29-7.433a12.577,12.577,0,0,0-17.787,17.786c2.845,2.842,7.433,3.291,7.433,3.291a9.751,9.751,0,0,1,5.11,2.408l.375.377a3.007,3.007,0,0,1,0,4.241l-33.8,33.793a3.01,3.01,0,0,1-4.244,0l-33.793-33.793a3,3,0,0,1,0-4.241l.358-.359a9.755,9.755,0,0,1,5.109-2.413s4.588-.447,7.433-3.291a12.574,12.574,0,1,0-17.783-17.783c-2.846,2.844-3.291,7.43-3.291,7.43a9.752,9.752,0,0,1-2.411,5.109l-.36.36a3.011,3.011,0,0,1-4.243,0l-33.795-33.8a3,3,0,0,1,0-4.239l33.795-33.8a3.007,3.007,0,0,0,0-4.241l-.6-.6a9.735,9.735,0,0,0-5.108-2.409s-4.59-.446-7.435-3.29a12.576,12.576,0,1,1,17.786-17.785Z" fill="#3d46c2"/>
      <path id="Trazado_158313" data-name="Trazado 158313" d="M2427.7,1935.075c2.846,2.846,3.294,7.434,3.294,7.434a9.73,9.73,0,0,0,2.41,5.106l.6.6a3.01,3.01,0,0,0,4.243,0l33.793-33.793a3.008,3.008,0,0,1,4.244,0l33.792,33.793a3.01,3.01,0,0,0,4.24,0l.027-.026a9.745,9.745,0,0,0,2.412-5.107s.447-4.588,3.289-7.433a12.577,12.577,0,0,1,17.787,17.786c-2.846,2.846-7.438,3.291-7.438,3.291a9.767,9.767,0,0,0-5.1,2.408l-.026.025a3.011,3.011,0,0,0,0,4.241l33.8,33.794a3.01,3.01,0,0,1,0,4.241l-33.792,33.8a3.016,3.016,0,0,1-4.244,0l-.374-.375a9.742,9.742,0,0,1-2.412-5.109s-.446-4.586-3.29-7.433a12.577,12.577,0,0,0-17.787,17.786c2.845,2.842,7.433,3.291,7.433,3.291a9.751,9.751,0,0,1,5.11,2.408l.375.377a3.007,3.007,0,0,1,0,4.241l-33.8,33.793a3.01,3.01,0,0,1-4.244,0l-33.793-33.793a3,3,0,0,1,0-4.241l.358-.359a9.755,9.755,0,0,1,5.109-2.413s4.588-.447,7.433-3.291a12.574,12.574,0,1,0-17.783-17.783c-2.846,2.844-3.291,7.43-3.291,7.43a9.752,9.752,0,0,1-2.411,5.109l-.36.36a3.011,3.011,0,0,1-4.243,0l-33.795-33.8a3,3,0,0,1,0-4.239l33.795-33.8a3.007,3.007,0,0,0,0-4.241l-.6-.6a9.735,9.735,0,0,0-5.108-2.409s-4.59-.446-7.435-3.29a12.576,12.576,0,1,1,17.786-17.785Z" fill="#3d46c2"/>
    </g>
    <path id="Trazado_158314" data-name="Trazado 158314" d="M2607.3,1848.407c-2.845,2.846-3.291,7.436-3.291,7.436a9.749,9.749,0,0,1-2.41,5.107l-.6.6a3.012,3.012,0,0,1-4.243,0l-33.794-33.794a3.009,3.009,0,0,0-4.243,0l-33.793,33.793a3.01,3.01,0,0,1-4.243,0l-.025-.026a9.763,9.763,0,0,1-2.411-5.107s-.447-4.588-3.292-7.433a12.576,12.576,0,1,0-17.785,17.786c2.847,2.846,7.436,3.292,7.436,3.292a9.742,9.742,0,0,1,5.108,2.408l.024.025a3.012,3.012,0,0,1,0,4.243l-33.794,33.793a3.01,3.01,0,0,0,0,4.244l33.793,33.792a3.009,3.009,0,0,0,4.243,0l.374-.373a9.737,9.737,0,0,0,2.41-5.107s.446-4.589,3.29-7.433a12.576,12.576,0,1,1,17.785,17.785c-2.843,2.842-7.432,3.287-7.432,3.287a9.771,9.771,0,0,0-5.108,2.41l-.374.377a3,3,0,0,0,0,4.24l33.8,33.793a3.009,3.009,0,0,0,4.243,0l33.794-33.794a3,3,0,0,0,0-4.239l-.359-.36a9.751,9.751,0,0,0-5.108-2.41s-4.591-.445-7.437-3.291a12.577,12.577,0,0,1,17.786-17.787c2.844,2.844,3.289,7.435,3.289,7.435a9.783,9.783,0,0,0,2.414,5.107l.361.36a3.007,3.007,0,0,0,4.24,0l33.8-33.794a3.014,3.014,0,0,0,0-4.243l-33.794-33.793a3.008,3.008,0,0,1,0-4.244l.6-.6a9.756,9.756,0,0,1,5.107-2.411s4.59-.444,7.434-3.29a12.576,12.576,0,1,0-17.785-17.785Z" transform="translate(-1587.131 285.361)" fill="#5589ff"/>
    <g id="Grupo_108337" data-name="Grupo 108337" transform="translate(-1587.131 285.361)">
      <g id="Grupo_108334" data-name="Grupo 108334">
        <rect id="Rectángulo_40200" data-name="Rectángulo 40200" width="2" height="1.5" transform="translate(2212.074 1824.666)" fill="#b3b3b3"/>
      </g>
      <g id="Grupo_108335" data-name="Grupo 108335">
        <path id="Trazado_158315" data-name="Trazado 158315" d="M2214.075,1821.425h-2v-3.239h2Zm0-6.479h-2v-3.239h2Zm0-6.479h-2v-3.24h2Z" fill="#b3b3b3"/>
      </g>
      <g id="Grupo_108336" data-name="Grupo 108336">
        <rect id="Rectángulo_40201" data-name="Rectángulo 40201" width="2" height="1.5" transform="translate(2212.074 1800.488)" fill="#b3b3b3"/>
      </g>
    </g>
    <g id="Grupo_108341" data-name="Grupo 108341" transform="translate(-1587.131 285.361)">
      <g id="Grupo_108338" data-name="Grupo 108338">
        <rect id="Rectángulo_40202" data-name="Rectángulo 40202" width="2" height="1.5" transform="translate(2298.992 2107.289)" fill="#b3b3b3"/>
      </g>
      <g id="Grupo_108339" data-name="Grupo 108339">
        <path id="Trazado_158316" data-name="Trazado 158316" d="M2300.992,2104.048h-2v-3.239h2Zm0-6.479h-2v-3.239h2Zm0-6.479h-2v-3.24h2Z" fill="#b3b3b3"/>
      </g>
      <g id="Grupo_108340" data-name="Grupo 108340">
        <rect id="Rectángulo_40203" data-name="Rectángulo 40203" width="2" height="1.5" transform="translate(2298.992 2083.111)" fill="#b3b3b3"/>
      </g>
    </g>
    <g id="Grupo_108345" data-name="Grupo 108345" transform="translate(-1587.131 285.361)">
      <g id="Grupo_108342" data-name="Grupo 108342">
        <rect id="Rectángulo_40204" data-name="Rectángulo 40204" width="2" height="1.5" transform="translate(2386.175 1824.666)" fill="#b3b3b3"/>
      </g>
      <g id="Grupo_108343" data-name="Grupo 108343">
        <path id="Trazado_158317" data-name="Trazado 158317" d="M2388.175,1821.425h-2v-3.239h2Zm0-6.479h-2v-3.239h2Zm0-6.479h-2v-3.24h2Z" fill="#b3b3b3"/>
      </g>
      <g id="Grupo_108344" data-name="Grupo 108344">
        <rect id="Rectángulo_40205" data-name="Rectángulo 40205" width="2" height="1.5" transform="translate(2386.175 1800.488)" fill="#b3b3b3"/>
      </g>
    </g>
    <g id="Grupo_108349" data-name="Grupo 108349" transform="translate(-1587.131 285.361)">
      <g id="Grupo_108346" data-name="Grupo 108346">
        <rect id="Rectángulo_40206" data-name="Rectángulo 40206" width="2" height="1.5" transform="translate(2472.882 2107.289)" fill="#b3b3b3"/>
      </g>
      <g id="Grupo_108347" data-name="Grupo 108347">
        <path id="Trazado_158318" data-name="Trazado 158318" d="M2474.882,2104.048h-2v-3.239h2Zm0-6.479h-2v-3.239h2Zm0-6.479h-2v-3.24h2Z" fill="#b3b3b3"/>
      </g>
      <g id="Grupo_108348" data-name="Grupo 108348">
        <rect id="Rectángulo_40207" data-name="Rectángulo 40207" width="2" height="1.5" transform="translate(2472.882 2083.111)" fill="#b3b3b3"/>
      </g>
    </g>
    <g id="Grupo_108353" data-name="Grupo 108353" transform="translate(-1587.131 285.361)">
      <g id="Grupo_108350" data-name="Grupo 108350">
        <rect id="Rectángulo_40208" data-name="Rectángulo 40208" width="2" height="1.5" transform="translate(2560.276 1824.666)" fill="#b3b3b3"/>
      </g>
      <g id="Grupo_108351" data-name="Grupo 108351">
        <path id="Trazado_158319" data-name="Trazado 158319" d="M2562.276,1821.425h-2v-3.239h2Zm0-6.479h-2v-3.239h2Zm0-6.479h-2v-3.24h2Z" fill="#b3b3b3"/>
      </g>
      <g id="Grupo_108352" data-name="Grupo 108352">
        <rect id="Rectángulo_40209" data-name="Rectángulo 40209" width="2" height="1.5" transform="translate(2560.276 1800.488)" fill="#b3b3b3"/>
      </g>
    </g>
    <g id="Grupo_108354" data-name="Grupo 108354" transform="translate(-1587.131 285.361)">
      <path id="Trazado_158320" data-name="Trazado 158320" d="M2253.7,1934.075c2.846,2.846,3.294,7.434,3.294,7.434a9.73,9.73,0,0,0,2.41,5.106l.6.6a3.01,3.01,0,0,0,4.243,0l33.793-33.793a3.008,3.008,0,0,1,4.244,0l33.792,33.793a3.01,3.01,0,0,0,4.24,0l.027-.026a9.745,9.745,0,0,0,2.412-5.107s.447-4.588,3.289-7.433a12.577,12.577,0,0,1,17.787,17.786c-2.846,2.846-7.438,3.291-7.438,3.291a9.767,9.767,0,0,0-5.1,2.408l-.026.025a3.011,3.011,0,0,0,0,4.241l33.8,33.794a3.01,3.01,0,0,1,0,4.241l-33.792,33.8a3.016,3.016,0,0,1-4.244,0l-.374-.375a9.742,9.742,0,0,1-2.412-5.109s-.446-4.586-3.29-7.433a12.577,12.577,0,0,0-17.787,17.786c2.845,2.842,7.433,3.291,7.433,3.291a9.751,9.751,0,0,1,5.11,2.408l.375.377a3.007,3.007,0,0,1,0,4.241l-33.8,33.793a3.01,3.01,0,0,1-4.244,0l-33.793-33.793a3,3,0,0,1,0-4.241l.358-.359a9.755,9.755,0,0,1,5.109-2.413s4.588-.447,7.433-3.291a12.574,12.574,0,1,0-17.783-17.783c-2.846,2.844-3.291,7.43-3.291,7.43a9.752,9.752,0,0,1-2.411,5.109l-.36.36a3.011,3.011,0,0,1-4.243,0l-33.795-33.8a3,3,0,0,1,0-4.239l33.795-33.8a3.007,3.007,0,0,0,0-4.241l-.6-.6a9.735,9.735,0,0,0-5.108-2.409s-4.59-.446-7.435-3.29a12.576,12.576,0,1,1,17.786-17.785Z" fill="#3d46c2"/>
      <path id="Trazado_158321" data-name="Trazado 158321" d="M2253.7,1934.075c2.846,2.846,3.294,7.434,3.294,7.434a9.73,9.73,0,0,0,2.41,5.106l.6.6a3.01,3.01,0,0,0,4.243,0l33.793-33.793a3.008,3.008,0,0,1,4.244,0l33.792,33.793a3.01,3.01,0,0,0,4.24,0l.027-.026a9.745,9.745,0,0,0,2.412-5.107s.447-4.588,3.289-7.433a12.577,12.577,0,0,1,17.787,17.786c-2.846,2.846-7.438,3.291-7.438,3.291a9.767,9.767,0,0,0-5.1,2.408l-.026.025a3.011,3.011,0,0,0,0,4.241l33.8,33.794a3.01,3.01,0,0,1,0,4.241l-33.792,33.8a3.016,3.016,0,0,1-4.244,0l-.374-.375a9.742,9.742,0,0,1-2.412-5.109s-.446-4.586-3.29-7.433a12.577,12.577,0,0,0-17.787,17.786c2.845,2.842,7.433,3.291,7.433,3.291a9.751,9.751,0,0,1,5.11,2.408l.375.377a3.007,3.007,0,0,1,0,4.241l-33.8,33.793a3.01,3.01,0,0,1-4.244,0l-33.793-33.793a3,3,0,0,1,0-4.241l.358-.359a9.755,9.755,0,0,1,5.109-2.413s4.588-.447,7.433-3.291a12.574,12.574,0,1,0-17.783-17.783c-2.846,2.844-3.291,7.43-3.291,7.43a9.752,9.752,0,0,1-2.411,5.109l-.36.36a3.011,3.011,0,0,1-4.243,0l-33.795-33.8a3,3,0,0,1,0-4.239l33.795-33.8a3.007,3.007,0,0,0,0-4.241l-.6-.6a9.735,9.735,0,0,0-5.108-2.409s-4.59-.446-7.435-3.29a12.576,12.576,0,1,1,17.786-17.785Z" fill="#3d46c2"/>
    </g>
    <path id="Trazado_158322" data-name="Trazado 158322" d="M2259.366,1846.81c-2.846,2.845-3.292,7.434-3.292,7.434a9.744,9.744,0,0,1-2.41,5.107l-.6.6a3.012,3.012,0,0,1-4.244,0l-33.793-33.794a3.012,3.012,0,0,0-4.244,0l-33.792,33.795a3.011,3.011,0,0,1-4.243,0l-.025-.026a9.749,9.749,0,0,1-2.411-5.107s-.446-4.587-3.29-7.432a12.576,12.576,0,1,0-17.785,17.785c2.844,2.846,7.434,3.291,7.434,3.291a9.745,9.745,0,0,1,5.11,2.411l.023.022a3.012,3.012,0,0,1,0,4.244l-33.8,33.794a3.008,3.008,0,0,0,0,4.242l33.795,33.794a3.009,3.009,0,0,0,4.242,0l.374-.375a9.748,9.748,0,0,0,2.41-5.107s.446-4.588,3.291-7.433a12.576,12.576,0,1,1,17.785,17.784c-2.845,2.845-7.433,3.29-7.433,3.29a9.766,9.766,0,0,0-5.108,2.41l-.373.375a3.005,3.005,0,0,0,0,4.24l33.792,33.794a3.012,3.012,0,0,0,4.244,0l33.793-33.8a3.008,3.008,0,0,0,0-4.242l-.357-.358a9.776,9.776,0,0,0-5.109-2.409s-4.592-.446-7.437-3.291a12.576,12.576,0,0,1,17.786-17.785c2.845,2.844,3.292,7.431,3.292,7.431a9.739,9.739,0,0,0,2.41,5.107l.361.362a3.007,3.007,0,0,0,4.24,0l33.8-33.793a3.012,3.012,0,0,0,0-4.243l-33.794-33.793a3.01,3.01,0,0,1,0-4.243l.6-.6a9.769,9.769,0,0,1,5.106-2.411s4.589-.445,7.434-3.29a12.575,12.575,0,1,0-17.783-17.784Z" transform="translate(-1587.131 285.361)" fill="#5589ff"/>
    <path id="Trazado_158323" data-name="Trazado 158323" d="M2259.366,1846.81c-2.846,2.845-3.292,7.434-3.292,7.434a9.744,9.744,0,0,1-2.41,5.107l-.6.6a3.012,3.012,0,0,1-4.244,0l-33.793-33.794a3.012,3.012,0,0,0-4.244,0l-33.792,33.795a3.011,3.011,0,0,1-4.243,0l-.025-.026a9.749,9.749,0,0,1-2.411-5.107s-.446-4.587-3.29-7.432a12.576,12.576,0,1,0-17.785,17.785c2.844,2.846,7.434,3.291,7.434,3.291a9.745,9.745,0,0,1,5.11,2.411l.023.022a3.012,3.012,0,0,1,0,4.244l-33.8,33.794a3.008,3.008,0,0,0,0,4.242l33.795,33.794a3.009,3.009,0,0,0,4.242,0l.374-.375a9.748,9.748,0,0,0,2.41-5.107s.446-4.588,3.291-7.433a12.576,12.576,0,1,1,17.785,17.784c-2.845,2.845-7.433,3.29-7.433,3.29a9.766,9.766,0,0,0-5.108,2.41l-.373.375a3.005,3.005,0,0,0,0,4.24l33.792,33.794a3.012,3.012,0,0,0,4.244,0l33.793-33.8a3.008,3.008,0,0,0,0-4.242l-.357-.358a9.776,9.776,0,0,0-5.109-2.409s-4.592-.446-7.437-3.291a12.576,12.576,0,0,1,17.786-17.785c2.845,2.844,3.292,7.431,3.292,7.431a9.739,9.739,0,0,0,2.41,5.107l.361.362a3.007,3.007,0,0,0,4.24,0l33.8-33.793a3.012,3.012,0,0,0,0-4.243l-33.794-33.793a3.01,3.01,0,0,1,0-4.243l.6-.6a9.769,9.769,0,0,1,5.106-2.411s4.589-.445,7.434-3.29a12.575,12.575,0,1,0-17.783-17.784Z" transform="translate(-1587.131 285.361)" fill="none" stroke="#fff" stroke-linejoin="round" stroke-width="1"/>
    <path id="Trazado_158324" data-name="Trazado 158324" d="M2433.3,1847.407c-2.845,2.846-3.291,7.436-3.291,7.436a9.749,9.749,0,0,1-2.41,5.107l-.6.6a3.012,3.012,0,0,1-4.243,0l-33.794-33.794a3.009,3.009,0,0,0-4.243,0l-33.793,33.793a3.01,3.01,0,0,1-4.243,0l-.025-.026a9.763,9.763,0,0,1-2.411-5.107s-.447-4.588-3.292-7.433a12.576,12.576,0,1,0-17.785,17.786c2.847,2.846,7.436,3.292,7.436,3.292a9.742,9.742,0,0,1,5.108,2.408l.024.025a3.012,3.012,0,0,1,0,4.243l-33.794,33.793a3.01,3.01,0,0,0,0,4.244l33.793,33.792a3.009,3.009,0,0,0,4.243,0l.374-.373a9.737,9.737,0,0,0,2.41-5.107s.446-4.589,3.29-7.433a12.576,12.576,0,1,1,17.785,17.785c-2.843,2.842-7.432,3.287-7.432,3.287a9.771,9.771,0,0,0-5.108,2.41l-.374.377a3,3,0,0,0,0,4.24l33.8,33.793a3.009,3.009,0,0,0,4.243,0l33.794-33.794a3,3,0,0,0,0-4.239l-.359-.36a9.751,9.751,0,0,0-5.108-2.41s-4.591-.445-7.437-3.291a12.577,12.577,0,0,1,17.786-17.787c2.844,2.844,3.289,7.435,3.289,7.435a9.783,9.783,0,0,0,2.414,5.107l.361.36a3.007,3.007,0,0,0,4.24,0l33.8-33.794a3.014,3.014,0,0,0,0-4.243l-33.794-33.793a3.008,3.008,0,0,1,0-4.244l.6-.6a9.756,9.756,0,0,1,5.107-2.411s4.59-.444,7.434-3.29a12.576,12.576,0,1,0-17.785-17.785Z" transform="translate(-1587.131 285.361)" fill="#5589ff"/>
    <path id="Trazado_158325" data-name="Trazado 158325" d="M2433.3,1847.407c-2.845,2.846-3.291,7.436-3.291,7.436a9.749,9.749,0,0,1-2.41,5.107l-.6.6a3.012,3.012,0,0,1-4.243,0l-33.794-33.794a3.009,3.009,0,0,0-4.243,0l-33.793,33.793a3.01,3.01,0,0,1-4.243,0l-.025-.026a9.763,9.763,0,0,1-2.411-5.107s-.447-4.588-3.292-7.433a12.576,12.576,0,1,0-17.785,17.786c2.847,2.846,7.436,3.292,7.436,3.292a9.742,9.742,0,0,1,5.108,2.408l.024.025a3.012,3.012,0,0,1,0,4.243l-33.794,33.793a3.01,3.01,0,0,0,0,4.244l33.793,33.792a3.009,3.009,0,0,0,4.243,0l.374-.373a9.737,9.737,0,0,0,2.41-5.107s.446-4.589,3.29-7.433a12.576,12.576,0,1,1,17.785,17.785c-2.843,2.842-7.432,3.287-7.432,3.287a9.771,9.771,0,0,0-5.108,2.41l-.374.377a3,3,0,0,0,0,4.24l33.8,33.793a3.009,3.009,0,0,0,4.243,0l33.794-33.794a3,3,0,0,0,0-4.239l-.359-.36a9.751,9.751,0,0,0-5.108-2.41s-4.591-.445-7.437-3.291a12.577,12.577,0,0,1,17.786-17.787c2.844,2.844,3.289,7.435,3.289,7.435a9.783,9.783,0,0,0,2.414,5.107l.361.36a3.007,3.007,0,0,0,4.24,0l33.8-33.794a3.014,3.014,0,0,0,0-4.243l-33.794-33.793a3.008,3.008,0,0,1,0-4.244l.6-.6a9.756,9.756,0,0,1,5.107-2.411s4.59-.444,7.434-3.29a12.576,12.576,0,1,0-17.785-17.785Z" transform="translate(-1587.131 285.361)" fill="none" stroke="#fff" stroke-linejoin="round" stroke-width="1"/>
    <rect id="Rectángulo_40210" data-name="Rectángulo 40210" width="106.113" height="30" transform="translate(572.886 2053)" fill="#fff"/>
    <text id="Misión" transform="translate(625.943 2074.675)" fill="#12263f" font-size="16" font-family="Roboto-Bold, Roboto" font-weight="700" opacity="0.8"><tspan x="-24.367" y="0">Misión</tspan></text>
    <rect id="Rectángulo_40211" data-name="Rectángulo 40211" width="106.113" height="30" transform="translate(659.804 2395)" fill="#fff"/>
    <text id="Visión" transform="translate(712.861 2416.675)" fill="#12263f" font-size="16" font-family="Roboto-Bold, Roboto" font-weight="700" opacity="0.8"><tspan x="-22.59" y="0">Visión</tspan></text>
    <rect id="Rectángulo_40212" data-name="Rectángulo 40212" width="184.498" height="30" transform="translate(794.502 2395)" fill="#fff"/>
    <text id="Objetivos_estratégicos" data-name="Objetivos estratégicos" transform="translate(886.751 2416.675)" fill="#12263f" font-size="16" font-family="Roboto-Bold, Roboto" font-weight="700" opacity="0.8"><tspan x="-80.621" y="0">Objetivos estratégicos</tspan></text>
    <rect id="Rectángulo_40213" data-name="Rectángulo 40213" width="106.113" height="30" transform="translate(746.987 2053)" fill="#fff"/>
    <text id="Filosofía" transform="translate(800.044 2074.675)" fill="#12263f" font-size="16" font-family="Roboto-Bold, Roboto" font-weight="700" opacity="0.8"><tspan x="-31.133" y="0">Filosofía</tspan></text>
    <rect id="Rectángulo_40214" data-name="Rectángulo 40214" width="106.113" height="30" transform="translate(921.088 2053)" fill="#fff"/>
    <text id="Normas" transform="translate(974.144 2074.675)" fill="#12263f" font-size="16" font-family="Roboto-Bold, Roboto" font-weight="700" opacity="0.8"><tspan x="-28.418" y="0">Normas</tspan></text>
    <g transform="matrix(1, 0, 0, 1, 495, 2044)" filter="url(#Elipse_5103)">
      <circle id="Elipse_5103-2" data-name="Elipse 5103" cx="38.229" cy="38.229" r="38.229" transform="translate(92.54 97.19)" fill="#fff"/>
    </g>
    <g transform="matrix(1, 0, 0, 1, 495, 2044)" filter="url(#Elipse_5104)">
      <circle id="Elipse_5104-2" data-name="Elipse 5104" cx="38.229" cy="38.229" r="38.229" transform="translate(179.8 184.45)" fill="#fff"/>
    </g>
    <g transform="matrix(1, 0, 0, 1, 495, 2044)" filter="url(#Elipse_5105)">
      <circle id="Elipse_5105-2" data-name="Elipse 5105" cx="38.229" cy="38.229" r="38.229" transform="translate(353.8 184.45)" fill="#fff"/>
    </g>
    <g transform="matrix(1, 0, 0, 1, 495, 2044)" filter="url(#Elipse_5106)">
      <circle id="Elipse_5106-2" data-name="Elipse 5106" cx="38.229" cy="38.229" r="38.229" transform="translate(266.47 97.79)" fill="#fff"/>
    </g>
    <g id="logro" transform="translate(-1587.131 285.361)">
      <g id="Grupo_108355" data-name="Grupo 108355">
        <path id="Trazado_158017" data-name="Trazado 158017" d="M2212.9,1900.951a.908.908,0,1,0-.907-.907A.907.907,0,0,0,2212.9,1900.951Z" fill="#12263f"/>
        <path id="Trazado_158018" data-name="Trazado 158018" d="M2224.576,1896.174a.9.9,0,0,0-.773-.453h-.012a.908.908,0,0,0-.773.432l-3.489,5.669-5.719-9.294v-10.813h13.611a.907.907,0,0,0,.708-1.474l-3.176-3.97,3.175-3.97a.906.906,0,0,0-.707-1.474H2212.9a.907.907,0,0,0-.907.907v20.794l-5.72,9.294-3.489-5.67a.907.907,0,0,0-1.558.022l-11.433,19.747a.907.907,0,0,0,.786,1.362h44.642a.907.907,0,0,0,.785-1.362Zm-17.516,7.836,0-.005,5.84-9.489,12.893,20.953h-25.787Zm16.023-28.306a.907.907,0,0,0,0,1.133l2.45,3.063H2213.81v-7.259h11.723Zm-21.045,22.694,3.173,5.155-7.333,11.916h-5.723Zm25.889,17.071-7.332-11.916,3.172-5.155,9.883,17.071Z" fill="#12263f"/>
        <path id="Trazado_158019" data-name="Trazado 158019" d="M2220.153,1913.222a.907.907,0,0,0,1.545-.951l-5.974-9.708a.907.907,0,1,0-1.561.925l.016.026Z" fill="#12263f"/>
      </g>
    </g>
    <g id="Grupo_108356" data-name="Grupo 108356" transform="translate(-1587.131 285.361)">
      <path id="Trazado_158326" data-name="Trazado 158326" d="M2300.164,1986.489a5.169,5.169,0,1,1,5.169-5.169A5.175,5.175,0,0,1,2300.164,1986.489Zm0-8.075a2.906,2.906,0,1,0,2.906,2.906A2.909,2.909,0,0,0,2300.164,1978.414Z" fill="#12263f"/>
      <path id="Trazado_158327" data-name="Trazado 158327" d="M2300.164,1993.084a11.8,11.8,0,0,1-2.152-.2,1.13,1.13,0,0,1-.889-.83l-.181-.7a10.546,10.546,0,0,1-1.566-.646l-.565.362a1.131,1.131,0,0,1-1.247-.017,11.747,11.747,0,0,1-3.128-3.131,1.131,1.131,0,0,1-.017-1.246l.362-.566a10.576,10.576,0,0,1-.646-1.57l-.7-.181a1.13,1.13,0,0,1-.829-.889,11.868,11.868,0,0,1,0-4.307,1.131,1.131,0,0,1,.829-.889l.7-.181a10.568,10.568,0,0,1,.646-1.569l-.362-.567a1.129,1.129,0,0,1,.017-1.245,11.749,11.749,0,0,1,3.128-3.132,1.131,1.131,0,0,1,1.247-.016l.565.362a10.435,10.435,0,0,1,1.566-.647l.181-.7a1.132,1.132,0,0,1,.889-.83,11.927,11.927,0,0,1,4.3,0,1.134,1.134,0,0,1,.889.83l.18.7a10.393,10.393,0,0,1,1.567.647l.565-.362a1.13,1.13,0,0,1,1.247.017,11.75,11.75,0,0,1,3.128,3.131,1.133,1.133,0,0,1,.017,1.246l-.363.566a10.436,10.436,0,0,1,.647,1.57l.7.18a1.13,1.13,0,0,1,.829.889,11.873,11.873,0,0,1,0,4.308,1.129,1.129,0,0,1-.829.888l-.7.181a10.478,10.478,0,0,1-.647,1.57l.363.566a1.133,1.133,0,0,1-.017,1.246,11.752,11.752,0,0,1-3.128,3.131,1.132,1.132,0,0,1-1.247.017l-.565-.362a10.5,10.5,0,0,1-1.567.646l-.18.7a1.132,1.132,0,0,1-.889.83,11.793,11.793,0,0,1-2.152.2Zm-1.037-2.319a9.593,9.593,0,0,0,2.074,0l.155-.6a1.133,1.133,0,0,1,.822-.816,8.188,8.188,0,0,0,2.234-.925,1.13,1.13,0,0,1,1.193.017l.479.307a9.525,9.525,0,0,0,1.5-1.5l-.308-.48a1.132,1.132,0,0,1-.017-1.192,8.238,8.238,0,0,0,.925-2.237,1.13,1.13,0,0,1,.814-.822l.6-.155a9.691,9.691,0,0,0,0-2.079l-.6-.155a1.13,1.13,0,0,1-.814-.822,8.236,8.236,0,0,0-.925-2.237,1.132,1.132,0,0,1,.017-1.192l.308-.48a9.562,9.562,0,0,0-1.5-1.5l-.479.307a1.13,1.13,0,0,1-1.193.017,8.184,8.184,0,0,0-2.234-.925,1.134,1.134,0,0,1-.822-.815l-.155-.6a9.577,9.577,0,0,0-2.074,0l-.155.6a1.134,1.134,0,0,1-.822.815,8.185,8.185,0,0,0-2.234.925,1.132,1.132,0,0,1-1.194-.017l-.478-.307a9.489,9.489,0,0,0-1.5,1.5l.308.48a1.133,1.133,0,0,1,.017,1.192,8.2,8.2,0,0,0-.925,2.237,1.131,1.131,0,0,1-.815.822l-.6.155a9.7,9.7,0,0,0-.056,1.039,9.462,9.462,0,0,0,.057,1.04l.6.155a1.131,1.131,0,0,1,.815.822,8.2,8.2,0,0,0,.925,2.237,1.133,1.133,0,0,1-.017,1.192l-.308.48a9.495,9.495,0,0,0,1.5,1.5l.478-.307a1.132,1.132,0,0,1,1.194-.017,8.189,8.189,0,0,0,2.234.925,1.134,1.134,0,0,1,.822.815Zm11.482-7.5h0Z" fill="#12263f"/>
      <path id="Trazado_158328" data-name="Trazado 158328" d="M2300.163,1989.659a1.131,1.131,0,1,1,1.11-.91,1.142,1.142,0,0,1-1.11.91Z" fill="#12263f"/>
      <path id="Trazado_158329" data-name="Trazado 158329" d="M2328.94,1980.691a44.238,44.238,0,0,0-7.762-8.358,38.713,38.713,0,0,0-9.038-5.749,28.523,28.523,0,0,0-23.952,0,38.723,38.723,0,0,0-9.038,5.749,44.274,44.274,0,0,0-7.763,8.358,1.132,1.132,0,0,0,0,1.257,44.252,44.252,0,0,0,7.763,8.358,38.727,38.727,0,0,0,9.038,5.749,29.224,29.224,0,0,0,11.976,2.636,31.157,31.157,0,0,0,17.957-6.041,1.132,1.132,0,1,0-1.294-1.857,35.408,35.408,0,0,1-4.179,2.515,17.31,17.31,0,0,0,.029-23.946,37.491,37.491,0,0,1,7,4.663,44.57,44.57,0,0,1,6.935,7.295c-.453.61-1.237,1.618-2.318,2.824a1.131,1.131,0,1,0,1.685,1.51,36.59,36.59,0,0,0,2.965-3.706,1.13,1.13,0,0,0,0-1.257Zm-55.22.629a44.494,44.494,0,0,1,6.935-7.295,37.421,37.421,0,0,1,7.016-4.673,17.281,17.281,0,0,0,0,23.936,37.475,37.475,0,0,1-7.016-4.673A44.574,44.574,0,0,1,2273.72,1981.32Zm37.065,10.655a15.046,15.046,0,1,1,4.423-10.655,14.941,14.941,0,0,1-4.423,10.655Z" fill="#12263f"/>
    </g>
    <g id="Grupo_108357" data-name="Grupo 108357" transform="translate(-1587.131 285.361)">
      <path id="Trazado_158330" data-name="Trazado 158330" d="M2392.468,1902.086h0Z" fill="#12263f" fill-rule="evenodd"/>
      <path id="Trazado_158331" data-name="Trazado 158331" d="M2411.517,1893c0-.025,0-.05-.007-.075s-.005-.03-.008-.044a.441.441,0,0,0-.02-.063.362.362,0,0,0-.02-.051l-.009-.023-5.014-9.738a2.072,2.072,0,0,0,1.2-1.876h0a2.071,2.071,0,0,0-3.554-1.446,13.164,13.164,0,0,1-1.87-1.018,16.589,16.589,0,0,0-8.909-2.861v-.445a1.5,1.5,0,0,0,1.193-1.417,1.455,1.455,0,0,0-1.078-1.382.435.435,0,0,1-.269-.194,1.843,1.843,0,0,1-.144-.289,2.281,2.281,0,1,0-3.558,0,1.917,1.917,0,0,1-.144.287.431.431,0,0,1-.271.195,1.457,1.457,0,0,0-1.076,1.381,1.5,1.5,0,0,0,1.193,1.417v.445a16.587,16.587,0,0,0-8.908,2.86,12.939,12.939,0,0,1-1.87,1.019,2.072,2.072,0,1,0-2.358,3.323L2371,1892.74c0,.009-.007.019-.011.028s-.011.026-.016.039a.483.483,0,0,0-.022.073c0,.012,0,.025-.007.038a.687.687,0,0,0-.008.079l0,.017c0,2.59,2.671,4.7,5.954,4.7s5.954-2.106,5.954-4.7c0-.012,0-.023,0-.034l0-.029a.648.648,0,0,0-.015-.089l-.007-.022a.715.715,0,0,0-.035-.09l0-.009-5.012-9.738a2.075,2.075,0,0,0,.524-.351,10.219,10.219,0,0,0,3.467-1.289,13.076,13.076,0,0,1,7.4-1.82v0h0a.593.593,0,0,0,.4.558v6.827a1.6,1.6,0,0,0-.37,2.928c-.9,1.589-.509,3.58-.155,5.369a14.6,14.6,0,0,1,.369,2.689v2.979h-.569a1.238,1.238,0,0,0-1.236,1.236v1.119h-.61a1.293,1.293,0,0,0-1.293,1.294v1.863a.594.594,0,0,0,.595.6h9.9a.6.6,0,0,0,.6-.6v-1.863a1.294,1.294,0,0,0-1.294-1.294h-.614v-1.119a1.237,1.237,0,0,0-1.235-1.236h-.568v-2.98a14.537,14.537,0,0,1,.37-2.689c.354-1.788.742-3.777-.154-5.366a1.6,1.6,0,0,0-.371-2.931V1880.1a.594.594,0,0,0,.4-.559h0a13.067,13.067,0,0,1,7.4,1.82,10.257,10.257,0,0,0,3.465,1.288,2.081,2.081,0,0,0,.526.352l-5.014,9.738-.008.02a.451.451,0,0,0-.026.071l-.009.027a.6.6,0,0,0-.022.154c0,2.59,2.672,4.7,5.954,4.7s5.953-2.106,5.953-4.7Zm-10.334-.578,3.787-7.357v7.357Zm4.977-7.36,3.787,7.36h-3.787Zm-.594-4.814a.883.883,0,0,1,.881.882h0a.882.882,0,1,1-.881-.883Zm-13.3,8.633h-2.279a.407.407,0,1,1,0-.814h2.485a.407.407,0,0,1,0,.814Zm-.15-13.489v3.561h-1.776v-2.511a.592.592,0,0,0,.006-.062.483.483,0,0,0-.006-.056v-.932Zm-1.377,11.485v-6.734h.98v6.734Zm.49-17.317a1.091,1.091,0,0,1,.776,1.859.551.551,0,0,0-.111.093,1.09,1.09,0,1,1-.665-1.952Zm-1.854,4.142a1.609,1.609,0,0,0,.943-.711c.041-.066.079-.133.115-.2a2.281,2.281,0,0,0,.8.145h0a2.292,2.292,0,0,0,.8-.147c.036.07.073.138.115.2a1.6,1.6,0,0,0,.943.711.285.285,0,0,1,.226.241.323.323,0,0,1-.35.259h-.135a.576.576,0,0,0-.125-.011.465.465,0,0,0-.092.011H2389.5a.323.323,0,0,1-.35-.259A.285.285,0,0,1,2389.373,1873.7Zm-16.869,18.72,3.789-7.36v7.36Zm4.979-7.361,3.789,7.361h-3.789Zm-.594-4.813a.88.88,0,0,1,.058,1.759.4.4,0,0,0-.071-.006.327.327,0,0,0-.046.006.88.88,0,0,1,.059-1.759Zm0,16.276c-2.35,0-4.309-1.261-4.694-2.912h9.389C2381.2,1895.26,2379.239,1896.521,2376.888,1896.521Zm4.318-16.215a12.854,12.854,0,0,1-2.254,1c.005-.057.009-.116.009-.175h0a2.122,2.122,0,0,0-.037-.384,14.781,14.781,0,0,0,1.94-1.066,15.335,15.335,0,0,1,8.286-2.685v1.359A14.27,14.27,0,0,0,2381.206,1880.306Zm14.376,24.239v1.268h-8.709v-1.268a.1.1,0,0,1,.1-.1h8.5A.106.106,0,0,1,2395.582,1904.545Zm-1.952-2.459a.048.048,0,0,1,.046.046v1.119h-4.9v-1.119a.047.047,0,0,1,.046-.046h4.807Zm-3.048-1.19v-2.979a15.543,15.543,0,0,0-.393-2.92c-.376-1.9-.727-3.7.283-4.929h1.51c1.009,1.232.658,3.03.282,4.929a15.541,15.541,0,0,0-.392,2.92v2.979Zm2.722-22.544v-1.36a15.34,15.34,0,0,1,8.286,2.685,14.765,14.765,0,0,0,1.94,1.066,2.124,2.124,0,0,0-.037.385c0,.059,0,.117.009.175a12.914,12.914,0,0,1-2.255-1A14.262,14.262,0,0,0,2393.3,1878.352Zm12.262,18.169c-2.352,0-4.31-1.261-4.695-2.912h9.389C2409.875,1895.26,2407.917,1896.521,2405.566,1896.521Z" fill="#12263f" fill-rule="evenodd"/>
      <path id="Trazado_158332" data-name="Trazado 158332" d="M2399.96,1906.831l-13.215,3.646a2.839,2.839,0,0,0-1.5-3.124l-5.634-4.06a3.7,3.7,0,0,0-3.958-.4c-1.194.453-3.09,1.313-5.639,2.555v-.212a1.1,1.1,0,0,0-1.1-1.1h-5.666a1.1,1.1,0,0,0-1.1,1.1v12.6a1.1,1.1,0,0,0,1.1,1.1h5.666a1.1,1.1,0,0,0,1.1-1.1v-.872a6.941,6.941,0,0,1,3.766.456c1.649.723,2.925,1.377,3.95,1.9,1.989,1.016,3.246,1.611,4.7,1.611h0c1.472,0,3.149-.609,5.987-2.006,2.081-1.024,6.647-3.44,13.572-7.18l.011-.006a2.719,2.719,0,0,0,.945-3.492A2.63,2.63,0,0,0,2399.96,1906.831Zm-36.619,10.92v-12.425h5.487v.989a.625.625,0,0,0,0,.176v11.26Zm38.1-7.052-.012.006c-6.912,3.734-11.464,6.143-13.532,7.16-5.306,2.609-5.964,2.272-9.622.4-1.039-.532-2.332-1.194-4.012-1.932a8.111,8.111,0,0,0-4.246-.568v-8.994c2.782-1.365,4.821-2.3,6.06-2.767a2.536,2.536,0,0,1,2.84.253l5.472,3.943.167.12c.718.512,1.046.746,1.059,1.544a1.639,1.639,0,0,1-2.386,1.488c-1.021-.524-2.074-1.116-3.091-1.69-.53-.3-1.077-.607-1.611-.9a.6.6,0,0,0-.573,1.043c.529.29,1.073.6,1.6.894,1.028.58,2.092,1.178,3.132,1.712a2.828,2.828,0,0,0,1.291.312h.046a2.821,2.821,0,0,0,1.909-.788l14.343-3.957a1.457,1.457,0,0,1,1.614.815A1.52,1.52,0,0,1,2401.442,1910.7Z" fill="#12263f" fill-rule="evenodd"/>
      <path id="Trazado_158333" data-name="Trazado 158333" d="M2366.083,1912.681a1.69,1.69,0,1,0,1.692,1.691h0A1.691,1.691,0,0,0,2366.083,1912.681Zm0,2.191a.5.5,0,1,1,.5-.5A.5.5,0,0,1,2366.085,1914.872Z" fill="#12263f" fill-rule="evenodd"/>
    </g>
    <path id="Trazado_158334" data-name="Trazado 158334" d="M2607.3,1848.407c-2.845,2.846-3.291,7.436-3.291,7.436a9.749,9.749,0,0,1-2.41,5.107l-.6.6a3.012,3.012,0,0,1-4.243,0l-33.794-33.794a3.009,3.009,0,0,0-4.243,0l-33.793,33.793a3.01,3.01,0,0,1-4.243,0l-.025-.026a9.763,9.763,0,0,1-2.411-5.107s-.447-4.588-3.292-7.433a12.576,12.576,0,1,0-17.785,17.786c2.847,2.846,7.436,3.292,7.436,3.292a9.742,9.742,0,0,1,5.108,2.408l.024.025a3.012,3.012,0,0,1,0,4.243l-33.794,33.793a3.01,3.01,0,0,0,0,4.244l33.793,33.792a3.009,3.009,0,0,0,4.243,0l.374-.373a9.737,9.737,0,0,0,2.41-5.107s.446-4.589,3.29-7.433a12.576,12.576,0,1,1,17.785,17.785c-2.843,2.842-7.432,3.287-7.432,3.287a9.771,9.771,0,0,0-5.108,2.41l-.374.377a3,3,0,0,0,0,4.24l33.8,33.793a3.009,3.009,0,0,0,4.243,0l33.794-33.794a3,3,0,0,0,0-4.239l-.359-.36a9.751,9.751,0,0,0-5.108-2.41s-4.591-.445-7.437-3.291a12.577,12.577,0,0,1,17.786-17.787c2.844,2.844,3.289,7.435,3.289,7.435a9.783,9.783,0,0,0,2.414,5.107l.361.36a3.007,3.007,0,0,0,4.24,0l33.8-33.794a3.014,3.014,0,0,0,0-4.243l-33.794-33.793a3.008,3.008,0,0,1,0-4.244l.6-.6a9.756,9.756,0,0,1,5.107-2.411s4.59-.444,7.434-3.29a12.576,12.576,0,1,0-17.785-17.785Z" transform="translate(-1587.131 285.361)" fill="none" stroke="#fff" stroke-linejoin="round" stroke-width="1"/>
    <g transform="matrix(1, 0, 0, 1, 495, 2044)" filter="url(#Elipse_5107)">
      <circle id="Elipse_5107-2" data-name="Elipse 5107" cx="38.229" cy="38.229" r="38.229" transform="translate(440.47 97.79)" fill="#fff"/>
    </g>
    <g id="ajedrez" transform="translate(-1587.131 285.361)">
      <g id="Grupo_108228" data-name="Grupo 108228">
        <g id="Grupo_108227" data-name="Grupo 108227">
          <path id="Trazado_158025" data-name="Trazado 158025" d="M2468.214,1994.805a.992.992,0,1,0,.992.992A.992.992,0,0,0,2468.214,1994.805Z" fill="#12263f"/>
        </g>
      </g>
      <g id="Grupo_108230" data-name="Grupo 108230">
        <g id="Grupo_108229" data-name="Grupo 108229">
          <path id="Trazado_158026" data-name="Trazado 158026" d="M2480.113,1994.805h-7.932a.992.992,0,0,0,0,1.984h7.932a.992.992,0,0,0,0-1.984Z" fill="#12263f"/>
        </g>
      </g>
      <g id="Grupo_108232" data-name="Grupo 108232">
        <g id="Grupo_108231" data-name="Grupo 108231">
          <path id="Trazado_158027" data-name="Trazado 158027" d="M2488.535,1999.434a3.082,3.082,0,0,0,.189-.324,2.958,2.958,0,0,0-.281-3.115l-3.13-4.173a2.974,2.974,0,0,0-2.225-4.949H2483l-1.825-19.339,3.846-1.282a2.971,2.971,0,0,0,2.035-2.823v-6.5a.991.991,0,0,0-.992-.991H2482.1a.992.992,0,0,0-.992.991v2.975h-1.983v-2.975a.992.992,0,0,0-.992-.991H2470.2a.991.991,0,0,0-.992.991v2.975h-1.983v-2.975a.991.991,0,0,0-.992-.991h-3.966a.992.992,0,0,0-.992.991v6.5a2.972,2.972,0,0,0,2.035,2.823l3.845,1.282-1.824,19.339h-.089a2.973,2.973,0,0,0-2.224,4.948l-3.131,4.174a2.957,2.957,0,0,0-.281,3.115,2.9,2.9,0,0,0,.189.325,4.959,4.959,0,0,0-2.486,4.295v1.983a.992.992,0,0,0,.991.992h31.731a.992.992,0,0,0,.992-.992v-1.983A4.96,4.96,0,0,0,2488.535,1999.434Zm-24.6-35.063a.993.993,0,0,1-.678-.942v-5.511h1.984v2.975a.991.991,0,0,0,.991.991h3.967a.991.991,0,0,0,.991-.991v-2.975h5.95v2.975a.992.992,0,0,0,.991.991h3.967a.991.991,0,0,0,.991-.991v-2.975h1.983v5.511a.989.989,0,0,1-.678.942l-4.44,1.48h-11.578Zm17.073,22.5h-13.686l1.8-19.039h10.094Zm-16.468,2.274a.98.98,0,0,1,.7-.291h17.848a.992.992,0,1,1,0,1.983H2465.24a.991.991,0,0,1-.7-1.692Zm-3.068,8.038,3.273-4.363h18.84l3.272,4.363a.992.992,0,0,1-.793,1.587h-23.8a.992.992,0,0,1-.794-1.587Zm27.567,7.536H2459.29v-.991a2.979,2.979,0,0,1,2.975-2.975h23.8a2.979,2.979,0,0,1,2.975,2.975Z" fill="#12263f"/>
        </g>
      </g>
    </g>
    <g id="diploma" transform="translate(-1587.131 285.361)">
      <path id="Trazado_158028" data-name="Trazado 158028" d="M2580.041,1880.077a.794.794,0,0,0,.794-.794h0v-5.561a3.953,3.953,0,0,0-3.986-3.91h-32.056a3.892,3.892,0,0,0-3.958,3.91v35.46a3.991,3.991,0,0,0,3.958,4.016h7.788v5.5a.793.793,0,0,0,1.148.71l3.878-1.939,3.879,1.939a.794.794,0,0,0,1.148-.71v-5.5l14.215-.025a3.992,3.992,0,0,0,3.986-3.99v-5.56a.793.793,0,0,0-.794-.794h-5.555v-22.751Zm-.793-6.355v4.767h-4.762v-4.714a2.381,2.381,0,0,1,4.762-.053Zm-17.782,32.11a.791.791,0,0,0-.277.247,5.588,5.588,0,1,1,.277-.247Zm-.419,11.585-3.085-1.542a.792.792,0,0,0-.71,0l-3.084,1.542v-9.372a7.129,7.129,0,0,0,6.879.04Zm1.587-10.5a7.142,7.142,0,1,0-10.1-.12l.047.048v4.77h-7.788a2.4,2.4,0,0,1-2.371-2.429v-35.46a2.322,2.322,0,0,1,2.371-2.323h28.9a3.948,3.948,0,0,0-.8,2.376v35.407a3.992,3.992,0,0,0,.807,2.408l-11.071.02Zm16.614-2.5v4.768a2.434,2.434,0,0,1-2.4,2.4,2.393,2.393,0,0,1-2.363-2.4v-4.768Z" fill="#12263f"/>
      <path id="Trazado_158029" data-name="Trazado 158029" d="M2557.644,1897.839a3.968,3.968,0,1,0,3.969,3.968h0A3.973,3.973,0,0,0,2557.644,1897.839Zm0,6.349a2.381,2.381,0,1,1,2.381-2.381h0A2.383,2.383,0,0,1,2557.644,1904.188Z" fill="#12263f"/>
      <path id="Trazado_158030" data-name="Trazado 158030" d="M2568.242,1885.9h-21.164a.794.794,0,0,0,0,1.587h21.164a.794.794,0,1,0,0-1.587Z" fill="#12263f"/>
      <path id="Trazado_158031" data-name="Trazado 158031" d="M2565.068,1889.071h-14.815a.794.794,0,0,0,0,1.588h14.815a.794.794,0,0,0,0-1.588Z" fill="#12263f"/>
      <path id="Trazado_158032" data-name="Trazado 158032" d="M2568.242,1882.722h-3.174a.793.793,0,1,0,0,1.587h3.174a.793.793,0,1,0,0-1.587Z" fill="#12263f"/>
      <path id="Trazado_158033" data-name="Trazado 158033" d="M2547.078,1884.309h14.815a.793.793,0,1,0,0-1.587h-14.815a.793.793,0,0,0,0,1.587Z" fill="#12263f"/>
      <path id="Trazado_158034" data-name="Trazado 158034" d="M2549.75,1879.927a.793.793,0,0,0,1.113-.139h0l1.844-2.369,1.842,2.369a.794.794,0,0,0,1.114.139.764.764,0,0,0,.139-.139l1.843-2.369,1.843,2.369a.793.793,0,0,0,1.113.139.8.8,0,0,0,.14-.139l1.842-2.369,1.842,2.369a.794.794,0,0,0,1.253-.975l-2.469-3.174a.793.793,0,0,0-1.113-.139.8.8,0,0,0-.14.139l-1.842,2.369-1.842-2.369a.794.794,0,0,0-1.114-.139.764.764,0,0,0-.139.139l-1.843,2.369-1.843-2.369a.793.793,0,0,0-1.113-.139.8.8,0,0,0-.14.139l-2.469,3.175A.793.793,0,0,0,2549.75,1879.927Z" fill="#12263f"/>
    </g>
    <g id="Grupo_108359" data-name="Grupo 108359" transform="translate(541.295 -48.038)">
      <g id="Grupo_78489" data-name="Grupo 78489" transform="translate(413.706 2130.706)">
        <circle id="Elipse_4759" data-name="Elipse 4759" cx="17.5" cy="17.5" r="17.5" transform="translate(0 0.332)" fill="#f85316" opacity="0.154"/>
        <circle id="Elipse_4758" data-name="Elipse 4758" cx="14.5" cy="14.5" r="14.5" transform="translate(3 3.332)" fill="#f85316" opacity="0.18"/>
      </g>
      <circle id="Elipse_4753" data-name="Elipse 4753" cx="11" cy="11" r="11" transform="translate(420.705 2137.038)" fill="#f85316"/>
      <path id="Trazado_146139" data-name="Trazado 146139" d="M.644-6.6H3.222v1.8H.644V-1.83H-1.333V-4.8H-3.926V-6.6h2.593V-9.422H.644Z" transform="translate(431.631 2154.127)" fill="#fff"/>
    </g>
    <g id="Grupo_108360" data-name="Grupo 108360" transform="translate(369.295 -48.038)">
      <g id="Grupo_78489-2" data-name="Grupo 78489" transform="translate(413.706 2130.706)">
        <circle id="Elipse_4759-2" data-name="Elipse 4759" cx="17.5" cy="17.5" r="17.5" transform="translate(0 0.332)" fill="#f85316" opacity="0.154"/>
        <circle id="Elipse_4758-2" data-name="Elipse 4758" cx="14.5" cy="14.5" r="14.5" transform="translate(3 3.332)" fill="#f85316" opacity="0.18"/>
      </g>
      <circle id="Elipse_4753-2" data-name="Elipse 4753" cx="11" cy="11" r="11" transform="translate(420.705 2137.038)" fill="#f85316"/>
      <path id="Trazado_146139-2" data-name="Trazado 146139" d="M.644-6.6H3.222v1.8H.644V-1.83H-1.333V-4.8H-3.926V-6.6h2.593V-9.422H.644Z" transform="translate(431.631 2154.127)" fill="#fff"/>
    </g>
    <g id="Grupo_108361" data-name="Grupo 108361" transform="translate(194.295 -48.038)">
      <g id="Grupo_78489-3" data-name="Grupo 78489" transform="translate(413.706 2130.706)">
        <circle id="Elipse_4759-3" data-name="Elipse 4759" cx="17.5" cy="17.5" r="17.5" transform="translate(0 0.332)" fill="#f85316" opacity="0.154"/>
        <circle id="Elipse_4758-3" data-name="Elipse 4758" cx="14.5" cy="14.5" r="14.5" transform="translate(3 3.332)" fill="#f85316" opacity="0.18"/>
      </g>
      <circle id="Elipse_4753-3" data-name="Elipse 4753" cx="11" cy="11" r="11" transform="translate(420.705 2137.038)" fill="#f85316"/>
      <path id="Trazado_146139-3" data-name="Trazado 146139" d="M.644-6.6H3.222v1.8H.644V-1.83H-1.333V-4.8H-3.926V-6.6h2.593V-9.422H.644Z" transform="translate(431.631 2154.127)" fill="#fff"/>
    </g>
    <g id="Grupo_108362" data-name="Grupo 108362" transform="translate(280.295 238.962)">
      <g id="Grupo_78489-4" data-name="Grupo 78489" transform="translate(413.706 2130.706)">
        <circle id="Elipse_4759-4" data-name="Elipse 4759" cx="17.5" cy="17.5" r="17.5" transform="translate(0 0.332)" fill="#f85316" opacity="0.154"/>
        <circle id="Elipse_4758-4" data-name="Elipse 4758" cx="14.5" cy="14.5" r="14.5" transform="translate(3 3.332)" fill="#f85316" opacity="0.18"/>
      </g>
      <circle id="Elipse_4753-4" data-name="Elipse 4753" cx="11" cy="11" r="11" transform="translate(420.705 2137.038)" fill="#f85316"/>
      <path id="Trazado_146139-4" data-name="Trazado 146139" d="M.644-6.6H3.222v1.8H.644V-1.83H-1.333V-4.8H-3.926V-6.6h2.593V-9.422H.644Z" transform="translate(431.631 2154.127)" fill="#fff"/>
    </g>
    <g id="Grupo_108363" data-name="Grupo 108363" transform="translate(454.295 238.962)">
      <g id="Grupo_78489-5" data-name="Grupo 78489" transform="translate(413.706 2130.706)">
        <circle id="Elipse_4759-5" data-name="Elipse 4759" cx="17.5" cy="17.5" r="17.5" transform="translate(0 0.332)" fill="#f85316" opacity="0.154"/>
        <circle id="Elipse_4758-5" data-name="Elipse 4758" cx="14.5" cy="14.5" r="14.5" transform="translate(3 3.332)" fill="#f85316" opacity="0.18"/>
      </g>
      <circle id="Elipse_4753-5" data-name="Elipse 4753" cx="11" cy="11" r="11" transform="translate(420.705 2137.038)" fill="#f85316"/>
      <path id="Trazado_146139-5" data-name="Trazado 146139" d="M.644-6.6H3.222v1.8H.644V-1.83H-1.333V-4.8H-3.926V-6.6h2.593V-9.422H.644Z" transform="translate(431.631 2154.127)" fill="#fff"/>
    </g>
  </g>
</svg>
