<svg xmlns="http://www.w3.org/2000/svg" xmlns:xlink="http://www.w3.org/1999/xlink" width="610" height="408" viewBox="0 0 610 408">
  <defs>
    <linearGradient id="linear-gradient" y1="0.5" x2="1" y2="0.5" gradientUnits="objectBoundingBox">
      <stop offset="0" stop-color="#838cfc"/>
      <stop offset="1" stop-color="#3d46c2"/>
    </linearGradient>
    <linearGradient id="linear-gradient-2" y1="0.5" x2="1" y2="0.5" gradientUnits="objectBoundingBox">
      <stop offset="0" stop-color="#b1e874"/>
      <stop offset="1" stop-color="#75b62f"/>
    </linearGradient>
    <linearGradient id="linear-gradient-3" y1="0.5" x2="1" y2="0.5" gradientUnits="objectBoundingBox">
      <stop offset="0" stop-color="#f3ff3c"/>
      <stop offset="1" stop-color="#b1ba2c"/>
    </linearGradient>
    <linearGradient id="linear-gradient-4" y1="0.5" x2="1" y2="0.5" gradientUnits="objectBoundingBox">
      <stop offset="0" stop-color="#ff642b"/>
      <stop offset="1" stop-color="#d44713"/>
    </linearGradient>
    <linearGradient id="linear-gradient-5" y1="0.5" x2="1" y2="0.5" gradientUnits="objectBoundingBox">
      <stop offset="0" stop-color="#96e83c"/>
      <stop offset="1" stop-color="#609627"/>
    </linearGradient>
    <filter id="Rectángulo_40120" x="57.478" y="0" width="129.248" height="49.452" filterUnits="userSpaceOnUse">
      <feOffset dy="3" input="SourceAlpha"/>
      <feGaussianBlur stdDeviation="3" result="blur"/>
      <feFlood flood-opacity="0.161"/>
      <feComposite operator="in" in2="blur"/>
      <feComposite in="SourceGraphic"/>
    </filter>
    <filter id="Rectángulo_40121" x="148.602" y="358.548" width="129.248" height="49.452" filterUnits="userSpaceOnUse">
      <feOffset dy="3" input="SourceAlpha"/>
      <feGaussianBlur stdDeviation="3" result="blur-2"/>
      <feFlood flood-opacity="0.161"/>
      <feComposite operator="in" in2="blur-2"/>
      <feComposite in="SourceGraphic"/>
    </filter>
    <filter id="Rectángulo_40122" x="289.817" y="358.548" width="211.425" height="49.452" filterUnits="userSpaceOnUse">
      <feOffset dy="3" input="SourceAlpha"/>
      <feGaussianBlur stdDeviation="3" result="blur-3"/>
      <feFlood flood-opacity="0.161"/>
      <feComposite operator="in" in2="blur-3"/>
      <feComposite in="SourceGraphic"/>
    </filter>
    <filter id="Trazado_158063" x="240.003" y="0" width="129.248" height="49.452" filterUnits="userSpaceOnUse">
      <feOffset dy="3" input="SourceAlpha"/>
      <feGaussianBlur stdDeviation="3" result="blur-4"/>
      <feFlood flood-opacity="0.161"/>
      <feComposite operator="in" in2="blur-4"/>
      <feComposite in="SourceGraphic"/>
    </filter>
    <filter id="Trazado_158064" x="422.528" y="0" width="129.248" height="49.452" filterUnits="userSpaceOnUse">
      <feOffset dy="3" input="SourceAlpha"/>
      <feGaussianBlur stdDeviation="3" result="blur-5"/>
      <feFlood flood-opacity="0.161"/>
      <feComposite operator="in" in2="blur-5"/>
      <feComposite in="SourceGraphic"/>
    </filter>
  </defs>
  <g id="Grupo_108267" data-name="Grupo 108267" transform="translate(-495 -2040)">
    <rect id="Rectángulo_36806" data-name="Rectángulo 36806" width="610" height="399" transform="translate(495 2046)" fill="none"/>
    <g id="Grupo_108262" data-name="Grupo 108262" transform="translate(-1600.131 278.361)">
      <g id="Grupo_108236" data-name="Grupo 108236" transform="translate(2216.185 1802.078)">
        <g id="Grupo_108233" data-name="Grupo 108233" transform="translate(0 25.348)">
          <rect id="Rectángulo_40110" data-name="Rectángulo 40110" width="2.097" height="1.573" fill="#b3b3b3"/>
        </g>
        <g id="Grupo_108234" data-name="Grupo 108234" transform="translate(0.001 4.968)">
          <path id="Trazado_158035" data-name="Trazado 158035" d="M2214.172,1822.209h-2.1v-3.4h2.1Zm0-6.793h-2.1v-3.4h2.1Zm0-6.792h-2.1v-3.4h2.1Z" transform="translate(-2212.075 -1805.227)" fill="#b3b3b3"/>
        </g>
        <g id="Grupo_108235" data-name="Grupo 108235">
          <rect id="Rectángulo_40111" data-name="Rectángulo 40111" width="2.097" height="1.573" fill="#b3b3b3"/>
        </g>
      </g>
      <g id="Grupo_108240" data-name="Grupo 108240" transform="translate(2307.308 2098.376)">
        <g id="Grupo_108237" data-name="Grupo 108237" transform="translate(0.001 25.348)">
          <rect id="Rectángulo_40112" data-name="Rectángulo 40112" width="2.097" height="1.573" fill="#b3b3b3"/>
        </g>
        <g id="Grupo_108238" data-name="Grupo 108238" transform="translate(0 4.968)">
          <path id="Trazado_158036" data-name="Trazado 158036" d="M2301.089,2104.832h-2.1v-3.4h2.1Zm0-6.793h-2.1v-3.4h2.1Zm0-6.792h-2.1v-3.4h2.1Z" transform="translate(-2298.992 -2087.85)" fill="#b3b3b3"/>
        </g>
        <g id="Grupo_108239" data-name="Grupo 108239" transform="translate(0.001 0)">
          <rect id="Rectángulo_40113" data-name="Rectángulo 40113" width="2.097" height="1.573" fill="#b3b3b3"/>
        </g>
      </g>
      <g id="Grupo_108244" data-name="Grupo 108244" transform="translate(2398.709 1802.078)">
        <g id="Grupo_108241" data-name="Grupo 108241" transform="translate(0 25.348)">
          <rect id="Rectángulo_40114" data-name="Rectángulo 40114" width="2.097" height="1.573" fill="#b3b3b3"/>
        </g>
        <g id="Grupo_108242" data-name="Grupo 108242" transform="translate(0 4.968)">
          <path id="Trazado_158037" data-name="Trazado 158037" d="M2388.272,1822.209h-2.1v-3.4h2.1Zm0-6.793h-2.1v-3.4h2.1Zm0-6.792h-2.1v-3.4h2.1Z" transform="translate(-2386.175 -1805.227)" fill="#b3b3b3"/>
        </g>
        <g id="Grupo_108243" data-name="Grupo 108243">
          <rect id="Rectángulo_40115" data-name="Rectángulo 40115" width="2.097" height="1.573" fill="#b3b3b3"/>
        </g>
      </g>
      <g id="Grupo_108248" data-name="Grupo 108248" transform="translate(2489.612 2098.376)">
        <g id="Grupo_108245" data-name="Grupo 108245" transform="translate(0 25.348)">
          <rect id="Rectángulo_40116" data-name="Rectángulo 40116" width="2.097" height="1.573" fill="#b3b3b3"/>
        </g>
        <g id="Grupo_108246" data-name="Grupo 108246" transform="translate(0 4.968)">
          <path id="Trazado_158038" data-name="Trazado 158038" d="M2474.979,2104.832h-2.1v-3.4h2.1Zm0-6.793h-2.1v-3.4h2.1Zm0-6.792h-2.1v-3.4h2.1Z" transform="translate(-2472.882 -2087.85)" fill="#b3b3b3"/>
        </g>
        <g id="Grupo_108247" data-name="Grupo 108247" transform="translate(0 0)">
          <rect id="Rectángulo_40117" data-name="Rectángulo 40117" width="2.097" height="1.573" fill="#b3b3b3"/>
        </g>
      </g>
      <g id="Grupo_108252" data-name="Grupo 108252" transform="translate(2581.234 1802.078)">
        <g id="Grupo_108249" data-name="Grupo 108249" transform="translate(0 25.348)">
          <rect id="Rectángulo_40118" data-name="Rectángulo 40118" width="2.097" height="1.573" fill="#b3b3b3"/>
        </g>
        <g id="Grupo_108250" data-name="Grupo 108250" transform="translate(0 4.968)">
          <path id="Trazado_158039" data-name="Trazado 158039" d="M2562.373,1822.209h-2.1v-3.4h2.1Zm0-6.793h-2.1v-3.4h2.1Zm0-6.792h-2.1v-3.4h2.1Z" transform="translate(-2560.276 -1805.227)" fill="#b3b3b3"/>
        </g>
        <g id="Grupo_108251" data-name="Grupo 108251">
          <rect id="Rectángulo_40119" data-name="Rectángulo 40119" width="2.097" height="1.573" fill="#b3b3b3"/>
        </g>
      </g>
      <g id="Grupo_108261" data-name="Grupo 108261" transform="translate(2127.131 1828.074)">
        <g id="Grupo_108253" data-name="Grupo 108253" transform="translate(91.483 91.487)">
          <path id="Trazado_158040" data-name="Trazado 158040" d="M2255.6,1935.116c2.983,2.984,3.454,7.794,3.454,7.794a10.2,10.2,0,0,0,2.526,5.353l.631.633a3.155,3.155,0,0,0,4.448,0l35.428-35.428a3.154,3.154,0,0,1,4.45,0l35.427,35.428a3.156,3.156,0,0,0,4.445,0l.028-.027a10.216,10.216,0,0,0,2.529-5.354s.469-4.81,3.448-7.793a13.185,13.185,0,0,1,18.647,18.647c-2.984,2.984-7.8,3.45-7.8,3.45a10.239,10.239,0,0,0-5.352,2.525l-.027.026a3.157,3.157,0,0,0,0,4.446l35.433,35.429a3.156,3.156,0,0,1,0,4.446l-35.427,35.432a3.162,3.162,0,0,1-4.45,0l-.392-.393a10.211,10.211,0,0,1-2.529-5.356s-.468-4.808-3.45-7.793a13.185,13.185,0,0,0-18.647,18.647c2.982,2.979,7.792,3.45,7.792,3.45a10.219,10.219,0,0,1,5.357,2.524l.394.4a3.153,3.153,0,0,1,0,4.446l-35.432,35.428a3.155,3.155,0,0,1-4.449,0l-35.428-35.428a3.149,3.149,0,0,1,0-4.446l.375-.376a10.229,10.229,0,0,1,5.356-2.53s4.81-.469,7.792-3.45a13.183,13.183,0,1,0-18.644-18.643c-2.983,2.982-3.45,7.79-3.45,7.79a10.225,10.225,0,0,1-2.527,5.356l-.378.377a3.156,3.156,0,0,1-4.448,0l-35.43-35.43a3.15,3.15,0,0,1,0-4.444l35.43-35.431a3.152,3.152,0,0,0,0-4.446l-.632-.632a10.2,10.2,0,0,0-5.355-2.526s-4.812-.468-7.794-3.449a13.185,13.185,0,1,1,18.646-18.646Z" transform="translate(-2214.392 -1912.55)" fill="url(#linear-gradient)"/>
          <path id="Trazado_158041" data-name="Trazado 158041" d="M2255.6,1935.116c2.983,2.984,3.454,7.794,3.454,7.794a10.2,10.2,0,0,0,2.526,5.353l.631.633a3.155,3.155,0,0,0,4.448,0l35.428-35.428a3.154,3.154,0,0,1,4.45,0l35.427,35.428a3.156,3.156,0,0,0,4.445,0l.028-.027a10.216,10.216,0,0,0,2.529-5.354s.469-4.81,3.448-7.793a13.185,13.185,0,0,1,18.647,18.647c-2.984,2.984-7.8,3.45-7.8,3.45a10.239,10.239,0,0,0-5.352,2.525l-.027.026a3.157,3.157,0,0,0,0,4.446l35.433,35.429a3.156,3.156,0,0,1,0,4.446l-35.427,35.432a3.162,3.162,0,0,1-4.45,0l-.392-.393a10.211,10.211,0,0,1-2.529-5.356s-.468-4.808-3.45-7.793a13.185,13.185,0,0,0-18.647,18.647c2.982,2.979,7.792,3.45,7.792,3.45a10.219,10.219,0,0,1,5.357,2.524l.394.4a3.153,3.153,0,0,1,0,4.446l-35.432,35.428a3.155,3.155,0,0,1-4.449,0l-35.428-35.428a3.149,3.149,0,0,1,0-4.446l.375-.376a10.229,10.229,0,0,1,5.356-2.53s4.81-.469,7.792-3.45a13.183,13.183,0,1,0-18.644-18.643c-2.983,2.982-3.45,7.79-3.45,7.79a10.225,10.225,0,0,1-2.527,5.356l-.378.377a3.156,3.156,0,0,1-4.448,0l-35.43-35.43a3.15,3.15,0,0,1,0-4.444l35.43-35.431a3.152,3.152,0,0,0,0-4.446l-.632-.632a10.2,10.2,0,0,0-5.355-2.526s-4.812-.468-7.794-3.449a13.185,13.185,0,1,1,18.646-18.646Z" transform="translate(-2214.392 -1912.55)" fill="none" stroke="#fff" stroke-linejoin="round" stroke-width="1"/>
        </g>
        <g id="Grupo_108254" data-name="Grupo 108254">
          <path id="Trazado_158042" data-name="Trazado 158042" d="M2265.764,1847.852c-2.984,2.983-3.451,7.794-3.451,7.794a10.217,10.217,0,0,1-2.526,5.354l-.631.632a3.157,3.157,0,0,1-4.449,0l-35.428-35.429a3.157,3.157,0,0,0-4.449,0l-35.427,35.43a3.157,3.157,0,0,1-4.448,0l-.027-.027a10.22,10.22,0,0,1-2.527-5.354s-.468-4.809-3.449-7.792A13.184,13.184,0,1,0,2150.3,1867.1c2.981,2.984,7.793,3.45,7.793,3.45a10.216,10.216,0,0,1,5.357,2.528l.024.023a3.157,3.157,0,0,1,0,4.449l-35.431,35.429a3.154,3.154,0,0,0,0,4.447l35.43,35.429a3.156,3.156,0,0,0,4.448,0l.392-.393a10.222,10.222,0,0,0,2.527-5.354s.467-4.81,3.45-7.793a13.184,13.184,0,1,1,18.646,18.645c-2.983,2.983-7.792,3.449-7.792,3.449a10.24,10.24,0,0,0-5.355,2.527l-.391.393a3.151,3.151,0,0,0,0,4.445l35.427,35.429a3.157,3.157,0,0,0,4.449,0l35.428-35.43a3.154,3.154,0,0,0,0-4.447l-.375-.375a10.249,10.249,0,0,0-5.356-2.526s-4.814-.467-7.8-3.45a13.185,13.185,0,0,1,18.646-18.646c2.983,2.982,3.451,7.791,3.451,7.791a10.212,10.212,0,0,0,2.527,5.354l.379.379a3.152,3.152,0,0,0,4.445,0l35.431-35.428a3.158,3.158,0,0,0,0-4.448l-35.429-35.428a3.156,3.156,0,0,1,0-4.448l.632-.633a10.24,10.24,0,0,1,5.353-2.528s4.811-.467,7.794-3.449a13.183,13.183,0,1,0-18.643-18.645Z" transform="translate(-2127.131 -1825.285)" fill="url(#linear-gradient-2)"/>
          <path id="Trazado_158043" data-name="Trazado 158043" d="M2265.764,1847.852c-2.984,2.983-3.451,7.794-3.451,7.794a10.217,10.217,0,0,1-2.526,5.354l-.631.632a3.157,3.157,0,0,1-4.449,0l-35.428-35.429a3.157,3.157,0,0,0-4.449,0l-35.427,35.43a3.157,3.157,0,0,1-4.448,0l-.027-.027a10.22,10.22,0,0,1-2.527-5.354s-.468-4.809-3.449-7.792A13.184,13.184,0,1,0,2150.3,1867.1c2.981,2.984,7.793,3.45,7.793,3.45a10.216,10.216,0,0,1,5.357,2.528l.024.023a3.157,3.157,0,0,1,0,4.449l-35.431,35.429a3.154,3.154,0,0,0,0,4.447l35.43,35.429a3.156,3.156,0,0,0,4.448,0l.392-.393a10.222,10.222,0,0,0,2.527-5.354s.467-4.81,3.45-7.793a13.184,13.184,0,1,1,18.646,18.645c-2.983,2.983-7.792,3.449-7.792,3.449a10.24,10.24,0,0,0-5.355,2.527l-.391.393a3.151,3.151,0,0,0,0,4.445l35.427,35.429a3.157,3.157,0,0,0,4.449,0l35.428-35.43a3.154,3.154,0,0,0,0-4.447l-.375-.375a10.249,10.249,0,0,0-5.356-2.526s-4.814-.467-7.8-3.45a13.185,13.185,0,0,1,18.646-18.646c2.983,2.982,3.451,7.791,3.451,7.791a10.212,10.212,0,0,0,2.527,5.354l.379.379a3.152,3.152,0,0,0,4.445,0l35.431-35.428a3.158,3.158,0,0,0,0-4.448l-35.429-35.428a3.156,3.156,0,0,1,0-4.448l.632-.633a10.24,10.24,0,0,1,5.353-2.528s4.811-.467,7.794-3.449a13.183,13.183,0,1,0-18.643-18.645Z" transform="translate(-2127.131 -1825.285)" fill="none" stroke="#fff" stroke-linejoin="round" stroke-width="1"/>
        </g>
        <g id="Grupo_108255" data-name="Grupo 108255" transform="translate(273.834 92.112)">
          <path id="Trazado_158044" data-name="Trazado 158044" d="M2410.893,1954.356c2.982,2.984,7.794,3.45,7.794,3.45a10.249,10.249,0,0,1,5.356,2.526l.629.632a3.152,3.152,0,0,1,0,4.445l-35.429,35.43a3.157,3.157,0,0,0,0,4.447l35.428,35.428a3.156,3.156,0,0,1,0,4.449l-.026.025a10.211,10.211,0,0,1-5.353,2.529s-4.811.467-7.795,3.448a13.185,13.185,0,1,0,18.646,18.649c2.986-2.986,3.452-7.8,3.452-7.8a10.215,10.215,0,0,1,2.525-5.354l.025-.027a3.154,3.154,0,0,1,4.449,0l35.429,35.429a3.156,3.156,0,0,0,4.448,0l35.429-35.429a3.153,3.153,0,0,0,0-4.447l-.391-.393a10.249,10.249,0,0,0-5.355-2.525s-4.81-.468-7.8-3.45a13.185,13.185,0,1,1,18.647-18.646c2.98,2.984,3.45,7.795,3.45,7.795a10.21,10.21,0,0,0,2.524,5.354l.392.392a3.156,3.156,0,0,0,4.449,0l35.429-35.428a3.154,3.154,0,0,0,0-4.448l-35.43-35.429a3.157,3.157,0,0,0-4.448,0l-.374.378a10.218,10.218,0,0,0-2.53,5.354s-.465,4.811-3.45,7.794a13.183,13.183,0,1,1-18.644-18.643c2.981-2.982,7.792-3.448,7.792-3.448a10.226,10.226,0,0,0,5.355-2.529l.378-.378a3.156,3.156,0,0,0,0-4.448l-35.428-35.426a3.156,3.156,0,0,0-4.449,0l-35.428,35.428a3.153,3.153,0,0,1-4.448,0l-.633-.633a10.212,10.212,0,0,1-2.525-5.354s-.469-4.81-3.45-7.792a13.184,13.184,0,1,0-18.646,18.644Z" transform="translate(-2388.327 -1913.146)" fill="url(#linear-gradient-3)"/>
          <path id="Trazado_158045" data-name="Trazado 158045" d="M2410.893,1954.356c2.982,2.984,7.794,3.45,7.794,3.45a10.249,10.249,0,0,1,5.356,2.526l.629.632a3.152,3.152,0,0,1,0,4.445l-35.429,35.43a3.157,3.157,0,0,0,0,4.447l35.428,35.428a3.156,3.156,0,0,1,0,4.449l-.026.025a10.211,10.211,0,0,1-5.353,2.529s-4.811.467-7.795,3.448a13.185,13.185,0,1,0,18.646,18.649c2.986-2.986,3.452-7.8,3.452-7.8a10.215,10.215,0,0,1,2.525-5.354l.025-.027a3.154,3.154,0,0,1,4.449,0l35.429,35.429a3.156,3.156,0,0,0,4.448,0l35.429-35.429a3.153,3.153,0,0,0,0-4.447l-.391-.393a10.249,10.249,0,0,0-5.355-2.525s-4.81-.468-7.8-3.45a13.185,13.185,0,1,1,18.647-18.646c2.98,2.984,3.45,7.795,3.45,7.795a10.21,10.21,0,0,0,2.524,5.354l.392.392a3.156,3.156,0,0,0,4.449,0l35.429-35.428a3.154,3.154,0,0,0,0-4.448l-35.43-35.429a3.157,3.157,0,0,0-4.448,0l-.374.378a10.218,10.218,0,0,0-2.53,5.354s-.465,4.811-3.45,7.794a13.183,13.183,0,1,1-18.644-18.643c2.981-2.982,7.792-3.448,7.792-3.448a10.226,10.226,0,0,0,5.355-2.529l.378-.378a3.156,3.156,0,0,0,0-4.448l-35.428-35.426a3.156,3.156,0,0,0-4.449,0l-35.428,35.428a3.153,3.153,0,0,1-4.448,0l-.633-.633a10.212,10.212,0,0,1-2.525-5.354s-.469-4.81-3.45-7.792a13.184,13.184,0,1,0-18.646,18.644Z" transform="translate(-2388.327 -1913.146)" fill="none" stroke="#fff" stroke-linejoin="round" stroke-width="1"/>
        </g>
        <g id="Grupo_108256" data-name="Grupo 108256" transform="translate(182.349 0.628)">
          <path id="Trazado_158046" data-name="Trazado 158046" d="M2439.7,1848.448c-2.983,2.984-3.45,7.8-3.45,7.8a10.216,10.216,0,0,1-2.527,5.354l-.631.632a3.158,3.158,0,0,1-4.448,0L2393.21,1826.8a3.154,3.154,0,0,0-4.448,0l-35.428,35.428a3.155,3.155,0,0,1-4.448,0l-.026-.027a10.236,10.236,0,0,1-2.528-5.354s-.469-4.81-3.451-7.793a13.185,13.185,0,1,0-18.645,18.647c2.985,2.984,7.8,3.451,7.8,3.451a10.215,10.215,0,0,1,5.355,2.525l.025.026a3.157,3.157,0,0,1,0,4.448l-35.429,35.428a3.156,3.156,0,0,0,0,4.449l35.428,35.427a3.155,3.155,0,0,0,4.449,0l.392-.391a10.205,10.205,0,0,0,2.527-5.354s.468-4.811,3.449-7.793a13.184,13.184,0,1,1,18.646,18.646c-2.98,2.979-7.792,3.446-7.792,3.446a10.243,10.243,0,0,0-5.355,2.526l-.392.4a3.149,3.149,0,0,0,0,4.445l35.43,35.428a3.154,3.154,0,0,0,4.448,0l35.429-35.429a3.15,3.15,0,0,0,0-4.444l-.376-.377a10.225,10.225,0,0,0-5.355-2.527s-4.813-.466-7.8-3.45a13.185,13.185,0,0,1,18.646-18.648c2.982,2.982,3.448,7.795,3.448,7.795a10.255,10.255,0,0,0,2.531,5.354l.378.377a3.153,3.153,0,0,0,4.445,0l35.431-35.429a3.16,3.16,0,0,0,0-4.448l-35.429-35.428a3.153,3.153,0,0,1,0-4.449l.631-.631a10.226,10.226,0,0,1,5.354-2.528s4.812-.466,7.794-3.449a13.184,13.184,0,1,0-18.646-18.646Z" transform="translate(-2301.063 -1825.884)" fill="url(#linear-gradient-4)"/>
          <path id="Trazado_158047" data-name="Trazado 158047" d="M2439.7,1848.448c-2.983,2.984-3.45,7.8-3.45,7.8a10.216,10.216,0,0,1-2.527,5.354l-.631.632a3.158,3.158,0,0,1-4.448,0L2393.21,1826.8a3.154,3.154,0,0,0-4.448,0l-35.428,35.428a3.155,3.155,0,0,1-4.448,0l-.026-.027a10.236,10.236,0,0,1-2.528-5.354s-.469-4.81-3.451-7.793a13.185,13.185,0,1,0-18.645,18.647c2.985,2.984,7.8,3.451,7.8,3.451a10.215,10.215,0,0,1,5.355,2.525l.025.026a3.157,3.157,0,0,1,0,4.448l-35.429,35.428a3.156,3.156,0,0,0,0,4.449l35.428,35.427a3.155,3.155,0,0,0,4.449,0l.392-.391a10.205,10.205,0,0,0,2.527-5.354s.468-4.811,3.449-7.793a13.184,13.184,0,1,1,18.646,18.646c-2.98,2.979-7.792,3.446-7.792,3.446a10.243,10.243,0,0,0-5.355,2.526l-.392.4a3.149,3.149,0,0,0,0,4.445l35.43,35.428a3.154,3.154,0,0,0,4.448,0l35.429-35.429a3.15,3.15,0,0,0,0-4.444l-.376-.377a10.225,10.225,0,0,0-5.355-2.527s-4.813-.466-7.8-3.45a13.185,13.185,0,0,1,18.646-18.648c2.982,2.982,3.448,7.795,3.448,7.795a10.255,10.255,0,0,0,2.531,5.354l.378.377a3.153,3.153,0,0,0,4.445,0l35.431-35.429a3.16,3.16,0,0,0,0-4.448l-35.429-35.428a3.153,3.153,0,0,1,0-4.449l.631-.631a10.226,10.226,0,0,1,5.354-2.528s4.812-.466,7.794-3.449a13.184,13.184,0,1,0-18.646-18.646Z" transform="translate(-2301.063 -1825.884)" fill="none" stroke="#fff" stroke-linejoin="round" stroke-width="1"/>
        </g>
        <g id="Grupo_108257" data-name="Grupo 108257" transform="translate(365.316 0.629)">
          <path id="Trazado_158048" data-name="Trazado 158048" d="M2516.8,1983.159c2.986-2.983,3.452-7.793,3.452-7.793a10.211,10.211,0,0,1,2.528-5.355l.632-.633a3.155,3.155,0,0,1,4.447,0l35.429,35.43a3.152,3.152,0,0,0,4.446,0l35.432-35.428a3.152,3.152,0,0,1,4.445,0l.027.027a10.25,10.25,0,0,1,2.529,5.355s.465,4.81,3.447,7.791a13.184,13.184,0,1,0,18.647-18.644c-2.985-2.982-7.794-3.449-7.794-3.449a10.221,10.221,0,0,1-5.357-2.528l-.023-.024a3.153,3.153,0,0,1,0-4.447l35.428-35.429a3.153,3.153,0,0,0,0-4.449l-35.428-35.428a3.153,3.153,0,0,0-4.447,0l-.393.392a10.212,10.212,0,0,0-2.525,5.354s-.468,4.812-3.452,7.794a13.185,13.185,0,1,1-18.646-18.646c2.982-2.983,7.795-3.448,7.795-3.448a10.213,10.213,0,0,0,5.352-2.525l.4-.394a3.16,3.16,0,0,0,0-4.448l-35.432-35.429a3.153,3.153,0,0,0-4.446,0l-35.429,35.43a3.157,3.157,0,0,0,0,4.448l.376.375a10.217,10.217,0,0,0,5.355,2.529s4.81.467,7.8,3.451a13.184,13.184,0,0,1-18.646,18.644c-2.981-2.983-3.448-7.794-3.448-7.794a10.263,10.263,0,0,0-2.529-5.354l-.377-.377a3.155,3.155,0,0,0-4.449,0l-35.429,35.427a3.155,3.155,0,0,0,0,4.449l35.429,35.429a3.154,3.154,0,0,1,0,4.448l-.631.633a10.252,10.252,0,0,1-5.356,2.528s-4.809.464-7.793,3.446a13.183,13.183,0,1,0,18.645,18.644Z" transform="translate(-2475.587 -1825.885)" fill="url(#linear-gradient-5)"/>
          <path id="Trazado_158049" data-name="Trazado 158049" d="M2516.8,1983.159c2.986-2.983,3.452-7.793,3.452-7.793a10.211,10.211,0,0,1,2.528-5.355l.632-.633a3.155,3.155,0,0,1,4.447,0l35.429,35.43a3.152,3.152,0,0,0,4.446,0l35.432-35.428a3.152,3.152,0,0,1,4.445,0l.027.027a10.25,10.25,0,0,1,2.529,5.355s.465,4.81,3.447,7.791a13.184,13.184,0,1,0,18.647-18.644c-2.985-2.982-7.794-3.449-7.794-3.449a10.221,10.221,0,0,1-5.357-2.528l-.023-.024a3.153,3.153,0,0,1,0-4.447l35.428-35.429a3.153,3.153,0,0,0,0-4.449l-35.428-35.428a3.153,3.153,0,0,0-4.447,0l-.393.392a10.212,10.212,0,0,0-2.525,5.354s-.468,4.812-3.452,7.794a13.185,13.185,0,1,1-18.646-18.646c2.982-2.983,7.795-3.448,7.795-3.448a10.213,10.213,0,0,0,5.352-2.525l.4-.394a3.16,3.16,0,0,0,0-4.448l-35.432-35.429a3.153,3.153,0,0,0-4.446,0l-35.429,35.43a3.157,3.157,0,0,0,0,4.448l.376.375a10.217,10.217,0,0,0,5.355,2.529s4.81.467,7.8,3.451a13.184,13.184,0,0,1-18.646,18.644c-2.981-2.983-3.448-7.794-3.448-7.794a10.263,10.263,0,0,0-2.529-5.354l-.377-.377a3.155,3.155,0,0,0-4.449,0l-35.429,35.427a3.155,3.155,0,0,0,0,4.449l35.429,35.429a3.154,3.154,0,0,1,0,4.448l-.631.633a10.252,10.252,0,0,1-5.356,2.528s-4.809.464-7.793,3.446a13.183,13.183,0,1,0,18.645,18.644Z" transform="translate(-2475.587 -1825.885)" fill="none" stroke="#fff" stroke-linejoin="round" stroke-width="1"/>
        </g>
        <g id="logro" transform="translate(58.702 37.806)">
          <g id="Grupo_108258" data-name="Grupo 108258">
            <path id="Trazado_158017" data-name="Trazado 158017" d="M2209.678,1895.817a1.085,1.085,0,1,0-1.085-1.085A1.085,1.085,0,0,0,2209.678,1895.817Z" transform="translate(-2181.892 -1859.783)" fill="#12263f"/>
            <path id="Trazado_158018" data-name="Trazado 158018" d="M2224.874,1891.666a1.084,1.084,0,0,0-.925-.542h-.014a1.084,1.084,0,0,0-.924.516l-4.174,6.782L2212,1887.305V1874.37h16.281a1.085,1.085,0,0,0,.847-1.763l-3.8-4.749,3.8-4.748a1.085,1.085,0,0,0-.846-1.763H2210.91a1.084,1.084,0,0,0-1.085,1.085v24.874l-6.842,11.117-4.174-6.782a1.086,1.086,0,0,0-1.864.025l-13.676,23.622a1.085,1.085,0,0,0,.939,1.629h53.4a1.086,1.086,0,0,0,.939-1.629Zm-20.952,9.374,0-.006,6.986-11.351,15.423,25.064h-30.847Zm19.166-33.86a1.087,1.087,0,0,0,0,1.356l2.931,3.663H2212v-8.683h14.022Zm-25.173,27.146,3.794,6.167-8.771,14.254h-6.846Zm30.968,20.421-8.772-14.254,3.795-6.167,11.822,20.421Z" transform="translate(-2183.124 -1861.346)" fill="#12263f"/>
            <path id="Trazado_158019" data-name="Trazado 158019" d="M2218.238,1910.332a1.085,1.085,0,0,0,1.849-1.137l-7.146-11.613a1.086,1.086,0,0,0-1.868,1.106l.02.031Z" transform="translate(-2181.779 -1859.618)" fill="#12263f"/>
          </g>
        </g>
        <g id="Grupo_108259" data-name="Grupo 108259" transform="translate(151.036 140.278)">
          <path id="Trazado_158050" data-name="Trazado 158050" d="M2300.414,1982.13a5.419,5.419,0,1,1,5.419-5.419A5.425,5.425,0,0,1,2300.414,1982.13Zm0-8.466a3.047,3.047,0,1,0,3.047,3.047A3.05,3.05,0,0,0,2300.414,1973.664Z" transform="translate(-2270.045 -1958.498)" fill="#fff"/>
          <path id="Trazado_158051" data-name="Trazado 158051" d="M2300.732,1989.364a12.359,12.359,0,0,1-2.256-.208,1.185,1.185,0,0,1-.932-.869l-.19-.735a10.805,10.805,0,0,1-1.642-.677l-.592.379a1.185,1.185,0,0,1-1.307-.018,12.3,12.3,0,0,1-3.279-3.282,1.186,1.186,0,0,1-.018-1.306l.38-.593a11.081,11.081,0,0,1-.677-1.646l-.733-.189a1.186,1.186,0,0,1-.869-.932,12.478,12.478,0,0,1,0-4.517,1.186,1.186,0,0,1,.869-.932l.733-.188a11.081,11.081,0,0,1,.677-1.646l-.38-.594a1.186,1.186,0,0,1,.018-1.306,12.3,12.3,0,0,1,3.279-3.282,1.185,1.185,0,0,1,1.307-.018l.592.379a10.805,10.805,0,0,1,1.642-.677l.19-.735a1.183,1.183,0,0,1,.932-.869,12.459,12.459,0,0,1,4.512,0,1.186,1.186,0,0,1,.932.869l.189.735a10.9,10.9,0,0,1,1.642.677l.593-.379a1.184,1.184,0,0,1,1.307.018,12.312,12.312,0,0,1,3.28,3.282,1.187,1.187,0,0,1,.018,1.306l-.381.594a10.96,10.96,0,0,1,.679,1.646l.733.188a1.186,1.186,0,0,1,.869.932,12.435,12.435,0,0,1,0,4.517,1.184,1.184,0,0,1-.869.932l-.733.189a10.96,10.96,0,0,1-.679,1.646l.381.593a1.187,1.187,0,0,1-.018,1.306,12.312,12.312,0,0,1-3.28,3.282,1.185,1.185,0,0,1-1.307.018l-.593-.379a10.77,10.77,0,0,1-1.642.677l-.189.735a1.187,1.187,0,0,1-.932.869,12.352,12.352,0,0,1-2.256.208Zm-1.087-2.431a10.212,10.212,0,0,0,2.175,0l.163-.63a1.186,1.186,0,0,1,.862-.854,8.574,8.574,0,0,0,2.342-.971,1.182,1.182,0,0,1,1.25.019l.5.321a9.993,9.993,0,0,0,1.573-1.576l-.323-.5a1.185,1.185,0,0,1-.018-1.249,8.667,8.667,0,0,0,.97-2.346,1.187,1.187,0,0,1,.853-.862l.629-.163a10.163,10.163,0,0,0,0-2.179l-.629-.163a1.185,1.185,0,0,1-.853-.862,8.644,8.644,0,0,0-.97-2.345,1.187,1.187,0,0,1,.018-1.25l.323-.5a10.012,10.012,0,0,0-1.573-1.576l-.5.322a1.187,1.187,0,0,1-1.25.019,8.581,8.581,0,0,0-2.342-.971,1.187,1.187,0,0,1-.862-.854l-.163-.63a10.055,10.055,0,0,0-2.175,0l-.162.63a1.189,1.189,0,0,1-.862.854,8.543,8.543,0,0,0-2.342.971,1.19,1.19,0,0,1-1.252-.019l-.5-.322a9.975,9.975,0,0,0-1.574,1.576l.323.5a1.188,1.188,0,0,1,.018,1.25,8.583,8.583,0,0,0-.97,2.345,1.186,1.186,0,0,1-.855.862l-.629.163a10.141,10.141,0,0,0-.058,1.09,9.808,9.808,0,0,0,.06,1.089l.628.163a1.188,1.188,0,0,1,.855.862,8.586,8.586,0,0,0,.97,2.345,1.188,1.188,0,0,1-.018,1.25l-.323.5a9.956,9.956,0,0,0,1.574,1.576l.5-.321a1.187,1.187,0,0,1,1.252-.019,8.574,8.574,0,0,0,2.342.971,1.186,1.186,0,0,1,.862.854Zm12.038-7.862h0Z" transform="translate(-2270.364 -1958.818)" fill="#fff"/>
          <path id="Trazado_158052" data-name="Trazado 158052" d="M2300.218,1984.909a1.186,1.186,0,1,1,1.164-.954,1.2,1.2,0,0,1-1.164.954Z" transform="translate(-2269.85 -1957.954)" fill="#fff"/>
          <path id="Trazado_158053" data-name="Trazado 158053" d="M2331.734,1976.642a46.379,46.379,0,0,0-8.138-8.762,40.622,40.622,0,0,0-9.475-6.027,29.9,29.9,0,0,0-25.111,0,40.627,40.627,0,0,0-9.475,6.027,46.406,46.406,0,0,0-8.139,8.762,1.189,1.189,0,0,0,0,1.319,46.423,46.423,0,0,0,8.139,8.761,40.6,40.6,0,0,0,9.475,6.027,30.639,30.639,0,0,0,12.555,2.764,32.663,32.663,0,0,0,18.826-6.333,1.187,1.187,0,0,0-1.357-1.947,37.136,37.136,0,0,1-4.381,2.637,18.147,18.147,0,0,0,.03-25.1,39.262,39.262,0,0,1,7.335,4.888,46.72,46.72,0,0,1,7.271,7.649c-.475.638-1.3,1.7-2.43,2.959a1.186,1.186,0,0,0,1.767,1.584,38.355,38.355,0,0,0,3.108-3.885,1.186,1.186,0,0,0,0-1.319Zm-57.892.659a46.7,46.7,0,0,1,7.271-7.648,39.228,39.228,0,0,1,7.355-4.9,18.118,18.118,0,0,0,0,25.094,39.24,39.24,0,0,1-7.355-4.9A46.744,46.744,0,0,1,2273.842,1977.3Zm38.858,11.172a15.776,15.776,0,1,1,4.637-11.172,15.667,15.667,0,0,1-4.637,11.172Z" transform="translate(-2271.196 -1959.089)" fill="#fff"/>
        </g>
        <g id="Grupo_108260" data-name="Grupo 108260" transform="translate(244.937 43.655)">
          <path id="Trazado_158054" data-name="Trazado 158054" d="M2391.08,1900.643h0Z" transform="translate(-2359.296 -1865.293)" fill="#fff" fill-rule="evenodd"/>
          <path id="Trazado_158055" data-name="Trazado 158055" d="M2412.094,1892.745a.717.717,0,0,0-.008-.078.336.336,0,0,0-.008-.046c-.005-.022-.013-.044-.02-.066s-.013-.037-.021-.053l-.01-.024-5.257-10.209a2.175,2.175,0,0,0,1.256-1.967h0a2.171,2.171,0,0,0-3.727-1.516,13.813,13.813,0,0,1-1.96-1.067,17.392,17.392,0,0,0-9.341-3v-.467a1.569,1.569,0,0,0,1.252-1.486,1.528,1.528,0,0,0-1.13-1.449.451.451,0,0,1-.282-.2,1.956,1.956,0,0,1-.152-.3,2.391,2.391,0,1,0-3.729,0,1.921,1.921,0,0,1-.152.3.45.45,0,0,1-.283.2,1.526,1.526,0,0,0-1.128,1.448,1.569,1.569,0,0,0,1.25,1.486v.467a17.389,17.389,0,0,0-9.338,3,13.678,13.678,0,0,1-1.961,1.07,2.171,2.171,0,1,0-2.472,3.483l-5.256,10.207c0,.01-.007.02-.011.029s-.01.027-.016.041a.693.693,0,0,0-.024.076c0,.014,0,.026-.008.04a.6.6,0,0,0-.007.083l0,.018c0,2.715,2.8,4.923,6.241,4.923s6.242-2.208,6.242-4.923c0-.013,0-.024,0-.036l0-.031a.532.532,0,0,0-.017-.093l-.007-.023a.623.623,0,0,0-.037-.094l0-.01-5.255-10.209a2.177,2.177,0,0,0,.55-.368,10.729,10.729,0,0,0,3.635-1.351,13.706,13.706,0,0,1,7.753-1.908v0h0a.622.622,0,0,0,.416.585v7.157a1.673,1.673,0,0,0-.387,3.07c-.941,1.666-.534,3.753-.164,5.629a15.184,15.184,0,0,1,.388,2.819v3.123h-.6a1.3,1.3,0,0,0-1.295,1.3v1.173h-.641a1.357,1.357,0,0,0-1.355,1.357v1.953a.624.624,0,0,0,.624.624h10.378a.623.623,0,0,0,.624-.624v-1.953a1.356,1.356,0,0,0-1.356-1.357h-.643v-1.173a1.3,1.3,0,0,0-1.3-1.3h-.594V1897.9a15.2,15.2,0,0,1,.388-2.819c.371-1.875.777-3.96-.162-5.626a1.674,1.674,0,0,0-.388-3.073v-7.156a.622.622,0,0,0,.416-.586h0a13.7,13.7,0,0,1,7.755,1.908,10.756,10.756,0,0,0,3.633,1.35,2.146,2.146,0,0,0,.551.369l-5.258,10.209-.007.021a.55.55,0,0,0-.029.076l-.008.027a.614.614,0,0,0-.024.162c0,2.715,2.8,4.923,6.242,4.923s6.242-2.208,6.241-4.923Zm-10.835-.606,3.97-7.712v7.712Zm5.218-7.716,3.971,7.716h-3.971Zm-.623-5.047a.927.927,0,0,1,.925.925h0a.925.925,0,1,1-.925-.926Zm-13.945,9.051h-2.39a.427.427,0,0,1,0-.854h2.606a.427.427,0,0,1,0,.854Zm-.158-14.142v3.733h-1.861v-2.633c0-.022.006-.043.006-.065s0-.039-.006-.059v-.977Zm-1.444,12.041v-7.06h1.028v7.06Zm.514-18.155a1.145,1.145,0,0,1,.814,1.949.589.589,0,0,0-.116.1,1.143,1.143,0,1,1-.7-2.046Zm-1.944,4.342a1.69,1.69,0,0,0,.99-.744c.043-.07.082-.14.119-.213a2.4,2.4,0,0,0,.835.152h0a2.392,2.392,0,0,0,.834-.154c.038.073.077.145.12.215a1.681,1.681,0,0,0,.989.744.3.3,0,0,1,.237.253.337.337,0,0,1-.366.271h-.141a.634.634,0,0,0-.131-.011.523.523,0,0,0-.1.011h-3.259a.337.337,0,0,1-.366-.271A.3.3,0,0,1,2388.877,1872.514Zm-17.685,19.626,3.972-7.716v7.716Zm5.22-7.717,3.973,7.717h-3.973Zm-.624-5.046a.923.923,0,0,1,.062,1.844.589.589,0,0,0-.074-.006.379.379,0,0,0-.049.006.923.923,0,0,1,.062-1.844Zm0,17.063c-2.465,0-4.518-1.322-4.922-3.053h9.844C2380.308,1895.118,2378.253,1896.44,2375.789,1896.44Zm4.527-17a13.524,13.524,0,0,1-2.364,1.045c.005-.061.009-.123.009-.185h0a2.111,2.111,0,0,0-.039-.4,15.508,15.508,0,0,0,2.035-1.118,16.074,16.074,0,0,1,8.686-2.815v1.425A14.959,14.959,0,0,0,2380.316,1879.441Zm15.071,25.412v1.329h-9.129v-1.329a.11.11,0,0,1,.108-.109h8.914A.111.111,0,0,1,2395.386,1904.852Zm-2.046-2.578a.05.05,0,0,1,.048.048v1.173h-5.136v-1.173a.05.05,0,0,1,.048-.048h5.04Zm-3.195-1.248V1897.9a16.388,16.388,0,0,0-.412-3.061c-.394-1.991-.763-3.876.3-5.167h1.583c1.059,1.292.69,3.177.3,5.167a16.4,16.4,0,0,0-.41,3.061v3.123Zm2.853-23.635v-1.426a16.083,16.083,0,0,1,8.688,2.815,15.6,15.6,0,0,0,2.033,1.118,2.217,2.217,0,0,0-.039.4c0,.062,0,.123.01.183a13.5,13.5,0,0,1-2.363-1.044A14.959,14.959,0,0,0,2393,1877.392Zm12.855,19.048c-2.465,0-4.519-1.322-4.921-3.053h9.844C2410.371,1895.118,2408.32,1896.44,2405.854,1896.44Z" transform="translate(-2360.338 -1866.925)" fill="#fff" fill-rule="evenodd"/>
          <path id="Trazado_158056" data-name="Trazado 158056" d="M2400.4,1905.6l-13.854,3.823a2.947,2.947,0,0,0,.065-.662,3,3,0,0,0-1.632-2.614l-5.908-4.257a3.874,3.874,0,0,0-4.149-.418c-1.251.474-3.239,1.375-5.912,2.677v-.222a1.154,1.154,0,0,0-1.153-1.153h-5.94a1.156,1.156,0,0,0-1.155,1.153v13.215a1.157,1.157,0,0,0,1.155,1.153h5.94a1.155,1.155,0,0,0,1.153-1.153v-.914a7.277,7.277,0,0,1,3.948.478c1.729.758,3.067,1.444,4.141,1.994,2.086,1.065,3.4,1.689,4.93,1.689h0c1.544,0,3.3-.638,6.278-2.1,2.181-1.073,6.969-3.606,14.229-7.527l.011-.006a2.849,2.849,0,0,0,.99-3.661A2.757,2.757,0,0,0,2400.4,1905.6Zm-38.389,11.448V1904.02h5.752v1.037a.6.6,0,0,0,0,.185v11.8Zm39.943-7.393-.011.006c-7.248,3.915-12.02,6.44-14.188,7.507-5.562,2.735-6.252,2.382-10.087.421-1.089-.558-2.444-1.252-4.206-2.025a8.5,8.5,0,0,0-4.451-.6v-9.429c2.917-1.431,5.055-2.407,6.353-2.9a2.66,2.66,0,0,1,2.979.265l5.737,4.134.175.126c.753.537,1.1.782,1.11,1.619a1.747,1.747,0,0,1-.189.813,1.72,1.72,0,0,1-2.314.747c-1.07-.549-2.173-1.17-3.24-1.772-.557-.313-1.129-.636-1.69-.943a.623.623,0,1,0-.6,1.093c.553.3,1.124.627,1.676.938,1.078.608,2.194,1.235,3.285,1.795a2.961,2.961,0,0,0,1.353.327h.047a2.954,2.954,0,0,0,2-.826l15.038-4.148a1.528,1.528,0,0,1,1.692.854A1.593,1.593,0,0,1,2401.955,1909.653Z" transform="translate(-2360.763 -1865.273)" fill="#fff" fill-rule="evenodd"/>
          <path id="Trazado_158057" data-name="Trazado 158057" d="M2364.778,1911.238a1.772,1.772,0,1,0,1.773,1.773h0A1.772,1.772,0,0,0,2364.778,1911.238Zm0,2.3a.525.525,0,1,1,.525-.524A.524.524,0,0,1,2364.779,1913.535Z" transform="translate(-2360.654 -1864.781)" fill="#fff" fill-rule="evenodd"/>
        </g>
        <g id="ajedrez" transform="translate(327.396 156.331)">
          <g id="Grupo_108228" data-name="Grupo 108228" transform="translate(10.396 40.752)">
            <g id="Grupo_108227" data-name="Grupo 108227">
              <path id="Trazado_158025" data-name="Trazado 158025" d="M2450.372,2013.272a1.04,1.04,0,1,0,1.04,1.04A1.04,1.04,0,0,0,2450.372,2013.272Z" transform="translate(-2449.333 -2013.272)" fill="#12263f"/>
            </g>
          </g>
          <g id="Grupo_108230" data-name="Grupo 108230" transform="translate(14.554 40.752)">
            <g id="Grupo_108229" data-name="Grupo 108229">
              <path id="Trazado_158026" data-name="Trazado 158026" d="M2462.656,2013.272h-8.317a1.04,1.04,0,1,0,0,2.079h8.317a1.04,1.04,0,0,0,0-2.079Z" transform="translate(-2453.299 -2013.272)" fill="#12263f"/>
            </g>
          </g>
          <g id="Grupo_108232" data-name="Grupo 108232">
            <g id="Grupo_108231" data-name="Grupo 108231">
              <path id="Trazado_158027" data-name="Trazado 158027" d="M2472.156,2020.006a3.247,3.247,0,0,0,.2-.34,3.1,3.1,0,0,0-.295-3.266l-3.281-4.376a3.118,3.118,0,0,0-2.333-5.188h-.094l-1.912-20.275,4.031-1.343a3.116,3.116,0,0,0,2.134-2.96v-6.818a1.04,1.04,0,0,0-1.04-1.04h-4.158a1.04,1.04,0,0,0-1.04,1.04v3.119h-2.079v-3.119a1.04,1.04,0,0,0-1.04-1.04h-8.316a1.04,1.04,0,0,0-1.04,1.04v3.119h-2.079v-3.119a1.04,1.04,0,0,0-1.04-1.04h-4.158a1.04,1.04,0,0,0-1.04,1.04v6.818a3.117,3.117,0,0,0,2.134,2.96l4.031,1.343-1.912,20.275h-.093a3.117,3.117,0,0,0-2.332,5.188l-3.282,4.377a3.1,3.1,0,0,0-.294,3.266,3.007,3.007,0,0,0,.2.34,5.2,5.2,0,0,0-2.606,4.5v2.079a1.04,1.04,0,0,0,1.039,1.04h33.267a1.04,1.04,0,0,0,1.039-1.04v-2.079A5.2,5.2,0,0,0,2472.156,2020.006Zm-25.791-36.761a1.039,1.039,0,0,1-.712-.987v-5.778h2.08v3.118a1.04,1.04,0,0,0,1.039,1.04h4.159a1.04,1.04,0,0,0,1.039-1.04v-3.118h6.238v3.118a1.04,1.04,0,0,0,1.039,1.04h4.159a1.04,1.04,0,0,0,1.039-1.04v-3.118h2.08v5.778a1.038,1.038,0,0,1-.712.987l-4.655,1.552h-12.138Zm17.9,23.591h-14.348l1.883-19.959h10.583ZM2447,2009.22a1.034,1.034,0,0,1,.735-.3h18.712a1.04,1.04,0,1,1,0,2.08h-18.712a1.04,1.04,0,0,1-.735-1.775Zm-3.215,8.428,3.43-4.574h19.751l3.43,4.574a1.039,1.039,0,0,1-.832,1.663h-24.949a1.038,1.038,0,0,1-.831-1.663Zm28.9,7.9H2441.5v-1.04a3.122,3.122,0,0,1,3.119-3.118h24.949a3.122,3.122,0,0,1,3.119,3.118Z" transform="translate(-2439.417 -1974.401)" fill="#12263f"/>
            </g>
          </g>
        </g>
        <g id="diploma" transform="translate(435.081 81.407)">
          <path id="Trazado_158028" data-name="Trazado 158028" d="M2583.235,1913.7a.832.832,0,0,0,.832-.833h0v-5.829a4.144,4.144,0,0,0-4.179-4.1h-33.607a4.081,4.081,0,0,0-4.149,4.1v37.176a4.185,4.185,0,0,0,4.149,4.21h8.165v5.768a.832.832,0,0,0,1.2.744l4.066-2.033,4.066,2.033a.832.832,0,0,0,1.116-.372.846.846,0,0,0,.087-.372v-5.77l14.9-.026a4.185,4.185,0,0,0,4.179-4.182v-5.83a.832.832,0,0,0-.832-.833h-5.825V1913.7Zm-.832-6.662v5h-4.992v-4.942a2.5,2.5,0,0,1,4.992-.056Zm-18.642,33.663a.83.83,0,0,0-.291.26,5.864,5.864,0,1,1,.291-.26Zm-.44,12.146-3.234-1.616a.83.83,0,0,0-.744,0l-3.232,1.616v-9.825a7.472,7.472,0,0,0,7.211.043Zm1.664-11.012a7.488,7.488,0,1,0-10.588-.126l.049.05v5h-8.165a2.519,2.519,0,0,1-2.486-2.545v-37.176a2.435,2.435,0,0,1,2.486-2.435h30.3a4.129,4.129,0,0,0-.833,2.491v37.12a4.179,4.179,0,0,0,.846,2.524l-11.608.02Zm17.418-2.618v5a2.551,2.551,0,0,1-2.514,2.518,2.509,2.509,0,0,1-2.478-2.518v-5Z" transform="translate(-2542.131 -1902.935)" fill="#12263f"/>
          <path id="Trazado_158029" data-name="Trazado 158029" d="M2559.133,1930.961a4.16,4.16,0,1,0,4.16,4.16h0A4.164,4.164,0,0,0,2559.133,1930.961Zm0,6.656a2.5,2.5,0,1,1,2.5-2.5h0A2.5,2.5,0,0,1,2559.133,1937.617Z" transform="translate(-2541.51 -1901.579)" fill="#12263f"/>
          <path id="Trazado_158030" data-name="Trazado 158030" d="M2570.6,1919.019h-22.188a.832.832,0,0,0,0,1.665H2570.6a.832.832,0,0,0,0-1.665Z" transform="translate(-2541.867 -1902.157)" fill="#12263f"/>
          <path id="Trazado_158031" data-name="Trazado 158031" d="M2567.119,1922.194h-15.532a.832.832,0,0,0,0,1.664h15.532a.832.832,0,1,0,0-1.664Z" transform="translate(-2541.714 -1902.003)" fill="#12263f"/>
          <path id="Trazado_158032" data-name="Trazado 158032" d="M2569.731,1915.845H2566.4a.832.832,0,1,0,0,1.664h3.329a.832.832,0,0,0,0-1.664Z" transform="translate(-2540.997 -1902.31)" fill="#12263f"/>
          <path id="Trazado_158033" data-name="Trazado 158033" d="M2548.413,1917.509h15.531a.832.832,0,1,0,0-1.664h-15.531a.832.832,0,1,0,0,1.664Z" transform="translate(-2541.867 -1902.31)" fill="#12263f"/>
          <path id="Trazado_158034" data-name="Trazado 158034" d="M2551.061,1913.273a.833.833,0,0,0,1.168-.146h0l1.932-2.485,1.931,2.485a.834.834,0,0,0,1.168.146.874.874,0,0,0,.146-.146l1.933-2.485,1.931,2.484a.832.832,0,0,0,1.168.146.842.842,0,0,0,.146-.146l1.931-2.484,1.932,2.484a.832.832,0,0,0,1.313-1.021l-2.587-3.329a.832.832,0,0,0-1.314,0l-1.932,2.483-1.931-2.483a.832.832,0,0,0-1.168-.146.852.852,0,0,0-.146.146l-1.932,2.485-1.931-2.484a.831.831,0,0,0-1.167-.146.8.8,0,0,0-.146.146l-2.589,3.328A.832.832,0,0,0,2551.061,1913.273Z" transform="translate(-2541.714 -1902.668)" fill="#12263f"/>
        </g>
      </g>
      <g transform="matrix(1, 0, 0, 1, 2095.13, 1761.64)" filter="url(#Rectángulo_40120)">
        <rect id="Rectángulo_40120-2" data-name="Rectángulo 40120" width="111.248" height="31.452" transform="translate(66.48 6)" fill="#fff"/>
      </g>
      <path id="Trazado_158058" data-name="Trazado 158058" d="M-20.141-11.345-17.078-2.7l3.047-8.649H-10.8V.581h-2.465v-3.26l.246-5.627L-16.242.581h-1.687L-21.14-8.3l.246,5.619V.581h-2.457V-11.345ZM-6.315.581H-8.691V-8.282h2.375ZM-8.83-10.575a1.166,1.166,0,0,1,.356-.876A1.338,1.338,0,0,1-7.5-11.8a1.342,1.342,0,0,1,.966.344,1.159,1.159,0,0,1,.36.876,1.162,1.162,0,0,1-.364.885,1.345,1.345,0,0,1-.962.344,1.345,1.345,0,0,1-.962-.344A1.162,1.162,0,0,1-8.83-10.575ZM.434-1.868A.763.763,0,0,0,0-2.552,4.884,4.884,0,0,0-1.376-3q-3.162-.663-3.162-2.686a2.435,2.435,0,0,1,.979-1.97A3.948,3.948,0,0,1-1-8.445a4.249,4.249,0,0,1,2.7.794A2.5,2.5,0,0,1,2.711-5.587H.344a1.145,1.145,0,0,0-.328-.84,1.386,1.386,0,0,0-1.024-.332,1.417,1.417,0,0,0-.926.27.853.853,0,0,0-.328.688.729.729,0,0,0,.373.635,3.834,3.834,0,0,0,1.257.418,10.269,10.269,0,0,1,1.491.4A2.449,2.449,0,0,1,2.735-1.967,2.312,2.312,0,0,1,1.7,0,4.487,4.487,0,0,1-.991.744a4.687,4.687,0,0,1-1.978-.4A3.319,3.319,0,0,1-4.325-.742a2.531,2.531,0,0,1-.491-1.495h2.244a1.236,1.236,0,0,0,.467.966A1.852,1.852,0,0,0-.942-.935,1.714,1.714,0,0,0,.086-1.193.8.8,0,0,0,.434-1.868ZM6.757.581H4.382V-8.282H6.757ZM4.242-10.575a1.166,1.166,0,0,1,.356-.876,1.338,1.338,0,0,1,.971-.344,1.342,1.342,0,0,1,.966.344,1.159,1.159,0,0,1,.36.876,1.162,1.162,0,0,1-.364.885,1.345,1.345,0,0,1-.962.344,1.345,1.345,0,0,1-.962-.344A1.162,1.162,0,0,1,4.242-10.575Zm4.1,6.643a5.256,5.256,0,0,1,.508-2.351,3.717,3.717,0,0,1,1.462-1.6,4.265,4.265,0,0,1,2.216-.565,4.035,4.035,0,0,1,2.928,1.1,4.4,4.4,0,0,1,1.265,2.981l.016.606A4.632,4.632,0,0,1,15.594-.488,3.957,3.957,0,0,1,12.539.744,3.977,3.977,0,0,1,9.48-.484,4.713,4.713,0,0,1,8.338-3.826Zm2.367.168a3.313,3.313,0,0,0,.475,1.932,1.567,1.567,0,0,0,1.36.669,1.571,1.571,0,0,0,1.343-.66,3.625,3.625,0,0,0,.483-2.112,3.279,3.279,0,0,0-.483-1.92,1.571,1.571,0,0,0-1.36-.681,1.545,1.545,0,0,0-1.343.677A3.686,3.686,0,0,0,10.7-3.764ZM12.99-12h2.58L13.3-9.461H11.376Zm7.38,3.718.074,1.024A3.094,3.094,0,0,1,22.99-8.445a2.571,2.571,0,0,1,2.1.827,3.86,3.86,0,0,1,.7,2.474V.581H23.425V-5.087A1.536,1.536,0,0,0,23.1-6.181a1.467,1.467,0,0,0-1.089-.34,1.628,1.628,0,0,0-1.5.852V.581H18.142V-8.282Z" transform="translate(2216.103 1789.782)" fill="#12263f"/>
      <g transform="matrix(1, 0, 0, 1, 2095.13, 1761.64)" filter="url(#Rectángulo_40121)">
        <rect id="Rectángulo_40121-2" data-name="Rectángulo 40121" width="111.248" height="31.452" transform="translate(157.6 364.55)" fill="#fff"/>
      </g>
      <path id="Trazado_158061" data-name="Trazado 158061" d="M-17.121-2.376l2.7-8.969h2.736L-15.835.581H-18.4l-4.136-11.925h2.727Zm8.9,2.957h-2.375V-8.282h2.375Zm-2.514-11.155a1.166,1.166,0,0,1,.356-.876,1.338,1.338,0,0,1,.971-.344,1.342,1.342,0,0,1,.966.344,1.159,1.159,0,0,1,.36.876,1.162,1.162,0,0,1-.364.885,1.345,1.345,0,0,1-.962.344,1.345,1.345,0,0,1-.962-.344A1.162,1.162,0,0,1-10.733-10.575Zm9.263,8.707a.763.763,0,0,0-.43-.684A4.884,4.884,0,0,0-3.279-3q-3.162-.663-3.162-2.686a2.435,2.435,0,0,1,.979-1.97,3.948,3.948,0,0,1,2.56-.79,4.249,4.249,0,0,1,2.7.794A2.5,2.5,0,0,1,.808-5.587H-1.559a1.145,1.145,0,0,0-.328-.84,1.386,1.386,0,0,0-1.024-.332,1.417,1.417,0,0,0-.926.27.853.853,0,0,0-.328.688.729.729,0,0,0,.373.635,3.834,3.834,0,0,0,1.257.418,10.269,10.269,0,0,1,1.491.4A2.449,2.449,0,0,1,.832-1.967,2.312,2.312,0,0,1-.208,0,4.487,4.487,0,0,1-2.894.744a4.687,4.687,0,0,1-1.978-.4A3.319,3.319,0,0,1-6.228-.742a2.531,2.531,0,0,1-.491-1.495h2.244a1.236,1.236,0,0,0,.467.966,1.852,1.852,0,0,0,1.163.336,1.714,1.714,0,0,0,1.028-.258A.8.8,0,0,0-1.469-1.868ZM4.854.581H2.479V-8.282H4.854ZM2.339-10.575a1.166,1.166,0,0,1,.356-.876,1.338,1.338,0,0,1,.971-.344,1.342,1.342,0,0,1,.966.344,1.159,1.159,0,0,1,.36.876,1.162,1.162,0,0,1-.364.885,1.345,1.345,0,0,1-.962.344A1.345,1.345,0,0,1,2.7-9.69,1.162,1.162,0,0,1,2.339-10.575Zm4.1,6.643a5.256,5.256,0,0,1,.508-2.351A3.717,3.717,0,0,1,8.4-7.88a4.265,4.265,0,0,1,2.216-.565,4.035,4.035,0,0,1,2.928,1.1,4.4,4.4,0,0,1,1.265,2.981l.016.606A4.632,4.632,0,0,1,13.692-.488,3.957,3.957,0,0,1,10.636.744,3.977,3.977,0,0,1,7.577-.484,4.713,4.713,0,0,1,6.435-3.826ZM8.8-3.764a3.313,3.313,0,0,0,.475,1.932,1.567,1.567,0,0,0,1.36.669,1.571,1.571,0,0,0,1.343-.66,3.625,3.625,0,0,0,.483-2.112,3.279,3.279,0,0,0-.483-1.92,1.571,1.571,0,0,0-1.36-.681,1.545,1.545,0,0,0-1.343.677A3.686,3.686,0,0,0,8.8-3.764ZM11.087-12h2.58L11.4-9.461H9.473Zm7.38,3.718.074,1.024a3.094,3.094,0,0,1,2.547-1.188,2.571,2.571,0,0,1,2.1.827,3.86,3.86,0,0,1,.7,2.474V.581H21.522V-5.087a1.536,1.536,0,0,0-.328-1.093,1.467,1.467,0,0,0-1.089-.34,1.628,1.628,0,0,0-1.5.852V.581H16.239V-8.282Z" transform="translate(2307.266 2148.33)" fill="#12263f"/>
      <g transform="matrix(1, 0, 0, 1, 2095.13, 1761.64)" filter="url(#Rectángulo_40122)">
        <rect id="Rectángulo_40122-2" data-name="Rectángulo 40122" width="193.425" height="31.452" transform="translate(298.82 364.55)" fill="#fff"/>
      </g>
      <path id="Trazado_158062" data-name="Trazado 158062" d="M-69.793-5.112a7.2,7.2,0,0,1-.622,3.088A4.688,4.688,0,0,1-72.2.024a4.928,4.928,0,0,1-2.658.721A4.961,4.961,0,0,1-77.5.032,4.734,4.734,0,0,1-79.3-2a6.993,6.993,0,0,1-.647-3.043v-.59a7.161,7.161,0,0,1,.635-3.1,4.726,4.726,0,0,1,1.794-2.056,4.934,4.934,0,0,1,2.65-.717,4.934,4.934,0,0,1,2.65.717,4.726,4.726,0,0,1,1.794,2.056,7.141,7.141,0,0,1,.635,3.092Zm-2.49-.541a5.018,5.018,0,0,0-.672-2.85,2.189,2.189,0,0,0-1.917-.975,2.189,2.189,0,0,0-1.908.962,4.961,4.961,0,0,0-.68,2.822v.582a5.081,5.081,0,0,0,.672,2.834A2.183,2.183,0,0,0-74.855-1.27a2.163,2.163,0,0,0,1.9-.971,5.052,5.052,0,0,0,.672-2.83Zm12.106,1.884a5.366,5.366,0,0,1-.909,3.321A3.011,3.011,0,0,1-63.626.744a2.767,2.767,0,0,1-2.3-1.106l-.106.942h-2.13V-12H-65.8v4.513a2.7,2.7,0,0,1,2.154-.958A3.036,3.036,0,0,1-61.1-7.254,5.374,5.374,0,0,1-60.177-3.9Zm-2.367-.172A3.525,3.525,0,0,0-62.97-5.9a1.44,1.44,0,0,0-1.27-.618A1.561,1.561,0,0,0-65.8-5.6v3.5a1.583,1.583,0,0,0,1.573.934,1.461,1.461,0,0,0,1.507-1.13A5.831,5.831,0,0,0-62.544-3.941Zm6.331-4.341V1.064a3.17,3.17,0,0,1-.778,2.281,2.957,2.957,0,0,1-2.244.815,4.813,4.813,0,0,1-1.171-.139V2.145a4.443,4.443,0,0,0,.745.074q1.073,0,1.073-1.138V-8.282Zm-2.564-2.293a1.166,1.166,0,0,1,.356-.876,1.338,1.338,0,0,1,.971-.344,1.338,1.338,0,0,1,.971.344,1.166,1.166,0,0,1,.356.876,1.162,1.162,0,0,1-.364.885,1.345,1.345,0,0,1-.962.344,1.345,1.345,0,0,1-.962-.344A1.162,1.162,0,0,1-58.777-10.575ZM-50.283.744a4.35,4.35,0,0,1-3.174-1.2,4.251,4.251,0,0,1-1.224-3.186v-.229a5.354,5.354,0,0,1,.516-2.388A3.787,3.787,0,0,1-52.7-7.876a4.1,4.1,0,0,1,2.158-.569A3.678,3.678,0,0,1-47.683-7.3a4.659,4.659,0,0,1,1.044,3.252v.966h-5.643a2.2,2.2,0,0,0,.692,1.392,2.092,2.092,0,0,0,1.462.524,2.555,2.555,0,0,0,2.138-.991l1.163,1.3A3.553,3.553,0,0,1-48.268.323,4.729,4.729,0,0,1-50.283.744Zm-.27-7.281A1.479,1.479,0,0,0-51.7-6.06a2.471,2.471,0,0,0-.561,1.366h3.293v-.189a1.762,1.762,0,0,0-.426-1.222A1.526,1.526,0,0,0-50.553-6.537Zm8.092-3.923v2.179h1.515v1.736h-1.515v4.423a1.056,1.056,0,0,0,.188.7.946.946,0,0,0,.721.213,3.775,3.775,0,0,0,.7-.057V.531a4.873,4.873,0,0,1-1.433.213A2.26,2.26,0,0,1-44.828-1.77V-6.545h-1.294V-8.282h1.294V-10.46ZM-37.129.581H-39.5V-8.282h2.375Zm-2.514-11.155a1.166,1.166,0,0,1,.356-.876,1.338,1.338,0,0,1,.971-.344,1.342,1.342,0,0,1,.966.344,1.159,1.159,0,0,1,.36.876,1.162,1.162,0,0,1-.364.885,1.345,1.345,0,0,1-.962.344,1.345,1.345,0,0,1-.962-.344A1.162,1.162,0,0,1-39.644-10.575Zm7.781,8.264,1.646-5.971h2.474L-30.732.581h-2.261l-2.99-8.862h2.474Zm4.669-1.622a5.256,5.256,0,0,1,.508-2.351,3.717,3.717,0,0,1,1.462-1.6,4.265,4.265,0,0,1,2.216-.565,4.035,4.035,0,0,1,2.928,1.1,4.4,4.4,0,0,1,1.265,2.981l.016.606A4.632,4.632,0,0,1-19.937-.488,3.957,3.957,0,0,1-22.992.744,3.977,3.977,0,0,1-26.051-.484a4.713,4.713,0,0,1-1.143-3.342Zm2.367.168a3.313,3.313,0,0,0,.475,1.932,1.567,1.567,0,0,0,1.36.669,1.571,1.571,0,0,0,1.343-.66,3.625,3.625,0,0,0,.483-2.112,3.279,3.279,0,0,0-.483-1.92,1.571,1.571,0,0,0-1.36-.681,1.545,1.545,0,0,0-1.343.677A3.686,3.686,0,0,0-24.827-3.764Zm12.286,1.9a.763.763,0,0,0-.43-.684A4.884,4.884,0,0,0-14.351-3q-3.162-.663-3.162-2.686a2.435,2.435,0,0,1,.979-1.97,3.948,3.948,0,0,1,2.56-.79,4.249,4.249,0,0,1,2.7.794,2.5,2.5,0,0,1,1.012,2.064h-2.367a1.145,1.145,0,0,0-.328-.84,1.386,1.386,0,0,0-1.024-.332,1.417,1.417,0,0,0-.926.27.853.853,0,0,0-.328.688.729.729,0,0,0,.373.635,3.834,3.834,0,0,0,1.257.418,10.269,10.269,0,0,1,1.491.4A2.449,2.449,0,0,1-10.24-1.967,2.312,2.312,0,0,1-11.28,0a4.487,4.487,0,0,1-2.686.749,4.687,4.687,0,0,1-1.978-.4A3.319,3.319,0,0,1-17.3-.742a2.531,2.531,0,0,1-.491-1.495h2.244a1.236,1.236,0,0,0,.467.966,1.852,1.852,0,0,0,1.163.336,1.714,1.714,0,0,0,1.028-.258A.8.8,0,0,0-12.541-1.868ZM-.46.744a4.351,4.351,0,0,1-3.174-1.2A4.251,4.251,0,0,1-4.859-3.637v-.229a5.354,5.354,0,0,1,.516-2.388A3.787,3.787,0,0,1-2.881-7.876,4.1,4.1,0,0,1-.722-8.445,3.678,3.678,0,0,1,2.14-7.3,4.659,4.659,0,0,1,3.185-4.047v.966H-2.459a2.2,2.2,0,0,0,.692,1.392A2.092,2.092,0,0,0-.3-1.164a2.555,2.555,0,0,0,2.138-.991L3-.853A3.553,3.553,0,0,1,1.555.323,4.729,4.729,0,0,1-.46.744ZM-.73-6.537a1.479,1.479,0,0,0-1.143.477,2.471,2.471,0,0,0-.561,1.366H.858v-.189A1.762,1.762,0,0,0,.433-6.105,1.526,1.526,0,0,0-.73-6.537ZM9.327-1.868a.763.763,0,0,0-.43-.684A4.884,4.884,0,0,0,7.517-3Q4.356-3.662,4.356-5.685a2.435,2.435,0,0,1,.979-1.97,3.948,3.948,0,0,1,2.56-.79,4.249,4.249,0,0,1,2.7.794A2.5,2.5,0,0,1,11.6-5.587H9.237a1.145,1.145,0,0,0-.328-.84,1.386,1.386,0,0,0-1.024-.332,1.417,1.417,0,0,0-.926.27.853.853,0,0,0-.328.688.729.729,0,0,0,.373.635,3.834,3.834,0,0,0,1.257.418,10.269,10.269,0,0,1,1.491.4,2.449,2.449,0,0,1,1.876,2.383A2.312,2.312,0,0,1,10.589,0,4.487,4.487,0,0,1,7.9.744a4.687,4.687,0,0,1-1.978-.4A3.319,3.319,0,0,1,4.569-.742a2.531,2.531,0,0,1-.491-1.495H6.322a1.236,1.236,0,0,0,.467.966,1.852,1.852,0,0,0,1.163.336,1.714,1.714,0,0,0,1.028-.258A.8.8,0,0,0,9.327-1.868Zm6.659-8.592v2.179H17.5v1.736H15.986v4.423a1.056,1.056,0,0,0,.188.7A.946.946,0,0,0,16.9-1.2a3.775,3.775,0,0,0,.7-.057V.531a4.873,4.873,0,0,1-1.433.213A2.26,2.26,0,0,1,13.619-1.77V-6.545H12.325V-8.282h1.294V-10.46Zm7.814,4.4a6.431,6.431,0,0,0-.852-.066,1.734,1.734,0,0,0-1.761.909v5.8H18.82V-8.282h2.236l.066,1.057A2.193,2.193,0,0,1,23.1-8.445a2.48,2.48,0,0,1,.737.106ZM29.828.581a2.629,2.629,0,0,1-.238-.794,2.864,2.864,0,0,1-2.236.958A3.147,3.147,0,0,1,25.2-.009a2.423,2.423,0,0,1-.856-1.9,2.5,2.5,0,0,1,1.044-2.162A5.153,5.153,0,0,1,28.4-4.833h1.089v-.508a1.46,1.46,0,0,0-.315-.983,1.241,1.241,0,0,0-1-.369,1.41,1.41,0,0,0-.938.287.974.974,0,0,0-.34.786H24.537a2.378,2.378,0,0,1,.475-1.425,3.14,3.14,0,0,1,1.343-1.028A4.9,4.9,0,0,1,28.3-8.445a3.868,3.868,0,0,1,2.6.823,2.88,2.88,0,0,1,.962,2.314v3.841A4.237,4.237,0,0,0,32.22.441V.581ZM27.871-1.066a2.039,2.039,0,0,0,.966-.233,1.533,1.533,0,0,0,.655-.627V-3.449h-.885q-1.777,0-1.892,1.229l-.008.139a.948.948,0,0,0,.311.729A1.209,1.209,0,0,0,27.871-1.066ZM36.52-10.46v2.179h1.515v1.736H36.52v4.423a1.056,1.056,0,0,0,.188.7.946.946,0,0,0,.721.213,3.775,3.775,0,0,0,.7-.057V.531a4.873,4.873,0,0,1-1.433.213A2.26,2.26,0,0,1,34.153-1.77V-6.545H32.859V-8.282h1.294V-10.46ZM43.433.744a4.351,4.351,0,0,1-3.174-1.2,4.251,4.251,0,0,1-1.224-3.186v-.229a5.354,5.354,0,0,1,.516-2.388,3.787,3.787,0,0,1,1.462-1.622,4.1,4.1,0,0,1,2.158-.569A3.678,3.678,0,0,1,46.033-7.3a4.659,4.659,0,0,1,1.044,3.252v.966H41.434a2.2,2.2,0,0,0,.692,1.392,2.092,2.092,0,0,0,1.462.524,2.555,2.555,0,0,0,2.138-.991l1.163,1.3A3.553,3.553,0,0,1,45.448.323,4.729,4.729,0,0,1,43.433.744Zm-.27-7.281a1.479,1.479,0,0,0-1.143.477,2.471,2.471,0,0,0-.561,1.366h3.293v-.189a1.762,1.762,0,0,0-.426-1.222A1.526,1.526,0,0,0,43.163-6.537ZM43.375-12h2.58L43.687-9.461H41.762Zm4.7,8.084A5.194,5.194,0,0,1,49.047-7.2a3.145,3.145,0,0,1,2.617-1.245,2.758,2.758,0,0,1,2.269,1l.1-.835h2.146V.286a3.788,3.788,0,0,1-.528,2.023,3.393,3.393,0,0,1-1.487,1.31,5.226,5.226,0,0,1-2.244.45,4.86,4.86,0,0,1-1.9-.389,3.373,3.373,0,0,1-1.4-1l1.048-1.442a2.773,2.773,0,0,0,2.146.991,2.029,2.029,0,0,0,1.466-.5A1.889,1.889,0,0,0,53.8.294V-.181a2.738,2.738,0,0,1-2.154.926A3.137,3.137,0,0,1,49.064-.5a5.192,5.192,0,0,1-.987-3.313Zm2.367.176a3.234,3.234,0,0,0,.483,1.891,1.537,1.537,0,0,0,1.327.685A1.644,1.644,0,0,0,53.8-1.976V-5.708a1.64,1.64,0,0,0-1.532-.812,1.547,1.547,0,0,0-1.339.7A3.645,3.645,0,0,0,50.444-3.74ZM60.494.581H58.118V-8.282h2.375ZM57.979-10.575a1.166,1.166,0,0,1,.356-.876,1.338,1.338,0,0,1,.971-.344,1.342,1.342,0,0,1,.966.344,1.159,1.159,0,0,1,.36.876,1.162,1.162,0,0,1-.364.885,1.345,1.345,0,0,1-.962.344,1.345,1.345,0,0,1-.962-.344A1.162,1.162,0,0,1,57.979-10.575Zm8.15,9.411a1.553,1.553,0,0,0,1.065-.36,1.263,1.263,0,0,0,.426-.958h2.22a3.036,3.036,0,0,1-.491,1.65A3.243,3.243,0,0,1,68.025.331,4.14,4.14,0,0,1,66.17.744a3.847,3.847,0,0,1-3-1.208,4.781,4.781,0,0,1-1.1-3.338v-.156a4.726,4.726,0,0,1,1.089-3.268,3.8,3.8,0,0,1,2.99-1.22,3.727,3.727,0,0,1,2.666.946,3.349,3.349,0,0,1,1.02,2.519h-2.22A1.627,1.627,0,0,0,67.193-6.1a1.42,1.42,0,0,0-1.081-.432,1.426,1.426,0,0,0-1.249.6,3.494,3.494,0,0,0-.422,1.956v.246a3.538,3.538,0,0,0,.418,1.969A1.444,1.444,0,0,0,66.129-1.164Zm4.693-2.768a5.256,5.256,0,0,1,.508-2.351,3.717,3.717,0,0,1,1.462-1.6,4.265,4.265,0,0,1,2.216-.565,4.035,4.035,0,0,1,2.928,1.1A4.4,4.4,0,0,1,79.2-4.366l.016.606A4.632,4.632,0,0,1,78.079-.488,3.957,3.957,0,0,1,75.024.744,3.977,3.977,0,0,1,71.964-.484a4.713,4.713,0,0,1-1.143-3.342Zm2.367.168a3.313,3.313,0,0,0,.475,1.932,1.567,1.567,0,0,0,1.36.669,1.571,1.571,0,0,0,1.343-.66,3.625,3.625,0,0,0,.483-2.112,3.279,3.279,0,0,0-.483-1.92,1.571,1.571,0,0,0-1.36-.681,1.545,1.545,0,0,0-1.343.677A3.686,3.686,0,0,0,73.189-3.764Zm12.286,1.9a.763.763,0,0,0-.43-.684A4.885,4.885,0,0,0,83.665-3Q80.5-3.662,80.5-5.685a2.435,2.435,0,0,1,.979-1.97,3.948,3.948,0,0,1,2.56-.79,4.249,4.249,0,0,1,2.7.794,2.5,2.5,0,0,1,1.012,2.064H85.385a1.145,1.145,0,0,0-.328-.84,1.386,1.386,0,0,0-1.024-.332,1.417,1.417,0,0,0-.926.27.853.853,0,0,0-.328.688.729.729,0,0,0,.373.635,3.834,3.834,0,0,0,1.257.418,10.269,10.269,0,0,1,1.491.4,2.449,2.449,0,0,1,1.876,2.383A2.312,2.312,0,0,1,86.736,0,4.487,4.487,0,0,1,84.05.744a4.687,4.687,0,0,1-1.978-.4A3.319,3.319,0,0,1,80.716-.742a2.531,2.531,0,0,1-.491-1.495h2.244a1.236,1.236,0,0,0,.467.966A1.852,1.852,0,0,0,84.1-.935a1.714,1.714,0,0,0,1.028-.258A.8.8,0,0,0,85.475-1.868Z" transform="translate(2486.792 2148.33)" fill="#12263f"/>
      <g transform="matrix(1, 0, 0, 1, 2095.13, 1761.64)" filter="url(#Trazado_158063)">
        <path id="Trazado_158063-2" data-name="Trazado 158063" d="M0,0H111.248V31.452H0Z" transform="translate(249 6)" fill="#fff"/>
      </g>
      <path id="Trazado_158059" data-name="Trazado 158059" d="M-22.942-4.285H-27.66V.589h-2.457V-11.337h7.765v1.99H-27.66v3.08h4.718ZM-18.585.589H-20.96V-8.274h2.375ZM-21.1-10.567a1.166,1.166,0,0,1,.356-.876,1.338,1.338,0,0,1,.971-.344,1.342,1.342,0,0,1,.966.344,1.159,1.159,0,0,1,.36.876,1.162,1.162,0,0,1-.364.885,1.345,1.345,0,0,1-.962.344,1.345,1.345,0,0,1-.962-.344A1.162,1.162,0,0,1-21.1-10.567ZM-14.137.589h-2.375V-11.992h2.375Zm1.581-4.513a5.256,5.256,0,0,1,.508-2.351,3.717,3.717,0,0,1,1.462-1.6,4.265,4.265,0,0,1,2.216-.565,4.035,4.035,0,0,1,2.928,1.1A4.4,4.4,0,0,1-4.178-4.358l.016.606A4.632,4.632,0,0,1-5.3-.48,3.957,3.957,0,0,1-8.355.752,3.977,3.977,0,0,1-11.414-.476a4.713,4.713,0,0,1-1.143-3.342Zm2.367.168a3.313,3.313,0,0,0,.475,1.932,1.567,1.567,0,0,0,1.36.669,1.571,1.571,0,0,0,1.343-.66,3.625,3.625,0,0,0,.483-2.112,3.279,3.279,0,0,0-.483-1.92,1.571,1.571,0,0,0-1.36-.681,1.545,1.545,0,0,0-1.343.677A3.686,3.686,0,0,0-10.19-3.756ZM2.1-1.86a.763.763,0,0,0-.43-.684,4.884,4.884,0,0,0-1.38-.446q-3.162-.663-3.162-2.686A2.435,2.435,0,0,1-1.9-7.647a3.948,3.948,0,0,1,2.56-.79,4.249,4.249,0,0,1,2.7.794A2.5,2.5,0,0,1,4.373-5.579H2.006a1.145,1.145,0,0,0-.328-.84A1.386,1.386,0,0,0,.655-6.75a1.417,1.417,0,0,0-.926.27A.853.853,0,0,0-.6-5.792a.729.729,0,0,0,.373.635,3.834,3.834,0,0,0,1.257.418,10.269,10.269,0,0,1,1.491.4A2.449,2.449,0,0,1,4.4-1.959,2.312,2.312,0,0,1,3.357,0,4.487,4.487,0,0,1,.671.752a4.687,4.687,0,0,1-1.978-.4A3.319,3.319,0,0,1-2.663-.734a2.531,2.531,0,0,1-.491-1.495H-.91a1.236,1.236,0,0,0,.467.966A1.852,1.852,0,0,0,.72-.927a1.714,1.714,0,0,0,1.028-.258A.8.8,0,0,0,2.1-1.86ZM5.553-3.924A5.256,5.256,0,0,1,6.06-6.275a3.717,3.717,0,0,1,1.462-1.6,4.265,4.265,0,0,1,2.216-.565,4.035,4.035,0,0,1,2.928,1.1,4.4,4.4,0,0,1,1.265,2.981l.016.606A4.632,4.632,0,0,1,12.809-.48,3.957,3.957,0,0,1,9.754.752,3.977,3.977,0,0,1,6.7-.476,4.713,4.713,0,0,1,5.553-3.818Zm2.367.168a3.313,3.313,0,0,0,.475,1.932,1.567,1.567,0,0,0,1.36.669,1.571,1.571,0,0,0,1.343-.66,3.625,3.625,0,0,0,.483-2.112,3.279,3.279,0,0,0-.483-1.92,1.571,1.571,0,0,0-1.36-.681,1.545,1.545,0,0,0-1.343.677A3.686,3.686,0,0,0,7.92-3.756ZM16.053.589V-6.537H14.734V-8.274h1.319v-.754a3.059,3.059,0,0,1,.856-2.314,3.315,3.315,0,0,1,2.4-.823,5.534,5.534,0,0,1,1.2.164l-.025,1.835a3.018,3.018,0,0,0-.721-.074q-1.335,0-1.335,1.253v.713h1.761v1.736H18.428V.589Zm7.92,0H21.606V-8.274h2.367Zm-.7-12.458h2.58L23.588-9.33H21.663ZM31.148.589a2.629,2.629,0,0,1-.238-.794,2.864,2.864,0,0,1-2.236.958A3.147,3.147,0,0,1,26.516,0a2.423,2.423,0,0,1-.856-1.9A2.5,2.5,0,0,1,26.7-4.064a5.153,5.153,0,0,1,3.018-.762h1.089v-.508a1.46,1.46,0,0,0-.315-.983,1.241,1.241,0,0,0-1-.369,1.41,1.41,0,0,0-.938.287.974.974,0,0,0-.34.786H25.857a2.378,2.378,0,0,1,.475-1.425,3.14,3.14,0,0,1,1.343-1.028,4.9,4.9,0,0,1,1.949-.373,3.868,3.868,0,0,1,2.6.823A2.88,2.88,0,0,1,33.187-5.3v3.841A4.237,4.237,0,0,0,33.54.449V.589ZM29.19-1.058a2.039,2.039,0,0,0,.966-.233,1.533,1.533,0,0,0,.655-.627V-3.441h-.885q-1.777,0-1.892,1.229l-.008.139a.948.948,0,0,0,.311.729A1.209,1.209,0,0,0,29.19-1.058Z" transform="translate(2398.3 1789.774)" fill="#12263f"/>
      <g transform="matrix(1, 0, 0, 1, 2095.13, 1761.64)" filter="url(#Trazado_158064)">
        <path id="Trazado_158064-2" data-name="Trazado 158064" d="M0,0H111.248V31.452H0Z" transform="translate(431.53 6)" fill="#fff"/>
      </g>
      <path id="Trazado_158060" data-name="Trazado 158060" d="M-17.7.55h-2.457L-24.945-7.3V.55H-27.4V-11.375h2.457l4.791,7.863v-7.863H-17.7Zm1.622-4.513a5.256,5.256,0,0,1,.508-2.351,3.717,3.717,0,0,1,1.462-1.6A4.265,4.265,0,0,1-11.9-8.476a4.035,4.035,0,0,1,2.928,1.1A4.4,4.4,0,0,1-7.7-4.4l.016.606A4.632,4.632,0,0,1-8.826-.518,3.957,3.957,0,0,1-11.881.714,3.977,3.977,0,0,1-14.94-.514a4.713,4.713,0,0,1-1.143-3.342Zm2.367.168a3.313,3.313,0,0,0,.475,1.932,1.567,1.567,0,0,0,1.36.669,1.571,1.571,0,0,0,1.343-.66,3.625,3.625,0,0,0,.483-2.112,3.279,3.279,0,0,0-.483-1.92,1.571,1.571,0,0,0-1.36-.681,1.545,1.545,0,0,0-1.343.677A3.686,3.686,0,0,0-13.716-3.795Zm12.466-2.3A6.431,6.431,0,0,0-2.1-6.158a1.734,1.734,0,0,0-1.761.909V.55H-6.23V-8.312h2.236l.066,1.057a2.193,2.193,0,0,1,1.974-1.22,2.48,2.48,0,0,1,.737.106Zm3.358-2.22.074.991A3.114,3.114,0,0,1,4.729-8.476,2.364,2.364,0,0,1,7.08-7.124,3.043,3.043,0,0,1,9.742-8.476a2.643,2.643,0,0,1,2.146.84,3.859,3.859,0,0,1,.7,2.527V.55H10.217V-5.1a1.687,1.687,0,0,0-.295-1.1,1.307,1.307,0,0,0-1.04-.348A1.477,1.477,0,0,0,7.407-5.535L7.416.55H5.049V-5.093a1.667,1.667,0,0,0-.3-1.114,1.319,1.319,0,0,0-1.032-.344,1.534,1.534,0,0,0-1.458.835V.55H-.112V-8.312ZM19.546.55a2.629,2.629,0,0,1-.238-.794,2.864,2.864,0,0,1-2.236.958,3.147,3.147,0,0,1-2.158-.754,2.423,2.423,0,0,1-.856-1.9A2.5,2.5,0,0,1,15.1-4.1a5.153,5.153,0,0,1,3.018-.762H19.21v-.508a1.46,1.46,0,0,0-.315-.983,1.241,1.241,0,0,0-1-.369,1.41,1.41,0,0,0-.938.287.974.974,0,0,0-.34.786H14.255a2.378,2.378,0,0,1,.475-1.425A3.14,3.14,0,0,1,16.073-8.1a4.9,4.9,0,0,1,1.949-.373,3.868,3.868,0,0,1,2.6.823,2.88,2.88,0,0,1,.962,2.314V-1.5A4.237,4.237,0,0,0,21.937.411V.55ZM17.588-1.1a2.039,2.039,0,0,0,.966-.233,1.533,1.533,0,0,0,.655-.627V-3.479h-.885q-1.777,0-1.892,1.229l-.008.139a.948.948,0,0,0,.311.729A1.209,1.209,0,0,0,17.588-1.1ZM28.2-1.9a.763.763,0,0,0-.43-.684,4.884,4.884,0,0,0-1.38-.446q-3.162-.663-3.162-2.686a2.435,2.435,0,0,1,.979-1.97,3.948,3.948,0,0,1,2.56-.79,4.249,4.249,0,0,1,2.7.794A2.5,2.5,0,0,1,30.48-5.617H28.113a1.145,1.145,0,0,0-.328-.84,1.386,1.386,0,0,0-1.024-.332,1.417,1.417,0,0,0-.926.27.853.853,0,0,0-.328.688.729.729,0,0,0,.373.635,3.834,3.834,0,0,0,1.257.418,10.269,10.269,0,0,1,1.491.4A2.449,2.449,0,0,1,30.5-2a2.312,2.312,0,0,1-1.04,1.962,4.487,4.487,0,0,1-2.686.749A4.687,4.687,0,0,1,24.8.317,3.319,3.319,0,0,1,23.444-.772a2.531,2.531,0,0,1-.491-1.495H25.2a1.236,1.236,0,0,0,.467.966,1.852,1.852,0,0,0,1.163.336,1.714,1.714,0,0,0,1.028-.258A.8.8,0,0,0,28.2-1.9Z" transform="translate(2580.957 1789.812)" fill="#12263f"/>
    </g>
  </g>
</svg>
