<svg xmlns="http://www.w3.org/2000/svg" width="400" height="420" viewBox="0 0 400 420">
  <g id="Grupo_108329" data-name="Grupo 108329" transform="translate(-180 -989)">
    <rect id="Rectángulo_40165" data-name="Rectángulo 40165" width="400" height="420" transform="translate(180 989)" fill="none"/>
    <g id="Grupo_108328" data-name="Grupo 108328" transform="translate(160.23 990.318)">
      <g id="freepik--background-complete--inject-303" transform="translate(19.77 255.626)">
        <path id="Trazado_158117" data-name="Trazado 158117" d="M101.56,390.293a16.216,16.216,0,0,0,16.737-1.267,1.18,1.18,0,0,0,.529-.668,1.119,1.119,0,0,0-.555-.98c-1.492-1.119-3.514-1.171-5.362-.98a26.476,26.476,0,0,0-11.349,3.9" transform="translate(-30.596 -302.522)" fill="#e0e0e0"/>
        <path id="Trazado_158118" data-name="Trazado 158118" d="M101.9,387.827c1.145-7.323,5.718-13.223,11.557-17.787a3.47,3.47,0,0,1,.356,2.846,18.45,18.45,0,0,1-4.59,8.494,55.717,55.717,0,0,1-7.323,6.447" transform="translate(-30.641 -300.368)" fill="#e0e0e0"/>
        <path id="Trazado_158119" data-name="Trazado 158119" d="M100.677,388.858a36.62,36.62,0,0,1-5.058-10.7c-.711-2.464-1.145-5.18-.139-7.54a13.015,13.015,0,0,1,5.128,7.939,26.5,26.5,0,0,1,.13,9.613" transform="translate(-29.713 -300.445)" fill="#e0e0e0"/>
        <path id="Trazado_158120" data-name="Trazado 158120" d="M95.118,402.749c2.308,2.516,3.766,5.466,5.857,8.173s4.989,5.093,8.4,5.31a17.287,17.287,0,0,0-5.206-8.937,16.7,16.7,0,0,0-9.128-4.616" transform="translate(-29.733 -304.689)" fill="#e0e0e0"/>
        <path id="Trazado_158121" data-name="Trazado 158121" d="M93,401.332a26.955,26.955,0,0,1-2.6-21.223A22.428,22.428,0,0,1,93,401.332" transform="translate(-28.977 -301.701)" fill="#e0e0e0"/>
        <path id="Trazado_158122" data-name="Trazado 158122" d="M84.81,414.986c2.464,1.8,4.425,4.234,6.655,6.325s4.937,3.93,8,4.13a1.18,1.18,0,0,0,1.024-.3c.26-.347.087-.833-.1-1.215A16.189,16.189,0,0,0,84.879,415" transform="translate(-28.379 -306.314)" fill="#e0e0e0"/>
        <path id="Trazado_158123" data-name="Trazado 158123" d="M84.354,410.974c-.278-.477-.278-.72-.573-1.345a18.682,18.682,0,0,0-1-1.848c-1.579-2.473-1.9-5.553-2.5-8.416a28.6,28.6,0,0,1-.729-4.685,9.736,9.736,0,0,1,.816-4.633.536.536,0,0,1,.121-.239.529.529,0,0,1,.747-.047c1.944.946,2.9,3.132,3.471,5.206a28.845,28.845,0,0,1-.295,16.138" transform="translate(-27.68 -302.961)" fill="#e0e0e0"/>
        <path id="Trazado_158124" data-name="Trazado 158124" d="M61.254,415.108a30.885,30.885,0,0,1-5.475-16.181c-.035-.659.139-1.536.79-1.6.434-.035.772.33,1.041.668a20.834,20.834,0,0,1,3.644,17.11" transform="translate(-24.536 -303.98)" fill="#e0e0e0"/>
        <path id="Trazado_158125" data-name="Trazado 158125" d="M56.894,418.338c-2.3-3.011-5.674-4.642-9.371-5.509a16.574,16.574,0,0,0-11.054,1.354,24.867,24.867,0,0,0,20.424,4.156" transform="translate(-21.98 -305.979)" fill="#e0e0e0"/>
        <path id="Trazado_158126" data-name="Trazado 158126" d="M55.441,413.275c-.764-.928-2.386-1.18-3.575-1.414a33.52,33.52,0,0,1-8.893-2.6,11.423,11.423,0,0,1-6.073-6.7,23.591,23.591,0,0,1,18.524,10.715" transform="translate(-22.037 -304.673)" fill="#e0e0e0"/>
        <path id="Trazado_158127" data-name="Trazado 158127" d="M61.376,390.96A23.629,23.629,0,0,0,61.064,369a18.074,18.074,0,0,0-2.16,10.75A53.64,53.64,0,0,0,61.272,390.6" transform="translate(-24.935 -300.231)" fill="#e0e0e0"/>
        <path id="Trazado_158128" data-name="Trazado 158128" d="M44.465,384.648c-8.954.182-18.064-6.247-21.4-14.568,8.659.859,17.214,6.941,21.4,14.568" transform="translate(-20.205 -300.374)" fill="#e0e0e0"/>
        <path id="Trazado_158129" data-name="Trazado 158129" d="M46.518,388.217c-6.707-1.605-13.535-1.536-19.9,1.111a8.629,8.629,0,0,0-2.863,1.735,3.089,3.089,0,0,0,1.935,5.457,7.815,7.815,0,0,0,3.939-.755c5.848-2.421,11.175-6.412,17.431-7.366" transform="translate(-20.15 -302.633)" fill="#e0e0e0"/>
        <path id="Trazado_158130" data-name="Trazado 158130" d="M52.242,393.334c-3.644-.295-6.282,1.076-9.336,2.212a18.263,18.263,0,0,0-7.982,5.414c-.278.373-.59.79-.338,1.241s.911.408,1.414.278a32.6,32.6,0,0,0,13.214-6.785c1.128-.954,1.605-1.692,3.028-2.091" transform="translate(-21.719 -303.446)" fill="#e0e0e0"/>
        <path id="Trazado_158131" data-name="Trazado 158131" d="M56.565,363.057c-6.915-1.779-13.752.043-19.383,4.434-.564.4-1.145,1.206-.659,1.735a1.327,1.327,0,0,0,.868.312,25.005,25.005,0,0,0,19.175-6.525" transform="translate(-21.963 -299.355)" fill="#e0e0e0"/>
        <path id="Trazado_158132" data-name="Trazado 158132" d="M50.421,360.277a36.27,36.27,0,0,1-12.52,1.059,19.025,19.025,0,0,1-11.4-5.006,26.713,26.713,0,0,1,23.921,3.948" transform="translate(-20.661 -298.388)" fill="#e0e0e0"/>
        <path id="Trazado_158133" data-name="Trazado 158133" d="M56.3,344.253a18.014,18.014,0,0,0,2.4-15.618c-.2-.607-.685-1.327-1.275-1.1-.425.165-.547.711-.547,1.163-.39,5.648-.035,10.091-.59,15.722" transform="translate(-24.604 -294.737)" fill="#e0e0e0"/>
        <path id="Trazado_158134" data-name="Trazado 158134" d="M54.917,345.052c-.876-2.429-1.4-4.972-2.143-7.453A18.828,18.828,0,0,0,49.3,330.71a8.911,8.911,0,0,0-6.724-3.34c-.425,3.089,1.128,6.108,2.967,8.624a33.109,33.109,0,0,0,9.327,9.058" transform="translate(-22.78 -294.721)" fill="#e0e0e0"/>
        <path id="Trazado_158135" data-name="Trazado 158135" d="M42.823,342.609a27.154,27.154,0,0,0-14.438-12.8c-2.742-1.111-5.883-1.77-8.616-.668A75.148,75.148,0,0,0,42.7,342.67" transform="translate(-19.77 -294.88)" fill="#e0e0e0"/>
        <path id="Trazado_158136" data-name="Trazado 158136" d="M49.9,350.271a59.9,59.9,0,0,0-11.279-5.206,22,22,0,0,0-12.85-.772,2.488,2.488,0,0,0-1.015.477.936.936,0,0,0-.295,1.015,1.439,1.439,0,0,0,.816.616,53.72,53.72,0,0,0,11.887,3.948,46.728,46.728,0,0,0,12.737-.061" transform="translate(-20.385 -296.876)" fill="#e0e0e0"/>
        <path id="Trazado_158137" data-name="Trazado 158137" d="M81.334,360.781c-.069-3.184-1.041-6.464-1.362-9.665s-.087-6.594,1.649-9.275a22.514,22.514,0,0,1-.2,18.646" transform="translate(-27.722 -296.636)" fill="#e0e0e0"/>
        <path id="Trazado_158138" data-name="Trazado 158138" d="M94.58,356.819a53.6,53.6,0,0,0,9.076,6.073,18.062,18.062,0,0,0,10.577,1.961A26.029,26.029,0,0,0,94.91,356.62" transform="translate(-29.672 -298.592)" fill="#e0e0e0"/>
        <path id="Trazado_158139" data-name="Trazado 158139" d="M103.9,353.578a55.39,55.39,0,0,0,8.512,5.162,18.616,18.616,0,0,0,9.674,1.822,12.414,12.414,0,0,0-7.869-6.663c-3.375-1.041-6.785-.607-10.316-.321" transform="translate(-30.905 -298.145)" fill="#e0e0e0"/>
        <path id="Trazado_158140" data-name="Trazado 158140" d="M90.2,353.517c3.271-1.111,7.522-1.111,10.993-1.111s7.106-.226,10.091-1.961c-2.577-2.785-6.854-3.418-10.551-2.56s-6.958,2.976-10.134,5.058" transform="translate(-29.092 -297.389)" fill="#e0e0e0"/>
        <path id="Trazado_158141" data-name="Trazado 158141" d="M90.609,350.616a33.788,33.788,0,0,1,5.3-22.186c2.186,7.288.121,16.858-5.3,22.186" transform="translate(-29.119 -294.861)" fill="#e0e0e0"/>
        <path id="Trazado_158142" data-name="Trazado 158142" d="M71.265,333.934A27.063,27.063,0,0,1,58.25,316.39a10.03,10.03,0,0,1,6.724,3.471,21.063,21.063,0,0,1,3.792,6.733c.928,2.421,1.64,4.92,2.664,7.3" transform="translate(-24.863 -293.267)" fill="#e0e0e0"/>
        <path id="Trazado_158143" data-name="Trazado 158143" d="M76.56,338.731A18.854,18.854,0,0,0,90.6,329.369a9.961,9.961,0,0,0-8.086,2.126c-2.3,1.735-4.26,4.9-5.952,7.236" transform="translate(-27.287 -294.959)" fill="#e0e0e0"/>
        <path id="Trazado_158144" data-name="Trazado 158144" d="M75.536,334.172c-2.464-5.874-1.5-11.921,1.475-17.552a13.551,13.551,0,0,1,1.362,8.815,40.275,40.275,0,0,1-2.681,8.676" transform="translate(-26.965 -293.298)" fill="#e0e0e0"/>
        <path id="Trazado_158145" data-name="Trazado 158145" d="M70.954,314.811a41.919,41.919,0,0,1-14.75-8.138c-.737-.633-1.518-1.484-1.319-2.438a1.865,1.865,0,0,1,1.588-1.327,4.524,4.524,0,0,1,2.16.33c5.518,1.883,10.585,6,12.32,11.574" transform="translate(-24.414 -291.48)" fill="#e0e0e0"/>
        <path id="Trazado_158146" data-name="Trazado 158146" d="M72.14,309.7c-1.163-3.471-3.505-6.386-5.431-9.544s-3.531-6.776-2.976-10.412c3.28,1.492,5.536,4.694,6.707,8.1a40.06,40.06,0,0,1,1.614,10.663" transform="translate(-25.574 -289.74)" fill="#e0e0e0"/>
        <path id="Trazado_158147" data-name="Trazado 158147" d="M73.44,311.235c1.675-2.03,3.219-3.479,5.024-5.405a22.134,22.134,0,0,0,4.5-6.455,10.317,10.317,0,0,0,.347-7.7c-1.466,2.62-4.165,4.312-5.9,6.785-2.438,3.549-2.577,8.72-3.974,12.78" transform="translate(-26.874 -289.995)" fill="#e0e0e0"/>
        <path id="Trazado_158148" data-name="Trazado 158148" d="M73.2,373.2c.009-33.482.1-60.613.208-60.613s.191,27.14.182,60.613-.1,60.613-.208,60.613S73.191,406.686,73.2,373.2Z" transform="translate(-26.842 -292.764)" fill="#e0e0e0"/>
        <path id="Trazado_158149" data-name="Trazado 158149" d="M47.111,358.844c.677.173,1.657.451,2.855.824,2.395.72,5.666,1.874,9.206,3.323,1.779.729,3.445,1.458,4.946,2.16a15.01,15.01,0,0,1,3.766,2.343,6.213,6.213,0,0,1,1.735,2.455,4.5,4.5,0,0,1,.2.79c0,.182.035.278,0,.286s-.087-.382-.356-1.024a6.243,6.243,0,0,0-1.735-2.3c-1.883-1.622-5.145-2.889-8.676-4.338s-6.776-2.612-9.145-3.419l-2.811-.954a5.649,5.649,0,0,1-1.024-.382A5.63,5.63,0,0,1,47.111,358.844Z" transform="translate(-23.251 -298.856)" fill="#e0e0e0"/>
        <path id="Trazado_158150" data-name="Trazado 158150" d="M37.448,336.834c.252.2.555.451.92.764l3.34,2.855c2.8,2.421,6.655,5.8,10.9,9.544a135.876,135.876,0,0,1,10.342,10.16c1.249,1.38,2.212,2.534,2.863,3.34.321.408.564.729.729.946a1.964,1.964,0,0,1,.234.347c-.017.009-.113-.087-.3-.295l-.79-.868c-.677-.781-1.675-1.9-2.941-3.254-2.542-2.707-6.195-6.3-10.412-10.056l-10.828-9.639-3.245-2.95-.868-.816a3.95,3.95,0,0,1-.286-.312A1.745,1.745,0,0,1,37.448,336.834Z" transform="translate(-22.065 -295.942)" fill="#e0e0e0"/>
        <path id="Trazado_158151" data-name="Trazado 158151" d="M58.75,354.121a29.069,29.069,0,0,1-1.319-3.262A15.847,15.847,0,0,1,56.39,346c.147,0,.538,2.143,1.414,4.72s1.761,4.616,1.649,4.659A5.1,5.1,0,0,1,58.75,354.121Z" transform="translate(-24.617 -297.187)" fill="#e0e0e0"/>
        <path id="Trazado_158152" data-name="Trazado 158152" d="M73.944,371.9c.356-.529.894-1.284,1.57-2.212,1.345-1.857,3.254-4.382,5.423-7.123s4.2-5.162,5.7-6.9c.755-.868,1.371-1.562,1.8-2.03a5.223,5.223,0,0,1,.7-.7,4.916,4.916,0,0,1-.59.8l-1.735,2.117c-1.449,1.735-3.445,4.234-5.614,6.941s-4.1,5.232-5.51,7.045l-1.666,2.143a5.623,5.623,0,0,1-.651.755A4.845,4.845,0,0,1,73.944,371.9Z" transform="translate(-26.866 -298.104)" fill="#e0e0e0"/>
        <path id="Trazado_158153" data-name="Trazado 158153" d="M81.166,362.58a18.518,18.518,0,0,0,.694-4h.174a2.509,2.509,0,0,1,0,.5c-.026,0-.087-.165-.165-.477h.174a11.518,11.518,0,0,1-.495,4.113A9.418,9.418,0,0,1,79.37,366.8,29.523,29.523,0,0,0,81.166,362.58Z" transform="translate(-27.659 -298.852)" fill="#e0e0e0"/>
        <path id="Trazado_158154" data-name="Trazado 158154" d="M88.49,356.936a9.233,9.233,0,0,1,4.338-.469,19.474,19.474,0,0,1,4.338.816,5.914,5.914,0,0,1,1.675.685,13.678,13.678,0,0,1-1.735-.425,27.091,27.091,0,0,0-4.251-.685,10.334,10.334,0,0,0-4.225.338,6.754,6.754,0,0,0-1.518.868A2.74,2.74,0,0,1,88.49,356.936Z" transform="translate(-28.683 -298.562)" fill="#e0e0e0"/>
        <path id="Trazado_158155" data-name="Trazado 158155" d="M89.54,355.237a15.873,15.873,0,0,1,1.666-.755,20.687,20.687,0,0,1,11.9-.868,12.808,12.808,0,0,1,1.735.495,1.99,1.99,0,0,1,.616.26c-.017.061-.928-.217-2.429-.486a23.431,23.431,0,0,0-11.748.868c-1.458.512-2.325.928-2.325.868C88.932,355.558,89.141,355.436,89.54,355.237Z" transform="translate(-28.926 -298.129)" fill="#e0e0e0"/>
        <path id="Trazado_158156" data-name="Trazado 158156" d="M74.759,338.19a47.44,47.44,0,0,1,1.735-5.9,48.64,48.64,0,0,1-1.319,6,47.443,47.443,0,0,1-1.735,5.9A48.479,48.479,0,0,1,74.759,338.19Z" transform="translate(-26.874 -295.372)" fill="#e0e0e0"/>
        <path id="Trazado_158157" data-name="Trazado 158157" d="M74.882,341.268a8.428,8.428,0,0,1,2.022-2.082,2.685,2.685,0,0,1,1.067-.555,16.046,16.046,0,0,0-2.768,2.863,27.058,27.058,0,0,0-1.883,3.531A7.811,7.811,0,0,1,74.882,341.268Z" transform="translate(-26.858 -296.211)" fill="#e0e0e0"/>
        <path id="Trazado_158158" data-name="Trazado 158158" d="M73.444,429.076c.035-.312.121-.772.243-1.362a23.957,23.957,0,0,1,1.735-4.781,61.719,61.719,0,0,1,9.544-13.691c2.152-2.447,4.243-4.746,6.021-6.941a51.72,51.72,0,0,0,4.338-6.073,33.829,33.829,0,0,0,2.265-4.512c.442-1.111.677-1.735.677-1.735a1.933,1.933,0,0,1-.113.469c-.078.3-.226.746-.425,1.31a28.736,28.736,0,0,1-2.16,4.6,49.691,49.691,0,0,1-4.295,6.186c-1.77,2.221-3.852,4.538-6,6.984a65.165,65.165,0,0,0-9.622,13.561,26.077,26.077,0,0,0-1.813,4.7c-.3,1.145-.425,1.8-.425,1.8A2.053,2.053,0,0,1,73.444,429.076Z" transform="translate(-26.869 -303.008)" fill="#e0e0e0"/>
        <path id="Trazado_158159" data-name="Trazado 158159" d="M49.031,407.835a9.362,9.362,0,0,1,.868.39,19.484,19.484,0,0,1,3.011,1.839,30.908,30.908,0,0,1,3.922,3.471c1.371,1.414,2.768,3.1,4.182,4.833a102.016,102.016,0,0,1,6.941,9.275,27.4,27.4,0,0,1,1.666,3.1c.182.364.295.668.382.868a1.264,1.264,0,0,1,.1.321,9.978,9.978,0,0,1-.616-1.137,29.116,29.116,0,0,0-1.735-3.019c-1.579-2.5-4.225-5.64-7.045-9.18-1.414-1.761-2.794-3.41-4.139-4.833a34.122,34.122,0,0,0-3.826-3.471,25.508,25.508,0,0,0-2.915-1.926,10.145,10.145,0,0,1-1.119-.625C48.71,407.722,48.823,407.757,49.031,407.835Z" transform="translate(-23.6 -305.358)" fill="#e0e0e0"/>
        <path id="Trazado_158160" data-name="Trazado 158160" d="M50.6,416.828a25.362,25.362,0,0,1,5.726,1.006,15.319,15.319,0,0,1,5.093,2.829,9.059,9.059,0,0,1,1.241,1.267,1.936,1.936,0,0,1,.347.547,12.428,12.428,0,0,0-1.735-1.6,16.933,16.933,0,0,0-5.041-2.646,31.348,31.348,0,0,0-5.631-1.111,17.7,17.7,0,0,1-2.377-.338A12.437,12.437,0,0,1,50.6,416.828Z" transform="translate(-23.536 -306.551)" fill="#e0e0e0"/>
        <path id="Trazado_158161" data-name="Trazado 158161" d="M63.245,420.118a14.717,14.717,0,0,1-1.38-2.759,14.057,14.057,0,0,1-.694-2.993,3.7,3.7,0,0,1,0-1.275c.139-.026.278,1.97,1.1,4.139s1.9,3.835,1.779,3.9C64,421.159,63.705,420.821,63.245,420.118Z" transform="translate(-25.243 -306.067)" fill="#e0e0e0"/>
        <path id="Trazado_158162" data-name="Trazado 158162" d="M41.083,383.561l1.145.434c.5.191,1.1.443,1.787.772s1.44.668,2.308,1.145l1.31.72c.46.269.911.573,1.388.868.972.564,1.944,1.275,2.976,2A48.411,48.411,0,0,1,63.373,401.27c.685,1.059,1.362,2.056,1.9,3.045.278.486.564.946.8,1.414l.677,1.336c.442.842.764,1.648,1.067,2.343a18.294,18.294,0,0,1,.7,1.813c.165.469.295.85.408,1.163a2.2,2.2,0,0,1,.113.408c-.017.009-.069-.113-.191-.382s-.278-.677-.469-1.137-.434-1.05-.764-1.735-.659-1.484-1.119-2.308l-.685-1.327c-.243-.451-.538-.911-.816-1.388-.547-.98-1.232-1.961-1.917-3A50.877,50.877,0,0,0,51.8,389.826c-1.024-.729-1.978-1.44-2.933-2.022-.495-.3-.92-.607-1.362-.868l-1.3-.737c-.816-.486-1.614-.8-2.265-1.189a14.6,14.6,0,0,0-1.735-.868l-1.111-.5a1.9,1.9,0,0,1-.382-.2A1.254,1.254,0,0,1,41.083,383.561Z" transform="translate(-22.542 -302.142)" fill="#e0e0e0"/>
        <path id="Trazado_158163" data-name="Trazado 158163" d="M57.583,394.927A6.072,6.072,0,0,0,54,393.66a12.122,12.122,0,0,0-3.852.642,8.821,8.821,0,0,1-1.588.469,5.936,5.936,0,0,1,1.5-.729,10.312,10.312,0,0,1,3.956-.772,5.91,5.91,0,0,1,3.757,1.44,2.776,2.776,0,0,1,.937,1.388A11.787,11.787,0,0,0,57.583,394.927Z" transform="translate(-23.581 -303.443)" fill="#e0e0e0"/>
        <path id="Trazado_158164" data-name="Trazado 158164" d="M62.291,397.591a7.123,7.123,0,0,1-.607-5.206,2.3,2.3,0,0,1,.442-1.015A13.711,13.711,0,0,0,61.883,395a13.97,13.97,0,0,0,1.067,3.471C62.915,398.493,62.62,398.181,62.291,397.591Z" transform="translate(-25.286 -303.192)" fill="#e0e0e0"/>
        <path id="Trazado_158165" data-name="Trazado 158165" d="M51.87,440.12c.512,10.49,3.427,21.023,8.008,31.582h20.91c4.807-10.663,7.93-21.214,8.512-31.582Z" transform="translate(-24.019 -309.644)" fill="#e0e0e0"/>
        <path id="Trazado_158166" data-name="Trazado 158166" d="M71.145,459.23c8.494,0,15.375.087,15.375.2s-6.889.2-15.375.2-15.375-.087-15.375-.2S62.65,459.23,71.145,459.23Z" transform="translate(-24.535 -312.174)" fill="#fafafa"/>
        <path id="Trazado_158167" data-name="Trazado 158167" d="M70.722,463.57c7.965,0,14.412.078,14.412.191s-6.455.2-14.412.2-14.412-.087-14.412-.2S62.757,463.57,70.722,463.57Z" transform="translate(-24.606 -312.748)" fill="#fafafa"/>
        <path id="Trazado_158168" data-name="Trazado 158168" d="M84.78,457.631a58.136,58.136,0,0,1,0-9.631A60.906,60.906,0,0,1,84.78,457.631Z" transform="translate(-28.348 -310.687)" fill="#fafafa"/>
        <path id="Trazado_158169" data-name="Trazado 158169" d="M71.87,457.969a62.286,62.286,0,0,1,0-9.969A65.252,65.252,0,0,1,71.87,457.969Z" transform="translate(-26.639 -310.687)" fill="#fafafa"/>
        <path id="Trazado_158170" data-name="Trazado 158170" d="M59.75,458.039a64.8,64.8,0,0,1,0-10.169A67.887,67.887,0,0,1,59.75,458.039Z" transform="translate(-25.035 -310.67)" fill="#fafafa"/>
        <path id="Trazado_158171" data-name="Trazado 158171" d="M70.66,447.77c9.961,0,18.03.1,18.03.2s-8.078.191-18.03.191-18.03-.087-18.03-.191C52.63,447.831,60.7,447.77,70.66,447.77Z" transform="translate(-24.119 -310.657)" fill="#fafafa"/>
        <path id="Trazado_158172" data-name="Trazado 158172" d="M453.1,461.255l-26.22.816c-2.421.078-5.136.061-6.941-1.605-1.961-1.8-2.056-4.8-2.056-7.47.035-4.815.1-9.77,1.909-14.238s5.813-8.381,10.611-8.6c4.2-.191,8.147,2.525,10.273,6.152,1.848,3.167,2.612,7.106,5.4,9.475a19.166,19.166,0,0,0,5.145,2.664c1.787.746,3.757,1.562,4.685,3.3,2.534,4.659-.755,8.659-2.221,9.917" transform="translate(-72.464 -308.324)" fill="#f5f5f5"/>
        <path id="Trazado_158173" data-name="Trazado 158173" d="M401.38,383.82l2.369,20.19h0l.278,2.03L410,457.032a8.78,8.78,0,0,0,8.676,7.4H449.4l.338.061v-.078a8.213,8.213,0,0,0,1.4-.156c.217-.035.408-.1.616-.156l.243-.069a8.278,8.278,0,0,0,5.883-6.594l12.407-74.01h-68.9Zm11.167,25.344h8.191l.711,21.483h-7.054Zm1.137,21.483H407.61L405.1,409.164h6.768Zm9.24,23.808-.616-18.663H432.5l-.425,18.663Zm18.689,0h-8.841l.4-18.663h9.9Zm2.143-18.663h9.77c-1.111,7.08-2.143,13.622-2.924,18.663h-8.286Zm-10.464-5.145.495-21.483h11.366l-1.666,21.483Zm-11.158,0-.711-21.483h11.7l-.495,21.483Zm-.85-26.637-.659-19.886h13.015l-.4,19.886Zm13.075-19.886h12.72l-1.544,19.886H433.925Zm13.405,0h14.021c-.3,1.137-.746,4.156-2.03,12.2-.356,2.343-.79,4.946-1.223,7.687H446.237Zm9.952,25.04c-.755,4.746-1.553,9.822-2.351,14.889-.347,2.2-.694,4.408-1.033,6.594h-10.16l1.666-21.483Zm.694,0h6.863l-3.6,21.483h-6.646C456.2,423.194,457.36,415.8,458.41,409.164Zm2.395,26.628-3.124,18.663h-6.395c.92-5.839,1.917-12.208,2.924-18.663Zm-44.388,18.663-1.6-18.663h6.8l.616,18.663ZM412.1,404.01l-1.735-19.886H419.9l.659,19.886Zm57.377-19.886-3.306,19.886h-6.941c1.683-10.62,2.941-18.455,3.21-19.886Zm-61.264,51.668h5.926l1.588,18.663h-5.345ZM402.1,384.124h7.566L411.4,404.01H404.46Z" transform="translate(-70.28 -302.141)" fill="#e0e0e0"/>
      </g>
      <g id="freepik--Blackboard--inject-303" transform="translate(38.962 4)">
        <rect id="Rectángulo_40168" data-name="Rectángulo 40168" width="347.742" height="199.627" transform="translate(7.089 0.685)" fill="#263238"/>
        <path id="Trazado_158174" data-name="Trazado 158174" d="M49.3,32H398.317V232.963H49.3Zm347.733,1.336H50.619V231.653H397.033Z" transform="translate(-42.871 -32)" fill="#263238"/>
        <rect id="Rectángulo_40169" data-name="Rectángulo 40169" width="334.319" height="187.202" transform="translate(12.78 6.256)" fill="#455a64"/>
        <path id="Trazado_158175" data-name="Trazado 158175" d="M55.86,38.45H391.489V226.962H55.86Zm334.319,1.345H57.17V225.652H390.179Z" transform="translate(-43.739 -32.854)" fill="#263238"/>
        <rect id="Rectángulo_40170" data-name="Rectángulo 40170" width="360.782" height="8.971" transform="translate(0.659 191.332)" fill="#263238"/>
        <path id="Trazado_158176" data-name="Trazado 158176" d="M41.89,251.77h362.1v10.282H41.89Zm360.791,1.31H43.2v7.661H402.681Z" transform="translate(-41.89 -61.089)" fill="#263238"/>
      </g>
      <g id="freepik--Desk--inject-303" transform="translate(101.493 264.432)">
        <rect id="Rectángulo_40171" data-name="Rectángulo 40171" width="6.438" height="134.909" transform="translate(14.108 18.628)" fill="#263238"/>
        <rect id="Rectángulo_40172" data-name="Rectángulo 40172" width="6.438" height="134.909" transform="translate(107.639 18.628)" fill="#263238"/>
        <rect id="Rectángulo_40173" data-name="Rectángulo 40173" width="193.527" height="85.732" transform="translate(7.531 3.653)" fill="#455a64"/>
        <rect id="Rectángulo_40174" data-name="Rectángulo 40174" width="270.157" height="14.307" fill="#455a64"/>
        <rect id="Rectángulo_40175" data-name="Rectángulo 40175" width="58.644" height="82.235" transform="translate(207.505 7.149)" fill="#455a64"/>
        <path id="Trazado_158177" data-name="Trazado 158177" d="M251.427,314.92c73.958,0,133.825.147,133.825.33s-59.937.33-133.825.33-133.807-.147-133.807-.33S177.47,314.92,251.427,314.92Z" transform="translate(-114.444 -301.879)" fill="#263238"/>
        <rect id="Rectángulo_40176" data-name="Rectángulo 40176" width="6.438" height="140.176" transform="translate(201.067 13.37)" fill="#263238"/>
        <rect id="Rectángulo_40177" data-name="Rectángulo 40177" width="6.438" height="140.176" transform="translate(260.032 13.37)" fill="#263238"/>
      </g>
      <g id="freepik--Character--inject-303" transform="translate(118.234 54.002)">
        <path id="Trazado_158178" data-name="Trazado 158178" d="M187.18,430l-4.72,32.7,40.562,6.073c.338-3.913-19.479-14.837-19.479-14.837l3.887-20.823Z" transform="translate(-139.768 -106.681)" fill="#75b62f"/>
        <g id="Grupo_108309" data-name="Grupo 108309" transform="translate(42.692 323.319)" opacity="0.3">
          <path id="Trazado_158179" data-name="Trazado 158179" d="M187.18,430l-4.72,32.7,40.562,6.073c.338-3.913-19.479-14.837-19.479-14.837l3.887-20.823Z" transform="translate(-182.46 -430)"/>
        </g>
        <path id="Trazado_158180" data-name="Trazado 158180" d="M192.229,453.393a1.657,1.657,0,0,1,1.917,1.293,1.736,1.736,0,0,1-1.5,1.831,1.622,1.622,0,0,1-1.735-1.432,1.674,1.674,0,0,1,1.432-1.735" transform="translate(-140.886 -109.772)" fill="#e0e0e0"/>
        <path id="Trazado_158181" data-name="Trazado 158181" d="M223.022,473.222c.39-1.241-1.293-2.3-1.293-2.3l-38.671-7.063-.6,3.271Z" transform="translate(-139.768 -111.163)" fill="#263238"/>
        <path id="Trazado_158182" data-name="Trazado 158182" d="M204.561,457.355c-1.31.573-1.753,1.675-1.605,1.779s.807-.642,1.883-1.137,2.108-.434,2.108-.633C207.016,457.19,205.871,456.782,204.561,457.355Z" transform="translate(-142.477 -110.263)" fill="#263238"/>
        <path id="Trazado_158183" data-name="Trazado 158183" d="M209.533,460.788c-1.015.894-1.067,2.039-.868,2.074s.512-.816,1.327-1.553,1.683-.946,1.683-1.145C211.7,460.008,210.549,459.895,209.533,460.788Z" transform="translate(-143.224 -110.659)" fill="#263238"/>
        <path id="Trazado_158184" data-name="Trazado 158184" d="M214.991,464.333c.538-.833,1.206-1.336,1.137-1.51s-1.067.121-1.735,1.128-.547,2.022-.356,2.022S214.454,465.165,214.991,464.333Z" transform="translate(-143.928 -111.019)" fill="#263238"/>
        <path id="Trazado_158185" data-name="Trazado 158185" d="M205.274,450.657c-1.327-.13-2.273.443-2.2.633s1.006-.026,2.134.061,2,.5,2.108.33C207.444,451.542,206.6,450.787,205.274,450.657Z" transform="translate(-142.496 -109.413)" fill="#263238"/>
        <path id="Trazado_158186" data-name="Trazado 158186" d="M172.39,439.624l.764,32.97,41.013-.746c-.33-3.913-21.691-11.392-21.691-11.392l.373-21.136Z" transform="translate(-138.435 -107.915)" fill="#75b62f"/>
        <path id="Trazado_158187" data-name="Trazado 158187" d="M180.557,461.945a1.674,1.674,0,0,1,2.117.954,1.736,1.736,0,0,1-1.18,2.056,1.622,1.622,0,0,1-1.909-1.137,1.675,1.675,0,0,1,1.128-1.926" transform="translate(-139.383 -110.896)" fill="#e0e0e0"/>
        <path id="Trazado_158188" data-name="Trazado 158188" d="M214.263,476.417c.182-1.293-1.657-2.056-1.657-2.056l-39.3-.521-.052,3.323Z" transform="translate(-138.549 -112.484)" fill="#263238"/>
        <path id="Trazado_158189" data-name="Trazado 158189" d="M193.376,463.785c-1.189.781-1.475,1.944-1.284,2.022s.7-.781,1.675-1.44,1.97-.772,1.97-.972C195.779,463.212,194.564,463,193.376,463.785Z" transform="translate(-141.036 -111.079)" fill="#263238"/>
        <path id="Trazado_158190" data-name="Trazado 158190" d="M198.871,466.331c-.85,1.05-.685,2.186-.5,2.186s.39-.876,1.05-1.735,1.518-1.215,1.475-1.414C200.884,465.177,199.721,465.281,198.871,466.331Z" transform="translate(-141.854 -111.352)" fill="#263238"/>
        <path id="Trazado_158191" data-name="Trazado 158191" d="M204.823,468.96c.39-.911.954-1.51.868-1.675s-1.032.295-1.51,1.4-.182,2.1,0,2.048C204.38,470.712,204.432,469.871,204.823,468.96Z" transform="translate(-142.609 -111.612)" fill="#263238"/>
        <path id="Trazado_158192" data-name="Trazado 158192" d="M192.945,457.047c-1.327.13-2.16.824-2.056,1s.989-.217,2.117-.3,2.048.182,2.134,0C195.236,457.594,194.272,456.917,192.945,457.047Z" transform="translate(-140.882 -110.259)" fill="#263238"/>
        <path id="Trazado_158193" data-name="Trazado 158193" d="M214.194,252.33l-8.581,28.632-4.338,56.171-6.993,90.07-26.1.685s-3.132-26.9-2.048-42.436c1.249-17.83,3.219-49.456,3.219-49.456l-6.178-64.917-.547-20.91Z" transform="translate(-137.143 -82.879)" fill="#263238"/>
        <path id="Trazado_158194" data-name="Trazado 158194" d="M231.06,253.109l-28.936-1.189L191.27,415.973l15.687,3.384,1.1-4.121,22.429-62.47a35.629,35.629,0,0,0,2.082-12.711l-1.562-86Z" transform="translate(-140.934 -83.111)" fill="#263238"/>
        <path id="Trazado_158195" data-name="Trazado 158195" d="M210.05,273.348a9.32,9.32,0,0,0-.043,1.189c-.026,1.085-.061,2.629-.1,4.6-.052,3.991-.226,9.77-.46,16.9-.5,14.264-1.544,33.959-3.236,55.65s-3.618,41.334-4.98,55.529c-.677,7.08-1.223,12.815-1.605,16.815-.182,1.97-.312,3.5-.416,4.572-.035.5-.087.9-.087,1.189a1.781,1.781,0,0,0,0,.408,2.477,2.477,0,0,0,.061-.4c.035-.312.087-.685.147-1.18.113-1.093.286-2.612.495-4.564.4-4,1-9.726,1.735-16.8,1.458-14.2,3.4-33.829,5.128-55.529s2.681-41.412,3.1-55.685c.191-7.132.3-12.911.3-16.9v-5.8a2.134,2.134,0,0,0,0-.408A2.464,2.464,0,0,0,210.05,273.348Z" transform="translate(-141.971 -85.893)" fill="#455a64"/>
        <path id="Trazado_158196" data-name="Trazado 158196" d="M211.55,258.68h-.008a1.386,1.386,0,1,0,.008,0Z" transform="translate(-143.445 -84.005)" fill="#455a64"/>
        <path id="Trazado_158197" data-name="Trazado 158197" d="M235.009,267.551a24.709,24.709,0,0,1-3.236-5.032,25.1,25.1,0,0,1-1.9-5.683c-.3-1.5-.382-2.455-.46-2.455a8.248,8.248,0,0,0,.121,2.516,20.634,20.634,0,0,0,1.8,5.831,20.881,20.881,0,0,0,3.419,5.05,8.551,8.551,0,0,0,1.883,1.675C236.693,269.39,235.99,268.731,235.009,267.551Z" transform="translate(-145.977 -83.436)" fill="#455a64"/>
        <path id="Trazado_158198" data-name="Trazado 158198" d="M181.842,259.725a17.247,17.247,0,0,1-12.468,10.568c-2.143.469-3.514.416-3.514.512a3.522,3.522,0,0,0,.963.078,14.972,14.972,0,0,0,2.6-.252,16.651,16.651,0,0,0,12.728-10.776,14.45,14.45,0,0,0,.668-2.542,3.213,3.213,0,0,0,.087-.963C182.822,256.333,182.64,257.695,181.842,259.725Z" transform="translate(-137.571 -83.697)" fill="#455a64"/>
        <path id="Trazado_158199" data-name="Trazado 158199" d="M237.648,271.727c.165,10.186.191,18.446.069,18.446s-.356-8.251-.521-18.437-.2-18.446-.078-18.446S237.483,261.541,237.648,271.727Z" transform="translate(-146.993 -83.292)" fill="#455a64"/>
        <path id="Trazado_158200" data-name="Trazado 158200" d="M162.9,266.135c-.165-1.787-.321-4.225-.382-6.941s-.009-5.206.069-6.941a18.1,18.1,0,0,1,.252-2.863,19.356,19.356,0,0,1,.069,2.872c0,1.8,0,4.217.061,6.941s.165,5.206.252,6.941a21.168,21.168,0,0,1,.061,2.863A15.257,15.257,0,0,1,162.9,266.135Z" transform="translate(-137.125 -82.776)" fill="#455a64"/>
        <path id="Trazado_158201" data-name="Trazado 158201" d="M303.329,119.683l-3.67,3.991-2.369-1.952,6.785-7.644s1.345-.495,1.735.347-.477,2.707-.477,2.707l-1.735,2.282" transform="translate(-154.967 -64.847)" fill="#fff"/>
        <path id="Trazado_158202" data-name="Trazado 158202" d="M259,152.643l7.123,10.151s14.273-15.93,15.8-17.709l5.11-6.073,5.414-4.642c1.215-1.015,2.36-4,2.49-4.486s1.735-3.271,1.735-3.271l.295-2.256c.26-1.753,2.169-3.644,1.232-4.581s-3.375,1.024-4.243,2.6a50.1,50.1,0,0,1-2.985,4.338,3.465,3.465,0,0,1-1.024-1.475,10.255,10.255,0,0,1-.1-3.557l1.111-3.384a18.775,18.775,0,0,0,3.783.486,3.645,3.645,0,0,0,2.924-1.8l-4.217-2.048a35.428,35.428,0,0,0-5.822.191c-1.423.356-2.039,3.471-2.039,3.471l-1.865.347c-.685.39-2.551,4.52-2.6,5.293l-2.1,7.253a5.1,5.1,0,0,1-2.6,3.722c-1.3.521-2.1,2.6-2.1,2.6l-13.7,11.149Z" transform="translate(-149.899 -64.975)" fill="#ffbe9d"/>
        <path id="Trazado_158203" data-name="Trazado 158203" d="M276.67,146.092l-3.974,9.544-24.52,35.07-18.758,7.011L204.04,138.274s8.676-5.666,11.73-2.6l13.665,8.72,8.85,17.778s9.24-4.946,11.514-7.687,12.529-10.594,12.529-10.594,4.061-3.557,4.217-4.1Z" transform="translate(-142.624 -67.604)" fill="#e0e0e0"/>
        <path id="Trazado_158204" data-name="Trazado 158204" d="M208.086,126.875l1.163,6.49,5.822,4.078s6.637,14.958,9.544,30.107c2.178,11.409,3.627,42.332,3.471,55.8-.017,1.909,2.3,4.911,2.16,7.809a7.6,7.6,0,0,1-3.687,6.368l-64.943-3.644-3.34-8.937,2.8-33.222s-6.993-54.679-6.021-56.232,23.877-13.11,23.877-13.11l3.609-5.11Z" transform="translate(-136.128 -65.288)" fill="#e0e0e0"/>
        <g id="Grupo_108310" data-name="Grupo 108310" transform="translate(22.728 136.156)" opacity="0.3">
          <path id="Trazado_158205" data-name="Trazado 158205" d="M159.841,232.761a2.8,2.8,0,0,0,1.822.677,31.571,31.571,0,0,0,15.9-2.386c2.291-.989,4.46-2.247,6.828-3.019a35.69,35.69,0,0,1,6.768-1.275l9.18-1.119c1.371-.165,2.837-.33,3.974.469s1.562,2.186,2.178,3.4c1.518,2.985,4.954,5.778,8.286,6.073a41.049,41.049,0,0,0-1.631-12.529c-1.3-3.887-4.251-7.479-8.243-8.486a15.06,15.06,0,0,0-7.514.443c-11.843,3.176-21.847,11.783-33.916,13.882a6.938,6.938,0,0,0-3.1,1.015A2.048,2.048,0,0,0,159.841,232.761Z" transform="translate(-159.451 -214.285)"/>
        </g>
        <g id="Grupo_108311" data-name="Grupo 108311" transform="translate(61.65 67.851)" opacity="0.3">
          <path id="Trazado_158206" data-name="Trazado 158206" d="M204.31,135.56a233.6,233.6,0,0,1,6.126,54.661l4.069.529c.156.347-.156-.338,0,0-.842-12.251-1.2-23.47-2.065-35.721a44.632,44.632,0,0,0-1.649-10.854A15.145,15.145,0,0,0,204.31,135.56Z" transform="translate(-204.31 -135.56)"/>
        </g>
        <path id="Trazado_158207" data-name="Trazado 158207" d="M209.19,144.433l6.663,77.072,5.5,4.729,5.674-7.141-1.154-28.3s-1.267-22.047-3.106-27.764-8.112-19.227-8.112-19.227Z" transform="translate(-143.306 -68.8)" fill="#75b62f"/>
        <path id="Trazado_158208" data-name="Trazado 158208" d="M213.382,183.173c-1.406-21.266-2.395-38.523-2.273-38.523s1.319,17.231,2.724,38.5,2.395,38.515,2.273,38.515S214.787,204.439,213.382,183.173Z" transform="translate(-143.558 -68.912)" fill="#263238"/>
        <path id="Trazado_158209" data-name="Trazado 158209" d="M164.321,174.954,155.4,194.519l7.887,7.722,10.143,2.386,2.6,13.457S163.982,222,157.978,222s-19.548-8.6-21.778-10.516-3.445-8.928-2.75-14.064,8.06-38.575,10.29-47.156a19.722,19.722,0,0,1,8.442-11.991C160.79,140,164.321,174.954,164.321,174.954Z" transform="translate(-133.255 -68.068)" fill="#e0e0e0"/>
        <path id="Trazado_158210" data-name="Trazado 158210" d="M142.178,205.808a9.719,9.719,0,0,1,1.18-1.345,11.492,11.492,0,0,1,5.154-2.837,10.205,10.205,0,0,1,5.865.321,11.4,11.4,0,0,1,1.64.72c.364.208.573.3.538.373s-.859-.373-2.273-.79a10.625,10.625,0,0,0-5.657-.182,12.341,12.341,0,0,0-5.05,2.6c-1.137.972-1.675,1.735-1.735,1.683C141.813,206.338,141.926,206.129,142.178,205.808Z" transform="translate(-134.391 -76.416)" fill="#263238"/>
        <path id="Trazado_158211" data-name="Trazado 158211" d="M167.88,229.668a10.482,10.482,0,0,1-1.18-1.657,13.016,13.016,0,0,1-.1-12.928,11.491,11.491,0,0,1,1.154-1.683c.3-.364.451-.564.521-.521s-.633.85-1.4,2.351a13.64,13.64,0,0,0,.1,12.624c.79,1.466,1.5,2.282,1.432,2.334C168.392,230.206,168.193,230.032,167.88,229.668Z" transform="translate(-137.448 -77.942)" fill="#263238"/>
        <path id="Trazado_158212" data-name="Trazado 158212" d="M208.482,131.38l-4.642,4.061,4.8,7.635,5.423-.642,1.553-4.061-5.067-6.594Z" transform="translate(-142.598 -67.156)" fill="#75b62f"/>
        <path id="Trazado_158213" data-name="Trazado 158213" d="M145.7,195.374a7.08,7.08,0,0,1,1.562-.1,10.05,10.05,0,0,1,2.3.338,11.662,11.662,0,0,1,2.6,1.093,12.238,12.238,0,0,1,3.792,3.471,5.986,5.986,0,0,1,1.015,1.865,19.45,19.45,0,0,1-1.267-1.666,13.77,13.77,0,0,0-3.766-3.262,13.228,13.228,0,0,0-2.516-1.085,10.882,10.882,0,0,0-2.2-.416c-1.284-.087-2.1,0-2.1-.087A1.635,1.635,0,0,1,145.7,195.374Z" transform="translate(-134.826 -75.612)" fill="#263238"/>
        <path id="Trazado_158214" data-name="Trazado 158214" d="M158.369,139.723a9.176,9.176,0,0,1,1.588.677,13.37,13.37,0,0,1,6.759,8.807,8.672,8.672,0,0,1,.234,1.735,1.893,1.893,0,0,1,0,.633c-.087.009-.148-.885-.529-2.265a14.63,14.63,0,0,0-6.6-8.607c-1.232-.72-2.048-1.015-2.048-1.093A2.014,2.014,0,0,1,158.369,139.723Z" transform="translate(-136.5 -68.245)" fill="#263238"/>
        <path id="Trazado_158215" data-name="Trazado 158215" d="M184.5,125.28l2.273,2.933c1.9,2.49,4.5,5.952,7.358,9.787l.928,1.249h-.33c3.419-2.82,6.473-5.31,8.676-7.089l2.6-2.074a6.189,6.189,0,0,1,.989-.711,6.505,6.505,0,0,1-.868.868l-2.49,2.178c-2.16,1.839-5.171,4.373-8.572,7.193l-.191.156-.139-.191-.928-1.249c-2.855-3.792-5.414-7.323-7.245-9.865l-2.16-3.019a8.359,8.359,0,0,1-.738-1.145A7.871,7.871,0,0,1,184.5,125.28Z" transform="translate(-139.928 -66.219)" fill="#263238"/>
        <path id="Trazado_158216" data-name="Trazado 158216" d="M172.054,169.285l-.486,1.171-1.865,4.286c-1.588,3.609-3.826,8.59-6.316,14.073l-4.494,9.822v-.217c2.212,2.429,4.269,4.277,5.6,5.666.668.694,1.189,1.249,1.536,1.64a5.039,5.039,0,0,1,.495.616,3.771,3.771,0,0,1-.59-.538l-1.605-1.553c-1.388-1.336-3.462-3.141-5.726-5.562l-.1-.1.061-.121c1.293-2.907,2.82-6.247,4.442-9.848,2.49-5.483,4.763-10.438,6.438-14.012l2-4.225.564-1.137a2.961,2.961,0,0,1,.226-.39A1.489,1.489,0,0,1,172.054,169.285Z" transform="translate(-136.598 -72.117)" fill="#263238"/>
        <path id="Trazado_158217" data-name="Trazado 158217" d="M137.665,222.61a45.2,45.2,0,0,0,5.136,3.184c2.239,1.241,4.954,2.629,8.017,4.078a20.2,20.2,0,0,0,10.611,2.117,13.885,13.885,0,0,0,4.338-1.006h0l10.759-2.881-.139.217c-.677-3.7-1.249-6.785-1.666-9.006-.174-1.05-.321-1.891-.434-2.525a5.221,5.221,0,0,1-.113-.868,6.372,6.372,0,0,1,.226.868c.139.625.312,1.458.538,2.5.451,2.212,1.076,5.293,1.822,8.98v.174l-.174.043-10.741,2.941h.043a14.351,14.351,0,0,1-4.5,1.05,20.352,20.352,0,0,1-10.75-2.273c-3.054-1.475-5.761-2.889-7.991-4.165a40.015,40.015,0,0,1-5.093-3.332c-.286-.208-.512-.443-.72-.625a3.212,3.212,0,0,1-.486-.5,2.1,2.1,0,0,1-.356-.451A19.136,19.136,0,0,0,137.665,222.61Z" transform="translate(-133.617 -78.346)" fill="#263238"/>
        <path id="Trazado_158218" data-name="Trazado 158218" d="M230.819,152.888l.312,1.119c.26.972.616,2.395,1.024,4.13.807,3.471,1.77,8.329,2.594,13.761s1.275,10.386,1.466,13.969c.1,1.8.156,3.254.156,4.26v1.154a1.236,1.236,0,0,1,0,.408,1.411,1.411,0,0,1-.061-.408,11.323,11.323,0,0,1-.087-1.154c-.052-1-.156-2.447-.3-4.234-.269-3.575-.824-8.512-1.6-13.926s-1.779-10.316-2.507-13.787c-.347-1.7-.642-3.106-.868-4.165-.087-.442-.165-.816-.226-1.128a1.2,1.2,0,0,1-.052-.408A1.472,1.472,0,0,1,230.819,152.888Z" transform="translate(-146.15 -69.949)" fill="#263238"/>
        <path id="Trazado_158219" data-name="Trazado 158219" d="M212.156,132.1c.911,1.2,2.134,2.872,3.471,4.729.711,1.024,1.4,2,2.013,2.863l-.364.156c-.234-1.4-.425-2.551-.538-3.419a4.914,4.914,0,0,1-.113-1.327,5.238,5.238,0,0,1,.356,1.284c.182.79.425,2,.694,3.392l.182.868-.547-.746-2.056-2.837c-1.327-1.865-2.481-3.566-3.349-4.815a13.626,13.626,0,0,1-1.284-2.065A12.621,12.621,0,0,1,212.156,132.1Z" transform="translate(-143.495 -66.997)" fill="#263238"/>
        <path id="Trazado_158220" data-name="Trazado 158220" d="M208.358,134.278a25.229,25.229,0,0,1,2.924,2.646c1.067,1.145,1.987,2.143,2.664,2.881a6.686,6.686,0,0,1,1.032,1.258,26.008,26.008,0,0,1-4.026-3.826c-2.082-2.23-4.043-3.731-3.982-3.826A4.732,4.732,0,0,1,208.358,134.278Z" transform="translate(-143.012 -67.425)" fill="#263238"/>
        <path id="Trazado_158221" data-name="Trazado 158221" d="M245.616,179.191c-.078-1.388-.226-3.3-.529-5.405s-.694-3.991-1.006-5.345a15.771,15.771,0,0,1-.46-2.221,8.852,8.852,0,0,1,.772,2.143,40.676,40.676,0,0,1,1.544,10.819,9.759,9.759,0,0,1-.139,2.265A13.015,13.015,0,0,1,245.616,179.191Z" transform="translate(-147.863 -71.767)" fill="#263238"/>
        <path id="Trazado_158222" data-name="Trazado 158222" d="M243.35,172.266a58.788,58.788,0,0,1-.078-5.926,27.529,27.529,0,0,1,.529,5.917,28.011,28.011,0,0,1-.286,5.935A54.711,54.711,0,0,1,243.35,172.266Z" transform="translate(-147.81 -71.783)" fill="#263238"/>
        <path id="Trazado_158223" data-name="Trazado 158223" d="M271.111,148.127c1.163.92,2.681,2.221,4.338,3.7l4.208,3.783a13.243,13.243,0,0,1,1.683,1.64,10.793,10.793,0,0,1-1.891-1.4c-1.163-.92-2.733-2.256-4.338-3.687s-3.011-2.716-4.208-3.792a13.241,13.241,0,0,1-1.683-1.64A11.638,11.638,0,0,1,271.111,148.127Z" transform="translate(-151.251 -69.188)" fill="#263238"/>
        <path id="Trazado_158224" data-name="Trazado 158224" d="M207.733,196.857c-5.588,1.119-6.8,3.861-6.8,3.861.521-8.538-30.072-11.088-30.072-11.088L163.64,195.7l35.868,12.2,38.072-6.672h0c-.182-1.935-3.93-4.035-4.442-4.338C233.138,196.892,213.321,195.738,207.733,196.857Z" transform="translate(-137.277 -74.866)" fill="#fff"/>
        <path id="Trazado_158225" data-name="Trazado 158225" d="M204.268,202.567s-.868,4.052-4.13,3.861c-3.783-.191-4.651-4.338-4.651-4.338L162.24,195.6l4.92,14.212,18.784,6.16h46.532l5.57-13.5.087-.521Z" transform="translate(-137.092 -75.656)" fill="#75b62f"/>
        <path id="Trazado_158226" data-name="Trazado 158226" d="M237.461,201.932l-1.787.052-6.8.174-24.615.573.174-.139a6.58,6.58,0,0,1-1.406,2.785,3.834,3.834,0,0,1-1.345.963,3.474,3.474,0,0,1-1.666.252,4.734,4.734,0,0,1-3.063-1.423,6.766,6.766,0,0,1-1.666-3.08l.156.156-33.387-6.533.252-.295,2.6,7.418c.79,2.291,1.579,4.555,2.351,6.794l-.139-.139,18.776,6.169h-.087l46.566.087-.113.078c3.306-7.922,5.31-12.694,5.674-13.448h0a4.4,4.4,0,0,0,.1-.521s0,.043-.069.529h0c-.252.79-2.212,5.588-5.457,13.535V216h-.087l-46.566.1h0l-18.784-6.143h-.1v-.113c-.781-2.239-1.562-4.5-2.36-6.794-.911-2.542-1.779-5.05-2.6-7.418l-.121-.364.382.069,33.317,6.525h.121v.13a6.418,6.418,0,0,0,1.553,2.889,4.338,4.338,0,0,0,2.811,1.319,3.22,3.22,0,0,0,2.707-1.085,6.235,6.235,0,0,0,1.336-2.6v-.139h.156l24.736-.373,6.759-.087h2.317Z" transform="translate(-137.045 -75.611)" fill="#263238"/>
        <path id="Trazado_158227" data-name="Trazado 158227" d="M210.177,208.375a41.133,41.133,0,0,1,.738-5.145,23.612,23.612,0,0,1-.286,5.206,23.307,23.307,0,0,1-1,5.11A42.2,42.2,0,0,1,210.177,208.375Z" transform="translate(-143.364 -76.666)" fill="#263238"/>
        <path id="Trazado_158228" data-name="Trazado 158228" d="M200.648,203.26a51.615,51.615,0,0,1-.191,5.206c-.13,2.863-.13,5.206-.26,5.206A32.979,32.979,0,0,1,200.648,203.26Z" transform="translate(-142.087 -76.67)" fill="#263238"/>
        <g id="Grupo_108312" data-name="Grupo 108312" transform="translate(41.642 130.947)" opacity="0.3">
          <path id="Trazado_158229" data-name="Trazado 158229" d="M186.838,217.772l-5.588-1.44a6.872,6.872,0,0,0,1.874-5.987c-.113-.668-.269-1.51.286-1.9a1.415,1.415,0,0,1,1.145-.078,6.838,6.838,0,0,1,3.783,2.438,13.823,13.823,0,0,0,1.484,1.9,5.04,5.04,0,0,0,2.473,1.041,15.25,15.25,0,0,0,7.054-.633c2.273-.685,4.442-1.683,6.663-2.551.972-.382,2.256-.677,2.907.165s.035,2.03-.581,2.9c1.171-.564,2.36-1.1,3.566-1.588a2.141,2.141,0,0,1,1.4-.226,1.413,1.413,0,0,1,.147.08,1.518,1.518,0,0,1,.5,2.089,7.877,7.877,0,0,1-2.6,2.273Z" transform="translate(-181.25 -208.281)"/>
        </g>
        <path id="Trazado_158230" data-name="Trazado 158230" d="M179.369,215.777a9.646,9.646,0,0,0-1.249,4.642c0,2.646,2.724,4.182,2.724,4.182l15.522-1.848,6.681-2.412,10.976-7.444-.286-.607c-1.883-1.345-6.221,1.258-6.221,1.258l2.438-2.967c-3.74-2-9.761,3.566-9.761,3.566l-9.709.668s-2.993.4-3.566-.33.121-2.074,0-2.829a5.1,5.1,0,0,0-2.36-3.557c-1.631-.816-2.967,0-2.967.772s.894,1.458.772,2.2-.694.98-1.631,1.917a5.2,5.2,0,0,0-1.18,2.56" transform="translate(-139.193 -77.265)" fill="#ffbe9d"/>
        <path id="Trazado_158231" data-name="Trazado 158231" d="M199.906,219.443c.816-.148,1.8-.312,2.846-.6a9.276,9.276,0,0,0,1.579-.564,12.579,12.579,0,0,0,1.527-.98,39.3,39.3,0,0,0,4.755-4.338q.875-1.022,1.848-1.952a11.2,11.2,0,0,1-1.614,2.169,31.634,31.634,0,0,1-4.72,4.512,11.265,11.265,0,0,1-1.605,1.006,7.9,7.9,0,0,1-1.666.573,24.671,24.671,0,0,1-2.9.512,13.776,13.776,0,0,1-2.7.182A19.758,19.758,0,0,1,199.906,219.443Z" transform="translate(-141.727 -77.696)" fill="#263238"/>
        <path id="Trazado_158232" data-name="Trazado 158232" d="M214.5,143.963a18.167,18.167,0,0,1-5.692.5A18.141,18.141,0,0,1,214.5,143.963Z" transform="translate(-143.256 -68.816)" fill="#263238"/>
        <path id="Trazado_158233" data-name="Trazado 158233" d="M162.919,85.749a4.853,4.853,0,0,0,1.857,3.2,2.473,2.473,0,0,0,3.384-.512c.017,2.126,2.586,3.488,4.668,3.045s3.67-2.082,5.032-3.722a1.651,1.651,0,0,1,.685-.564,4.711,4.711,0,0,1,.989,0c.98-.1,1.406-1.275,1.492-2.256.252-2.785-.581-4.225-2.2-6.507l.061.451A8.676,8.676,0,0,0,170.008,71a5.2,5.2,0,0,0-3.939,1.657,2.949,2.949,0,0,0,.121,3.974,2.6,2.6,0,1,0-1.466,4.711C163.032,81.8,162.581,84.014,162.919,85.749Z" transform="translate(-137.068 -59.164)" fill="#e0e0e0"/>
        <path id="Trazado_158234" data-name="Trazado 158234" d="M181.269,101.559c-.191,2.933,6.178,8.086,9.076,8.676L183.924,87a2.811,2.811,0,0,0-2.369,2.16,6.817,6.817,0,0,0,.2,3.41,13.891,13.891,0,0,1,.633,3.392C182.389,97.854,181.391,99.624,181.269,101.559Z" transform="translate(-139.61 -61.282)" fill="#e0e0e0"/>
        <path id="Trazado_158235" data-name="Trazado 158235" d="M207.563,120.925l4.277-1.553v-4.4s10.082-1.171,10.594-11.184c.243-4.8-.061-14.837-.443-23.886A18.681,18.681,0,0,0,204.04,62.03h-.963c-10.455.208-16.112,9.214-15.618,19.626l-.2,28.485Z" transform="translate(-140.403 -57.977)" fill="#ffbe9d"/>
        <path id="Trazado_158236" data-name="Trazado 158236" d="M213.511,125.041c-10.03.521-12.841-6.811-12.841-6.811a23.331,23.331,0,0,0,12.919,4.217Z" transform="translate(-142.178 -65.415)" fill="#eb996e"/>
        <path id="Trazado_158237" data-name="Trazado 158237" d="M223.924,91.26a1.363,1.363,0,0,0-1.422-1.3,1.423,1.423,0,0,0-1.432,1.388v.045a1.363,1.363,0,0,0,1.422,1.3,1.423,1.423,0,0,0,1.432-1.388Z" transform="translate(-144.878 -61.673)" fill="#263238"/>
        <path id="Trazado_158238" data-name="Trazado 158238" d="M223.582,85.636a3.733,3.733,0,0,0-2.2-.807,3.9,3.9,0,0,0-2.3.616c-.5.338-.79.564-.625.755s1.327-.529,2.863-.477,2.594.894,2.776.72C224.189,86.356,224.042,86.018,223.582,85.636Z" transform="translate(-144.527 -60.994)" fill="#263238"/>
        <path id="Trazado_158239" data-name="Trazado 158239" d="M207.714,91.69a1.363,1.363,0,0,0-1.422-1.3,1.432,1.432,0,0,0-1.432,1.4c0,.029,0,.059,0,.088a1.363,1.363,0,0,0,1.422,1.3,1.432,1.432,0,0,0,1.432-1.388C207.715,91.755,207.715,91.722,207.714,91.69Z" transform="translate(-142.733 -61.73)" fill="#263238"/>
        <path id="Trazado_158240" data-name="Trazado 158240" d="M205.645,85.494a3.821,3.821,0,0,0-2.273-.555,3.938,3.938,0,0,0-2.221.868c-.46.39-.711.642-.529.816s1.249-.668,2.785-.781,2.681.607,2.837.408C206.33,86.162,206.139,85.858,205.645,85.494Z" transform="translate(-142.164 -61.008)" fill="#263238"/>
        <path id="Trazado_158241" data-name="Trazado 158241" d="M215.579,99.434a2.821,2.821,0,0,0,.677-.069,1.008,1.008,0,0,0,.668-.555,2.312,2.312,0,0,0-.147-1.544c-.321-.972-.651-1.987-1-3.054-1.449-4.33-2.768-7.791-2.941-7.731s.859,3.592,2.308,7.93c.364,1.067.711,2.074,1.05,3.037a2.009,2.009,0,0,1,.217,1.18c-.1.26-.469.356-.868.356a10.316,10.316,0,0,0-2.516.356A10.42,10.42,0,0,0,215.579,99.434Z" transform="translate(-143.786 -61.213)" fill="#263238"/>
        <path id="Trazado_158242" data-name="Trazado 158242" d="M205.717,78.892a5.82,5.82,0,0,0-2.724-.425,5.914,5.914,0,0,0-2.6.807c-.6.382-.868.764-.772.954.226.382,1.744-.043,3.523-.2s3.34.1,3.514-.3C206.723,79.525,206.4,79.187,205.717,78.892Z" transform="translate(-142.036 -60.15)" fill="#e0e0e0"/>
        <path id="Trazado_158243" data-name="Trazado 158243" d="M223.47,81.689a3.765,3.765,0,0,0-4.191-.286c-.486.347-.668.685-.564.868.243.382,1.336.165,2.6.234s2.317.469,2.6.13C224.043,82.47,223.913,82.106,223.47,81.689Z" transform="translate(-144.563 -60.474)" fill="#e0e0e0"/>
        <path id="Trazado_158244" data-name="Trazado 158244" d="M207.469,103.413a3.627,3.627,0,0,0,1.215,2.438,4.183,4.183,0,0,0,2.655,1.041c.746.009,1.171-.069,1.163-.3s-1.787-.121-3.176-1.362-1.327-2.907-1.579-2.907C207.634,102.311,207.435,102.719,207.469,103.413Z" transform="translate(-143.078 -63.31)" fill="#263238"/>
        <path id="Trazado_158245" data-name="Trazado 158245" d="M180.972,86.356l1.631,2.881,3.34,5.865c1.753-.3,3.644-3.106,4.139-7.444.555-4.841,1-10.464.13-15.253a1.164,1.164,0,0,1,.043-.868,1.244,1.244,0,0,1,1.1-.425A8.807,8.807,0,0,0,199,64.9a6.318,6.318,0,0,0,6.837.729,1.468,1.468,0,0,1,.486-.191c.434-.035.764.347,1.032.685a9.754,9.754,0,0,0,5.405,3.34,4.926,4.926,0,0,1,1.362.408,4.707,4.707,0,0,1,1.2,1.111,11.266,11.266,0,0,0,2.1,1.8,2.6,2.6,0,0,0,1.735.581c1.033-.121,1.631-1.293,1.735-2.343.26-2.6.026-4.659-3.063-6.073a2,2,0,0,0-.685-2.351c-.442-.338-1.423-.295-1.935-.495a13.858,13.858,0,0,1-2.169-1.319,14.479,14.479,0,0,0-7.392-2.221,6.053,6.053,0,0,1-1.258-.1,7.21,7.21,0,0,1-1.189-.425,10.082,10.082,0,0,0-10.212,1.735,7.342,7.342,0,0,1-1.249,1.006,9.791,9.791,0,0,1-1.657.564c-2.282.737-3.965,2.638-5.518,4.46-1.3,1.527-2.681,3.488-1.978,5.371a1.729,1.729,0,0,1,.208.868,1.6,1.6,0,0,1-.581.807,4.416,4.416,0,0,0-.616,5.353c-.036.015-.072.03-.107.048a1.657,1.657,0,0,0-.761,2.217,2,2,0,0,1,.356.72,1.551,1.551,0,0,1-.39.92A3.6,3.6,0,0,0,180.972,86.356Z" transform="translate(-139.46 -57.358)" fill="#e0e0e0"/>
        <path id="Trazado_158246" data-name="Trazado 158246" d="M211.861,59.26a.868.868,0,0,1,.286.79.39.39,0,0,1-.252.312.314.314,0,0,1-.356,0l-.382.408a2.863,2.863,0,0,1,.642,3.471,6.354,6.354,0,0,1-.7,1.05,1.99,1.99,0,0,0,1.05-.868,3,3,0,0,0,.052-3.245,3.215,3.215,0,0,0-.677-.807l-.382.408a.868.868,0,0,0,1.484-.59,1.214,1.214,0,0,0-.538-1.145c-.59-.373-1.006-.321-1.006-.278C211.045,58.843,211.444,58.965,211.861,59.26Z" transform="translate(-143.556 -57.541)" fill="#fff"/>
        <path id="Trazado_158247" data-name="Trazado 158247" d="M223.439,66.8a.669.669,0,0,1-.269.382c-.121.121-.321.069-.321,0l-.295-1.362-.174,1.449a1.364,1.364,0,0,1-.868,1.111,1.33,1.33,0,0,1-.685,0l-.338-.069v.33a1.517,1.517,0,0,1-1.31,1.926c-.061.052.295.3.868.052a1.493,1.493,0,0,0,.72-.737,3.147,3.147,0,0,0,.26-1.215l-.338.26a1.89,1.89,0,0,0,.98-.043,1.8,1.8,0,0,0,1.232-1.614l-.469.1a.648.648,0,0,0,.1.122.659.659,0,0,0,.933-.018.916.916,0,0,0,.286-.659c.009-.425-.286-.555-.286-.5C223.43,66.341,223.543,66.5,223.439,66.8Z" transform="translate(-144.627 -58.478)" fill="#fff"/>
        <path id="Trazado_158248" data-name="Trazado 158248" d="M187.073,103.026c-.009.2-6.906,1.562-6.863-5.293s6.681-4.633,6.854-4.555C187.064,93.178,187.082,102.826,187.073,103.026Z" transform="translate(-139.47 -62.046)" fill="#ffbe9d"/>
        <path id="Trazado_158249" data-name="Trazado 158249" d="M185.028,101.039a1.32,1.32,0,0,1-1.093.174,3.039,3.039,0,0,1-1.735-2.976,3.988,3.988,0,0,1,.425-1.909,1.683,1.683,0,0,1,1.258-1.059.869.869,0,0,1,.659.182.755.755,0,0,1,.26.434c.052.278-.061.416-.1.4s.009-.156-.078-.347a.616.616,0,0,0-.7-.33,1.362,1.362,0,0,0-.868.911,3.892,3.892,0,0,0-.347,1.735,2.965,2.965,0,0,0,1.354,2.664,1.206,1.206,0,0,0,.868,0,1.827,1.827,0,0,0,.33-.174C185.28,100.761,185.245,100.908,185.028,101.039Z" transform="translate(-139.733 -62.375)" fill="#eb996e"/>
        <path id="Trazado_158250" data-name="Trazado 158250" d="M179.47,83.292c-.2,2.794.911,4.9.668,5.024-.061.052-.521-.425-.928-1.293a8.415,8.415,0,0,1,.46-7.453c.512-.85.989-1.241,1.076-1.171C180.971,78.546,179.669,80.5,179.47,83.292Z" transform="translate(-139.251 -60.142)" fill="#75b62f"/>
        <path id="Trazado_158251" data-name="Trazado 158251" d="M204.707,101.459c.6-.737,1.423-.9,1.466-.737s-.59.416-1.119,1.032-.694,1.284-.824,1.284S204.109,102.2,204.707,101.459Z" transform="translate(-142.641 -63.09)" fill="#eb996e"/>
        <path id="Trazado_158252" data-name="Trazado 158252" d="M198.051,89.563c.816.243,1.51.147,1.562.295s-.729.416-1.683.148-1.458-.928-1.371-1.006C196.619,88.929,197.235,89.32,198.051,89.563Z" transform="translate(-141.633 -61.545)" fill="#eb996e"/>
        <path id="Trazado_158253" data-name="Trazado 158253" d="M197.278,90.627c.816-.2,1.475-.009,1.466.113s-.625.156-1.354.33-1.284.442-1.362.338S196.463,90.826,197.278,90.627Z" transform="translate(-141.563 -61.75)" fill="#eb996e"/>
        <path id="Trazado_158254" data-name="Trazado 158254" d="M225.626,91.345l.078-.061a4.235,4.235,0,0,1,.434-.156c.364-.087.7-.113.746,0s-.217.338-.616.46a1.1,1.1,0,0,1-.573.052.249.249,0,0,1-.2-.148c-.061-.113,0-.113,0-.113A1.1,1.1,0,0,0,225.626,91.345Z" transform="translate(-145.461 -61.818)" fill="#eb996e"/>
        <path id="Trazado_158255" data-name="Trazado 158255" d="M187.456,67.961a11.6,11.6,0,0,0,10.117-.59c1.18-.659,1.813-1.232,1.857-1.171a5.514,5.514,0,0,1-1.735,1.449,10.733,10.733,0,0,1-10.412.564,5.66,5.66,0,0,1-1.822-1.249C185.5,66.893,186.2,67.4,187.456,67.961Z" transform="translate(-140.165 -58.528)" fill="#263238"/>
        <path id="Trazado_158256" data-name="Trazado 158256" d="M184.939,72.306a8.784,8.784,0,0,0,2.455.868,9,9,0,0,0,3.15-.061,15.813,15.813,0,0,0,5.31-2.282,22.257,22.257,0,0,1,2.065-1.3,9.005,9.005,0,0,1-1.891,1.562,13.964,13.964,0,0,1-5.4,2.464,9.094,9.094,0,0,1-3.314,0A8.474,8.474,0,0,1,184.8,72.6a8.071,8.071,0,0,1-2.03-1.38C182.8,71.161,183.594,71.673,184.939,72.306Z" transform="translate(-139.809 -58.969)" fill="#263238"/>
        <path id="Trazado_158257" data-name="Trazado 158257" d="M165.034,87.984a2.751,2.751,0,0,1,1.536-1.406,3,3,0,0,1,2.6.243l-.338.191a2.756,2.756,0,0,1,.4-1.458,3.922,3.922,0,0,1,2.6-1.735,6.023,6.023,0,0,1,2.516.139,7.366,7.366,0,0,1,2.134.8,22.478,22.478,0,0,1-2.2-.486,6.286,6.286,0,0,0-2.369,0,3.58,3.58,0,0,0-2.282,1.527,2.328,2.328,0,0,0-.347,1.215v.408l-.347-.217a2.663,2.663,0,0,0-2.23-.252,2.533,2.533,0,0,0-1.406,1.171,4.072,4.072,0,0,0-.425,1.735A2.133,2.133,0,0,1,165.034,87.984Z" transform="translate(-137.421 -60.851)" fill="#263238"/>
        <g id="Grupo_108313" data-name="Grupo 108313" transform="translate(86.161 88.518)" opacity="0.3">
          <path id="Trazado_158258" data-name="Trazado 158258" d="M232.56,159.38l4.6,33.508A50.41,50.41,0,0,0,232.56,159.38Z" transform="translate(-232.56 -159.38)"/>
        </g>
        <g id="Grupo_108314" data-name="Grupo 108314" transform="translate(4.937 123.069)" opacity="0.3">
          <path id="Trazado_158259" data-name="Trazado 158259" d="M138.958,205.144a1.545,1.545,0,0,0,.442,1.293c.668.529,1.614-.1,2.23-.694A17.021,17.021,0,0,1,148.2,201.4c2.542-.755,5.787.13,7.878,1.388-1.414-2.265-4.737-3.15-7.679-3.471a10.659,10.659,0,0,0-6.073.868A6.022,6.022,0,0,0,138.958,205.144Z" transform="translate(-138.945 -199.202)"/>
        </g>
      </g>
      <g id="freepik--Globe--inject-303" transform="translate(296.799 176.87)">
        <path id="Trazado_158260" data-name="Trazado 158260" d="M339.42,232.507q.078-.6.182-1.2c-.069.4-.13.824-.182,1.2a8.286,8.286,0,0,0-.13,1.137C339.325,233.227,339.368,232.846,339.42,232.507Z" transform="translate(-339.09 -203.251)" fill="#75b62f"/>
        <path id="Trazado_158261" data-name="Trazado 158261" d="M340.541,235.45a1.951,1.951,0,0,1-1.371-.6c.052.772.13,1.544.234,2.3a33.089,33.089,0,0,0,1.3,5.718,32.231,32.231,0,0,0,2.2,5.258,31.6,31.6,0,0,0,2.039,3.366c.243.373.495.729.764,1.085.521.694,1.059,1.371,1.631,2.022a31.4,31.4,0,0,0,2.6,2.672,33.514,33.514,0,0,0,4.234,3.332,33.05,33.05,0,0,0,3.019,1.8h0a34.515,34.515,0,0,0,25.821,2.516,33.827,33.827,0,0,0,7.661-3.349c.026-.061.087-.113.087-.174.746-1.622.79-3.974-.824-4.781a3.8,3.8,0,0,1-.911-.477c-.737-.668-.147-2.056-.868-2.733-.4-.373-1.032-.347-1.536-.564a2.508,2.508,0,0,1-1.119-2.542,15.107,15.107,0,0,0,.286-2.924c-.182-1.5-1.345-3-.677-4.338.755-1.484,2.933-1.241,4.477-1.909,2.143-.937,2.811-3.575,4.208-5.44,1.223-1.657,4.191-3.488,6.429-2.993a2.716,2.716,0,0,1,2.343,2.5h.2c.6-.061,1.232-.017,1.631-.59s.009-1.414.4-1.978a3.232,3.232,0,0,1,.868-.625c.3-.174.512-.607.364-.868s-.521-.312-.711-.555a.537.537,0,0,1,0-.668c.616-.72,1.3.746,1.64,1.093a2.542,2.542,0,0,0,.278.26c-.026-.7-.078-1.414-.147-2.091s-.165-1.345-.278-2h0a9.29,9.29,0,0,1-.607-2.126A3.88,3.88,0,0,0,405,222.913a1.579,1.579,0,0,0-2.23.069,2.334,2.334,0,0,0-.182,1.735c.13.79.252,1.579.382,2.369a1.242,1.242,0,0,1,0,.711c-.234.5-1.067.408-1.388-.043a2.169,2.169,0,0,1-.2-1.605,3.093,3.093,0,0,0,0-1.64c-.547-1.267-2.455-1.033-3.566-1.9a6.013,6.013,0,0,1-1.414-2.126,2.351,2.351,0,0,0-1.952-1.466c-.286.009-.573.1-.868.1a1.145,1.145,0,0,1-.737-1.857,2.218,2.218,0,0,0,.373-.382.7.7,0,0,0-.269-.868,2.042,2.042,0,0,0-.868-.286l-2.186-.338c-.816-.13-1.839-.651-1.735-1.336s1.041-1,1.189-1.675a1.98,1.98,0,0,1,.087-.5c.226-.416.885-.234,1.31,0a1.04,1.04,0,0,1,.121-.235,1.068,1.068,0,0,1,1.484-.277,2.73,2.73,0,0,1,.633,1.5,7.258,7.258,0,0,0,2.369,3.158,1.968,1.968,0,0,0,1.154.633c.443,0,.85-.607.711-.868s-.573-.347-.495-.72.737-.347.868-.7c-.26-1.059-1.484-1.492-2.421-2.056a5.821,5.821,0,0,1-2.473-3.011.755.755,0,0,1,0-.625c.139-.26.5-.3.807-.3.729-.017,1.622.087,1.891.746a8.2,8.2,0,0,1,.121,1.137c.252,1.111,1.8,1.241,2.733,1.9a7.889,7.889,0,0,0,1.059.807,4.123,4.123,0,0,0,1.432.234H401q.452.608.868,1.249c-.286-.425-.538-.746-.868-1.249a13.184,13.184,0,0,0-1.033-1.371c-.442-.529-.85-1.041-1.31-1.536a34.136,34.136,0,0,0-4.3-3.93c-.26-.208-.495-.39-.807-.616s-.625-.46-.946-.677l-.8-.529-.286-.191-.764-.469h0l-.868-.486c-.321-.147-.59-.3-.868-.443h0l-.868-.442-.868-.382c-.33-.156-.659-.3-1.006-.442l-.816-.33h-.052l-.868-.338h0l-.868-.3h0c-.373-.113-.746-.234-1.128-.338l-.685-.191-.7-.174c-.495-.121-1-.226-1.5-.321l-.616-.113-.729-.113a4,4,0,0,0-.72-.1l-.729-.087a2.753,2.753,0,0,0-.7-.061c-.989-.1-2-.139-3.011-.139H372a7.872,7.872,0,0,1-1.1.052l-1.041.078a1.364,1.364,0,0,1-.451.052h-.191c-.521.061-1.041.13-1.553.217l-.373.052h-.052l-.824.147h0q-1.076.225-2.134.495c-.356.1-.711.2-1.059.3s-.694.234-1.041.338-.711.243-1.024.356-.616.234-.92.364l-.79.33-.555.252-.1.043c-.2.087-.443.217-.607.286s-.321.156-.477.234l-.928.486-.226.13c-.139.069-.286.148-.425.234l-.538.321-.529.312c-.173.113-.347.234-.521.338s-.338.217-.512.338c-.694.46-1.371.946-2.022,1.466h0c-.243.191-.477.373-.7.564l-.555.469-.555.495c-.208.191-.373.347-.616.573s-.573.555-.711.694-.286.286-.417.434l-.139.147-.052.052-.495.529-.139.165-.46.521q-.225.251-.416.495l-.364.451c-.174.217-.3.356-.512.659s-.416.581-.616.868l-.469.668c-.243.364-.477.737-.711,1.111a32.538,32.538,0,0,0-2.75,5.536l-.1.234c.174-.321.356-.633.564-.946,1.891-2.967,4.642-5.293,6.724-8.13.677-.92,1.206-1.683,2.412-1.865,1.779-.278,2.681.729,3.939-.946.347-.443.937-.859,1.44-.59-.13.356-.269.711-.4,1.076a.533.533,0,0,0,0,.234c.026.252.408.321.625.182a2.349,2.349,0,0,0,.477-.607,1.785,1.785,0,0,1,.149-.175,1.736,1.736,0,0,1,2.454-.033.98.98,0,0,1,.564-.79c.007.04.016.08.026.119a1.172,1.172,0,0,0,1.44.818c.1-.33-.495-.373-.685-.659s.035-.642.278-.868a3.8,3.8,0,0,1,2.351-.868,3.225,3.225,0,0,0,1.605-.182c.278-.165.469-.425.746-.581a2.092,2.092,0,0,1,1.952.3,3.741,3.741,0,0,1,1.97,1.917c.3.885-.356,2.082-1.293,1.97a2.04,2.04,0,0,0-.72-.078.866.866,0,0,0-.512.816,2.254,2.254,0,0,1-.156,1c-.182.3-.677.451-.868.165a1.822,1.822,0,0,1-.269-1.735,2.291,2.291,0,0,0-.13-1.735c-.356-.486-1.38-.33-1.31.269.043.356.486.6.425.963s-.5.547-.868.547a3.947,3.947,0,0,0-1.1-.061c-.382.087-.642.555-.382.816.443.5,1.614-.356,1.839.269a1.687,1.687,0,0,1,0,.512c.043.521.711.711,1.241.781a3.072,3.072,0,0,0,1.562-.113l.029-.012a.981.981,0,0,0,.509-1.289.628.628,0,0,1,.1-.047.6.6,0,0,1,.77.351,1.673,1.673,0,0,1,.061.972c.564-.13,1.067.338,1.38.807s.633,1.015,1.18,1.18,1.3-.061,1.588.434c.373.642-.7,1.449-.33,2.082.217.364.737.347,1.145.46a1.735,1.735,0,0,1,.72,2.716,2.126,2.126,0,0,1-2.993,0,9.207,9.207,0,0,1-1.163-1.978,1.813,1.813,0,0,0-1.883-1.041,2.29,2.29,0,0,0-.772.477l-1.085.868a1.068,1.068,0,0,0-.46.729c.017.243.208.425.286.651.226.607-.72,1.215-1.31.868l-.016-.013a1.284,1.284,0,0,1-.235-1.8c.564-.764,1.8-1.154,1.8-2.1-.651-.521-1.675.043-2.048.772s-.382,1.6-.7,2.369-1.215,1.449-1.952,1.076l.573-1.978c-.469-.364-1.015.677-1.588.5-.338-.1-.382-.6-.234-.928a4.35,4.35,0,0,0,.477-.963,1.081,1.081,0,0,0-.015-.225,1.1,1.1,0,0,0-1.269-.9,1.683,1.683,0,0,0-1.267,1.38,2.852,2.852,0,0,1-.173.764c-.243.5-.876.651-1.414.868s-1.085.746-.868,1.267c.1.226.338.477.26.685s-.39.373-.39.521.156.252.3.312c.356.139.737.191,1.085.356a.963.963,0,0,1,.633.868c-.043.538-.7.824-.989,1.241s-.243.98-.434,1.458a5.055,5.055,0,0,1-.807,1.171c-.9,1.206-1.111,2.759-1.544,4.191-.2.616-.555,1.362-1.223,1.484a1.966,1.966,0,0,1-1.076-.208,6.507,6.507,0,0,1-2.646-1.553,2.2,2.2,0,0,1-.208-2.811.544.544,0,0,1,.33-.208,1.057,1.057,0,0,1,.5.174,1.457,1.457,0,0,0,1.51-.312,4.318,4.318,0,0,0,.868-1.336c.26-.529.529-1.059.8-1.6a.964.964,0,0,0-1.154.113,6.99,6.99,0,0,0-.79.954,5.051,5.051,0,0,1-3.4,1.588,3.32,3.32,0,0,0-.963.191c-.954.434-1.232,1.831-2.238,2.126a7.2,7.2,0,0,0-.868.191,1.544,1.544,0,0,0-.711,1.059,18.173,18.173,0,0,1-.633,2.36A2.2,2.2,0,0,1,340.541,235.45Z" transform="translate(-339.075 -198.983)" fill="#75b62f"/>
        <path id="Trazado_158262" data-name="Trazado 158262" d="M385.426,207.508l-2.6-.6a1.908,1.908,0,0,1-1.145-.581c-.321-.425-.226-1.024-.443-1.51-.347-.8-1.423-1.085-1.8-1.874-.147-.269-.226-.677-.434-.868s-.512-.234-.738-.4a1,1,0,0,1-.141-.189,1.024,1.024,0,0,1,.375-1.4c1.336-.842,3.8.1,4.954.963,1.449,1.059,2.941,2.343,4.919,2.212a3.891,3.891,0,0,1,1.614,0c.512.191.833.954.39,1.275-.243.174-.59.121-.868.252a1.076,1.076,0,0,0-.312,1.458c.252.477.694.876.989,1.345a2.6,2.6,0,0,1,.373,1.544,1.432,1.432,0,0,1-.469,1c-.616.486-1.544.069-2.065-.521a7.687,7.687,0,0,0-1.562-1.735A4.033,4.033,0,0,0,385.426,207.508Z" transform="translate(-344.213 -199.075)" fill="#75b62f"/>
        <path id="Trazado_158263" data-name="Trazado 158263" d="M358.364,250.337c-.512-1.223-.13-2.672-.616-3.913-.633-1.64-2.525-2.395-3.87-3.523s-1.891-3.731-.217-4.338c.633-.226,1.362-.043,1.987-.286a3.079,3.079,0,0,0,1.5-2.039l2.325-6.438c.469-1.293,1.18-2.794,2.56-2.985a7.707,7.707,0,0,1,2.308.4c2.664.477,7.141-5.943,9.171-1.605.278-1.163,2.169-.72,2.811.312s.764,2.4,1.735,3.124c.7.547,1.831.581,2.438,1.275a3.061,3.061,0,0,1,.547,1.813l.312,3.687a5,5,0,0,1-.347,2.907,1.761,1.761,0,0,1-2.525.677,7.252,7.252,0,0,1-.764-1.137,1.944,1.944,0,0,0-2-.677,3.364,3.364,0,0,0-1.51,1.05c-3.471,3.7-4.711,8.954-4.867,14a7.8,7.8,0,0,1-.373,2.724c-.4,1.006-1.249,1.822-1.492,2.872a12.7,12.7,0,0,1-.364,2.455c-.651,1.388-2.794,1.449-3.974.451a6.491,6.491,0,0,1-1.822-4.113,10.531,10.531,0,0,0-1.249-4.382A15.212,15.212,0,0,1,358.364,250.337Z" transform="translate(-340.855 -202.296)" fill="#75b62f"/>
        <path id="Trazado_158264" data-name="Trazado 158264" d="M354.6,253.455c.495.1.529.278.868.764s.876.972,1.206,1.449c.547.807.052,2.074.781,2.75.147.139.338.234.477.39a.868.868,0,0,1-.182,1.171,1.171,1.171,0,0,1-1.267,0,1.841,1.841,0,0,1-.781-1.05,1.737,1.737,0,0,0-.39-.868c-.416-.356-1.067-.087-1.614-.165C351.353,257.568,352.36,253,354.6,253.455Z" transform="translate(-340.82 -206.177)" fill="#75b62f"/>
        <path id="Trazado_158265" data-name="Trazado 158265" d="M409.282,250.382c-3.184,4.208-4.937,9.249-6.8,14.195a30.622,30.622,0,0,0,2.351-1.978,33.915,33.915,0,0,0,2.412-2.455c.555-.616,1.05-1.241,1.579-1.926s1.024-1.4,1.5-2.134c.382-.59.755-1.2,1.085-1.8a31.7,31.7,0,0,0,2.082-4.425,32.957,32.957,0,0,0,2.169-10.7,2.127,2.127,0,0,0,0-.234,5.367,5.367,0,0,0-1.05.512c-.668.382-1.406.885-1.449,1.64a.683.683,0,0,1-.069.356.522.522,0,0,1-.321.165,9.593,9.593,0,0,1-1.735.234c-.043.677-.043,1.388-.043,2.065a23.623,23.623,0,0,1,.234,2.907A7.937,7.937,0,0,1,409.282,250.382Z" transform="translate(-347.454 -204.258)" fill="#75b62f"/>
        <path id="Trazado_158266" data-name="Trazado 158266" d="M417.65,237.717v-.607C417.659,237.318,417.65,237.552,417.65,237.717Z" transform="translate(-349.462 -204.018)" fill="#75b62f"/>
        <path id="Trazado_158267" data-name="Trazado 158267" d="M399.155,270.654l-.625.373.625-.373c.3-.182.581-.373.868-.564C399.736,270.281,399.424,270.472,399.155,270.654Z" transform="translate(-346.931 -208.383)" fill="#75b62f"/>
        <path id="Trazado_158268" data-name="Trazado 158268" d="M417.63,236.382v0a1.278,1.278,0,0,0,0-.182h0A1.278,1.278,0,0,1,417.63,236.382Z" transform="translate(-349.46 -203.898)" fill="#75b62f"/>
        <path id="Trazado_158269" data-name="Trazado 158269" d="M417.659,238.875h0v-.495A4.69,4.69,0,0,0,417.659,238.875Z" transform="translate(-349.462 -204.186)" fill="#75b62f"/>
        <path id="Trazado_158270" data-name="Trazado 158270" d="M412.3,241.326a9.592,9.592,0,0,0,1.735-.234.522.522,0,0,0,.321-.165.682.682,0,0,0,.069-.356c.043-.772.781-1.258,1.449-1.64a5.367,5.367,0,0,1,1.05-.512v-2.2a1.287,1.287,0,0,0,0-.182h0a2.536,2.536,0,0,1-.278-.26c-.338-.347-1.024-1.813-1.64-1.093a.537.537,0,0,0,0,.668c.191.243.529.278.711.555s-.069.659-.364.868a3.233,3.233,0,0,0-.868.625c-.4.564-.069,1.484-.4,1.978s-1.032.529-1.631.59h-.2" transform="translate(-348.749 -203.671)" fill="#75b62f"/>
        <path id="Trazado_158271" data-name="Trazado 158271" d="M409.556,240.347a2.716,2.716,0,0,0-2.343-2.5c-2.239-.477-5.171,1.336-6.429,2.993-1.4,1.865-2.065,4.5-4.208,5.44-1.544.668-3.722.425-4.477,1.909-.668,1.362.495,2.863.677,4.338a15.107,15.107,0,0,1-.286,2.924,2.508,2.508,0,0,0,1.119,2.542c.5.217,1.137.191,1.536.564.737.677.147,2.065.868,2.733a3.8,3.8,0,0,0,.911.477c1.614.807,1.57,3.158.824,4.781-.026.061-.087.113-.087.174l.625-.373c.295-.182.564-.373.868-.564s.512-.33.868-.581.711-.512,1.05-.781h0c1.865-4.946,3.618-9.987,6.8-14.195a7.811,7.811,0,0,0,1.952-3.583,23.548,23.548,0,0,0-.252-2.881c-.009-.677.043-1.388.043-2.065" transform="translate(-346.053 -204.106)" fill="#75b62f"/>
        <path id="Trazado_158272" data-name="Trazado 158272" d="M413.8,226.423a9.287,9.287,0,0,0,.607,2.126c-.139-.85-.312-1.683-.512-2.507s-.434-1.631-.7-2.429a33.315,33.315,0,0,0-2.95-6.525c-.26-.416-.521-.868-.8-1.284s-.573-.839-.868-1.249h-.26a4.123,4.123,0,0,1-1.432-.234,7.893,7.893,0,0,1-1.059-.807c-.937-.659-2.481-.79-2.733-1.9a8.2,8.2,0,0,0-.121-1.137c-.269-.659-1.163-.746-1.891-.746-.3,0-.668.043-.807.3a.755.755,0,0,0,0,.625,5.821,5.821,0,0,0,2.473,3.011c.937.564,2.16,1,2.421,2.056-.156.356-.833.4-.868.7s.338.3.495.72-.269.868-.711.868a1.968,1.968,0,0,1-1.154-.633,7.258,7.258,0,0,1-2.369-3.158,2.73,2.73,0,0,0-.633-1.5,1.043,1.043,0,0,0-.235-.121,1.067,1.067,0,0,0-1.37.633c-.443-.26-1.085-.443-1.31,0a1.982,1.982,0,0,0-.087.5c-.147.677-1.085.876-1.189,1.675s.928,1.206,1.735,1.336l2.186.338a2.042,2.042,0,0,1,.868.286.7.7,0,0,1,.269.868,2.219,2.219,0,0,1-.373.382,1.146,1.146,0,0,0,.737,1.857c.286.009.573-.1.868-.1a2.351,2.351,0,0,1,2,1.475,6.025,6.025,0,0,0,1.414,2.126c1.111.824,3.019.633,3.566,1.9a3.093,3.093,0,0,1,0,1.64,2.169,2.169,0,0,0,.2,1.605c.321.451,1.154.547,1.388.043a1.242,1.242,0,0,0,0-.711c-.13-.79-.252-1.579-.382-2.369a2.334,2.334,0,0,1,.182-1.735,1.579,1.579,0,0,1,2.23-.069A3.876,3.876,0,0,1,413.8,226.423Z" transform="translate(-346.561 -200.394)" fill="#75b62f"/>
        <path id="Trazado_158273" data-name="Trazado 158273" d="M339.109,237.519c0,.746.026,1.484.069,2.221-.069-.737-.069-1.475-.069-2.221v-.46A4.084,4.084,0,0,0,339.109,237.519Z" transform="translate(-339.066 -203.82)" fill="#75b62f"/>
        <path id="Trazado_158274" data-name="Trazado 158274" d="M341.491,224.24c-.156.416-.312.859-.451,1.284.139-.416.295-.859.451-1.284Z" transform="translate(-339.322 -202.315)" fill="#75b62f"/>
        <path id="Trazado_158275" data-name="Trazado 158275" d="M339.06,233.733c0,.746.026,1.484.069,2.221h0a1.951,1.951,0,0,0,1.371.6,2.2,2.2,0,0,0,1.822-1.432,18.163,18.163,0,0,0,.633-2.36,1.546,1.546,0,0,1,.711-1.059,7.262,7.262,0,0,1,.868-.191c1.006-.3,1.284-1.692,2.239-2.126a3.319,3.319,0,0,1,.963-.191,5.052,5.052,0,0,0,3.4-1.588,6.988,6.988,0,0,1,.79-.954.964.964,0,0,1,1.154-.113c-.269.538-.538,1.067-.8,1.6a4.319,4.319,0,0,1-.868,1.336,1.457,1.457,0,0,1-1.51.312,1.057,1.057,0,0,0-.5-.174.548.548,0,0,0-.33.208,2.2,2.2,0,0,0,.208,2.811,6.506,6.506,0,0,0,2.646,1.553,1.965,1.965,0,0,0,1.076.208c.668-.121,1.024-.842,1.223-1.484a13.8,13.8,0,0,1,1.544-4.191,5.056,5.056,0,0,0,.807-1.171c.191-.477.13-1.006.434-1.458s.946-.7.989-1.241a.963.963,0,0,0-.633-.868c-.347-.165-.729-.217-1.085-.356-.147-.061-.3-.087-.3-.312s.3-.286.39-.521-.156-.46-.26-.685c-.217-.521.321-1.067.868-1.267s1.171-.356,1.414-.868a2.854,2.854,0,0,0,.174-.764,1.683,1.683,0,0,1,1.267-1.38,1.142,1.142,0,0,1,.225-.015,1.1,1.1,0,0,1,1.059,1.143,4.35,4.35,0,0,1-.477.963c-.147.33-.1.824.234.928.573.174,1.119-.85,1.588-.5l-.573,1.978c.738.373,1.64-.312,1.952-1.076s.321-1.6.7-2.369,1.4-1.293,2.048-.772c.035.946-1.232,1.336-1.8,2.1l-.013.016a1.285,1.285,0,0,0,.265,1.8c.59.39,1.536-.217,1.31-.868-.078-.226-.26-.356-.286-.651s.226-.538.46-.729l1.085-.868a2.29,2.29,0,0,1,.772-.477,1.813,1.813,0,0,1,1.883,1.041,9.207,9.207,0,0,0,1.163,1.978,2.126,2.126,0,0,0,2.993,0,1.735,1.735,0,0,0-.72-2.716c-.408-.113-.928-.1-1.145-.46-.373-.633.7-1.44.33-2.082-.286-.495-1.041-.269-1.588-.434s-.859-.72-1.18-1.18-.816-.937-1.38-.807a1.673,1.673,0,0,0-.061-.972.67.67,0,0,0-.047-.1.6.6,0,0,0-.821-.206l.012.029a.981.981,0,0,1-.55,1.273,3.062,3.062,0,0,1-1.562.113c-.529-.069-1.241-.26-1.241-.781,0-.174.069-.356,0-.512-.226-.625-1.4.234-1.839-.269-.26-.26.026-.729.382-.816a3.944,3.944,0,0,1,1.1.061c.408.009.85-.191.868-.547s-.425-.607-.425-.963c-.069-.6.954-.755,1.31-.269a2.291,2.291,0,0,1,.13,1.735,1.822,1.822,0,0,0,.269,1.735c.217.286.711.139.868-.165a2.254,2.254,0,0,0,.156-1,.868.868,0,0,1,.512-.816,2.04,2.04,0,0,1,.72.078c.937.113,1.6-1.1,1.293-1.97a3.741,3.741,0,0,0-1.97-1.917,2.092,2.092,0,0,0-1.952-.3c-.278.156-.469.416-.746.581a3.225,3.225,0,0,1-1.605.182,3.8,3.8,0,0,0-2.351.868c-.278.243-.477.59-.278.868s.79.33.685.659c-.039.01-.079.019-.119.026a1.172,1.172,0,0,1-1.347-.963.98.98,0,0,0-.564.79,1.694,1.694,0,0,0-.175-.149,1.735,1.735,0,0,0-2.428.357,2.349,2.349,0,0,1-.477.607c-.217.139-.625.069-.625-.182a.534.534,0,0,1,0-.234c.13-.364.269-.72.4-1.076-.5-.278-1.093.148-1.44.59-1.258,1.675-2.2.668-3.939.946-1.206.182-1.735.946-2.412,1.865-2.082,2.837-4.833,5.162-6.724,8.13-.208.312-.39.625-.564.946h0c-.156.416-.3.842-.451,1.284s-.278.876-.408,1.31a31.459,31.459,0,0,0-.8,3.471c-.069.4-.13.824-.182,1.2s-.078.659-.13,1.137a13.253,13.253,0,0,0-.113,1.432v1.449A2.56,2.56,0,0,1,339.06,233.733Z" transform="translate(-339.06 -200.043)" fill="#75b62f"/>
        <path id="Trazado_158276" data-name="Trazado 158276" d="M353.687,257.911c.547.078,1.2-.191,1.614.165a1.737,1.737,0,0,1,.39.868,1.84,1.84,0,0,0,.781,1.05,1.171,1.171,0,0,0,1.267,0,.868.868,0,0,0,.174-1.215c-.139-.156-.33-.252-.477-.39-.729-.677-.234-1.944-.781-2.75-.338-.477-.946-1.076-1.206-1.449s-.356-.668-.868-.764C352.359,252.992,351.353,257.564,353.687,257.911Z" transform="translate(-340.819 -206.174)" fill="#75b62f"/>
        <g id="Grupo_108315" data-name="Grupo 108315" transform="translate(0.2 28.059)" opacity="0.3">
          <path id="Trazado_158277" data-name="Trazado 158277" d="M339.42,232.507q.078-.6.182-1.2c-.069.4-.13.824-.182,1.2a8.286,8.286,0,0,0-.13,1.137C339.325,233.227,339.368,232.846,339.42,232.507Z" transform="translate(-339.29 -231.31)"/>
        </g>
        <g id="Grupo_108316" data-name="Grupo 108316" transform="translate(33.777 0.686)" opacity="0.3">
          <path id="Trazado_158278" data-name="Trazado 158278" d="M385.426,207.508l-2.6-.6a1.908,1.908,0,0,1-1.145-.581c-.321-.425-.226-1.024-.443-1.51-.347-.8-1.423-1.085-1.8-1.874-.147-.269-.226-.677-.434-.868s-.512-.234-.738-.4a1,1,0,0,1-.141-.189,1.024,1.024,0,0,1,.375-1.4c1.336-.842,3.8.1,4.954.963,1.449,1.059,2.941,2.343,4.919,2.212a3.891,3.891,0,0,1,1.614,0c.512.191.833.954.39,1.275-.243.174-.59.121-.868.252a1.076,1.076,0,0,0-.312,1.458c.252.477.694.876.989,1.345a2.6,2.6,0,0,1,.373,1.544,1.432,1.432,0,0,1-.469,1c-.616.486-1.544.069-2.065-.521a7.687,7.687,0,0,0-1.562-1.735A4.033,4.033,0,0,0,385.426,207.508Z" transform="translate(-377.99 -199.761)"/>
        </g>
        <g id="Grupo_108317" data-name="Grupo 108317" transform="translate(11.765 21.801)" opacity="0.3">
          <path id="Trazado_158279" data-name="Trazado 158279" d="M358.364,250.337c-.512-1.223-.13-2.672-.616-3.913-.633-1.64-2.525-2.395-3.87-3.523s-1.891-3.731-.217-4.338c.633-.226,1.362-.043,1.987-.286a3.079,3.079,0,0,0,1.5-2.039l2.325-6.438c.469-1.293,1.18-2.794,2.56-2.985a7.707,7.707,0,0,1,2.308.4c2.664.477,7.141-5.943,9.171-1.605.278-1.163,2.169-.72,2.811.312s.764,2.4,1.735,3.124c.7.547,1.831.581,2.438,1.275a3.061,3.061,0,0,1,.547,1.813l.312,3.687a5,5,0,0,1-.347,2.907,1.761,1.761,0,0,1-2.525.677,7.252,7.252,0,0,1-.764-1.137,1.944,1.944,0,0,0-2-.677,3.364,3.364,0,0,0-1.51,1.05c-3.471,3.7-4.711,8.954-4.867,14a7.8,7.8,0,0,1-.373,2.724c-.4,1.006-1.249,1.822-1.492,2.872a12.7,12.7,0,0,1-.364,2.455c-.651,1.388-2.794,1.449-3.974.451a6.491,6.491,0,0,1-1.822-4.113,10.531,10.531,0,0,0-1.249-4.382A15.212,15.212,0,0,1,358.364,250.337Z" transform="translate(-352.62 -224.096)"/>
        </g>
        <g id="Grupo_108318" data-name="Grupo 108318" transform="translate(68.188 33.092)" opacity="0.3">
          <path id="Trazado_158280" data-name="Trazado 158280" d="M417.65,237.717v-.607C417.659,237.318,417.65,237.552,417.65,237.717Z" transform="translate(-417.65 -237.11)"/>
        </g>
        <g id="Grupo_108319" data-name="Grupo 108319" transform="translate(51.599 61.707)" opacity="0.3">
          <path id="Trazado_158281" data-name="Trazado 158281" d="M399.155,270.654l-.625.373.625-.373c.3-.182.581-.373.868-.564C399.736,270.281,399.424,270.472,399.155,270.654Z" transform="translate(-398.53 -270.09)"/>
        </g>
        <g id="Grupo_108320" data-name="Grupo 108320" transform="translate(68.171 32.302)" opacity="0.3">
          <path id="Trazado_158282" data-name="Trazado 158282" d="M417.63,236.382v0a1.278,1.278,0,0,0,0-.182h0A1.278,1.278,0,0,1,417.63,236.382Z" transform="translate(-417.63 -236.2)"/>
        </g>
        <g id="Grupo_108321" data-name="Grupo 108321" transform="translate(68.19 34.194)" opacity="0.3">
          <path id="Trazado_158283" data-name="Trazado 158283" d="M417.659,238.875h0v-.495A4.69,4.69,0,0,0,417.659,238.875Z" transform="translate(-417.652 -238.38)"/>
        </g>
        <g id="Grupo_108322" data-name="Grupo 108322" transform="translate(45.849 30.787)" opacity="0.3">
          <path id="Trazado_158284" data-name="Trazado 158284" d="M392.473,255.074a2.507,2.507,0,0,0,1.119,2.542c.5.217,1.137.191,1.536.564.737.677.148,2.065.868,2.733a3.8,3.8,0,0,0,.911.477c1.614.807,1.57,3.158.824,4.781-.026.061-.087.113-.087.174l.625-.373c.295-.182.564-.373.868-.564s.512-.33.868-.581.711-.512,1.05-.781h0a30.623,30.623,0,0,0,2.351-1.978,33.922,33.922,0,0,0,2.412-2.455c.555-.616,1.05-1.241,1.579-1.926s1.024-1.406,1.5-2.134c.382-.59.755-1.2,1.085-1.8a31.7,31.7,0,0,0,2.082-4.425,32.956,32.956,0,0,0,2.169-10.7,2.142,2.142,0,0,0,0-.234v-2.2a1.3,1.3,0,0,0,0-.182h0a2.538,2.538,0,0,1-.278-.26c-.338-.347-1.024-1.813-1.64-1.093a.537.537,0,0,0,0,.668c.191.243.529.278.711.555s-.069.659-.364.868a3.043,3.043,0,0,0-.868.625c-.4.564-.069,1.484-.4,1.978s-1.032.529-1.631.59h-.2a2.716,2.716,0,0,0-2.343-2.5c-2.239-.477-5.171,1.336-6.429,2.993-1.4,1.865-2.065,4.5-4.208,5.44-1.544.668-3.722.425-4.477,1.909-.668,1.362.495,2.863.677,4.338A15.132,15.132,0,0,1,392.473,255.074Zm19.2-14.212a.682.682,0,0,0,.069-.356A.682.682,0,0,1,411.674,240.862Z" transform="translate(-391.904 -234.454)"/>
        </g>
        <g id="Grupo_108323" data-name="Grupo 108323" transform="translate(49.171 9.336)" opacity="0.3">
          <path id="Trazado_158285" data-name="Trazado 158285" d="M413.8,226.423a9.287,9.287,0,0,0,.607,2.126c-.139-.85-.312-1.683-.512-2.507s-.434-1.631-.7-2.429a33.315,33.315,0,0,0-2.95-6.525c-.26-.416-.521-.868-.8-1.284s-.573-.839-.868-1.249h-.26a4.123,4.123,0,0,1-1.432-.234,7.893,7.893,0,0,1-1.059-.807c-.937-.659-2.481-.79-2.733-1.9a8.2,8.2,0,0,0-.121-1.137c-.269-.659-1.163-.746-1.891-.746-.3,0-.668.043-.807.3a.755.755,0,0,0,0,.625,5.821,5.821,0,0,0,2.473,3.011c.937.564,2.16,1,2.421,2.056-.156.356-.833.4-.868.7s.338.3.495.72-.269.868-.711.868a1.968,1.968,0,0,1-1.154-.633,7.258,7.258,0,0,1-2.369-3.158,2.73,2.73,0,0,0-.633-1.5,1.043,1.043,0,0,0-.235-.121,1.067,1.067,0,0,0-1.37.633c-.443-.26-1.085-.443-1.31,0a1.982,1.982,0,0,0-.087.5c-.147.677-1.085.876-1.189,1.675s.928,1.206,1.735,1.336l2.186.338a2.042,2.042,0,0,1,.868.286.7.7,0,0,1,.269.868,2.219,2.219,0,0,1-.373.382,1.146,1.146,0,0,0,.737,1.857c.286.009.573-.1.868-.1a2.351,2.351,0,0,1,2,1.475,6.025,6.025,0,0,0,1.414,2.126c1.111.824,3.019.633,3.566,1.9a3.093,3.093,0,0,1,0,1.64,2.169,2.169,0,0,0,.2,1.605c.321.451,1.154.547,1.388.043a1.242,1.242,0,0,0,0-.711c-.13-.79-.252-1.579-.382-2.369a2.334,2.334,0,0,1,.182-1.735,1.579,1.579,0,0,1,2.23-.069A3.876,3.876,0,0,1,413.8,226.423Z" transform="translate(-395.732 -209.73)"/>
        </g>
        <g id="Grupo_108324" data-name="Grupo 108324" transform="translate(0.037 31.79)" opacity="0.3">
          <path id="Trazado_158286" data-name="Trazado 158286" d="M339.109,237.519c0,.746.026,1.484.069,2.221-.069-.737-.069-1.475-.069-2.221v-.46A4.084,4.084,0,0,0,339.109,237.519Z" transform="translate(-339.103 -235.61)"/>
        </g>
        <g id="Grupo_108325" data-name="Grupo 108325" transform="translate(1.718 21.925)" opacity="0.3">
          <path id="Trazado_158287" data-name="Trazado 158287" d="M341.491,224.24c-.156.416-.312.859-.451,1.284.139-.416.295-.859.451-1.284Z" transform="translate(-341.04 -224.24)"/>
        </g>
        <g id="Grupo_108326" data-name="Grupo 108326" transform="translate(0 7.031)" opacity="0.3">
          <path id="Trazado_158288" data-name="Trazado 158288" d="M339.06,233.733c0,.746.026,1.484.069,2.221h0a1.951,1.951,0,0,0,1.371.6,2.2,2.2,0,0,0,1.822-1.432,18.163,18.163,0,0,0,.633-2.36,1.546,1.546,0,0,1,.711-1.059,7.262,7.262,0,0,1,.868-.191c1.006-.3,1.284-1.692,2.239-2.126a3.319,3.319,0,0,1,.963-.191,5.052,5.052,0,0,0,3.4-1.588,6.988,6.988,0,0,1,.79-.954.964.964,0,0,1,1.154-.113c-.269.538-.538,1.067-.8,1.6a4.319,4.319,0,0,1-.868,1.336,1.457,1.457,0,0,1-1.51.312,1.057,1.057,0,0,0-.5-.174.548.548,0,0,0-.33.208,2.2,2.2,0,0,0,.208,2.811,6.506,6.506,0,0,0,2.646,1.553,1.965,1.965,0,0,0,1.076.208c.668-.121,1.024-.842,1.223-1.484a13.8,13.8,0,0,1,1.544-4.191,5.056,5.056,0,0,0,.807-1.171c.191-.477.13-1.006.434-1.458s.946-.7.989-1.241a.963.963,0,0,0-.633-.868c-.347-.165-.729-.217-1.085-.356-.147-.061-.3-.087-.3-.312s.3-.286.39-.521-.156-.46-.26-.685c-.217-.521.321-1.067.868-1.267s1.171-.356,1.414-.868a2.854,2.854,0,0,0,.174-.764,1.683,1.683,0,0,1,1.267-1.38,1.142,1.142,0,0,1,.225-.015,1.1,1.1,0,0,1,1.059,1.143,4.35,4.35,0,0,1-.477.963c-.147.33-.1.824.234.928.573.174,1.119-.85,1.588-.5l-.573,1.978c.738.373,1.64-.312,1.952-1.076s.321-1.6.7-2.369,1.4-1.293,2.048-.772c.035.946-1.232,1.336-1.8,2.1l-.013.016a1.285,1.285,0,0,0,.265,1.8c.59.39,1.536-.217,1.31-.868-.078-.226-.26-.356-.286-.651s.226-.538.46-.729l1.085-.868a2.29,2.29,0,0,1,.772-.477,1.813,1.813,0,0,1,1.883,1.041,9.207,9.207,0,0,0,1.163,1.978,2.126,2.126,0,0,0,2.993,0,1.735,1.735,0,0,0-.72-2.716c-.408-.113-.928-.1-1.145-.46-.373-.633.7-1.44.33-2.082-.286-.495-1.041-.269-1.588-.434s-.859-.72-1.18-1.18-.816-.937-1.38-.807a1.673,1.673,0,0,0-.061-.972.67.67,0,0,0-.047-.1.6.6,0,0,0-.821-.206l.012.029a.981.981,0,0,1-.55,1.273,3.062,3.062,0,0,1-1.562.113c-.529-.069-1.241-.26-1.241-.781,0-.174.069-.356,0-.512-.226-.625-1.4.234-1.839-.269-.26-.26.026-.729.382-.816a3.944,3.944,0,0,1,1.1.061c.408.009.85-.191.868-.547s-.425-.607-.425-.963c-.069-.6.954-.755,1.31-.269a2.291,2.291,0,0,1,.13,1.735,1.822,1.822,0,0,0,.269,1.735c.217.286.711.139.868-.165a2.254,2.254,0,0,0,.156-1,.868.868,0,0,1,.512-.816,2.04,2.04,0,0,1,.72.078c.937.113,1.6-1.1,1.293-1.97a3.741,3.741,0,0,0-1.97-1.917,2.092,2.092,0,0,0-1.952-.3c-.278.156-.469.416-.746.581a3.225,3.225,0,0,1-1.605.182,3.8,3.8,0,0,0-2.351.868c-.278.243-.477.59-.278.868s.79.33.685.659c-.039.01-.079.019-.119.026a1.172,1.172,0,0,1-1.347-.963.98.98,0,0,0-.564.79,1.694,1.694,0,0,0-.175-.149,1.735,1.735,0,0,0-2.428.357,2.349,2.349,0,0,1-.477.607c-.217.139-.625.069-.625-.182a.534.534,0,0,1,0-.234c.13-.364.269-.72.4-1.076-.5-.278-1.093.148-1.44.59-1.258,1.675-2.2.668-3.939.946-1.206.182-1.735.946-2.412,1.865-2.082,2.837-4.833,5.162-6.724,8.13-.208.312-.39.625-.564.946h0c-.156.416-.3.842-.451,1.284s-.278.876-.408,1.31a31.459,31.459,0,0,0-.8,3.471c-.069.4-.13.824-.182,1.2s-.078.659-.13,1.137a13.253,13.253,0,0,0-.113,1.432v1.449A2.56,2.56,0,0,1,339.06,233.733Z" transform="translate(-339.06 -207.074)"/>
        </g>
        <rect id="Rectángulo_40178" data-name="Rectángulo 40178" width="4.382" height="15.409" transform="translate(31.92 69.88)" fill="#263238"/>
        <path id="Trazado_158289" data-name="Trazado 158289" d="M350.259,261.1l-.469-.382,2.4-2.377.764.781-1.536,1.518a37.308,37.308,0,0,0,23.2,8.1,36.492,36.492,0,0,0,18.351-68.3l-2.022,2.7-.868-.642,2.542-3.523.425.234A37.611,37.611,0,0,1,374.6,269.83,38.332,38.332,0,0,1,350.259,261.1Z" transform="translate(-340.48 -198.97)" fill="#263238"/>
        <rect id="Rectángulo_40179" data-name="Rectángulo 40179" width="33.708" height="2.603" transform="translate(17.891 85.289)" fill="#263238"/>
      </g>
      <g id="freepik--Floor--inject-303" transform="translate(30.546 417.744)">
        <path id="Trazado_158290" data-name="Trazado 158290" d="M221.648,476.59c104.663,0,189.475.1,189.475.226s-84.855.234-189.475.234-189.458-.1-189.458-.234S116.984,476.59,221.648,476.59Z" transform="translate(-32.19 -476.59)" fill="#263238"/>
      </g>
      <g id="Grupo_108327" data-name="Grupo 108327" transform="translate(209.122 40.878)">
        <path id="Trazado_158291" data-name="Trazado 158291" d="M262.895,85.073a10.177,10.177,0,0,1-.33,2.429,16.3,16.3,0,0,1-.957,2.726,19.793,19.793,0,0,1-1.54,2.784A18.262,18.262,0,0,1,258,95.6a35.078,35.078,0,0,1-3.394,3.166,15.55,15.55,0,0,1-3.065,1.947,12.316,12.316,0,0,1-3.106.99,20.391,20.391,0,0,1-3.5.279,4.844,4.844,0,0,1-1.854-.364,6.7,6.7,0,0,1-1.659-.981,8.11,8.11,0,0,1-1.4-1.447,10.79,10.79,0,0,1-1.075-1.745,9.609,9.609,0,0,1-.694-1.878,7.576,7.576,0,0,1-.246-1.863,14.952,14.952,0,0,1,.475-3.555,21.87,21.87,0,0,1,1.362-3.877A24.015,24.015,0,0,1,242,82.508a18.233,18.233,0,0,1,2.844-3.217,13.774,13.774,0,0,1,3.429-2.243,9.327,9.327,0,0,1,3.918-.847c.249,0,.554,0,.914.009s.756.025,1.185.059.881.082,1.354.144a11.636,11.636,0,0,1,1.4.271,10.084,10.084,0,0,1,1.321.441,5.05,5.05,0,0,1,1.126.635,11.074,11.074,0,0,1,1.862,1.718,6.158,6.158,0,0,1,1.456,3.5Q262.894,83.938,262.895,85.073ZM252.5,78.453a5.832,5.832,0,0,0-2.345.475A8.891,8.891,0,0,0,248.1,80.18a14.414,14.414,0,0,0-1.82,1.76q-.855.983-1.634,2a16.763,16.763,0,0,0-1.329,2.022,19.134,19.134,0,0,0-1.125,2.37A17.154,17.154,0,0,0,241.4,90.9a12.177,12.177,0,0,0-.3,2.65,5.913,5.913,0,0,0,.423,2.277,5.691,5.691,0,0,0,1.109,1.753,5.009,5.009,0,0,0,1.575,1.134,4.371,4.371,0,0,0,1.837.407,9.9,9.9,0,0,0,2.734-.381,12.359,12.359,0,0,0,2.547-1.05,15.022,15.022,0,0,0,2.3-1.558,17.952,17.952,0,0,0,2.005-1.921,17.294,17.294,0,0,0,1.642-2.15,18.42,18.42,0,0,0,1.228-2.218,8.85,8.85,0,0,0,.431-1.22,13.994,13.994,0,0,0,.322-1.455q.128-.763.2-1.541t.094-1.473a12.32,12.32,0,0,0-.026-1.236,3.733,3.733,0,0,0-.144-.847,4,4,0,0,0-.711-1.159,5.734,5.734,0,0,0-1.389-1.177,8.778,8.778,0,0,0-2.056-.914A9.182,9.182,0,0,0,252.5,78.453Z" transform="translate(-238.008 -74.729)" fill="#fff"/>
        <path id="Trazado_158292" data-name="Trazado 158292" d="M287.521,88.4c0,.068-.005.166-.017.3a1.606,1.606,0,0,1-.084.39,1.8,1.8,0,0,1-.161.346.279.279,0,0,1-.246.153c-.068,0-.18,0-.338-.009s-.324-.014-.5-.025-.341-.019-.5-.025-.271-.009-.338-.009a8.019,8.019,0,0,0-5.384,2.37,18.134,18.134,0,0,0-3.657,5.654q-.289.729-.567,1.507t-.534,1.642a7.587,7.587,0,0,0-.194.837,5.012,5.012,0,0,1-.194.77q-.034.135-.288.263a4.162,4.162,0,0,1-.567.228c-.21.068-.41.124-.6.169a2.109,2.109,0,0,1-.389.068q-1.169.068-1.321-2.421c-.034-.451-.047-.861-.042-1.228s.02-.722.042-1.066.054-.705.094-1.084.082-.8.127-1.278q.086-.88.2-2.032t.271-2.318q.151-1.169.321-2.226a17.51,17.51,0,0,1,.357-1.753,2.822,2.822,0,0,1,.515-1.185,1.3,1.3,0,0,1,.974-.423.858.858,0,0,1,.364.093,1.374,1.374,0,0,1,.355.246,1.788,1.788,0,0,1,.272.322.742.742,0,0,1,.127.3,8.84,8.84,0,0,1-.017.923c-.023.333-.062.677-.119,1.032s-.124.714-.2,1.075-.158.705-.237,1.032q-.237.966-.364,1.651t-.212,1.329q-.085.643-.169,1.38t-.22,1.82q.288-.644.5-1.1t.382-.8c.113-.231.217-.437.312-.618s.2-.37.313-.567l.373-.652c.134-.237.3-.524.508-.863a14.447,14.447,0,0,1,2.54-3.208,9.553,9.553,0,0,1,2.607-1.786,6.631,6.631,0,0,1,2.337-.728,7.3,7.3,0,0,1,1.049.05,5.726,5.726,0,0,1,1.169.254,3.382,3.382,0,0,1,.956.482A.874.874,0,0,1,287.521,88.4Z" transform="translate(-242.454 -76.028)" fill="#fff"/>
        <path id="Trazado_158293" data-name="Trazado 158293" d="M310.977,87.861a2.672,2.672,0,0,1-.33,1.092,15.28,15.28,0,0,1-.957,1.684q-.609.949-1.422,2.015t-1.693,2.1q-.457.524-.991,1.109t-1.117,1.168q-.584.584-1.177,1.143T302.122,99.2a8.341,8.341,0,0,1-1.076.753,10.552,10.552,0,0,1-1.184.609,7.632,7.632,0,0,1-1.168.407,4.236,4.236,0,0,1-1.025.144,3.95,3.95,0,0,1-2.268-.61,4.262,4.262,0,0,1-1.432-1.7,8.679,8.679,0,0,1-.744-2.6,23.9,23.9,0,0,1-.212-3.3c0-.147,0-.332.008-.559s.017-.477.034-.753.037-.567.06-.872.05-.609.085-.914q.1-.914.2-1.574a8.474,8.474,0,0,1,.22-1.067,2.743,2.743,0,0,1,1-1.388,2.564,2.564,0,0,1,1.625-.626q.457,0,.457.863a8.76,8.76,0,0,1-.11,1.3q-.109.728-.228,1.439-.221,1.337-.322,2.395t-.1,1.837c0,.237,0,.528.008.872s.029.709.069,1.092a10.165,10.165,0,0,0,.186,1.151,4.938,4.938,0,0,0,.347,1.041,2.258,2.258,0,0,0,.551.753,1.2,1.2,0,0,0,.821.288,4.282,4.282,0,0,0,1.49-.331,6.884,6.884,0,0,0,1.625-.888q.932-.694,1.837-1.516t1.744-1.675q.838-.855,1.583-1.685t1.354-1.54c.226-.272.461-.556.7-.855s.477-.593.7-.881l.634-.812c.2-.254.37-.476.516-.669.01-.023.031-.059.059-.11s.059-.1.093-.152a.864.864,0,0,1,.1-.127.1.1,0,0,1,.1-.034c.157,0,.276.124.355.372A1.558,1.558,0,0,1,310.977,87.861Zm-8.414-12a.974.974,0,0,1-.289.524,3.39,3.39,0,0,1-.6.449c-.322.21-.689.443-1.1.7s-.842.528-1.288.8-.827.522-1.142.737q-.763.541-1.5,1.066t-1.5,1a1.277,1.277,0,0,1-.144.093c-.085.05-.178.108-.279.169s-.2.119-.288.169a.809.809,0,0,1-.152.076.822.822,0,0,1-.415-.11,1.311,1.311,0,0,1-.339-.271,1.273,1.273,0,0,1-.228-.364.991.991,0,0,1-.085-.389q0-.728,2.151-2.252a44.08,44.08,0,0,1,3.792-2.437q.574-.321.9-.534c.213-.141.406-.273.575-.4a2.007,2.007,0,0,1,.49-.288,1.324,1.324,0,0,1,.492-.1.5.5,0,0,1,.228.118,1.9,1.9,0,0,1,.322.313,2.265,2.265,0,0,1,.279.432A1.087,1.087,0,0,1,302.563,75.858Z" transform="translate(-245.289 -74.504)" fill="#fff"/>
        <path id="Trazado_158294" data-name="Trazado 158294" d="M321.565,88.761q-.135,1.169-.22,2.591t-.22,3.166q-.051.643-.135,1.456t-.186,1.675q-.1.864-.2,1.7t-.2,1.516q-.152.981-.389,2.04a19.578,19.578,0,0,1-.593,2.091,12.408,12.408,0,0,1-.872,1.963,7.2,7.2,0,0,1-1.227,1.635,5.485,5.485,0,0,1-1.652,1.117,5.246,5.246,0,0,1-2.14.415,6.654,6.654,0,0,1-1.541-.186,10.253,10.253,0,0,1-1.532-.5,10.37,10.37,0,0,1-1.456-.745,11.28,11.28,0,0,1-1.3-.922,10.484,10.484,0,0,1-1.168-1.109,6.783,6.783,0,0,1-.847-1.159,2.233,2.233,0,0,1-.338-1.135q0-.524.338-.525a.393.393,0,0,1,.253.119,1.122,1.122,0,0,1,.161.153l.178.194.153.169c.044.051.073.082.084.093a10.161,10.161,0,0,0,6.975,3.014,3.383,3.383,0,0,0,2.023-.567,4.087,4.087,0,0,0,1.253-1.473,8.327,8.327,0,0,0,.711-2.015q.246-1.109.416-2.193.1-.677.178-1.354t.144-1.413q.068-.737.134-1.549t.153-1.761a15.742,15.742,0,0,1-1.753,1.583,19.673,19.673,0,0,1-2.268,1.549,15.989,15.989,0,0,1-2.438,1.177,6.415,6.415,0,0,1-2.26.466,1.665,1.665,0,0,1-.813-.2,1.9,1.9,0,0,1-.643-.583,3.09,3.09,0,0,1-.432-.932,4.349,4.349,0,0,1-.161-1.227,7.261,7.261,0,0,1,.338-2.1,16.193,16.193,0,0,1,.863-2.226,21.969,21.969,0,0,1,1.169-2.15q.643-1.041,1.252-1.871a17.879,17.879,0,0,1,1.474-1.7,15.325,15.325,0,0,1,1.853-1.625,10.758,10.758,0,0,1,2.057-1.21,5.1,5.1,0,0,1,2.082-.475,3.632,3.632,0,0,1,1.676.4,2.761,2.761,0,0,1,1.2,1.193,1.315,1.315,0,0,1,.118.551,6.856,6.856,0,0,1-.016.829q-.034.466-.1,1T321.565,88.761Zm-2.776,3.082c.045-.339.089-.748.135-1.228s.1-1.075.169-1.786q.051-.558.109-1.117a2.452,2.452,0,0,0-.042-.914.84.84,0,0,0-.525-.626,4.245,4.245,0,0,0-1.269-.135,10.864,10.864,0,0,0-1.617,1.253,18.843,18.843,0,0,0-1.54,1.609,20.325,20.325,0,0,0-1.363,1.786,20.737,20.737,0,0,0-1.1,1.8,10.973,10.973,0,0,0-.829,1.922,5.483,5.483,0,0,0-.305,1.616.917.917,0,0,0,.11.475.841.841,0,0,0,.288.3,1.151,1.151,0,0,0,.406.153,2.515,2.515,0,0,0,.466.043,3.7,3.7,0,0,0,1.278-.254,10.162,10.162,0,0,0,1.363-.626c.45-.248.881-.51,1.286-.787s.757-.528,1.05-.754a5.389,5.389,0,0,0,.492-.423,6.772,6.772,0,0,0,.609-.668,5.928,5.928,0,0,0,.541-.8A2.282,2.282,0,0,0,318.788,91.843Z" transform="translate(-246.921 -75.726)" fill="#fff"/>
        <path id="Trazado_158295" data-name="Trazado 158295" d="M349.942,89.945a2.284,2.284,0,0,1-.372.9,31.058,31.058,0,0,1-1.972,2.54,30.446,30.446,0,0,1-4.875,4.545,20.945,20.945,0,0,1-2.684,1.71,14.1,14.1,0,0,1-2.7,1.109,8.879,8.879,0,0,1-2.6.373,5.529,5.529,0,0,1-4.207-1.575,6.669,6.669,0,0,1-1.5-4.757,16.5,16.5,0,0,1,.821-5.163,14.3,14.3,0,0,1,2.8-4.825,7.325,7.325,0,0,1,.838-.779,7.017,7.017,0,0,1,.982-.66,5.5,5.5,0,0,1,1.066-.457,4.732,4.732,0,0,1,1.108-.2,2.8,2.8,0,0,1,.373.034,3.351,3.351,0,0,1,.508.118,3.623,3.623,0,0,1,.526.213,1.208,1.208,0,0,1,.405.312,5.02,5.02,0,0,1,.754,1.118,3.261,3.261,0,0,1,.313,1.269,4.844,4.844,0,0,1-.178,1.532,5.819,5.819,0,0,1-.711,1.54,10.265,10.265,0,0,1-1.311,1.625,26.268,26.268,0,0,1-1.964,1.8q-.729.609-1.616,1.346a22.972,22.972,0,0,1-2.142,1.549,3.118,3.118,0,0,0,.991,2.5,4.013,4.013,0,0,0,2.717.855,7.764,7.764,0,0,0,1.948-.254,12.837,12.837,0,0,0,1.93-.669,16.1,16.1,0,0,0,1.836-.947q.89-.534,1.668-1.092,1.439-1.049,2.607-2.091t2.319-2.193l.914-.914a2.414,2.414,0,0,1,1.2-.727C349.875,89.624,349.942,89.731,349.942,89.945Zm-12.934-3.369a2.922,2.922,0,0,0-.076-.5,1.448,1.448,0,0,0-.178-.432,1.068,1.068,0,0,0-.271-.3.589.589,0,0,0-.356-.11,2.676,2.676,0,0,0-1.794,1.091,11.957,11.957,0,0,0-1.694,2.751,5.537,5.537,0,0,0-.33.838q-.144.466-.271.948t-.22.956q-.094.475-.16.847l1.625-1.219q.744-.558,1.388-1.151.406-.372.829-.8a8.31,8.31,0,0,0,.77-.906,4.455,4.455,0,0,0,.55-.981A2.554,2.554,0,0,0,337.008,86.576Z" transform="translate(-250.056 -75.589)" fill="#fff"/>
        <path id="Trazado_158296" data-name="Trazado 158296" d="M379.378,89.922a2.045,2.045,0,0,1-.11.652,5.478,5.478,0,0,1-.271.66,5.881,5.881,0,0,1-.364.643c-.136.209-.265.41-.39.6a15.489,15.489,0,0,1-1.151,1.549q-.66.787-1.414,1.532t-1.549,1.406a18.653,18.653,0,0,1-1.557,1.168q-.609.406-1.16.762a8.43,8.43,0,0,1-1.109.61,6.8,6.8,0,0,1-1.168.406,5.513,5.513,0,0,1-1.338.152,3.519,3.519,0,0,1-2.284-.711,3.294,3.294,0,0,1-.771-.922,7.41,7.41,0,0,1-.575-1.262,12.881,12.881,0,0,1-.423-1.473q-.178-.778-.3-1.54-.152-.949-.288-1.7a8.872,8.872,0,0,0-.313-1.27,2.267,2.267,0,0,0-.432-.8.851.851,0,0,0-.659-.279,2.709,2.709,0,0,0-.61.068,1.935,1.935,0,0,0-.6.271,4.432,4.432,0,0,0-.685.576q-.372.372-.872.982t-1.143,1.49q-.643.88-1.507,2.1-.423.593-1,1.3t-1.177,1.354a14.569,14.569,0,0,1-1.177,1.134,3.045,3.045,0,0,1-1.016.626q-1.489-.321-1.489-3.707a27.142,27.142,0,0,1,.2-2.726q.1-.829.237-1.735t.339-1.812q.2-.9.465-1.76a11.009,11.009,0,0,1,.618-1.583,2.2,2.2,0,0,1,.356-.534,1.332,1.332,0,0,1,.382-.288,1.28,1.28,0,0,1,.405-.118,3.546,3.546,0,0,1,.432-.025q.271,0,.482.372a2.1,2.1,0,0,1,.212,1.032,4.071,4.071,0,0,1-.068.762,6.287,6.287,0,0,1-.187.728l-.254.8c-.089.288-.18.618-.27.99q-.1.457-.229,1.016c-.085.372-.163.751-.237,1.134s-.136.759-.186,1.126a7.231,7.231,0,0,0-.076.991,2.106,2.106,0,0,0,.1.626q.474-.052,1.558-1.423l1.227-1.523q.669-.83,1.448-1.829.574-.744,1.142-1.388a9.189,9.189,0,0,1,1.177-1.125,5.324,5.324,0,0,1,1.3-.763,3.985,3.985,0,0,1,1.515-.279,2.635,2.635,0,0,1,1.465.381,2.8,2.8,0,0,1,.94,1.05,6.062,6.062,0,0,1,.55,1.6,20.66,20.66,0,0,1,.313,2.049q.1.949.194,1.879a6.762,6.762,0,0,0,.364,1.668,2.93,2.93,0,0,0,.779,1.194,2.1,2.1,0,0,0,1.456.457,3.886,3.886,0,0,0,1.523-.338,9.906,9.906,0,0,0,1.676-.94,20.175,20.175,0,0,0,1.82-1.414q.94-.812,1.938-1.778a10.5,10.5,0,0,0,.855-.94c.311-.377.615-.742.914-1.092s.579-.648.838-.9a1.082,1.082,0,0,1,.627-.372.952.952,0,0,1,.329.1A.348.348,0,0,1,379.378,89.922Z" transform="translate(-252.895 -75.989)" fill="#fff"/>
        <path id="Trazado_158297" data-name="Trazado 158297" d="M401.28,89.945a2.284,2.284,0,0,1-.372.9,31.248,31.248,0,0,1-1.972,2.54,30.4,30.4,0,0,1-4.876,4.545,20.878,20.878,0,0,1-2.683,1.71,14.1,14.1,0,0,1-2.7,1.109,8.879,8.879,0,0,1-2.6.373,5.529,5.529,0,0,1-4.207-1.575,6.669,6.669,0,0,1-1.5-4.757,16.474,16.474,0,0,1,.821-5.163A14.3,14.3,0,0,1,384,84.8a7.328,7.328,0,0,1,.838-.779,7.015,7.015,0,0,1,.982-.66,5.5,5.5,0,0,1,1.066-.457,4.732,4.732,0,0,1,1.108-.2,2.808,2.808,0,0,1,.373.034,3.35,3.35,0,0,1,.508.118,3.574,3.574,0,0,1,.525.213,1.2,1.2,0,0,1,.406.312,5.015,5.015,0,0,1,.753,1.118,3.246,3.246,0,0,1,.314,1.269,4.844,4.844,0,0,1-.178,1.532,5.82,5.82,0,0,1-.711,1.54,10.262,10.262,0,0,1-1.311,1.625,26.272,26.272,0,0,1-1.964,1.8q-.729.609-1.616,1.346a22.981,22.981,0,0,1-2.142,1.549,3.12,3.12,0,0,0,.99,2.5,4.017,4.017,0,0,0,2.717.855,7.753,7.753,0,0,0,1.947-.254,12.813,12.813,0,0,0,1.93-.669,16.1,16.1,0,0,0,1.836-.947q.89-.534,1.668-1.092,1.439-1.049,2.607-2.091t2.319-2.193l.914-.914a2.414,2.414,0,0,1,1.2-.727C401.213,89.624,401.28,89.731,401.28,89.945Zm-12.935-3.369a2.841,2.841,0,0,0-.076-.5,1.449,1.449,0,0,0-.178-.432,1.068,1.068,0,0,0-.271-.3.589.589,0,0,0-.356-.11,2.678,2.678,0,0,0-1.8,1.091,11.986,11.986,0,0,0-1.693,2.751,5.624,5.624,0,0,0-.331.838q-.143.466-.27.948t-.22.956q-.094.475-.161.847l1.626-1.219q.744-.558,1.388-1.151.406-.372.829-.8a8.31,8.31,0,0,0,.77-.906,4.525,4.525,0,0,0,.55-.981A2.539,2.539,0,0,0,388.346,86.576Z" transform="translate(-256.851 -75.589)" fill="#fff"/>
        <path id="Trazado_158298" data-name="Trazado 158298" d="M418.78,89.578a1.45,1.45,0,0,1-.153.6,4.289,4.289,0,0,1-.406.686,9.011,9.011,0,0,1-.576.719q-.321.363-.643.719-.254.288-.541.584t-.652.66q-.363.364-.855.847T413.8,95.519q-.595.577-1.313,1.21t-1.456,1.245q-.737.609-1.431,1.168t-1.2.982q-1.219,1-2.32,1.888t-2.167,1.6a6.759,6.759,0,0,1-3.352,1.423,2.736,2.736,0,0,1-.982-.22c-.384-.147-.576-.351-.576-.609a2.045,2.045,0,0,1,.829-1.727,12.37,12.37,0,0,1,2.54-1.287,11.2,11.2,0,0,0,2.54-1.321,2.089,2.089,0,0,0,.847-1.76,5.843,5.843,0,0,0-1.169-2.269q-.575-.863-1.024-1.583t-.77-1.3a5.148,5.148,0,0,1-.643-2.488,7.465,7.465,0,0,1,.423-2.388,5.625,5.625,0,0,1,.652-1.431,8.546,8.546,0,0,1,.973-1.286,5.288,5.288,0,0,1,1.067-.906,1.715,1.715,0,0,1,.947-.322q1.49,0,1.49,1.76a2.155,2.155,0,0,1-.49,1.321,6.57,6.57,0,0,1-.575.635q-.34.331-.779.7-.424.355-.72.626c-.2.181-.358.334-.482.457a5.108,5.108,0,0,0,.541,2.066q.289.577.661,1.253t.863,1.456q.491.778.829,1.4t.508.906c.011.045.074.068.187.068a2.048,2.048,0,0,0,.821-.347q.586-.347,1.388-.931t1.753-1.354q.947-.77,1.9-1.634.983-.881,1.625-1.541t1.219-1.236q.577-.575.855-.889a1.686,1.686,0,0,1,.313-.313.383.383,0,0,1,.253.1.987.987,0,0,1,.212.263,1.485,1.485,0,0,1,.144.338A1.208,1.208,0,0,1,418.78,89.578Z" transform="translate(-259.318 -75.78)" fill="#fff"/>
      </g>
    </g>
  </g>
</svg>
