<svg xmlns="http://www.w3.org/2000/svg" xmlns:xlink="http://www.w3.org/1999/xlink" width="820" height="330" viewBox="0 0 820 330">
  <defs>
    <filter id="Trazado_157240" x="147.898" y="0" width="205.837" height="110.326" filterUnits="userSpaceOnUse">
      <feOffset dy="3" input="SourceAlpha"/>
      <feGaussianBlur stdDeviation="3" result="blur"/>
      <feFlood flood-opacity="0.161"/>
      <feComposite operator="in" in2="blur"/>
      <feComposite in="SourceGraphic"/>
    </filter>
    <filter id="Trazado_157241" x="147.898" y="219.674" width="205.837" height="110.326" filterUnits="userSpaceOnUse">
      <feOffset dy="3" input="SourceAlpha"/>
      <feGaussianBlur stdDeviation="3" result="blur-2"/>
      <feFlood flood-opacity="0.161"/>
      <feComposite operator="in" in2="blur-2"/>
      <feComposite in="SourceGraphic"/>
    </filter>
    <filter id="Trazado_157242" x="37" y="109.307" width="205.837" height="110.326" filterUnits="userSpaceOnUse">
      <feOffset dy="3" input="SourceAlpha"/>
      <feGaussianBlur stdDeviation="3" result="blur-3"/>
      <feFlood flood-opacity="0.161"/>
      <feComposite operator="in" in2="blur-3"/>
      <feComposite in="SourceGraphic"/>
    </filter>
    <filter id="Trazado_157243" x="258.796" y="109.307" width="205.837" height="110.326" filterUnits="userSpaceOnUse">
      <feOffset dy="3" input="SourceAlpha"/>
      <feGaussianBlur stdDeviation="3" result="blur-4"/>
      <feFlood flood-opacity="0.161"/>
      <feComposite operator="in" in2="blur-4"/>
      <feComposite in="SourceGraphic"/>
    </filter>
  </defs>
  <g id="Grupo_107634" data-name="Grupo 107634" transform="translate(-390 -14390)">
    <rect id="Rectángulo_36941" data-name="Rectángulo 36941" width="820" height="312" transform="translate(390 14396)" fill="none"/>
    <g id="Grupo_107633" data-name="Grupo 107633" transform="translate(-124.131 12927.362)">
      <path id="Trazado_157239" data-name="Trazado 157239" d="M860.054,1508.574a146.445,146.445,0,0,0-186.8-10.281l10.711,9.938a132.109,132.109,0,1,1-39.464,44.5l6.266,4.684,3.594-30.19L626.418,1539.2l6.478,4.843a146.413,146.413,0,1,0,227.158-35.473Z" transform="translate(3.303 0.053)" fill="#d2e1f1"/>
      <rect id="Rectángulo_37071" data-name="Rectángulo 37071" width="184.051" height="89.025" rx="13.071" transform="translate(1103.282 1470.218)" fill="#bae887" stroke="#75b62f" stroke-miterlimit="10" stroke-width="2"/>
      <rect id="Rectángulo_37072" data-name="Rectángulo 37072" width="184.051" height="89.025" rx="13.071" transform="translate(1103.282 1679.276)" fill="#f8dcd0" stroke="#f85316" stroke-miterlimit="10" stroke-width="2"/>
      <path id="Trazado_157250" data-name="Trazado 157250" d="M-54.491-3.286A4.272,4.272,0,0,1-55.929-.219,5.052,5.052,0,0,1-59.349.9,4.543,4.543,0,0,1-63-.662a6.408,6.408,0,0,1-1.331-4.29v-.738a7.236,7.236,0,0,1,.614-3.068,4.6,4.6,0,0,1,1.754-2.035,4.912,4.912,0,0,1,2.649-.709,4.921,4.921,0,0,1,3.366,1.119,4.59,4.59,0,0,1,1.476,3.142h-2.487a2.521,2.521,0,0,0-.651-1.7,2.41,2.41,0,0,0-1.7-.526,2.113,2.113,0,0,0-1.861.891,5,5,0,0,0-.634,2.765v.912a5.346,5.346,0,0,0,.593,2.86,2.074,2.074,0,0,0,1.87.9,2.456,2.456,0,0,0,1.72-.526,2.378,2.378,0,0,0,.651-1.629Zm1.1-.547a5.32,5.32,0,0,1,.514-2.379,3.763,3.763,0,0,1,1.48-1.617A4.318,4.318,0,0,1-49.152-8.4a4.085,4.085,0,0,1,2.964,1.111,4.459,4.459,0,0,1,1.281,3.018l.017.614A4.689,4.689,0,0,1-46.042-.347,4.006,4.006,0,0,1-49.135.9a4.026,4.026,0,0,1-3.1-1.244,4.771,4.771,0,0,1-1.157-3.383Zm2.4.17a3.353,3.353,0,0,0,.481,1.955,1.586,1.586,0,0,0,1.376.677,1.59,1.59,0,0,0,1.36-.668,3.669,3.669,0,0,0,.489-2.138,3.32,3.32,0,0,0-.489-1.943,1.59,1.59,0,0,0-1.376-.689,1.564,1.564,0,0,0-1.36.685A3.731,3.731,0,0,0-50.992-3.663Zm9.783-4.573.075,1.036a3.132,3.132,0,0,1,2.578-1.2,2.6,2.6,0,0,1,2.122.837,3.907,3.907,0,0,1,.713,2.5v5.8h-2.4V-5a1.554,1.554,0,0,0-.332-1.107,1.485,1.485,0,0,0-1.1-.344,1.648,1.648,0,0,0-1.517.862V.735h-2.4V-8.236Zm10.173-2.205v2.205H-29.5v1.758h-1.534V-2a1.069,1.069,0,0,0,.191.713.958.958,0,0,0,.73.216,3.821,3.821,0,0,0,.7-.058V.685A4.933,4.933,0,0,1-30.862.9a2.288,2.288,0,0,1-2.57-2.545V-6.478h-1.31V-8.236h1.31v-2.205Zm7.909,4.452a6.509,6.509,0,0,0-.862-.066,1.755,1.755,0,0,0-1.783.92V.735h-2.4V-8.236H-25.9l.066,1.07a2.22,2.22,0,0,1,2-1.235,2.511,2.511,0,0,1,.746.108Zm.481,2.156a5.32,5.32,0,0,1,.514-2.379,3.763,3.763,0,0,1,1.48-1.617A4.318,4.318,0,0,1-18.409-8.4a4.085,4.085,0,0,1,2.964,1.111,4.459,4.459,0,0,1,1.281,3.018l.017.614A4.689,4.689,0,0,1-15.3-.347,4.006,4.006,0,0,1-18.393.9a4.026,4.026,0,0,1-3.1-1.244,4.771,4.771,0,0,1-1.157-3.383Zm2.4.17a3.353,3.353,0,0,0,.481,1.955,1.586,1.586,0,0,0,1.376.677,1.59,1.59,0,0,0,1.36-.668,3.669,3.669,0,0,0,.489-2.138,3.32,3.32,0,0,0-.489-1.943,1.59,1.59,0,0,0-1.376-.689,1.564,1.564,0,0,0-1.36.685A3.731,3.731,0,0,0-20.25-3.663Zm10.107,4.4h-2.4V-12h2.4Zm14.277-4.4a5.38,5.38,0,0,1-.941,3.32A3.017,3.017,0,0,1,.651.9a2.8,2.8,0,0,1-2.2-.945V4.184h-2.4V-8.236H-1.72l.083.879A2.816,2.816,0,0,1,.635-8.4,3.038,3.038,0,0,1,3.213-7.175a5.526,5.526,0,0,1,.92,3.383Zm-2.4-.174a3.531,3.531,0,0,0-.444-1.932A1.445,1.445,0,0,0,0-6.453a1.569,1.569,0,0,0-1.55.862v3.673a1.6,1.6,0,0,0,1.567.887Q1.737-1.031,1.737-3.842Zm8.921-2.147A6.509,6.509,0,0,0,9.8-6.055a1.755,1.755,0,0,0-1.783.92V.735h-2.4V-8.236H7.881l.066,1.07a2.22,2.22,0,0,1,2-1.235,2.511,2.511,0,0,1,.746.108ZM15.782.9A4.4,4.4,0,0,1,12.569-.31,4.3,4.3,0,0,1,11.33-3.535v-.232a5.419,5.419,0,0,1,.522-2.417,3.833,3.833,0,0,1,1.48-1.642A4.154,4.154,0,0,1,15.517-8.4a3.723,3.723,0,0,1,2.9,1.161A4.716,4.716,0,0,1,19.472-3.95v.978H13.759a2.226,2.226,0,0,0,.7,1.409,2.118,2.118,0,0,0,1.48.531,2.586,2.586,0,0,0,2.164-1L19.281-.716A3.6,3.6,0,0,1,17.822.474,4.787,4.787,0,0,1,15.782.9ZM15.509-6.47a1.5,1.5,0,0,0-1.157.483A2.5,2.5,0,0,0,13.784-4.6h3.333V-4.8a1.784,1.784,0,0,0-.431-1.237A1.545,1.545,0,0,0,15.509-6.47ZM23.36.735h-2.4V-12h2.4Zm4.5,0h-2.4V-8.236h2.4ZM25.317-10.557a1.18,1.18,0,0,1,.361-.887,1.355,1.355,0,0,1,.982-.348,1.358,1.358,0,0,1,.978.348,1.173,1.173,0,0,1,.365.887,1.176,1.176,0,0,1-.369.9,1.361,1.361,0,0,1-.974.348,1.361,1.361,0,0,1-.974-.348A1.176,1.176,0,0,1,25.317-10.557Zm6.765,2.321.075,1A3.153,3.153,0,0,1,34.735-8.4a2.393,2.393,0,0,1,2.379,1.368A3.08,3.08,0,0,1,39.809-8.4a2.676,2.676,0,0,1,2.172.85,3.906,3.906,0,0,1,.713,2.558V.735h-2.4V-4.986a1.708,1.708,0,0,0-.3-1.115,1.323,1.323,0,0,0-1.053-.352,1.5,1.5,0,0,0-1.492,1.028l.008,6.16h-2.4V-4.978a1.687,1.687,0,0,0-.307-1.128,1.336,1.336,0,0,0-1.045-.348,1.553,1.553,0,0,0-1.476.846V.735h-2.4V-8.236ZM47.063.735h-2.4V-8.236h2.4ZM44.518-10.557a1.18,1.18,0,0,1,.361-.887,1.355,1.355,0,0,1,.982-.348,1.358,1.358,0,0,1,.978.348,1.173,1.173,0,0,1,.365.887,1.176,1.176,0,0,1-.369.9,1.361,1.361,0,0,1-.974.348,1.361,1.361,0,0,1-.974-.348A1.176,1.176,0,0,1,44.518-10.557Zm6.724,2.321L51.317-7.2a3.132,3.132,0,0,1,2.578-1.2,2.6,2.6,0,0,1,2.122.837,3.907,3.907,0,0,1,.713,2.5v5.8h-2.4V-5A1.554,1.554,0,0,0,54-6.109a1.485,1.485,0,0,0-1.1-.344,1.648,1.648,0,0,0-1.517.862V.735h-2.4V-8.236ZM63.744.735a2.661,2.661,0,0,1-.24-.8A2.9,2.9,0,0,1,61.241.9,3.185,3.185,0,0,1,59.056.138a2.453,2.453,0,0,1-.866-1.923,2.535,2.535,0,0,1,1.057-2.189A5.216,5.216,0,0,1,62.3-4.746h1.1V-5.26a1.478,1.478,0,0,0-.319-.995,1.256,1.256,0,0,0-1.007-.373,1.428,1.428,0,0,0-.949.29.986.986,0,0,0-.344.8h-2.4a2.407,2.407,0,0,1,.481-1.443,3.179,3.179,0,0,1,1.36-1.04A4.955,4.955,0,0,1,62.2-8.4a3.915,3.915,0,0,1,2.632.833,2.915,2.915,0,0,1,.974,2.342v3.888A4.289,4.289,0,0,0,66.165.594V.735ZM61.763-.932a2.064,2.064,0,0,0,.978-.236A1.552,1.552,0,0,0,63.4-1.8V-3.344h-.9q-1.8,0-1.915,1.244l-.008.141a.959.959,0,0,0,.315.738A1.224,1.224,0,0,0,61.763-.932ZM72.69-5.989a6.509,6.509,0,0,0-.862-.066,1.755,1.755,0,0,0-1.783.92V.735h-2.4V-8.236h2.263l.066,1.07a2.22,2.22,0,0,1,2-1.235,2.511,2.511,0,0,1,.746.108ZM-32.81,15.385l1.658-5.58h2.57l-3.607,10.364-.2.473A2.734,2.734,0,0,1-35.041,22.4a3.77,3.77,0,0,1-1.061-.158V20.425l.365.008a1.971,1.971,0,0,0,1.016-.207,1.362,1.362,0,0,0,.526-.688l.282-.738-3.142-9h2.578Zm13.133,1.625a1.572,1.572,0,0,0,1.078-.365,1.278,1.278,0,0,0,.431-.97h2.247a3.074,3.074,0,0,1-.5,1.671,3.282,3.282,0,0,1-1.339,1.177,4.191,4.191,0,0,1-1.878.419,3.9,3.9,0,0,1-3.034-1.223,4.839,4.839,0,0,1-1.111-3.379v-.158a4.784,4.784,0,0,1,1.1-3.308,3.849,3.849,0,0,1,3.026-1.235,3.773,3.773,0,0,1,2.7.958,3.391,3.391,0,0,1,1.032,2.549h-2.247a1.646,1.646,0,0,0-.431-1.138,1.437,1.437,0,0,0-1.094-.438,1.443,1.443,0,0,0-1.264.61,3.537,3.537,0,0,0-.427,1.98v.249a3.582,3.582,0,0,0,.423,1.993A1.461,1.461,0,0,0-19.678,17.01Zm4.751-2.8a5.32,5.32,0,0,1,.514-2.379,3.763,3.763,0,0,1,1.48-1.617,4.318,4.318,0,0,1,2.243-.572A4.085,4.085,0,0,1-7.726,10.75a4.459,4.459,0,0,1,1.281,3.018l.017.614a4.689,4.689,0,0,1-1.152,3.312,4.006,4.006,0,0,1-3.092,1.248,4.026,4.026,0,0,1-3.1-1.244,4.771,4.771,0,0,1-1.157-3.383Zm2.4.17a3.353,3.353,0,0,0,.481,1.955,1.586,1.586,0,0,0,1.376.677,1.59,1.59,0,0,0,1.36-.668A3.669,3.669,0,0,0-8.825,14.2a3.32,3.32,0,0,0-.489-1.943,1.59,1.59,0,0,0-1.376-.689,1.564,1.564,0,0,0-1.36.685A3.731,3.731,0,0,0-12.531,14.377Zm10.107,4.4h-2.4V6.041h2.4Zm6.1.166a4.4,4.4,0,0,1-3.213-1.21A4.3,4.3,0,0,1-.775,14.506v-.232a5.419,5.419,0,0,1,.522-2.417,3.833,3.833,0,0,1,1.48-1.642,4.154,4.154,0,0,1,2.185-.576A3.723,3.723,0,0,1,6.31,10.8a4.716,4.716,0,0,1,1.057,3.291v.978H1.655a2.226,2.226,0,0,0,.7,1.409,2.118,2.118,0,0,0,1.48.531,2.586,2.586,0,0,0,2.164-1l1.177,1.318a3.6,3.6,0,0,1-1.459,1.19A4.787,4.787,0,0,1,3.678,18.941ZM3.4,11.571a1.5,1.5,0,0,0-1.157.483,2.5,2.5,0,0,0-.568,1.382H5.012v-.192a1.784,1.784,0,0,0-.431-1.237A1.545,1.545,0,0,0,3.4,11.571Zm9.054,5.439a1.572,1.572,0,0,0,1.078-.365,1.278,1.278,0,0,0,.431-.97h2.247a3.073,3.073,0,0,1-.5,1.671,3.282,3.282,0,0,1-1.339,1.177,4.191,4.191,0,0,1-1.878.419,3.9,3.9,0,0,1-3.034-1.223A4.839,4.839,0,0,1,8.354,14.34v-.158a4.784,4.784,0,0,1,1.1-3.308,3.849,3.849,0,0,1,3.026-1.235,3.773,3.773,0,0,1,2.7.958,3.391,3.391,0,0,1,1.032,2.549H13.966a1.646,1.646,0,0,0-.431-1.138,1.437,1.437,0,0,0-1.094-.438,1.443,1.443,0,0,0-1.264.61,3.537,3.537,0,0,0-.427,1.98v.249a3.582,3.582,0,0,0,.423,1.993A1.461,1.461,0,0,0,12.457,17.01ZM20.45,7.6V9.8h1.534v1.758H20.45V16.04a1.069,1.069,0,0,0,.191.713.958.958,0,0,0,.73.216,3.821,3.821,0,0,0,.7-.058v1.816a4.933,4.933,0,0,1-1.451.216,2.288,2.288,0,0,1-2.57-2.545V11.562h-1.31V9.8h1.31V7.6Zm5.4,11.176h-2.4V9.8h2.4ZM23.3,7.483a1.18,1.18,0,0,1,.361-.887,1.554,1.554,0,0,1,1.961,0,1.173,1.173,0,0,1,.365.887,1.176,1.176,0,0,1-.369.9,1.537,1.537,0,0,1-1.948,0A1.176,1.176,0,0,1,23.3,7.483Zm7.876,8.365L32.845,9.8h2.5l-3.026,8.971H30.034L27.008,9.8h2.5ZM35.9,14.207a5.32,5.32,0,0,1,.514-2.379,3.763,3.763,0,0,1,1.48-1.617,4.318,4.318,0,0,1,2.243-.572A4.085,4.085,0,0,1,43.1,10.75a4.459,4.459,0,0,1,1.281,3.018l.017.614a4.689,4.689,0,0,1-1.152,3.312,4.467,4.467,0,0,1-6.189,0A4.771,4.771,0,0,1,35.9,14.315Zm2.4.17a3.353,3.353,0,0,0,.481,1.955,1.727,1.727,0,0,0,2.736.008,3.669,3.669,0,0,0,.489-2.138,3.32,3.32,0,0,0-.489-1.943,1.59,1.59,0,0,0-1.376-.689,1.564,1.564,0,0,0-1.36.685A3.731,3.731,0,0,0,38.3,14.377Z" transform="translate(1190.274 1510.008)" fill="#12263f"/>
      <path id="Trazado_157251" data-name="Trazado 157251" d="M-61.26-3.286A4.272,4.272,0,0,1-62.7-.219,5.052,5.052,0,0,1-66.119.9,4.543,4.543,0,0,1-69.771-.662,6.408,6.408,0,0,1-71.1-4.953v-.738a7.236,7.236,0,0,1,.614-3.068,4.6,4.6,0,0,1,1.754-2.035,4.912,4.912,0,0,1,2.649-.709,4.921,4.921,0,0,1,3.366,1.119,4.59,4.59,0,0,1,1.476,3.142h-2.487a2.521,2.521,0,0,0-.651-1.7,2.41,2.41,0,0,0-1.7-.526,2.113,2.113,0,0,0-1.861.891,5,5,0,0,0-.634,2.765v.912a5.346,5.346,0,0,0,.593,2.86,2.074,2.074,0,0,0,1.87.9,2.456,2.456,0,0,0,1.72-.526,2.378,2.378,0,0,0,.651-1.629Zm1.1-.547a5.32,5.32,0,0,1,.514-2.379,3.763,3.763,0,0,1,1.48-1.617A4.318,4.318,0,0,1-55.921-8.4a4.085,4.085,0,0,1,2.964,1.111,4.459,4.459,0,0,1,1.281,3.018l.017.614A4.689,4.689,0,0,1-52.812-.347,4.006,4.006,0,0,1-55.9.9,4.026,4.026,0,0,1-59-.343a4.771,4.771,0,0,1-1.157-3.383Zm2.4.17a3.353,3.353,0,0,0,.481,1.955,1.586,1.586,0,0,0,1.376.677,1.59,1.59,0,0,0,1.36-.668,3.669,3.669,0,0,0,.489-2.138,3.32,3.32,0,0,0-.489-1.943,1.59,1.59,0,0,0-1.376-.689,1.564,1.564,0,0,0-1.36.685A3.731,3.731,0,0,0-57.762-3.663Zm9.783-4.573L-47.9-7.2a3.132,3.132,0,0,1,2.578-1.2,2.6,2.6,0,0,1,2.122.837,3.907,3.907,0,0,1,.713,2.5v5.8h-2.4V-5a1.554,1.554,0,0,0-.332-1.107,1.485,1.485,0,0,0-1.1-.344,1.648,1.648,0,0,0-1.517.862V.735h-2.4V-8.236Zm10.173-2.205v2.205h1.534v1.758h-1.534V-2a1.069,1.069,0,0,0,.191.713.958.958,0,0,0,.73.216,3.821,3.821,0,0,0,.7-.058V.685A4.933,4.933,0,0,1-37.632.9,2.288,2.288,0,0,1-40.2-1.645V-6.478h-1.31V-8.236h1.31v-2.205ZM-29.9-5.989a6.509,6.509,0,0,0-.862-.066,1.755,1.755,0,0,0-1.783.92V.735h-2.4V-8.236h2.263l.066,1.07a2.22,2.22,0,0,1,2-1.235,2.511,2.511,0,0,1,.746.108Zm.481,2.156A5.32,5.32,0,0,1-28.9-6.213a3.763,3.763,0,0,1,1.48-1.617A4.318,4.318,0,0,1-25.179-8.4a4.085,4.085,0,0,1,2.964,1.111,4.459,4.459,0,0,1,1.281,3.018l.017.614A4.689,4.689,0,0,1-22.07-.347,4.006,4.006,0,0,1-25.162.9a4.026,4.026,0,0,1-3.1-1.244,4.771,4.771,0,0,1-1.157-3.383Zm2.4.17a3.353,3.353,0,0,0,.481,1.955,1.586,1.586,0,0,0,1.376.677A1.59,1.59,0,0,0-23.8-1.7a3.669,3.669,0,0,0,.489-2.138A3.32,3.32,0,0,0-23.8-5.781a1.59,1.59,0,0,0-1.376-.689,1.564,1.564,0,0,0-1.36.685A3.731,3.731,0,0,0-27.019-3.663Zm10.107,4.4h-2.4V-12h2.4ZM-6.98-1.031A1.572,1.572,0,0,0-5.9-1.4a1.278,1.278,0,0,0,.431-.97h2.247A3.073,3.073,0,0,1-3.722-.7,3.282,3.282,0,0,1-5.061.482,4.191,4.191,0,0,1-6.939.9,3.894,3.894,0,0,1-9.973-.322,4.839,4.839,0,0,1-11.084-3.7v-.158a4.784,4.784,0,0,1,1.1-3.308A3.849,3.849,0,0,1-6.956-8.4a3.773,3.773,0,0,1,2.7.958A3.391,3.391,0,0,1-3.225-4.895H-5.471A1.646,1.646,0,0,0-5.9-6.032,1.437,1.437,0,0,0-7-6.47a1.443,1.443,0,0,0-1.264.61,3.537,3.537,0,0,0-.427,1.98v.249a3.582,3.582,0,0,0,.423,1.993A1.461,1.461,0,0,0-6.98-1.031Zm4.751-2.8a5.32,5.32,0,0,1,.514-2.379A3.763,3.763,0,0,1-.236-7.83,4.318,4.318,0,0,1,2.007-8.4,4.085,4.085,0,0,1,4.971-7.291,4.459,4.459,0,0,1,6.252-4.273l.017.614A4.689,4.689,0,0,1,5.116-.347,4.006,4.006,0,0,1,2.023.9a4.026,4.026,0,0,1-3.1-1.244A4.771,4.771,0,0,1-2.23-3.726Zm2.4.17A3.353,3.353,0,0,0,.647-1.708a1.586,1.586,0,0,0,1.376.677A1.59,1.59,0,0,0,3.383-1.7a3.669,3.669,0,0,0,.489-2.138,3.32,3.32,0,0,0-.489-1.943A1.59,1.59,0,0,0,2.007-6.47a1.564,1.564,0,0,0-1.36.685A3.731,3.731,0,0,0,.166-3.663ZM9.949-8.236,10.024-7.2A3.132,3.132,0,0,1,12.6-8.4a2.6,2.6,0,0,1,2.122.837,3.907,3.907,0,0,1,.713,2.5v5.8h-2.4V-5a1.554,1.554,0,0,0-.332-1.107,1.485,1.485,0,0,0-1.1-.344,1.648,1.648,0,0,0-1.517.862V.735h-2.4V-8.236Zm11.035,7.2A1.572,1.572,0,0,0,22.062-1.4a1.278,1.278,0,0,0,.431-.97H24.74a3.073,3.073,0,0,1-.5,1.671A3.282,3.282,0,0,1,22.9.482,4.191,4.191,0,0,1,21.026.9,3.9,3.9,0,0,1,17.992-.322,4.839,4.839,0,0,1,16.881-3.7v-.158a4.784,4.784,0,0,1,1.1-3.308A3.849,3.849,0,0,1,21.009-8.4a3.773,3.773,0,0,1,2.7.958A3.39,3.39,0,0,1,24.74-4.895H22.493a1.646,1.646,0,0,0-.431-1.138,1.437,1.437,0,0,0-1.094-.438,1.443,1.443,0,0,0-1.264.61,3.537,3.537,0,0,0-.427,1.98v.249A3.582,3.582,0,0,0,19.7-1.637,1.461,1.461,0,0,0,20.985-1.031Zm10.5.854A3,3,0,0,1,29.027.9a2.834,2.834,0,0,1-2.2-.829,3.539,3.539,0,0,1-.775-2.429V-8.236h2.4v5.8q0,1.4,1.277,1.4A1.73,1.73,0,0,0,31.4-1.878V-8.236h2.4V.735H31.547Zm9.17-5.812a6.509,6.509,0,0,0-.862-.066,1.755,1.755,0,0,0-1.783.92V.735h-2.4V-8.236h2.263l.066,1.07a2.22,2.22,0,0,1,2-1.235,2.511,2.511,0,0,1,.746.108Zm6.193,0a6.51,6.51,0,0,0-.862-.066,1.755,1.755,0,0,0-1.783.92V.735H41.8V-8.236h2.263l.066,1.07a2.22,2.22,0,0,1,2-1.235,2.511,2.511,0,0,1,.746.108ZM51.967.9A4.4,4.4,0,0,1,48.755-.31a4.3,4.3,0,0,1-1.239-3.225v-.232a5.419,5.419,0,0,1,.522-2.417,3.833,3.833,0,0,1,1.48-1.642A4.154,4.154,0,0,1,51.7-8.4a3.723,3.723,0,0,1,2.9,1.161A4.717,4.717,0,0,1,55.657-3.95v.978H49.944a2.226,2.226,0,0,0,.7,1.409,2.118,2.118,0,0,0,1.48.531,2.586,2.586,0,0,0,2.164-1L55.466-.716A3.6,3.6,0,0,1,54.007.474,4.787,4.787,0,0,1,51.967.9ZM51.694-6.47a1.5,1.5,0,0,0-1.157.483A2.5,2.5,0,0,0,49.969-4.6H53.3V-4.8a1.784,1.784,0,0,0-.431-1.237A1.545,1.545,0,0,0,51.694-6.47Zm7.528-1.766L59.3-7.2a3.132,3.132,0,0,1,2.578-1.2A2.6,2.6,0,0,1,64-7.564a3.907,3.907,0,0,1,.713,2.5v5.8h-2.4V-5a1.554,1.554,0,0,0-.332-1.107,1.485,1.485,0,0,0-1.1-.344,1.648,1.648,0,0,0-1.517.862V.735h-2.4V-8.236Zm10.173-2.205v2.205h1.534v1.758H69.395V-2a1.069,1.069,0,0,0,.191.713.958.958,0,0,0,.73.216,3.821,3.821,0,0,0,.7-.058V.685A4.933,4.933,0,0,1,69.569.9,2.288,2.288,0,0,1,67-1.645V-6.478h-1.31V-8.236H67v-2.205ZM76.392.9A4.4,4.4,0,0,1,73.179-.31,4.3,4.3,0,0,1,71.94-3.535v-.232a5.419,5.419,0,0,1,.522-2.417,3.833,3.833,0,0,1,1.48-1.642A4.154,4.154,0,0,1,76.127-8.4a3.723,3.723,0,0,1,2.9,1.161A4.716,4.716,0,0,1,80.081-3.95v.978H74.369a2.226,2.226,0,0,0,.7,1.409,2.118,2.118,0,0,0,1.48.531,2.586,2.586,0,0,0,2.164-1L79.891-.716A3.6,3.6,0,0,1,78.432.474,4.787,4.787,0,0,1,76.392.9ZM76.118-6.47a1.5,1.5,0,0,0-1.157.483A2.5,2.5,0,0,0,74.394-4.6h3.333V-4.8A1.784,1.784,0,0,0,77.3-6.033,1.545,1.545,0,0,0,76.118-6.47ZM-47.937,14.207a5.32,5.32,0,0,1,.514-2.379,3.763,3.763,0,0,1,1.48-1.617A4.318,4.318,0,0,1-43.7,9.639a4.085,4.085,0,0,1,2.964,1.111,4.459,4.459,0,0,1,1.281,3.018l.017.614a4.689,4.689,0,0,1-1.152,3.312,4.006,4.006,0,0,1-3.092,1.248,4.026,4.026,0,0,1-3.1-1.244,4.771,4.771,0,0,1-1.157-3.383Zm2.4.17a3.353,3.353,0,0,0,.481,1.955,1.586,1.586,0,0,0,1.376.677,1.59,1.59,0,0,0,1.36-.668,3.669,3.669,0,0,0,.489-2.138,3.32,3.32,0,0,0-.489-1.943,1.59,1.59,0,0,0-1.376-.689,1.564,1.564,0,0,0-1.36.685A3.731,3.731,0,0,0-45.541,14.377Zm19.881,0a5.38,5.38,0,0,1-.941,3.32,3.017,3.017,0,0,1-2.541,1.248,2.8,2.8,0,0,1-2.2-.945v4.228h-2.4V9.8h2.222l.083.879a2.816,2.816,0,0,1,2.272-1.045,3.038,3.038,0,0,1,2.578,1.227,5.526,5.526,0,0,1,.92,3.383Zm-2.4-.174a3.531,3.531,0,0,0-.444-1.932,1.445,1.445,0,0,0-1.289-.68,1.569,1.569,0,0,0-1.55.862v3.673a1.6,1.6,0,0,0,1.567.887Q-28.056,17.01-28.056,14.2Zm8.009,4.742a4.4,4.4,0,0,1-3.213-1.21A4.3,4.3,0,0,1-24.5,14.506v-.232a5.419,5.419,0,0,1,.522-2.417,3.833,3.833,0,0,1,1.48-1.642,4.154,4.154,0,0,1,2.185-.576,3.723,3.723,0,0,1,2.9,1.161,4.716,4.716,0,0,1,1.057,3.291v.978H-22.07a2.226,2.226,0,0,0,.7,1.409,2.118,2.118,0,0,0,1.48.531,2.586,2.586,0,0,0,2.164-1l1.177,1.318a3.6,3.6,0,0,1-1.459,1.19A4.787,4.787,0,0,1-20.047,18.941Zm-.274-7.371a1.5,1.5,0,0,0-1.157.483,2.5,2.5,0,0,0-.568,1.382h3.333v-.192a1.784,1.784,0,0,0-.431-1.237A1.545,1.545,0,0,0-20.32,11.571Zm10.364.481a6.51,6.51,0,0,0-.862-.066,1.755,1.755,0,0,0-1.783.92v5.87H-15V9.8h2.263l.066,1.07a2.22,2.22,0,0,1,2-1.235,2.511,2.511,0,0,1,.746.108Zm3.4-2.247.075,1A3.153,3.153,0,0,1-3.9,9.639a2.393,2.393,0,0,1,2.379,1.368A3.08,3.08,0,0,1,1.169,9.639a2.676,2.676,0,0,1,2.172.85,3.906,3.906,0,0,1,.713,2.558v5.729H1.65V13.055a1.708,1.708,0,0,0-.3-1.115A1.323,1.323,0,0,0,.3,11.587a1.5,1.5,0,0,0-1.492,1.028l.008,6.16h-2.4V13.063a1.687,1.687,0,0,0-.307-1.128,1.336,1.336,0,0,0-1.045-.348,1.553,1.553,0,0,0-1.476.846v6.342H-8.8V9.8Zm17.651,8.971a2.661,2.661,0,0,1-.24-.8,2.9,2.9,0,0,1-2.263.97,3.185,3.185,0,0,1-2.185-.763,2.453,2.453,0,0,1-.866-1.923A2.535,2.535,0,0,1,6.6,14.066,5.216,5.216,0,0,1,9.651,13.3h1.1v-.514a1.478,1.478,0,0,0-.319-.995,1.256,1.256,0,0,0-1.007-.373,1.428,1.428,0,0,0-.949.29.986.986,0,0,0-.344.8h-2.4a2.407,2.407,0,0,1,.481-1.443,3.179,3.179,0,0,1,1.36-1.04,4.955,4.955,0,0,1,1.973-.377,3.915,3.915,0,0,1,2.632.833,2.915,2.915,0,0,1,.974,2.342V16.7a4.289,4.289,0,0,0,.357,1.932v.141ZM9.112,17.109a2.064,2.064,0,0,0,.978-.236,1.552,1.552,0,0,0,.663-.634V14.7h-.9q-1.8,0-1.915,1.244l-.008.141a.959.959,0,0,0,.315.738A1.224,1.224,0,0,0,9.112,17.109ZM17.2,9.8l.075,1.036a3.132,3.132,0,0,1,2.578-1.2,2.6,2.6,0,0,1,2.122.837,3.907,3.907,0,0,1,.713,2.5v5.8H20.3V13.038a1.554,1.554,0,0,0-.332-1.107,1.485,1.485,0,0,0-1.1-.344,1.648,1.648,0,0,0-1.517.862v6.326h-2.4V9.8Zm11.433,9.136a4.4,4.4,0,0,1-3.213-1.21,4.3,4.3,0,0,1-1.239-3.225v-.232a5.419,5.419,0,0,1,.522-2.417,3.833,3.833,0,0,1,1.48-1.642,4.154,4.154,0,0,1,2.185-.576,3.723,3.723,0,0,1,2.9,1.161,4.716,4.716,0,0,1,1.057,3.291v.978H26.614a2.226,2.226,0,0,0,.7,1.409,2.118,2.118,0,0,0,1.48.531,2.586,2.586,0,0,0,2.164-1l1.177,1.318a3.6,3.6,0,0,1-1.459,1.19A4.787,4.787,0,0,1,28.637,18.941Zm-.274-7.371a1.5,1.5,0,0,0-1.157.483,2.5,2.5,0,0,0-.568,1.382h3.333v-.192a1.784,1.784,0,0,0-.431-1.237A1.545,1.545,0,0,0,28.363,11.571ZM35.891,9.8l.075,1.036a3.132,3.132,0,0,1,2.578-1.2,2.6,2.6,0,0,1,2.122.837,3.907,3.907,0,0,1,.713,2.5v5.8h-2.4V13.038a1.554,1.554,0,0,0-.332-1.107,1.485,1.485,0,0,0-1.1-.344,1.648,1.648,0,0,0-1.517.862v6.326h-2.4V9.8ZM46.064,7.6V9.8H47.6v1.758H46.064V16.04a1.069,1.069,0,0,0,.191.713.958.958,0,0,0,.73.216,3.821,3.821,0,0,0,.7-.058v1.816a4.933,4.933,0,0,1-1.451.216,2.288,2.288,0,0,1-2.57-2.545V11.562h-1.31V9.8h1.31V7.6Zm7,11.342a4.4,4.4,0,0,1-3.213-1.21,4.3,4.3,0,0,1-1.239-3.225v-.232a5.419,5.419,0,0,1,.522-2.417,3.833,3.833,0,0,1,1.48-1.642A4.154,4.154,0,0,1,52.8,9.639a3.723,3.723,0,0,1,2.9,1.161,4.716,4.716,0,0,1,1.057,3.291v.978H51.039a2.226,2.226,0,0,0,.7,1.409,2.118,2.118,0,0,0,1.48.531,2.586,2.586,0,0,0,2.164-1l1.177,1.318a3.6,3.6,0,0,1-1.459,1.19A4.787,4.787,0,0,1,53.062,18.941Zm-.274-7.371a1.5,1.5,0,0,0-1.157.483,2.5,2.5,0,0,0-.568,1.382H54.4v-.192a1.784,1.784,0,0,0-.431-1.237A1.545,1.545,0,0,0,52.788,11.571Z" transform="translate(1189.859 1719.069)" fill="#12263f"/>
      <g id="Grupo_107632" data-name="Grupo 107632" transform="translate(560.131 1468.638)">
        <g transform="matrix(1, 0, 0, 1, -46, -6)" filter="url(#Trazado_157240)">
          <path id="Trazado_157240-2" data-name="Trazado 157240" d="M836.474,1560.964H680.625a16.011,16.011,0,0,1-15.994-15.994v-60.338a16.012,16.012,0,0,1,15.994-15.995H836.474a16.012,16.012,0,0,1,15.994,15.995v60.338A16.011,16.011,0,0,1,836.474,1560.964Zm-155.849-88.082a11.763,11.763,0,0,0-11.749,11.75v60.338a11.761,11.761,0,0,0,11.749,11.749H836.474a11.762,11.762,0,0,0,11.749-11.749v-60.338a11.763,11.763,0,0,0-11.749-11.75Z" transform="translate(-507.73 -1462.64)" fill="#fff"/>
        </g>
        <g transform="matrix(1, 0, 0, 1, -46, -6)" filter="url(#Trazado_157241)">
          <path id="Trazado_157241-2" data-name="Trazado 157241" d="M836.474,1767.964H680.625a16.011,16.011,0,0,1-15.994-15.994v-60.338a16.012,16.012,0,0,1,15.994-15.995H836.474a16.012,16.012,0,0,1,15.994,15.995v60.338A16.011,16.011,0,0,1,836.474,1767.964Zm-155.849-88.082a11.763,11.763,0,0,0-11.749,11.75v60.338a11.761,11.761,0,0,0,11.749,11.749H836.474a11.761,11.761,0,0,0,11.749-11.749v-60.338a11.763,11.763,0,0,0-11.749-11.75Z" transform="translate(-507.73 -1449.96)" fill="#fff"/>
        </g>
        <g transform="matrix(1, 0, 0, 1, -46, -6)" filter="url(#Trazado_157242)">
          <path id="Trazado_157242-2" data-name="Trazado 157242" d="M731.974,1663.964H576.125a16.011,16.011,0,0,1-15.994-15.993v-60.338a16.012,16.012,0,0,1,15.994-15.995H731.974a16.012,16.012,0,0,1,15.994,15.995v60.338A16.011,16.011,0,0,1,731.974,1663.964Zm-155.849-88.081a11.762,11.762,0,0,0-11.749,11.75v60.338a11.761,11.761,0,0,0,11.749,11.749H731.974a11.761,11.761,0,0,0,11.749-11.749v-60.338a11.762,11.762,0,0,0-11.749-11.75Z" transform="translate(-514.13 -1456.33)" fill="#fff"/>
        </g>
        <g transform="matrix(1, 0, 0, 1, -46, -6)" filter="url(#Trazado_157243)">
          <path id="Trazado_157243-2" data-name="Trazado 157243" d="M940.974,1663.964H785.125a16.011,16.011,0,0,1-15.994-15.993v-60.338a16.012,16.012,0,0,1,15.994-15.995H940.974a16.012,16.012,0,0,1,15.994,15.995v60.338A16.011,16.011,0,0,1,940.974,1663.964Zm-155.849-88.081a11.762,11.762,0,0,0-11.749,11.75v60.338a11.761,11.761,0,0,0,11.749,11.749H940.974a11.762,11.762,0,0,0,11.749-11.749v-60.338a11.763,11.763,0,0,0-11.749-11.75Z" transform="translate(-501.34 -1456.33)" fill="#fff"/>
        </g>
        <rect id="Rectángulo_37073" data-name="Rectángulo 37073" width="183.592" height="88.082" rx="13.071" transform="translate(113.021 2.123)" fill="#3d46c2"/>
        <rect id="Rectángulo_37074" data-name="Rectángulo 37074" width="183.592" height="88.082" rx="13.071" transform="translate(113.021 221.796)" fill="#3d46c2"/>
        <rect id="Rectángulo_37075" data-name="Rectángulo 37075" width="183.051" height="88.025" rx="13.071" transform="translate(2 111.611)" fill="#3d46c2"/>
        <rect id="Rectángulo_37076" data-name="Rectángulo 37076" width="184.051" height="88.025" rx="13.071" transform="translate(223.062 111.611)" fill="#3d46c2"/>
        <path id="Trazado_157246" data-name="Trazado 157246" d="M-44.785.745V-11.327h3.408a5.485,5.485,0,0,1,2.786.7,4.71,4.71,0,0,1,1.87,1.982A6.45,6.45,0,0,1-36.055-5.7v.771a6.472,6.472,0,0,1-.659,2.993A4.636,4.636,0,0,1-38.6.04a5.835,5.835,0,0,1-2.848.7Zm1.592-10.77V-.557h1.675A3.644,3.644,0,0,0-38.654-1.7,4.731,4.731,0,0,0-37.63-4.963v-.705a4.806,4.806,0,0,0-.966-3.2,3.437,3.437,0,0,0-2.74-1.158ZM-30.168.911a3.92,3.92,0,0,1-2.968-1.2,4.447,4.447,0,0,1-1.144-3.2v-.282a5.383,5.383,0,0,1,.51-2.384A3.978,3.978,0,0,1-32.345-7.8a3.585,3.585,0,0,1,1.986-.593A3.36,3.36,0,0,1-27.64-7.239a4.99,4.99,0,0,1,.97,3.3V-3.3h-6.077a3.189,3.189,0,0,0,.775,2.143,2.437,2.437,0,0,0,1.886.817,2.671,2.671,0,0,0,1.376-.332,3.458,3.458,0,0,0,.987-.879l.937.73A3.767,3.767,0,0,1-30.168.911Zm-.191-8.042a2.046,2.046,0,0,0-1.559.676A3.284,3.284,0,0,0-32.7-4.561H-28.2v-.116a2.921,2.921,0,0,0-.63-1.812A1.926,1.926,0,0,0-30.359-7.132ZM-24.381.745V-7.04H-25.8V-8.226h1.418v-.763a3.117,3.117,0,0,1,.858-2.338,3.328,3.328,0,0,1,2.425-.837,7.3,7.3,0,0,1,2.346.506l-.257,1.293a5.314,5.314,0,0,0-1.973-.415,1.931,1.931,0,0,0-1.422.444,1.829,1.829,0,0,0-.435,1.331v.779h1.832V-7.04h-1.832V.745Zm6.392,0h-1.542V-8.226h1.542Zm3.946-8.971.05,1.128a3.269,3.269,0,0,1,2.686-1.293q2.844,0,2.869,3.209V.745H-9.972V-5.191a2.065,2.065,0,0,0-.444-1.434,1.778,1.778,0,0,0-1.356-.464,2.214,2.214,0,0,0-1.31.4,2.7,2.7,0,0,0-.879,1.045V.745h-1.534V-8.226ZM-4.459.745H-5.992V-8.226h1.534Zm-1.658-11.35a.916.916,0,0,1,.228-.63.856.856,0,0,1,.676-.257.869.869,0,0,1,.68.257.906.906,0,0,1,.232.63.876.876,0,0,1-.232.622.885.885,0,0,1-.68.249.871.871,0,0,1-.676-.249A.885.885,0,0,1-6.117-10.605ZM1.594-.341a2.209,2.209,0,0,0,1.434-.5,1.75,1.75,0,0,0,.68-1.244H5.159A2.781,2.781,0,0,1,4.628-.615,3.5,3.5,0,0,1,3.322.5,3.768,3.768,0,0,1,1.594.911,3.7,3.7,0,0,1-1.321-.312,4.871,4.871,0,0,1-2.4-3.658v-.257a5.4,5.4,0,0,1,.481-2.33A3.663,3.663,0,0,1-.541-7.828a3.921,3.921,0,0,1,2.127-.564,3.6,3.6,0,0,1,2.508.9A3.23,3.23,0,0,1,5.159-5.142H3.708a2.114,2.114,0,0,0-.659-1.43,2.05,2.05,0,0,0-1.463-.56A2.147,2.147,0,0,0-.226-6.29,3.952,3.952,0,0,0-.869-3.857v.29A3.873,3.873,0,0,0-.23-1.179,2.157,2.157,0,0,0,1.594-.341ZM8.55.745H7.016V-8.226H8.55ZM6.891-10.605a.916.916,0,0,1,.228-.63.856.856,0,0,1,.676-.257.869.869,0,0,1,.68.257.906.906,0,0,1,.232.63.876.876,0,0,1-.232.622.885.885,0,0,1-.68.249.871.871,0,0,1-.676-.249A.885.885,0,0,1,6.891-10.605ZM10.6-3.824a5.3,5.3,0,0,1,.518-2.371A3.866,3.866,0,0,1,12.558-7.82a3.927,3.927,0,0,1,2.11-.572,3.783,3.783,0,0,1,2.964,1.268,4.88,4.88,0,0,1,1.132,3.374v.108a5.345,5.345,0,0,1-.5,2.35A3.809,3.809,0,0,1,16.828.33a3.972,3.972,0,0,1-2.143.58A3.774,3.774,0,0,1,11.729-.358,4.856,4.856,0,0,1,10.6-3.716Zm1.542.182a3.838,3.838,0,0,0,.692,2.4,2.216,2.216,0,0,0,1.853.9,2.2,2.2,0,0,0,1.857-.916,4.2,4.2,0,0,0,.688-2.566,3.831,3.831,0,0,0-.7-2.392,2.227,2.227,0,0,0-1.861-.916,2.2,2.2,0,0,0-1.832.9A4.165,4.165,0,0,0,12.14-3.641Zm3.225-8.349h1.857L15-9.552l-1.235,0Zm6.774,3.764.05,1.128a3.269,3.269,0,0,1,2.686-1.293q2.844,0,2.869,3.209V.745H26.209V-5.191a2.065,2.065,0,0,0-.444-1.434A1.778,1.778,0,0,0,24.41-7.09a2.214,2.214,0,0,0-1.31.4,2.7,2.7,0,0,0-.879,1.045V.745H20.687V-8.226ZM33.886-3.815a5.255,5.255,0,0,1,.978-3.32,3.094,3.094,0,0,1,2.562-1.256,3.111,3.111,0,0,1,2.5,1.078V-11.99h1.534V.745H40.046l-.075-.962A3.124,3.124,0,0,1,37.41.911,3.064,3.064,0,0,1,34.869-.366,5.315,5.315,0,0,1,33.886-3.7Zm1.534.174a3.979,3.979,0,0,0,.63,2.388,2.037,2.037,0,0,0,1.741.862A2.238,2.238,0,0,0,39.922-1.7V-5.822A2.255,2.255,0,0,0,37.808-7.09a2.047,2.047,0,0,0-1.758.871A4.381,4.381,0,0,0,35.42-3.641ZM47.558.911a3.92,3.92,0,0,1-2.968-1.2,4.447,4.447,0,0,1-1.144-3.2v-.282a5.383,5.383,0,0,1,.51-2.384A3.978,3.978,0,0,1,45.382-7.8a3.585,3.585,0,0,1,1.986-.593,3.36,3.36,0,0,1,2.719,1.152,4.99,4.99,0,0,1,.97,3.3V-3.3H44.979a3.189,3.189,0,0,0,.775,2.143,2.437,2.437,0,0,0,1.886.817,2.671,2.671,0,0,0,1.376-.332A3.458,3.458,0,0,0,50-1.552l.937.73A3.767,3.767,0,0,1,47.558.911Zm-.191-8.042a2.046,2.046,0,0,0-1.559.676,3.284,3.284,0,0,0-.779,1.894h4.494v-.116a2.921,2.921,0,0,0-.63-1.812A1.926,1.926,0,0,0,47.367-7.132Zm-84,26.083a3.92,3.92,0,0,1-2.968-1.2,4.447,4.447,0,0,1-1.144-3.2v-.282a5.383,5.383,0,0,1,.51-2.384,3.978,3.978,0,0,1,1.426-1.642,3.585,3.585,0,0,1,1.986-.593A3.36,3.36,0,0,1-34.107,10.8a4.99,4.99,0,0,1,.97,3.3v.638h-6.077a3.189,3.189,0,0,0,.775,2.143,2.437,2.437,0,0,0,1.886.817,2.671,2.671,0,0,0,1.376-.332,3.458,3.458,0,0,0,.987-.879l.937.73A3.767,3.767,0,0,1-36.635,18.951Zm-.191-8.042a2.046,2.046,0,0,0-1.559.676,3.284,3.284,0,0,0-.779,1.894h4.494v-.116a2.921,2.921,0,0,0-.63-1.812A1.926,1.926,0,0,0-36.826,10.909Zm10.687,5.5a1.129,1.129,0,0,0-.468-.966,4.509,4.509,0,0,0-1.633-.593,7.722,7.722,0,0,1-1.849-.6,2.63,2.63,0,0,1-1.011-.829,1.983,1.983,0,0,1-.327-1.144,2.327,2.327,0,0,1,.933-1.865,3.643,3.643,0,0,1,2.384-.763,3.748,3.748,0,0,1,2.475.788,2.5,2.5,0,0,1,.949,2.015H-26.23a1.385,1.385,0,0,0-.535-1.086,2,2,0,0,0-1.347-.456,2.1,2.1,0,0,0-1.31.365,1.148,1.148,0,0,0-.473.953.93.93,0,0,0,.439.837,5.407,5.407,0,0,0,1.588.539,8.273,8.273,0,0,1,1.861.614,2.715,2.715,0,0,1,1.057.858,2.11,2.11,0,0,1,.344,1.223,2.3,2.3,0,0,1-.962,1.928,4.034,4.034,0,0,1-2.5.725,4.517,4.517,0,0,1-1.907-.381,3.1,3.1,0,0,1-1.3-1.065,2.568,2.568,0,0,1-.468-1.48H-30.2a1.588,1.588,0,0,0,.618,1.223,2.4,2.4,0,0,0,1.521.452,2.473,2.473,0,0,0,1.4-.352A1.083,1.083,0,0,0-26.139,16.406Zm5.613-8.763V9.815h1.675V11h-1.675v5.57a1.245,1.245,0,0,0,.224.809.942.942,0,0,0,.763.27,3.713,3.713,0,0,0,.73-.1v1.236a4.473,4.473,0,0,1-1.177.165,1.91,1.91,0,0,1-1.55-.622,2.671,2.671,0,0,1-.522-1.766V11h-1.633V9.815h1.633V7.643Zm9,11.143a3.222,3.222,0,0,1-.216-.945,3.422,3.422,0,0,1-2.554,1.111,3.167,3.167,0,0,1-2.176-.75,2.428,2.428,0,0,1-.85-1.9,2.536,2.536,0,0,1,1.065-2.176,5.023,5.023,0,0,1,3-.775h1.492v-.7a1.723,1.723,0,0,0-.481-1.281,1.933,1.933,0,0,0-1.418-.477,2.237,2.237,0,0,0-1.376.415,1.222,1.222,0,0,0-.555,1h-1.542a2.117,2.117,0,0,1,.477-1.3,3.254,3.254,0,0,1,1.293-.991,4.351,4.351,0,0,1,1.795-.365,3.546,3.546,0,0,1,2.429.775,2.8,2.8,0,0,1,.912,2.135v4.129a5.048,5.048,0,0,0,.315,1.965v.133Zm-2.545-1.169a2.7,2.7,0,0,0,1.368-.373,2.257,2.257,0,0,0,.937-.97V14.433h-1.2q-2.819,0-2.819,1.65A1.4,1.4,0,0,0-15.3,17.21,1.848,1.848,0,0,0-14.068,17.617ZM-12.65,6.051h1.857l-2.222,2.437-1.235,0Zm6.276,3.764.05,1.128A3.269,3.269,0,0,1-3.638,9.649q2.844,0,2.869,3.209v5.928H-2.3V12.849a2.065,2.065,0,0,0-.444-1.434A1.778,1.778,0,0,0-4.1,10.951a2.214,2.214,0,0,0-1.31.4,2.7,2.7,0,0,0-.879,1.045v6.392H-7.825V9.815Zm7.545,4.411a5.255,5.255,0,0,1,.978-3.32A3.094,3.094,0,0,1,4.711,9.649a3.111,3.111,0,0,1,2.5,1.078V6.051H8.74V18.786H7.331l-.075-.962a3.124,3.124,0,0,1-2.562,1.128,3.064,3.064,0,0,1-2.541-1.277,5.315,5.315,0,0,1-.982-3.333ZM2.7,14.4a3.979,3.979,0,0,0,.63,2.388,2.037,2.037,0,0,0,1.741.862,2.238,2.238,0,0,0,2.131-1.31V12.219a2.255,2.255,0,0,0-2.114-1.268,2.047,2.047,0,0,0-1.758.871A4.381,4.381,0,0,0,2.7,14.4Zm13.953,4.386a3.222,3.222,0,0,1-.216-.945,3.422,3.422,0,0,1-2.554,1.111,3.167,3.167,0,0,1-2.176-.75,2.428,2.428,0,0,1-.85-1.9,2.536,2.536,0,0,1,1.065-2.176,5.023,5.023,0,0,1,3-.775h1.492v-.7a1.723,1.723,0,0,0-.481-1.281,1.933,1.933,0,0,0-1.418-.477,2.237,2.237,0,0,0-1.376.415,1.222,1.222,0,0,0-.555,1H11.045a2.117,2.117,0,0,1,.477-1.3,3.254,3.254,0,0,1,1.293-.991,4.351,4.351,0,0,1,1.795-.365,3.546,3.546,0,0,1,2.429.775,2.8,2.8,0,0,1,.912,2.135v4.129a5.048,5.048,0,0,0,.315,1.965v.133Zm-2.545-1.169a2.7,2.7,0,0,0,1.368-.373,2.257,2.257,0,0,0,.937-.97V14.433h-1.2q-2.819,0-2.819,1.65a1.4,1.4,0,0,0,.481,1.128A1.848,1.848,0,0,0,14.113,17.617Zm10.579-6.425a4.6,4.6,0,0,0-.754-.058,2.021,2.021,0,0,0-2.048,1.285v6.367H20.356V9.815h1.492l.025,1.036a2.388,2.388,0,0,1,2.139-1.2,1.567,1.567,0,0,1,.68.116Zm4.974,7.76a3.92,3.92,0,0,1-2.968-1.2,4.447,4.447,0,0,1-1.144-3.2v-.282a5.383,5.383,0,0,1,.51-2.384,3.977,3.977,0,0,1,1.426-1.642,3.585,3.585,0,0,1,1.986-.593A3.36,3.36,0,0,1,32.2,10.8a4.99,4.99,0,0,1,.97,3.3v.638H27.088a3.189,3.189,0,0,0,.775,2.143,2.437,2.437,0,0,0,1.886.817,2.671,2.671,0,0,0,1.376-.332,3.458,3.458,0,0,0,.987-.879l.937.73A3.767,3.767,0,0,1,29.666,18.951Zm-.191-8.042a2.046,2.046,0,0,0-1.559.676,3.284,3.284,0,0,0-.779,1.894h4.494v-.116A2.921,2.921,0,0,0,31,11.552,1.926,1.926,0,0,0,29.476,10.909Zm10.687,5.5a1.129,1.129,0,0,0-.468-.966,4.509,4.509,0,0,0-1.633-.593,7.722,7.722,0,0,1-1.849-.6,2.63,2.63,0,0,1-1.011-.829,1.983,1.983,0,0,1-.327-1.144,2.327,2.327,0,0,1,.933-1.865,3.643,3.643,0,0,1,2.384-.763,3.748,3.748,0,0,1,2.475.788,2.5,2.5,0,0,1,.949,2.015H40.071a1.385,1.385,0,0,0-.535-1.086,2,2,0,0,0-1.347-.456,2.1,2.1,0,0,0-1.31.365,1.148,1.148,0,0,0-.473.953.93.93,0,0,0,.439.837,5.407,5.407,0,0,0,1.588.539,8.273,8.273,0,0,1,1.861.614,2.715,2.715,0,0,1,1.057.858A2.11,2.11,0,0,1,41.7,16.3a2.3,2.3,0,0,1-.962,1.928,4.034,4.034,0,0,1-2.5.725,4.517,4.517,0,0,1-1.907-.381,3.1,3.1,0,0,1-1.3-1.065,2.568,2.568,0,0,1-.468-1.48H36.1a1.588,1.588,0,0,0,.618,1.223,2.4,2.4,0,0,0,1.521.452,2.474,2.474,0,0,0,1.4-.352A1.083,1.083,0,0,0,40.163,16.406Zm3.565,1.575a.96.96,0,0,1,.236-.663.9.9,0,0,1,.709-.265.927.927,0,0,1,.717.265.941.941,0,0,1,.245.663.89.89,0,0,1-.245.638.944.944,0,0,1-.717.257.853.853,0,0,1-.945-.9Z" transform="translate(202.074 41.36)" fill="#fff"/>
        <path id="Trazado_157247" data-name="Trazado 157247" d="M-29.13-4.845h-5.232V-.567h6.077v1.3h-7.669V-11.337h7.586v1.3h-5.994v3.888h5.232Zm5.331,3.5,2.222-6.89h1.567L-23.226.735H-24.4l-3.25-8.971h1.567ZM-13.12.735a3.222,3.222,0,0,1-.216-.945A3.422,3.422,0,0,1-15.889.9,3.167,3.167,0,0,1-18.065.15a2.428,2.428,0,0,1-.85-1.9A2.536,2.536,0,0,1-17.85-3.929a5.023,5.023,0,0,1,3-.775h1.492v-.7a1.723,1.723,0,0,0-.481-1.281,1.933,1.933,0,0,0-1.418-.477,2.237,2.237,0,0,0-1.376.415,1.222,1.222,0,0,0-.555,1h-1.542a2.117,2.117,0,0,1,.477-1.3,3.254,3.254,0,0,1,1.293-.991A4.351,4.351,0,0,1-15.168-8.4a3.546,3.546,0,0,1,2.429.775,2.8,2.8,0,0,1,.912,2.135v4.129A5.048,5.048,0,0,0-11.512.6V.735ZM-15.665-.434A2.7,2.7,0,0,0-14.3-.807a2.257,2.257,0,0,0,.937-.97V-3.618h-1.2q-2.819,0-2.819,1.65A1.4,1.4,0,0,0-16.9-.841,1.848,1.848,0,0,0-15.665-.434ZM-7.756.735H-9.29V-12h1.534ZM.237-.152A3.258,3.258,0,0,1-2.392.9,2.789,2.789,0,0,1-4.576.067,3.607,3.607,0,0,1-5.335-2.4V-8.236H-3.8v5.8Q-3.8-.4-2.143-.4A2.3,2.3,0,0,0,.2-1.711V-8.236H1.729V.735H.27ZM9.6.735A3.222,3.222,0,0,1,9.381-.21,3.422,3.422,0,0,1,6.828.9,3.167,3.167,0,0,1,4.651.15a2.428,2.428,0,0,1-.85-1.9A2.536,2.536,0,0,1,4.867-3.929a5.023,5.023,0,0,1,3-.775H9.356v-.7A1.723,1.723,0,0,0,8.876-6.69a1.933,1.933,0,0,0-1.418-.477,2.237,2.237,0,0,0-1.376.415,1.222,1.222,0,0,0-.555,1H3.984a2.117,2.117,0,0,1,.477-1.3,3.254,3.254,0,0,1,1.293-.991A4.351,4.351,0,0,1,7.549-8.4a3.546,3.546,0,0,1,2.429.775,2.8,2.8,0,0,1,.912,2.135v4.129A5.048,5.048,0,0,0,11.205.6V.735ZM7.052-.434A2.7,2.7,0,0,0,8.42-.807a2.257,2.257,0,0,0,.937-.97V-3.618h-1.2q-2.819,0-2.819,1.65A1.4,1.4,0,0,0,5.816-.841,1.848,1.848,0,0,0,7.052-.434Zm9.841.083a2.209,2.209,0,0,0,1.434-.5,1.75,1.75,0,0,0,.68-1.244h1.451a2.781,2.781,0,0,1-.531,1.467A3.5,3.5,0,0,1,18.621.486,3.768,3.768,0,0,1,16.893.9,3.7,3.7,0,0,1,13.979-.322,4.871,4.871,0,0,1,12.9-3.668v-.257a5.4,5.4,0,0,1,.481-2.33,3.663,3.663,0,0,1,1.38-1.584A3.921,3.921,0,0,1,16.884-8.4a3.6,3.6,0,0,1,2.508.9,3.23,3.23,0,0,1,1.065,2.346H19.007a2.114,2.114,0,0,0-.659-1.43,2.05,2.05,0,0,0-1.463-.56,2.147,2.147,0,0,0-1.812.842,3.952,3.952,0,0,0-.643,2.433v.29a3.873,3.873,0,0,0,.638,2.388A2.157,2.157,0,0,0,16.893-.351ZM23.849.735H22.315V-8.236h1.534Zm-1.658-11.35a.916.916,0,0,1,.228-.63.856.856,0,0,1,.676-.257.869.869,0,0,1,.68.257.906.906,0,0,1,.232.63.876.876,0,0,1-.232.622.885.885,0,0,1-.68.249.871.871,0,0,1-.676-.249A.885.885,0,0,1,22.191-10.615ZM25.9-3.834A5.3,5.3,0,0,1,26.415-6.2,3.866,3.866,0,0,1,27.857-7.83a3.927,3.927,0,0,1,2.11-.572,3.783,3.783,0,0,1,2.964,1.268,4.88,4.88,0,0,1,1.132,3.374v.108a5.345,5.345,0,0,1-.5,2.35A3.809,3.809,0,0,1,32.127.32,3.972,3.972,0,0,1,29.984.9,3.774,3.774,0,0,1,27.028-.368,4.856,4.856,0,0,1,25.9-3.726Zm1.542.182a3.838,3.838,0,0,0,.692,2.4,2.216,2.216,0,0,0,1.853.9,2.2,2.2,0,0,0,1.857-.916,4.2,4.2,0,0,0,.688-2.566,3.831,3.831,0,0,0-.7-2.392,2.227,2.227,0,0,0-1.861-.916,2.2,2.2,0,0,0-1.832.9A4.165,4.165,0,0,0,27.439-3.651ZM30.664-12h1.857L30.3-9.562l-1.235,0Zm6.774,3.764.05,1.128A3.269,3.269,0,0,1,40.173-8.4q2.844,0,2.869,3.209V.735H41.508V-5.2a2.065,2.065,0,0,0-.444-1.434A1.778,1.778,0,0,0,39.709-7.1a2.214,2.214,0,0,0-1.31.4,2.7,2.7,0,0,0-.879,1.045V.735H35.986V-8.236Zm-93.3,22.452a5.255,5.255,0,0,1,.978-3.32,3.094,3.094,0,0,1,2.562-1.256,3.111,3.111,0,0,1,2.5,1.078V6.041h1.534V18.775H-49.7l-.075-.962a3.124,3.124,0,0,1-2.562,1.128,3.064,3.064,0,0,1-2.541-1.277,5.315,5.315,0,0,1-.982-3.333Zm1.534.174a3.979,3.979,0,0,0,.63,2.388,2.037,2.037,0,0,0,1.741.862,2.238,2.238,0,0,0,2.131-1.31V12.209a2.255,2.255,0,0,0-2.114-1.268,2.047,2.047,0,0,0-1.758.871A4.381,4.381,0,0,0-54.329,14.39Zm12.138,4.552a3.92,3.92,0,0,1-2.968-1.2,4.447,4.447,0,0,1-1.144-3.2v-.282a5.383,5.383,0,0,1,.51-2.384,3.977,3.977,0,0,1,1.426-1.642,3.585,3.585,0,0,1,1.986-.593,3.36,3.36,0,0,1,2.719,1.152,4.99,4.99,0,0,1,.97,3.3v.638H-44.77a3.189,3.189,0,0,0,.775,2.143,2.437,2.437,0,0,0,1.886.817,2.671,2.671,0,0,0,1.376-.332,3.458,3.458,0,0,0,.987-.879l.937.73A3.767,3.767,0,0,1-42.192,18.941Zm-.191-8.042a2.046,2.046,0,0,0-1.559.676,3.284,3.284,0,0,0-.779,1.894h4.494v-.116a2.921,2.921,0,0,0-.63-1.812A1.926,1.926,0,0,0-42.382,10.9Zm7.13,7.876h-1.534V6.041h1.534Zm6.284-4.56a5.255,5.255,0,0,1,.978-3.32,3.094,3.094,0,0,1,2.562-1.256,3.111,3.111,0,0,1,2.5,1.078V6.041H-21.4V18.775h-1.409l-.075-.962a3.124,3.124,0,0,1-2.562,1.128,3.064,3.064,0,0,1-2.541-1.277,5.315,5.315,0,0,1-.982-3.333Zm1.534.174a3.979,3.979,0,0,0,.63,2.388,2.037,2.037,0,0,0,1.741.862,2.238,2.238,0,0,0,2.131-1.31V12.209a2.255,2.255,0,0,0-2.114-1.268,2.047,2.047,0,0,0-1.758.871A4.381,4.381,0,0,0-27.434,14.39ZM-15.3,18.941a3.92,3.92,0,0,1-2.968-1.2,4.447,4.447,0,0,1-1.144-3.2v-.282a5.383,5.383,0,0,1,.51-2.384,3.977,3.977,0,0,1,1.426-1.642,3.585,3.585,0,0,1,1.986-.593,3.36,3.36,0,0,1,2.719,1.152,4.99,4.99,0,0,1,.97,3.3v.638h-6.077a3.189,3.189,0,0,0,.775,2.143,2.437,2.437,0,0,0,1.886.817,2.671,2.671,0,0,0,1.376-.332,3.458,3.458,0,0,0,.987-.879l.937.73A3.767,3.767,0,0,1-15.3,18.941Zm-.191-8.042a2.046,2.046,0,0,0-1.559.676,3.284,3.284,0,0,0-.779,1.894h4.494v-.116a2.921,2.921,0,0,0-.63-1.812A1.926,1.926,0,0,0-15.487,10.9ZM-4.8,16.4a1.129,1.129,0,0,0-.468-.966A4.509,4.509,0,0,0-6.9,14.837a7.722,7.722,0,0,1-1.849-.6,2.63,2.63,0,0,1-1.011-.829,1.983,1.983,0,0,1-.327-1.144A2.327,2.327,0,0,1-9.157,10.4a3.643,3.643,0,0,1,2.384-.763,3.748,3.748,0,0,1,2.475.788,2.5,2.5,0,0,1,.949,2.015H-4.891a1.385,1.385,0,0,0-.535-1.086A2,2,0,0,0-6.773,10.9a2.1,2.1,0,0,0-1.31.365,1.148,1.148,0,0,0-.473.953.93.93,0,0,0,.439.837,5.406,5.406,0,0,0,1.588.539,8.273,8.273,0,0,1,1.861.614,2.715,2.715,0,0,1,1.057.858,2.11,2.11,0,0,1,.344,1.223,2.3,2.3,0,0,1-.962,1.928,4.034,4.034,0,0,1-2.5.725,4.517,4.517,0,0,1-1.907-.381,3.1,3.1,0,0,1-1.3-1.065,2.568,2.568,0,0,1-.468-1.48h1.534a1.588,1.588,0,0,0,.618,1.223,2.4,2.4,0,0,0,1.521.452,2.473,2.473,0,0,0,1.4-.352A1.083,1.083,0,0,0-4.8,16.4Zm7.254,2.545a3.92,3.92,0,0,1-2.968-1.2,4.447,4.447,0,0,1-1.144-3.2v-.282a5.383,5.383,0,0,1,.51-2.384A3.977,3.977,0,0,1,.278,10.232a3.585,3.585,0,0,1,1.986-.593,3.36,3.36,0,0,1,2.719,1.152,4.99,4.99,0,0,1,.97,3.3v.638H-.124a3.189,3.189,0,0,0,.775,2.143,2.437,2.437,0,0,0,1.886.817,2.671,2.671,0,0,0,1.376-.332,3.458,3.458,0,0,0,.987-.879l.937.73A3.767,3.767,0,0,1,2.454,18.941ZM2.264,10.9A2.046,2.046,0,0,0,.7,11.575a3.284,3.284,0,0,0-.779,1.894H4.419v-.116a2.921,2.921,0,0,0-.63-1.812A1.926,1.926,0,0,0,2.264,10.9ZM9.17,9.8l.041.995a3.313,3.313,0,0,1,2.661-1.161,2.565,2.565,0,0,1,2.562,1.443A3.4,3.4,0,0,1,15.6,10.037a3.44,3.44,0,0,1,1.7-.4q2.952,0,3,3.126v6.011H18.762v-5.92a2.06,2.06,0,0,0-.439-1.438,1.935,1.935,0,0,0-1.476-.477,2.034,2.034,0,0,0-1.418.51,2.068,2.068,0,0,0-.655,1.372v5.953H13.232V12.9a1.711,1.711,0,0,0-1.915-1.957,2.052,2.052,0,0,0-2.064,1.285v6.55H7.719V9.8ZM30.187,14.39a5.371,5.371,0,0,1-.937,3.3,3,3,0,0,1-2.537,1.252,3.29,3.29,0,0,1-2.57-1.036v4.32H22.609V9.8h1.4l.075.995a3.16,3.16,0,0,1,2.6-1.161,3.059,3.059,0,0,1,2.558,1.219,5.43,5.43,0,0,1,.941,3.391Zm-1.534-.174a3.964,3.964,0,0,0-.647-2.4,2.083,2.083,0,0,0-1.774-.879,2.255,2.255,0,0,0-2.089,1.235v4.286a2.259,2.259,0,0,0,2.106,1.227A2.073,2.073,0,0,0,28,16.815,4.327,4.327,0,0,0,28.653,14.216Zm7.2,4.726a3.92,3.92,0,0,1-2.968-1.2,4.447,4.447,0,0,1-1.144-3.2v-.282a5.383,5.383,0,0,1,.51-2.384,3.978,3.978,0,0,1,1.426-1.642,3.585,3.585,0,0,1,1.986-.593,3.36,3.36,0,0,1,2.719,1.152,4.99,4.99,0,0,1,.97,3.3v.638H33.28a3.189,3.189,0,0,0,.775,2.143,2.437,2.437,0,0,0,1.886.817,2.671,2.671,0,0,0,1.376-.332,3.458,3.458,0,0,0,.987-.879l.937.73A3.767,3.767,0,0,1,35.858,18.941ZM35.667,10.9a2.046,2.046,0,0,0-1.559.676,3.284,3.284,0,0,0-.779,1.894h4.494v-.116a2.921,2.921,0,0,0-.63-1.812A1.926,1.926,0,0,0,35.667,10.9ZM42.582,9.8l.05,1.128a3.269,3.269,0,0,1,2.686-1.293q2.844,0,2.869,3.209v5.928H46.653V12.839a2.065,2.065,0,0,0-.444-1.434,1.778,1.778,0,0,0-1.356-.464,2.214,2.214,0,0,0-1.31.4,2.7,2.7,0,0,0-.879,1.045v6.392H41.131V9.8Zm5.074-3.5a2.061,2.061,0,0,1-.51,1.451,1.656,1.656,0,0,1-1.273.555,1.867,1.867,0,0,1-.589-.083,3.176,3.176,0,0,1-.651-.34,2.819,2.819,0,0,0-.58-.311,1.42,1.42,0,0,0-.41-.054.761.761,0,0,0-.58.261.947.947,0,0,0-.24.667L41.794,8.4a2.164,2.164,0,0,1,.5-1.467,1.609,1.609,0,0,1,1.273-.58,1.546,1.546,0,0,1,.522.083,3.807,3.807,0,0,1,.63.323,3.708,3.708,0,0,0,.609.315,1.4,1.4,0,0,0,.468.075.742.742,0,0,0,.593-.282.989.989,0,0,0,.236-.655Zm2.438,7.9a5.3,5.3,0,0,1,.518-2.371,3.866,3.866,0,0,1,1.443-1.625,3.927,3.927,0,0,1,2.11-.572,3.783,3.783,0,0,1,2.964,1.268,4.88,4.88,0,0,1,1.132,3.374v.108a5.345,5.345,0,0,1-.5,2.35,3.809,3.809,0,0,1-1.434,1.621,3.972,3.972,0,0,1-2.143.58,3.774,3.774,0,0,1-2.956-1.268,4.856,4.856,0,0,1-1.132-3.358Zm1.542.182a3.838,3.838,0,0,0,.692,2.4,2.346,2.346,0,0,0,3.71-.012,4.2,4.2,0,0,0,.688-2.566,3.831,3.831,0,0,0-.7-2.392,2.227,2.227,0,0,0-1.861-.916,2.2,2.2,0,0,0-1.832.9A4.165,4.165,0,0,0,51.635,14.39Zm8.581,3.582a.96.96,0,0,1,.236-.663.9.9,0,0,1,.709-.265.927.927,0,0,1,.717.265.941.941,0,0,1,.245.663.89.89,0,0,1-.245.638.944.944,0,0,1-.717.257.853.853,0,0,1-.945-.9Z" transform="translate(312.294 150.677)" fill="#fff"/>
        <path id="Trazado_157249" data-name="Trazado 157249" d="M-48.136-3.1A4.441,4.441,0,0,1-49.549-.14,4.633,4.633,0,0,1-52.712.9,4.254,4.254,0,0,1-56.14-.633a6.171,6.171,0,0,1-1.289-4.1V-5.9a6.878,6.878,0,0,1,.6-2.96,4.49,4.49,0,0,1,1.7-1.961,4.744,4.744,0,0,1,2.554-.684,4.362,4.362,0,0,1,3.084,1.074,4.5,4.5,0,0,1,1.351,2.972h-1.6a3.468,3.468,0,0,0-.9-2.1,2.722,2.722,0,0,0-1.936-.649,2.848,2.848,0,0,0-2.392,1.129,5.181,5.181,0,0,0-.866,3.211v1.17a5.325,5.325,0,0,0,.821,3.128A2.652,2.652,0,0,0-52.712-.4,3.063,3.063,0,0,0-50.677-1,3.336,3.336,0,0,0-49.736-3.1Zm1.526-.738A5.3,5.3,0,0,1-46.092-6.2,3.865,3.865,0,0,1-44.649-7.83a3.927,3.927,0,0,1,2.11-.572,3.783,3.783,0,0,1,2.964,1.268,4.88,4.88,0,0,1,1.132,3.374v.108a5.345,5.345,0,0,1-.5,2.35A3.809,3.809,0,0,1-40.38.32,3.972,3.972,0,0,1-42.523.9,3.774,3.774,0,0,1-45.478-.368,4.856,4.856,0,0,1-46.61-3.726Zm1.542.182a3.838,3.838,0,0,0,.692,2.4,2.216,2.216,0,0,0,1.853.9,2.2,2.2,0,0,0,1.857-.916,4.2,4.2,0,0,0,.688-2.566,3.831,3.831,0,0,0-.7-2.392,2.227,2.227,0,0,0-1.861-.916,2.2,2.2,0,0,0-1.832.9A4.165,4.165,0,0,0-45.068-3.651Zm9.99-4.585.041.995A3.313,3.313,0,0,1-32.375-8.4a2.565,2.565,0,0,1,2.562,1.443A3.4,3.4,0,0,1-28.648-8a3.44,3.44,0,0,1,1.7-.4q2.952,0,3,3.126V.735h-1.534v-5.92a2.06,2.06,0,0,0-.439-1.438A1.935,1.935,0,0,0-27.4-7.1a2.034,2.034,0,0,0-1.418.51,2.068,2.068,0,0,0-.655,1.372V.735h-1.542V-5.143A1.711,1.711,0,0,0-32.93-7.1a2.052,2.052,0,0,0-2.064,1.285V.735h-1.534V-8.236ZM-14.06-3.651A5.371,5.371,0,0,1-15-.351,3,3,0,0,1-17.534.9,3.29,3.29,0,0,1-20.1-.136v4.32h-1.534V-8.236h1.4l.075.995a3.16,3.16,0,0,1,2.6-1.161A3.059,3.059,0,0,1-15-7.183a5.43,5.43,0,0,1,.941,3.391Zm-1.534-.174a3.964,3.964,0,0,0-.647-2.4A2.083,2.083,0,0,0-18.015-7.1,2.255,2.255,0,0,0-20.1-5.865v4.286A2.259,2.259,0,0,0-18-.351a2.073,2.073,0,0,0,1.754-.875A4.327,4.327,0,0,0-15.594-3.825Zm9.02,4.56A3.222,3.222,0,0,1-6.789-.21,3.422,3.422,0,0,1-9.343.9,3.167,3.167,0,0,1-11.519.15a2.428,2.428,0,0,1-.85-1.9A2.536,2.536,0,0,1-11.3-3.929a5.023,5.023,0,0,1,3-.775h1.492v-.7A1.723,1.723,0,0,0-7.3-6.69a1.933,1.933,0,0,0-1.418-.477,2.237,2.237,0,0,0-1.376.415,1.222,1.222,0,0,0-.555,1h-1.542a2.117,2.117,0,0,1,.477-1.3,3.254,3.254,0,0,1,1.293-.991A4.351,4.351,0,0,1-8.622-8.4a3.546,3.546,0,0,1,2.429.775A2.8,2.8,0,0,1-5.28-5.492v4.129A5.048,5.048,0,0,0-4.965.6V.735ZM-9.119-.434A2.7,2.7,0,0,0-7.751-.807a2.257,2.257,0,0,0,.937-.97V-3.618h-1.2q-2.819,0-2.819,1.65a1.4,1.4,0,0,0,.481,1.128A1.848,1.848,0,0,0-9.119-.434ZM1.46-6.86a4.6,4.6,0,0,0-.754-.058A2.021,2.021,0,0,0-1.342-5.633V.735H-2.876V-8.236h1.492L-1.359-7.2A2.388,2.388,0,0,1,.78-8.4a1.567,1.567,0,0,1,.68.116ZM8.076.735A3.222,3.222,0,0,1,7.86-.21,3.422,3.422,0,0,1,5.307.9,3.167,3.167,0,0,1,3.131.15a2.428,2.428,0,0,1-.85-1.9A2.536,2.536,0,0,1,3.346-3.929a5.023,5.023,0,0,1,3-.775H7.836v-.7A1.723,1.723,0,0,0,7.355-6.69a1.933,1.933,0,0,0-1.418-.477,2.237,2.237,0,0,0-1.376.415,1.222,1.222,0,0,0-.555,1H2.463a2.117,2.117,0,0,1,.477-1.3,3.254,3.254,0,0,1,1.293-.991A4.351,4.351,0,0,1,6.028-8.4a3.546,3.546,0,0,1,2.429.775,2.8,2.8,0,0,1,.912,2.135v4.129A5.048,5.048,0,0,0,9.684.6V.735ZM5.531-.434A2.7,2.7,0,0,0,6.9-.807a2.257,2.257,0,0,0,.937-.97V-3.618h-1.2q-2.819,0-2.819,1.65A1.4,1.4,0,0,0,4.3-.841,1.848,1.848,0,0,0,5.531-.434Zm9.841.083a2.209,2.209,0,0,0,1.434-.5,1.75,1.75,0,0,0,.68-1.244h1.451a2.781,2.781,0,0,1-.531,1.467A3.5,3.5,0,0,1,17.1.486,3.768,3.768,0,0,1,15.372.9,3.7,3.7,0,0,1,12.458-.322a4.871,4.871,0,0,1-1.082-3.345v-.257a5.4,5.4,0,0,1,.481-2.33,3.663,3.663,0,0,1,1.38-1.584A3.921,3.921,0,0,1,15.364-8.4a3.6,3.6,0,0,1,2.508.9,3.23,3.23,0,0,1,1.065,2.346H17.486a2.114,2.114,0,0,0-.659-1.43,2.05,2.05,0,0,0-1.463-.56,2.147,2.147,0,0,0-1.812.842,3.952,3.952,0,0,0-.643,2.433v.29a3.873,3.873,0,0,0,.638,2.388A2.157,2.157,0,0,0,15.372-.351ZM22.328.735H20.794V-8.236h1.534ZM20.67-10.615a.916.916,0,0,1,.228-.63.856.856,0,0,1,.676-.257.869.869,0,0,1,.68.257.906.906,0,0,1,.232.63.876.876,0,0,1-.232.622.885.885,0,0,1-.68.249.871.871,0,0,1-.676-.249A.885.885,0,0,1,20.67-10.615Zm3.706,6.782A5.3,5.3,0,0,1,24.894-6.2,3.866,3.866,0,0,1,26.337-7.83a3.927,3.927,0,0,1,2.11-.572,3.783,3.783,0,0,1,2.964,1.268,4.88,4.88,0,0,1,1.132,3.374v.108a5.345,5.345,0,0,1-.5,2.35A3.809,3.809,0,0,1,30.606.32,3.972,3.972,0,0,1,28.463.9,3.774,3.774,0,0,1,25.507-.368a4.856,4.856,0,0,1-1.132-3.358Zm1.542.182a3.838,3.838,0,0,0,.692,2.4,2.216,2.216,0,0,0,1.853.9,2.2,2.2,0,0,0,1.857-.916,4.2,4.2,0,0,0,.688-2.566,3.831,3.831,0,0,0-.7-2.392,2.227,2.227,0,0,0-1.861-.916,2.2,2.2,0,0,0-1.832.9A4.165,4.165,0,0,0,25.918-3.651ZM29.143-12H31L28.778-9.562l-1.235,0Zm6.774,3.764.05,1.128A3.269,3.269,0,0,1,38.653-8.4q2.844,0,2.869,3.209V.735H39.987V-5.2a2.065,2.065,0,0,0-.444-1.434A1.778,1.778,0,0,0,38.188-7.1a2.214,2.214,0,0,0-1.31.4A2.7,2.7,0,0,0,36-5.658V.735H34.466V-8.236ZM47.665-3.825a5.255,5.255,0,0,1,.978-3.32A3.094,3.094,0,0,1,51.2-8.4a3.111,3.111,0,0,1,2.5,1.078V-12h1.534V.735H53.825L53.75-.227A3.124,3.124,0,0,1,51.188.9,3.064,3.064,0,0,1,48.647-.376a5.315,5.315,0,0,1-.982-3.333Zm1.534.174a3.979,3.979,0,0,0,.63,2.388A2.037,2.037,0,0,0,51.57-.4,2.238,2.238,0,0,0,53.7-1.711V-5.832A2.255,2.255,0,0,0,51.586-7.1a2.047,2.047,0,0,0-1.758.871A4.381,4.381,0,0,0,49.2-3.651ZM61.336.9A3.92,3.92,0,0,1,58.368-.3a4.447,4.447,0,0,1-1.144-3.2v-.282a5.383,5.383,0,0,1,.51-2.384A3.978,3.978,0,0,1,59.16-7.809,3.585,3.585,0,0,1,61.146-8.4a3.36,3.36,0,0,1,2.719,1.152,4.99,4.99,0,0,1,.97,3.3v.638H58.758a3.189,3.189,0,0,0,.775,2.143,2.437,2.437,0,0,0,1.886.817A2.671,2.671,0,0,0,62.8-.683a3.458,3.458,0,0,0,.987-.879l.937.73A3.767,3.767,0,0,1,61.336.9Zm-.191-8.042a2.046,2.046,0,0,0-1.559.676,3.284,3.284,0,0,0-.779,1.894H63.3v-.116a2.921,2.921,0,0,0-.63-1.812A1.926,1.926,0,0,0,61.146-7.142ZM-49.7,18.941a3.92,3.92,0,0,1-2.968-1.2,4.446,4.446,0,0,1-1.144-3.2v-.282a5.383,5.383,0,0,1,.51-2.384,3.977,3.977,0,0,1,1.426-1.642,3.585,3.585,0,0,1,1.986-.593,3.36,3.36,0,0,1,2.719,1.152,4.99,4.99,0,0,1,.97,3.3v.638h-6.077a3.189,3.189,0,0,0,.775,2.143,2.437,2.437,0,0,0,1.886.817,2.671,2.671,0,0,0,1.376-.332,3.458,3.458,0,0,0,.987-.879l.937.73A3.767,3.767,0,0,1-49.7,18.941Zm-.191-8.042a2.046,2.046,0,0,0-1.559.676,3.284,3.284,0,0,0-.779,1.894h4.494v-.116a2.921,2.921,0,0,0-.63-1.812A1.926,1.926,0,0,0-49.889,10.9ZM-39.2,16.4a1.129,1.129,0,0,0-.468-.966,4.509,4.509,0,0,0-1.633-.593,7.722,7.722,0,0,1-1.849-.6,2.63,2.63,0,0,1-1.011-.829,1.983,1.983,0,0,1-.327-1.144,2.327,2.327,0,0,1,.933-1.865,3.643,3.643,0,0,1,2.384-.763,3.748,3.748,0,0,1,2.475.788,2.5,2.5,0,0,1,.949,2.015h-1.542a1.385,1.385,0,0,0-.535-1.086,2,2,0,0,0-1.347-.456,2.1,2.1,0,0,0-1.31.365,1.148,1.148,0,0,0-.473.953.93.93,0,0,0,.439.837,5.406,5.406,0,0,0,1.588.539,8.273,8.273,0,0,1,1.861.614,2.715,2.715,0,0,1,1.057.858,2.11,2.11,0,0,1,.344,1.223,2.3,2.3,0,0,1-.962,1.928,4.034,4.034,0,0,1-2.5.725,4.517,4.517,0,0,1-1.907-.381,3.1,3.1,0,0,1-1.3-1.065,2.568,2.568,0,0,1-.468-1.48h1.534a1.588,1.588,0,0,0,.618,1.223,2.4,2.4,0,0,0,1.521.452,2.473,2.473,0,0,0,1.4-.352A1.083,1.083,0,0,0-39.2,16.4Zm5.613-8.763V9.8h1.675V10.99h-1.675v5.57a1.245,1.245,0,0,0,.224.809.942.942,0,0,0,.763.27,3.714,3.714,0,0,0,.73-.1v1.236a4.473,4.473,0,0,1-1.177.165,1.91,1.91,0,0,1-1.55-.622,2.671,2.671,0,0,1-.522-1.766V10.99h-1.633V9.8h1.633V7.633Zm9,11.143a3.222,3.222,0,0,1-.216-.945,3.422,3.422,0,0,1-2.554,1.111,3.167,3.167,0,0,1-2.176-.75,2.428,2.428,0,0,1-.85-1.9,2.536,2.536,0,0,1,1.065-2.176,5.023,5.023,0,0,1,3-.775h1.492v-.7a1.723,1.723,0,0,0-.481-1.281,1.933,1.933,0,0,0-1.418-.477,2.237,2.237,0,0,0-1.376.415,1.222,1.222,0,0,0-.555,1H-30.2a2.117,2.117,0,0,1,.477-1.3A3.254,3.254,0,0,1-28.428,10a4.351,4.351,0,0,1,1.795-.365,3.546,3.546,0,0,1,2.429.775,2.8,2.8,0,0,1,.912,2.135v4.129a5.048,5.048,0,0,0,.315,1.965v.133Zm-2.545-1.169a2.7,2.7,0,0,0,1.368-.373,2.257,2.257,0,0,0,.937-.97V14.423h-1.2q-2.819,0-2.819,1.65a1.4,1.4,0,0,0,.481,1.128A1.848,1.848,0,0,0-27.131,17.606Zm1.418-11.566h1.857l-2.222,2.437-1.235,0ZM-19.437,9.8l.05,1.128A3.269,3.269,0,0,1-16.7,9.639q2.844,0,2.869,3.209v5.928h-1.534V12.839A2.065,2.065,0,0,0-15.81,11.4a1.778,1.778,0,0,0-1.356-.464,2.214,2.214,0,0,0-1.31.4,2.7,2.7,0,0,0-.879,1.045v6.392h-1.534V9.8Zm7.545,4.411a5.255,5.255,0,0,1,.978-3.32A3.094,3.094,0,0,1-8.352,9.639a3.111,3.111,0,0,1,2.5,1.078V6.041h1.534V18.775H-5.732l-.075-.962a3.124,3.124,0,0,1-2.562,1.128,3.064,3.064,0,0,1-2.541-1.277,5.315,5.315,0,0,1-.982-3.333Zm1.534.174a3.979,3.979,0,0,0,.63,2.388,2.037,2.037,0,0,0,1.741.862,2.238,2.238,0,0,0,2.131-1.31V12.209a2.255,2.255,0,0,0-2.114-1.268,2.047,2.047,0,0,0-1.758.871A4.381,4.381,0,0,0-10.359,14.39ZM3.595,18.775a3.222,3.222,0,0,1-.216-.945A3.422,3.422,0,0,1,.826,18.941a3.167,3.167,0,0,1-2.176-.75,2.428,2.428,0,0,1-.85-1.9,2.536,2.536,0,0,1,1.065-2.176,5.023,5.023,0,0,1,3-.775H3.354v-.7a1.723,1.723,0,0,0-.481-1.281,1.933,1.933,0,0,0-1.418-.477,2.237,2.237,0,0,0-1.376.415,1.222,1.222,0,0,0-.555,1H-2.018a2.117,2.117,0,0,1,.477-1.3A3.254,3.254,0,0,1-.248,10a4.351,4.351,0,0,1,1.795-.365,3.546,3.546,0,0,1,2.429.775,2.8,2.8,0,0,1,.912,2.135v4.129A5.048,5.048,0,0,0,5.2,18.643v.133ZM1.05,17.606a2.7,2.7,0,0,0,1.368-.373,2.257,2.257,0,0,0,.937-.97V14.423h-1.2q-2.819,0-2.819,1.65A1.4,1.4,0,0,0-.186,17.2,1.848,1.848,0,0,0,1.05,17.606Zm10.579-6.425a4.6,4.6,0,0,0-.754-.058,2.021,2.021,0,0,0-2.048,1.285v6.367H7.293V9.8H8.785l.025,1.036a2.388,2.388,0,0,1,2.139-1.2,1.567,1.567,0,0,1,.68.116Zm4.974,7.76a3.92,3.92,0,0,1-2.968-1.2,4.447,4.447,0,0,1-1.144-3.2v-.282A5.383,5.383,0,0,1,13,11.873a3.977,3.977,0,0,1,1.426-1.642,3.585,3.585,0,0,1,1.986-.593,3.36,3.36,0,0,1,2.719,1.152,4.99,4.99,0,0,1,.97,3.3v.638H14.025a3.189,3.189,0,0,0,.775,2.143,2.437,2.437,0,0,0,1.886.817,2.671,2.671,0,0,0,1.376-.332,3.458,3.458,0,0,0,.987-.879l.937.73A3.767,3.767,0,0,1,16.6,18.941ZM16.412,10.9a2.046,2.046,0,0,0-1.559.676,3.284,3.284,0,0,0-.779,1.894h4.494v-.116a2.921,2.921,0,0,0-.63-1.812A1.926,1.926,0,0,0,16.412,10.9ZM27.1,16.4a1.129,1.129,0,0,0-.468-.966A4.509,4.509,0,0,0,25,14.837a7.722,7.722,0,0,1-1.849-.6,2.63,2.63,0,0,1-1.011-.829,1.983,1.983,0,0,1-.327-1.144,2.327,2.327,0,0,1,.933-1.865,3.643,3.643,0,0,1,2.384-.763,3.748,3.748,0,0,1,2.475.788,2.5,2.5,0,0,1,.949,2.015H27.008a1.385,1.385,0,0,0-.535-1.086,2,2,0,0,0-1.347-.456,2.1,2.1,0,0,0-1.31.365,1.148,1.148,0,0,0-.473.953.93.93,0,0,0,.439.837,5.406,5.406,0,0,0,1.588.539,8.273,8.273,0,0,1,1.861.614,2.715,2.715,0,0,1,1.057.858,2.11,2.11,0,0,1,.344,1.223,2.3,2.3,0,0,1-.962,1.928,4.034,4.034,0,0,1-2.5.725,4.517,4.517,0,0,1-1.907-.381,3.1,3.1,0,0,1-1.3-1.065,2.568,2.568,0,0,1-.468-1.48h1.534a1.588,1.588,0,0,0,.618,1.223,2.4,2.4,0,0,0,1.521.452,2.474,2.474,0,0,0,1.4-.352A1.083,1.083,0,0,0,27.1,16.4Zm11.334,1.293a2.209,2.209,0,0,0,1.434-.5,1.75,1.75,0,0,0,.68-1.244H42a2.781,2.781,0,0,1-.531,1.467,3.5,3.5,0,0,1-1.306,1.111,3.768,3.768,0,0,1-1.729.415,3.7,3.7,0,0,1-2.914-1.223,4.871,4.871,0,0,1-1.082-3.345v-.257a5.4,5.4,0,0,1,.481-2.33A3.663,3.663,0,0,1,36.3,10.2a3.921,3.921,0,0,1,2.127-.564,3.6,3.6,0,0,1,2.508.9A3.23,3.23,0,0,1,42,12.889H40.547a2.114,2.114,0,0,0-.659-1.43,2.05,2.05,0,0,0-1.463-.56,2.147,2.147,0,0,0-1.812.842,3.952,3.952,0,0,0-.643,2.433v.29a3.873,3.873,0,0,0,.638,2.388A2.157,2.157,0,0,0,38.433,17.689Zm4.883-3.482a5.3,5.3,0,0,1,.518-2.371,3.866,3.866,0,0,1,1.443-1.625,3.927,3.927,0,0,1,2.11-.572,3.783,3.783,0,0,1,2.964,1.268,4.88,4.88,0,0,1,1.132,3.374v.108a5.345,5.345,0,0,1-.5,2.35,3.809,3.809,0,0,1-1.434,1.621,3.972,3.972,0,0,1-2.143.58,3.774,3.774,0,0,1-2.956-1.268,4.856,4.856,0,0,1-1.132-3.358Zm1.542.182a3.838,3.838,0,0,0,.692,2.4,2.346,2.346,0,0,0,3.71-.012,4.2,4.2,0,0,0,.688-2.566,3.831,3.831,0,0,0-.7-2.392,2.227,2.227,0,0,0-1.861-.916,2.2,2.2,0,0,0-1.832.9A4.165,4.165,0,0,0,44.858,14.39Zm10-4.585.05,1.128a3.269,3.269,0,0,1,2.686-1.293q2.844,0,2.869,3.209v5.928H58.928V12.839a2.065,2.065,0,0,0-.444-1.434,1.778,1.778,0,0,0-1.356-.464,2.214,2.214,0,0,0-1.31.4,2.7,2.7,0,0,0-.879,1.045v6.392H53.406V9.8ZM-45.549,36.982a3.919,3.919,0,0,1-2.968-1.2,4.447,4.447,0,0,1-1.144-3.2V32.3a5.383,5.383,0,0,1,.51-2.384,3.977,3.977,0,0,1,1.426-1.642,3.585,3.585,0,0,1,1.986-.593,3.36,3.36,0,0,1,2.719,1.152,4.99,4.99,0,0,1,.97,3.3v.638h-6.077a3.189,3.189,0,0,0,.775,2.143,2.437,2.437,0,0,0,1.886.817A2.671,2.671,0,0,0-44.09,35.4a3.458,3.458,0,0,0,.987-.879l.937.73A3.767,3.767,0,0,1-45.549,36.982Zm-.191-8.042a2.046,2.046,0,0,0-1.559.676,3.284,3.284,0,0,0-.779,1.894h4.494v-.116a2.921,2.921,0,0,0-.63-1.812A1.926,1.926,0,0,0-45.74,28.94Zm8.316,5.8,2.222-6.89h1.567l-3.217,8.971h-1.169l-3.25-8.971H-39.7Zm10.679,2.081a3.222,3.222,0,0,1-.216-.945,3.422,3.422,0,0,1-2.554,1.111,3.167,3.167,0,0,1-2.176-.75,2.428,2.428,0,0,1-.85-1.9,2.536,2.536,0,0,1,1.065-2.176,5.023,5.023,0,0,1,3-.775h1.492v-.7a1.723,1.723,0,0,0-.481-1.281,1.933,1.933,0,0,0-1.418-.477,2.237,2.237,0,0,0-1.376.415,1.222,1.222,0,0,0-.555,1h-1.542a2.117,2.117,0,0,1,.477-1.3,3.254,3.254,0,0,1,1.293-.991,4.351,4.351,0,0,1,1.795-.365,3.546,3.546,0,0,1,2.429.775,2.8,2.8,0,0,1,.912,2.135v4.129a5.048,5.048,0,0,0,.315,1.965v.133Zm-2.545-1.169a2.7,2.7,0,0,0,1.368-.373,2.257,2.257,0,0,0,.937-.97V32.464h-1.2q-2.819,0-2.819,1.65a1.4,1.4,0,0,0,.481,1.128A1.848,1.848,0,0,0-29.291,35.647Zm7.909,1.169h-1.534V24.082h1.534Zm7.992-.887a3.258,3.258,0,0,1-2.628,1.053,2.789,2.789,0,0,1-2.185-.833,3.607,3.607,0,0,1-.759-2.467V27.846h1.534v5.8q0,2.04,1.658,2.04a2.3,2.3,0,0,0,2.338-1.31V27.846H-11.9v8.971h-1.459Zm9.36.887a3.222,3.222,0,0,1-.216-.945A3.422,3.422,0,0,1-6.8,36.982a3.167,3.167,0,0,1-2.176-.75,2.428,2.428,0,0,1-.85-1.9,2.536,2.536,0,0,1,1.065-2.176,5.023,5.023,0,0,1,3-.775h1.492v-.7a1.723,1.723,0,0,0-.481-1.281,1.933,1.933,0,0,0-1.418-.477,2.237,2.237,0,0,0-1.376.415,1.222,1.222,0,0,0-.555,1H-9.641a2.117,2.117,0,0,1,.477-1.3,3.254,3.254,0,0,1,1.293-.991,4.351,4.351,0,0,1,1.795-.365,3.546,3.546,0,0,1,2.429.775,2.8,2.8,0,0,1,.912,2.135v4.129a5.048,5.048,0,0,0,.315,1.965v.133Zm-2.545-1.169a2.7,2.7,0,0,0,1.368-.373,2.257,2.257,0,0,0,.937-.97V32.464h-1.2q-2.819,0-2.819,1.65a1.4,1.4,0,0,0,.481,1.128A1.848,1.848,0,0,0-6.574,35.647Zm9.841.083a2.209,2.209,0,0,0,1.434-.5,1.75,1.75,0,0,0,.68-1.244H6.832A2.781,2.781,0,0,1,6.3,35.457,3.5,3.5,0,0,1,5,36.568a3.768,3.768,0,0,1-1.729.415A3.7,3.7,0,0,1,.353,35.759,4.871,4.871,0,0,1-.729,32.414v-.257a5.4,5.4,0,0,1,.481-2.33,3.663,3.663,0,0,1,1.38-1.584,3.921,3.921,0,0,1,2.127-.564,3.6,3.6,0,0,1,2.508.9A3.23,3.23,0,0,1,6.832,30.93H5.382a2.114,2.114,0,0,0-.659-1.43,2.05,2.05,0,0,0-1.463-.56,2.147,2.147,0,0,0-1.812.842A3.952,3.952,0,0,0,.8,32.215v.29a3.873,3.873,0,0,0,.638,2.388A2.157,2.157,0,0,0,3.267,35.73Zm6.956,1.086H8.69V27.846h1.534ZM8.565,25.466a.916.916,0,0,1,.228-.63.856.856,0,0,1,.676-.257.869.869,0,0,1,.68.257.906.906,0,0,1,.232.63.876.876,0,0,1-.232.622.885.885,0,0,1-.68.249.871.871,0,0,1-.676-.249A.885.885,0,0,1,8.565,25.466Zm3.706,6.782a5.3,5.3,0,0,1,.518-2.371,3.866,3.866,0,0,1,1.443-1.625,3.927,3.927,0,0,1,2.11-.572,3.783,3.783,0,0,1,2.964,1.268,4.88,4.88,0,0,1,1.132,3.374v.108a5.345,5.345,0,0,1-.5,2.35A3.809,3.809,0,0,1,18.5,36.4a3.972,3.972,0,0,1-2.143.58A3.774,3.774,0,0,1,13.4,35.714a4.856,4.856,0,0,1-1.132-3.358Zm1.542.182a3.838,3.838,0,0,0,.692,2.4,2.346,2.346,0,0,0,3.71-.012,4.2,4.2,0,0,0,.688-2.566,3.831,3.831,0,0,0-.7-2.392,2.227,2.227,0,0,0-1.861-.916,2.2,2.2,0,0,0-1.832.9A4.165,4.165,0,0,0,13.813,32.43Zm3.225-8.349H18.9l-2.222,2.438-1.235,0Zm6.774,3.764.05,1.128a3.269,3.269,0,0,1,2.686-1.293q2.844,0,2.869,3.209v5.928H27.883V30.88a2.065,2.065,0,0,0-.444-1.434,1.778,1.778,0,0,0-1.356-.464,2.214,2.214,0,0,0-1.31.4,2.7,2.7,0,0,0-.879,1.045v6.392H22.361V27.846ZM35.56,32.256a5.255,5.255,0,0,1,.978-3.32,3.329,3.329,0,0,1,5.057-.178V24.082H43.13V36.816H41.72l-.075-.962a3.124,3.124,0,0,1-2.562,1.128,3.064,3.064,0,0,1-2.541-1.277,5.315,5.315,0,0,1-.982-3.333Zm1.534.174a3.979,3.979,0,0,0,.63,2.388,2.037,2.037,0,0,0,1.741.862,2.238,2.238,0,0,0,2.131-1.31V30.25a2.255,2.255,0,0,0-2.114-1.268,2.047,2.047,0,0,0-1.758.871A4.381,4.381,0,0,0,37.094,32.43Zm12.138,4.552a3.919,3.919,0,0,1-2.968-1.2,4.447,4.447,0,0,1-1.144-3.2V32.3a5.383,5.383,0,0,1,.51-2.384,3.977,3.977,0,0,1,1.426-1.642,3.585,3.585,0,0,1,1.986-.593,3.36,3.36,0,0,1,2.719,1.152,4.99,4.99,0,0,1,.97,3.3v.638H46.653a3.189,3.189,0,0,0,.775,2.143,2.437,2.437,0,0,0,1.886.817,2.671,2.671,0,0,0,1.376-.332,3.458,3.458,0,0,0,.987-.879l.937.73A3.767,3.767,0,0,1,49.232,36.982Zm-.191-8.042a2.046,2.046,0,0,0-1.559.676A3.284,3.284,0,0,0,46.7,31.51H51.2v-.116a2.921,2.921,0,0,0-.63-1.812A1.926,1.926,0,0,0,49.041,28.94Zm7.13,7.876H54.637V24.082h1.534ZM-42.32,50.3a5.255,5.255,0,0,1,.978-3.32,3.094,3.094,0,0,1,2.562-1.256,3.111,3.111,0,0,1,2.5,1.078V42.122h1.534V54.857H-36.16l-.075-.962A3.124,3.124,0,0,1-38.8,55.023a3.064,3.064,0,0,1-2.541-1.277,5.315,5.315,0,0,1-.982-3.333Zm1.534.174a3.979,3.979,0,0,0,.63,2.388,2.037,2.037,0,0,0,1.741.862,2.238,2.238,0,0,0,2.131-1.31V48.291A2.255,2.255,0,0,0-38.4,47.022a2.047,2.047,0,0,0-1.758.871A4.381,4.381,0,0,0-40.786,50.471Zm12.138,4.552a3.92,3.92,0,0,1-2.968-1.2,4.447,4.447,0,0,1-1.144-3.2v-.282a5.383,5.383,0,0,1,.51-2.384,3.978,3.978,0,0,1,1.426-1.642,3.585,3.585,0,0,1,1.986-.593,3.36,3.36,0,0,1,2.719,1.152,4.99,4.99,0,0,1,.97,3.3v.638h-6.077a3.189,3.189,0,0,0,.775,2.143,2.437,2.437,0,0,0,1.886.817,2.671,2.671,0,0,0,1.376-.332,3.458,3.458,0,0,0,.987-.879l.937.73A3.767,3.767,0,0,1-28.648,55.023Zm-.191-8.042a2.046,2.046,0,0,0-1.559.676,3.284,3.284,0,0,0-.779,1.894h4.494v-.116a2.921,2.921,0,0,0-.63-1.812A1.926,1.926,0,0,0-28.839,46.981Zm10.687,5.5a1.129,1.129,0,0,0-.468-.966,4.509,4.509,0,0,0-1.633-.593,7.722,7.722,0,0,1-1.849-.6,2.63,2.63,0,0,1-1.011-.829,1.983,1.983,0,0,1-.327-1.144,2.327,2.327,0,0,1,.933-1.865,3.643,3.643,0,0,1,2.384-.763,3.748,3.748,0,0,1,2.475.788,2.5,2.5,0,0,1,.949,2.015h-1.542a1.385,1.385,0,0,0-.535-1.086,2,2,0,0,0-1.347-.456,2.1,2.1,0,0,0-1.31.365,1.148,1.148,0,0,0-.473.953.93.93,0,0,0,.439.837,5.406,5.406,0,0,0,1.588.539,8.273,8.273,0,0,1,1.861.614,2.715,2.715,0,0,1,1.057.858,2.11,2.11,0,0,1,.344,1.223A2.3,2.3,0,0,1-17.58,54.3a4.034,4.034,0,0,1-2.5.725,4.517,4.517,0,0,1-1.907-.381,3.1,3.1,0,0,1-1.3-1.065,2.568,2.568,0,0,1-.468-1.48h1.534a1.588,1.588,0,0,0,.618,1.223,2.4,2.4,0,0,0,1.521.452,2.473,2.473,0,0,0,1.4-.352A1.083,1.083,0,0,0-18.152,52.478Zm7.254,2.545a3.92,3.92,0,0,1-2.968-1.2,4.447,4.447,0,0,1-1.144-3.2v-.282a5.383,5.383,0,0,1,.51-2.384,3.977,3.977,0,0,1,1.426-1.642,3.585,3.585,0,0,1,1.986-.593,3.36,3.36,0,0,1,2.719,1.152,4.99,4.99,0,0,1,.97,3.3v.638h-6.077a3.189,3.189,0,0,0,.775,2.143,2.437,2.437,0,0,0,1.886.817,2.671,2.671,0,0,0,1.376-.332,3.458,3.458,0,0,0,.987-.879l.937.73A3.767,3.767,0,0,1-10.9,55.023Zm-.191-8.042a2.046,2.046,0,0,0-1.559.676,3.284,3.284,0,0,0-.779,1.894h4.494v-.116a2.921,2.921,0,0,0-.63-1.812A1.926,1.926,0,0,0-11.088,46.981Zm6.906-1.094.041.995a3.313,3.313,0,0,1,2.661-1.161,2.565,2.565,0,0,1,2.562,1.443,3.4,3.4,0,0,1,1.165-1.045,3.441,3.441,0,0,1,1.7-.4q2.952,0,3,3.126v6.011H5.411v-5.92A2.06,2.06,0,0,0,4.971,47.5,1.935,1.935,0,0,0,3.5,47.022a2.034,2.034,0,0,0-1.418.51A2.068,2.068,0,0,0,1.423,48.9v5.953H-.119V48.979a1.711,1.711,0,0,0-1.915-1.957A2.052,2.052,0,0,0-4.1,48.307v6.55H-5.633V45.886Zm21.017,4.585a5.371,5.371,0,0,1-.937,3.3,3,3,0,0,1-2.537,1.252,3.29,3.29,0,0,1-2.57-1.036v4.32H9.257V45.886h1.4l.075.995a3.16,3.16,0,0,1,2.6-1.161,3.059,3.059,0,0,1,2.558,1.219,5.43,5.43,0,0,1,.941,3.391ZM15.3,50.3a3.964,3.964,0,0,0-.647-2.4,2.083,2.083,0,0,0-1.774-.879,2.255,2.255,0,0,0-2.089,1.235v4.286A2.259,2.259,0,0,0,12.9,53.771a2.073,2.073,0,0,0,1.754-.875A4.327,4.327,0,0,0,15.3,50.3Zm7.2,4.726a3.92,3.92,0,0,1-2.968-1.2,4.447,4.447,0,0,1-1.144-3.2v-.282a5.383,5.383,0,0,1,.51-2.384,3.977,3.977,0,0,1,1.426-1.642,3.585,3.585,0,0,1,1.986-.593,3.36,3.36,0,0,1,2.719,1.152,4.99,4.99,0,0,1,.97,3.3v.638H19.928a3.189,3.189,0,0,0,.775,2.143,2.437,2.437,0,0,0,1.886.817,2.671,2.671,0,0,0,1.376-.332,3.458,3.458,0,0,0,.987-.879l.937.73A3.767,3.767,0,0,1,22.506,55.023Zm-.191-8.042a2.046,2.046,0,0,0-1.559.676,3.284,3.284,0,0,0-.779,1.894h4.494v-.116a2.921,2.921,0,0,0-.63-1.812A1.926,1.926,0,0,0,22.316,46.981Zm6.915-1.094.05,1.128a3.269,3.269,0,0,1,2.686-1.293q2.844,0,2.869,3.209v5.928H33.3V48.921a2.065,2.065,0,0,0-.444-1.434,1.777,1.777,0,0,0-1.356-.464,2.214,2.214,0,0,0-1.31.4,2.7,2.7,0,0,0-.879,1.045v6.392H27.779V45.886Zm5.074-3.5a2.061,2.061,0,0,1-.51,1.451,1.656,1.656,0,0,1-1.273.555,1.867,1.867,0,0,1-.589-.083,3.176,3.176,0,0,1-.651-.34,2.819,2.819,0,0,0-.58-.311,1.42,1.42,0,0,0-.41-.054.761.761,0,0,0-.58.261.947.947,0,0,0-.24.667l-1.028-.058a2.164,2.164,0,0,1,.5-1.467,1.609,1.609,0,0,1,1.273-.58,1.546,1.546,0,0,1,.522.083,3.807,3.807,0,0,1,.63.323,3.707,3.707,0,0,0,.609.315,1.4,1.4,0,0,0,.468.075.742.742,0,0,0,.593-.282.989.989,0,0,0,.236-.655Zm2.438,7.9a5.3,5.3,0,0,1,.518-2.371A3.865,3.865,0,0,1,38.7,46.293a3.927,3.927,0,0,1,2.11-.572,3.783,3.783,0,0,1,2.964,1.268,4.88,4.88,0,0,1,1.132,3.374v.108a5.345,5.345,0,0,1-.5,2.35,3.809,3.809,0,0,1-1.434,1.621,3.972,3.972,0,0,1-2.143.58,3.774,3.774,0,0,1-2.956-1.269A4.856,4.856,0,0,1,36.742,50.4Zm1.542.182a3.838,3.838,0,0,0,.692,2.4,2.346,2.346,0,0,0,3.71-.012,4.2,4.2,0,0,0,.688-2.566,3.831,3.831,0,0,0-.7-2.392,2.227,2.227,0,0,0-1.861-.916,2.2,2.2,0,0,0-1.832.9A4.165,4.165,0,0,0,38.284,50.471Zm8.581,3.582a.96.96,0,0,1,.236-.663.9.9,0,0,1,.709-.265.927.927,0,0,1,.717.265.941.941,0,0,1,.245.663.89.89,0,0,1-.245.638.944.944,0,0,1-.717.257.853.853,0,0,1-.945-.9Z" transform="translate(201.3 243.003)" fill="#fff"/>
        <path id="Trazado_157248" data-name="Trazado 157248" d="M-68.595-2.424h-5.057L-74.788.735H-76.43l4.61-12.071h1.393L-65.809.735h-1.633Zm-4.577-1.3h4.1l-2.056-5.646ZM-60.826-.351a2.209,2.209,0,0,0,1.434-.5,1.75,1.75,0,0,0,.68-1.244h1.451a2.781,2.781,0,0,1-.531,1.467A3.5,3.5,0,0,1-59.1.486,3.768,3.768,0,0,1-60.826.9,3.7,3.7,0,0,1-63.741-.322a4.871,4.871,0,0,1-1.082-3.345v-.257a5.4,5.4,0,0,1,.481-2.33,3.663,3.663,0,0,1,1.38-1.584A3.921,3.921,0,0,1-60.835-8.4a3.6,3.6,0,0,1,2.508.9,3.23,3.23,0,0,1,1.065,2.346h-1.451a2.114,2.114,0,0,0-.659-1.43,2.05,2.05,0,0,0-1.463-.56,2.147,2.147,0,0,0-1.812.842,3.952,3.952,0,0,0-.643,2.433v.29a3.873,3.873,0,0,0,.638,2.388A2.157,2.157,0,0,0-60.826-.351Zm8.888,0a2.209,2.209,0,0,0,1.434-.5,1.75,1.75,0,0,0,.68-1.244h1.451A2.781,2.781,0,0,1-48.9-.625,3.5,3.5,0,0,1-50.21.486,3.768,3.768,0,0,1-51.939.9,3.7,3.7,0,0,1-54.853-.322a4.871,4.871,0,0,1-1.082-3.345v-.257a5.4,5.4,0,0,1,.481-2.33,3.662,3.662,0,0,1,1.38-1.584A3.921,3.921,0,0,1-51.947-8.4a3.6,3.6,0,0,1,2.508.9,3.23,3.23,0,0,1,1.065,2.346h-1.451a2.114,2.114,0,0,0-.659-1.43,2.05,2.05,0,0,0-1.463-.56,2.147,2.147,0,0,0-1.812.842A3.952,3.952,0,0,0-54.4-3.867v.29a3.873,3.873,0,0,0,.638,2.388A2.157,2.157,0,0,0-51.939-.351ZM-44.983.735h-1.534V-8.236h1.534Zm-1.658-11.35a.916.916,0,0,1,.228-.63.856.856,0,0,1,.676-.257.869.869,0,0,1,.68.257.906.906,0,0,1,.232.63.876.876,0,0,1-.232.622.885.885,0,0,1-.68.249.871.871,0,0,1-.676-.249A.885.885,0,0,1-46.641-10.615Zm3.706,6.782A5.3,5.3,0,0,1-42.417-6.2,3.865,3.865,0,0,1-40.974-7.83a3.927,3.927,0,0,1,2.11-.572A3.783,3.783,0,0,1-35.9-7.133a4.88,4.88,0,0,1,1.132,3.374v.108a5.345,5.345,0,0,1-.5,2.35A3.809,3.809,0,0,1-36.7.32,3.972,3.972,0,0,1-38.847.9,3.774,3.774,0,0,1-41.8-.368a4.856,4.856,0,0,1-1.132-3.358Zm1.542.182a3.838,3.838,0,0,0,.692,2.4,2.216,2.216,0,0,0,1.853.9,2.2,2.2,0,0,0,1.857-.916A4.2,4.2,0,0,0-36.3-3.834,3.831,3.831,0,0,0-37-6.225a2.227,2.227,0,0,0-1.861-.916,2.2,2.2,0,0,0-1.832.9A4.165,4.165,0,0,0-41.393-3.651ZM-38.168-12h1.857l-2.222,2.437-1.235,0Zm6.774,3.764.05,1.128A3.269,3.269,0,0,1-28.658-8.4q2.844,0,2.869,3.209V.735h-1.534V-5.2a2.065,2.065,0,0,0-.444-1.434A1.778,1.778,0,0,0-29.122-7.1a2.214,2.214,0,0,0-1.31.4,2.7,2.7,0,0,0-.879,1.045V.735h-1.534V-8.236ZM-15.675-.351a2.209,2.209,0,0,0,1.434-.5,1.75,1.75,0,0,0,.68-1.244h1.451A2.781,2.781,0,0,1-12.64-.625,3.5,3.5,0,0,1-13.946.486,3.768,3.768,0,0,1-15.675.9,3.7,3.7,0,0,1-18.589-.322a4.871,4.871,0,0,1-1.082-3.345v-.257a5.4,5.4,0,0,1,.481-2.33,3.663,3.663,0,0,1,1.38-1.584A3.921,3.921,0,0,1-15.683-8.4a3.6,3.6,0,0,1,2.508.9A3.23,3.23,0,0,1-12.11-5.152H-13.56a2.114,2.114,0,0,0-.659-1.43,2.05,2.05,0,0,0-1.463-.56,2.147,2.147,0,0,0-1.812.842,3.952,3.952,0,0,0-.643,2.433v.29A3.873,3.873,0,0,0-17.5-1.189,2.157,2.157,0,0,0-15.675-.351Zm4.883-3.482A5.3,5.3,0,0,1-10.273-6.2,3.866,3.866,0,0,1-8.831-7.83,3.927,3.927,0,0,1-6.721-8.4,3.783,3.783,0,0,1-3.757-7.133,4.88,4.88,0,0,1-2.625-3.759v.108a5.345,5.345,0,0,1-.5,2.35A3.809,3.809,0,0,1-4.561.32,3.972,3.972,0,0,1-6.7.9,3.774,3.774,0,0,1-9.66-.368a4.856,4.856,0,0,1-1.132-3.358Zm1.542.182a3.838,3.838,0,0,0,.692,2.4,2.216,2.216,0,0,0,1.853.9,2.2,2.2,0,0,0,1.857-.916,4.2,4.2,0,0,0,.688-2.566,3.831,3.831,0,0,0-.7-2.392,2.227,2.227,0,0,0-1.861-.916,2.2,2.2,0,0,0-1.832.9A4.165,4.165,0,0,0-9.249-3.651ZM3.635-6.86a4.6,4.6,0,0,0-.754-.058A2.021,2.021,0,0,0,.832-5.633V.735H-.7V-8.236H.791L.816-7.2A2.388,2.388,0,0,1,2.955-8.4a1.567,1.567,0,0,1,.68.116Zm5.746,0a4.6,4.6,0,0,0-.754-.058A2.021,2.021,0,0,0,6.578-5.633V.735H5.044V-8.236H6.536L6.561-7.2A2.388,2.388,0,0,1,8.7-8.4a1.567,1.567,0,0,1,.68.116ZM14.355.9A3.92,3.92,0,0,1,11.387-.3a4.447,4.447,0,0,1-1.144-3.2v-.282a5.383,5.383,0,0,1,.51-2.384,3.977,3.977,0,0,1,1.426-1.642A3.585,3.585,0,0,1,14.164-8.4a3.36,3.36,0,0,1,2.719,1.152,4.99,4.99,0,0,1,.97,3.3v.638H11.776a3.189,3.189,0,0,0,.775,2.143,2.437,2.437,0,0,0,1.886.817,2.671,2.671,0,0,0,1.376-.332,3.458,3.458,0,0,0,.987-.879l.937.73A3.767,3.767,0,0,1,14.355.9Zm-.191-8.042a2.046,2.046,0,0,0-1.559.676,3.284,3.284,0,0,0-.779,1.894H16.32v-.116A2.921,2.921,0,0,0,15.69-6.5,1.926,1.926,0,0,0,14.164-7.142Zm9.062,6.79a2.209,2.209,0,0,0,1.434-.5,1.75,1.75,0,0,0,.68-1.244h1.451A2.781,2.781,0,0,1,26.26-.625,3.5,3.5,0,0,1,24.955.486,3.768,3.768,0,0,1,23.226.9,3.7,3.7,0,0,1,20.312-.322,4.871,4.871,0,0,1,19.23-3.668v-.257a5.4,5.4,0,0,1,.481-2.33,3.663,3.663,0,0,1,1.38-1.584A3.921,3.921,0,0,1,23.218-8.4a3.6,3.6,0,0,1,2.508.9,3.23,3.23,0,0,1,1.065,2.346H25.34a2.114,2.114,0,0,0-.659-1.43,2.05,2.05,0,0,0-1.463-.56,2.147,2.147,0,0,0-1.812.842,3.952,3.952,0,0,0-.643,2.433v.29A3.873,3.873,0,0,0,21.4-1.189,2.157,2.157,0,0,0,23.226-.351ZM30.6-10.408v2.172h1.675V-7.05H30.6v5.57a1.245,1.245,0,0,0,.224.809.942.942,0,0,0,.763.27,3.713,3.713,0,0,0,.73-.1V.736A4.473,4.473,0,0,1,31.135.9a1.91,1.91,0,0,1-1.55-.622,2.671,2.671,0,0,1-.522-1.766V-7.05H27.429V-8.236h1.633v-2.172ZM35.728.735H34.195V-8.236h1.534ZM34.07-10.615a.916.916,0,0,1,.228-.63.856.856,0,0,1,.676-.257.869.869,0,0,1,.68.257.906.906,0,0,1,.232.63.876.876,0,0,1-.232.622.885.885,0,0,1-.68.249.871.871,0,0,1-.676-.249A.885.885,0,0,1,34.07-10.615Zm7.072,9.269,2.222-6.89h1.567L41.714.735H40.545L37.3-8.236h1.567ZM51.821.735a3.222,3.222,0,0,1-.216-.945A3.422,3.422,0,0,1,49.052.9,3.167,3.167,0,0,1,46.875.15a2.428,2.428,0,0,1-.85-1.9,2.536,2.536,0,0,1,1.065-2.176,5.023,5.023,0,0,1,3-.775H51.58v-.7A1.723,1.723,0,0,0,51.1-6.69a1.933,1.933,0,0,0-1.418-.477,2.237,2.237,0,0,0-1.376.415,1.222,1.222,0,0,0-.555,1H46.208a2.117,2.117,0,0,1,.477-1.3,3.254,3.254,0,0,1,1.293-.991A4.351,4.351,0,0,1,49.773-8.4a3.546,3.546,0,0,1,2.429.775,2.8,2.8,0,0,1,.912,2.135v4.129A5.048,5.048,0,0,0,53.429.6V.735ZM49.276-.434a2.7,2.7,0,0,0,1.368-.373,2.257,2.257,0,0,0,.937-.97V-3.618h-1.2q-2.819,0-2.819,1.65A1.4,1.4,0,0,0,48.04-.841,1.848,1.848,0,0,0,49.276-.434ZM62.914-3.767H58.868V-5.019h4.046Zm5.323-.058a5.255,5.255,0,0,1,.978-3.32A3.094,3.094,0,0,1,71.777-8.4a3.111,3.111,0,0,1,2.5,1.078V-12h1.534V.735H74.4l-.075-.962A3.124,3.124,0,0,1,71.76.9,3.064,3.064,0,0,1,69.219-.376a5.315,5.315,0,0,1-.982-3.333Zm1.534.174a3.979,3.979,0,0,0,.63,2.388A2.037,2.037,0,0,0,72.142-.4a2.238,2.238,0,0,0,2.131-1.31V-5.832A2.255,2.255,0,0,0,72.158-7.1,2.047,2.047,0,0,0,70.4-6.23,4.381,4.381,0,0,0,69.771-3.651ZM81.908.9A3.92,3.92,0,0,1,78.94-.3,4.447,4.447,0,0,1,77.8-3.5v-.282a5.383,5.383,0,0,1,.51-2.384,3.977,3.977,0,0,1,1.426-1.642A3.585,3.585,0,0,1,81.718-8.4a3.36,3.36,0,0,1,2.719,1.152,4.99,4.99,0,0,1,.97,3.3v.638H79.33a3.189,3.189,0,0,0,.775,2.143,2.437,2.437,0,0,0,1.886.817,2.671,2.671,0,0,0,1.376-.332,3.458,3.458,0,0,0,.987-.879l.937.73A3.767,3.767,0,0,1,81.908.9Zm-.191-8.042a2.046,2.046,0,0,0-1.559.676,3.284,3.284,0,0,0-.779,1.894h4.494v-.116a2.921,2.921,0,0,0-.63-1.812A1.926,1.926,0,0,0,81.718-7.142ZM-58.538,11.181a4.6,4.6,0,0,0-.754-.058,2.021,2.021,0,0,0-2.048,1.285v6.367h-1.534V9.8h1.492l.025,1.036a2.388,2.388,0,0,1,2.139-1.2,1.567,1.567,0,0,1,.68.116Zm4.974,7.76a3.92,3.92,0,0,1-2.968-1.2,4.447,4.447,0,0,1-1.144-3.2v-.282a5.383,5.383,0,0,1,.51-2.384,3.978,3.978,0,0,1,1.426-1.642,3.585,3.585,0,0,1,1.986-.593,3.36,3.36,0,0,1,2.719,1.152,4.99,4.99,0,0,1,.97,3.3v.638h-6.077a3.189,3.189,0,0,0,.775,2.143,2.437,2.437,0,0,0,1.886.817,2.671,2.671,0,0,0,1.376-.332,3.458,3.458,0,0,0,.987-.879l.937.73A3.767,3.767,0,0,1-53.564,18.941Zm-.191-8.042a2.046,2.046,0,0,0-1.559.676,3.284,3.284,0,0,0-.779,1.894H-51.6v-.116a2.921,2.921,0,0,0-.63-1.812A1.926,1.926,0,0,0-53.754,10.9Zm7.545-3.267V9.8h1.675V10.99H-46.21v5.57a1.245,1.245,0,0,0,.224.809.942.942,0,0,0,.763.27,3.714,3.714,0,0,0,.73-.1v1.236a4.473,4.473,0,0,1-1.177.165,1.91,1.91,0,0,1-1.55-.622,2.671,2.671,0,0,1-.522-1.766V10.99h-1.633V9.8h1.633V7.633Zm7.8,3.548a4.6,4.6,0,0,0-.754-.058,2.021,2.021,0,0,0-2.048,1.285v6.367h-1.534V9.8h1.492l.025,1.036a2.388,2.388,0,0,1,2.139-1.2,1.567,1.567,0,0,1,.68.116Zm.837,3.026a5.3,5.3,0,0,1,.518-2.371,3.866,3.866,0,0,1,1.443-1.625,3.927,3.927,0,0,1,2.11-.572,3.783,3.783,0,0,1,2.964,1.268A4.88,4.88,0,0,1-29.4,14.282v.108a5.345,5.345,0,0,1-.5,2.35,3.809,3.809,0,0,1-1.434,1.621,3.972,3.972,0,0,1-2.143.58,3.774,3.774,0,0,1-2.956-1.268,4.856,4.856,0,0,1-1.132-3.358Zm1.542.182a3.838,3.838,0,0,0,.692,2.4,2.216,2.216,0,0,0,1.853.9,2.2,2.2,0,0,0,1.857-.916,4.2,4.2,0,0,0,.688-2.566,3.831,3.831,0,0,0-.7-2.392A2.227,2.227,0,0,0-33.5,10.9a2.2,2.2,0,0,0-1.832.9A4.165,4.165,0,0,0-36.029,14.39Zm14.086,4.386a3.222,3.222,0,0,1-.216-.945,3.422,3.422,0,0,1-2.554,1.111,3.167,3.167,0,0,1-2.176-.75,2.428,2.428,0,0,1-.85-1.9,2.536,2.536,0,0,1,1.065-2.176,5.023,5.023,0,0,1,3-.775h1.492v-.7a1.723,1.723,0,0,0-.481-1.281,1.933,1.933,0,0,0-1.418-.477,2.237,2.237,0,0,0-1.376.415,1.222,1.222,0,0,0-.555,1h-1.542a2.117,2.117,0,0,1,.477-1.3A3.254,3.254,0,0,1-25.785,10a4.351,4.351,0,0,1,1.795-.365,3.546,3.546,0,0,1,2.429.775,2.8,2.8,0,0,1,.912,2.135v4.129a5.048,5.048,0,0,0,.315,1.965v.133Zm-2.545-1.169a2.7,2.7,0,0,0,1.368-.373,2.257,2.257,0,0,0,.937-.97V14.423h-1.2q-2.819,0-2.819,1.65a1.4,1.4,0,0,0,.481,1.128A1.848,1.848,0,0,0-24.488,17.606Zm7.909,1.169h-1.534V6.041h1.534Zm4.121,0h-1.534V9.8h1.534Zm-1.658-11.35a.916.916,0,0,1,.228-.63.856.856,0,0,1,.676-.257.869.869,0,0,1,.68.257.906.906,0,0,1,.232.63.876.876,0,0,1-.232.622.885.885,0,0,1-.68.249.871.871,0,0,1-.676-.249A.885.885,0,0,1-14.116,7.425ZM-8.561,9.8l.041.995A3.313,3.313,0,0,1-5.858,9.639,2.565,2.565,0,0,1-3.3,11.082a3.4,3.4,0,0,1,1.165-1.045,3.44,3.44,0,0,1,1.7-.4q2.952,0,3,3.126v6.011H1.031v-5.92a2.06,2.06,0,0,0-.439-1.438,1.935,1.935,0,0,0-1.476-.477,2.034,2.034,0,0,0-1.418.51,2.068,2.068,0,0,0-.655,1.372v5.953H-4.5V12.9a1.711,1.711,0,0,0-1.915-1.957,2.052,2.052,0,0,0-2.064,1.285v6.55h-1.534V9.8ZM8.6,18.941a3.92,3.92,0,0,1-2.968-1.2,4.447,4.447,0,0,1-1.144-3.2v-.282A5.383,5.383,0,0,1,5,11.873a3.977,3.977,0,0,1,1.426-1.642A3.585,3.585,0,0,1,8.41,9.639a3.36,3.36,0,0,1,2.719,1.152,4.99,4.99,0,0,1,.97,3.3v.638H6.022A3.189,3.189,0,0,0,6.8,16.873a2.437,2.437,0,0,0,1.886.817,2.671,2.671,0,0,0,1.376-.332,3.458,3.458,0,0,0,.987-.879l.937.73A3.767,3.767,0,0,1,8.6,18.941ZM8.41,10.9a2.046,2.046,0,0,0-1.559.676,3.284,3.284,0,0,0-.779,1.894h4.494v-.116a2.921,2.921,0,0,0-.63-1.812A1.926,1.926,0,0,0,8.41,10.9ZM15.325,9.8l.05,1.128a3.269,3.269,0,0,1,2.686-1.293q2.844,0,2.869,3.209v5.928H19.4V12.839a2.065,2.065,0,0,0-.444-1.434,1.778,1.778,0,0,0-1.356-.464,2.214,2.214,0,0,0-1.31.4,2.7,2.7,0,0,0-.879,1.045v6.392H13.874V9.8Zm10-2.172V9.8H27V10.99H25.323v5.57a1.245,1.245,0,0,0,.224.809.942.942,0,0,0,.763.27,3.713,3.713,0,0,0,.73-.1v1.236a4.473,4.473,0,0,1-1.177.165,1.91,1.91,0,0,1-1.55-.622,2.671,2.671,0,0,1-.522-1.766V10.99H22.156V9.8H23.79V7.633Zm9,11.143a3.222,3.222,0,0,1-.216-.945,3.422,3.422,0,0,1-2.554,1.111,3.167,3.167,0,0,1-2.176-.75,2.428,2.428,0,0,1-.85-1.9A2.536,2.536,0,0,1,29.6,14.112a5.023,5.023,0,0,1,3-.775h1.492v-.7a1.723,1.723,0,0,0-.481-1.281,1.933,1.933,0,0,0-1.418-.477,2.237,2.237,0,0,0-1.376.415,1.222,1.222,0,0,0-.555,1H28.714a2.117,2.117,0,0,1,.477-1.3A3.254,3.254,0,0,1,30.485,10a4.351,4.351,0,0,1,1.795-.365,3.546,3.546,0,0,1,2.429.775,2.8,2.8,0,0,1,.912,2.135v4.129a5.048,5.048,0,0,0,.315,1.965v.133Zm-2.545-1.169a2.7,2.7,0,0,0,1.368-.373,2.257,2.257,0,0,0,.937-.97V14.423h-1.2q-2.819,0-2.819,1.65a1.4,1.4,0,0,0,.481,1.128A1.848,1.848,0,0,0,31.782,17.606Zm9.841.083a2.209,2.209,0,0,0,1.434-.5,1.75,1.75,0,0,0,.68-1.244h1.451a2.781,2.781,0,0,1-.531,1.467,3.5,3.5,0,0,1-1.306,1.111,3.768,3.768,0,0,1-1.729.415,3.7,3.7,0,0,1-2.914-1.223,4.871,4.871,0,0,1-1.082-3.345v-.257a5.4,5.4,0,0,1,.481-2.33,3.662,3.662,0,0,1,1.38-1.584,3.921,3.921,0,0,1,2.127-.564,3.6,3.6,0,0,1,2.508.9,3.23,3.23,0,0,1,1.065,2.346H43.737a2.114,2.114,0,0,0-.659-1.43,2.05,2.05,0,0,0-1.463-.56,2.147,2.147,0,0,0-1.812.842,3.952,3.952,0,0,0-.643,2.433v.29a3.873,3.873,0,0,0,.638,2.388A2.157,2.157,0,0,0,41.623,17.689Zm6.956,1.086H47.045V9.8h1.534ZM46.921,7.425a.916.916,0,0,1,.228-.63.856.856,0,0,1,.676-.257.869.869,0,0,1,.68.257.906.906,0,0,1,.232.63.876.876,0,0,1-.232.622.885.885,0,0,1-.68.249.871.871,0,0,1-.676-.249A.885.885,0,0,1,46.921,7.425Zm3.706,6.782a5.3,5.3,0,0,1,.518-2.371,3.866,3.866,0,0,1,1.443-1.625,3.927,3.927,0,0,1,2.11-.572,3.783,3.783,0,0,1,2.964,1.268,4.88,4.88,0,0,1,1.132,3.374v.108a5.345,5.345,0,0,1-.5,2.35,3.809,3.809,0,0,1-1.434,1.621,3.972,3.972,0,0,1-2.143.58,3.774,3.774,0,0,1-2.956-1.268,4.856,4.856,0,0,1-1.132-3.358Zm1.542.182a3.838,3.838,0,0,0,.692,2.4,2.346,2.346,0,0,0,3.71-.012,4.2,4.2,0,0,0,.688-2.566,3.831,3.831,0,0,0-.7-2.392A2.227,2.227,0,0,0,54.7,10.9a2.2,2.2,0,0,0-1.832.9A4.165,4.165,0,0,0,52.169,14.39Zm3.225-8.349h1.857L55.029,8.478l-1.235,0ZM62.168,9.8l.05,1.128A3.269,3.269,0,0,1,64.9,9.639q2.844,0,2.869,3.209v5.928H66.239V12.839A2.065,2.065,0,0,0,65.8,11.4a1.778,1.778,0,0,0-1.356-.464,2.214,2.214,0,0,0-1.31.4,2.7,2.7,0,0,0-.879,1.045v6.392H60.717V9.8Zm7.951,8.166a.961.961,0,0,1,.236-.663.9.9,0,0,1,.709-.265.927.927,0,0,1,.717.265.941.941,0,0,1,.245.663.89.89,0,0,1-.245.638.944.944,0,0,1-.717.257.853.853,0,0,1-.945-.9Z" transform="translate(89.239 150.677)" fill="#fff"/>
      </g>
      <path id="Trazado_157244" data-name="Trazado 157244" d="M1004.131,1512.88l22.286,12.867v-25.733Z" transform="translate(27.184 1.921)" fill="#12263f"/>
      <path id="Trazado_157245" data-name="Trazado 157245" d="M1004.131,1709.88l22.286,12.867v-25.734Z" transform="translate(27.184 13.982)" fill="#12263f"/>
    </g>
  </g>
</svg>
