<svg xmlns="http://www.w3.org/2000/svg" width="820" height="365" viewBox="0 0 820 365">
  <g id="Grupo_107631" data-name="Grupo 107631" transform="translate(-390 -11202)">
    <rect id="Rectángulo_36902" data-name="Rectángulo 36902" width="820" height="365" transform="translate(390 11202)" fill="none"/>
    <g id="Grupo_107630" data-name="Grupo 107630" transform="translate(-85.131 10179.361)">
      <ellipse id="Elipse_5075" data-name="Elipse 5075" cx="61.595" cy="22.5" rx="61.595" ry="22.5" transform="translate(511.219 1024.638)" fill="#bae887" stroke="#75b62f" stroke-miterlimit="10" stroke-width="2"/>
      <path id="Trazado_157230" data-name="Trazado 157230" d="M-20.289,0h-3.368V-14.219h3.368Zm5.178-10.566.106,1.24a3.513,3.513,0,0,1,2.974-1.436,2.95,2.95,0,0,1,2.43.986,4.745,4.745,0,0,1,.832,2.969V0h-3.253V-6.67a1.8,1.8,0,0,0-.318-1.177,1.456,1.456,0,0,0-1.155-.376,1.541,1.541,0,0,0-1.415.762V0h-3.243V-10.566ZM-3.552,0H-6.805V-10.566h3.253ZM-7-13.291a1.479,1.479,0,0,1,.5-1.152,1.871,1.871,0,0,1,1.3-.449,1.871,1.871,0,0,1,1.3.449,1.479,1.479,0,0,1,.5,1.152,1.479,1.479,0,0,1-.5,1.152,1.871,1.871,0,0,1-1.3.449,1.871,1.871,0,0,1-1.3-.449A1.479,1.479,0,0,1-7-13.291ZM2.848-2.344A1.43,1.43,0,0,0,3.907-2.72a1.391,1.391,0,0,0,.366-1.05H7.314A3.678,3.678,0,0,1,6.087-.918,4.524,4.524,0,0,1,2.925.2,4.587,4.587,0,0,1-.655-1.25a5.748,5.748,0,0,1-1.309-4v-.137a6.516,6.516,0,0,1,.582-2.827A4.28,4.28,0,0,1,.3-10.1a4.951,4.951,0,0,1,2.6-.659A4.468,4.468,0,0,1,6.12-9.619a4.084,4.084,0,0,1,1.193,3.1H4.272a1.824,1.824,0,0,0-.395-1.26,1.352,1.352,0,0,0-1.059-.439q-1.261,0-1.473,1.631a11.675,11.675,0,0,0-.067,1.426,4.577,4.577,0,0,0,.375,2.207A1.294,1.294,0,0,0,2.848-2.344ZM12.107,0H8.854V-10.566h3.253ZM8.661-13.291a1.479,1.479,0,0,1,.5-1.152,1.871,1.871,0,0,1,1.3-.449,1.871,1.871,0,0,1,1.3.449,1.479,1.479,0,0,1,.5,1.152,1.479,1.479,0,0,1-.5,1.152,1.871,1.871,0,0,1-1.3.449,1.871,1.871,0,0,1-1.3-.449A1.479,1.479,0,0,1,8.661-13.291Zm5.033,7.91A6.313,6.313,0,0,1,14.3-8.2a4.375,4.375,0,0,1,1.742-1.9,5.186,5.186,0,0,1,2.666-.664,4.752,4.752,0,0,1,3.686,1.47,5.691,5.691,0,0,1,1.347,4v.117A5.52,5.52,0,0,1,22.39-1.255,4.764,4.764,0,0,1,18.728.2a4.816,4.816,0,0,1-3.571-1.353A5.331,5.331,0,0,1,13.7-4.824Zm3.243.205a3.979,3.979,0,0,0,.452,2.148,1.5,1.5,0,0,0,1.338.684q1.732,0,1.771-2.705v-.332q0-2.842-1.79-2.842-1.627,0-1.761,2.451Z" transform="translate(573.156 1052.983)" fill="#12263f"/>
      <ellipse id="Elipse_5076" data-name="Elipse 5076" cx="61.595" cy="22.5" rx="61.595" ry="22.5" transform="translate(1166.941 1335.518)" fill="#bae887" stroke="#75b62f" stroke-miterlimit="10" stroke-width="2"/>
      <path id="Trazado_157238" data-name="Trazado 157238" d="M-3.958-5.664H-9.405V0h-3.378V-14.219h9.374v2.646h-6V-8.3h5.447ZM1.268,0H-1.985V-10.566H1.268ZM-2.177-13.291a1.479,1.479,0,0,1,.5-1.152,1.871,1.871,0,0,1,1.3-.449,1.871,1.871,0,0,1,1.3.449,1.479,1.479,0,0,1,.5,1.152,1.479,1.479,0,0,1-.5,1.152,1.871,1.871,0,0,1-1.3.449,1.871,1.871,0,0,1-1.3-.449A1.479,1.479,0,0,1-2.177-13.291Zm8.421,2.725.106,1.24a3.513,3.513,0,0,1,2.974-1.436,2.95,2.95,0,0,1,2.43.986,4.745,4.745,0,0,1,.832,2.969V0H9.333V-6.67a1.8,1.8,0,0,0-.318-1.177,1.456,1.456,0,0,0-1.155-.376,1.541,1.541,0,0,0-1.415.762V0H3.2V-10.566Z" transform="translate(1229.214 1363.983)" fill="#12263f"/>
      <ellipse id="Elipse_5077" data-name="Elipse 5077" cx="78.349" cy="28.38" rx="78.349" ry="28.38" transform="translate(494.465 1089.758)" fill="#d1d5fc" stroke="#4752e3" stroke-miterlimit="10" stroke-width="2"/>
      <path id="Trazado_157231" data-name="Trazado 157231" d="M-37.912-1.15h4.981V0H-39.3V-10.664h1.393Zm7.8,1.15h-1.335V-7.925h1.335Zm-1.444-10.027a.816.816,0,0,1,.2-.557.74.74,0,0,1,.588-.227.751.751,0,0,1,.592.227.807.807,0,0,1,.2.557.78.78,0,0,1-.2.549.764.764,0,0,1-.592.22.753.753,0,0,1-.588-.22A.789.789,0,0,1-31.552-10.027Zm4.836,2.1.036.879a2.866,2.866,0,0,1,2.317-1.025A2.228,2.228,0,0,1-22.133-6.8a2.974,2.974,0,0,1,1.014-.923,2.96,2.96,0,0,1,1.476-.352q2.57,0,2.613,2.761V0h-1.335V-5.229A1.837,1.837,0,0,0-18.747-6.5a1.67,1.67,0,0,0-1.285-.421,1.756,1.756,0,0,0-1.234.45,1.838,1.838,0,0,0-.57,1.212V0h-1.343V-5.193q0-1.729-1.667-1.729a1.785,1.785,0,0,0-1.8,1.135V0h-1.335V-7.925Zm18.3,4.05A4.8,4.8,0,0,1-9.234-.959,2.6,2.6,0,0,1-11.442.146,2.844,2.844,0,0,1-13.68-.769V3.047h-1.335V-7.925h1.22l.065.879a2.734,2.734,0,0,1,2.267-1.025A2.649,2.649,0,0,1-9.237-6.995a4.848,4.848,0,0,1,.819,3Zm-1.335-.154a3.54,3.54,0,0,0-.563-2.117,1.805,1.805,0,0,0-1.545-.776A1.959,1.959,0,0,0-13.68-5.83v3.787A1.962,1.962,0,0,0-11.847-.959a1.8,1.8,0,0,0,1.527-.773A3.865,3.865,0,0,0-9.753-4.028ZM-5.271,0H-6.606V-7.925h1.335ZM-6.715-10.027a.816.816,0,0,1,.2-.557.74.74,0,0,1,.588-.227.751.751,0,0,1,.592.227.807.807,0,0,1,.2.557.78.78,0,0,1-.2.549.764.764,0,0,1-.592.22.753.753,0,0,1-.588-.22A.789.789,0,0,1-6.715-10.027ZM.107.146A3.387,3.387,0,0,1-2.477-.912a3.962,3.962,0,0,1-1-2.831v-.249A4.814,4.814,0,0,1-3.03-6.1a3.5,3.5,0,0,1,1.242-1.45A3.089,3.089,0,0,1-.059-8.071,2.906,2.906,0,0,1,2.308-7.053a4.453,4.453,0,0,1,.845,2.915v.564H-2.138a2.842,2.842,0,0,0,.675,1.893A2.107,2.107,0,0,0,.179-.959a2.3,2.3,0,0,0,1.2-.293,3.025,3.025,0,0,0,.859-.776l.816.645A3.266,3.266,0,0,1,.107.146Zm-.166-7.1a1.769,1.769,0,0,0-1.357.6,2.923,2.923,0,0,0-.679,1.674H1.817v-.1a2.6,2.6,0,0,0-.549-1.6A1.666,1.666,0,0,0-.059-6.958ZM5.953-1.106h4.569V0h-6.2V-1L8.631-6.8H4.387V-7.925h5.919v.959ZM16.846,0a2.881,2.881,0,0,1-.188-.835,2.96,2.96,0,0,1-2.223.981A2.732,2.732,0,0,1,12.54-.516,2.158,2.158,0,0,1,11.8-2.2a2.252,2.252,0,0,1,.928-1.923A4.325,4.325,0,0,1,15.337-4.8h1.3v-.623a1.534,1.534,0,0,0-.419-1.132,1.668,1.668,0,0,0-1.234-.421,1.928,1.928,0,0,0-1.2.366,1.083,1.083,0,0,0-.484.886H11.959a1.887,1.887,0,0,1,.415-1.146A2.838,2.838,0,0,1,13.5-7.749a3.741,3.741,0,0,1,1.563-.322,3.058,3.058,0,0,1,2.115.685A2.487,2.487,0,0,1,17.972-5.5v3.647a4.518,4.518,0,0,0,.274,1.736V0ZM14.63-1.033a2.321,2.321,0,0,0,1.191-.33,1.981,1.981,0,0,0,.816-.857V-3.845H15.59q-2.454,0-2.454,1.458a1.242,1.242,0,0,0,.419,1A1.594,1.594,0,0,0,14.63-1.033Zm8.77-3a4.69,4.69,0,0,1,.852-2.933,2.68,2.68,0,0,1,2.23-1.11,2.691,2.691,0,0,1,2.173.952V-11.25H29.99V0H28.763L28.7-.85a2.7,2.7,0,0,1-2.23,1A2.655,2.655,0,0,1,24.255-.981,4.744,4.744,0,0,1,23.4-3.926Zm1.335.154a3.554,3.554,0,0,0,.549,2.109A1.765,1.765,0,0,0,26.8-1a1.945,1.945,0,0,0,1.855-1.157V-5.8a1.959,1.959,0,0,0-1.841-1.121,1.773,1.773,0,0,0-1.53.769A3.914,3.914,0,0,0,24.735-3.875ZM35.3.146A3.387,3.387,0,0,1,32.718-.912a3.962,3.962,0,0,1-1-2.831v-.249A4.814,4.814,0,0,1,32.166-6.1a3.5,3.5,0,0,1,1.242-1.45,3.089,3.089,0,0,1,1.729-.524A2.906,2.906,0,0,1,37.5-7.053a4.453,4.453,0,0,1,.845,2.915v.564H33.058a2.842,2.842,0,0,0,.675,1.893,2.107,2.107,0,0,0,1.642.721,2.3,2.3,0,0,0,1.2-.293,3.025,3.025,0,0,0,.859-.776l.816.645A3.266,3.266,0,0,1,35.3.146Zm-.166-7.1a1.769,1.769,0,0,0-1.357.6A2.923,2.923,0,0,0,33.1-4.687h3.912v-.1a2.6,2.6,0,0,0-.549-1.6A1.666,1.666,0,0,0,35.137-6.958ZM-55.376,18h-1.335V6.75h1.335Zm6.958,0a2.881,2.881,0,0,1-.188-.835,2.96,2.96,0,0,1-2.223.981,2.732,2.732,0,0,1-1.895-.663,2.158,2.158,0,0,1-.74-1.681,2.252,2.252,0,0,1,.928-1.923,4.325,4.325,0,0,1,2.609-.685h1.3v-.623a1.534,1.534,0,0,0-.419-1.132,1.668,1.668,0,0,0-1.234-.421,1.928,1.928,0,0,0-1.2.366,1.083,1.083,0,0,0-.484.886H-53.3a1.887,1.887,0,0,1,.415-1.146,2.838,2.838,0,0,1,1.126-.875A3.741,3.741,0,0,1-50.2,9.929a3.058,3.058,0,0,1,2.115.685,2.487,2.487,0,0,1,.794,1.886v3.647a4.518,4.518,0,0,0,.274,1.736V18Zm-2.216-1.033a2.321,2.321,0,0,0,1.191-.33,1.981,1.981,0,0,0,.816-.857V14.155h-1.047q-2.454,0-2.454,1.458a1.242,1.242,0,0,0,.419,1A1.594,1.594,0,0,0-50.634,16.967Zm9.983-1.069a1,1,0,0,0-.408-.853,3.891,3.891,0,0,0-1.422-.524,6.655,6.655,0,0,1-1.61-.527,2.3,2.3,0,0,1-.881-.732,1.771,1.771,0,0,1-.285-1.011,2.066,2.066,0,0,1,.812-1.648,3.141,3.141,0,0,1,2.075-.674,3.232,3.232,0,0,1,2.155.7,2.223,2.223,0,0,1,.826,1.78H-40.73a1.23,1.23,0,0,0-.466-.959,1.729,1.729,0,0,0-1.173-.4,1.807,1.807,0,0,0-1.14.322,1.02,1.02,0,0,0-.411.842.825.825,0,0,0,.383.74,4.662,4.662,0,0,0,1.382.476,7.13,7.13,0,0,1,1.62.542,2.372,2.372,0,0,1,.92.758,1.884,1.884,0,0,1,.3,1.08,2.038,2.038,0,0,1-.837,1.7,3.476,3.476,0,0,1-2.173.641,3.884,3.884,0,0,1-1.66-.337,2.709,2.709,0,0,1-1.13-.941,2.291,2.291,0,0,1-.408-1.307h1.335a1.41,1.41,0,0,0,.538,1.08,2.065,2.065,0,0,0,1.325.4,2.129,2.129,0,0,0,1.216-.311A.96.96,0,0,0-40.651,15.9Zm8.185,2.1H-33.8V10.075h1.335ZM-33.909,7.973a.816.816,0,0,1,.2-.557.74.74,0,0,1,.588-.227.751.751,0,0,1,.592.227.807.807,0,0,1,.2.557.78.78,0,0,1-.2.549.764.764,0,0,1-.592.22.753.753,0,0,1-.588-.22A.789.789,0,0,1-33.909,7.973Zm4.843,2.1.043,1a2.831,2.831,0,0,1,2.339-1.143q2.476,0,2.5,2.834V18h-1.335V12.756a1.842,1.842,0,0,0-.386-1.267,1.534,1.534,0,0,0-1.18-.41,1.908,1.908,0,0,0-1.14.352,2.379,2.379,0,0,0-.765.923V18h-1.335V10.075ZM-17.625,15.9a1,1,0,0,0-.408-.853,3.891,3.891,0,0,0-1.422-.524,6.655,6.655,0,0,1-1.61-.527,2.3,2.3,0,0,1-.881-.732,1.771,1.771,0,0,1-.285-1.011,2.066,2.066,0,0,1,.812-1.648,3.141,3.141,0,0,1,2.075-.674,3.232,3.232,0,0,1,2.155.7,2.223,2.223,0,0,1,.826,1.78H-17.7a1.23,1.23,0,0,0-.466-.959,1.729,1.729,0,0,0-1.173-.4,1.807,1.807,0,0,0-1.14.322,1.02,1.02,0,0,0-.411.842.825.825,0,0,0,.383.74,4.662,4.662,0,0,0,1.382.476,7.13,7.13,0,0,1,1.62.542,2.372,2.372,0,0,1,.92.758,1.884,1.884,0,0,1,.3,1.08,2.038,2.038,0,0,1-.837,1.7,3.476,3.476,0,0,1-2.173.641,3.884,3.884,0,0,1-1.66-.337,2.709,2.709,0,0,1-1.13-.941,2.291,2.291,0,0,1-.408-1.307h1.335a1.41,1.41,0,0,0,.538,1.08,2.065,2.065,0,0,0,1.325.4,2.13,2.13,0,0,0,1.216-.311A.96.96,0,0,0-17.625,15.9Zm4.887-7.742v1.919h1.458v1.047h-1.458v4.921a1.112,1.112,0,0,0,.195.715.814.814,0,0,0,.664.238,3.189,3.189,0,0,0,.635-.088V18a3.841,3.841,0,0,1-1.025.146,1.651,1.651,0,0,1-1.35-.549,2.384,2.384,0,0,1-.455-1.56V11.123H-15.5V10.075h1.422V8.156ZM-4.9,18a2.881,2.881,0,0,1-.188-.835,2.96,2.96,0,0,1-2.223.981A2.732,2.732,0,0,1-9.2,17.484a2.158,2.158,0,0,1-.74-1.681,2.252,2.252,0,0,1,.928-1.923A4.325,4.325,0,0,1-6.408,13.2h1.3v-.623a1.534,1.534,0,0,0-.419-1.132,1.668,1.668,0,0,0-1.234-.421,1.928,1.928,0,0,0-1.2.366,1.083,1.083,0,0,0-.484.886H-9.786a1.887,1.887,0,0,1,.415-1.146,2.838,2.838,0,0,1,1.126-.875,3.741,3.741,0,0,1,1.563-.322,3.059,3.059,0,0,1,2.115.685A2.487,2.487,0,0,1-3.773,12.5v3.647A4.518,4.518,0,0,0-3.5,17.883V18Zm-2.216-1.033a2.321,2.321,0,0,0,1.191-.33,1.981,1.981,0,0,0,.816-.857V14.155H-6.155q-2.454,0-2.454,1.458a1.242,1.242,0,0,0,.419,1A1.594,1.594,0,0,0-7.115,16.967ZM-.229,18H-1.564V6.75H-.229Zm6.958,0a2.881,2.881,0,0,1-.188-.835,2.96,2.96,0,0,1-2.223.981,2.732,2.732,0,0,1-1.895-.663,2.158,2.158,0,0,1-.74-1.681,2.252,2.252,0,0,1,.928-1.923A4.325,4.325,0,0,1,5.221,13.2h1.3v-.623A1.534,1.534,0,0,0,6.1,11.441a1.668,1.668,0,0,0-1.234-.421,1.928,1.928,0,0,0-1.2.366,1.083,1.083,0,0,0-.484.886H1.843a1.887,1.887,0,0,1,.415-1.146,2.838,2.838,0,0,1,1.126-.875,3.741,3.741,0,0,1,1.563-.322,3.059,3.059,0,0,1,2.115.685A2.487,2.487,0,0,1,7.855,12.5v3.647a4.518,4.518,0,0,0,.274,1.736V18ZM4.513,16.967a2.321,2.321,0,0,0,1.191-.33,1.981,1.981,0,0,0,.816-.857V14.155H5.473q-2.454,0-2.454,1.458a1.242,1.242,0,0,0,.419,1A1.594,1.594,0,0,0,4.513,16.967Zm8.568.073A1.906,1.906,0,0,0,14.33,16.6a1.552,1.552,0,0,0,.592-1.1h1.263a2.48,2.48,0,0,1-.462,1.3,3.055,3.055,0,0,1-1.137.981,3.242,3.242,0,0,1-1.5.366,3.2,3.2,0,0,1-2.537-1.08A4.344,4.344,0,0,1,9.6,14.111v-.227a4.831,4.831,0,0,1,.419-2.058,3.222,3.222,0,0,1,1.2-1.4,3.376,3.376,0,0,1,1.851-.5,3.106,3.106,0,0,1,2.184.8,2.871,2.871,0,0,1,.928,2.073H14.922a1.879,1.879,0,0,0-.574-1.263,1.771,1.771,0,0,0-1.274-.494,1.859,1.859,0,0,0-1.577.743,3.529,3.529,0,0,0-.559,2.15v.256a3.459,3.459,0,0,0,.556,2.109A1.867,1.867,0,0,0,13.081,17.041ZM19.137,18H17.8V10.075h1.335ZM17.694,7.973a.816.816,0,0,1,.2-.557.74.74,0,0,1,.588-.227.751.751,0,0,1,.592.227.807.807,0,0,1,.2.557.78.78,0,0,1-.2.549.764.764,0,0,1-.592.22.753.753,0,0,1-.588-.22A.789.789,0,0,1,17.694,7.973Zm3.227,5.991a4.738,4.738,0,0,1,.451-2.095,3.314,3.314,0,0,1,3.093-1.941,3.272,3.272,0,0,1,2.581,1.121,4.351,4.351,0,0,1,.985,2.981v.1a4.78,4.78,0,0,1-.437,2.076,3.349,3.349,0,0,1-1.249,1.432,3.42,3.42,0,0,1-1.866.513,3.264,3.264,0,0,1-2.573-1.121,4.329,4.329,0,0,1-.985-2.966Zm1.343.161a3.426,3.426,0,0,0,.6,2.117,2.024,2.024,0,0,0,3.23-.011,3.748,3.748,0,0,0,.6-2.267,3.42,3.42,0,0,0-.61-2.113,1.93,1.93,0,0,0-1.62-.809,1.908,1.908,0,0,0-1.6.8A3.72,3.72,0,0,0,22.263,14.125Zm8.705-4.05.043,1A2.831,2.831,0,0,1,33.35,9.929q2.476,0,2.5,2.834V18H34.512V12.756a1.842,1.842,0,0,0-.386-1.267,1.534,1.534,0,0,0-1.18-.41,1.908,1.908,0,0,0-1.14.352,2.379,2.379,0,0,0-.765.923V18H29.7V10.075ZM41.1,18.146a3.387,3.387,0,0,1-2.584-1.058,3.962,3.962,0,0,1-1-2.831v-.249a4.814,4.814,0,0,1,.444-2.106,3.5,3.5,0,0,1,1.242-1.45,3.089,3.089,0,0,1,1.729-.524A2.906,2.906,0,0,1,43.3,10.947a4.453,4.453,0,0,1,.845,2.915v.564H38.858a2.842,2.842,0,0,0,.675,1.893,2.107,2.107,0,0,0,1.642.721,2.3,2.3,0,0,0,1.2-.293,3.025,3.025,0,0,0,.859-.776l.816.645A3.266,3.266,0,0,1,41.1,18.146Zm-.166-7.1a1.769,1.769,0,0,0-1.357.6,2.923,2.923,0,0,0-.679,1.674h3.912v-.1a2.6,2.6,0,0,0-.549-1.6A1.666,1.666,0,0,0,40.936,11.042Zm9.3,4.856a1,1,0,0,0-.408-.853,3.891,3.891,0,0,0-1.422-.524,6.655,6.655,0,0,1-1.61-.527,2.3,2.3,0,0,1-.881-.732,1.771,1.771,0,0,1-.285-1.011,2.066,2.066,0,0,1,.812-1.648,3.141,3.141,0,0,1,2.075-.674,3.232,3.232,0,0,1,2.155.7A2.223,2.223,0,0,1,51.5,12.4H50.161a1.23,1.23,0,0,0-.466-.959,1.729,1.729,0,0,0-1.173-.4,1.807,1.807,0,0,0-1.14.322,1.02,1.02,0,0,0-.411.842.825.825,0,0,0,.383.74,4.662,4.662,0,0,0,1.382.476,7.13,7.13,0,0,1,1.62.542,2.372,2.372,0,0,1,.92.758,1.884,1.884,0,0,1,.3,1.08,2.038,2.038,0,0,1-.837,1.7,3.476,3.476,0,0,1-2.173.641,3.884,3.884,0,0,1-1.66-.337,2.709,2.709,0,0,1-1.13-.941,2.291,2.291,0,0,1-.408-1.307H46.7a1.41,1.41,0,0,0,.538,1.08,2.065,2.065,0,0,0,1.325.4,2.13,2.13,0,0,0,1.216-.311A.96.96,0,0,0,50.241,15.9Zm3.1,1.392a.856.856,0,0,1,.206-.586.778.778,0,0,1,.617-.234.8.8,0,0,1,.624.234A.839.839,0,0,1,55,17.29a.793.793,0,0,1-.213.564.815.815,0,0,1-.624.227.791.791,0,0,1-.617-.227A.809.809,0,0,1,53.344,17.29Z" transform="translate(573.634 1113.522)" fill="#12263f"/>
      <ellipse id="Elipse_5078" data-name="Elipse 5078" cx="78.349" cy="28.38" rx="78.349" ry="28.38" transform="translate(971.828 1329.638)" fill="#f85316" stroke="#ff642b" stroke-miterlimit="10" stroke-width="2"/>
      <path id="Trazado_157237" data-name="Trazado 157237" d="M-62.846-2.644l2.382-8.02h2.411L-61.713,0h-2.259l-3.645-10.664h2.4ZM-53.924.146a3.8,3.8,0,0,1-2.8-1.069A3.831,3.831,0,0,1-57.8-3.772v-.205a4.846,4.846,0,0,1,.455-2.135,3.369,3.369,0,0,1,1.288-1.45,3.576,3.576,0,0,1,1.9-.509,3.218,3.218,0,0,1,2.523,1.025,4.206,4.206,0,0,1,.92,2.908v.864h-4.973a1.977,1.977,0,0,0,.61,1.245,1.828,1.828,0,0,0,1.288.469A2.239,2.239,0,0,0-51.9-2.446l1.025,1.165a3.142,3.142,0,0,1-1.27,1.051A4.117,4.117,0,0,1-53.924.146Zm-.238-6.511a1.294,1.294,0,0,0-1.007.427,2.226,2.226,0,0,0-.494,1.221h2.9v-.169a1.59,1.59,0,0,0-.375-1.092A1.334,1.334,0,0,0-54.162-6.365Zm6.554-1.56.065.916A2.712,2.712,0,0,1-45.3-8.071a2.25,2.25,0,0,1,1.848.74A3.487,3.487,0,0,1-42.83-5.12V0h-2.086V-5.068a1.387,1.387,0,0,0-.289-.978,1.281,1.281,0,0,0-.96-.3,1.431,1.431,0,0,0-1.321.762V0h-2.086V-7.925Zm8.857-1.948v1.948h1.335v1.553h-1.335v3.955a.954.954,0,0,0,.166.63.826.826,0,0,0,.635.19,3.28,3.28,0,0,0,.614-.051v1.6A4.237,4.237,0,0,1-38.6.146,2.006,2.006,0,0,1-40.838-2.1v-4.27h-1.14V-7.925h1.14V-9.873ZM-31.728,0a2.376,2.376,0,0,1-.209-.71,2.507,2.507,0,0,1-1.971.857,2.749,2.749,0,0,1-1.9-.674,2.181,2.181,0,0,1-.754-1.7,2.251,2.251,0,0,1,.92-1.934,4.491,4.491,0,0,1,2.66-.681h.96V-5.3a1.319,1.319,0,0,0-.278-.879,1.085,1.085,0,0,0-.877-.33,1.231,1.231,0,0,0-.826.256.877.877,0,0,0-.3.7h-2.086a2.147,2.147,0,0,1,.419-1.274,2.773,2.773,0,0,1,1.184-.919,4.26,4.26,0,0,1,1.718-.333,3.376,3.376,0,0,1,2.292.736,2.593,2.593,0,0,1,.848,2.069v3.435a3.837,3.837,0,0,0,.31,1.707V0Zm-1.725-1.472a1.776,1.776,0,0,0,.852-.209,1.36,1.36,0,0,0,.577-.56V-3.6h-.78q-1.566,0-1.667,1.1l-.007.125a.853.853,0,0,0,.274.652A1.056,1.056,0,0,0-33.453-1.472Zm8.481-2.549a4.827,4.827,0,0,1,.819-2.952,2.645,2.645,0,0,1,2.241-1.1,2.377,2.377,0,0,1,1.884.864V-11.25h2.093V0h-1.884l-.1-.842a2.442,2.442,0,0,1-2.007.989,2.638,2.638,0,0,1-2.212-1.1A4.982,4.982,0,0,1-24.972-4.021Zm2.086.158A3.165,3.165,0,0,0-22.5-2.154a1.241,1.241,0,0,0,1.112.594,1.394,1.394,0,0,0,1.364-.829V-5.521a1.374,1.374,0,0,0-1.35-.829Q-22.886-6.35-22.886-3.863ZM-12.723.146a3.8,3.8,0,0,1-2.8-1.069A3.831,3.831,0,0,1-16.6-3.772v-.205a4.846,4.846,0,0,1,.455-2.135,3.369,3.369,0,0,1,1.288-1.45,3.576,3.576,0,0,1,1.9-.509,3.218,3.218,0,0,1,2.523,1.025,4.206,4.206,0,0,1,.92,2.908v.864h-4.973a1.977,1.977,0,0,0,.61,1.245,1.828,1.828,0,0,0,1.288.469A2.239,2.239,0,0,0-10.7-2.446l1.025,1.165a3.142,3.142,0,0,1-1.27,1.051A4.117,4.117,0,0,1-12.723.146Zm-.238-6.511a1.294,1.294,0,0,0-1.007.427,2.226,2.226,0,0,0-.494,1.221h2.9v-.169a1.59,1.59,0,0,0-.375-1.092A1.334,1.334,0,0,0-12.961-6.365ZM2.385-3.889A4.8,4.8,0,0,1,1.566-.956,2.614,2.614,0,0,1-.647.146,2.417,2.417,0,0,1-2.56-.688V3.047H-4.646V-7.925h1.934l.072.776A2.437,2.437,0,0,1-.661-8.071,2.631,2.631,0,0,1,1.584-6.987,4.934,4.934,0,0,1,2.385-4ZM.3-4.043A3.156,3.156,0,0,0-.087-5.75a1.253,1.253,0,0,0-1.122-.6,1.363,1.363,0,0,0-1.35.762v3.245A1.386,1.386,0,0,0-1.2-1.56Q.3-1.56.3-4.043Zm7.767-1.9A5.587,5.587,0,0,0,7.315-6a1.523,1.523,0,0,0-1.552.813V0H3.677V-7.925H5.648l.058.945a1.93,1.93,0,0,1,1.74-1.091,2.157,2.157,0,0,1,.65.1Zm.419,1.9a4.758,4.758,0,0,1,.448-2.1A3.307,3.307,0,0,1,10.22-7.566a3.717,3.717,0,0,1,1.953-.505,3.528,3.528,0,0,1,2.581.981,3.967,3.967,0,0,1,1.115,2.666l.014.542a4.179,4.179,0,0,1-1,2.926,3.462,3.462,0,0,1-2.692,1.1,3.479,3.479,0,0,1-2.7-1.1A4.253,4.253,0,0,1,8.484-3.94Zm2.086.15a3,3,0,0,0,.419,1.727,1.375,1.375,0,0,0,1.2.6,1.378,1.378,0,0,0,1.184-.591A3.279,3.279,0,0,0,13.8-4.039a2.966,2.966,0,0,0-.426-1.716,1.378,1.378,0,0,0-1.2-.609,1.356,1.356,0,0,0-1.184.605A3.335,3.335,0,0,0,10.57-3.885Zm6.273-.136a4.827,4.827,0,0,1,.819-2.952,2.645,2.645,0,0,1,2.241-1.1,2.377,2.377,0,0,1,1.884.864V-11.25h2.093V0H22l-.1-.842a2.442,2.442,0,0,1-2.007.989,2.638,2.638,0,0,1-2.212-1.1A4.982,4.982,0,0,1,16.843-4.021Zm2.086.158a3.165,3.165,0,0,0,.383,1.709,1.242,1.242,0,0,0,1.112.594,1.394,1.394,0,0,0,1.364-.829V-5.521a1.374,1.374,0,0,0-1.35-.829Q18.929-6.35,18.929-3.863ZM30.175-.806a2.6,2.6,0,0,1-2.137.952,2.448,2.448,0,0,1-1.916-.732,3.156,3.156,0,0,1-.675-2.146V-7.925h2.086V-2.8q0,1.239,1.112,1.239A1.5,1.5,0,0,0,30.1-2.308V-7.925H32.2V0H30.233Zm6.843-.754a1.356,1.356,0,0,0,.938-.322,1.136,1.136,0,0,0,.375-.857h1.956a2.744,2.744,0,0,1-.433,1.476,2.871,2.871,0,0,1-1.166,1.04,3.6,3.6,0,0,1-1.635.37,3.366,3.366,0,0,1-2.642-1.08,4.315,4.315,0,0,1-.967-2.985v-.139A4.266,4.266,0,0,1,34.4-6.98a3.327,3.327,0,0,1,2.635-1.091,3.257,3.257,0,0,1,2.35.846,3.018,3.018,0,0,1,.9,2.252H38.332a1.467,1.467,0,0,0-.375-1.005A1.242,1.242,0,0,0,37-6.365a1.25,1.25,0,0,0-1.1.539,3.162,3.162,0,0,0-.372,1.749v.22A3.2,3.2,0,0,0,35.9-2.1,1.266,1.266,0,0,0,37.018-1.56Zm6.958-8.313v1.948h1.335v1.553H43.976v3.955a.954.954,0,0,0,.166.63.826.826,0,0,0,.635.19,3.28,3.28,0,0,0,.614-.051v1.6a4.237,4.237,0,0,1-1.263.19A2.006,2.006,0,0,1,41.89-2.1v-4.27H40.75V-7.925h1.14V-9.873Zm1.956,5.837a4.758,4.758,0,0,1,.448-2.1,3.307,3.307,0,0,1,1.288-1.428,3.717,3.717,0,0,1,1.953-.505A3.528,3.528,0,0,1,52.2-7.09a3.967,3.967,0,0,1,1.115,2.666l.014.542a4.179,4.179,0,0,1-1,2.926,3.462,3.462,0,0,1-2.692,1.1,3.479,3.479,0,0,1-2.7-1.1A4.253,4.253,0,0,1,45.932-3.94Zm2.086.15a3,3,0,0,0,.419,1.727,1.375,1.375,0,0,0,1.2.6,1.378,1.378,0,0,0,1.184-.591,3.279,3.279,0,0,0,.426-1.889,2.966,2.966,0,0,0-.426-1.716,1.378,1.378,0,0,0-1.2-.609,1.356,1.356,0,0,0-1.184.605A3.335,3.335,0,0,0,48.018-3.885Zm10.827,1.7a.683.683,0,0,0-.379-.612,4.262,4.262,0,0,0-1.216-.4q-2.786-.593-2.786-2.4a2.189,2.189,0,0,1,.863-1.761,3.445,3.445,0,0,1,2.256-.707,3.707,3.707,0,0,1,2.378.71,2.251,2.251,0,0,1,.891,1.846H58.766a1.032,1.032,0,0,0-.289-.751,1.211,1.211,0,0,0-.9-.3,1.236,1.236,0,0,0-.816.242.767.767,0,0,0-.289.615.654.654,0,0,0,.328.568,3.346,3.346,0,0,0,1.108.374,8.946,8.946,0,0,1,1.314.355,2.185,2.185,0,0,1,1.653,2.131,2.076,2.076,0,0,1-.917,1.754,3.913,3.913,0,0,1-2.368.67,4.079,4.079,0,0,1-1.743-.355,2.933,2.933,0,0,1-1.195-.974,2.286,2.286,0,0,1-.433-1.337H56.2a1.111,1.111,0,0,0,.411.864,1.615,1.615,0,0,0,1.025.3,1.494,1.494,0,0,0,.906-.231A.721.721,0,0,0,58.846-2.19Zm3.479,1.15a1.073,1.073,0,0,1,.336-.82,1.181,1.181,0,0,1,.841-.315,1.191,1.191,0,0,1,.848.315,1.073,1.073,0,0,1,.336.82,1.059,1.059,0,0,1-.332.809A1.2,1.2,0,0,1,63.5.081a1.186,1.186,0,0,1-.845-.311A1.059,1.059,0,0,1,62.325-1.04Z" transform="translate(1051.738 1362.402)" fill="#fff"/>
      <rect id="Rectángulo_37068" data-name="Rectángulo 37068" width="130" height="68" transform="translate(697.131 1166.638)" fill="#d1d5fc" stroke="#4752e3" stroke-miterlimit="10" stroke-width="2"/>
      <path id="Trazado_157220" data-name="Trazado 157220" d="M643.772,1234.638H483.131l18.725-68H662.5Z" fill="#d1d5fc" stroke="#4752e3" stroke-miterlimit="10" stroke-width="2"/>
      <path id="Trazado_157232" data-name="Trazado 157232" d="M-32.549-4.175V0h-1.386V-10.664h3.876a3.858,3.858,0,0,1,2.7.894A3.051,3.051,0,0,1-26.378-7.4a3.011,3.011,0,0,1-.956,2.391,4.028,4.028,0,0,1-2.739.839Zm0-1.15h2.49a2.466,2.466,0,0,0,1.7-.532,1.96,1.96,0,0,0,.592-1.537,2.025,2.025,0,0,0-.592-1.526,2.313,2.313,0,0,0-1.624-.594h-2.57ZM-21.672.146A3.387,3.387,0,0,1-24.256-.912a3.962,3.962,0,0,1-1-2.831v-.249A4.814,4.814,0,0,1-24.808-6.1a3.5,3.5,0,0,1,1.242-1.45,3.089,3.089,0,0,1,1.729-.524A2.906,2.906,0,0,1-19.47-7.053a4.453,4.453,0,0,1,.845,2.915v.564h-5.291a2.842,2.842,0,0,0,.675,1.893A2.107,2.107,0,0,0-21.6-.959a2.3,2.3,0,0,0,1.2-.293,3.025,3.025,0,0,0,.859-.776l.816.645A3.266,3.266,0,0,1-21.672.146Zm-.166-7.1a1.769,1.769,0,0,0-1.357.6,2.923,2.923,0,0,0-.679,1.674h3.912v-.1a2.6,2.6,0,0,0-.549-1.6A1.666,1.666,0,0,0-21.838-6.958Zm9.3,4.856a1,1,0,0,0-.408-.853,3.891,3.891,0,0,0-1.422-.524,6.655,6.655,0,0,1-1.61-.527,2.3,2.3,0,0,1-.881-.732,1.771,1.771,0,0,1-.285-1.011A2.066,2.066,0,0,1-16.326-7.4a3.141,3.141,0,0,1,2.075-.674,3.232,3.232,0,0,1,2.155.7A2.223,2.223,0,0,1-11.27-5.6h-1.343a1.23,1.23,0,0,0-.466-.959,1.729,1.729,0,0,0-1.173-.4,1.807,1.807,0,0,0-1.14.322,1.02,1.02,0,0,0-.411.842.825.825,0,0,0,.383.74,4.662,4.662,0,0,0,1.382.476,7.13,7.13,0,0,1,1.62.542,2.372,2.372,0,0,1,.92.758,1.884,1.884,0,0,1,.3,1.08,2.038,2.038,0,0,1-.837,1.7,3.476,3.476,0,0,1-2.173.641,3.884,3.884,0,0,1-1.66-.337A2.709,2.709,0,0,1-17-1.132a2.291,2.291,0,0,1-.408-1.307h1.335a1.41,1.41,0,0,0,.538,1.08,2.065,2.065,0,0,0,1.325.4,2.13,2.13,0,0,0,1.216-.311A.96.96,0,0,0-12.533-2.1Zm7.9,2.1a2.881,2.881,0,0,1-.188-.835A2.96,2.96,0,0,1-7.047.146,2.732,2.732,0,0,1-8.942-.516,2.158,2.158,0,0,1-9.682-2.2,2.252,2.252,0,0,1-8.755-4.12,4.325,4.325,0,0,1-6.145-4.8h1.3v-.623a1.534,1.534,0,0,0-.419-1.132A1.668,1.668,0,0,0-6.5-6.98a1.928,1.928,0,0,0-1.2.366,1.083,1.083,0,0,0-.484.886H-9.523a1.887,1.887,0,0,1,.415-1.146,2.838,2.838,0,0,1,1.126-.875,3.741,3.741,0,0,1,1.563-.322A3.059,3.059,0,0,1-4.3-7.386,2.487,2.487,0,0,1-3.511-5.5v3.647A4.518,4.518,0,0,0-3.236-.117V0ZM-6.853-1.033a2.321,2.321,0,0,0,1.191-.33,1.981,1.981,0,0,0,.816-.857V-3.845H-5.893q-2.454,0-2.454,1.458a1.242,1.242,0,0,0,.419,1A1.594,1.594,0,0,0-6.853-1.033Zm5.11-3A4.69,4.69,0,0,1-.89-6.962a2.68,2.68,0,0,1,2.23-1.11,2.691,2.691,0,0,1,2.173.952V-11.25H4.848V0H3.621L3.556-.85a2.7,2.7,0,0,1-2.23,1A2.655,2.655,0,0,1-.887-.981a4.744,4.744,0,0,1-.855-2.944Zm1.335.154A3.554,3.554,0,0,0,.142-1.765,1.765,1.765,0,0,0,1.658-1,1.945,1.945,0,0,0,3.513-2.161V-5.8A1.959,1.959,0,0,0,1.672-6.921a1.773,1.773,0,0,0-1.53.769A3.914,3.914,0,0,0-.407-3.875ZM11.742,0a2.881,2.881,0,0,1-.188-.835A2.96,2.96,0,0,1,9.331.146,2.732,2.732,0,0,1,7.436-.516,2.158,2.158,0,0,1,6.7-2.2,2.252,2.252,0,0,1,7.624-4.12,4.325,4.325,0,0,1,10.233-4.8h1.3v-.623a1.534,1.534,0,0,0-.419-1.132A1.668,1.668,0,0,0,9.879-6.98a1.928,1.928,0,0,0-1.2.366,1.083,1.083,0,0,0-.484.886H6.855A1.887,1.887,0,0,1,7.27-6.874,2.838,2.838,0,0,1,8.4-7.749a3.741,3.741,0,0,1,1.563-.322,3.059,3.059,0,0,1,2.115.685A2.487,2.487,0,0,1,12.868-5.5v3.647a4.518,4.518,0,0,0,.274,1.736V0ZM9.526-1.033a2.321,2.321,0,0,0,1.191-.33,1.981,1.981,0,0,0,.816-.857V-3.845H10.486q-2.454,0-2.454,1.458a1.242,1.242,0,0,0,.419,1A1.594,1.594,0,0,0,9.526-1.033Zm8.77-3a4.69,4.69,0,0,1,.852-2.933,2.68,2.68,0,0,1,2.23-1.11,2.691,2.691,0,0,1,2.173.952V-11.25h1.335V0H23.659l-.065-.85a2.7,2.7,0,0,1-2.23,1A2.655,2.655,0,0,1,19.151-.981,4.744,4.744,0,0,1,18.3-3.926Zm1.335.154a3.554,3.554,0,0,0,.549,2.109A1.765,1.765,0,0,0,21.7-1,1.945,1.945,0,0,0,23.55-2.161V-5.8A1.959,1.959,0,0,0,21.71-6.921a1.773,1.773,0,0,0-1.53.769A3.914,3.914,0,0,0,19.631-3.875ZM30.2.146A3.387,3.387,0,0,1,27.614-.912a3.962,3.962,0,0,1-1-2.831v-.249A4.814,4.814,0,0,1,27.062-6.1,3.5,3.5,0,0,1,28.3-7.548a3.089,3.089,0,0,1,1.729-.524A2.906,2.906,0,0,1,32.4-7.053a4.453,4.453,0,0,1,.845,2.915v.564H27.954a2.842,2.842,0,0,0,.675,1.893,2.107,2.107,0,0,0,1.642.721,2.3,2.3,0,0,0,1.2-.293,3.025,3.025,0,0,0,.859-.776l.816.645A3.266,3.266,0,0,1,30.2.146Zm-.166-7.1a1.769,1.769,0,0,0-1.357.6A2.923,2.923,0,0,0,28-4.687h3.912v-.1a2.6,2.6,0,0,0-.549-1.6A1.666,1.666,0,0,0,30.032-6.958ZM-46.282,10.075l.036.879a2.866,2.866,0,0,1,2.317-1.025A2.228,2.228,0,0,1-41.7,11.2a2.974,2.974,0,0,1,1.014-.923,2.96,2.96,0,0,1,1.476-.352q2.57,0,2.613,2.761V18h-1.335V12.771a1.837,1.837,0,0,0-.383-1.271,1.67,1.67,0,0,0-1.285-.421,1.756,1.756,0,0,0-1.234.45,1.838,1.838,0,0,0-.57,1.212V18h-1.343V12.807q0-1.729-1.667-1.729a1.785,1.785,0,0,0-1.8,1.135V18h-1.335V10.075ZM-29.76,18a2.881,2.881,0,0,1-.188-.835,2.96,2.96,0,0,1-2.223.981,2.732,2.732,0,0,1-1.895-.663,2.158,2.158,0,0,1-.74-1.681,2.252,2.252,0,0,1,.928-1.923,4.325,4.325,0,0,1,2.609-.685h1.3v-.623a1.534,1.534,0,0,0-.419-1.132,1.668,1.668,0,0,0-1.234-.421,1.928,1.928,0,0,0-1.2.366,1.083,1.083,0,0,0-.484.886h-1.343a1.887,1.887,0,0,1,.415-1.146,2.838,2.838,0,0,1,1.126-.875,3.741,3.741,0,0,1,1.563-.322,3.058,3.058,0,0,1,2.115.685,2.487,2.487,0,0,1,.794,1.886v3.647a4.518,4.518,0,0,0,.274,1.736V18Zm-2.216-1.033a2.321,2.321,0,0,0,1.191-.33,1.981,1.981,0,0,0,.816-.857V14.155h-1.047q-2.454,0-2.454,1.458a1.242,1.242,0,0,0,.419,1A1.594,1.594,0,0,0-31.976,16.967Zm7.247-8.811v1.919h1.458v1.047h-1.458v4.921a1.112,1.112,0,0,0,.195.715.814.814,0,0,0,.664.238,3.189,3.189,0,0,0,.635-.088V18a3.841,3.841,0,0,1-1.025.146,1.651,1.651,0,0,1-1.35-.549,2.384,2.384,0,0,1-.455-1.56V11.123h-1.422V10.075h1.422V8.156Zm6.258,9.99a3.387,3.387,0,0,1-2.584-1.058,3.962,3.962,0,0,1-1-2.831v-.249a4.814,4.814,0,0,1,.444-2.106,3.5,3.5,0,0,1,1.242-1.45,3.089,3.089,0,0,1,1.729-.524,2.906,2.906,0,0,1,2.368,1.018,4.453,4.453,0,0,1,.845,2.915v.564h-5.291a2.842,2.842,0,0,0,.675,1.893,2.107,2.107,0,0,0,1.642.721,2.3,2.3,0,0,0,1.2-.293,3.025,3.025,0,0,0,.859-.776l.816.645A3.266,3.266,0,0,1-18.47,18.146Zm-.166-7.1a1.769,1.769,0,0,0-1.357.6,2.923,2.923,0,0,0-.679,1.674h3.912v-.1a2.6,2.6,0,0,0-.549-1.6A1.666,1.666,0,0,0-18.636,11.042Zm8.532.249a3.945,3.945,0,0,0-.657-.051,1.759,1.759,0,0,0-1.783,1.135V18h-1.335V10.075h1.3l.022.916A2.073,2.073,0,0,1-10.7,9.929a1.347,1.347,0,0,1,.592.1ZM-7.426,18H-8.762V10.075h1.335ZM-8.87,7.973a.816.816,0,0,1,.2-.557.74.74,0,0,1,.588-.227.751.751,0,0,1,.592.227.807.807,0,0,1,.2.557.78.78,0,0,1-.2.549.764.764,0,0,1-.592.22.753.753,0,0,1-.588-.22A.789.789,0,0,1-8.87,7.973ZM-.468,18a2.881,2.881,0,0,1-.188-.835,2.96,2.96,0,0,1-2.223.981,2.732,2.732,0,0,1-1.895-.663,2.158,2.158,0,0,1-.74-1.681,2.252,2.252,0,0,1,.928-1.923A4.325,4.325,0,0,1-1.977,13.2h1.3v-.623A1.534,1.534,0,0,0-1.1,11.441,1.668,1.668,0,0,0-2.33,11.02a1.928,1.928,0,0,0-1.2.366,1.083,1.083,0,0,0-.484.886H-5.355a1.887,1.887,0,0,1,.415-1.146,2.838,2.838,0,0,1,1.126-.875,3.741,3.741,0,0,1,1.563-.322,3.059,3.059,0,0,1,2.115.685A2.487,2.487,0,0,1,.658,12.5v3.647a4.518,4.518,0,0,0,.274,1.736V18Zm-2.216-1.033a2.321,2.321,0,0,0,1.191-.33,1.981,1.981,0,0,0,.816-.857V14.155H-1.724q-2.454,0-2.454,1.458a1.242,1.242,0,0,0,.419,1A1.594,1.594,0,0,0-2.684,16.967Zm15.692-2.842a4.8,4.8,0,0,1-.816,2.915,2.6,2.6,0,0,1-2.209,1.106,2.844,2.844,0,0,1-2.238-.916v3.816H6.411V10.075h1.22l.065.879A2.734,2.734,0,0,1,9.962,9.929a2.649,2.649,0,0,1,2.227,1.077,4.848,4.848,0,0,1,.819,3Zm-1.335-.154a3.54,3.54,0,0,0-.563-2.117,1.805,1.805,0,0,0-1.545-.776A1.959,1.959,0,0,0,7.746,12.17v3.787A1.962,1.962,0,0,0,9.58,17.041a1.8,1.8,0,0,0,1.527-.773A3.865,3.865,0,0,0,11.673,13.972Zm6.807-2.681a3.945,3.945,0,0,0-.657-.051,1.759,1.759,0,0,0-1.783,1.135V18H14.7V10.075H16l.022.916a2.073,2.073,0,0,1,1.862-1.062,1.347,1.347,0,0,1,.592.1ZM21.158,18H19.822V10.075h1.335ZM19.714,7.973a.816.816,0,0,1,.2-.557.74.74,0,0,1,.588-.227.751.751,0,0,1,.592.227.807.807,0,0,1,.2.557.78.78,0,0,1-.2.549.764.764,0,0,1-.592.22.753.753,0,0,1-.588-.22A.789.789,0,0,1,19.714,7.973Zm4.836,2.1.036.879A2.866,2.866,0,0,1,26.9,9.929a2.228,2.228,0,0,1,2.23,1.274,2.894,2.894,0,0,1,2.49-1.274q2.57,0,2.613,2.761V18H32.9V12.771a1.837,1.837,0,0,0-.383-1.271,1.67,1.67,0,0,0-1.285-.421,1.756,1.756,0,0,0-1.234.45,1.838,1.838,0,0,0-.57,1.212V18H28.087V12.807q0-1.729-1.667-1.729a1.785,1.785,0,0,0-1.8,1.135V18H23.287V10.075ZM41.073,18a2.881,2.881,0,0,1-.188-.835,2.96,2.96,0,0,1-2.223.981,2.732,2.732,0,0,1-1.895-.663,2.158,2.158,0,0,1-.74-1.681,2.252,2.252,0,0,1,.928-1.923,4.325,4.325,0,0,1,2.609-.685h1.3v-.623a1.534,1.534,0,0,0-.419-1.132,1.668,1.668,0,0,0-1.234-.421,1.928,1.928,0,0,0-1.2.366,1.083,1.083,0,0,0-.484.886H36.186a1.887,1.887,0,0,1,.415-1.146,2.838,2.838,0,0,1,1.126-.875,3.741,3.741,0,0,1,1.563-.322,3.059,3.059,0,0,1,2.115.685A2.487,2.487,0,0,1,42.2,12.5v3.647a4.518,4.518,0,0,0,.274,1.736V18Zm-2.216-1.033a2.321,2.321,0,0,0,1.191-.33,1.981,1.981,0,0,0,.816-.857V14.155H39.817q-2.454,0-2.454,1.458a1.242,1.242,0,0,0,.419,1A1.594,1.594,0,0,0,38.857,16.967Zm5.464.322a.856.856,0,0,1,.206-.586.778.778,0,0,1,.617-.234.8.8,0,0,1,.624.234.839.839,0,0,1,.213.586.793.793,0,0,1-.213.564.815.815,0,0,1-.624.227.791.791,0,0,1-.617-.227A.809.809,0,0,1,44.321,17.29Z" transform="translate(573.503 1196.022)" fill="#12263f"/>
      <path id="Trazado_157233" data-name="Trazado 157233" d="M-31.286-10.664l3.436,8.7,3.436-8.7h1.8V0H-24V-4.153l.13-4.482L-27.323,0h-1.061l-3.443-8.613.137,4.46V0h-1.386V-10.664ZM-17.138.146A3.387,3.387,0,0,1-19.722-.912a3.962,3.962,0,0,1-1-2.831v-.249A4.814,4.814,0,0,1-20.274-6.1a3.5,3.5,0,0,1,1.242-1.45A3.089,3.089,0,0,1-17.3-8.071a2.906,2.906,0,0,1,2.368,1.018,4.453,4.453,0,0,1,.845,2.915v.564h-5.291a2.842,2.842,0,0,0,.675,1.893,2.107,2.107,0,0,0,1.642.721,2.3,2.3,0,0,0,1.2-.293,3.025,3.025,0,0,0,.859-.776l.816.645A3.266,3.266,0,0,1-17.138.146Zm-.166-7.1a1.769,1.769,0,0,0-1.357.6,2.923,2.923,0,0,0-.679,1.674h3.912v-.1a2.6,2.6,0,0,0-.549-1.6A1.666,1.666,0,0,0-17.3-6.958Zm6.013,5.852h4.569V0h-6.2V-1L-8.613-6.8h-4.244V-7.925h5.919v.959ZM-2.2-.959A1.906,1.906,0,0,0-.955-1.4,1.552,1.552,0,0,0-.363-2.5H.9A2.48,2.48,0,0,1,.438-1.2,3.055,3.055,0,0,1-.7-.22,3.242,3.242,0,0,1-2.2.146,3.2,3.2,0,0,1-4.741-.934a4.344,4.344,0,0,1-.942-2.955v-.227a4.831,4.831,0,0,1,.419-2.058,3.222,3.222,0,0,1,1.2-1.4,3.376,3.376,0,0,1,1.851-.5,3.106,3.106,0,0,1,2.184.8A2.871,2.871,0,0,1,.9-5.2H-.363A1.879,1.879,0,0,0-.937-6.464a1.771,1.771,0,0,0-1.274-.494,1.859,1.859,0,0,0-1.577.743,3.529,3.529,0,0,0-.559,2.15v.256A3.459,3.459,0,0,0-3.791-1.7,1.867,1.867,0,0,0-2.2-.959ZM3.853,0H2.517V-11.25H3.853Zm6.958,0a2.881,2.881,0,0,1-.188-.835A2.96,2.96,0,0,1,8.4.146,2.732,2.732,0,0,1,6.505-.516,2.158,2.158,0,0,1,5.765-2.2,2.252,2.252,0,0,1,6.693-4.12,4.325,4.325,0,0,1,9.3-4.8h1.3v-.623a1.534,1.534,0,0,0-.419-1.132A1.668,1.668,0,0,0,8.949-6.98a1.928,1.928,0,0,0-1.2.366,1.083,1.083,0,0,0-.484.886H5.924a1.887,1.887,0,0,1,.415-1.146,2.838,2.838,0,0,1,1.126-.875,3.741,3.741,0,0,1,1.563-.322,3.058,3.058,0,0,1,2.115.685A2.487,2.487,0,0,1,11.937-5.5v3.647a4.518,4.518,0,0,0,.274,1.736V0ZM8.6-1.033a2.321,2.321,0,0,0,1.191-.33,1.981,1.981,0,0,0,.816-.857V-3.845H9.555Q7.1-3.845,7.1-2.388a1.242,1.242,0,0,0,.419,1A1.594,1.594,0,0,0,8.6-1.033Zm8.77-3a4.69,4.69,0,0,1,.852-2.933,2.68,2.68,0,0,1,2.23-1.11,2.691,2.691,0,0,1,2.173.952V-11.25h1.335V0H22.728l-.065-.85a2.7,2.7,0,0,1-2.23,1A2.655,2.655,0,0,1,18.22-.981a4.744,4.744,0,0,1-.855-2.944Zm1.335.154a3.554,3.554,0,0,0,.549,2.109A1.765,1.765,0,0,0,20.765-1,1.945,1.945,0,0,0,22.62-2.161V-5.8a1.959,1.959,0,0,0-1.841-1.121,1.773,1.773,0,0,0-1.53.769A3.914,3.914,0,0,0,18.7-3.875ZM29.268.146A3.387,3.387,0,0,1,26.684-.912a3.962,3.962,0,0,1-1-2.831v-.249A4.814,4.814,0,0,1,26.132-6.1a3.5,3.5,0,0,1,1.242-1.45A3.089,3.089,0,0,1,29.1-8.071a2.906,2.906,0,0,1,2.368,1.018,4.453,4.453,0,0,1,.845,2.915v.564H27.023A2.842,2.842,0,0,0,27.7-1.681a2.107,2.107,0,0,0,1.642.721,2.3,2.3,0,0,0,1.2-.293,3.026,3.026,0,0,0,.859-.776l.816.645A3.266,3.266,0,0,1,29.268.146Zm-.166-7.1a1.769,1.769,0,0,0-1.357.6,2.923,2.923,0,0,0-.679,1.674h3.912v-.1a2.6,2.6,0,0,0-.549-1.6A1.666,1.666,0,0,0,29.1-6.958ZM-48.551,18h-1.335V10.075h1.335ZM-50,7.973a.816.816,0,0,1,.2-.557.74.74,0,0,1,.588-.227.751.751,0,0,1,.592.227.807.807,0,0,1,.2.557.78.78,0,0,1-.2.549.764.764,0,0,1-.592.22.753.753,0,0,1-.588-.22A.789.789,0,0,1-50,7.973Zm4.843,2.1.043,1A2.831,2.831,0,0,1-42.77,9.929q2.476,0,2.5,2.834V18h-1.335V12.756a1.842,1.842,0,0,0-.386-1.267,1.534,1.534,0,0,0-1.18-.41,1.908,1.908,0,0,0-1.14.352,2.379,2.379,0,0,0-.765.923V18h-1.335V10.075Zm6.576,3.9a4.706,4.706,0,0,1,.845-2.948,2.687,2.687,0,0,1,2.238-1.095,2.671,2.671,0,0,1,2.23,1.025l.065-.879h1.22V17.81a3.25,3.25,0,0,1-.9,2.424,3.289,3.289,0,0,1-2.414.886,3.968,3.968,0,0,1-1.653-.366,2.854,2.854,0,0,1-1.234-1l.693-.813a2.6,2.6,0,0,0,2.1,1.077,2.029,2.029,0,0,0,1.519-.557,2.146,2.146,0,0,0,.545-1.567v-.681a2.726,2.726,0,0,1-2.187.938,2.655,2.655,0,0,1-2.22-1.121A4.949,4.949,0,0,1-38.576,13.972Zm1.343.154a3.593,3.593,0,0,0,.541,2.106A1.751,1.751,0,0,0-35.176,17a1.954,1.954,0,0,0,1.855-1.165V12.214a1.976,1.976,0,0,0-1.841-1.135,1.767,1.767,0,0,0-1.523.769A3.914,3.914,0,0,0-37.233,14.125Zm11.044-2.834a3.945,3.945,0,0,0-.657-.051,1.759,1.759,0,0,0-1.783,1.135V18h-1.335V10.075h1.3l.022.916a2.073,2.073,0,0,1,1.862-1.062,1.347,1.347,0,0,1,.592.1Zm4.331,6.855a3.387,3.387,0,0,1-2.584-1.058,3.962,3.962,0,0,1-1-2.831v-.249a4.814,4.814,0,0,1,.444-2.106,3.5,3.5,0,0,1,1.242-1.45,3.089,3.089,0,0,1,1.729-.524,2.906,2.906,0,0,1,2.368,1.018,4.453,4.453,0,0,1,.845,2.915v.564H-24.1a2.842,2.842,0,0,0,.675,1.893,2.107,2.107,0,0,0,1.642.721,2.3,2.3,0,0,0,1.2-.293,3.025,3.025,0,0,0,.859-.776l.816.645A3.266,3.266,0,0,1-21.859,18.146Zm-.166-7.1a1.769,1.769,0,0,0-1.357.6,2.923,2.923,0,0,0-.679,1.674h3.912v-.1a2.6,2.6,0,0,0-.549-1.6A1.666,1.666,0,0,0-22.025,11.042Zm4.432,2.93a4.69,4.69,0,0,1,.852-2.933,2.68,2.68,0,0,1,2.23-1.11,2.691,2.691,0,0,1,2.173.952V6.75H-11V18h-1.227l-.065-.85a2.7,2.7,0,0,1-2.23,1,2.655,2.655,0,0,1-2.212-1.128,4.744,4.744,0,0,1-.855-2.944Zm1.335.154a3.554,3.554,0,0,0,.549,2.109A1.765,1.765,0,0,0-14.193,17a1.945,1.945,0,0,0,1.855-1.157V12.2a1.959,1.959,0,0,0-1.841-1.121,1.773,1.773,0,0,0-1.53.769A3.914,3.914,0,0,0-16.257,14.125ZM-7.48,18H-8.815V10.075H-7.48ZM-8.924,7.973a.816.816,0,0,1,.2-.557.74.74,0,0,1,.588-.227.751.751,0,0,1,.592.227.807.807,0,0,1,.2.557.78.78,0,0,1-.2.549.764.764,0,0,1-.592.22.753.753,0,0,1-.588-.22A.789.789,0,0,1-8.924,7.973ZM-2.1,18.146a3.387,3.387,0,0,1-2.584-1.058,3.962,3.962,0,0,1-1-2.831v-.249A4.814,4.814,0,0,1-5.239,11.9,3.5,3.5,0,0,1-4,10.452a3.089,3.089,0,0,1,1.729-.524A2.906,2.906,0,0,1,.1,10.947a4.453,4.453,0,0,1,.845,2.915v.564H-4.347a2.842,2.842,0,0,0,.675,1.893,2.107,2.107,0,0,0,1.642.721,2.3,2.3,0,0,0,1.2-.293,3.025,3.025,0,0,0,.859-.776l.816.645A3.266,3.266,0,0,1-2.1,18.146Zm-.166-7.1a1.769,1.769,0,0,0-1.357.6A2.923,2.923,0,0,0-4.3,13.313H-.392v-.1a2.6,2.6,0,0,0-.549-1.6A1.666,1.666,0,0,0-2.268,11.042Zm6.02-.967.043,1A2.831,2.831,0,0,1,6.134,9.929q2.476,0,2.5,2.834V18H7.3V12.756a1.842,1.842,0,0,0-.386-1.267,1.534,1.534,0,0,0-1.18-.41,1.908,1.908,0,0,0-1.14.352,2.379,2.379,0,0,0-.765.923V18H2.488V10.075Zm8.705-1.919v1.919h1.458v1.047H12.457v4.921a1.112,1.112,0,0,0,.195.715.814.814,0,0,0,.664.238,3.189,3.189,0,0,0,.635-.088V18a3.841,3.841,0,0,1-1.025.146,1.651,1.651,0,0,1-1.35-.549,2.384,2.384,0,0,1-.455-1.56V11.123H9.7V10.075h1.422V8.156Zm6.258,9.99a3.387,3.387,0,0,1-2.584-1.058,3.962,3.962,0,0,1-1-2.831v-.249a4.814,4.814,0,0,1,.444-2.106,3.5,3.5,0,0,1,1.242-1.45,3.089,3.089,0,0,1,1.729-.524,2.906,2.906,0,0,1,2.368,1.018,4.453,4.453,0,0,1,.845,2.915v.564H16.47a2.842,2.842,0,0,0,.675,1.893,2.107,2.107,0,0,0,1.642.721,2.3,2.3,0,0,0,1.2-.293,3.025,3.025,0,0,0,.859-.776l.816.645A3.266,3.266,0,0,1,18.715,18.146Zm-.166-7.1a1.769,1.769,0,0,0-1.357.6,2.923,2.923,0,0,0-.679,1.674h3.912v-.1a2.6,2.6,0,0,0-.549-1.6A1.666,1.666,0,0,0,18.549,11.042Zm9.3,4.856a1,1,0,0,0-.408-.853,3.891,3.891,0,0,0-1.422-.524,6.655,6.655,0,0,1-1.61-.527,2.3,2.3,0,0,1-.881-.732,1.771,1.771,0,0,1-.285-1.011A2.066,2.066,0,0,1,24.06,10.6a3.141,3.141,0,0,1,2.075-.674,3.232,3.232,0,0,1,2.155.7,2.223,2.223,0,0,1,.826,1.78H27.774a1.23,1.23,0,0,0-.466-.959,1.729,1.729,0,0,0-1.173-.4,1.807,1.807,0,0,0-1.14.322,1.02,1.02,0,0,0-.411.842.825.825,0,0,0,.383.74,4.662,4.662,0,0,0,1.382.476,7.13,7.13,0,0,1,1.62.542,2.372,2.372,0,0,1,.92.758,1.884,1.884,0,0,1,.3,1.08,2.038,2.038,0,0,1-.837,1.7,3.476,3.476,0,0,1-2.173.641,3.884,3.884,0,0,1-1.66-.337,2.709,2.709,0,0,1-1.13-.941,2.291,2.291,0,0,1-.408-1.307h1.335a1.41,1.41,0,0,0,.538,1.08,2.065,2.065,0,0,0,1.325.4,2.13,2.13,0,0,0,1.216-.311A.96.96,0,0,0,27.853,15.9Zm9.976,2.249a3.387,3.387,0,0,1-2.584-1.058,3.962,3.962,0,0,1-1-2.831v-.249a4.814,4.814,0,0,1,.444-2.106,3.5,3.5,0,0,1,1.242-1.45,3.089,3.089,0,0,1,1.729-.524,2.906,2.906,0,0,1,2.368,1.018,4.453,4.453,0,0,1,.845,2.915v.564H35.584a2.842,2.842,0,0,0,.675,1.893,2.107,2.107,0,0,0,1.642.721,2.3,2.3,0,0,0,1.2-.293,3.025,3.025,0,0,0,.859-.776l.816.645A3.266,3.266,0,0,1,37.829,18.146Zm-.166-7.1a1.769,1.769,0,0,0-1.357.6,2.923,2.923,0,0,0-.679,1.674h3.912v-.1a2.6,2.6,0,0,0-.549-1.6A1.666,1.666,0,0,0,37.663,11.042Zm6.02-.967.043,1a2.831,2.831,0,0,1,2.339-1.143q2.476,0,2.5,2.834V18H47.227V12.756a1.842,1.842,0,0,0-.386-1.267,1.534,1.534,0,0,0-1.18-.41,1.908,1.908,0,0,0-1.14.352,2.379,2.379,0,0,0-.765.923V18H42.419V10.075Zm-65.866,22.05a4.762,4.762,0,0,1-.823,2.919,2.616,2.616,0,0,1-2.209,1.1A2.707,2.707,0,0,1-27.5,35.084l-.065.916H-28.8V24.75h1.335v4.2a2.691,2.691,0,0,1,2.23-1.018A2.632,2.632,0,0,1-23,29.02a4.906,4.906,0,0,1,.812,2.988Zm-1.335-.154a3.7,3.7,0,0,0-.527-2.139,1.736,1.736,0,0,0-1.516-.754,1.959,1.959,0,0,0-1.9,1.245v3.428A2.014,2.014,0,0,0-25.547,35a1.727,1.727,0,0,0,1.494-.754A3.938,3.938,0,0,0-23.519,31.972ZM-15.68,36a2.881,2.881,0,0,1-.188-.835,2.96,2.96,0,0,1-2.223.981,2.732,2.732,0,0,1-1.895-.663,2.158,2.158,0,0,1-.74-1.681A2.252,2.252,0,0,1-19.8,31.88a4.325,4.325,0,0,1,2.609-.685h1.3v-.623a1.534,1.534,0,0,0-.419-1.132,1.668,1.668,0,0,0-1.234-.421,1.928,1.928,0,0,0-1.2.366,1.083,1.083,0,0,0-.484.886h-1.343a1.887,1.887,0,0,1,.415-1.146,2.838,2.838,0,0,1,1.126-.875,3.741,3.741,0,0,1,1.563-.322,3.059,3.059,0,0,1,2.115.685,2.487,2.487,0,0,1,.794,1.886v3.647a4.518,4.518,0,0,0,.274,1.736V36ZM-17.9,34.967a2.321,2.321,0,0,0,1.191-.33,1.981,1.981,0,0,0,.816-.857V32.155h-1.047q-2.454,0-2.454,1.458a1.242,1.242,0,0,0,.419,1A1.594,1.594,0,0,0-17.9,34.967Zm7.247-8.811v1.919h1.458v1.047h-1.458v4.921a1.112,1.112,0,0,0,.195.715A.814.814,0,0,0-9.79,35a3.189,3.189,0,0,0,.635-.088V36a3.841,3.841,0,0,1-1.025.146,1.651,1.651,0,0,1-1.35-.549,2.384,2.384,0,0,1-.455-1.56V29.123h-1.422V28.075h1.422V26.156ZM-6.181,36H-7.516V28.075h1.335ZM-7.624,25.973a.816.816,0,0,1,.2-.557.74.74,0,0,1,.588-.227.751.751,0,0,1,.592.227.807.807,0,0,1,.2.557.78.78,0,0,1-.2.549.764.764,0,0,1-.592.22.753.753,0,0,1-.588-.22A.789.789,0,0,1-7.624,25.973Zm3.255,6a4.69,4.69,0,0,1,.852-2.933,2.68,2.68,0,0,1,2.23-1.11,2.691,2.691,0,0,1,2.173.952V24.75H2.221V36H.994l-.065-.85a2.7,2.7,0,0,1-2.23,1,2.655,2.655,0,0,1-2.212-1.128,4.744,4.744,0,0,1-.855-2.944Zm1.335.154a3.554,3.554,0,0,0,.549,2.109A1.765,1.765,0,0,0-.969,35,1.945,1.945,0,0,0,.886,33.839V30.2A1.959,1.959,0,0,0-.955,29.079a1.773,1.773,0,0,0-1.53.769A3.914,3.914,0,0,0-3.034,32.125Zm6.973-.161A4.738,4.738,0,0,1,4.39,29.87a3.314,3.314,0,0,1,3.093-1.941,3.272,3.272,0,0,1,2.581,1.121,4.351,4.351,0,0,1,.985,2.981v.1a4.78,4.78,0,0,1-.437,2.076,3.349,3.349,0,0,1-1.249,1.432,3.42,3.42,0,0,1-1.866.513,3.264,3.264,0,0,1-2.573-1.121,4.329,4.329,0,0,1-.985-2.966Zm1.343.161a3.426,3.426,0,0,0,.6,2.117,1.919,1.919,0,0,0,1.613.8,1.908,1.908,0,0,0,1.617-.809,3.748,3.748,0,0,0,.6-2.267,3.42,3.42,0,0,0-.61-2.113,1.93,1.93,0,0,0-1.62-.809,1.908,1.908,0,0,0-1.6.8A3.72,3.72,0,0,0,5.282,32.125ZM16.5,29.291a3.945,3.945,0,0,0-.657-.051,1.759,1.759,0,0,0-1.783,1.135V36H12.724V28.075h1.3l.022.916a2.073,2.073,0,0,1,1.862-1.062,1.347,1.347,0,0,1,.592.1ZM22.259,36a2.881,2.881,0,0,1-.188-.835,2.96,2.96,0,0,1-2.223.981,2.732,2.732,0,0,1-1.895-.663,2.158,2.158,0,0,1-.74-1.681,2.252,2.252,0,0,1,.928-1.923A4.325,4.325,0,0,1,20.75,31.2h1.3v-.623a1.534,1.534,0,0,0-.419-1.132A1.668,1.668,0,0,0,20.4,29.02a1.928,1.928,0,0,0-1.2.366,1.083,1.083,0,0,0-.484.886H17.372a1.887,1.887,0,0,1,.415-1.146,2.838,2.838,0,0,1,1.126-.875,3.741,3.741,0,0,1,1.563-.322,3.058,3.058,0,0,1,2.115.685,2.487,2.487,0,0,1,.794,1.886v3.647a4.518,4.518,0,0,0,.274,1.736V36Zm-2.216-1.033a2.321,2.321,0,0,0,1.191-.33,1.981,1.981,0,0,0,.816-.857V32.155H21q-2.454,0-2.454,1.458a1.242,1.242,0,0,0,.419,1A1.594,1.594,0,0,0,20.043,34.967Zm5.464.322a.856.856,0,0,1,.206-.586.778.778,0,0,1,.617-.234.8.8,0,0,1,.624.234.839.839,0,0,1,.213.586.793.793,0,0,1-.213.564.815.815,0,0,1-.624.227.791.791,0,0,1-.617-.227A.809.809,0,0,1,25.507,35.29Z" transform="translate(762.477 1187.022)" fill="#12263f"/>
      <rect id="Rectángulo_37069" data-name="Rectángulo 37069" width="99" height="68" transform="translate(862.131 1166.638)" fill="#d1d5fc" stroke="#4752e3" stroke-miterlimit="10" stroke-width="2"/>
      <path id="Trazado_157234" data-name="Trazado 157234" d="M-23.545,0h-1.393V-4.929h-5.3V0h-1.386V-10.664h1.386v4.585h5.3v-4.585h1.393Zm1.9-4.036A4.738,4.738,0,0,1-21.2-6.13,3.4,3.4,0,0,1-19.94-7.566,3.382,3.382,0,0,1-18.1-8.071a3.272,3.272,0,0,1,2.581,1.121,4.351,4.351,0,0,1,.985,2.981v.1A4.78,4.78,0,0,1-14.974-1.8,3.349,3.349,0,0,1-16.222-.366a3.42,3.42,0,0,1-1.866.513A3.264,3.264,0,0,1-20.661-.974a4.329,4.329,0,0,1-.985-2.966Zm1.343.161a3.426,3.426,0,0,0,.6,2.117,1.919,1.919,0,0,0,1.613.8,1.908,1.908,0,0,0,1.617-.809,3.748,3.748,0,0,0,.6-2.267,3.42,3.42,0,0,0-.61-2.113,1.93,1.93,0,0,0-1.62-.809,1.908,1.908,0,0,0-1.6.8A3.72,3.72,0,0,0-20.3-3.875ZM-9.087-6.709a3.945,3.945,0,0,0-.657-.051,1.759,1.759,0,0,0-1.783,1.135V0h-1.335V-7.925h1.3l.022.916A2.073,2.073,0,0,1-9.679-8.071a1.347,1.347,0,0,1,.592.1ZM-6.6-7.925l.043,1A2.831,2.831,0,0,1-4.215-8.071q2.476,0,2.5,2.834V0H-3.053V-5.244a1.842,1.842,0,0,0-.386-1.267,1.534,1.534,0,0,0-1.18-.41,1.908,1.908,0,0,0-1.14.352,2.379,2.379,0,0,0-.765.923V0H-7.86V-7.925ZM3.538.146A3.387,3.387,0,0,1,.953-.912a3.962,3.962,0,0,1-1-2.831v-.249A4.814,4.814,0,0,1,.4-6.1a3.5,3.5,0,0,1,1.242-1.45,3.089,3.089,0,0,1,1.729-.524A2.906,2.906,0,0,1,5.739-7.053a4.453,4.453,0,0,1,.845,2.915v.564H1.293a2.842,2.842,0,0,0,.675,1.893A2.107,2.107,0,0,0,3.61-.959a2.3,2.3,0,0,0,1.2-.293,3.025,3.025,0,0,0,.859-.776l.816.645A3.266,3.266,0,0,1,3.538.146Zm-.166-7.1a1.769,1.769,0,0,0-1.357.6,2.923,2.923,0,0,0-.679,1.674H5.248v-.1A2.6,2.6,0,0,0,4.7-6.39,1.666,1.666,0,0,0,3.372-6.958ZM12.95,0a2.881,2.881,0,0,1-.188-.835,2.96,2.96,0,0,1-2.223.981A2.732,2.732,0,0,1,8.644-.516,2.158,2.158,0,0,1,7.9-2.2,2.252,2.252,0,0,1,8.832-4.12,4.325,4.325,0,0,1,11.441-4.8h1.3v-.623a1.534,1.534,0,0,0-.419-1.132,1.668,1.668,0,0,0-1.234-.421,1.928,1.928,0,0,0-1.2.366,1.083,1.083,0,0,0-.484.886H8.063a1.887,1.887,0,0,1,.415-1.146A2.838,2.838,0,0,1,9.6-7.749a3.741,3.741,0,0,1,1.563-.322,3.058,3.058,0,0,1,2.115.685A2.487,2.487,0,0,1,14.076-5.5v3.647A4.518,4.518,0,0,0,14.35-.117V0ZM10.734-1.033a2.321,2.321,0,0,0,1.191-.33,1.981,1.981,0,0,0,.816-.857V-3.845H11.694q-2.454,0-2.454,1.458a1.242,1.242,0,0,0,.419,1A1.594,1.594,0,0,0,10.734-1.033Zm5.11-3A4.69,4.69,0,0,1,16.7-6.962a2.68,2.68,0,0,1,2.23-1.11,2.691,2.691,0,0,1,2.173.952V-11.25h1.335V0H21.208l-.065-.85a2.7,2.7,0,0,1-2.23,1A2.655,2.655,0,0,1,16.7-.981a4.744,4.744,0,0,1-.855-2.944Zm1.335.154a3.554,3.554,0,0,0,.549,2.109A1.765,1.765,0,0,0,19.244-1,1.945,1.945,0,0,0,21.1-2.161V-5.8a1.959,1.959,0,0,0-1.841-1.121,1.773,1.773,0,0,0-1.53.769A3.914,3.914,0,0,0,17.18-3.875Zm6.973-.161A4.738,4.738,0,0,1,24.6-6.13,3.4,3.4,0,0,1,25.86-7.566,3.382,3.382,0,0,1,27.7-8.071a3.272,3.272,0,0,1,2.581,1.121,4.351,4.351,0,0,1,.985,2.981v.1A4.78,4.78,0,0,1,30.826-1.8,3.349,3.349,0,0,1,29.577-.366a3.42,3.42,0,0,1-1.866.513A3.264,3.264,0,0,1,25.138-.974a4.329,4.329,0,0,1-.985-2.966Zm1.343.161a3.426,3.426,0,0,0,.6,2.117,1.919,1.919,0,0,0,1.613.8,1.908,1.908,0,0,0,1.617-.809,3.748,3.748,0,0,0,.6-2.267,3.42,3.42,0,0,0-.61-2.113,1.93,1.93,0,0,0-1.62-.809,1.908,1.908,0,0,0-1.6.8A3.72,3.72,0,0,0,25.5-3.875Z" transform="translate(911.883 1205.022)" fill="#12263f"/>
      <rect id="Rectángulo_37070" data-name="Rectángulo 37070" width="99" height="68" transform="translate(1004.131 1166.638)" fill="#d1d5fc" stroke="#4752e3" stroke-miterlimit="10" stroke-width="2"/>
      <path id="Trazado_157235" data-name="Trazado 157235" d="M-24.316-4.929H-28.87V-1.15h5.291V0h-6.677V-10.664h6.6v1.15H-28.87v3.435h4.555Zm3.508-3,.036.879a2.866,2.866,0,0,1,2.317-1.025A2.228,2.228,0,0,1-16.224-6.8,2.974,2.974,0,0,1-15.21-7.72a2.96,2.96,0,0,1,1.476-.352q2.57,0,2.613,2.761V0h-1.335V-5.229A1.837,1.837,0,0,0-12.839-6.5a1.67,1.67,0,0,0-1.285-.421,1.756,1.756,0,0,0-1.234.45,1.838,1.838,0,0,0-.57,1.212V0h-1.343V-5.193q0-1.729-1.667-1.729a1.785,1.785,0,0,0-1.8,1.135V0h-1.335V-7.925Zm18.3,4.05A4.8,4.8,0,0,1-3.325-.959,2.6,2.6,0,0,1-5.534.146,2.844,2.844,0,0,1-7.772-.769V3.047H-9.107V-7.925h1.22l.065.879A2.734,2.734,0,0,1-5.556-8.071,2.649,2.649,0,0,1-3.329-6.995,4.848,4.848,0,0,1-2.51-4Zm-1.335-.154a3.54,3.54,0,0,0-.563-2.117,1.805,1.805,0,0,0-1.545-.776A1.959,1.959,0,0,0-7.772-5.83v3.787A1.962,1.962,0,0,0-5.938-.959a1.8,1.8,0,0,0,1.527-.773A3.865,3.865,0,0,0-3.845-4.028ZM4.008,0a2.881,2.881,0,0,1-.188-.835A2.96,2.96,0,0,1,1.6.146,2.732,2.732,0,0,1-.3-.516,2.158,2.158,0,0,1-1.037-2.2,2.252,2.252,0,0,1-.11-4.12,4.325,4.325,0,0,1,2.5-4.8H3.8v-.623A1.534,1.534,0,0,0,3.38-6.559,1.668,1.668,0,0,0,2.146-6.98a1.928,1.928,0,0,0-1.2.366,1.083,1.083,0,0,0-.484.886H-.878A1.887,1.887,0,0,1-.463-6.874,2.838,2.838,0,0,1,.663-7.749a3.741,3.741,0,0,1,1.563-.322,3.058,3.058,0,0,1,2.115.685A2.487,2.487,0,0,1,5.134-5.5v3.647A4.518,4.518,0,0,0,5.409-.117V0ZM1.792-1.033a2.321,2.321,0,0,0,1.191-.33A1.981,1.981,0,0,0,3.8-2.219V-3.845H2.752Q.3-3.845.3-2.388a1.242,1.242,0,0,0,.419,1A1.594,1.594,0,0,0,1.792-1.033Zm5.11-3a4.7,4.7,0,0,1,.845-2.955,2.722,2.722,0,0,1,2.267-1.088,2.717,2.717,0,0,1,2.187.945l.058-.8h1.227V3.047H12.151V-.732A2.782,2.782,0,0,1,10,.146,2.68,2.68,0,0,1,7.744-.97,4.8,4.8,0,0,1,6.9-3.933Zm1.335.154A3.564,3.564,0,0,0,8.8-1.736a1.794,1.794,0,0,0,1.527.776,2,2,0,0,0,1.819-1.069V-5.911a2,2,0,0,0-1.8-1.047,1.807,1.807,0,0,0-1.537.78A3.881,3.881,0,0,0,8.238-3.875ZM20.452-.784a2.816,2.816,0,0,1-2.288.93,2.409,2.409,0,0,1-1.9-.736,3.217,3.217,0,0,1-.66-2.179V-7.925h1.335v5.12q0,1.8,1.444,1.8a2,2,0,0,0,2.036-1.157V-7.925h1.335V0H20.48Zm6.569.93A3.387,3.387,0,0,1,24.436-.912a3.962,3.962,0,0,1-1-2.831v-.249A4.814,4.814,0,0,1,23.884-6.1a3.5,3.5,0,0,1,1.242-1.45,3.089,3.089,0,0,1,1.729-.524,2.906,2.906,0,0,1,2.368,1.018,4.453,4.453,0,0,1,.845,2.915v.564H24.775a2.842,2.842,0,0,0,.675,1.893,2.107,2.107,0,0,0,1.642.721,2.3,2.3,0,0,0,1.2-.293,3.025,3.025,0,0,0,.859-.776l.816.645A3.266,3.266,0,0,1,27.02.146Zm-.166-7.1a1.769,1.769,0,0,0-1.357.6,2.923,2.923,0,0,0-.679,1.674h3.912v-.1a2.6,2.6,0,0,0-.549-1.6A1.666,1.666,0,0,0,26.854-6.958Z" transform="translate(1053.849 1205.022)" fill="#12263f"/>
      <path id="Trazado_157221" data-name="Trazado 157221" d="M1067.661,1247.031l-100.1,35.107,100.1,35.107,100.1-35.107Z" transform="translate(-14.752)" fill="#d1d5fc" stroke="#4752e3" stroke-miterlimit="10" stroke-width="2"/>
      <path id="Trazado_157236" data-name="Trazado 157236" d="M-25.74-4.314h-2.469V0H-29.6V-10.664h3.479a4.077,4.077,0,0,1,2.732.82,2.973,2.973,0,0,1,.956,2.388,2.9,2.9,0,0,1-.531,1.736A3.171,3.171,0,0,1-24.44-4.614l2.469,4.526V0h-1.487Zm-2.469-1.15h2.129a2.379,2.379,0,0,0,1.642-.543,1.849,1.849,0,0,0,.61-1.453,1.948,1.948,0,0,0-.581-1.519,2.437,2.437,0,0,0-1.678-.536h-2.122ZM-17.46.146A3.387,3.387,0,0,1-20.045-.912a3.962,3.962,0,0,1-1-2.831v-.249A4.814,4.814,0,0,1-20.6-6.1a3.5,3.5,0,0,1,1.242-1.45,3.089,3.089,0,0,1,1.729-.524,2.906,2.906,0,0,1,2.368,1.018,4.453,4.453,0,0,1,.845,2.915v.564h-5.291a2.842,2.842,0,0,0,.675,1.893,2.107,2.107,0,0,0,1.642.721,2.3,2.3,0,0,0,1.2-.293,3.025,3.025,0,0,0,.859-.776l.816.645A3.266,3.266,0,0,1-17.46.146Zm-.166-7.1a1.769,1.769,0,0,0-1.357.6,2.923,2.923,0,0,0-.679,1.674h3.912v-.1a2.6,2.6,0,0,0-.549-1.6A1.666,1.666,0,0,0-17.626-6.958ZM-6.272-3.875A4.8,4.8,0,0,1-7.088-.959,2.6,2.6,0,0,1-9.3.146a2.844,2.844,0,0,1-2.238-.916V3.047H-12.87V-7.925h1.22l.065.879A2.734,2.734,0,0,1-9.318-8.071,2.649,2.649,0,0,1-7.091-6.995a4.848,4.848,0,0,1,.819,3Zm-1.335-.154a3.54,3.54,0,0,0-.563-2.117,1.805,1.805,0,0,0-1.545-.776A1.959,1.959,0,0,0-11.534-5.83v3.787A1.962,1.962,0,0,0-9.7-.959a1.8,1.8,0,0,0,1.527-.773A3.865,3.865,0,0,0-7.608-4.028Zm2.678-.007A4.738,4.738,0,0,1-4.478-6.13,3.4,3.4,0,0,1-3.223-7.566a3.382,3.382,0,0,1,1.837-.505A3.272,3.272,0,0,1,1.2-6.951,4.351,4.351,0,0,1,2.18-3.97v.1A4.78,4.78,0,0,1,1.744-1.8,3.349,3.349,0,0,1,.495-.366,3.42,3.42,0,0,1-1.371.146,3.264,3.264,0,0,1-3.944-.974,4.329,4.329,0,0,1-4.93-3.94Zm1.343.161a3.426,3.426,0,0,0,.6,2.117,1.919,1.919,0,0,0,1.613.8A1.908,1.908,0,0,0,.246-1.769a3.748,3.748,0,0,0,.6-2.267,3.42,3.42,0,0,0-.61-2.113,1.93,1.93,0,0,0-1.62-.809,1.908,1.908,0,0,0-1.6.8A3.72,3.72,0,0,0-3.587-3.875ZM8.4-2.1a1,1,0,0,0-.408-.853,3.891,3.891,0,0,0-1.422-.524,6.655,6.655,0,0,1-1.61-.527,2.3,2.3,0,0,1-.881-.732A1.771,1.771,0,0,1,3.8-5.75,2.066,2.066,0,0,1,4.609-7.4a3.141,3.141,0,0,1,2.075-.674,3.232,3.232,0,0,1,2.155.7A2.223,2.223,0,0,1,9.666-5.6H8.323a1.23,1.23,0,0,0-.466-.959,1.729,1.729,0,0,0-1.173-.4,1.807,1.807,0,0,0-1.14.322,1.02,1.02,0,0,0-.411.842.825.825,0,0,0,.383.74A4.662,4.662,0,0,0,6.9-4.578a7.13,7.13,0,0,1,1.62.542,2.372,2.372,0,0,1,.92.758,1.884,1.884,0,0,1,.3,1.08A2.038,2.038,0,0,1,8.9-.494,3.476,3.476,0,0,1,6.728.146,3.884,3.884,0,0,1,5.068-.19a2.709,2.709,0,0,1-1.13-.941A2.291,2.291,0,0,1,3.53-2.439H4.865A1.41,1.41,0,0,0,5.4-1.359a2.065,2.065,0,0,0,1.325.4,2.129,2.129,0,0,0,1.216-.311A.96.96,0,0,0,8.4-2.1Zm2.721-1.934a4.738,4.738,0,0,1,.451-2.095,3.4,3.4,0,0,1,1.256-1.436,3.382,3.382,0,0,1,1.837-.505,3.272,3.272,0,0,1,2.581,1.121,4.351,4.351,0,0,1,.985,2.981v.1A4.78,4.78,0,0,1,17.8-1.8,3.349,3.349,0,0,1,16.548-.366a3.42,3.42,0,0,1-1.866.513A3.264,3.264,0,0,1,12.109-.974a4.329,4.329,0,0,1-.985-2.966Zm1.343.161a3.426,3.426,0,0,0,.6,2.117,1.919,1.919,0,0,0,1.613.8A1.908,1.908,0,0,0,16.3-1.769a3.748,3.748,0,0,0,.6-2.267,3.42,3.42,0,0,0-.61-2.113,1.93,1.93,0,0,0-1.62-.809,1.908,1.908,0,0,0-1.6.8A3.72,3.72,0,0,0,12.466-3.875Zm13.657,1.89,1.819-5.94h1.429l-3.14,9.148Q25.5,3.2,23.914,3.2l-.253-.022-.5-.1v-1.1l.361.029a1.758,1.758,0,0,0,1.057-.278A2.018,2.018,0,0,0,25.206.718l.3-.806L22.716-7.925h1.458ZM-40.025,18.146a3.387,3.387,0,0,1-2.584-1.058,3.962,3.962,0,0,1-1-2.831v-.249a4.814,4.814,0,0,1,.444-2.106,3.5,3.5,0,0,1,1.242-1.45,3.089,3.089,0,0,1,1.729-.524,2.906,2.906,0,0,1,2.368,1.018,4.453,4.453,0,0,1,.845,2.915v.564h-5.291a2.842,2.842,0,0,0,.675,1.893,2.107,2.107,0,0,0,1.642.721,2.3,2.3,0,0,0,1.2-.293,3.025,3.025,0,0,0,.859-.776l.816.645A3.266,3.266,0,0,1-40.025,18.146Zm-.166-7.1a1.769,1.769,0,0,0-1.357.6,2.923,2.923,0,0,0-.679,1.674h3.912v-.1a2.6,2.6,0,0,0-.549-1.6A1.666,1.666,0,0,0-40.191,11.042Zm6.02-.967.043,1a2.831,2.831,0,0,1,2.339-1.143q2.476,0,2.5,2.834V18h-1.335V12.756a1.842,1.842,0,0,0-.386-1.267,1.534,1.534,0,0,0-1.18-.41,1.908,1.908,0,0,0-1.14.352,2.379,2.379,0,0,0-.765.923V18h-1.335V10.075ZM-26.62,18V11.123h-1.234V10.075h1.234V9.262a2.723,2.723,0,0,1,.671-1.97,2.515,2.515,0,0,1,1.9-.7,3.478,3.478,0,0,1,.917.124l-.072,1.092a3.781,3.781,0,0,0-.722-.066,1.293,1.293,0,0,0-1,.386,1.579,1.579,0,0,0-.354,1.106v.838h1.667v1.047h-1.667V18Zm8.25-6.709a3.945,3.945,0,0,0-.657-.051,1.759,1.759,0,0,0-1.783,1.135V18h-1.335V10.075h1.3l.022.916a2.073,2.073,0,0,1,1.862-1.062,1.347,1.347,0,0,1,.592.1ZM-15.692,18h-1.335V10.075h1.335ZM-17.136,7.973a.816.816,0,0,1,.2-.557.74.74,0,0,1,.588-.227.751.751,0,0,1,.592.227.807.807,0,0,1,.2.557.78.78,0,0,1-.2.549.764.764,0,0,1-.592.22.753.753,0,0,1-.588-.22A.789.789,0,0,1-17.136,7.973ZM-8.734,18a2.881,2.881,0,0,1-.188-.835,2.96,2.96,0,0,1-2.223.981,2.732,2.732,0,0,1-1.895-.663,2.158,2.158,0,0,1-.74-1.681,2.252,2.252,0,0,1,.928-1.923,4.325,4.325,0,0,1,2.609-.685h1.3v-.623a1.534,1.534,0,0,0-.419-1.132A1.668,1.668,0,0,0-10.6,11.02a1.928,1.928,0,0,0-1.2.366,1.083,1.083,0,0,0-.484.886H-13.62a1.887,1.887,0,0,1,.415-1.146,2.838,2.838,0,0,1,1.126-.875,3.741,3.741,0,0,1,1.563-.322,3.058,3.058,0,0,1,2.115.685A2.487,2.487,0,0,1-7.608,12.5v3.647a4.518,4.518,0,0,0,.274,1.736V18Zm-2.216-1.033a2.321,2.321,0,0,0,1.191-.33,1.981,1.981,0,0,0,.816-.857V14.155H-9.99q-2.454,0-2.454,1.458a1.242,1.242,0,0,0,.419,1A1.594,1.594,0,0,0-10.95,16.967Zm6.691-6.892.036.879A2.866,2.866,0,0,1-1.905,9.929,2.228,2.228,0,0,1,.325,11.2a2.974,2.974,0,0,1,1.014-.923,2.96,2.96,0,0,1,1.476-.352q2.57,0,2.613,2.761V18H4.093V12.771A1.837,1.837,0,0,0,3.711,11.5a1.67,1.67,0,0,0-1.285-.421,1.756,1.756,0,0,0-1.234.45,1.838,1.838,0,0,0-.57,1.212V18H-.721V12.807q0-1.729-1.667-1.729a1.785,1.785,0,0,0-1.8,1.135V18H-5.522V10.075ZM8.893,18H7.558V10.075H8.893ZM7.45,7.973a.816.816,0,0,1,.2-.557.74.74,0,0,1,.588-.227.751.751,0,0,1,.592.227.807.807,0,0,1,.2.557.78.78,0,0,1-.2.549.764.764,0,0,1-.592.22.753.753,0,0,1-.588-.22A.789.789,0,0,1,7.45,7.973Zm6.821,10.173a3.387,3.387,0,0,1-2.584-1.058,3.962,3.962,0,0,1-1-2.831v-.249a4.814,4.814,0,0,1,.444-2.106,3.5,3.5,0,0,1,1.242-1.45A3.089,3.089,0,0,1,14.1,9.929a2.906,2.906,0,0,1,2.368,1.018,4.453,4.453,0,0,1,.845,2.915v.564H12.026a2.842,2.842,0,0,0,.675,1.893,2.107,2.107,0,0,0,1.642.721,2.3,2.3,0,0,0,1.2-.293,3.026,3.026,0,0,0,.859-.776l.816.645A3.266,3.266,0,0,1,14.271,18.146Zm-.166-7.1a1.769,1.769,0,0,0-1.357.6,2.923,2.923,0,0,0-.679,1.674h3.912v-.1a2.6,2.6,0,0,0-.549-1.6A1.666,1.666,0,0,0,14.1,11.042Zm6.02-.967.043,1a2.831,2.831,0,0,1,2.339-1.143q2.476,0,2.5,2.834V18H23.669V12.756a1.842,1.842,0,0,0-.386-1.267,1.534,1.534,0,0,0-1.18-.41,1.908,1.908,0,0,0-1.14.352,2.379,2.379,0,0,0-.765.923V18H18.862V10.075ZM28.83,8.156v1.919h1.458v1.047H28.83v4.921a1.112,1.112,0,0,0,.195.715.814.814,0,0,0,.664.238,3.189,3.189,0,0,0,.635-.088V18a3.841,3.841,0,0,1-1.025.146,1.651,1.651,0,0,1-1.35-.549,2.384,2.384,0,0,1-.455-1.56V11.123H26.073V10.075h1.422V8.156Zm2.519,5.808A4.738,4.738,0,0,1,31.8,11.87a3.314,3.314,0,0,1,3.093-1.941,3.272,3.272,0,0,1,2.581,1.121,4.351,4.351,0,0,1,.985,2.981v.1a4.78,4.78,0,0,1-.437,2.076,3.349,3.349,0,0,1-1.249,1.432,3.42,3.42,0,0,1-1.866.513,3.264,3.264,0,0,1-2.573-1.121,4.329,4.329,0,0,1-.985-2.966Zm1.343.161a3.426,3.426,0,0,0,.6,2.117,2.024,2.024,0,0,0,3.23-.011,3.748,3.748,0,0,0,.6-2.267,3.42,3.42,0,0,0-.61-2.113,1.929,1.929,0,0,0-1.62-.809,1.908,1.908,0,0,0-1.6.8A3.72,3.72,0,0,0,32.692,14.125Zm7.471,3.164a.856.856,0,0,1,.206-.586.778.778,0,0,1,.617-.234.8.8,0,0,1,.624.234.839.839,0,0,1,.213.586.793.793,0,0,1-.213.564.815.815,0,0,1-.624.227.791.791,0,0,1-.617-.227A.809.809,0,0,1,40.162,17.29Z" transform="translate(1053.974 1277.522)" fill="#12263f"/>
      <path id="Trazado_157222" data-name="Trazado 157222" d="M574.58,1081.913v-9.732h-.985v9.732h-2.525l3.018,5.3,3.018-5.3Z" transform="translate(-1.273)" fill="#12263f"/>
      <path id="Trazado_157223" data-name="Trazado 157223" d="M1069.58,1239.913v-3.275h-.985v3.275h-2.525l3.018,5.3,3.018-5.3Z" transform="translate(-15.522)" fill="#12263f"/>
      <path id="Trazado_157224" data-name="Trazado 157224" d="M1069.58,1322.913v-3.275h-.985v3.275h-2.525l3.018,5.3,3.018-5.3Z" transform="translate(-15.522)" fill="#12263f"/>
      <path id="Trazado_157225" data-name="Trazado 157225" d="M574.58,1158.793v-9.732h-.985v9.732h-2.525l3.018,5.3,3.018-5.3Z" transform="translate(-1.273)" fill="#12263f"/>
      <path id="Trazado_157226" data-name="Trazado 157226" d="M691.546,1200.138H671.113v1h20.432v2.562l5.227-3.062-5.227-3.062Z" transform="translate(-5.062)" fill="#12263f"/>
      <path id="Trazado_157227" data-name="Trazado 157227" d="M861.546,1200.138H841.113v1h20.432v2.562l5.227-3.062-5.227-3.062Z" transform="translate(-9.64)" fill="#12263f"/>
      <path id="Trazado_157228" data-name="Trazado 157228" d="M1003.546,1200.138H983.113v1h20.432v2.562l5.227-3.062-5.227-3.062Z" transform="translate(-13.464)" fill="#12263f"/>
      <path id="Trazado_157229" data-name="Trazado 157229" d="M1173.8,1357.518h-20.432v1H1173.8v2.562l5.226-3.062-5.226-3.062Z" transform="translate(-19.702)" fill="#12263f"/>
    </g>
  </g>
</svg>
