<?xml version="1.0" encoding="utf-8"?>
<!-- Generator: Adobe Illustrator 26.1.0, SVG Export Plug-In . SVG Version: 6.00 Build 0)  -->
<svg version="1.1" id="Capa_1" xmlns="http://www.w3.org/2000/svg" xmlns:xlink="http://www.w3.org/1999/xlink" x="0px" y="0px"
	 viewBox="0 0 369.4 369.4" style="enable-background:new 0 0 369.4 369.4;" xml:space="preserve">
<style type="text/css">
	.st0{fill:#FFFFFF;}
	.st1{fill:url(#Trazado_113539_00000125570866080229657910000001851907754123222700_);}
	.st2{fill:url(#Trazado_113540_00000172401664440726878020000005994467723213924538_);}
	.st3{fill:#F3FF3F;}
	.st4{fill:#F3FF3C;}
</style>
<g id="Grupo_108308" transform="translate(12478.059 12785.627)">
	<g id="Grupo_80128" transform="translate(-12478.059 -12785.627)">
		<g id="Grupo_80127" transform="translate(7.934 7.934)">
			<path id="Trazado_113538" class="st0" d="M176.8,353.5c-23.6,0-47-4.7-68.8-13.9c-21-8.9-40.1-21.7-56.2-37.9
				c-16.1-16.1-29-35.2-37.9-56.2C4.7,223.8,0,200.4,0,176.8c0-23.6,4.7-47,13.9-68.8c8.9-21,21.7-40.1,37.9-56.2
				C67.9,35.6,87,22.8,108,13.9C129.7,4.7,153.1,0,176.8,0c23.6,0,47,4.7,68.8,13.9c21,8.9,40.1,21.7,56.2,37.9
				c16.1,16.1,29,35.2,37.9,56.2c9.2,21.8,13.9,45.2,13.9,68.8c0,23.6-4.7,47-13.9,68.8c-8.9,21-21.7,40.1-37.9,56.2
				c-16.1,16.1-35.2,29-56.2,37.9C223.8,348.9,200.4,353.6,176.8,353.5z M176.8,1.4C80.1,1.4,1.4,80.1,1.4,176.8
				s78.7,175.4,175.4,175.4s175.4-78.7,175.4-175.4S273.5,1.4,176.8,1.4L176.8,1.4z"/>
		</g>
		
			<linearGradient id="Trazado_113539_00000022538493125649021230000015251023631101866624_" gradientUnits="userSpaceOnUse" x1="-768.7505" y1="723.1992" x2="-769.6826" y2="724.1072" gradientTransform="matrix(184.699 0 0 -184.7002 142367.7031 133738.3438)">
			<stop  offset="0" style="stop-color:#F85316"/>
			<stop  offset="7.700000e-02" style="stop-color:#F85519"/>
			<stop  offset="1" style="stop-color:#FF713D"/>
		</linearGradient>
		<path id="Trazado_113539" style="fill:url(#Trazado_113539_00000022538493125649021230000015251023631101866624_);" d="
			M184.7,10.5L184.7,10.5c0,5.5,4.3,10.1,9.8,10.5c40,2.4,77.8,19.3,106.1,47.7c28.4,28.3,45.4,66.1,47.7,106.1
			c0.3,5.5,4.9,9.8,10.5,9.8l0,0c5.8,0,10.5-4.7,10.5-10.5c0-0.2,0-0.4,0-0.6c-2.7-45.1-21.8-87.7-53.9-119.7
			C283.6,21.8,241,2.7,195.8,0c-5.8-0.4-10.8,4-11.1,9.8C184.7,10.1,184.7,10.3,184.7,10.5z"/>
		
			<linearGradient id="Trazado_113540_00000179612805015651746110000001115606171537683843_" gradientUnits="userSpaceOnUse" x1="-769.8994" y1="723.9865" x2="-768.9424" y2="723.0914" gradientTransform="matrix(184.7 0 0 -184.7012 142183.7656 133923.75)">
			<stop  offset="0" style="stop-color:#3D46C2"/>
			<stop  offset="1" style="stop-color:#4752E3"/>
		</linearGradient>
		<path id="Trazado_113540" style="fill:url(#Trazado_113540_00000179612805015651746110000001115606171537683843_);" d="
			M10.5,184.7c-5.8,0-10.5,4.7-10.5,10.5c0,0.2,0,0.4,0,0.6c2.7,45.1,21.8,87.7,53.9,119.7c31.9,32,74.5,51.2,119.7,53.9
			c5.8,0.4,10.8-4,11.1-9.8c0-0.2,0-0.4,0-0.6l0,0c0-5.5-4.3-10.1-9.8-10.5c-40-2.3-77.8-19.3-106.1-47.7
			C40.3,272.4,23.3,234.6,21,194.5C20.6,189,16,184.7,10.5,184.7L10.5,184.7z"/>
	</g>
	<path id="Trazado_113537" class="st3" d="M-12293.4-12772c-90.6,0-164,73.4-164,164c0,0,0,0,0,0c0,90.6,73.4,164,164,164
		c0,0,0,0,0,0c90.6,0,164-73.4,164-164S-12202.8-12772-12293.4-12772C-12293.4-12772-12293.4-12772-12293.4-12772z
		 M-12293.4-12449.5c-87.6,0-158.5-71-158.5-158.5c0-87.6,71-158.5,158.5-158.5c0,0,0,0,0,0c87.6,0,158.5,71,158.5,158.5
		c0,0,0,0,0,0C-12134.8-12520.5-12205.8-12449.5-12293.4-12449.5L-12293.4-12449.5z"/>
	<path id="Trazado_113541" class="st4" d="M-12135-12600.9c-3.8,84.7-73.6,151.4-158.4,151.4c-84.8,0-154.6-66.7-158.4-151.4h-5.5
		c3.8,87.7,76,156.9,163.9,156.9c87.8,0,160.1-69.2,163.9-156.9H-12135z"/>
</g>
</svg>
