<svg xmlns="http://www.w3.org/2000/svg" width="157" height="157" viewBox="0 0 157 157">
  <g id="Grupo_108308" data-name="Grupo 108308" transform="translate(1812 7830)">
    <circle id="Elipse_4731" data-name="Elipse 4731" cx="78.5" cy="78.5" r="78.5" transform="translate(-1812 -7830)" fill="#fff"/>
    <g id="surface1" transform="translate(-1779 -7796)">
      <path id="Trazado_156915" data-name="Trazado 156915" d="M96.5,340.717l-6.988-1.432-4.044,4.188-13.784-10.88,9.193-6.274,9.775-10.7a3.679,3.679,0,0,1,5.829.521l11.581,13.282a4.269,4.269,0,0,1-1.033,6.473l-6.823,4.063A6.342,6.342,0,0,1,96.5,340.717Zm0,0" transform="translate(-58.876 -258.245)" fill="#ffe7cf"/>
      <path id="Trazado_156916" data-name="Trazado 156916" d="M138.65,383.479l-2.826-3.241-11.785,7.023a6.356,6.356,0,0,1-3.706.756l-6.121-.659-5.287,4.542,7.131,5.628,4.043-4.188,6.988,1.433a6.355,6.355,0,0,0,3.705-.756l6.823-4.064A4.269,4.269,0,0,0,138.65,383.479Zm0,0" transform="translate(-89.464 -312.299)" fill="#efd5bd"/>
      <path id="Trazado_156917" data-name="Trazado 156917" d="M174.332,302.211c-1.365-2.116-3.026-1.045-4.391-3.162s.3-3.188-1.066-5.3-3.027-1.046-4.391-3.163.3-3.188-1.068-5.305c-.834-1.294-2.345-3.964-3.266-4.332l-7.365,3.639L165.6,304.8a4.18,4.18,0,0,0,5.778,1.248l2.452-1.581a1.63,1.63,0,0,0,.512-2.236Zm0,0" transform="translate(-125.486 -230.747)" fill="#636363"/>
      <path id="Trazado_156918" data-name="Trazado 156918" d="M96.8,275.191l-5.786,3.569A2.336,2.336,0,0,1,87.8,278l-3.271-5.3a2.337,2.337,0,0,1,.761-3.215l5.786-3.569a1.445,1.445,0,0,1,1.989.471l4.205,6.816A1.445,1.445,0,0,1,96.8,275.191Zm0,0" transform="translate(-69.143 -218.225)" fill="#636363"/>
      <path id="Trazado_156919" data-name="Trazado 156919" d="M113.515,76.9l-11.744,7.246a3.288,3.288,0,0,0-1.071,4.525l5.791,9.385a3.289,3.289,0,0,0,4.525,1.072l11.744-7.246L159.9,83.8,137.4,47.328Zm0,0" transform="translate(-82.305 -38.872)" fill="#f3ff3c"/>
      <path id="Trazado_156920" data-name="Trazado 156920" d="M167.925,203.344l-36.954,8.4-14.542,8.973,3.383,5.483a3.288,3.288,0,0,0,4.525,1.072l11.744-7.246,37.145-8.086Zm0,0" transform="translate(-95.627 -167.012)" fill="#dce736"/>
      <path id="Trazado_156921" data-name="Trazado 156921" d="M122.76,227.818l-11.744,7.246a3.289,3.289,0,0,1-4.525-1.072l-5.791-9.385a3.288,3.288,0,0,1,1.071-4.525l11.744-7.246Zm0,0" transform="translate(-82.305 -174.808)" fill="#f85316"/>
      <path id="Trazado_156922" data-name="Trazado 156922" d="M130.972,250.336l-14.542,8.973,3.383,5.483a3.288,3.288,0,0,0,4.525,1.072l11.744-7.246Zm0,0" transform="translate(-95.627 -205.607)" fill="#d44713"/>
      <path id="Trazado_156923" data-name="Trazado 156923" d="M315.82,70.677l-1.6.989a1.768,1.768,0,0,1-2.433-.577l-24.19-39.2a1.768,1.768,0,0,1,.576-2.433l1.6-.989a1.768,1.768,0,0,1,2.433.576l24.189,39.2A1.768,1.768,0,0,1,315.82,70.677Zm0,0" transform="translate(-235.992 -23.161)" fill="#f85316"/>
      <path id="Trazado_156924" data-name="Trazado 156924" d="M410.51,222.669l-3.98-6.45-4.612,2.846,3.98,6.45a1.768,1.768,0,0,0,2.433.577l1.6-.989A1.768,1.768,0,0,0,410.51,222.669Zm0,0" transform="translate(-330.106 -177.586)" fill="#d44713"/>
      <path id="Trazado_156925" data-name="Trazado 156925" d="M250.932,396.173a3.036,3.036,0,0,0,4.174,1.008l4.426-2.705a3.036,3.036,0,0,0-3.166-5.181L251.939,392A3.035,3.035,0,0,0,250.932,396.173Zm0,0" transform="translate(-205.731 -319.371)" fill="#ffe7cf"/>
      <path id="Trazado_156926" data-name="Trazado 156926" d="M260.672,391.29a3.018,3.018,0,0,0-1.479-1.239,3.036,3.036,0,0,1-1.424,3l-4.426,2.705a3.03,3.03,0,0,1-2.695.231,3.034,3.034,0,0,0,4.59,2.183l4.426-2.705A3.035,3.035,0,0,0,260.672,391.29Zm0,0" transform="translate(-205.864 -320.359)" fill="#efd5bd"/>
      <path id="Trazado_156927" data-name="Trazado 156927" d="M240.292,362.636a3.081,3.081,0,0,0,4.237,1.023L248.877,361a3.082,3.082,0,0,0-3.214-5.259l-4.348,2.658A3.081,3.081,0,0,0,240.292,362.636Zm0,0" transform="translate(-196.986 -291.81)" fill="#ffe7cf"/>
      <path id="Trazado_156928" data-name="Trazado 156928" d="M250.021,357.863a3.069,3.069,0,0,0-1.45-1.238,3.081,3.081,0,0,1-1.448,3.018l-4.347,2.658a3.075,3.075,0,0,1-2.788.214,3.079,3.079,0,0,0,4.663,2.241L249,362.1A3.082,3.082,0,0,0,250.021,357.863Zm0,0" transform="translate(-197.108 -292.905)" fill="#efd5bd"/>
      <path id="Trazado_156929" data-name="Trazado 156929" d="M222.156,333.394a3.082,3.082,0,0,0,4.237,1.023l4.348-2.658a3.081,3.081,0,1,0-3.214-5.258l-4.348,2.657A3.082,3.082,0,0,0,222.156,333.394Zm0,0" transform="translate(-182.091 -267.792)" fill="#ffe7cf"/>
      <path id="Trazado_156930" data-name="Trazado 156930" d="M231.866,328.684a3.069,3.069,0,0,0-1.414-1.223A3.08,3.08,0,0,1,229,330.434l-4.348,2.657a3.075,3.075,0,0,1-2.823.2,3.077,3.077,0,0,0,4.667,2.286l4.348-2.657A3.082,3.082,0,0,0,231.866,328.684Zm0,0" transform="translate(-182.193 -268.952)" fill="#efd5bd"/>
      <path id="Trazado_156931" data-name="Trazado 156931" d="M205.06,303.4a3.082,3.082,0,0,0,4.237,1.023l4.347-2.658a3.081,3.081,0,1,0-3.214-5.258l-4.347,2.657A3.082,3.082,0,0,0,205.06,303.4Zm0,0" transform="translate(-168.05 -243.158)" fill="#ffe7cf"/>
      <path id="Trazado_156932" data-name="Trazado 156932" d="M214.993,298.172a3.066,3.066,0,0,0-1.725-1.336,3.081,3.081,0,0,1-1.4,3.272l-4.348,2.658a3.074,3.074,0,0,1-2.512.313,3.076,3.076,0,0,0,4.618,1.987l4.348-2.657A3.082,3.082,0,0,0,214.993,298.172Zm0,0" transform="translate(-168.375 -243.799)" fill="#efd5bd"/>
      <path id="Trazado_156933" data-name="Trazado 156933" d="M144.668,304.244l-.806.493a2.657,2.657,0,0,1-3.663-.83l-1.337-2.184a2.29,2.29,0,0,0-3.171-.708c-1.1,8.061-12.555,7.333-12.555,7.333l7.1-10.693a5.714,5.714,0,0,1,1.933-1.991l4.007-2.485a4.08,4.08,0,0,1,5.646,1.258L145.6,300.6A2.659,2.659,0,0,1,144.668,304.244Zm0,0" transform="translate(-101.136 -240.273)" fill="#ffe7cf"/>
      <path id="Trazado_156934" data-name="Trazado 156934" d="M181.085,325.019l-.031-.05a2.747,2.747,0,0,1-.9.892l-.807.493a2.657,2.657,0,0,1-3.663-.83l-1.336-2.184a2.291,2.291,0,0,0-3.171-.708,15.95,15.95,0,0,1-4.835,8.84,7.539,7.539,0,0,0,4.835-6.036,2.291,2.291,0,0,1,3.171.708l1.336,2.184a2.656,2.656,0,0,0,3.663.83l.807-.493A2.659,2.659,0,0,0,181.085,325.019Zm0,0" transform="translate(-136.623 -264.692)" fill="#efd5bd"/>
      <path id="Trazado_156935" data-name="Trazado 156935" d="M98.167,402.112,86.875,388.693l3.718-3.129a.278.278,0,0,1,.391.034l10.935,12.994a.277.277,0,0,1-.033.391Zm0,0" transform="translate(-71.353 -316.62)" fill="#fff"/>
      <path id="Trazado_156936" data-name="Trazado 156936" d="M126.264,427l-5.817-6.913-3.931,3.308,6,7.125,3.719-3.129A.278.278,0,0,0,126.264,427Zm0,0" transform="translate(-95.698 -345.027)" fill="#dee4f0"/>
      <path id="Trazado_156937" data-name="Trazado 156937" d="M33.78,411.49l-12.2-14.317a.293.293,0,0,0-.389-.052l-13,10.261A1.809,1.809,0,0,0,7.5,408.8v4.174a1.808,1.808,0,0,0,1.808,1.808H30.572a1.81,1.81,0,0,0,1.41-.676l1.787-2.223A.294.294,0,0,0,33.78,411.49Zm0,0" transform="translate(-6.16 -326.124)" fill="#b0c0d2"/>
      <path id="Trazado_156938" data-name="Trazado 156938" d="M88.819,446.57l-5.787-6.789-8.52,10.083h11.1a1.81,1.81,0,0,0,1.41-.676l1.787-2.224A.294.294,0,0,0,88.819,446.57Zm0,0" transform="translate(-61.198 -361.204)" fill="#727997"/>
      <path id="Trazado_156939" data-name="Trazado 156939" d="M403.494,92.748a1.34,1.34,0,0,0,1.844.439l7.264-4.468a1.34,1.34,0,1,0-1.4-2.282L403.933,90.9A1.34,1.34,0,0,0,403.494,92.748Zm0,0" transform="translate(-331.237 -70.829)" fill="#12263f"/>
      <path id="Trazado_156940" data-name="Trazado 156940" d="M449.518,167.723l-10.649-1.034a1.34,1.34,0,1,0-.259,2.667l10.648,1.035c.045,0,.088.006.131.006a1.34,1.34,0,0,0,.128-2.674Zm0,0" transform="translate(-359.247 -136.901)" fill="#12263f"/>
      <path id="Trazado_156941" data-name="Trazado 156941" d="M370.047,12.56a1.337,1.337,0,0,0,1.734-.763l3.878-9.972a1.34,1.34,0,0,0-2.5-.972l-3.879,9.972A1.34,1.34,0,0,0,370.047,12.56Zm0,0" transform="translate(-303.227 0)" fill="#12263f"/>
      <path id="Trazado_156942" data-name="Trazado 156942" d="M57.355,22.18a3.112,3.112,0,0,0-4.277-1.013l-1.6.989a3.108,3.108,0,0,0-1.013,4.277l.922,1.494L30.312,54.013l-4.45,2.746a1.34,1.34,0,0,0,1.408,2.281l3.5-2.162L37.6,67.946a5.476,5.476,0,0,0-2.865.6l-.048.024c-.12.063-.239.13-.356.2l-4.007,2.485a7.189,7.189,0,0,0-2.365,2.422l-.989,1.491-.727,1.094-.019-.006-.033-.015c-.056-.025-.112-.053-.166-.083l-.034-.019a2.008,2.008,0,0,1-.172-.115L25.788,76c-.05-.039-.1-.081-.147-.126l-.018-.016a2.055,2.055,0,0,1-.143-.156l-.029-.036a2.032,2.032,0,0,1-.126-.178L19.535,66.1a1.948,1.948,0,0,1,.634-2.681L21.9,62.351A1.34,1.34,0,0,0,20.5,60.07L18.763,61.14a4.63,4.63,0,0,0-2.027,5.189l-1.289.8a3.68,3.68,0,0,0-1.2,5.059l3.271,5.3A3.652,3.652,0,0,0,19.8,79.13a3.711,3.711,0,0,0,.854.1,3.648,3.648,0,0,0,1.923-.549l1.291-.8a4.627,4.627,0,0,0,.881.631l-3.721,5.6-.877.6a1.618,1.618,0,0,0-1.775.2l-2.309,1.943a1.63,1.63,0,0,0-1.8.028c-.026.018-.052.036-.076.056L1.2,97.211A3.13,3.13,0,0,0,0,99.683v4.174a3.152,3.152,0,0,0,3.148,3.148H24.412a3.133,3.133,0,0,0,2.455-1.177l1.763-2.194a1.625,1.625,0,0,0,.393-1.244l2.372-2a1.607,1.607,0,0,0,.492-.725l5.468,1.121a1.314,1.314,0,0,0,.245.027c.16,0,.319,0,.478,0a7.126,7.126,0,0,0,3.937-.949l5.509-3.281c.092.006.184.009.276.009a4.346,4.346,0,0,0,2.274-.644L54.5,93.252a4.371,4.371,0,0,0-.3-7.632,4.417,4.417,0,0,0-2.839-6.338,4.407,4.407,0,0,0-3.1-5.184,4.41,4.41,0,0,0-.5-3.419,4.481,4.481,0,0,0-.585-.757l26.553-5.78.922,1.494a3.11,3.11,0,0,0,4.277,1.013l1.6-.989a3.108,3.108,0,0,0,1.013-4.278ZM21.171,76.4a1,1,0,0,1-1.371-.325l-3.271-5.3a1,1,0,0,1,.325-1.371l1.137-.7,4.317,7Zm3.606,27.749a.464.464,0,0,1-.365.175H3.148a.469.469,0,0,1-.468-.468V99.683a.466.466,0,0,1,.178-.368L15.05,89.691l10.988,12.89Zm2.725-3.983L17.863,88.86l1.427-1.2,9.567,11.369Zm13.135-2.592a4.883,4.883,0,0,1-2.866.565l-6.866-1.408a1.336,1.336,0,0,0-.485-.011L21.993,86.708l.763-.521h0l.038-.029c.029-.022.057-.043.084-.066l.038-.036c.027-.025.052-.051.077-.078.01-.011.02-.022.029-.033.03-.036.059-.073.085-.112l.008-.01.006-.009.006-.011,7.087-10.674c.015-.023.03-.047.044-.071a4.383,4.383,0,0,1,1.48-1.523l4.007-2.485c.074-.046.149-.087.225-.126.034-.017.069-.032.1-.048s.08-.036.121-.052.093-.036.142-.052c.024-.009.049-.017.075-.024.059-.018.118-.036.177-.05h0a2.845,2.845,0,0,1,.653-.08h.014c.064,0,.128,0,.191.007l.061.006c.057,0,.112.011.168.019l.1.018a2.584,2.584,0,0,1,.253.061c.032.009.065.017.1.027s.084.031.126.048.066.025.1.039.082.037.123.057l.09.047c.04.022.081.045.121.069l.08.052c.04.027.08.053.118.082s.046.036.068.054c.04.031.079.063.116.1a2.568,2.568,0,0,1,.475.569l.1.161,1.429,2.331,1.793,2.926.456.745a1.174,1.174,0,0,1,.106.22,1.251,1.251,0,0,1,.038.726,1.378,1.378,0,0,1-.63.856l-.806.493h0a1.413,1.413,0,0,1-.171.087l-.038.016a1.388,1.388,0,0,1-.176.059l-.022,0a1.4,1.4,0,0,1-.167.029l-.033,0a1.546,1.546,0,0,1-.179,0l-.033,0a1.381,1.381,0,0,1-.18-.023h0a1.311,1.311,0,0,1-.186-.054l-.016-.006a1.257,1.257,0,0,1-.347-.2h0a1.294,1.294,0,0,1-.144-.138l-.011-.013a1.172,1.172,0,0,1-.114-.154l-1.336-2.184a3.543,3.543,0,0,0-2.223-1.607,3.662,3.662,0,0,0-2.8.459,1.341,1.341,0,0,0-.622.958c-.015.115-.034.227-.054.338-.015.081-.033.161-.051.241-.006.026-.011.054-.018.08-.024.1-.049.2-.078.3a.107.107,0,0,1,0,.012,5.677,5.677,0,0,1-.632,1.425,0,0,0,0,0,0,0A6.293,6.293,0,0,1,30.264,82a1.34,1.34,0,1,0,1.392,2.29,9.8,9.8,0,0,0,1.737-1.333l5.6,8.826a5.553,5.553,0,0,0,4.656,2.527c.1,0,.2,0,.293-.011.038.07.078.139.119.208a4.42,4.42,0,0,0,.541.711Zm1.137-9.852v0c.022.063.047.124.073.186,0,.007.006.015.009.022.023.056.048.111.074.166.006.012.011.025.017.038.024.052.052.1.078.154.008.015.015.031.024.045.036.066.073.13.112.195.067.11.14.216.216.318.027.036.055.072.083.107.049.063.1.124.153.184.037.042.073.085.112.126s.06.059.09.089a4.418,4.418,0,0,0,.34.306l.037.029a4.352,4.352,0,0,0,.741.475,4.413,4.413,0,0,0-.473,1.459,2.846,2.846,0,0,1-2.212-1.286l-6.161-9.716a8.624,8.624,0,0,0,.655-1.89,1,1,0,0,1,.287.025.886.886,0,0,1,.556.4l1.336,2.184.006.009a3.725,3.725,0,0,0,.212.31c.056.073.116.142.176.21.021.024.04.049.061.073l.009.036q.031.139.071.276c.008.026.016.053.024.08.033.1.068.206.108.306,0,.011.008.02.013.03.037.092.078.182.122.271.013.026.025.052.038.077.05.1.1.194.16.289a4.391,4.391,0,0,0,2.693,1.981A4.4,4.4,0,0,0,41.774,87.723Zm.855-15.949.45-.275A1.742,1.742,0,1,1,44.9,74.471l-.447.274-1.325-2.161Zm9.987,16.1a1.7,1.7,0,0,1,.486,3.1l-4.426,2.705a1.683,1.683,0,0,1-1.175.222c-.023,0-.047-.01-.071-.014l-.036-.007a1.685,1.685,0,0,1-1.263-1.311.1.1,0,0,0,0-.015,1.707,1.707,0,0,1,.449-1.5l.031-.031.06-.055c.02-.018.041-.036.064-.053l.048-.038c.04-.029.08-.057.122-.084l0,0,.879-.537A4.567,4.567,0,0,0,48.241,90l3.386-2.07A1.687,1.687,0,0,1,52.616,87.871ZM49.533,82a1.742,1.742,0,0,1,1.658,3.058l-.8.487a4.476,4.476,0,0,0-.459.244l-3.368,2.058A1.746,1.746,0,0,1,44.75,87.5h0c-.038-.035-.073-.071-.107-.109l-.027-.032c-.025-.029-.05-.059-.074-.09s-.063-.089-.093-.136-.056-.1-.08-.148c-.008-.016-.014-.032-.022-.049-.015-.034-.031-.069-.044-.1-.007-.019-.013-.037-.019-.056-.011-.034-.022-.068-.031-.1-.005-.019-.01-.038-.014-.057q-.012-.051-.021-.1l-.008-.054c-.005-.036-.008-.073-.011-.109,0-.018,0-.035,0-.052,0-.038,0-.075,0-.112,0-.017,0-.033,0-.049,0-.038.006-.076.011-.114,0-.016,0-.032.006-.048,0-.033.012-.067.019-.1a1.738,1.738,0,0,1,.558-.952c.012-.01.022-.023.034-.033l.05-.043c.042-.024.085-.045.126-.071l4.348-2.658Q49.443,82.059,49.533,82Zm-2.082-5.346a1.742,1.742,0,0,1,.658,3.07c-.045.024-.089.049-.133.076L44.62,81.848l.033-.027c.064-.051.128-.1.188-.157.038-.034.073-.069.11-.1.054-.053.109-.107.161-.163.036-.038.069-.078.1-.117.048-.057.1-.114.14-.174.031-.041.063-.083.093-.126.043-.061.083-.123.123-.186.027-.044.054-.087.08-.132.038-.067.073-.136.108-.205.022-.044.045-.086.064-.131.035-.078.066-.157.1-.237.014-.038.031-.076.044-.115.041-.121.078-.243.108-.368s.051-.239.068-.359c.006-.038.008-.077.013-.115.01-.082.018-.164.022-.246,0-.045,0-.089,0-.134,0-.077,0-.153,0-.229,0-.045,0-.091-.007-.136-.006-.077-.015-.153-.024-.23-.006-.043-.011-.085-.018-.127-.015-.086-.033-.172-.054-.257-.007-.031-.013-.062-.02-.093-.031-.115-.066-.229-.107-.341-.008-.022-.018-.043-.027-.066-.029-.075-.058-.152-.092-.225l.308-.188A1.731,1.731,0,0,1,47.451,76.651ZM79.316,63.115a.427.427,0,0,1-.192.265l-1.6.99a.429.429,0,0,1-.589-.14L60.053,36.875a1.34,1.34,0,1,0-2.28,1.407L72.238,61.726,41.1,68.5,32.85,55.137,52.876,30.345l1.618,2.623a1.34,1.34,0,1,0,2.281-1.408l-4.032-6.534a.428.428,0,0,1,.14-.589l1.6-.989a.428.428,0,0,1,.589.14l24.189,39.2A.425.425,0,0,1,79.316,63.115Zm0,0" transform="translate(0 -17.006)" fill="#12263f"/>
    </g>
  </g>
</svg>
