<svg xmlns="http://www.w3.org/2000/svg" width="157" height="157" viewBox="0 0 157 157">
  <g id="Grupo_108308" data-name="Grupo 108308" transform="translate(5414 7295)">
    <circle id="Elipse_4731" data-name="Elipse 4731" cx="78.5" cy="78.5" r="78.5" transform="translate(-5414 -7295)" fill="#fff"/>
    <g id="trabajo" transform="translate(-5384.76 -7260.999)">
      <path id="Trazado_157014" data-name="Trazado 157014" d="M74.042,56.872q-.122-.268-.227-.545a.69.69,0,0,0-.647-.442h-1.6a.7.7,0,0,1-.685-.562,12.025,12.025,0,0,1,0-4.675.7.7,0,0,1,.685-.562h1.6a.69.69,0,0,0,.647-.442q.1-.277.227-.545a.69.69,0,0,0-.144-.772l-.205-.205h-58.7a2.729,2.729,0,0,0-2.729,2.729v6.422H74.092a.683.683,0,0,0-.05-.4Z" transform="translate(-6.182 -39.662)" fill="#b1e874"/>
      <g id="Grupo_107508" data-name="Grupo 107508" transform="translate(6.078 8.457)">
        <path id="Trazado_157015" data-name="Trazado 157015" d="M19.63,50.848a2.729,2.729,0,0,1,2.729-2.729h-7.37a2.729,2.729,0,0,0-2.729,2.729v6.422h7.37V50.848Z" transform="translate(-12.26 -48.119)" fill="#96e83c"/>
      </g>
      <path id="Trazado_157016" data-name="Trazado 157016" d="M82.659,107.895a12.005,12.005,0,0,1-2.338-.229.7.7,0,0,1-.562-.685v-1.6a.69.69,0,0,0-.442-.647q-.277-.1-.545-.227a.69.69,0,0,0-.772.144l-1.133,1.133a.7.7,0,0,1-.883.086,12.069,12.069,0,0,1-3.3-3.3.7.7,0,0,1,.086-.883l1.133-1.133a.7.7,0,0,0,.194-.374H12.259v69.315a1.758,1.758,0,0,0,1.758,1.758H50.642v-13.1a5.273,5.273,0,0,1,5.273-5.273H57.1v-11.55a3.51,3.51,0,0,1-1.677-2.992v-2.478a3.51,3.51,0,0,1,1.677-2.992V126.71a13.184,13.184,0,0,1,13.184-13.184H78.3a13.121,13.121,0,0,1,5.993,1.442V107.78a11.969,11.969,0,0,1-1.637.115Z" transform="translate(-6.181 -82.566)" fill="#f3f9ff"/>
      <path id="Trazado_157017" data-name="Trazado 157017" d="M264.031,291.721v-8.6h-2.673a3.516,3.516,0,0,0-3.516,3.516v2.478a3.516,3.516,0,0,0,3.516,3.516h2.717C264.047,292.334,264.031,292.029,264.031,291.721Z" transform="translate(-208.595 -233.358)" fill="#ffbd86"/>
      <g id="Grupo_107509" data-name="Grupo 107509" transform="translate(6.078 17.608)">
        <path id="Trazado_157018" data-name="Trazado 157018" d="M19.629,169.489V100.174h-7.37v69.315a1.758,1.758,0,0,0,1.758,1.758h7.37A1.758,1.758,0,0,1,19.629,169.489Z" transform="translate(-12.259 -100.174)" fill="#d2e1f1"/>
      </g>
      <g id="Grupo_107519" data-name="Grupo 107519" transform="translate(44.462 30.96)">
        <g id="Grupo_107510" data-name="Grupo 107510" transform="translate(0 39.343)">
          <path id="Trazado_157019" data-name="Trazado 157019" d="M272.653,399.951h-1.189v.572a1.758,1.758,0,0,1-1.758,1.758h-7.379v2.762a.879.879,0,0,1-1.425.688l-4.569-3.628-1.239,3.256a.879.879,0,0,1-1.643,0l-1.239-3.256-4.569,3.628a.879.879,0,0,1-1.425-.688v-2.762H238.84a1.758,1.758,0,0,1-1.758-1.758v-.572h-1.189a5.273,5.273,0,0,0-5.273,5.273v13.1h45.549a1.758,1.758,0,0,0,1.758-1.758V405.224A5.274,5.274,0,0,0,272.653,399.951Z" transform="translate(-230.62 -399.951)" fill="#ffa799"/>
        </g>
        <path id="Trazado_157020" data-name="Trazado 157020" d="M238.838,402.282a1.758,1.758,0,0,1-1.758-1.758v-.572h-1.189a5.273,5.273,0,0,0-5.273,5.273v13.1h9.538v-13.1a5.25,5.25,0,0,1,.9-2.943h-2.215Z" transform="translate(-230.618 -360.609)" fill="#fe8f83"/>
        <g id="Grupo_107511" data-name="Grupo 107511" transform="translate(6.462)">
          <path id="Trazado_157021" data-name="Trazado 157021" d="M415.582,334.77A9.666,9.666,0,0,1,411,342.106v6.021h7.379a1.758,1.758,0,0,0,1.758-1.758V334.247a3.493,3.493,0,0,1-1.839.523Z" transform="translate(-385.755 -306.454)" fill="#7a6d79"/>
          <path id="Trazado_157022" data-name="Trazado 157022" d="M288.58,176.133h-8.015a13.184,13.184,0,0,0-13.184,13.184v6.147a3.493,3.493,0,0,1,1.839-.523h2.673v-.5a2.637,2.637,0,0,1,2.637-2.637h8.332a4.395,4.395,0,0,0,1.683-.335l8.164-3.386a2.463,2.463,0,0,1,1.525-.128,3.963,3.963,0,0,1,3.018,3.849v3.133h2.673a3.494,3.494,0,0,1,1.839.523v-6.147A13.184,13.184,0,0,0,288.58,176.133Z" transform="translate(-267.382 -176.133)" fill="#7a6d79"/>
        </g>
        <g id="Grupo_107512" data-name="Grupo 107512" transform="translate(6.462 0)">
          <path id="Trazado_157023" data-name="Trazado 157023" d="M276.519,347.616a1.752,1.752,0,0,1-.519-1.247v-4.607a9.657,9.657,0,0,1-4.058-6.992h-2.72a3.493,3.493,0,0,1-1.839-.523v12.122a1.758,1.758,0,0,0,1.758,1.758h7.379v-.511Z" transform="translate(-267.382 -306.454)" fill="#685e68"/>
          <path id="Trazado_157024" data-name="Trazado 157024" d="M288.58,176.133h-8.015a13.184,13.184,0,0,0-13.184,13.184v6.147a3.493,3.493,0,0,1,1.839-.523h2.673v-.5a2.637,2.637,0,0,1,2.637-2.637H276v-2.491a13.181,13.181,0,0,1,12.882-13.176C288.781,176.138,288.681,176.133,288.58,176.133Z" transform="translate(-267.382 -176.133)" fill="#685e68"/>
        </g>
        <g id="Grupo_107513" data-name="Grupo 107513" transform="translate(15.599 35.652)">
          <path id="Trazado_157025" data-name="Trazado 157025" d="M323.66,380.347a9.612,9.612,0,0,1-4.3-1.39v8.783a.879.879,0,0,0,1.425.688l4.569-3.628Z" transform="translate(-319.36 -378.957)" fill="#fff"/>
          <path id="Trazado_157026" data-name="Trazado 157026" d="M378.595,380.346,376.9,384.8l4.569,3.628a.879.879,0,0,0,1.425-.688v-8.783A9.607,9.607,0,0,1,378.595,380.346Z" transform="translate(-366.786 -378.956)" fill="#fff"/>
        </g>
        <path id="Trazado_157027" data-name="Trazado 157027" d="M350.582,386.881h-6.023c-.251,0-.5-.013-.744-.031l2.934,7.711a.879.879,0,0,0,1.643,0l2.934-7.711C351.08,386.869,350.833,386.881,350.582,386.881Z" transform="translate(-323.917 -349.81)" fill="#ffbd86"/>
        <g id="Grupo_107518" data-name="Grupo 107518" transform="translate(10.974 11.759)">
          <g id="Grupo_107514" data-name="Grupo 107514" transform="translate(25.314 7.048)">
            <path id="Trazado_157028" data-name="Trazado 157028" d="M439.776,283.125H437.1v8.6c0,.308-.016.612-.044.913h2.717a3.516,3.516,0,0,0,3.516-3.516v-2.478A3.516,3.516,0,0,0,439.776,283.125Z" transform="translate(-437.059 -283.125)" fill="#ffbd86"/>
          </g>
          <g id="Grupo_107515" data-name="Grupo 107515" transform="translate(0)">
            <path id="Trazado_157029" data-name="Trazado 157029" d="M313.865,243.224a2.463,2.463,0,0,1,1.525-.128,3.963,3.963,0,0,1,3.018,3.849v11.729a9.668,9.668,0,0,1-9.668,9.668h-6.023a9.668,9.668,0,0,1-9.668-9.668v-9.092a2.637,2.637,0,0,1,2.637-2.637h8.332a4.394,4.394,0,0,0,1.683-.335Z" transform="translate(-293.049 -243.029)" fill="#fed2a4"/>
          </g>
          <g id="Grupo_107517" data-name="Grupo 107517" transform="translate(0 3.916)">
            <g id="Grupo_107516" data-name="Grupo 107516">
              <path id="Trazado_157030" data-name="Trazado 157030" d="M298.619,277.033v-9.092a2.637,2.637,0,0,1,2.637-2.637h-5.57a2.637,2.637,0,0,0-2.637,2.637v9.092a9.668,9.668,0,0,0,9.668,9.668h5.57A9.668,9.668,0,0,1,298.619,277.033Z" transform="translate(-293.049 -265.304)" fill="#ffbd86"/>
            </g>
          </g>
        </g>
      </g>
      <g id="Grupo_107523" data-name="Grupo 107523" transform="translate(15.788 31.742)">
        <g id="Grupo_107520" data-name="Grupo 107520" transform="translate(0 6.915)">
          <path id="Trazado_157031" data-name="Trazado 157031" d="M72.219,228.725H67.5v-8.274a.527.527,0,0,1,.527-.527h3.669a.527.527,0,0,1,.527.527Z" transform="translate(-67.496 -219.924)" fill="#96e83c"/>
        </g>
        <g id="Grupo_107521" data-name="Grupo 107521" transform="translate(8.974 3.563)">
          <path id="Trazado_157032" data-name="Trazado 157032" d="M123.274,213h-4.723V201.377a.527.527,0,0,1,.527-.527h3.669a.527.527,0,0,1,.527.527Z" transform="translate(-118.551 -200.85)" fill="#f3ff3c"/>
        </g>
        <g id="Grupo_107522" data-name="Grupo 107522" transform="translate(17.949)">
          <path id="Trazado_157033" data-name="Trazado 157033" d="M174.328,196.3H169.6V181.11a.527.527,0,0,1,.527-.527H173.8a.527.527,0,0,1,.527.527Z" transform="translate(-169.605 -180.583)" fill="#4752e3"/>
        </g>
      </g>
      <g id="Grupo_107527" data-name="Grupo 107527" transform="translate(64.472 1.316)">
        <g id="Grupo_107524" data-name="Grupo 107524">
          <path id="Trazado_157034" data-name="Trazado 157034" d="M365.223,14.839l1.133-1.133a.7.7,0,0,0,.086-.883,12.069,12.069,0,0,0-3.3-3.3.7.7,0,0,0-.883.086l-1.133,1.133a.69.69,0,0,1-.772.144q-.268-.122-.545-.227a.69.69,0,0,1-.442-.647v-1.6a.7.7,0,0,0-.562-.685,12.025,12.025,0,0,0-4.675,0,.7.7,0,0,0-.562.685v1.6a.69.69,0,0,1-.442.647q-.277.1-.545.227a.69.69,0,0,1-.772-.144L350.67,9.605a.7.7,0,0,0-.883-.086,12.069,12.069,0,0,0-3.3,3.3.7.7,0,0,0,.086.883l1.133,1.133a.69.69,0,0,1,.144.772q-.122.268-.227.545a.69.69,0,0,1-.647.442h-1.6a.7.7,0,0,0-.685.563,12.026,12.026,0,0,0,0,4.675.7.7,0,0,0,.685.562h1.6a.69.69,0,0,1,.647.442q.1.277.227.545a.69.69,0,0,1-.144.772l-1.133,1.133a.7.7,0,0,0-.086.883,12.069,12.069,0,0,0,3.3,3.3.7.7,0,0,0,.883-.086L351.8,28.26a.69.69,0,0,1,.772-.144q.268.122.545.227a.69.69,0,0,1,.442.647v1.6a.7.7,0,0,0,.563.685,12.025,12.025,0,0,0,4.675,0,.7.7,0,0,0,.563-.685v-1.6a.69.69,0,0,1,.442-.647q.277-.1.545-.227a.69.69,0,0,1,.772.144l1.133,1.133a.7.7,0,0,0,.883.086,12.069,12.069,0,0,0,3.3-3.3.7.7,0,0,0-.086-.883l-1.133-1.133a.69.69,0,0,1-.144-.772q.122-.268.227-.545a.69.69,0,0,1,.647-.442h1.6a.7.7,0,0,0,.685-.562,12.024,12.024,0,0,0,0-4.675.7.7,0,0,0-.685-.562h-1.6a.69.69,0,0,1-.647-.442q-.1-.277-.227-.545a.69.69,0,0,1,.144-.772Z" transform="translate(-344.456 -7.493)" fill="#727997"/>
        </g>
        <g id="Grupo_107525" data-name="Grupo 107525" transform="translate(7.83 7.83)">
          <circle id="Elipse_5059" data-name="Elipse 5059" cx="4.176" cy="4.176" r="4.176" fill="#b0c0d2"/>
        </g>
      </g>
      <g id="Grupo_107528" data-name="Grupo 107528" transform="translate(4.76 -0.001)">
        <circle id="Elipse_5060" data-name="Elipse 5060" cx="1.318" cy="1.318" r="1.318" transform="translate(5.491 11.715)" fill="#12263f"/>
        <circle id="Elipse_5061" data-name="Elipse 5061" cx="1.318" cy="1.318" r="1.318" transform="translate(9.886 11.715)" fill="#12263f"/>
        <circle id="Elipse_5062" data-name="Elipse 5062" cx="1.318" cy="1.318" r="1.318" transform="translate(14.28 11.715)" fill="#12263f"/>
        <path id="Trazado_157036" data-name="Trazado 157036" d="M326.108,283.4a1.318,1.318,0,1,0-2.637,0v2.007a1.318,1.318,0,1,0,2.637,0Z" transform="translate(-267.448 -232.498)" fill="#12263f"/>
        <path id="Trazado_157037" data-name="Trazado 157037" d="M393.206,282.083a1.318,1.318,0,0,0-1.318,1.318v2.007a1.318,1.318,0,1,0,2.637,0V283.4A1.318,1.318,0,0,0,393.206,282.083Z" transform="translate(-323.838 -232.498)" fill="#12263f"/>
        <path id="Trazado_157038" data-name="Trazado 157038" d="M350.6,296.641a1.318,1.318,0,0,0,1.767-1.957l-.888-.8,1.2-2.657a1.318,1.318,0,1,0-2.4-1.089l-1.6,3.534a1.318,1.318,0,0,0,.317,1.523Z" transform="translate(-288.13 -238.498)" fill="#12263f"/>
        <path id="Trazado_157039" data-name="Trazado 157039" d="M344.5,339.527a3.887,3.887,0,0,1-5.491,0,1.318,1.318,0,0,0-1.864,1.865,6.527,6.527,0,0,0,9.22,0,1.318,1.318,0,1,0-1.865-1.865Z" transform="translate(-278.399 -279.526)" fill="#12263f"/>
        <path id="Trazado_157040" data-name="Trazado 157040" d="M79.108,188.8h0v-3.778a1.318,1.318,0,1,0-2.637,0V188.8H74.38V175.72h2.087v3.149a1.318,1.318,0,1,0,2.637,0v-3.94a1.848,1.848,0,0,0-1.846-1.846H73.589a1.848,1.848,0,0,0-1.846,1.846V188.8H70.129V178.491a1.848,1.848,0,0,0-1.846-1.846H64.615a1.848,1.848,0,0,0-1.846,1.846V188.8H61.155v-6.956A1.848,1.848,0,0,0,59.309,180H55.64a1.848,1.848,0,0,0-1.846,1.846V188.8h0a1.318,1.318,0,0,0,0,2.637H79.108a1.318,1.318,0,0,0,0-2.637Zm-20.59,0H56.431v-6.165h2.087Zm8.974,0H65.406v-9.517h2.087Z" transform="translate(-44.085 -142.658)" fill="#12263f"/>
        <path id="Trazado_157041" data-name="Trazado 157041" d="M79.108,298.567H53.79a1.318,1.318,0,0,0,0,2.637H79.108a1.318,1.318,0,0,0,0-2.637Z" transform="translate(-44.085 -246.084)" fill="#12263f"/>
        <path id="Trazado_157042" data-name="Trazado 157042" d="M79.108,363.713H53.79a1.318,1.318,0,0,0,0,2.637H79.108a1.318,1.318,0,0,0,0-2.637Z" transform="translate(-44.085 -299.779)" fill="#12263f"/>
        <path id="Trazado_157043" data-name="Trazado 157043" d="M79.108,397.452H53.79a1.318,1.318,0,0,0,0,2.637H79.108a1.318,1.318,0,0,0,0-2.637Z" transform="translate(-44.085 -327.587)" fill="#12263f"/>
        <path id="Trazado_157044" data-name="Trazado 157044" d="M68.161,431.191H53.79a1.318,1.318,0,0,0,0,2.637H68.161a1.318,1.318,0,0,0,0-2.637Z" transform="translate(-44.085 -355.396)" fill="#12263f"/>
        <path id="Trazado_157045" data-name="Trazado 157045" d="M60,138.465h4.73a1.318,1.318,0,0,0,0-2.637H60a1.318,1.318,0,0,0,0,2.637Z" transform="translate(-49.204 -111.952)" fill="#12263f"/>
        <path id="Trazado_157046" data-name="Trazado 157046" d="M111.743,138.465h14.371a1.318,1.318,0,0,0,0-2.637H111.743a1.318,1.318,0,0,0,0,2.637Z" transform="translate(-91.851 -111.952)" fill="#12263f"/>
        <path id="Trazado_157047" data-name="Trazado 157047" d="M91.768,79.188a1.318,1.318,0,0,0,1.318-1.318V75.576a6.6,6.6,0,0,0-6.462-6.588V59.417A4.823,4.823,0,0,0,88.3,55.761V53.283a4.823,4.823,0,0,0-1.677-3.656V44.143a14.506,14.506,0,0,0-7.191-12.516V26.283A2.022,2.022,0,0,0,80.7,24.414v-.908l.642.642a2.022,2.022,0,0,0,2.55.249,13.318,13.318,0,0,0,3.665-3.665,2.022,2.022,0,0,0-.249-2.549l-.642-.642h.908a2.021,2.021,0,0,0,1.978-1.625,13.343,13.343,0,0,0,0-5.187A2.021,2.021,0,0,0,87.57,9.1h-.908l.642-.642a2.022,2.022,0,0,0,.249-2.55,13.314,13.314,0,0,0-3.665-3.665,2.022,2.022,0,0,0-2.55.249l-.642.642V2.23A2.021,2.021,0,0,0,79.072.252a13.409,13.409,0,0,0-5.187,0A2.021,2.021,0,0,0,72.26,2.23v.908L71.618,2.5a2.021,2.021,0,0,0-2.549-.249A13.316,13.316,0,0,0,65.4,5.912a2.011,2.011,0,0,0-.336,1.227h-7a1.318,1.318,0,0,0,0,2.637h5.823a2.006,2.006,0,0,0-.478.953,13.344,13.344,0,0,0,0,5.188,1.985,1.985,0,0,0,.114.373H7.4v-5.1a1.412,1.412,0,0,1,1.41-1.41h43.1a1.318,1.318,0,0,0,0-2.637H8.807A4.052,4.052,0,0,0,4.76,11.186V86.923A3.08,3.08,0,0,0,7.836,90H90.01a3.08,3.08,0,0,0,3.076-3.076v-2.9a1.318,1.318,0,1,0-2.637,0v2.9a.44.44,0,0,1-.439.439H45.78V75.576A3.959,3.959,0,0,1,49.7,71.622a3.079,3.079,0,0,0,2.981,2.329h6.061v1.444a2.181,2.181,0,0,0,1.242,1.979,2.181,2.181,0,0,0,2.322-.258l3.158-2.507.6,1.571a2.2,2.2,0,0,0,4.107,0l.6-1.571,3.158,2.507a2.2,2.2,0,0,0,3.564-1.721V73.951h6.061a3.079,3.079,0,0,0,2.981-2.329,3.959,3.959,0,0,1,3.921,3.954V77.87a1.319,1.319,0,0,0,1.319,1.318ZM83.988,44.143v4.334a4.846,4.846,0,0,0-.52-.028H82.113V46.635a5.267,5.267,0,0,0-4.024-5.13,3.8,3.8,0,0,0-2.343.191h0l-8.164,3.386a3.062,3.062,0,0,1-1.178.235H58.072A3.962,3.962,0,0,0,54.2,48.449H52.763a4.848,4.848,0,0,0-.52.028V44.143A11.879,11.879,0,0,1,64.107,32.278h8.015A11.879,11.879,0,0,1,83.988,44.143Zm-18.08-32.4h1.079a2.018,2.018,0,0,0,1.879-1.293c.06-.158.126-.316.2-.469a2.018,2.018,0,0,0-.412-2.248l-.764-.764A10.675,10.675,0,0,1,70.122,4.73l.764.764a2.019,2.019,0,0,0,2.248.412c.155-.07.312-.136.469-.195A2.019,2.019,0,0,0,74.9,3.832V2.752a10.755,10.755,0,0,1,3.163,0v1.08a2.019,2.019,0,0,0,1.294,1.88c.156.059.313.124.468.194a2.018,2.018,0,0,0,2.248-.412l.764-.764a10.675,10.675,0,0,1,2.237,2.237l-.764.764A2.018,2.018,0,0,0,83.9,9.978c.069.153.135.311.195.468a2.018,2.018,0,0,0,1.88,1.294h1.079a10.712,10.712,0,0,1,0,3.163H85.969A2.018,2.018,0,0,0,84.09,16.2c-.06.157-.125.315-.195.469a2.018,2.018,0,0,0,.412,2.248l.764.764a10.671,10.671,0,0,1-2.237,2.237l-.764-.764a2.017,2.017,0,0,0-2.248-.412c-.155.07-.312.136-.469.195a2.018,2.018,0,0,0-1.294,1.879v1.08a10.743,10.743,0,0,1-3.163,0v-1.08A2.018,2.018,0,0,0,73.6,20.934c-.158-.06-.315-.125-.469-.195a2.018,2.018,0,0,0-2.248.413l-.764.764a10.671,10.671,0,0,1-2.237-2.237l.764-.764a2.017,2.017,0,0,0,.412-2.247c-.07-.155-.136-.312-.195-.469a2.018,2.018,0,0,0-1.88-1.294H65.908a10.727,10.727,0,0,1,0-3.163Zm-16.3,32.4v5.483a4.823,4.823,0,0,0-1.677,3.656v2.478a4.823,4.823,0,0,0,1.677,3.656v9.571a6.6,6.6,0,0,0-6.462,6.588V87.362H7.836a.44.44,0,0,1-.439-.439v-68H65.182a2.022,2.022,0,0,0,.221,1.806A13.316,13.316,0,0,0,69.068,24.4a2.021,2.021,0,0,0,2.55-.249l.642-.642v.908a2.021,2.021,0,0,0,1.625,1.978,13.368,13.368,0,0,0,2.594.255c.106,0,.213-.005.319-.008v3.78a14.434,14.434,0,0,0-4.675-.777H64.107A14.518,14.518,0,0,0,49.605,44.143Zm.96,11.618V53.283a2.2,2.2,0,0,1,2.2-2.2h1.355v6.873H52.763A2.2,2.2,0,0,1,50.565,55.761Zm8.177,15.554H52.682a.44.44,0,0,1-.439-.439V60.566a4.846,4.846,0,0,0,.52.028h1.583a11.008,11.008,0,0,0,4.4,6.717Zm2.637,3.17V68.7a10.888,10.888,0,0,0,2.034.521l1.067,2.8Zm6.736-.322-1.831-4.813h3.663Zm6.736.322-3.1-2.462,1.067-2.8a10.9,10.9,0,0,0,2.034-.521Zm-3.725-7.772H65.1a8.359,8.359,0,0,1-8.35-8.35V49.271a1.32,1.32,0,0,1,1.318-1.318H66.4a5.687,5.687,0,0,0,2.188-.436l8.164-3.386h0a1.153,1.153,0,0,1,.707-.065,2.636,2.636,0,0,1,2.013,2.568V58.363A8.359,8.359,0,0,1,71.126,66.713Zm12.861,4.162a.44.44,0,0,1-.439.439H77.488v-4a11.007,11.007,0,0,0,4.4-6.717h1.583a4.848,4.848,0,0,0,.52-.028V70.875Zm1.677-15.114a2.2,2.2,0,0,1-2.2,2.2H82.112V51.085h1.355a2.2,2.2,0,0,1,2.2,2.2Z" transform="translate(-4.76 0.001)" fill="#12263f"/>
        <path id="Trazado_157048" data-name="Trazado 157048" d="M386.994,55.526a5.494,5.494,0,1,0-5.494-5.495A5.5,5.5,0,0,0,386.994,55.526Zm0-8.352a2.858,2.858,0,1,1-2.858,2.858A2.861,2.861,0,0,1,386.994,47.174Z" transform="translate(-315.276 -36.708)" fill="#12263f"/>
      </g>
    </g>
  </g>
</svg>
