<svg xmlns="http://www.w3.org/2000/svg" width="157" height="157" viewBox="0 0 157 157">
  <g id="Grupo_108308" data-name="Grupo 108308" transform="translate(5026 6706)">
    <circle id="Elipse_4731" data-name="Elipse 4731" cx="78.5" cy="78.5" r="78.5" transform="translate(-5026 -6706)" fill="#fff"/>
    <g id="Hierarchy" transform="translate(-4992.992 -6672.005)">
      <circle id="Elipse_5048" data-name="Elipse 5048" cx="16.876" cy="16.876" r="16.876" transform="translate(28.13 5.623)" fill="#dce736"/>
      <path id="Trazado_156947" data-name="Trazado 156947" d="M48.314,23.888v3.685a16.876,16.876,0,0,1-25.314,0V23.888a5.625,5.625,0,0,1,2.813-4.88L32.844,15H38.47L45.5,19.008A5.625,5.625,0,0,1,48.314,23.888Z" transform="translate(9.349 6.093)" fill="#f5f7ff"/>
      <path id="Trazado_156948" data-name="Trazado 156948" d="M34.873,23.032,37.686,16H29.248l2.813,7.032L28.39,32.1a17.129,17.129,0,0,0,10.154,0Z" transform="translate(11.54 6.5)" fill="#3d46c2"/>
      <path id="Trazado_156949" data-name="Trazado 156949" d="M39.657,10.844H27V8.032a4.219,4.219,0,0,1,4.219-4.219h1.955A16.707,16.707,0,0,0,42.47,1V8.032A2.813,2.813,0,0,1,39.657,10.844Z" transform="translate(10.975 0.404)" fill="#727997"/>
      <path id="Trazado_156950" data-name="Trazado 156950" d="M34.032,20.657A7.032,7.032,0,0,1,27,13.625V8H41.064v5.625A7.032,7.032,0,0,1,34.032,20.657Z" transform="translate(10.975 3.249)" fill="#f5f7ff"/>
      <circle id="Elipse_5049" data-name="Elipse 5049" cx="11.251" cy="11.251" r="11.251" transform="translate(9.848 43.595)" fill="#f85316"/>
      <path id="Trazado_156951" data-name="Trazado 156951" d="M21.763,43.374a5.625,5.625,0,1,0-8.354,0A9.844,9.844,0,0,0,8.74,47.987a11.251,11.251,0,0,0,17.692,0,9.844,9.844,0,0,0-4.669-4.613Z" transform="translate(3.555 13.806)" fill="#f5f7ff"/>
      <circle id="Elipse_5050" data-name="Elipse 5050" cx="11.251" cy="11.251" r="11.251" transform="translate(57.664 43.595)" fill="#f85316"/>
      <path id="Trazado_156952" data-name="Trazado 156952" d="M55.763,43.374a5.625,5.625,0,1,0-8.354,0,9.844,9.844,0,0,0-4.669,4.613,11.251,11.251,0,0,0,17.692,0,9.844,9.844,0,0,0-4.669-4.613Z" transform="translate(17.371 13.806)" fill="#f5f7ff"/>
      <circle id="Elipse_5051" data-name="Elipse 5051" cx="8.438" cy="8.438" r="8.438" transform="translate(1.41 71.722)" fill="#75b62f"/>
      <path id="Trazado_156953" data-name="Trazado 156953" d="M12.334,60.573a4.219,4.219,0,1,0-7.032,0A7.032,7.032,0,0,0,2.49,63.709a8.438,8.438,0,0,0,12.77,0A7.032,7.032,0,0,0,12.334,60.573Z" transform="translate(1.015 21.95)" fill="#f5f7ff"/>
      <circle id="Elipse_5052" data-name="Elipse 5052" cx="8.438" cy="8.438" r="8.438" transform="translate(23.911 71.722)" fill="#75b62f"/>
      <path id="Trazado_156954" data-name="Trazado 156954" d="M28.355,60.573a4.219,4.219,0,1,0-7.032,0,7.032,7.032,0,0,0-2.883,3.136,8.438,8.438,0,0,0,12.77,0,7.032,7.032,0,0,0-2.855-3.136Z" transform="translate(7.497 21.95)" fill="#f5f7ff"/>
      <circle id="Elipse_5053" data-name="Elipse 5053" cx="8.438" cy="8.438" r="8.438" transform="translate(49.226 71.722)" fill="#75b62f"/>
      <path id="Trazado_156955" data-name="Trazado 156955" d="M46.334,60.573a4.219,4.219,0,1,0-7.032,0,7.032,7.032,0,0,0-2.813,3.136,8.438,8.438,0,0,0,12.77,0A7.032,7.032,0,0,0,46.334,60.573Z" transform="translate(14.831 21.95)" fill="#f5f7ff"/>
      <circle id="Elipse_5054" data-name="Elipse 5054" cx="8.438" cy="8.438" r="8.438" transform="translate(71.727 71.722)" fill="#75b62f"/>
      <path id="Trazado_156956" data-name="Trazado 156956" d="M62.334,60.573a4.219,4.219,0,1,0-7.032,0,7.032,7.032,0,0,0-2.813,3.136,8.438,8.438,0,0,0,12.77,0,7.032,7.032,0,0,0-2.925-3.136Z" transform="translate(21.333 21.95)" fill="#f5f7ff"/>
      <path id="Trazado_156959" data-name="Trazado 156959" d="M20.408,17.626a1.406,1.406,0,0,0,1.406-1.294,14.472,14.472,0,0,1,.436-2.574,1.409,1.409,0,0,0-2.728-.7A18.7,18.7,0,0,0,19,16.107a1.406,1.406,0,0,0,1.406,1.519Z" transform="translate(7.723 4.873)" fill="#033c59"/>
      <path id="Trazado_156960" data-name="Trazado 156960" d="M80.165,70.316a9.844,9.844,0,0,0-9.732,8.438c-.169,0-.113.872-.113-11.335a13.107,13.107,0,0,0,3.347-.83A1.413,1.413,0,0,0,72.6,63.973a9.844,9.844,0,1,1,3.994-2.981,1.406,1.406,0,0,0,2.166,1.772,12.657,12.657,0,1,0-22.5-9.324H46.413V40.782A18.283,18.283,0,0,0,54.851,7.17V1.4A1.406,1.406,0,0,0,52.671.237c-3.98,2.644-7.355,2.574-10.477,2.574a5.625,5.625,0,0,0-5.063,3.206A18.17,18.17,0,0,0,30.1,11.839a1.4,1.4,0,1,0,2.278,1.631,15.681,15.681,0,0,1,4.191-3.924v7.327a8.438,8.438,0,0,0,1.589,4.908L34.5,23.906a7.032,7.032,0,0,0-3.558,5.175,16.384,16.384,0,0,1-.97-2.714,1.409,1.409,0,0,0-2.728.7A18.283,18.283,0,0,0,43.6,40.782V53.439H33.671A12.657,12.657,0,1,0,19.692,67.418c0,12.5,0,11.335-.113,11.335a9.844,9.844,0,1,0,0,2.813h3.038a9.844,9.844,0,1,0,0-2.813c-.169,0-.113.872-.113-11.335A12.657,12.657,0,0,0,33.671,56.252h22.67A12.657,12.657,0,0,0,67.508,67.418c0,12.5,0,11.335-.113,11.335a9.844,9.844,0,1,0,0,2.813h3.038a9.844,9.844,0,1,0,9.732-11.251ZM9.848,87.192A7.032,7.032,0,1,1,16.88,80.16a7.032,7.032,0,0,1-7.032,7.032Zm22.5-14.064a7.032,7.032,0,1,1-7.032,7.032,7.032,7.032,0,0,1,7.032-7.032ZM59.07,29.039a7.032,7.032,0,0,0-3.544-5.133l-3.671-2.1a8.438,8.438,0,0,0,1.589-4.936V11.558a4.5,4.5,0,0,0,1-1.406A15.47,15.47,0,0,1,59.07,29.039ZM39.381,16.874V12.655H50.632v4.219a5.625,5.625,0,1,1-11.251,0ZM42.194,5.623a19.492,19.492,0,0,0,9.844-1.8V8.436a1.406,1.406,0,0,1-1.406,1.406H39.381V8.436A2.813,2.813,0,0,1,42.194,5.623Zm-6.3,20.7,4.346-2.419a8.438,8.438,0,0,0,9.535,0l4.36,2.489a4.219,4.219,0,0,1,2.124,3.586v3.108a15.47,15.47,0,0,1-22.5,0V29.981a4.219,4.219,0,0,1,2.138-3.657ZM21.1,64.69a9.844,9.844,0,1,1,9.844-9.844A9.844,9.844,0,0,1,21.1,64.69Zm36.565,22.5A7.032,7.032,0,1,1,64.7,80.16a7.032,7.032,0,0,1-7.032,7.032Zm22.5,0A7.032,7.032,0,1,1,87.2,80.16a7.032,7.032,0,0,1-7.032,7.032Z" transform="translate(0 0)" fill="#12263f"/>
    </g>
  </g>
</svg>
