<svg xmlns="http://www.w3.org/2000/svg" width="157" height="157" viewBox="0 0 157 157">
  <g id="Grupo_108308" data-name="Grupo 108308" transform="translate(5199 7084)">
    <circle id="Elipse_4732" data-name="Elipse 4732" cx="78.5" cy="78.5" r="78.5" transform="translate(-5199 -7084)" fill="#fff"/>
    <g id="jerarquia" transform="translate(-5177.707 -7050)">
      <path id="Trazado_156965" data-name="Trazado 156965" d="M40.111,463.831a3.562,3.562,0,0,1,3.564,3.564v3.564H22.29V467.4a3.563,3.563,0,0,1,3.564-3.564Z" transform="translate(-6.25 -382.299)" fill="#838cfc"/>
      <path id="Trazado_156966" data-name="Trazado 156966" d="M98.6,463.831H93.256A3.562,3.562,0,0,1,96.82,467.4v3.564h5.347V467.4A3.562,3.562,0,0,0,98.6,463.831Z" transform="translate(-64.742 -382.299)" fill="#4752e3"/>
      <path id="Trazado_156967" data-name="Trazado 156967" d="M69.973,449.467v2.523a3.564,3.564,0,0,1-7.129,0v-2.525a8.929,8.929,0,0,0,7.129,0Z" transform="translate(-39.675 -370.458)" fill="#ffb098"/>
      <path id="Trazado_156968" data-name="Trazado 156968" d="M50.25,369.576a8.911,8.911,0,1,1-17.821,0V366l2.673-3.55a15.17,15.17,0,0,0,6.237,1.784,15.986,15.986,0,0,0,6.35-1.784L50.25,366Z" transform="translate(-14.607 -298.736)" fill="#ffcdbf"/>
      <path id="Trazado_156969" data-name="Trazado 156969" d="M76.943,362.447a18.479,18.479,0,0,1-2.786,1.148v5.98a8.892,8.892,0,0,1-6.235,8.5,8.907,8.907,0,0,0,11.583-8.5V366Z" transform="translate(-43.861 -298.736)" fill="#ffbeab"/>
      <path id="Trazado_156970" data-name="Trazado 156970" d="M50.25,330.805v1.773l-2.561-3.555a15.985,15.985,0,0,1-6.35,1.784,15.169,15.169,0,0,1-6.237-1.784l-2.673,3.55v-1.768a8.911,8.911,0,0,1,17.821,0Z" transform="translate(-14.607 -265.312)" fill="#dee4f0"/>
      <path id="Trazado_156971" data-name="Trazado 156971" d="M70.587,321.894a8.9,8.9,0,0,0-2.673.409,8.913,8.913,0,0,1,6.213,7.876,18.491,18.491,0,0,0,2.81-1.156l2.561,3.555V330.8A8.91,8.91,0,0,0,70.587,321.894Z" transform="translate(-43.854 -265.311)" fill="#b0c0d2"/>
      <path id="Trazado_156972" data-name="Trazado 156972" d="M385.017,463.843a3.562,3.562,0,0,1,3.564,3.564v3.564H367.017v-3.564a3.563,3.563,0,0,1,3.564-3.564Z" transform="translate(-290.381 -382.309)" fill="#dce736"/>
      <path id="Trazado_156973" data-name="Trazado 156973" d="M444.344,463.843H439a3.562,3.562,0,0,1,3.564,3.564v3.564h5.347v-3.564A3.562,3.562,0,0,0,444.344,463.843Z" transform="translate(-349.708 -382.309)" fill="#b1ba2c"/>
      <path id="Trazado_156974" data-name="Trazado 156974" d="M191.654,159.682h14.257a3.561,3.561,0,0,1,3.564,3.564v7.129h-24.95v-7.13a3.563,3.563,0,0,1,3.564-3.564h3.564Z" transform="translate(-139.967 -131.611)" fill="#96e83c"/>
      <path id="Trazado_156975" data-name="Trazado 156975" d="M281.115,159.69h-5.347a3.561,3.561,0,0,1,3.564,3.564v7.129h5.347v-7.129A3.561,3.561,0,0,0,281.115,159.69Z" transform="translate(-215.172 -131.62)" fill="#75b62f"/>
      <path id="Trazado_156976" data-name="Trazado 156976" d="M214.51,17.38v2.126c-2.411-8.85-7.874,1.337-17.821-1.513a14.726,14.726,0,0,1-1.73-.613,9.776,9.776,0,1,1,19.552,0Z" transform="translate(-148.566 -6.267)" fill="#727997"/>
      <path id="Trazado_156977" data-name="Trazado 156977" d="M222.623,57.973v4.138a8.887,8.887,0,0,1-3.564,7.127v0A8.912,8.912,0,0,1,204.8,62.111V56.46C214.75,59.31,220.212,49.123,222.623,57.973Z" transform="translate(-156.68 -44.734)" fill="#ffcdbf"/>
      <path id="Trazado_156978" data-name="Trazado 156978" d="M246.525,54.706v7.407a8.887,8.887,0,0,1-3.564,7.127v0a8.885,8.885,0,0,1-2.672,1.372,8.912,8.912,0,0,0,8.019-1.372v0a8.886,8.886,0,0,0,3.564-7.127V57.975C250.771,53.935,249.034,53.863,246.525,54.706Z" transform="translate(-185.928 -44.736)" fill="#ffbeab"/>
      <path id="Trazado_156979" data-name="Trazado 156979" d="M235.772,139.4v3.564l-1.782,3.564-3.564-1.784-3.564,1.784-1.782-3.564V139.4a8.907,8.907,0,0,0,10.693,0Z" transform="translate(-173.393 -114.899)" fill="#f4f6f8"/>
      <path id="Trazado_156980" data-name="Trazado 156980" d="M414.7,449.479V452a3.564,3.564,0,1,1-7.129,0v-2.525a8.928,8.928,0,0,0,7.129,0Z" transform="translate(-323.805 -370.468)" fill="#884130"/>
      <path id="Trazado_156981" data-name="Trazado 156981" d="M394.976,369.587a8.911,8.911,0,1,1-17.821,0v-5.256l3.564-1.873,14.257,3.169Z" transform="translate(-298.737 -298.746)" fill="#b45f4a"/>
      <path id="Trazado_156982" data-name="Trazado 156982" d="M418.883,373.724v5.148a8.892,8.892,0,0,1-6.235,8.5,8.907,8.907,0,0,0,11.583-8.5v-3.96Z" transform="translate(-327.991 -308.031)" fill="#a1513d"/>
      <path id="Trazado_156983" data-name="Trazado 156983" d="M394.519,321.539l-14.257-3.169-3.564,1.873c-.6-7.369,1.782-9,1.782-9l1.782,0s16.039-9.609,16.039,10.695Z" transform="translate(-298.279 -254.657)" fill="#727997"/>
      <path id="Trazado_156984" data-name="Trazado 156984" d="M424.9,309.328c3.019.948,5.6,3.976,5.845,11.415l3.585.8,1.782.4C436.108,309.022,429.62,308.209,424.9,309.328Z" transform="translate(-338.087 -254.658)" fill="#5c627a"/>
      <rect id="Rectángulo_37032" data-name="Rectángulo 37032" width="17.821" height="12.475" transform="translate(48.121 70.842)" fill="#f3ff3c"/>
      <path id="Trazado_156985" data-name="Trazado 156985" d="M212.485,463.843a3.564,3.564,0,0,1,3.564,3.564v3.564H194.664v-3.564a3.569,3.569,0,0,1,3.564-3.564Z" transform="translate(-148.324 -382.309)" fill="#ff642b"/>
      <path id="Trazado_156986" data-name="Trazado 156986" d="M270.977,463.843H265.63a3.562,3.562,0,0,1,3.564,3.564v3.564h5.347v-3.564A3.562,3.562,0,0,0,270.977,463.843Z" transform="translate(-206.816 -382.309)" fill="#f85316"/>
      <path id="Trazado_156987" data-name="Trazado 156987" d="M242.346,449.479V452a3.564,3.564,0,1,1-7.129,0v-2.525a8.928,8.928,0,0,0,7.129,0Z" transform="translate(-181.749 -370.468)" fill="#ffb098"/>
      <path id="Trazado_156988" data-name="Trazado 156988" d="M222.623,368.124a8.911,8.911,0,1,1-17.821,0v-3.566l8.911-3.874,8.911,3.874Z" transform="translate(-156.68 -297.283)" fill="#ffcdbf"/>
      <path id="Trazado_156989" data-name="Trazado 156989" d="M246.53,369.5v5.891a8.892,8.892,0,0,1-6.235,8.5,8.907,8.907,0,0,0,11.583-8.5v-3.566Z" transform="translate(-185.934 -304.549)" fill="#ffbeab"/>
      <path id="Trazado_156990" data-name="Trazado 156990" d="M264.4,348.153v1.689l-8.911-3.874,7.214-3.138a8.863,8.863,0,0,1,1.7,5.231Z" transform="translate(-198.461 -282.567)" fill="#ee5253"/>
      <path id="Trazado_156991" data-name="Trazado 156991" d="M220.927,325.575l-7.214,3.138-8.911,3.874v-1.782a8.911,8.911,0,0,1,16.125-5.231Z" transform="translate(-156.68 -265.312)" fill="#f3ff3c"/>
      <path id="Trazado_156992" data-name="Trazado 156992" d="M276.346,342.83,272.04,344.7a8.874,8.874,0,0,1,.637,2.807l5.366,2.333v-1.782A8.861,8.861,0,0,0,276.346,342.83Z" transform="translate(-212.099 -282.567)" fill="#f3ff3c"/>
      <path id="Trazado_156993" data-name="Trazado 156993" d="M242.421,321.913q-.146.009-.289.022l-.136.013c-.11.012-.219.026-.327.042l-.077.011c-.126.02-.252.042-.376.067l-.152.033c-.079.017-.158.035-.236.054l-.163.041c-.082.022-.163.045-.244.069l-.134.039a8.932,8.932,0,0,1,5.582,5.144l4.306-1.873a8.9,8.9,0,0,0-7.214-3.68c-.138,0-.276,0-.413.011Z" transform="translate(-185.928 -265.312)" fill="#dce736"/>
      <path id="Trazado_156994" data-name="Trazado 156994" d="M237.75,7.6a9.784,9.784,0,0,0-2.736.391,9.782,9.782,0,0,1,7.16,8.244c2.511-.844,4.249-.774,5.35,3.268V17.381A9.776,9.776,0,0,0,237.75,7.6Z" transform="translate(-181.581 -6.267)" fill="#5c627a"/>
      <path id="Trazado_156995" data-name="Trazado 156995" d="M378.753,328.589H376.34v-.359a10.256,10.256,0,0,0,5.346-9h0v-2.294l.156.035a1.337,1.337,0,0,0,1.627-1.3c0-5.061-.986-8.841-2.93-11.237a8.38,8.38,0,0,0-6.756-3.066,18.245,18.245,0,0,0-8.041,2.273H364.31a1.336,1.336,0,0,0-.754.234c-.5.345-2.978,2.453-2.364,10.152v5.208s0,.009,0,.014a10.255,10.255,0,0,0,5.346,8.983v.359h-2.227a4.907,4.907,0,0,0-4.9,4.9v3.565a1.337,1.337,0,0,0,1.337,1.337H382.31a1.336,1.336,0,0,0,1.337-1.337V333.49A4.906,4.906,0,0,0,378.753,328.589Zm-9.542,1.336v-.692a10.182,10.182,0,0,0,4.455,0v.692h0a2.228,2.228,0,0,1-4.455,0ZM364.9,306.311h1.2a1.342,1.342,0,0,0,.684-.189,16.038,16.038,0,0,1,7-2.083,5.648,5.648,0,0,1,4.681,2.078c1.345,1.658,2.114,4.3,2.292,7.877h0a1.3,1.3,0,0,0-.215-.048L366.383,310.8a1.337,1.337,0,0,0-.912.122l-1.7.9C363.753,308.417,364.509,306.877,364.9,306.311Zm-1.032,12.921s0,0,0-.007v-4.441l2.416-1.27,12.732,2.829v2.888a7.574,7.574,0,0,1-15.148,0Zm.445,12.029h2.414a4.9,4.9,0,0,0,9.428,0h2.593a2.23,2.23,0,0,1,2.228,2.228v2.228H362.083v-2.228A2.23,2.23,0,0,1,364.311,331.262Z" transform="translate(-284.111 -248.391)" fill="#12263f"/>
      <path id="Trazado_156996" data-name="Trazado 156996" d="M33.872,339.246H31.637v-.359a10.255,10.255,0,0,0,5.347-9v-3.442a1.312,1.312,0,0,0,0-.242v-1.659s0,0,0,0a10.247,10.247,0,0,0-20.494-.014s0,.009,0,.014v1.6a1.343,1.343,0,0,0,0,.377v3.375s0,.009,0,.014a10.256,10.256,0,0,0,5.346,8.983v.359H19.608a4.906,4.906,0,0,0-4.9,4.9v3.565a1.337,1.337,0,0,0,1.337,1.337H37.429a1.337,1.337,0,0,0,1.337-1.337v-3.564A4.906,4.906,0,0,0,33.872,339.246Zm-9.363,1.336v-.692a10.18,10.18,0,0,0,4.455,0v.692h0a2.228,2.228,0,0,1-4.455,0h0Zm2.228-23.614a7.585,7.585,0,0,1,6.969,4.61,1.338,1.338,0,0,0-1.25,0,14.72,14.72,0,0,1-5.719,1.625,13.9,13.9,0,0,1-5.589-1.615,1.335,1.335,0,0,0-1.417.077A7.585,7.585,0,0,1,26.737,316.968ZM19.163,329.89s0,0,0-.007v-3.128l1.741-2.309a15.2,15.2,0,0,0,5.833,1.435,15.839,15.839,0,0,0,5.916-1.434l1.659,2.3v3.142a7.574,7.574,0,1,1-15.148,0Zm.445,12.029h2.414a4.9,4.9,0,0,0,9.428,0h2.415a2.23,2.23,0,0,1,2.228,2.228v2.228H17.38v-2.228A2.23,2.23,0,0,1,19.608,341.919Z" transform="translate(0 -259.048)" fill="#12263f"/>
      <path id="Trazado_156997" data-name="Trazado 156997" d="M75.537,49.453a1.337,1.337,0,1,0,2.673,0v-4.01h27.634v4.01a1.337,1.337,0,1,0,2.673,0v-4.01H136.13v4.01a1.337,1.337,0,0,0,2.673,0V44.106a1.337,1.337,0,0,0-1.337-1.337H108.517V40.1h11.128a1.337,1.337,0,0,0,1.337-1.337V31.633a4.907,4.907,0,0,0-4.894-4.9h-2.235v-1.6a10.225,10.225,0,0,0,3.564-7.758V11.113s0,0,0-.007A11.113,11.113,0,0,0,95.192,11.1a1.377,1.377,0,0,0,.006.15c0,.014,0,.028.006.041s.008.057.013.086.012.052.019.078.007.031.012.046.019.056.03.084c0,.012.009.025.014.037s.023.052.036.077.013.028.02.041.024.042.037.063.02.034.03.05.023.031.034.047.028.04.044.059l.03.034c.019.021.037.043.057.063l.028.026c.022.021.044.041.067.061l.036.028c.022.017.043.034.066.05s.047.03.072.044l.038.023a1.331,1.331,0,0,0,.131.062c.306.129.607.245.906.351v4.678s0,.009,0,.014a10.225,10.225,0,0,0,3.564,7.744v1.6H98.259a4.906,4.906,0,0,0-4.9,4.9v7.129A1.337,1.337,0,0,0,94.694,40.1h11.149v2.671H76.874a1.337,1.337,0,0,0-1.337,1.337s0,0,0,0ZM106.3,2.673a8.453,8.453,0,0,1,8.019,5.813c-1.7-.7-3.545.009-5.663.825-2.84,1.094-6.332,2.439-10.747.9A8.451,8.451,0,0,1,106.3,2.673ZM99.6,17.376s0,0,0-.007V13.4c4.122.68,7.447-.6,10.025-1.593,1.637-.631,3.05-1.175,3.767-.813.507.256.974,1.1,1.356,2.432v3.951a7.574,7.574,0,0,1-15.148,0Zm7.574,10.247a10.191,10.191,0,0,0,4.01-.818v.948l-1.043,2.087-2.369-1.185-.026-.011-.066-.029-.06-.023-.059-.019-.068-.019-.055-.012-.073-.013-.056-.006-.071-.006h-.127l-.068.006-.059.007-.07.013-.057.012-.066.019-.062.02-.058.023-.068.03-.025.011L104.2,29.84l-1.043-2.087v-.948A10.2,10.2,0,0,0,107.17,27.624Zm-8.911,1.782H101l1.413,2.825h0a1.34,1.34,0,0,0,.082.139c.006.009.01.019.016.027a1.323,1.323,0,0,0,.237.258l.017.015a1.332,1.332,0,0,0,.3.184l.01.005c.038.016.077.028.116.041.018.006.037.014.055.02l.038.008a1.242,1.242,0,0,0,.559.018c.022,0,.044-.006.066-.011a1.356,1.356,0,0,0,.137-.041l.012,0c.026-.009.052-.022.077-.033s.046-.018.068-.029h0l2.967-1.483,2.966,1.483a1.332,1.332,0,0,0,1.724-.481,1.3,1.3,0,0,0,.069-.116h0l1.413-2.825h2.738a2.23,2.23,0,0,1,2.228,2.228v5.792H107.236l-.055,0-.055,0H96.032V31.632A2.23,2.23,0,0,1,98.259,29.405Z" transform="translate(-50.137)" fill="#12263f"/>
      <path id="Trazado_156998" data-name="Trazado 156998" d="M209.335,340.364v-10.48h0v-3.548s0-.006,0-.009v-1.7c0-.015,0-.029,0-.044s0-.032,0-.048a10.187,10.187,0,0,0-1.873-5.894,1.312,1.312,0,0,0-.154-.217,10.244,10.244,0,0,0-18.467,6.111c0,.014,0,.027,0,.041s0,.034,0,.051v1.7s0,.008,0,.012v3.547s0,0,0,.007v10.472a4.893,4.893,0,0,0-1.782,3.777v3.565a1.337,1.337,0,0,0,1.337,1.337h21.386a1.337,1.337,0,0,0,1.337-1.337v-3.564A4.894,4.894,0,0,0,209.335,340.364Zm-19.6,3.777a2.23,2.23,0,0,1,2.228-2.228h2.414a4.9,4.9,0,0,0,9.428,0h2.415a2.23,2.23,0,0,1,2.228,2.228v2.228H189.732v-2.228Zm1.782-16.946,7.575-3.294,7.574,3.294v2.69a7.574,7.574,0,1,1-15.148,0s0,0,0-.007v-2.683Zm14.265-6.2a7.521,7.521,0,0,1,.877,3.286l-4.216-1.834Zm-8.918,19.586v-.692a10.182,10.182,0,0,0,4.455,0v.692h0a2.228,2.228,0,0,1-4.455,0Zm9.8-1.316c-.144-.013-.291-.021-.439-.021h-2.235v-.359a10.316,10.316,0,0,0,2.673-2.1Zm-7.574-22.3a7.54,7.54,0,0,1,4.967,1.864l-12.535,5.451A7.582,7.582,0,0,1,199.088,316.962Zm-7.574,19.817a10.31,10.31,0,0,0,2.673,2.1v.359H191.96c-.15,0-.3.008-.446.021Z" transform="translate(-142.056 -259.043)" fill="#12263f"/>
    </g>
  </g>
</svg>
