<svg xmlns="http://www.w3.org/2000/svg" width="157" height="157" viewBox="0 0 157 157">
  <g id="Grupo_108308" data-name="Grupo 108308" transform="translate(4791 7333)">
    <circle id="Elipse_4730" data-name="Elipse 4730" cx="78.5" cy="78.5" r="78.5" transform="translate(-4791 -7333)" fill="#fff"/>
    <g id="objetivo_1_" data-name="objetivo (1)" transform="translate(-4765 -7336.226)">
      <path id="Trazado_156999" data-name="Trazado 156999" d="M38.5,144.659a26.931,26.931,0,0,1,21.868-26.448v-23.2H7.5v70.134a1.029,1.029,0,0,0,1.028,1.028H49.238A26.881,26.881,0,0,1,38.5,144.659Z" transform="translate(-5.957 -45.899)" fill="#fff"/>
      <path id="Trazado_157000" data-name="Trazado 157000" d="M16.036,165.939V96.011H7.5v69.928a1.029,1.029,0,0,0,1.028,1.028h8.536A1.028,1.028,0,0,1,16.036,165.939Z" transform="translate(-5.957 -46.693)" fill="#f3f0f3"/>
      <g id="Grupo_107499" data-name="Grupo 107499" transform="translate(1.543 38.769)">
        <path id="Trazado_157001" data-name="Trazado 157001" d="M60.369,55.275H7.5V46.783a2.057,2.057,0,0,1,2.057-2.057H58.312a2.057,2.057,0,0,1,2.057,2.057Z" transform="translate(-7.5 -44.726)" fill="#b1e874"/>
      </g>
      <g id="Grupo_107500" data-name="Grupo 107500" transform="translate(1.543 38.769)">
        <path id="Trazado_157002" data-name="Trazado 157002" d="M18.093,44.726H9.557A2.057,2.057,0,0,0,7.5,46.783v8.492h8.536V46.783A2.057,2.057,0,0,1,18.093,44.726Z" transform="translate(-7.5 -44.726)" fill="#75b62f"/>
      </g>
      <g id="Grupo_107506" data-name="Grupo 107506" transform="translate(32.544 71.836)">
        <g id="Grupo_107501" data-name="Grupo 107501" transform="translate(57.723 21.676)">
          <path id="Trazado_157003" data-name="Trazado 157003" d="M451.319,310.865h-7.275a1.029,1.029,0,0,0-.763.339l-4.434,4.909,4.434,4.909a1.028,1.028,0,0,0,.763.339h7.275a1.028,1.028,0,0,0,.9-1.528l-2.068-3.72,2.068-3.72A1.028,1.028,0,0,0,451.319,310.865Z" transform="translate(-438.846 -310.865)" fill="#4752e3"/>
        </g>
        <g id="Grupo_107502" data-name="Grupo 107502" transform="translate(0 0)">
          <circle id="Elipse_5055" data-name="Elipse 5055" cx="26.924" cy="26.924" r="26.924" fill="#eaf6ff"/>
        </g>
        <path id="Trazado_157004" data-name="Trazado 157004" d="M165.716,239.022a25.417,25.417,0,0,0,22.457,25.212A27.012,27.012,0,0,1,173,249.906a21.085,21.085,0,0,1,0-21.768,27.011,27.011,0,0,1,15.172-14.327A25.417,25.417,0,0,0,165.716,239.022Z" transform="translate(-164.173 -212.099)" fill="#d8ecfe"/>
        <g id="Grupo_107503" data-name="Grupo 107503" transform="translate(7.343 7.343)">
          <circle id="Elipse_5056" data-name="Elipse 5056" cx="19.581" cy="19.581" r="19.581" fill="#ff642b"/>
        </g>
        <g id="Grupo_107504" data-name="Grupo 107504" transform="translate(14.686 14.686)">
          <circle id="Elipse_5057" data-name="Elipse 5057" cx="12.238" cy="12.238" r="12.238" fill="#eaf6ff"/>
        </g>
        <g id="Grupo_107505" data-name="Grupo 107505" transform="translate(22.029 22.029)">
          <circle id="Elipse_5058" data-name="Elipse 5058" cx="4.895" cy="4.895" r="4.895" fill="#f85316"/>
        </g>
      </g>
      <g id="Grupo_107507" data-name="Grupo 107507" transform="translate(0 37.226)">
        <path id="Trazado_157005" data-name="Trazado 157005" d="M50.6,124.81l-2.7,2.7-1.234-1.234a1.543,1.543,0,0,0-2.182,2.182l2.325,2.325a1.543,1.543,0,0,0,2.182,0l3.794-3.794A1.543,1.543,0,0,0,50.6,124.81Z" transform="translate(-34.972 -106.436)" fill="#12263f"/>
        <path id="Trazado_157006" data-name="Trazado 157006" d="M109.828,136.666h21.539a1.543,1.543,0,1,0,0-3.085H109.828a1.543,1.543,0,1,0,0,3.085Z" transform="translate(-86.012 -113.762)" fill="#12263f"/>
        <path id="Trazado_157007" data-name="Trazado 157007" d="M50.6,171.069l-2.7,2.7-1.234-1.234a1.543,1.543,0,0,0-2.182,2.182l2.325,2.325a1.543,1.543,0,0,0,2.182,0l3.794-3.794a1.543,1.543,0,0,0-2.182-2.182Z" transform="translate(-34.972 -143.18)" fill="#12263f"/>
        <path id="Trazado_157008" data-name="Trazado 157008" d="M109.828,182.924h21.539a1.543,1.543,0,1,0,0-3.085H109.828a1.543,1.543,0,1,0,0,3.085Z" transform="translate(-86.012 -150.505)" fill="#12263f"/>
        <path id="Trazado_157009" data-name="Trazado 157009" d="M50.6,217.328l-2.7,2.7L46.662,218.8a1.543,1.543,0,0,0-2.182,2.182l2.325,2.325a1.543,1.543,0,0,0,2.182,0l3.794-3.794a1.543,1.543,0,0,0-2.182-2.182Z" transform="translate(-34.972 -179.924)" fill="#12263f"/>
        <path id="Trazado_157010" data-name="Trazado 157010" d="M50.6,263.587l-2.7,2.7-1.234-1.234a1.543,1.543,0,0,0-2.182,2.182l2.325,2.325a1.543,1.543,0,0,0,2.182,0l3.794-3.794a1.543,1.543,0,0,0-2.182-2.182Z" transform="translate(-34.972 -216.668)" fill="#12263f"/>
        <path id="Trazado_157011" data-name="Trazado 157011" d="M50.6,309.847l-2.7,2.7-1.234-1.234A1.543,1.543,0,0,0,44.48,313.5l2.325,2.325a1.543,1.543,0,0,0,2.182,0l3.794-3.794a1.543,1.543,0,0,0-2.182-2.182Z" transform="translate(-34.972 -253.412)" fill="#12263f"/>
        <path id="Trazado_157012" data-name="Trazado 157012" d="M50.6,356.106l-2.7,2.7-1.234-1.234a1.543,1.543,0,0,0-2.182,2.182l2.325,2.325a1.543,1.543,0,0,0,2.182,0l3.794-3.794a1.543,1.543,0,0,0-2.182-2.182Z" transform="translate(-34.972 -290.156)" fill="#12263f"/>
        <path id="Trazado_157013" data-name="Trazado 157013" d="M103.335,98.76l1.651-2.97a2.571,2.571,0,0,0-2.247-3.821H95.464a2.575,2.575,0,0,0-1.908.848l-3.975,4.4h-1.69A28.473,28.473,0,0,0,55.954,70.51V40.826a3.6,3.6,0,0,0-3.6-3.6H3.6a3.6,3.6,0,0,0-3.6,3.6v78.42a2.574,2.574,0,0,0,2.571,2.571H14.193a1.543,1.543,0,1,0,0-3.085H3.085V50.86h35.79a1.543,1.543,0,0,0,0-3.085H3.085V40.826a.515.515,0,0,1,.514-.514H52.354a.515.515,0,0,1,.514.514v6.949H46.075a1.543,1.543,0,1,0,0,3.085h6.794V71.067A28.366,28.366,0,0,0,42.29,76.076H23.816a1.543,1.543,0,0,0,0,3.085H38.841a28.608,28.608,0,0,0-4.6,6.43H23.816a1.543,1.543,0,0,0,0,3.085h9.032a28.225,28.225,0,0,0-1.613,6.43H23.816a1.543,1.543,0,1,0,0,3.085h7.192c0,.189-.007.378-.007.568a28.478,28.478,0,0,0,.608,5.861H23.816a1.543,1.543,0,0,0,0,3.085h8.627A28.511,28.511,0,0,0,39.2,118.732H21.392a1.543,1.543,0,0,0,0,3.085h21.4a28.45,28.45,0,0,0,45.1-21.515h1.69l3.975,4.4a2.575,2.575,0,0,0,1.908.847h7.276a2.571,2.571,0,0,0,2.247-3.821ZM74.151,88.295a17.874,17.874,0,0,1,3.288,8.922H73.16a13.781,13.781,0,1,0,0,3.085h4.279A18.054,18.054,0,1,1,69.37,83.691a1.543,1.543,0,1,0,1.7-2.575A21.118,21.118,0,1,0,80.535,100.3H84.8a25.381,25.381,0,1,1,0-3.085H80.534A20.942,20.942,0,0,0,76.662,86.5a1.543,1.543,0,0,0-2.51,1.794ZM59.468,100.3h2.973a3.353,3.353,0,1,1,0-3.085H59.468a1.543,1.543,0,1,0,0,3.085Zm0-7.981a6.438,6.438,0,1,0,6.25,7.981H70.05a10.7,10.7,0,1,1,0-3.085H65.717A6.449,6.449,0,0,0,59.468,92.322Zm40.754,7.187,1.643,2.956H95.693L93.739,100.3h2.443a1.543,1.543,0,1,0,0-3.085H93.739l1.954-2.163h6.173l-1.643,2.956A1.542,1.542,0,0,0,100.222,99.509Z" transform="translate(0 -37.226)" fill="#12263f"/>
      </g>
    </g>
  </g>
</svg>
