<svg xmlns="http://www.w3.org/2000/svg" xmlns:xlink="http://www.w3.org/1999/xlink" width="400" height="320" viewBox="0 0 400 320">
  <defs>
    <linearGradient id="linear-gradient" x1="0.156" y1="0.147" x2="0.841" y2="0.85" gradientUnits="objectBoundingBox">
      <stop offset="0" stop-color="#fff"/>
      <stop offset="0.399" stop-color="#fcfcfc"/>
      <stop offset="0.619" stop-color="#f4f4f4"/>
      <stop offset="0.796" stop-color="#e6e7e7"/>
      <stop offset="0.948" stop-color="#d3d5d5"/>
      <stop offset="1" stop-color="#cbcdcd"/>
    </linearGradient>
    <linearGradient id="linear-gradient-2" x1="0.711" y1="0.833" x2="0.089" y2="0.124" xlink:href="#linear-gradient"/>
    <linearGradient id="linear-gradient-4" x1="0.714" y1="0.83" x2="0.092" y2="0.12" xlink:href="#linear-gradient"/>
    <linearGradient id="linear-gradient-6" x1="0.714" y1="0.837" x2="0.092" y2="0.127" xlink:href="#linear-gradient"/>
    <linearGradient id="linear-gradient-8" x1="0.718" y1="0.836" x2="0.096" y2="0.126" xlink:href="#linear-gradient"/>
    <linearGradient id="linear-gradient-10" x1="0.718" y1="0.831" x2="0.096" y2="0.121" xlink:href="#linear-gradient"/>
  </defs>
  <g id="Grupo_107412" data-name="Grupo 107412" transform="translate(-600 -1627)">
    <rect id="Rect치ngulo_36773" data-name="Rect치ngulo 36773" width="400" height="320" transform="translate(600 1627)" fill="none"/>
    <g id="Grupo_107411" data-name="Grupo 107411" transform="translate(-84.665 1438.697)">
      <rect id="Rect치ngulo_37000" data-name="Rect치ngulo 37000" width="138" height="58" rx="7.821" transform="translate(814.131 330.638)" fill="#fff" stroke="#75b62f" stroke-miterlimit="11" stroke-width="1.5"/>
      <g id="Grupo_107402" data-name="Grupo 107402">
        <g id="Grupo_107401" data-name="Grupo 107401" opacity="0.85" style="mix-blend-mode: multiply;isolation: isolate">
          <circle id="Elipse_4761" data-name="Elipse 4761" cx="46.941" cy="46.941" r="46.941" transform="translate(842.249 195.757)" fill="#fff"/>
          <circle id="Elipse_4762" data-name="Elipse 4762" cx="46.941" cy="46.941" r="46.941" transform="translate(842.121 195.631)" fill="#fdfdfd"/>
          <circle id="Elipse_4763" data-name="Elipse 4763" cx="46.941" cy="46.941" r="46.941" transform="translate(841.994 195.506)" fill="#fafafa"/>
          <circle id="Elipse_4764" data-name="Elipse 4764" cx="46.941" cy="46.941" r="46.941" transform="translate(841.866 195.38)" fill="#f8f8f8"/>
          <circle id="Elipse_4765" data-name="Elipse 4765" cx="46.941" cy="46.941" r="46.941" transform="translate(841.738 195.255)" fill="#f6f6f6"/>
          <circle id="Elipse_4766" data-name="Elipse 4766" cx="46.941" cy="46.941" r="46.941" transform="translate(841.61 195.13)" fill="#f3f3f4"/>
          <circle id="Elipse_4767" data-name="Elipse 4767" cx="46.941" cy="46.941" r="46.941" transform="translate(841.482 195.004)" fill="#f1f1f1"/>
          <circle id="Elipse_4768" data-name="Elipse 4768" cx="46.941" cy="46.941" r="46.941" transform="translate(841.354 194.879)" fill="#efefef"/>
          <circle id="Elipse_4769" data-name="Elipse 4769" cx="46.941" cy="46.941" r="46.941" transform="translate(841.226 194.754)" fill="#ececed"/>
          <circle id="Elipse_4770" data-name="Elipse 4770" cx="46.941" cy="46.941" r="46.941" transform="translate(841.098 194.628)" fill="#eaeaea"/>
          <circle id="Elipse_4771" data-name="Elipse 4771" cx="46.941" cy="46.941" r="46.941" transform="translate(840.97 194.503)" fill="#e7e8e8"/>
          <circle id="Elipse_4772" data-name="Elipse 4772" cx="46.941" cy="46.941" r="46.941" transform="translate(840.842 194.378)" fill="#e5e5e6"/>
          <circle id="Elipse_4773" data-name="Elipse 4773" cx="46.941" cy="46.941" r="46.941" transform="translate(840.715 194.252)" fill="#e3e3e3"/>
          <circle id="Elipse_4774" data-name="Elipse 4774" cx="46.941" cy="46.941" r="46.941" transform="translate(840.587 194.127)" fill="#e0e1e1"/>
          <circle id="Elipse_4775" data-name="Elipse 4775" cx="46.941" cy="46.941" r="46.941" transform="translate(840.459 194.002)" fill="#dededf"/>
          <circle id="Elipse_4776" data-name="Elipse 4776" cx="46.941" cy="46.941" r="46.941" transform="translate(840.331 193.876)" fill="#dcdcdd"/>
          <circle id="Elipse_4777" data-name="Elipse 4777" cx="46.941" cy="46.941" r="46.941" transform="translate(840.203 193.751)" fill="#d9dada"/>
          <circle id="Elipse_4778" data-name="Elipse 4778" cx="46.941" cy="46.941" r="46.941" transform="translate(840.075 193.626)" fill="#d7d7d8"/>
          <circle id="Elipse_4779" data-name="Elipse 4779" cx="46.941" cy="46.941" r="46.941" transform="translate(839.947 193.5)" fill="#d5d5d6"/>
          <circle id="Elipse_4780" data-name="Elipse 4780" cx="46.941" cy="46.941" r="46.941" transform="translate(839.819 193.375)" fill="#d2d3d3"/>
          <circle id="Elipse_4781" data-name="Elipse 4781" cx="46.941" cy="46.941" r="46.941" transform="translate(839.691 193.25)" fill="#d0d0d1"/>
          <circle id="Elipse_4782" data-name="Elipse 4782" cx="46.941" cy="46.941" r="46.941" transform="translate(839.564 193.124)" fill="#cececf"/>
          <circle id="Elipse_4783" data-name="Elipse 4783" cx="46.941" cy="46.941" r="46.941" transform="translate(839.436 192.999)" fill="#cbcccd"/>
          <circle id="Elipse_4784" data-name="Elipse 4784" cx="46.941" cy="46.941" r="46.941" transform="translate(839.308 192.874)" fill="#c9c9ca"/>
          <circle id="Elipse_4785" data-name="Elipse 4785" cx="46.941" cy="46.941" r="46.941" transform="translate(839.18 192.748)" fill="#c7c7c8"/>
          <circle id="Elipse_4786" data-name="Elipse 4786" cx="46.941" cy="46.941" r="46.941" transform="translate(839.052 192.623)" fill="#c4c5c6"/>
          <circle id="Elipse_4787" data-name="Elipse 4787" cx="46.941" cy="46.941" r="46.941" transform="translate(838.924 192.498)" fill="#c2c2c3"/>
          <circle id="Elipse_4788" data-name="Elipse 4788" cx="46.941" cy="46.941" r="46.941" transform="translate(838.796 192.372)" fill="#bfc0c1"/>
          <circle id="Elipse_4789" data-name="Elipse 4789" cx="46.941" cy="46.941" r="46.941" transform="translate(838.668 192.247)" fill="#bdbebf"/>
          <circle id="Elipse_4790" data-name="Elipse 4790" cx="46.941" cy="46.941" r="46.941" transform="translate(838.54 192.121)" fill="#bbbbbc"/>
          <circle id="Elipse_4791" data-name="Elipse 4791" cx="46.941" cy="46.941" r="46.941" transform="translate(838.412 191.996)" fill="#b8b9ba"/>
          <circle id="Elipse_4792" data-name="Elipse 4792" cx="46.941" cy="46.941" r="46.941" transform="translate(838.285 191.871)" fill="#b6b7b8"/>
          <circle id="Elipse_4793" data-name="Elipse 4793" cx="46.941" cy="46.941" r="46.941" transform="translate(838.157 191.745)" fill="#b4b4b6"/>
          <circle id="Elipse_4794" data-name="Elipse 4794" cx="46.941" cy="46.941" r="46.941" transform="translate(838.029 191.62)" fill="#b1b2b3"/>
          <circle id="Elipse_4795" data-name="Elipse 4795" cx="46.941" cy="46.941" r="46.941" transform="translate(837.901 191.495)" fill="#afb0b1"/>
          <circle id="Elipse_4796" data-name="Elipse 4796" cx="46.941" cy="46.941" r="46.941" transform="translate(837.773 191.369)" fill="#adadaf"/>
          <circle id="Elipse_4797" data-name="Elipse 4797" cx="46.941" cy="46.941" r="46.941" transform="translate(837.645 191.244)" fill="#aaabac"/>
          <circle id="Elipse_4798" data-name="Elipse 4798" cx="46.941" cy="46.941" r="46.941" transform="translate(837.517 191.119)" fill="#a8a9aa"/>
          <circle id="Elipse_4799" data-name="Elipse 4799" cx="46.941" cy="46.941" r="46.941" transform="translate(837.389 190.993)" fill="#a6a6a8"/>
          <circle id="Elipse_4800" data-name="Elipse 4800" cx="46.941" cy="46.941" r="46.941" transform="translate(837.261 190.868)" fill="#a3a4a6"/>
          <circle id="Elipse_4801" data-name="Elipse 4801" cx="46.941" cy="46.941" r="46.941" transform="translate(837.133 190.743)" fill="#a1a2a3"/>
          <circle id="Elipse_4802" data-name="Elipse 4802" cx="46.941" cy="46.941" r="46.941" transform="translate(837.006 190.617)" fill="#9f9fa1"/>
          <circle id="Elipse_4803" data-name="Elipse 4803" cx="46.941" cy="46.941" r="46.941" transform="translate(836.878 190.492)" fill="#9c9d9f"/>
          <circle id="Elipse_4804" data-name="Elipse 4804" cx="46.941" cy="46.941" r="46.941" transform="translate(836.75 190.367)" fill="#9a9b9c"/>
          <circle id="Elipse_4805" data-name="Elipse 4805" cx="46.941" cy="46.941" r="46.941" transform="translate(836.622 190.241)" fill="#97989a"/>
          <circle id="Elipse_4806" data-name="Elipse 4806" cx="46.941" cy="46.941" r="46.941" transform="translate(836.494 190.116)" fill="#959698"/>
          <circle id="Elipse_4807" data-name="Elipse 4807" cx="46.941" cy="46.941" r="46.941" transform="translate(836.366 189.991)" fill="#939495"/>
          <circle id="Elipse_4808" data-name="Elipse 4808" cx="46.941" cy="46.941" r="46.941" transform="translate(836.238 189.865)" fill="#909193"/>
          <circle id="Elipse_4809" data-name="Elipse 4809" cx="46.941" cy="46.941" r="46.941" transform="translate(836.11 189.74)" fill="#8e8f91"/>
          <circle id="Elipse_4810" data-name="Elipse 4810" cx="46.941" cy="46.941" r="46.941" transform="translate(835.982 189.615)" fill="#8c8d8f"/>
          <circle id="Elipse_4811" data-name="Elipse 4811" cx="46.941" cy="46.941" r="46.941" transform="translate(835.854 189.489)" fill="#898a8c"/>
          <circle id="Elipse_4812" data-name="Elipse 4812" cx="46.941" cy="46.941" r="46.941" transform="translate(835.727 189.364)" fill="#87888a"/>
        </g>
        <circle id="Elipse_4813" data-name="Elipse 4813" cx="48.002" cy="48.002" r="48.002" transform="translate(834.665 188.303)" fill="#75b62f"/>
        <circle id="Elipse_4814" data-name="Elipse 4814" cx="41.706" cy="41.706" r="41.706" transform="translate(840.962 194.599)" fill="url(#linear-gradient)"/>
        <circle id="Elipse_4815" data-name="Elipse 4815" cx="39.336" cy="39.336" r="39.336" transform="translate(843.332 196.969)" fill="url(#linear-gradient-2)"/>
        <path id="Trazado_156542" data-name="Trazado 156542" d="M-24.382-3.831V0H-26.47V-10.664h3.706a3.362,3.362,0,0,1,2.52.944,3.386,3.386,0,0,1,.923,2.473,3.376,3.376,0,0,1-.927,2.477,3.372,3.372,0,0,1-2.516.94Zm0-1.663h1.619a1.174,1.174,0,0,0,1.018-.492,2.093,2.093,0,0,0,.352-1.248A2.174,2.174,0,0,0-21.742-8.5,1.163,1.163,0,0,0-22.764-9h-1.619Zm9.25,5.647A3.026,3.026,0,0,1-17.5-.828,3.572,3.572,0,0,1-18.384-3.3V-4.417a4.09,4.09,0,0,1,.817-2.629,2.729,2.729,0,0,1,2.26-1.025,2.626,2.626,0,0,1,2.153.93,3.884,3.884,0,0,1,.762,2.534v1.274h-3.918V-3.3a2.19,2.19,0,0,0,.355,1.289,1.224,1.224,0,0,0,1.073.505,2.864,2.864,0,0,0,.952-.132,5.009,5.009,0,0,0,.872-.439l.527,1.326A3.142,3.142,0,0,1-13.627-.1,4.262,4.262,0,0,1-15.132.154Zm-.176-6.562a.773.773,0,0,0-.732.456A2.959,2.959,0,0,0-16.3-4.724h1.868v-.294a2.113,2.113,0,0,0-.205-1.026A.707.707,0,0,0-15.308-6.409Zm7.705.381-.784-.022a.888.888,0,0,0-.546.161,1.024,1.024,0,0,0-.333.454V0h-2.08V-7.925H-9.4l.081,1.062.037.015a2.161,2.161,0,0,1,.531-.9,1.113,1.113,0,0,1,.795-.326,1.85,1.85,0,0,1,.3.026,2.015,2.015,0,0,1,.275.062Zm4.5,3.955a.769.769,0,0,0-.264-.582,4.438,4.438,0,0,0-1.011-.6A5.329,5.329,0,0,1-6.163-4.27a1.924,1.924,0,0,1-.6-1.465,2.139,2.139,0,0,1,.765-1.652A2.923,2.923,0,0,1-3.97-8.071a3.03,3.03,0,0,1,2.1.7,2.218,2.218,0,0,1,.754,1.794l-.022.044H-3.142a1.357,1.357,0,0,0-.205-.791.716.716,0,0,0-.63-.293.79.79,0,0,0-.571.227.737.737,0,0,0-.234.549.736.736,0,0,0,.234.568,4.721,4.721,0,0,0,1.018.59A4.936,4.936,0,0,1-1.685-3.673a2.031,2.031,0,0,1,.6,1.527A2.026,2.026,0,0,1-1.89-.491,3.287,3.287,0,0,1-4.006.154a2.929,2.929,0,0,1-2.168-.8,2.357,2.357,0,0,1-.762-1.8l.015-.044h1.9a1.293,1.293,0,0,0,.293.908,1.039,1.039,0,0,0,.769.278.9.9,0,0,0,.637-.205A.734.734,0,0,0-3.1-2.073ZM-.293-4.446A3.94,3.94,0,0,1,.553-7.057,2.915,2.915,0,0,1,2.922-8.071,2.926,2.926,0,0,1,5.3-7.057a3.929,3.929,0,0,1,.85,2.611v.981A3.908,3.908,0,0,1,5.3-.85a2.932,2.932,0,0,1-2.366,1,2.938,2.938,0,0,1-2.377-1A3.919,3.919,0,0,1-.293-3.464Zm2.073.978A3.308,3.308,0,0,0,2.036-2.03a.913.913,0,0,0,.894.521A.9.9,0,0,0,3.8-2.033a3.272,3.272,0,0,0,.26-1.434V-4.45A3.28,3.28,0,0,0,3.8-5.877a.906.906,0,0,0-.883-.532.906.906,0,0,0-.883.535A3.285,3.285,0,0,0,1.78-4.45ZM9.148-7.925l.088,1.091a2.641,2.641,0,0,1,.809-.912A1.843,1.843,0,0,1,11.1-8.071a1.835,1.835,0,0,1,1.556.762,4.034,4.034,0,0,1,.568,2.4V0H11.14V-4.92a2.125,2.125,0,0,0-.231-1.155.808.808,0,0,0-.714-.334.948.948,0,0,0-.513.147,1.25,1.25,0,0,0-.4.4V0H7.207V-7.925ZM18.391,0a3.556,3.556,0,0,1-.157-.432,3.528,3.528,0,0,1-.106-.476,2.477,2.477,0,0,1-.714.773,1.685,1.685,0,0,1-.978.289,2.026,2.026,0,0,1-1.571-.645,2.451,2.451,0,0,1-.59-1.721,2.256,2.256,0,0,1,.751-1.809,3.344,3.344,0,0,1,2.23-.645h.784V-5.31a1.593,1.593,0,0,0-.209-.89.7.7,0,0,0-.626-.311.6.6,0,0,0-.527.249,1.252,1.252,0,0,0-.176.725l-2.014-.007-.022-.044a2.172,2.172,0,0,1,.765-1.758,3.03,3.03,0,0,1,2.113-.725,2.828,2.828,0,0,1,2.01.721A2.673,2.673,0,0,1,20.127-5.3v3.208A6.942,6.942,0,0,0,20.208-1a5.946,5.946,0,0,0,.249,1ZM17.036-1.414a1.071,1.071,0,0,0,.582-.168,1.25,1.25,0,0,0,.421-.432V-3.472h-.784a.758.758,0,0,0-.688.33,1.514,1.514,0,0,0-.212.835,1.061,1.061,0,0,0,.183.645A.586.586,0,0,0,17.036-1.414ZM24.9-2.073a.769.769,0,0,0-.264-.582,4.438,4.438,0,0,0-1.011-.6A5.329,5.329,0,0,1,21.83-4.27a1.924,1.924,0,0,1-.6-1.465A2.139,2.139,0,0,1,22-7.386a2.923,2.923,0,0,1,2.025-.685,3.03,3.03,0,0,1,2.1.7,2.218,2.218,0,0,1,.754,1.794l-.022.044H24.851a1.357,1.357,0,0,0-.205-.791.716.716,0,0,0-.63-.293.79.79,0,0,0-.571.227.737.737,0,0,0-.234.549.736.736,0,0,0,.234.568,4.721,4.721,0,0,0,1.018.59,4.936,4.936,0,0,1,1.846,1.007,2.031,2.031,0,0,1,.6,1.527A2.026,2.026,0,0,1,26.1-.491a3.287,3.287,0,0,1-2.117.645,2.929,2.929,0,0,1-2.168-.8,2.357,2.357,0,0,1-.762-1.8l.015-.044h1.9a1.293,1.293,0,0,0,.293.908,1.039,1.039,0,0,0,.769.278.9.9,0,0,0,.637-.205A.734.734,0,0,0,24.9-2.073Z" transform="translate(882.667 240.688)" fill="#12263f"/>
      </g>
      <g id="Grupo_107404" data-name="Grupo 107404">
        <g id="Grupo_107403" data-name="Grupo 107403" opacity="0.85" style="mix-blend-mode: multiply;isolation: isolate">
          <circle id="Elipse_4816" data-name="Elipse 4816" cx="46.941" cy="46.941" r="46.941" transform="translate(957.249 277.757)" fill="#fff"/>
          <circle id="Elipse_4817" data-name="Elipse 4817" cx="46.941" cy="46.941" r="46.941" transform="translate(957.121 277.631)" fill="#fdfdfd"/>
          <circle id="Elipse_4818" data-name="Elipse 4818" cx="46.941" cy="46.941" r="46.941" transform="translate(956.994 277.506)" fill="#fafafa"/>
          <circle id="Elipse_4819" data-name="Elipse 4819" cx="46.941" cy="46.941" r="46.941" transform="translate(956.866 277.38)" fill="#f8f8f8"/>
          <circle id="Elipse_4820" data-name="Elipse 4820" cx="46.941" cy="46.941" r="46.941" transform="translate(956.738 277.255)" fill="#f6f6f6"/>
          <circle id="Elipse_4821" data-name="Elipse 4821" cx="46.941" cy="46.941" r="46.941" transform="translate(956.61 277.13)" fill="#f3f3f4"/>
          <circle id="Elipse_4822" data-name="Elipse 4822" cx="46.941" cy="46.941" r="46.941" transform="translate(956.482 277.004)" fill="#f1f1f1"/>
          <circle id="Elipse_4823" data-name="Elipse 4823" cx="46.941" cy="46.941" r="46.941" transform="translate(956.354 276.879)" fill="#efefef"/>
          <circle id="Elipse_4824" data-name="Elipse 4824" cx="46.941" cy="46.941" r="46.941" transform="translate(956.226 276.754)" fill="#ececed"/>
          <circle id="Elipse_4825" data-name="Elipse 4825" cx="46.941" cy="46.941" r="46.941" transform="translate(956.098 276.628)" fill="#eaeaea"/>
          <circle id="Elipse_4826" data-name="Elipse 4826" cx="46.941" cy="46.941" r="46.941" transform="translate(955.97 276.503)" fill="#e7e8e8"/>
          <circle id="Elipse_4827" data-name="Elipse 4827" cx="46.941" cy="46.941" r="46.941" transform="translate(955.842 276.378)" fill="#e5e5e6"/>
          <circle id="Elipse_4828" data-name="Elipse 4828" cx="46.941" cy="46.941" r="46.941" transform="translate(955.715 276.252)" fill="#e3e3e3"/>
          <circle id="Elipse_4829" data-name="Elipse 4829" cx="46.941" cy="46.941" r="46.941" transform="translate(955.587 276.127)" fill="#e0e1e1"/>
          <circle id="Elipse_4830" data-name="Elipse 4830" cx="46.941" cy="46.941" r="46.941" transform="translate(955.459 276.002)" fill="#dededf"/>
          <circle id="Elipse_4831" data-name="Elipse 4831" cx="46.941" cy="46.941" r="46.941" transform="translate(955.331 275.876)" fill="#dcdcdd"/>
          <circle id="Elipse_4832" data-name="Elipse 4832" cx="46.941" cy="46.941" r="46.941" transform="translate(955.203 275.751)" fill="#d9dada"/>
          <circle id="Elipse_4833" data-name="Elipse 4833" cx="46.941" cy="46.941" r="46.941" transform="translate(955.075 275.626)" fill="#d7d7d8"/>
          <circle id="Elipse_4834" data-name="Elipse 4834" cx="46.941" cy="46.941" r="46.941" transform="translate(954.947 275.5)" fill="#d5d5d6"/>
          <circle id="Elipse_4835" data-name="Elipse 4835" cx="46.941" cy="46.941" r="46.941" transform="translate(954.819 275.375)" fill="#d2d3d3"/>
          <circle id="Elipse_4836" data-name="Elipse 4836" cx="46.941" cy="46.941" r="46.941" transform="translate(954.691 275.25)" fill="#d0d0d1"/>
          <circle id="Elipse_4837" data-name="Elipse 4837" cx="46.941" cy="46.941" r="46.941" transform="translate(954.564 275.124)" fill="#cececf"/>
          <circle id="Elipse_4838" data-name="Elipse 4838" cx="46.941" cy="46.941" r="46.941" transform="translate(954.436 274.999)" fill="#cbcccd"/>
          <circle id="Elipse_4839" data-name="Elipse 4839" cx="46.941" cy="46.941" r="46.941" transform="translate(954.308 274.874)" fill="#c9c9ca"/>
          <circle id="Elipse_4840" data-name="Elipse 4840" cx="46.941" cy="46.941" r="46.941" transform="translate(954.18 274.748)" fill="#c7c7c8"/>
          <circle id="Elipse_4841" data-name="Elipse 4841" cx="46.941" cy="46.941" r="46.941" transform="translate(954.052 274.623)" fill="#c4c5c6"/>
          <circle id="Elipse_4842" data-name="Elipse 4842" cx="46.941" cy="46.941" r="46.941" transform="translate(953.924 274.498)" fill="#c2c2c3"/>
          <circle id="Elipse_4843" data-name="Elipse 4843" cx="46.941" cy="46.941" r="46.941" transform="translate(953.796 274.372)" fill="#bfc0c1"/>
          <circle id="Elipse_4844" data-name="Elipse 4844" cx="46.941" cy="46.941" r="46.941" transform="translate(953.668 274.247)" fill="#bdbebf"/>
          <circle id="Elipse_4845" data-name="Elipse 4845" cx="46.941" cy="46.941" r="46.941" transform="translate(953.54 274.121)" fill="#bbbbbc"/>
          <circle id="Elipse_4846" data-name="Elipse 4846" cx="46.941" cy="46.941" r="46.941" transform="translate(953.412 273.996)" fill="#b8b9ba"/>
          <circle id="Elipse_4847" data-name="Elipse 4847" cx="46.941" cy="46.941" r="46.941" transform="translate(953.285 273.871)" fill="#b6b7b8"/>
          <circle id="Elipse_4848" data-name="Elipse 4848" cx="46.941" cy="46.941" r="46.941" transform="translate(953.157 273.745)" fill="#b4b4b6"/>
          <circle id="Elipse_4849" data-name="Elipse 4849" cx="46.941" cy="46.941" r="46.941" transform="translate(953.029 273.62)" fill="#b1b2b3"/>
          <circle id="Elipse_4850" data-name="Elipse 4850" cx="46.941" cy="46.941" r="46.941" transform="translate(952.901 273.495)" fill="#afb0b1"/>
          <circle id="Elipse_4851" data-name="Elipse 4851" cx="46.941" cy="46.941" r="46.941" transform="translate(952.773 273.369)" fill="#adadaf"/>
          <circle id="Elipse_4852" data-name="Elipse 4852" cx="46.941" cy="46.941" r="46.941" transform="translate(952.645 273.244)" fill="#aaabac"/>
          <circle id="Elipse_4853" data-name="Elipse 4853" cx="46.941" cy="46.941" r="46.941" transform="translate(952.517 273.119)" fill="#a8a9aa"/>
          <circle id="Elipse_4854" data-name="Elipse 4854" cx="46.941" cy="46.941" r="46.941" transform="translate(952.389 272.993)" fill="#a6a6a8"/>
          <circle id="Elipse_4855" data-name="Elipse 4855" cx="46.941" cy="46.941" r="46.941" transform="translate(952.261 272.868)" fill="#a3a4a6"/>
          <circle id="Elipse_4856" data-name="Elipse 4856" cx="46.941" cy="46.941" r="46.941" transform="translate(952.133 272.743)" fill="#a1a2a3"/>
          <circle id="Elipse_4857" data-name="Elipse 4857" cx="46.941" cy="46.941" r="46.941" transform="translate(952.006 272.617)" fill="#9f9fa1"/>
          <circle id="Elipse_4858" data-name="Elipse 4858" cx="46.941" cy="46.941" r="46.941" transform="translate(951.878 272.492)" fill="#9c9d9f"/>
          <circle id="Elipse_4859" data-name="Elipse 4859" cx="46.941" cy="46.941" r="46.941" transform="translate(951.75 272.367)" fill="#9a9b9c"/>
          <circle id="Elipse_4860" data-name="Elipse 4860" cx="46.941" cy="46.941" r="46.941" transform="translate(951.622 272.241)" fill="#97989a"/>
          <circle id="Elipse_4861" data-name="Elipse 4861" cx="46.941" cy="46.941" r="46.941" transform="translate(951.494 272.116)" fill="#959698"/>
          <circle id="Elipse_4862" data-name="Elipse 4862" cx="46.941" cy="46.941" r="46.941" transform="translate(951.366 271.991)" fill="#939495"/>
          <circle id="Elipse_4863" data-name="Elipse 4863" cx="46.941" cy="46.941" r="46.941" transform="translate(951.238 271.865)" fill="#909193"/>
          <circle id="Elipse_4864" data-name="Elipse 4864" cx="46.941" cy="46.941" r="46.941" transform="translate(951.11 271.74)" fill="#8e8f91"/>
          <circle id="Elipse_4865" data-name="Elipse 4865" cx="46.941" cy="46.941" r="46.941" transform="translate(950.982 271.615)" fill="#8c8d8f"/>
          <circle id="Elipse_4866" data-name="Elipse 4866" cx="46.941" cy="46.941" r="46.941" transform="translate(950.854 271.489)" fill="#898a8c"/>
          <circle id="Elipse_4867" data-name="Elipse 4867" cx="46.941" cy="46.941" r="46.941" transform="translate(950.727 271.364)" fill="#87888a"/>
        </g>
        <circle id="Elipse_4868" data-name="Elipse 4868" cx="48.002" cy="48.002" r="48.002" transform="translate(949.665 270.303)" fill="#75b62f"/>
        <circle id="Elipse_4869" data-name="Elipse 4869" cx="41.706" cy="41.706" r="41.706" transform="translate(955.962 276.599)" fill="url(#linear-gradient)"/>
        <circle id="Elipse_4870" data-name="Elipse 4870" cx="39.336" cy="39.336" r="39.336" transform="translate(958.332 278.969)" fill="url(#linear-gradient-4)"/>
        <path id="Trazado_156543" data-name="Trazado 156543" d="M-12.074-9h-2.4V0h-2.08V-9h-2.388v-1.663h6.87Zm3.9,9a3.556,3.556,0,0,1-.157-.432,3.528,3.528,0,0,1-.106-.476,2.477,2.477,0,0,1-.714.773,1.685,1.685,0,0,1-.978.289A2.026,2.026,0,0,1-11.7-.491a2.451,2.451,0,0,1-.59-1.721,2.256,2.256,0,0,1,.751-1.809,3.344,3.344,0,0,1,2.23-.645h.784V-5.31A1.593,1.593,0,0,0-8.73-6.2a.7.7,0,0,0-.626-.311.6.6,0,0,0-.527.249,1.252,1.252,0,0,0-.176.725l-2.014-.007-.022-.044a2.172,2.172,0,0,1,.765-1.758,3.03,3.03,0,0,1,2.113-.725,2.828,2.828,0,0,1,2.01.721A2.673,2.673,0,0,1-6.434-5.3v3.208A6.942,6.942,0,0,0-6.354-1,5.946,5.946,0,0,0-6.1,0ZM-9.525-1.414a1.071,1.071,0,0,0,.582-.168,1.25,1.25,0,0,0,.421-.432V-3.472h-.784a.758.758,0,0,0-.688.33,1.514,1.514,0,0,0-.212.835,1.061,1.061,0,0,0,.183.645A.586.586,0,0,0-9.525-1.414Zm8.152-4.614-.784-.022a.888.888,0,0,0-.546.161,1.024,1.024,0,0,0-.333.454V0h-2.08V-7.925h1.941l.081,1.062.037.015a2.161,2.161,0,0,1,.531-.9,1.113,1.113,0,0,1,.795-.326,1.85,1.85,0,0,1,.3.026,2.015,2.015,0,0,1,.275.062Zm4,6.182A3.026,3.026,0,0,1,.253-.828,3.572,3.572,0,0,1-.626-3.3V-4.417A4.09,4.09,0,0,1,.19-7.046,2.729,2.729,0,0,1,2.45-8.071a2.626,2.626,0,0,1,2.153.93,3.884,3.884,0,0,1,.762,2.534v1.274H1.447V-3.3A2.19,2.19,0,0,0,1.8-2.014a1.224,1.224,0,0,0,1.073.505,2.864,2.864,0,0,0,.952-.132A5.009,5.009,0,0,0,4.7-2.08L5.226-.754A3.142,3.142,0,0,1,4.131-.1,4.262,4.262,0,0,1,2.626.154ZM2.45-6.409a.773.773,0,0,0-.732.456,2.959,2.959,0,0,0-.264,1.228H3.322v-.294a2.113,2.113,0,0,0-.205-1.026A.707.707,0,0,0,2.45-6.409ZM10.272,0a3.556,3.556,0,0,1-.157-.432,3.528,3.528,0,0,1-.106-.476,2.477,2.477,0,0,1-.714.773,1.685,1.685,0,0,1-.978.289A2.026,2.026,0,0,1,6.746-.491a2.451,2.451,0,0,1-.59-1.721,2.256,2.256,0,0,1,.751-1.809,3.344,3.344,0,0,1,2.23-.645h.784V-5.31a1.593,1.593,0,0,0-.209-.89.7.7,0,0,0-.626-.311.6.6,0,0,0-.527.249,1.252,1.252,0,0,0-.176.725L6.368-5.544l-.022-.044a2.172,2.172,0,0,1,.765-1.758,3.03,3.03,0,0,1,2.113-.725,2.828,2.828,0,0,1,2.01.721A2.673,2.673,0,0,1,12.008-5.3v3.208A6.942,6.942,0,0,0,12.089-1a5.946,5.946,0,0,0,.249,1ZM8.917-1.414A1.071,1.071,0,0,0,9.5-1.582a1.25,1.25,0,0,0,.421-.432V-3.472H9.137a.758.758,0,0,0-.688.33,1.514,1.514,0,0,0-.212.835,1.061,1.061,0,0,0,.183.645A.586.586,0,0,0,8.917-1.414Zm7.859-.659a.769.769,0,0,0-.264-.582,4.438,4.438,0,0,0-1.011-.6A5.329,5.329,0,0,1,13.711-4.27a1.924,1.924,0,0,1-.6-1.465,2.139,2.139,0,0,1,.765-1.652A2.923,2.923,0,0,1,15.9-8.071a3.03,3.03,0,0,1,2.1.7,2.218,2.218,0,0,1,.754,1.794l-.022.044H16.732a1.357,1.357,0,0,0-.205-.791.716.716,0,0,0-.63-.293.79.79,0,0,0-.571.227.737.737,0,0,0-.234.549.736.736,0,0,0,.234.568,4.721,4.721,0,0,0,1.018.59A4.936,4.936,0,0,1,18.19-3.673a2.031,2.031,0,0,1,.6,1.527,2.026,2.026,0,0,1-.806,1.655,3.287,3.287,0,0,1-2.117.645,2.929,2.929,0,0,1-2.168-.8,2.357,2.357,0,0,1-.762-1.8l.015-.044h1.9a1.293,1.293,0,0,0,.293.908,1.039,1.039,0,0,0,.769.278.9.9,0,0,0,.637-.205A.734.734,0,0,0,16.776-2.073Z" transform="translate(997.667 322.688)" fill="#12263f"/>
      </g>
      <g id="Grupo_107406" data-name="Grupo 107406">
        <g id="Grupo_107405" data-name="Grupo 107405" opacity="0.85" style="mix-blend-mode: multiply;isolation: isolate">
          <circle id="Elipse_4871" data-name="Elipse 4871" cx="46.941" cy="46.941" r="46.941" transform="translate(725.249 277.757)" fill="#fff"/>
          <circle id="Elipse_4872" data-name="Elipse 4872" cx="46.941" cy="46.941" r="46.941" transform="translate(725.121 277.631)" fill="#fdfdfd"/>
          <circle id="Elipse_4873" data-name="Elipse 4873" cx="46.941" cy="46.941" r="46.941" transform="translate(724.994 277.506)" fill="#fafafa"/>
          <circle id="Elipse_4874" data-name="Elipse 4874" cx="46.941" cy="46.941" r="46.941" transform="translate(724.866 277.38)" fill="#f8f8f8"/>
          <circle id="Elipse_4875" data-name="Elipse 4875" cx="46.941" cy="46.941" r="46.941" transform="translate(724.738 277.255)" fill="#f6f6f6"/>
          <circle id="Elipse_4876" data-name="Elipse 4876" cx="46.941" cy="46.941" r="46.941" transform="translate(724.61 277.13)" fill="#f3f3f4"/>
          <circle id="Elipse_4877" data-name="Elipse 4877" cx="46.941" cy="46.941" r="46.941" transform="translate(724.482 277.004)" fill="#f1f1f1"/>
          <circle id="Elipse_4878" data-name="Elipse 4878" cx="46.941" cy="46.941" r="46.941" transform="translate(724.354 276.879)" fill="#efefef"/>
          <circle id="Elipse_4879" data-name="Elipse 4879" cx="46.941" cy="46.941" r="46.941" transform="translate(724.226 276.754)" fill="#ececed"/>
          <circle id="Elipse_4880" data-name="Elipse 4880" cx="46.941" cy="46.941" r="46.941" transform="translate(724.098 276.628)" fill="#eaeaea"/>
          <circle id="Elipse_4881" data-name="Elipse 4881" cx="46.941" cy="46.941" r="46.941" transform="translate(723.97 276.503)" fill="#e7e8e8"/>
          <circle id="Elipse_4882" data-name="Elipse 4882" cx="46.941" cy="46.941" r="46.941" transform="translate(723.842 276.378)" fill="#e5e5e6"/>
          <circle id="Elipse_4883" data-name="Elipse 4883" cx="46.941" cy="46.941" r="46.941" transform="translate(723.715 276.252)" fill="#e3e3e3"/>
          <circle id="Elipse_4884" data-name="Elipse 4884" cx="46.941" cy="46.941" r="46.941" transform="translate(723.587 276.127)" fill="#e0e1e1"/>
          <circle id="Elipse_4885" data-name="Elipse 4885" cx="46.941" cy="46.941" r="46.941" transform="translate(723.459 276.002)" fill="#dededf"/>
          <circle id="Elipse_4886" data-name="Elipse 4886" cx="46.941" cy="46.941" r="46.941" transform="translate(723.331 275.876)" fill="#dcdcdd"/>
          <circle id="Elipse_4887" data-name="Elipse 4887" cx="46.941" cy="46.941" r="46.941" transform="translate(723.203 275.751)" fill="#d9dada"/>
          <circle id="Elipse_4888" data-name="Elipse 4888" cx="46.941" cy="46.941" r="46.941" transform="translate(723.075 275.626)" fill="#d7d7d8"/>
          <circle id="Elipse_4889" data-name="Elipse 4889" cx="46.941" cy="46.941" r="46.941" transform="translate(722.947 275.5)" fill="#d5d5d6"/>
          <circle id="Elipse_4890" data-name="Elipse 4890" cx="46.941" cy="46.941" r="46.941" transform="translate(722.819 275.375)" fill="#d2d3d3"/>
          <circle id="Elipse_4891" data-name="Elipse 4891" cx="46.941" cy="46.941" r="46.941" transform="translate(722.691 275.25)" fill="#d0d0d1"/>
          <circle id="Elipse_4892" data-name="Elipse 4892" cx="46.941" cy="46.941" r="46.941" transform="translate(722.564 275.124)" fill="#cececf"/>
          <circle id="Elipse_4893" data-name="Elipse 4893" cx="46.941" cy="46.941" r="46.941" transform="translate(722.436 274.999)" fill="#cbcccd"/>
          <circle id="Elipse_4894" data-name="Elipse 4894" cx="46.941" cy="46.941" r="46.941" transform="translate(722.308 274.874)" fill="#c9c9ca"/>
          <circle id="Elipse_4895" data-name="Elipse 4895" cx="46.941" cy="46.941" r="46.941" transform="translate(722.18 274.748)" fill="#c7c7c8"/>
          <circle id="Elipse_4896" data-name="Elipse 4896" cx="46.941" cy="46.941" r="46.941" transform="translate(722.052 274.623)" fill="#c4c5c6"/>
          <circle id="Elipse_4897" data-name="Elipse 4897" cx="46.941" cy="46.941" r="46.941" transform="translate(721.924 274.498)" fill="#c2c2c3"/>
          <circle id="Elipse_4898" data-name="Elipse 4898" cx="46.941" cy="46.941" r="46.941" transform="translate(721.796 274.372)" fill="#bfc0c1"/>
          <circle id="Elipse_4899" data-name="Elipse 4899" cx="46.941" cy="46.941" r="46.941" transform="translate(721.668 274.247)" fill="#bdbebf"/>
          <circle id="Elipse_4900" data-name="Elipse 4900" cx="46.941" cy="46.941" r="46.941" transform="translate(721.54 274.121)" fill="#bbbbbc"/>
          <circle id="Elipse_4901" data-name="Elipse 4901" cx="46.941" cy="46.941" r="46.941" transform="translate(721.412 273.996)" fill="#b8b9ba"/>
          <circle id="Elipse_4902" data-name="Elipse 4902" cx="46.941" cy="46.941" r="46.941" transform="translate(721.285 273.871)" fill="#b6b7b8"/>
          <circle id="Elipse_4903" data-name="Elipse 4903" cx="46.941" cy="46.941" r="46.941" transform="translate(721.157 273.745)" fill="#b4b4b6"/>
          <circle id="Elipse_4904" data-name="Elipse 4904" cx="46.941" cy="46.941" r="46.941" transform="translate(721.029 273.62)" fill="#b1b2b3"/>
          <circle id="Elipse_4905" data-name="Elipse 4905" cx="46.941" cy="46.941" r="46.941" transform="translate(720.901 273.495)" fill="#afb0b1"/>
          <circle id="Elipse_4906" data-name="Elipse 4906" cx="46.941" cy="46.941" r="46.941" transform="translate(720.773 273.369)" fill="#adadaf"/>
          <circle id="Elipse_4907" data-name="Elipse 4907" cx="46.941" cy="46.941" r="46.941" transform="translate(720.645 273.244)" fill="#aaabac"/>
          <circle id="Elipse_4908" data-name="Elipse 4908" cx="46.941" cy="46.941" r="46.941" transform="translate(720.517 273.119)" fill="#a8a9aa"/>
          <circle id="Elipse_4909" data-name="Elipse 4909" cx="46.941" cy="46.941" r="46.941" transform="translate(720.389 272.993)" fill="#a6a6a8"/>
          <circle id="Elipse_4910" data-name="Elipse 4910" cx="46.941" cy="46.941" r="46.941" transform="translate(720.261 272.868)" fill="#a3a4a6"/>
          <circle id="Elipse_4911" data-name="Elipse 4911" cx="46.941" cy="46.941" r="46.941" transform="translate(720.133 272.743)" fill="#a1a2a3"/>
          <circle id="Elipse_4912" data-name="Elipse 4912" cx="46.941" cy="46.941" r="46.941" transform="translate(720.006 272.617)" fill="#9f9fa1"/>
          <circle id="Elipse_4913" data-name="Elipse 4913" cx="46.941" cy="46.941" r="46.941" transform="translate(719.878 272.492)" fill="#9c9d9f"/>
          <circle id="Elipse_4914" data-name="Elipse 4914" cx="46.941" cy="46.941" r="46.941" transform="translate(719.75 272.367)" fill="#9a9b9c"/>
          <circle id="Elipse_4915" data-name="Elipse 4915" cx="46.941" cy="46.941" r="46.941" transform="translate(719.622 272.241)" fill="#97989a"/>
          <circle id="Elipse_4916" data-name="Elipse 4916" cx="46.941" cy="46.941" r="46.941" transform="translate(719.494 272.116)" fill="#959698"/>
          <circle id="Elipse_4917" data-name="Elipse 4917" cx="46.941" cy="46.941" r="46.941" transform="translate(719.366 271.991)" fill="#939495"/>
          <circle id="Elipse_4918" data-name="Elipse 4918" cx="46.941" cy="46.941" r="46.941" transform="translate(719.238 271.865)" fill="#909193"/>
          <circle id="Elipse_4919" data-name="Elipse 4919" cx="46.941" cy="46.941" r="46.941" transform="translate(719.11 271.74)" fill="#8e8f91"/>
          <circle id="Elipse_4920" data-name="Elipse 4920" cx="46.941" cy="46.941" r="46.941" transform="translate(718.982 271.615)" fill="#8c8d8f"/>
          <circle id="Elipse_4921" data-name="Elipse 4921" cx="46.941" cy="46.941" r="46.941" transform="translate(718.854 271.489)" fill="#898a8c"/>
          <circle id="Elipse_4922" data-name="Elipse 4922" cx="46.941" cy="46.941" r="46.941" transform="translate(718.727 271.364)" fill="#87888a"/>
        </g>
        <circle id="Elipse_4923" data-name="Elipse 4923" cx="48.002" cy="48.002" r="48.002" transform="translate(717.665 270.303)" fill="#75b62f"/>
        <circle id="Elipse_4924" data-name="Elipse 4924" cx="41.706" cy="41.706" r="41.706" transform="translate(723.962 276.599)" fill="url(#linear-gradient)"/>
        <circle id="Elipse_4925" data-name="Elipse 4925" cx="39.336" cy="39.336" r="39.336" transform="translate(726.332 278.969)" fill="url(#linear-gradient-6)"/>
        <path id="Trazado_156546" data-name="Trazado 156546" d="M-24.683-9h-2.4V0h-2.08V-9h-2.388v-1.663h6.87Zm3.23,9.155a3.026,3.026,0,0,1-2.373-.981A3.572,3.572,0,0,1-24.7-3.3V-4.417a4.09,4.09,0,0,1,.817-2.629,2.729,2.729,0,0,1,2.26-1.025,2.626,2.626,0,0,1,2.153.93,3.884,3.884,0,0,1,.762,2.534v1.274h-3.918V-3.3a2.19,2.19,0,0,0,.355,1.289,1.224,1.224,0,0,0,1.073.505,2.864,2.864,0,0,0,.952-.132,5.009,5.009,0,0,0,.872-.439l.527,1.326A3.142,3.142,0,0,1-19.948-.1,4.262,4.262,0,0,1-21.453.154Zm-.176-6.562a.773.773,0,0,0-.732.456,2.959,2.959,0,0,0-.264,1.228h1.868v-.294a2.113,2.113,0,0,0-.205-1.026A.707.707,0,0,0-21.628-6.409Zm6.855,4.9a.727.727,0,0,0,.641-.315,1.6,1.6,0,0,0,.216-.908h1.89l.022.044A2.715,2.715,0,0,1-12.77-.645a2.694,2.694,0,0,1-2,.8,2.882,2.882,0,0,1-2.362-1,3.953,3.953,0,0,1-.824-2.593V-4.46a4,4,0,0,1,.82-2.6,2.849,2.849,0,0,1,2.351-1.014,2.64,2.64,0,0,1,2.047.828A3.1,3.1,0,0,1-12-5.01l-.015.037h-1.9a2.164,2.164,0,0,0-.216-1.042.7.7,0,0,0-.656-.394.857.857,0,0,0-.857.528,3.545,3.545,0,0,0-.234,1.416v1.02a3.5,3.5,0,0,0,.234,1.423A.871.871,0,0,0-14.773-1.509ZM-9.1-7.925l.088,1.091A2.641,2.641,0,0,1-8.2-7.745a1.843,1.843,0,0,1,1.058-.326,1.835,1.835,0,0,1,1.556.762,4.034,4.034,0,0,1,.568,2.4V0H-7.1V-4.92a2.125,2.125,0,0,0-.231-1.155.808.808,0,0,0-.714-.334.948.948,0,0,0-.513.147,1.25,1.25,0,0,0-.4.4V0h-2.08V-7.925Zm5.134,3.479a3.94,3.94,0,0,1,.846-2.611A2.915,2.915,0,0,1-.747-8.071,2.926,2.926,0,0,1,1.626-7.057a3.929,3.929,0,0,1,.85,2.611v.981A3.908,3.908,0,0,1,1.626-.85,2.932,2.932,0,0,1-.74.154a2.938,2.938,0,0,1-2.377-1,3.919,3.919,0,0,1-.846-2.615Zm2.073.978A3.308,3.308,0,0,0-1.633-2.03a.913.913,0,0,0,.894.521.9.9,0,0,0,.875-.524A3.272,3.272,0,0,0,.4-3.467V-4.45a3.28,3.28,0,0,0-.26-1.427.906.906,0,0,0-.883-.532.906.906,0,0,0-.883.535A3.285,3.285,0,0,0-1.89-4.45ZM5.75,0H3.669V-11.426H5.75Zm1.2-4.446A3.94,3.94,0,0,1,7.8-7.057a2.915,2.915,0,0,1,2.369-1.014,2.926,2.926,0,0,1,2.373,1.014,3.929,3.929,0,0,1,.85,2.611v.981a3.908,3.908,0,0,1-.85,2.615,2.932,2.932,0,0,1-2.366,1A2.938,2.938,0,0,1,7.8-.85a3.919,3.919,0,0,1-.846-2.615Zm2.073.978A3.308,3.308,0,0,0,9.28-2.03a.913.913,0,0,0,.894.521.9.9,0,0,0,.875-.524,3.272,3.272,0,0,0,.26-1.434V-4.45a3.28,3.28,0,0,0-.26-1.427.906.906,0,0,0-.883-.532.906.906,0,0,0-.883.535,3.285,3.285,0,0,0-.26,1.423Zm5.186-.861a4.786,4.786,0,0,1,.692-2.71,2.217,2.217,0,0,1,1.952-1.033,1.643,1.643,0,0,1,.93.267,2.356,2.356,0,0,1,.7.765l.132-.886h1.809V-.154a3.305,3.305,0,0,1-.9,2.457,3.366,3.366,0,0,1-2.479.9,3.991,3.991,0,0,1-1.091-.165,5.013,5.013,0,0,1-1.077-.443l.366-1.6a3.725,3.725,0,0,0,.85.352,3.572,3.572,0,0,0,.938.117,1.188,1.188,0,0,0,.989-.414,1.9,1.9,0,0,0,.33-1.2V-.615a2.018,2.018,0,0,1-.667.575,1.8,1.8,0,0,1-.842.194A2.247,2.247,0,0,1,14.9-.809a4.285,4.285,0,0,1-.688-2.545Zm2.08.979A3.02,3.02,0,0,0,16.538-2a.864.864,0,0,0,.835.488,1.18,1.18,0,0,0,.568-.132,1.084,1.084,0,0,0,.406-.389V-5.785a1.28,1.28,0,0,0-.4-.455.974.974,0,0,0-.56-.161.869.869,0,0,0-.842.568,3.712,3.712,0,0,0-.256,1.507ZM24.009,0H21.921V-7.925h2.087ZM23.2-10.862h2.19l.022.044-1.824,1.9-1.677,0ZM29.385,0a3.556,3.556,0,0,1-.157-.432,3.528,3.528,0,0,1-.106-.476,2.477,2.477,0,0,1-.714.773,1.685,1.685,0,0,1-.978.289,2.026,2.026,0,0,1-1.571-.645,2.451,2.451,0,0,1-.59-1.721,2.256,2.256,0,0,1,.751-1.809,3.344,3.344,0,0,1,2.23-.645h.784V-5.31a1.593,1.593,0,0,0-.209-.89.7.7,0,0,0-.626-.311.6.6,0,0,0-.527.249,1.252,1.252,0,0,0-.176.725l-2.014-.007-.022-.044a2.172,2.172,0,0,1,.765-1.758,3.03,3.03,0,0,1,2.113-.725,2.828,2.828,0,0,1,2.01.721A2.673,2.673,0,0,1,31.121-5.3v3.208A6.942,6.942,0,0,0,31.2-1a5.946,5.946,0,0,0,.249,1ZM28.03-1.414a1.071,1.071,0,0,0,.582-.168,1.25,1.25,0,0,0,.421-.432V-3.472H28.25a.758.758,0,0,0-.688.33,1.514,1.514,0,0,0-.212.835,1.061,1.061,0,0,0,.183.645A.586.586,0,0,0,28.03-1.414Z" transform="translate(765.667 322.688)" fill="#12263f"/>
      </g>
      <g id="Grupo_107408" data-name="Grupo 107408">
        <g id="Grupo_107407" data-name="Grupo 107407" opacity="0.85" style="mix-blend-mode: multiply;isolation: isolate">
          <circle id="Elipse_4926" data-name="Elipse 4926" cx="46.941" cy="46.941" r="46.941" transform="translate(771.249 413.757)" fill="#fff"/>
          <circle id="Elipse_4927" data-name="Elipse 4927" cx="46.941" cy="46.941" r="46.941" transform="translate(771.121 413.631)" fill="#fdfdfd"/>
          <circle id="Elipse_4928" data-name="Elipse 4928" cx="46.941" cy="46.941" r="46.941" transform="translate(770.994 413.506)" fill="#fafafa"/>
          <circle id="Elipse_4929" data-name="Elipse 4929" cx="46.941" cy="46.941" r="46.941" transform="translate(770.866 413.38)" fill="#f8f8f8"/>
          <circle id="Elipse_4930" data-name="Elipse 4930" cx="46.941" cy="46.941" r="46.941" transform="translate(770.738 413.255)" fill="#f6f6f6"/>
          <circle id="Elipse_4931" data-name="Elipse 4931" cx="46.941" cy="46.941" r="46.941" transform="translate(770.61 413.13)" fill="#f3f3f4"/>
          <circle id="Elipse_4932" data-name="Elipse 4932" cx="46.941" cy="46.941" r="46.941" transform="translate(770.482 413.004)" fill="#f1f1f1"/>
          <circle id="Elipse_4933" data-name="Elipse 4933" cx="46.941" cy="46.941" r="46.941" transform="translate(770.354 412.879)" fill="#efefef"/>
          <circle id="Elipse_4934" data-name="Elipse 4934" cx="46.941" cy="46.941" r="46.941" transform="translate(770.226 412.754)" fill="#ececed"/>
          <circle id="Elipse_4935" data-name="Elipse 4935" cx="46.941" cy="46.941" r="46.941" transform="translate(770.098 412.628)" fill="#eaeaea"/>
          <circle id="Elipse_4936" data-name="Elipse 4936" cx="46.941" cy="46.941" r="46.941" transform="translate(769.97 412.503)" fill="#e7e8e8"/>
          <circle id="Elipse_4937" data-name="Elipse 4937" cx="46.941" cy="46.941" r="46.941" transform="translate(769.842 412.378)" fill="#e5e5e6"/>
          <circle id="Elipse_4938" data-name="Elipse 4938" cx="46.941" cy="46.941" r="46.941" transform="translate(769.715 412.252)" fill="#e3e3e3"/>
          <circle id="Elipse_4939" data-name="Elipse 4939" cx="46.941" cy="46.941" r="46.941" transform="translate(769.587 412.127)" fill="#e0e1e1"/>
          <circle id="Elipse_4940" data-name="Elipse 4940" cx="46.941" cy="46.941" r="46.941" transform="translate(769.459 412.002)" fill="#dededf"/>
          <circle id="Elipse_4941" data-name="Elipse 4941" cx="46.941" cy="46.941" r="46.941" transform="translate(769.331 411.876)" fill="#dcdcdd"/>
          <circle id="Elipse_4942" data-name="Elipse 4942" cx="46.941" cy="46.941" r="46.941" transform="translate(769.203 411.751)" fill="#d9dada"/>
          <circle id="Elipse_4943" data-name="Elipse 4943" cx="46.941" cy="46.941" r="46.941" transform="translate(769.075 411.626)" fill="#d7d7d8"/>
          <circle id="Elipse_4944" data-name="Elipse 4944" cx="46.941" cy="46.941" r="46.941" transform="translate(768.947 411.5)" fill="#d5d5d6"/>
          <circle id="Elipse_4945" data-name="Elipse 4945" cx="46.941" cy="46.941" r="46.941" transform="translate(768.819 411.375)" fill="#d2d3d3"/>
          <circle id="Elipse_4946" data-name="Elipse 4946" cx="46.941" cy="46.941" r="46.941" transform="translate(768.691 411.25)" fill="#d0d0d1"/>
          <circle id="Elipse_4947" data-name="Elipse 4947" cx="46.941" cy="46.941" r="46.941" transform="translate(768.564 411.124)" fill="#cececf"/>
          <circle id="Elipse_4948" data-name="Elipse 4948" cx="46.941" cy="46.941" r="46.941" transform="translate(768.436 410.999)" fill="#cbcccd"/>
          <circle id="Elipse_4949" data-name="Elipse 4949" cx="46.941" cy="46.941" r="46.941" transform="translate(768.308 410.874)" fill="#c9c9ca"/>
          <circle id="Elipse_4950" data-name="Elipse 4950" cx="46.941" cy="46.941" r="46.941" transform="translate(768.18 410.748)" fill="#c7c7c8"/>
          <circle id="Elipse_4951" data-name="Elipse 4951" cx="46.941" cy="46.941" r="46.941" transform="translate(768.052 410.623)" fill="#c4c5c6"/>
          <circle id="Elipse_4952" data-name="Elipse 4952" cx="46.941" cy="46.941" r="46.941" transform="translate(767.924 410.498)" fill="#c2c2c3"/>
          <circle id="Elipse_4953" data-name="Elipse 4953" cx="46.941" cy="46.941" r="46.941" transform="translate(767.796 410.372)" fill="#bfc0c1"/>
          <circle id="Elipse_4954" data-name="Elipse 4954" cx="46.941" cy="46.941" r="46.941" transform="translate(767.668 410.247)" fill="#bdbebf"/>
          <circle id="Elipse_4955" data-name="Elipse 4955" cx="46.941" cy="46.941" r="46.941" transform="translate(767.54 410.121)" fill="#bbbbbc"/>
          <circle id="Elipse_4956" data-name="Elipse 4956" cx="46.941" cy="46.941" r="46.941" transform="translate(767.412 409.996)" fill="#b8b9ba"/>
          <circle id="Elipse_4957" data-name="Elipse 4957" cx="46.941" cy="46.941" r="46.941" transform="translate(767.285 409.871)" fill="#b6b7b8"/>
          <circle id="Elipse_4958" data-name="Elipse 4958" cx="46.941" cy="46.941" r="46.941" transform="translate(767.157 409.745)" fill="#b4b4b6"/>
          <circle id="Elipse_4959" data-name="Elipse 4959" cx="46.941" cy="46.941" r="46.941" transform="translate(767.029 409.62)" fill="#b1b2b3"/>
          <circle id="Elipse_4960" data-name="Elipse 4960" cx="46.941" cy="46.941" r="46.941" transform="translate(766.901 409.495)" fill="#afb0b1"/>
          <circle id="Elipse_4961" data-name="Elipse 4961" cx="46.941" cy="46.941" r="46.941" transform="translate(766.773 409.369)" fill="#adadaf"/>
          <circle id="Elipse_4962" data-name="Elipse 4962" cx="46.941" cy="46.941" r="46.941" transform="translate(766.645 409.244)" fill="#aaabac"/>
          <circle id="Elipse_4963" data-name="Elipse 4963" cx="46.941" cy="46.941" r="46.941" transform="translate(766.517 409.119)" fill="#a8a9aa"/>
          <circle id="Elipse_4964" data-name="Elipse 4964" cx="46.941" cy="46.941" r="46.941" transform="translate(766.389 408.993)" fill="#a6a6a8"/>
          <circle id="Elipse_4965" data-name="Elipse 4965" cx="46.941" cy="46.941" r="46.941" transform="translate(766.261 408.868)" fill="#a3a4a6"/>
          <circle id="Elipse_4966" data-name="Elipse 4966" cx="46.941" cy="46.941" r="46.941" transform="translate(766.133 408.743)" fill="#a1a2a3"/>
          <circle id="Elipse_4967" data-name="Elipse 4967" cx="46.941" cy="46.941" r="46.941" transform="translate(766.006 408.617)" fill="#9f9fa1"/>
          <circle id="Elipse_4968" data-name="Elipse 4968" cx="46.941" cy="46.941" r="46.941" transform="translate(765.878 408.492)" fill="#9c9d9f"/>
          <circle id="Elipse_4969" data-name="Elipse 4969" cx="46.941" cy="46.941" r="46.941" transform="translate(765.75 408.367)" fill="#9a9b9c"/>
          <circle id="Elipse_4970" data-name="Elipse 4970" cx="46.941" cy="46.941" r="46.941" transform="translate(765.622 408.241)" fill="#97989a"/>
          <circle id="Elipse_4971" data-name="Elipse 4971" cx="46.941" cy="46.941" r="46.941" transform="translate(765.494 408.116)" fill="#959698"/>
          <circle id="Elipse_4972" data-name="Elipse 4972" cx="46.941" cy="46.941" r="46.941" transform="translate(765.366 407.991)" fill="#939495"/>
          <circle id="Elipse_4973" data-name="Elipse 4973" cx="46.941" cy="46.941" r="46.941" transform="translate(765.238 407.865)" fill="#909193"/>
          <circle id="Elipse_4974" data-name="Elipse 4974" cx="46.941" cy="46.941" r="46.941" transform="translate(765.11 407.74)" fill="#8e8f91"/>
          <circle id="Elipse_4975" data-name="Elipse 4975" cx="46.941" cy="46.941" r="46.941" transform="translate(764.982 407.615)" fill="#8c8d8f"/>
          <circle id="Elipse_4976" data-name="Elipse 4976" cx="46.941" cy="46.941" r="46.941" transform="translate(764.854 407.489)" fill="#898a8c"/>
          <circle id="Elipse_4977" data-name="Elipse 4977" cx="46.941" cy="46.941" r="46.941" transform="translate(764.727 407.364)" fill="#87888a"/>
        </g>
        <circle id="Elipse_4978" data-name="Elipse 4978" cx="48.002" cy="48.002" r="48.002" transform="translate(763.665 406.303)" fill="#75b62f"/>
        <circle id="Elipse_4979" data-name="Elipse 4979" cx="41.706" cy="41.706" r="41.706" transform="translate(769.962 412.599)" fill="url(#linear-gradient)"/>
        <circle id="Elipse_4980" data-name="Elipse 4980" cx="39.336" cy="39.336" r="39.336" transform="translate(772.332 414.969)" fill="url(#linear-gradient-8)"/>
        <path id="Trazado_156545" data-name="Trazado 156545" d="M-22.412-2.278h-2.812L-25.8,0h-2.1l3-10.664h2.168l3,10.664h-2.1ZM-24.8-3.94h1.963L-23.8-7.712h-.044Zm7.712-3.984.081,1.011a2.361,2.361,0,0,1,.791-.857,2,2,0,0,1,1.091-.3,1.757,1.757,0,0,1,1.047.319,1.962,1.962,0,0,1,.681.97,2.482,2.482,0,0,1,.791-.952,1.923,1.923,0,0,1,1.128-.337,1.794,1.794,0,0,1,1.549.809A4.335,4.335,0,0,1-9.36-4.79V0h-2.087V-4.8a2.808,2.808,0,0,0-.2-1.265.659.659,0,0,0-.615-.348.867.867,0,0,0-.535.176,1.339,1.339,0,0,0-.388.484q.007.139.015.275t.007.282V0h-2.073V-4.8a2.766,2.766,0,0,0-.2-1.261.672.672,0,0,0-.626-.352.924.924,0,0,0-.509.143,1.258,1.258,0,0,0-.385.4V0h-2.073V-7.925Zm15.3,4.57A4.4,4.4,0,0,1-2.45-.8,2.218,2.218,0,0,1-4.395.154,1.805,1.805,0,0,1-5.365-.1,2.152,2.152,0,0,1-6.072-.85L-6.2,0H-8V-11.426h2.08v4.175a2.007,2.007,0,0,1,.656-.608,1.709,1.709,0,0,1,.853-.212,2.206,2.206,0,0,1,1.956.992,4.679,4.679,0,0,1,.667,2.648ZM-3.86-4.436a3.679,3.679,0,0,0-.231-1.452.851.851,0,0,0-.853-.521.985.985,0,0,0-.579.169,1.242,1.242,0,0,0-.4.477v3.7a.986.986,0,0,0,.392.407,1.2,1.2,0,0,0,.59.136.855.855,0,0,0,.853-.466A3.3,3.3,0,0,0-3.86-3.357ZM1.465,0H-.615V-7.925h2.08Zm0-9.836H-.615v-1.589h2.08ZM6,.154A3.026,3.026,0,0,1,3.625-.828,3.572,3.572,0,0,1,2.747-3.3V-4.417a4.09,4.09,0,0,1,.817-2.629,2.729,2.729,0,0,1,2.26-1.025,2.626,2.626,0,0,1,2.153.93,3.884,3.884,0,0,1,.762,2.534v1.274H4.819V-3.3a2.19,2.19,0,0,0,.355,1.289,1.224,1.224,0,0,0,1.073.505A2.864,2.864,0,0,0,7.2-1.641a5.009,5.009,0,0,0,.872-.439L8.6-.754A3.142,3.142,0,0,1,7.5-.1,4.262,4.262,0,0,1,6,.154ZM5.823-6.409a.773.773,0,0,0-.732.456,2.959,2.959,0,0,0-.264,1.228H6.694v-.294a2.113,2.113,0,0,0-.205-1.026A.707.707,0,0,0,5.823-6.409Zm5.867-1.516.088,1.091a2.641,2.641,0,0,1,.809-.912,1.843,1.843,0,0,1,1.058-.326A1.835,1.835,0,0,1,15.2-7.31a4.034,4.034,0,0,1,.568,2.4V0H13.682V-4.92a2.125,2.125,0,0,0-.231-1.155.808.808,0,0,0-.714-.334.948.948,0,0,0-.513.147,1.25,1.25,0,0,0-.4.4V0H9.749V-7.925ZM19.548-9.9v1.97h1.1v1.509h-1.1v3.977a1.3,1.3,0,0,0,.139.692.435.435,0,0,0,.381.209,2.4,2.4,0,0,0,.322-.018,2.357,2.357,0,0,0,.293-.062l.161,1.582a4.148,4.148,0,0,1-.63.146,4.741,4.741,0,0,1-.681.044A1.911,1.911,0,0,1,18-.465a2.987,2.987,0,0,1-.531-1.967V-6.416h-.937V-7.925h.938V-9.9ZM24.9.154a3.026,3.026,0,0,1-2.373-.981A3.572,3.572,0,0,1,21.65-3.3V-4.417a4.09,4.09,0,0,1,.817-2.629,2.729,2.729,0,0,1,2.26-1.025,2.626,2.626,0,0,1,2.153.93,3.884,3.884,0,0,1,.762,2.534v1.274H23.723V-3.3a2.19,2.19,0,0,0,.355,1.289,1.224,1.224,0,0,0,1.073.505,2.864,2.864,0,0,0,.952-.132,5.009,5.009,0,0,0,.872-.439L27.5-.754A3.142,3.142,0,0,1,26.407-.1,4.262,4.262,0,0,1,24.9.154Zm-.176-6.562a.773.773,0,0,0-.732.456,2.959,2.959,0,0,0-.264,1.228H25.6v-.294a2.113,2.113,0,0,0-.205-1.026A.707.707,0,0,0,24.727-6.409Z" transform="translate(811.667 458.688)" fill="#12263f"/>
      </g>
      <g id="Grupo_107410" data-name="Grupo 107410">
        <g id="Grupo_107409" data-name="Grupo 107409" opacity="0.85" style="mix-blend-mode: multiply;isolation: isolate">
          <circle id="Elipse_4981" data-name="Elipse 4981" cx="46.941" cy="46.941" r="46.941" transform="translate(913.249 413.757)" fill="#fff"/>
          <circle id="Elipse_4982" data-name="Elipse 4982" cx="46.941" cy="46.941" r="46.941" transform="translate(913.121 413.631)" fill="#fdfdfd"/>
          <circle id="Elipse_4983" data-name="Elipse 4983" cx="46.941" cy="46.941" r="46.941" transform="translate(912.994 413.506)" fill="#fafafa"/>
          <circle id="Elipse_4984" data-name="Elipse 4984" cx="46.941" cy="46.941" r="46.941" transform="translate(912.866 413.38)" fill="#f8f8f8"/>
          <circle id="Elipse_4985" data-name="Elipse 4985" cx="46.941" cy="46.941" r="46.941" transform="translate(912.738 413.255)" fill="#f6f6f6"/>
          <circle id="Elipse_4986" data-name="Elipse 4986" cx="46.941" cy="46.941" r="46.941" transform="translate(912.61 413.13)" fill="#f3f3f4"/>
          <circle id="Elipse_4987" data-name="Elipse 4987" cx="46.941" cy="46.941" r="46.941" transform="translate(912.482 413.004)" fill="#f1f1f1"/>
          <circle id="Elipse_4988" data-name="Elipse 4988" cx="46.941" cy="46.941" r="46.941" transform="translate(912.354 412.879)" fill="#efefef"/>
          <circle id="Elipse_4989" data-name="Elipse 4989" cx="46.941" cy="46.941" r="46.941" transform="translate(912.226 412.754)" fill="#ececed"/>
          <circle id="Elipse_4990" data-name="Elipse 4990" cx="46.941" cy="46.941" r="46.941" transform="translate(912.098 412.628)" fill="#eaeaea"/>
          <circle id="Elipse_4991" data-name="Elipse 4991" cx="46.941" cy="46.941" r="46.941" transform="translate(911.97 412.503)" fill="#e7e8e8"/>
          <circle id="Elipse_4992" data-name="Elipse 4992" cx="46.941" cy="46.941" r="46.941" transform="translate(911.842 412.378)" fill="#e5e5e6"/>
          <circle id="Elipse_4993" data-name="Elipse 4993" cx="46.941" cy="46.941" r="46.941" transform="translate(911.715 412.252)" fill="#e3e3e3"/>
          <circle id="Elipse_4994" data-name="Elipse 4994" cx="46.941" cy="46.941" r="46.941" transform="translate(911.587 412.127)" fill="#e0e1e1"/>
          <circle id="Elipse_4995" data-name="Elipse 4995" cx="46.941" cy="46.941" r="46.941" transform="translate(911.459 412.002)" fill="#dededf"/>
          <circle id="Elipse_4996" data-name="Elipse 4996" cx="46.941" cy="46.941" r="46.941" transform="translate(911.331 411.876)" fill="#dcdcdd"/>
          <circle id="Elipse_4997" data-name="Elipse 4997" cx="46.941" cy="46.941" r="46.941" transform="translate(911.203 411.751)" fill="#d9dada"/>
          <circle id="Elipse_4998" data-name="Elipse 4998" cx="46.941" cy="46.941" r="46.941" transform="translate(911.075 411.626)" fill="#d7d7d8"/>
          <circle id="Elipse_4999" data-name="Elipse 4999" cx="46.941" cy="46.941" r="46.941" transform="translate(910.947 411.5)" fill="#d5d5d6"/>
          <circle id="Elipse_5000" data-name="Elipse 5000" cx="46.941" cy="46.941" r="46.941" transform="translate(910.819 411.375)" fill="#d2d3d3"/>
          <circle id="Elipse_5001" data-name="Elipse 5001" cx="46.941" cy="46.941" r="46.941" transform="translate(910.691 411.25)" fill="#d0d0d1"/>
          <circle id="Elipse_5002" data-name="Elipse 5002" cx="46.941" cy="46.941" r="46.941" transform="translate(910.564 411.124)" fill="#cececf"/>
          <circle id="Elipse_5003" data-name="Elipse 5003" cx="46.941" cy="46.941" r="46.941" transform="translate(910.436 410.999)" fill="#cbcccd"/>
          <circle id="Elipse_5004" data-name="Elipse 5004" cx="46.941" cy="46.941" r="46.941" transform="translate(910.308 410.874)" fill="#c9c9ca"/>
          <circle id="Elipse_5005" data-name="Elipse 5005" cx="46.941" cy="46.941" r="46.941" transform="translate(910.18 410.748)" fill="#c7c7c8"/>
          <circle id="Elipse_5006" data-name="Elipse 5006" cx="46.941" cy="46.941" r="46.941" transform="translate(910.052 410.623)" fill="#c4c5c6"/>
          <circle id="Elipse_5007" data-name="Elipse 5007" cx="46.941" cy="46.941" r="46.941" transform="translate(909.924 410.498)" fill="#c2c2c3"/>
          <circle id="Elipse_5008" data-name="Elipse 5008" cx="46.941" cy="46.941" r="46.941" transform="translate(909.796 410.372)" fill="#bfc0c1"/>
          <circle id="Elipse_5009" data-name="Elipse 5009" cx="46.941" cy="46.941" r="46.941" transform="translate(909.668 410.247)" fill="#bdbebf"/>
          <circle id="Elipse_5010" data-name="Elipse 5010" cx="46.941" cy="46.941" r="46.941" transform="translate(909.54 410.121)" fill="#bbbbbc"/>
          <circle id="Elipse_5011" data-name="Elipse 5011" cx="46.941" cy="46.941" r="46.941" transform="translate(909.412 409.996)" fill="#b8b9ba"/>
          <circle id="Elipse_5012" data-name="Elipse 5012" cx="46.941" cy="46.941" r="46.941" transform="translate(909.285 409.871)" fill="#b6b7b8"/>
          <circle id="Elipse_5013" data-name="Elipse 5013" cx="46.941" cy="46.941" r="46.941" transform="translate(909.157 409.745)" fill="#b4b4b6"/>
          <circle id="Elipse_5014" data-name="Elipse 5014" cx="46.941" cy="46.941" r="46.941" transform="translate(909.029 409.62)" fill="#b1b2b3"/>
          <circle id="Elipse_5015" data-name="Elipse 5015" cx="46.941" cy="46.941" r="46.941" transform="translate(908.901 409.495)" fill="#afb0b1"/>
          <circle id="Elipse_5016" data-name="Elipse 5016" cx="46.941" cy="46.941" r="46.941" transform="translate(908.773 409.369)" fill="#adadaf"/>
          <circle id="Elipse_5017" data-name="Elipse 5017" cx="46.941" cy="46.941" r="46.941" transform="translate(908.645 409.244)" fill="#aaabac"/>
          <circle id="Elipse_5018" data-name="Elipse 5018" cx="46.941" cy="46.941" r="46.941" transform="translate(908.517 409.119)" fill="#a8a9aa"/>
          <circle id="Elipse_5019" data-name="Elipse 5019" cx="46.941" cy="46.941" r="46.941" transform="translate(908.389 408.993)" fill="#a6a6a8"/>
          <circle id="Elipse_5020" data-name="Elipse 5020" cx="46.941" cy="46.941" r="46.941" transform="translate(908.261 408.868)" fill="#a3a4a6"/>
          <circle id="Elipse_5021" data-name="Elipse 5021" cx="46.941" cy="46.941" r="46.941" transform="translate(908.133 408.743)" fill="#a1a2a3"/>
          <circle id="Elipse_5022" data-name="Elipse 5022" cx="46.941" cy="46.941" r="46.941" transform="translate(908.006 408.617)" fill="#9f9fa1"/>
          <circle id="Elipse_5023" data-name="Elipse 5023" cx="46.941" cy="46.941" r="46.941" transform="translate(907.878 408.492)" fill="#9c9d9f"/>
          <circle id="Elipse_5024" data-name="Elipse 5024" cx="46.941" cy="46.941" r="46.941" transform="translate(907.75 408.367)" fill="#9a9b9c"/>
          <circle id="Elipse_5025" data-name="Elipse 5025" cx="46.941" cy="46.941" r="46.941" transform="translate(907.622 408.241)" fill="#97989a"/>
          <circle id="Elipse_5026" data-name="Elipse 5026" cx="46.941" cy="46.941" r="46.941" transform="translate(907.494 408.116)" fill="#959698"/>
          <circle id="Elipse_5027" data-name="Elipse 5027" cx="46.941" cy="46.941" r="46.941" transform="translate(907.366 407.991)" fill="#939495"/>
          <circle id="Elipse_5028" data-name="Elipse 5028" cx="46.941" cy="46.941" r="46.941" transform="translate(907.238 407.865)" fill="#909193"/>
          <circle id="Elipse_5029" data-name="Elipse 5029" cx="46.941" cy="46.941" r="46.941" transform="translate(907.11 407.74)" fill="#8e8f91"/>
          <circle id="Elipse_5030" data-name="Elipse 5030" cx="46.941" cy="46.941" r="46.941" transform="translate(906.982 407.615)" fill="#8c8d8f"/>
          <circle id="Elipse_5031" data-name="Elipse 5031" cx="46.941" cy="46.941" r="46.941" transform="translate(906.854 407.489)" fill="#898a8c"/>
          <circle id="Elipse_5032" data-name="Elipse 5032" cx="46.941" cy="46.941" r="46.941" transform="translate(906.727 407.364)" fill="#87888a"/>
        </g>
        <circle id="Elipse_5033" data-name="Elipse 5033" cx="48.002" cy="48.002" r="48.002" transform="translate(905.665 406.303)" fill="#75b62f"/>
        <circle id="Elipse_5034" data-name="Elipse 5034" cx="41.706" cy="41.706" r="41.706" transform="translate(911.962 412.599)" fill="url(#linear-gradient)"/>
        <circle id="Elipse_5035" data-name="Elipse 5035" cx="39.336" cy="39.336" r="39.336" transform="translate(914.332 414.969)" fill="url(#linear-gradient-10)"/>
        <path id="Trazado_156544" data-name="Trazado 156544" d="M-24.089-4.68h-3.582v3.018h4.211V0h-6.3V-10.664h6.284V-9h-4.2v2.659h3.582Zm5.032,2.607a.769.769,0,0,0-.264-.582,4.438,4.438,0,0,0-1.011-.6A5.329,5.329,0,0,1-22.123-4.27a1.924,1.924,0,0,1-.6-1.465,2.139,2.139,0,0,1,.765-1.652,2.923,2.923,0,0,1,2.025-.685,3.03,3.03,0,0,1,2.1.7,2.218,2.218,0,0,1,.754,1.794l-.022.044H-19.1a1.357,1.357,0,0,0-.205-.791.716.716,0,0,0-.63-.293.79.79,0,0,0-.571.227.737.737,0,0,0-.234.549.736.736,0,0,0,.234.568,4.721,4.721,0,0,0,1.018.59,4.936,4.936,0,0,1,1.846,1.007,2.031,2.031,0,0,1,.6,1.527,2.026,2.026,0,0,1-.806,1.655,3.287,3.287,0,0,1-2.117.645,2.929,2.929,0,0,1-2.168-.8,2.357,2.357,0,0,1-.762-1.8l.015-.044h1.9a1.293,1.293,0,0,0,.293.908,1.039,1.039,0,0,0,.769.278.9.9,0,0,0,.637-.205A.734.734,0,0,0-19.058-2.073Zm5.53-7.822v1.97h1.1v1.509h-1.1v3.977a1.3,1.3,0,0,0,.139.692.435.435,0,0,0,.381.209,2.4,2.4,0,0,0,.322-.018,2.357,2.357,0,0,0,.293-.062l.161,1.582a4.148,4.148,0,0,1-.63.146,4.741,4.741,0,0,1-.681.044,1.911,1.911,0,0,1-1.534-.619,2.987,2.987,0,0,1-.531-1.967V-6.416h-.937V-7.925h.938V-9.9Zm6.013,3.867L-8.3-6.05a.888.888,0,0,0-.546.161,1.024,1.024,0,0,0-.333.454V0h-2.08V-7.925h1.941l.081,1.062.037.015a2.161,2.161,0,0,1,.531-.9,1.113,1.113,0,0,1,.795-.326,1.85,1.85,0,0,1,.3.026,2.015,2.015,0,0,1,.275.062ZM-2.439-.916a2.339,2.339,0,0,1-.78.795A1.975,1.975,0,0,1-4.255.154a1.951,1.951,0,0,1-1.659-.8,4.178,4.178,0,0,1-.6-2.487v-4.79h2.08v4.81A2.724,2.724,0,0,0-4.226-1.89a.655.655,0,0,0,.608.381,1.349,1.349,0,0,0,.6-.128,1.212,1.212,0,0,0,.443-.378v-5.91H-.483V0H-2.314Zm6.16-.593a.727.727,0,0,0,.641-.315,1.6,1.6,0,0,0,.216-.908h1.89l.022.044A2.715,2.715,0,0,1,5.724-.645a2.694,2.694,0,0,1-2,.8,2.882,2.882,0,0,1-2.362-1A3.953,3.953,0,0,1,.535-3.442V-4.46a4,4,0,0,1,.82-2.6A2.849,2.849,0,0,1,3.706-8.071a2.64,2.64,0,0,1,2.047.828A3.1,3.1,0,0,1,6.489-5.01l-.015.037h-1.9a2.164,2.164,0,0,0-.216-1.042.7.7,0,0,0-.656-.394.857.857,0,0,0-.857.528,3.545,3.545,0,0,0-.234,1.416v1.02a3.5,3.5,0,0,0,.234,1.423A.871.871,0,0,0,3.721-1.509ZM9.968-9.9v1.97h1.1v1.509h-1.1v3.977a1.3,1.3,0,0,0,.139.692.435.435,0,0,0,.381.209,2.4,2.4,0,0,0,.322-.018,2.357,2.357,0,0,0,.293-.062l.161,1.582a4.148,4.148,0,0,1-.63.146,4.741,4.741,0,0,1-.681.044A1.911,1.911,0,0,1,8.419-.465a2.987,2.987,0,0,1-.531-1.967V-6.416H6.951V-7.925h.938V-9.9ZM16.26-.916a2.339,2.339,0,0,1-.78.795,1.975,1.975,0,0,1-1.036.275,1.951,1.951,0,0,1-1.659-.8,4.178,4.178,0,0,1-.6-2.487v-4.79h2.08v4.81a2.724,2.724,0,0,0,.205,1.225.655.655,0,0,0,.608.381,1.349,1.349,0,0,0,.6-.128,1.212,1.212,0,0,0,.443-.378v-5.91h2.087V0H16.384Zm7.009-5.112-.784-.022a.888.888,0,0,0-.546.161,1.024,1.024,0,0,0-.333.454V0h-2.08V-7.925h1.941l.081,1.062.037.015a2.161,2.161,0,0,1,.531-.9,1.113,1.113,0,0,1,.795-.326,1.85,1.85,0,0,1,.3.026,2.015,2.015,0,0,1,.275.062ZM28.184,0a3.556,3.556,0,0,1-.157-.432,3.528,3.528,0,0,1-.106-.476,2.477,2.477,0,0,1-.714.773,1.685,1.685,0,0,1-.978.289,2.026,2.026,0,0,1-1.571-.645,2.451,2.451,0,0,1-.59-1.721,2.256,2.256,0,0,1,.751-1.809,3.344,3.344,0,0,1,2.23-.645h.784V-5.31a1.593,1.593,0,0,0-.209-.89A.7.7,0,0,0,27-6.511a.6.6,0,0,0-.527.249,1.252,1.252,0,0,0-.176.725L24.28-5.544l-.022-.044a2.172,2.172,0,0,1,.765-1.758,3.03,3.03,0,0,1,2.113-.725,2.828,2.828,0,0,1,2.01.721A2.673,2.673,0,0,1,29.919-5.3v3.208A6.942,6.942,0,0,0,30-1a5.946,5.946,0,0,0,.249,1ZM26.829-1.414a1.071,1.071,0,0,0,.582-.168,1.25,1.25,0,0,0,.421-.432V-3.472h-.784a.758.758,0,0,0-.688.33,1.514,1.514,0,0,0-.212.835,1.061,1.061,0,0,0,.183.645A.586.586,0,0,0,26.829-1.414Z" transform="translate(953.667 458.688)" fill="#12263f"/>
      </g>
      <path id="Trazado_156541" data-name="Trazado 156541" d="M-35.764-5.733h-5.121V-2.5h6.049V0h-9.305V-13.508h9.324v2.514h-6.067v2.848h5.121Zm5.065-4.3.1,1.178a3.451,3.451,0,0,1,2.867-1.364,2.541,2.541,0,0,1,2.57,1.512,3.341,3.341,0,0,1,2.95-1.512q3.052,0,3.136,3.692V0H-22.21V-6.336a1.914,1.914,0,0,0-.26-1.123,1.106,1.106,0,0,0-.946-.353,1.481,1.481,0,0,0-1.382.826l.009.13V0h-3.136V-6.318a2.011,2.011,0,0,0-.25-1.141,1.1,1.1,0,0,0-.956-.353,1.5,1.5,0,0,0-1.373.826V0H-33.63V-10.038ZM-7.969-4.945A6.053,6.053,0,0,1-9.022-1.211a3.376,3.376,0,0,1-2.844,1.4A2.894,2.894,0,0,1-14.139-.826V3.859h-3.126v-13.9h2.922l.093.928a2.894,2.894,0,0,1,2.366-1.113A3.4,3.4,0,0,1-9-8.855a6.128,6.128,0,0,1,1.03,3.762ZM-11.1-5.14q0-2.672-1.559-2.672a1.471,1.471,0,0,0-1.484.8v3.952a1.519,1.519,0,0,0,1.5.835q1.494,0,1.54-2.579ZM-.52-7.208l-1.03-.074a1.85,1.85,0,0,0-1.893.928V0H-6.568V-10.038h2.932l.1,1.29a2.421,2.421,0,0,1,2.2-1.475,3.049,3.049,0,0,1,.872.111ZM5.288.186A5.16,5.16,0,0,1,1.549-1.192,4.757,4.757,0,0,1,.121-4.778v-.26A6.165,6.165,0,0,1,.691-7.756,4.175,4.175,0,0,1,2.356-9.579a5.027,5.027,0,0,1,2.6-.645,4.345,4.345,0,0,1,3.34,1.313,5.159,5.159,0,0,1,1.225,3.66v1.215H3.3a2.253,2.253,0,0,0,.733,1.327A2.181,2.181,0,0,0,5.5-2.227,2.81,2.81,0,0,0,7.821-3.266L9.25-1.577A3.994,3.994,0,0,1,7.594-.292,5.6,5.6,0,0,1,5.288.186Zm-.353-8q-1.373,0-1.633,1.818H6.457v-.241A1.549,1.549,0,0,0,6.077-7.4,1.514,1.514,0,0,0,4.936-7.812Zm11.1,4.991a.722.722,0,0,0-.417-.64,6.35,6.35,0,0,0-1.586-.5,7.234,7.234,0,0,1-1.93-.682,3.232,3.232,0,0,1-1.16-1.025,2.448,2.448,0,0,1-.4-1.382A2.774,2.774,0,0,1,11.68-9.328a4.7,4.7,0,0,1,2.987-.9,5.208,5.208,0,0,1,3.191.9,2.814,2.814,0,0,1,1.206,2.366H15.929q0-1.206-1.271-1.206a1.26,1.26,0,0,0-.826.274.847.847,0,0,0-.334.682.778.778,0,0,0,.408.677,3.857,3.857,0,0,0,1.3.427,11.264,11.264,0,0,1,1.573.4,2.857,2.857,0,0,1,2.264,2.792,2.629,2.629,0,0,1-1.22,2.236,5.35,5.35,0,0,1-3.159.863,5.46,5.46,0,0,1-2.3-.464A3.847,3.847,0,0,1,10.79-1.54a2.857,2.857,0,0,1-.566-1.679h2.922A1.208,1.208,0,0,0,13.61-2.2a1.908,1.908,0,0,0,1.141.32,1.5,1.5,0,0,0,.96-.26A.831.831,0,0,0,16.031-2.82ZM26.162,0a3.53,3.53,0,0,1-.3-.9A2.907,2.907,0,0,1,23.453.186a3.562,3.562,0,0,1-2.412-.858,2.731,2.731,0,0,1-.993-2.157A2.807,2.807,0,0,1,21.254-5.3a6.144,6.144,0,0,1,3.507-.835h.965v-.531q0-1.389-1.2-1.389a.978.978,0,0,0-1.113,1.1H20.29a2.8,2.8,0,0,1,1.239-2.363,5.2,5.2,0,0,1,3.159-.908,4.563,4.563,0,0,1,3.034.937,3.258,3.258,0,0,1,1.141,2.57v4.444a4.551,4.551,0,0,0,.427,2.115V0ZM24.2-2.041a1.744,1.744,0,0,0,.969-.25,1.57,1.57,0,0,0,.552-.566v-1.6h-.909q-1.633,0-1.633,1.466a.9.9,0,0,0,.288.691A1.041,1.041,0,0,0,24.2-2.041Zm17.1.956A3.223,3.223,0,0,1,38.622.186a3.161,3.161,0,0,1-2.5-.96,4.038,4.038,0,0,1-.849-2.76v-6.5H38.4v6.522a1.124,1.124,0,0,0,1.252,1.29A1.634,1.634,0,0,0,41.182-3v-7.042h3.145V0H41.4ZM-55.01,18.888a5.925,5.925,0,0,1,.584-2.677,4.18,4.18,0,0,1,1.679-1.8,5.057,5.057,0,0,1,2.57-.631,4.616,4.616,0,0,1,3.553,1.4,5.358,5.358,0,0,1,1.3,3.8v.111a5.2,5.2,0,0,1-1.3,3.725,4.628,4.628,0,0,1-3.53,1.378A4.681,4.681,0,0,1-53.6,22.9,5.026,5.026,0,0,1-55,19.417Zm3.126.195a3.735,3.735,0,0,0,.436,2.041,1.453,1.453,0,0,0,1.29.649q1.67,0,1.707-2.57v-.315q0-2.7-1.726-2.7-1.568,0-1.7,2.329Zm14.009-2.292-1.03-.074a1.85,1.85,0,0,0-1.893.928V24h-3.126V13.962h2.932l.1,1.29a2.421,2.421,0,0,1,2.2-1.475,3.049,3.049,0,0,1,.872.111Zm.584,2.115a6.778,6.778,0,0,1,.5-2.69,4.033,4.033,0,0,1,1.438-1.8,3.791,3.791,0,0,1,2.18-.635,3.014,3.014,0,0,1,2.449,1.058l.111-.872h2.839V23.62a4.232,4.232,0,0,1-.617,2.305,3.959,3.959,0,0,1-1.786,1.5,6.564,6.564,0,0,1-2.709.524,5.663,5.663,0,0,1-2.138-.417A3.86,3.86,0,0,1-36.6,26.449l1.308-1.837a2.867,2.867,0,0,0,2.3,1.03,1.862,1.862,0,0,0,2.078-2.134v-.315a2.936,2.936,0,0,1-2.273.993,3.628,3.628,0,0,1-2.969-1.406,5.823,5.823,0,0,1-1.132-3.762Zm3.136.195a3.571,3.571,0,0,0,.464,1.953,1.464,1.464,0,0,0,1.3.719,1.661,1.661,0,0,0,1.475-.677V16.875a1.619,1.619,0,0,0-1.457-.687,1.473,1.473,0,0,0-1.308.747A4.072,4.072,0,0,0-34.155,19.1ZM-20.341,24a3.53,3.53,0,0,1-.3-.9,2.907,2.907,0,0,1-2.412,1.085,3.562,3.562,0,0,1-2.412-.858,2.731,2.731,0,0,1-.993-2.157A2.807,2.807,0,0,1-25.248,18.7a6.144,6.144,0,0,1,3.507-.835h.965v-.531q0-1.389-1.2-1.389a.978.978,0,0,0-1.113,1.1h-3.126a2.8,2.8,0,0,1,1.239-2.363,5.2,5.2,0,0,1,3.159-.908,4.563,4.563,0,0,1,3.034.937,3.258,3.258,0,0,1,1.141,2.57v4.444a4.551,4.551,0,0,0,.427,2.115V24ZM-22.3,21.959a1.744,1.744,0,0,0,.969-.25,1.57,1.57,0,0,0,.552-.566v-1.6h-.909q-1.633,0-1.633,1.466a.9.9,0,0,0,.288.691A1.041,1.041,0,0,0-22.3,21.959Zm9.259-8,.1,1.178a3.4,3.4,0,0,1,2.867-1.364,2.864,2.864,0,0,1,2.343.937,4.461,4.461,0,0,1,.8,2.82V24h-3.136V17.664a1.694,1.694,0,0,0-.306-1.118,1.416,1.416,0,0,0-1.113-.357,1.491,1.491,0,0,0-1.364.724V24h-3.126V13.962ZM-1.9,24H-5.033V13.962H-1.9ZM-5.219,11.374a1.4,1.4,0,0,1,.482-1.095,1.82,1.82,0,0,1,1.252-.427,1.82,1.82,0,0,1,1.252.427,1.4,1.4,0,0,1,.482,1.095,1.4,1.4,0,0,1-.482,1.095,1.82,1.82,0,0,1-1.252.427,1.82,1.82,0,0,1-1.252-.427A1.4,1.4,0,0,1-5.219,11.374ZM3.716,21.588H8.289V24H-.237V22.256l4.453-5.882H-.042V13.962H8.187V15.65ZM15.461,24a3.53,3.53,0,0,1-.3-.9,2.907,2.907,0,0,1-2.412,1.085,3.562,3.562,0,0,1-2.412-.858,2.731,2.731,0,0,1-.993-2.157A2.807,2.807,0,0,1,10.553,18.7a6.144,6.144,0,0,1,3.507-.835h.965v-.531q0-1.389-1.2-1.389a.978.978,0,0,0-1.113,1.1H9.588a2.8,2.8,0,0,1,1.239-2.363,5.2,5.2,0,0,1,3.159-.908,4.563,4.563,0,0,1,3.034.937,3.258,3.258,0,0,1,1.141,2.57v4.444a4.551,4.551,0,0,0,.427,2.115V24ZM13.5,21.959a1.744,1.744,0,0,0,.969-.25,1.57,1.57,0,0,0,.552-.566v-1.6h-.909q-1.633,0-1.633,1.466a.9.9,0,0,0,.288.691A1.041,1.041,0,0,0,13.5,21.959Zm10.632-.186a1.391,1.391,0,0,0,1.021-.357,1.31,1.31,0,0,0,.353-1H28.44a3.47,3.47,0,0,1-1.183,2.709,4.4,4.4,0,0,1-3.048,1.058,4.455,4.455,0,0,1-3.451-1.373,5.41,5.41,0,0,1-1.262-3.8v-.13a6.114,6.114,0,0,1,.561-2.686A4.087,4.087,0,0,1,21.677,14.4a4.827,4.827,0,0,1,2.5-.626,4.344,4.344,0,0,1,3.108,1.085A3.85,3.85,0,0,1,28.44,17.8H25.508a1.716,1.716,0,0,0-.38-1.2,1.313,1.313,0,0,0-1.021-.417q-1.215,0-1.419,1.549a10.932,10.932,0,0,0-.065,1.354,4.294,4.294,0,0,0,.362,2.1A1.253,1.253,0,0,0,24.135,21.773ZM33.06,24H29.924V13.962H33.06ZM29.739,11.374a1.4,1.4,0,0,1,.482-1.095,2.051,2.051,0,0,1,2.5,0,1.483,1.483,0,0,1,0,2.189,2.051,2.051,0,0,1-2.5,0A1.4,1.4,0,0,1,29.739,11.374Zm4.852,7.515a5.925,5.925,0,0,1,.584-2.677,4.18,4.18,0,0,1,1.679-1.8,5.057,5.057,0,0,1,2.57-.631,4.616,4.616,0,0,1,3.553,1.4,5.358,5.358,0,0,1,1.3,3.8v.111a5.2,5.2,0,0,1-1.3,3.725,4.628,4.628,0,0,1-3.53,1.378A4.681,4.681,0,0,1,36,22.9a5.026,5.026,0,0,1-1.4-3.484Zm3.126.195a3.735,3.735,0,0,0,.436,2.041,1.453,1.453,0,0,0,1.29.649q1.67,0,1.707-2.57v-.315q0-2.7-1.726-2.7-1.568,0-1.7,2.329ZM39.851,9.75h3.3l-2.579,2.913-2.551,0Zm8.674,4.212.1,1.178a3.4,3.4,0,0,1,2.867-1.364,2.864,2.864,0,0,1,2.343.937,4.461,4.461,0,0,1,.8,2.82V24H51.5V17.664a1.694,1.694,0,0,0-.306-1.118,1.416,1.416,0,0,0-1.113-.357,1.491,1.491,0,0,0-1.364.724V24H45.594V13.962Z" transform="translate(883.131 353.483)" fill="#12263f"/>
      <path id="Trazado_156536" data-name="Trazado 156536" d="M833.747,271.542l-15.648-4.8,2.784,3.523L809.56,279.21,820.694,293.3l11.323-8.947,2.783,3.523Z" fill="#f85316"/>
      <path id="Trazado_156537" data-name="Trazado 156537" d="M948.747,288.5,933.1,293.3l2.784-3.523-11.323-8.947,11.134-14.091,11.323,8.947,2.783-3.523Z" fill="#f85316"/>
      <path id="Trazado_156538" data-name="Trazado 156538" d="M971.156,401.205l15.515-5.214-4.315-1.241,3.99-13.869-17.259-4.965-3.99,13.869-4.315-1.241Z" fill="#f85316"/>
      <path id="Trazado_156539" data-name="Trazado 156539" d="M873.571,453.8l9.3,13.469v-4.49H897.3V444.823H882.871v-4.49Z" fill="#f85316"/>
      <path id="Trazado_156540" data-name="Trazado 156540" d="M786.591,375.916l15.756,4.433L798.1,381.8l4.677,13.652-16.99,5.82-4.677-13.652-4.247,1.455Z" fill="#f85316"/>
    </g>
  </g>
</svg>
