<svg xmlns="http://www.w3.org/2000/svg" width="66.313" height="81.226" viewBox="0 0 66.313 81.226">
  <g id="documento" transform="translate(0)">
    <path id="Trazado_158299" data-name="Trazado 158299" d="M50.613,64H13.173A3.173,3.173,0,0,0,10,67.173v63.14a3.173,3.173,0,0,0,3.173,3.173H61.4a3.173,3.173,0,0,0,3.173-3.173V77.961Zm0,0" transform="translate(-8.414 -53.847)" fill="#dce736"/>
    <path id="Trazado_158300" data-name="Trazado 158300" d="M104.613,10H67.173A3.173,3.173,0,0,0,64,13.173v63.14a3.173,3.173,0,0,0,3.173,3.173H115.4a3.173,3.173,0,0,0,3.173-3.173V23.961Zm0,0" transform="translate(-53.847 -8.414)" fill="#fff"/>
    <path id="Trazado_158301" data-name="Trazado 158301" d="M104.613,10H67.173A3.173,3.173,0,0,0,64,13.173v63.14a3.173,3.173,0,0,0,3.173,3.173H115.4a3.173,3.173,0,0,0,3.173-3.173V23.961Zm0,0" transform="translate(-53.847 -8.414)" fill="#fff"/>
    <path id="Trazado_158302" data-name="Trazado 158302" d="M127.543,64H161.81V74.153H127.543Zm0,0" transform="translate(-107.309 -53.847)" fill="#f85316"/>
    <path id="Trazado_158303" data-name="Trazado 158303" d="M333.961,23.961h-9.6A4.363,4.363,0,0,1,320,19.6V10Zm0,0" transform="translate(-269.234 -8.414)" fill="#dce736"/>
    <path id="Trazado_158304" data-name="Trazado 158304" d="M65.848,14.425,51.887.465A1.586,1.586,0,0,0,50.766,0H13.326A4.765,4.765,0,0,0,8.566,4.759V8.567H4.759A4.765,4.765,0,0,0,0,13.326v63.14a4.765,4.765,0,0,0,4.759,4.759H52.987a4.765,4.765,0,0,0,4.759-4.759V72.659h3.807A4.765,4.765,0,0,0,66.313,67.9V49.655a1.586,1.586,0,1,0-3.173,0V67.9a1.588,1.588,0,0,1-1.586,1.586H13.326A1.588,1.588,0,0,1,11.739,67.9V4.759a1.588,1.588,0,0,1,1.586-1.586H49.179V8.567H20.234a1.586,1.586,0,0,0-1.586,1.586V20.306a1.586,1.586,0,0,0,1.586,1.586H54.5a1.586,1.586,0,0,0,1.586-1.586V17.134H63.14V36.753a1.586,1.586,0,1,0,3.173,0V15.547a1.586,1.586,0,0,0-.465-1.122ZM13.326,72.659H54.573v3.807a1.588,1.588,0,0,1-1.586,1.586H4.759a1.588,1.588,0,0,1-1.586-1.586V13.326A1.588,1.588,0,0,1,4.759,11.74H8.566V67.9A4.765,4.765,0,0,0,13.326,72.659ZM21.82,18.72V11.74H49.206A5.962,5.962,0,0,0,52.914,16.7V18.72Zm33.308-4.759a2.78,2.78,0,0,1-2.776-2.776V5.417l4.272,4.272L60.9,13.961Zm0,0"/>
    <path id="Trazado_158305" data-name="Trazado 158305" d="M399.586,262a1.587,1.587,0,1,0,1.122.465A1.6,1.6,0,0,0,399.586,262Zm0,0" transform="translate(-334.86 -220.435)"/>
    <path id="Trazado_158306" data-name="Trazado 158306" d="M119.125,169.173a1.587,1.587,0,1,0-1.122-.465A1.6,1.6,0,0,0,119.125,169.173Zm0,0" transform="translate(-98.892 -139.665)"/>
    <path id="Trazado_158307" data-name="Trazado 158307" d="M153.4,214H119.129a1.586,1.586,0,1,0,0,3.173H153.4a1.586,1.586,0,1,0,0-3.173Zm0,0" transform="translate(-98.896 -180.05)"/>
    <path id="Trazado_158308" data-name="Trazado 158308" d="M153.4,262H119.129a1.586,1.586,0,1,0,0,3.173H153.4a1.586,1.586,0,1,0,0-3.173Zm0,0" transform="translate(-98.896 -220.435)"/>
    <path id="Trazado_158309" data-name="Trazado 158309" d="M153.4,310H119.129a1.586,1.586,0,1,0,0,3.173H153.4a1.586,1.586,0,1,0,0-3.173Zm0,0" transform="translate(-98.896 -260.82)"/>
    <path id="Trazado_158310" data-name="Trazado 158310" d="M153.4,358H119.129a1.586,1.586,0,1,0,0,3.173H153.4a1.586,1.586,0,1,0,0-3.173Zm0,0" transform="translate(-98.896 -301.206)"/>
    <path id="Trazado_158311" data-name="Trazado 158311" d="M187.563,166H159.738a1.586,1.586,0,1,0,0,3.173h27.825a1.586,1.586,0,0,0,0-3.173Zm0,0" transform="translate(-133.062 -139.665)"/>
  </g>
</svg>
