<svg xmlns="http://www.w3.org/2000/svg" xmlns:xlink="http://www.w3.org/1999/xlink" width="429" height="267" viewBox="0 0 429 267">
  <defs>
    <filter id="Rectángulo_36783" x="0" y="0" width="428" height="267" filterUnits="userSpaceOnUse">
      <feOffset dy="3" input="SourceAlpha"/>
      <feGaussianBlur stdDeviation="3" result="blur"/>
      <feFlood flood-opacity="0.161"/>
      <feComposite operator="in" in2="blur"/>
      <feComposite in="SourceGraphic"/>
    </filter>
  </defs>
  <g id="Grupo_108217" data-name="Grupo 108217" transform="translate(-906 -4992)">
    <path id="Trazado_113543" data-name="Trazado 113543" d="M314,0H0V99H314Z" transform="translate(1021 5158)" fill="#dce736"/>
    <g transform="matrix(1, 0, 0, 1, 906, 4992)" filter="url(#Rectángulo_36783)">
      <path id="Rectángulo_36783-2" data-name="Rectángulo 36783" d="M114,0H410a0,0,0,0,1,0,0V249a0,0,0,0,1,0,0H114A114,114,0,0,1,0,135V114A114,114,0,0,1,114,0Z" transform="translate(9 6)" fill="#f6f6f6"/>
    </g>
    <g id="Grupo_108226" data-name="Grupo 108226" transform="translate(168 11392.604)">
      <g id="Rectángulo_40101" data-name="Rectángulo 40101" transform="translate(1063 -6330.604)" fill="#fff" stroke="#75b62f" stroke-width="2">
        <rect width="68" height="26" rx="5" stroke="none"/>
        <rect x="1" y="1" width="66" height="24" rx="4" fill="none"/>
      </g>
      <g id="Rectángulo_40100" data-name="Rectángulo 40100" transform="translate(773 -6330.604)" fill="#fff" stroke="#75b62f" stroke-width="2">
        <rect width="68" height="26" rx="5" stroke="none"/>
        <rect x="1" y="1" width="66" height="24" rx="4" fill="none"/>
      </g>
      <path id="Trazado_158007" data-name="Trazado 158007" d="M854-6316h72.205" transform="translate(-10.957 -2.029)" fill="none" stroke="#75b62f" stroke-width="2" stroke-dasharray="3 3"/>
      <path id="Trazado_158008" data-name="Trazado 158008" d="M854-6316h72.205" transform="translate(133.886 -2.029)" fill="none" stroke="#75b62f" stroke-width="2" stroke-dasharray="3 3"/>
      <path id="Trazado_158009" data-name="Trazado 158009" d="M932.823-6309l-99.156,33.725" transform="translate(-8.206 -2.976)" fill="none" stroke="#f85316" stroke-width="2"/>
      <path id="Trazado_158012" data-name="Trazado 158012" d="M833.667-6309l99.156,33.725" transform="translate(145.14 -2.976)" fill="none" stroke="#f85316" stroke-width="2"/>
      <path id="Trazado_158010" data-name="Trazado 158010" d="M967.325-6306.333,914-6275.491" transform="translate(-19.072 -3.337)" fill="none" stroke="#f85316" stroke-width="2"/>
      <path id="Trazado_158011" data-name="Trazado 158011" d="M914-6306.333l53.325,30.842" transform="translate(41.171 -3.337)" fill="none" stroke="#f85316" stroke-width="2"/>
      <g id="Rectángulo_40099" data-name="Rectángulo 40099" transform="translate(917 -6330.604)" fill="#fff" stroke="#f85316" stroke-width="2">
        <rect width="69" height="26" rx="5" stroke="none"/>
        <rect x="1" y="1" width="67" height="24" rx="4" fill="none"/>
      </g>
      <path id="Trazado_158013" data-name="Trazado 158013" d="M812.5-6254.5v40.5" transform="translate(-5.343 -10.348)" fill="none" stroke="#3d46c2" stroke-width="2"/>
      <path id="Trazado_158014" data-name="Trazado 158014" d="M812.5-6254.5v40.5" transform="translate(89.778 -10.348)" fill="none" stroke="#3d46c2" stroke-width="2"/>
      <path id="Trazado_158015" data-name="Trazado 158015" d="M812.5-6254.5v40.5" transform="translate(183.169 -10.348)" fill="none" stroke="#3d46c2" stroke-width="2"/>
      <path id="Trazado_158016" data-name="Trazado 158016" d="M812.5-6254.5v40.5" transform="translate(284.343 -10.348)" fill="none" stroke="#3d46c2" stroke-width="2"/>
      <g id="Rectángulo_40109" data-name="Rectángulo 40109" transform="translate(773 -6234.604)" fill="#fff" stroke="#f85316" stroke-width="2">
        <rect width="68" height="26" rx="5" stroke="none"/>
        <rect x="1" y="1" width="66" height="24" rx="4" fill="none"/>
      </g>
      <g id="Rectángulo_40108" data-name="Rectángulo 40108" transform="translate(868 -6234.604)" fill="#fff" stroke="#f85316" stroke-width="2">
        <rect width="68" height="26" rx="5" stroke="none"/>
        <rect x="1" y="1" width="66" height="24" rx="4" fill="none"/>
      </g>
      <g id="Rectángulo_40107" data-name="Rectángulo 40107" transform="translate(962 -6234.604)" fill="#fff" stroke="#f85316" stroke-width="2">
        <rect width="68" height="26" rx="5" stroke="none"/>
        <rect x="1" y="1" width="66" height="24" rx="4" fill="none"/>
      </g>
      <g id="Rectángulo_40106" data-name="Rectángulo 40106" transform="translate(1063 -6234.604)" fill="#fff" stroke="#f85316" stroke-width="2">
        <rect width="68" height="26" rx="5" stroke="none"/>
        <rect x="1" y="1" width="66" height="24" rx="4" fill="none"/>
      </g>
      <g id="Rectángulo_40102" data-name="Rectángulo 40102" transform="translate(773 -6281.604)" fill="#fff" stroke="#3d46c2" stroke-width="2">
        <rect width="68" height="26" rx="5" stroke="none"/>
        <rect x="1" y="1" width="66" height="24" rx="4" fill="none"/>
      </g>
      <g id="Rectángulo_40103" data-name="Rectángulo 40103" transform="translate(868 -6281.604)" fill="#fff" stroke="#3d46c2" stroke-width="2">
        <rect width="68" height="26" rx="5" stroke="none"/>
        <rect x="1" y="1" width="66" height="24" rx="4" fill="none"/>
      </g>
      <g id="Rectángulo_40104" data-name="Rectángulo 40104" transform="translate(962 -6281.604)" fill="#fff" stroke="#3d46c2" stroke-width="2">
        <rect width="68" height="26" rx="5" stroke="none"/>
        <rect x="1" y="1" width="66" height="24" rx="4" fill="none"/>
      </g>
      <g id="Rectángulo_40105" data-name="Rectángulo 40105" transform="translate(1063 -6281.604)" fill="#fff" stroke="#3d46c2" stroke-width="2">
        <rect width="68" height="26" rx="5" stroke="none"/>
        <rect x="1" y="1" width="66" height="24" rx="4" fill="none"/>
      </g>
    </g>
  </g>
</svg>
