<svg xmlns="http://www.w3.org/2000/svg" width="190" height="110" viewBox="0 0 190 110">
  <g id="Grupo_108389" data-name="Grupo 108389" transform="translate(-180 -9088)">
    <rect id="Rect치ngulo_36775" data-name="Rect치ngulo 36775" width="190" height="110" transform="translate(180 9088)" fill="none"/>
    <rect id="Rect치ngulo_36776" data-name="Rect치ngulo 36776" width="161" height="75" rx="37.5" transform="translate(195 9106)" fill="#dce736" opacity="0.2"/>
    <g id="gerente" transform="translate(231 9099)">
      <g id="Grupo_108370" data-name="Grupo 108370" transform="translate(1.406 1.406)">
        <path id="Trazado_158336" data-name="Trazado 158336" d="M54.291,8A2.637,2.637,0,0,1,56.9,10.245l1.108,7.369a34.382,34.382,0,0,1,13.078,5.419l6-4.429a2.637,2.637,0,0,1,3.431.256l3.814,3.814a2.637,2.637,0,0,1,.256,3.431l-4.429,6a34.38,34.38,0,0,1,5.419,13.078l7.369,1.108A2.637,2.637,0,0,1,95.187,48.9v5.395A2.637,2.637,0,0,1,92.942,56.9l-7.369,1.108a34.382,34.382,0,0,1-5.419,13.078l4.429,6a2.637,2.637,0,0,1-.256,3.431l-3.814,3.814a2.637,2.637,0,0,1-3.431.256L68.7,78.357a14.561,14.561,0,0,0-3.413-4.236,26.361,26.361,0,1,0-27.394,0,14.561,14.561,0,0,0-3.413,4.236l-8.376,6.226a2.637,2.637,0,0,1-3.431-.256l-3.814-3.814a2.637,2.637,0,0,1-.256-3.431l4.429-6a34.382,34.382,0,0,1-5.419-13.078L10.245,56.9A2.636,2.636,0,0,1,8,54.291V48.9a2.637,2.637,0,0,1,2.245-2.608l7.37-1.108A34.382,34.382,0,0,1,23.034,32.1l-4.429-6a2.637,2.637,0,0,1,.256-3.431l3.814-3.814a2.637,2.637,0,0,1,3.431-.256l6,4.429a34.382,34.382,0,0,1,13.078-5.419l1.108-7.369A2.637,2.637,0,0,1,48.9,8Z" transform="translate(-8 -8)" fill="#f85316"/>
        <path id="Trazado_158337" data-name="Trazado 158337" d="M158.551,163.578a19.292,19.292,0,0,1-1.788-12.023c1.72-9.492,16.871-18.777,23.769-8.077,0,0,15.071-2.424,9.151,20.62Z" transform="translate(-130.372 -115.723)" fill="#727997"/>
        <path id="Trazado_158338" data-name="Trazado 158338" d="M186.612,389.014h-37.62V379A14.506,14.506,0,0,1,163.5,364.491h8.608A14.506,14.506,0,0,1,186.612,379Z" transform="translate(-124.209 -301.827)" fill="#96e83c"/>
        <path id="Trazado_158339" data-name="Trazado 158339" d="M148.993,486h37.62v3.164h-37.62Z" transform="translate(-124.209 -401.977)" fill="#75b62f"/>
        <path id="Trazado_158340" data-name="Trazado 158340" d="M168.713,275.292v-4.718a3.926,3.926,0,1,0,.394,7.749,11.789,11.789,0,0,1-.394-3.03Z" transform="translate(-136.892 -224.401)" fill="#f4b184"/>
        <path id="Trazado_158341" data-name="Trazado 158341" d="M321.533,270.552a3.969,3.969,0,0,0-.406.021v4.718a11.791,11.791,0,0,1-.394,3.03,3.926,3.926,0,1,0,.8-7.769Z" transform="translate(-265.76 -224.4)" fill="#f4b184"/>
        <path id="Trazado_158342" data-name="Trazado 158342" d="M168.713,286.209a3.927,3.927,0,0,1-4-2.323,3.927,3.927,0,0,0,4.393,5.426,11.789,11.789,0,0,1-.394-3.03Z" transform="translate(-136.892 -235.391)" fill="#eaa678"/>
        <path id="Trazado_158343" data-name="Trazado 158343" d="M321.534,286.229a3.911,3.911,0,0,1-.406-.021v.073a11.789,11.789,0,0,1-.394,3.03,3.926,3.926,0,0,0,4.393-5.426A3.926,3.926,0,0,1,321.534,286.229Z" transform="translate(-265.761 -235.39)" fill="#eaa678"/>
        <path id="Trazado_158344" data-name="Trazado 158344" d="M238.227,369.829h-4.364l-2.073-5.338h8.51Z" transform="translate(-192.452 -301.827)" fill="#f6f4e6"/>
        <path id="Trazado_158345" data-name="Trazado 158345" d="M234.154,394.858h4.364l2.011,11.021-4.193,4.236-4.194-4.236Z" transform="translate(-192.743 -326.856)" fill="#f6f4e6"/>
        <path id="Trazado_158346" data-name="Trazado 158346" d="M235.712,445.471l-3.081-3.113-.487,2.672,4.194,4.236,4.193-4.236-.487-2.672-3.081,3.112a.879.879,0,0,1-1.249,0Z" transform="translate(-192.743 -366.006)" fill="#d2d2d2"/>
        <path id="Trazado_158347" data-name="Trazado 158347" d="M205.728,200.739c-4.842,6.428-16.7,7.865-16.7,7.865v9.147a11.773,11.773,0,1,0,23.547,0v-8.941S208.1,207,205.728,200.739Z" transform="translate(-157.203 -166.859)" fill="#ffc89f"/>
        <path id="Trazado_158348" data-name="Trazado 158348" d="M200.8,291.287a11.773,11.773,0,0,1-11.773-11.773v3.164a11.773,11.773,0,1,0,23.547,0v-3.164A11.773,11.773,0,0,1,200.8,291.287Z" transform="translate(-157.203 -231.787)" fill="#f7bc94"/>
        <g id="Grupo_108369" data-name="Grupo 108369" transform="translate(17.232 45.17)">
          <g id="Grupo_108368" data-name="Grupo 108368">
            <path id="Trazado_158349" data-name="Trazado 158349" d="M346.587,266.558c0-.533-.018-1.062-.049-1.587a26.351,26.351,0,0,1-12.615,20.95,14.608,14.608,0,0,1,1.868,1.912A26.322,26.322,0,0,0,346.587,266.558Z" transform="translate(-293.865 -264.971)" fill="#fc2b3a"/>
            <path id="Trazado_158350" data-name="Trazado 158350" d="M106.083,264.97c-.031.525-.049,1.054-.049,1.587a26.323,26.323,0,0,0,10.8,21.275,14.627,14.627,0,0,1,1.868-1.912A26.351,26.351,0,0,1,106.083,264.97Z" transform="translate(-106.034 -264.97)" fill="#fc2b3a"/>
          </g>
        </g>
      </g>
      <g id="Grupo_108371" data-name="Grupo 108371" transform="translate(0 0)">
        <path id="Trazado_158351" data-name="Trazado 158351" d="M217.287,274.742a1.321,1.321,0,0,0,1.321-1.321v-2.645a1.321,1.321,0,0,0-2.642,0v2.645A1.321,1.321,0,0,0,217.287,274.742Z" transform="translate(-178.003 -222.09)" fill="#12263f"/>
        <path id="Trazado_158352" data-name="Trazado 158352" d="M282.324,274.742a1.321,1.321,0,0,0,1.321-1.321v-2.645a1.321,1.321,0,0,0-2.642,0v2.645A1.321,1.321,0,0,0,282.324,274.742Z" transform="translate(-231.608 -222.09)" fill="#12263f"/>
        <path id="Trazado_158353" data-name="Trazado 158353" d="M237.489,314.692a3.979,3.979,0,0,0,3.8-2.189,1.357,1.357,0,0,0,.145-.6,1.323,1.323,0,0,0-2.569-.447c-.052.1-.359.6-1.379.6s-1.328-.5-1.379-.6a1.323,1.323,0,0,0-2.569.447,1.357,1.357,0,0,0,.145.6A3.979,3.979,0,0,0,237.489,314.692Z" transform="translate(-192.489 -255.983)" fill="#12263f"/>
        <path id="Trazado_158354" data-name="Trazado 158354" d="M86.626,38.379l-6.468-.972a35.529,35.529,0,0,0-4.93-11.9l3.888-5.263a3.939,3.939,0,0,0-.385-5.157l-3.822-3.822a3.939,3.939,0,0,0-5.157-.385l-5.263,3.888a35.531,35.531,0,0,0-11.9-4.93l-.972-6.468A3.939,3.939,0,0,0,47.7,0H42.3a3.939,3.939,0,0,0-3.919,3.374l-.972,6.468a35.534,35.534,0,0,0-11.9,4.93l-5.263-3.888a3.939,3.939,0,0,0-5.157.386l-3.822,3.822a3.939,3.939,0,0,0-.385,5.157l3.888,5.263a35.533,35.533,0,0,0-4.93,11.9l-6.468.972A3.939,3.939,0,0,0,0,42.3V47.7a3.939,3.939,0,0,0,3.374,3.919l6.468.972a35.535,35.535,0,0,0,4.93,11.9l-3.888,5.263a3.939,3.939,0,0,0,.385,5.156l3.822,3.822a3.94,3.94,0,0,0,5.16.383l4.9-3.645a15.857,15.857,0,0,0-.323,3.174V88.679A1.321,1.321,0,0,0,26.154,90H63.847a1.321,1.321,0,0,0,1.321-1.321V78.642a15.857,15.857,0,0,0-.323-3.174l4.908,3.648a3.939,3.939,0,0,0,5.157-.385l3.822-3.822a3.939,3.939,0,0,0,.385-5.157l-3.888-5.263a36.011,36.011,0,0,0,2.151-3.823A1.321,1.321,0,1,0,75,59.513a33.375,33.375,0,0,1-2.476,4.27,1.321,1.321,0,0,0,.028,1.531l4.438,6.008a1.313,1.313,0,0,1-.128,1.719l-3.822,3.822a1.312,1.312,0,0,1-1.716.131L63.154,70.92a15.94,15.94,0,0,0-2.317-3.151A27.722,27.722,0,1,0,18.9,54.4a1.321,1.321,0,0,0,2.485-.9A25.1,25.1,0,1,1,58.8,65.954,15.784,15.784,0,0,0,52.45,63.1a13.18,13.18,0,0,0,4.894-6.352,5.253,5.253,0,0,0,4.792-7.061c2.2-8.827,1.634-15.147-1.685-18.786a10.47,10.47,0,0,0-8.218-3.152c-3.913-5.364-10.563-6.267-17.17-2.246a1.321,1.321,0,1,0,1.374,2.257c4.405-2.681,10.4-3.54,14.033,2.088a1.327,1.327,0,0,0,1.315.589c.041-.007,4.144-.6,6.731,2.264,2.4,2.658,2.916,7.6,1.51,14.369a5.22,5.22,0,0,0-1.908-.745v-2.97a1.333,1.333,0,0,0-.818-1.222c-.163-.068-4-1.732-6.123-7.332a1.33,1.33,0,0,0-2.29-.327c-4.452,5.909-15.728,7.35-15.841,7.363a1.321,1.321,0,0,0-1.162,1.311v3.176a5.217,5.217,0,0,0-1.876.724,18.273,18.273,0,0,1-.943-9.589,13.619,13.619,0,0,1,3.557-6.58,1.321,1.321,0,1,0-1.937-1.8,16.274,16.274,0,0,0-4.219,7.906,20.8,20.8,0,0,0,1.592,12.245,5.251,5.251,0,0,0,4.6,7.514A13.18,13.18,0,0,0,37.55,63.1,15.787,15.787,0,0,0,31.2,65.955a25.325,25.325,0,0,1-7.633-7.907,1.321,1.321,0,0,0-2.255,1.376,27.979,27.979,0,0,0,7.856,8.346,15.929,15.929,0,0,0-2.317,3.151l-8.169,6.071a1.312,1.312,0,0,1-1.719-.128L13.137,73.04a1.313,1.313,0,0,1-.128-1.719l4.438-6.008a1.321,1.321,0,0,0,.028-1.531,32.96,32.96,0,0,1-5.222-12.6,1.321,1.321,0,0,0-1.1-1.063l-7.384-1.11A1.313,1.313,0,0,1,2.642,47.7V42.3a1.313,1.313,0,0,1,1.124-1.306l7.384-1.11a1.321,1.321,0,0,0,1.1-1.063,32.958,32.958,0,0,1,5.222-12.6,1.32,1.32,0,0,0-.028-1.53l-4.438-6.008a1.313,1.313,0,0,1,.128-1.719l3.822-3.822a1.313,1.313,0,0,1,1.719-.128l6.008,4.438a1.321,1.321,0,0,0,1.53.028,32.96,32.96,0,0,1,12.6-5.222,1.321,1.321,0,0,0,1.063-1.1l1.11-7.384A1.313,1.313,0,0,1,42.3,2.642H47.7a1.313,1.313,0,0,1,1.306,1.125l1.11,7.384a1.321,1.321,0,0,0,1.063,1.1,32.958,32.958,0,0,1,12.6,5.222,1.321,1.321,0,0,0,1.53-.028l6.008-4.438a1.314,1.314,0,0,1,1.719.128l3.822,3.822a1.313,1.313,0,0,1,.128,1.719l-4.438,6.008a1.321,1.321,0,0,0-.028,1.53,32.958,32.958,0,0,1,5.222,12.6,1.321,1.321,0,0,0,1.1,1.063l7.384,1.11A1.313,1.313,0,0,1,87.357,42.3V47.7a1.313,1.313,0,0,1-1.125,1.306l-7.384,1.11a1.321,1.321,0,0,0-1.1,1.063,33.227,33.227,0,0,1-.915,3.694,1.321,1.321,0,1,0,2.524.782c.311-1,.58-2.031.8-3.063l6.468-.972A3.939,3.939,0,0,0,90,47.7V42.3a3.939,3.939,0,0,0-3.374-3.919ZM58.117,52.312V49.052a2.609,2.609,0,0,1-.11,4.928A13.175,13.175,0,0,0,58.117,52.312ZM30.184,51.5a2.614,2.614,0,0,1,1.7-2.444v3.259a13.174,13.174,0,0,0,.11,1.669A2.616,2.616,0,0,1,30.184,51.5Zm4.34.815V44.28a41.715,41.715,0,0,0,5.637-1.4,24.074,24.074,0,0,0,9.4-5.2,15.473,15.473,0,0,0,5.913,6.483v8.152a10.475,10.475,0,0,1-20.951,0Zm9.39,18.465h2.17l1.693,9.282L45,82.865l-2.779-2.807Zm-1.249-5.348h4.667l-1.051,2.706H43.717ZM27.474,78.642A13.228,13.228,0,0,1,39.843,65.459l1.6,4.128L39.5,80.262a1.321,1.321,0,0,0,.361,1.166l4.2,4.244a1.329,1.329,0,0,0,1.878,0l4.2-4.244a1.321,1.321,0,0,0,.361-1.166L48.552,69.586l1.6-4.128a13.229,13.229,0,0,1,12.37,13.184v8.716h-4.8V80.439a1.321,1.321,0,0,0-2.642,0v6.919H34.92V80.439a1.321,1.321,0,1,0-2.642,0v6.919h-4.8Z" transform="translate(0 0)" fill="#12263f"/>
      </g>
    </g>
  </g>
</svg>
