<svg xmlns="http://www.w3.org/2000/svg" xmlns:xlink="http://www.w3.org/1999/xlink" width="429" height="267" viewBox="0 0 429 267">
  <defs>
    <filter id="Rectángulo_36783" x="0" y="0" width="428" height="267" filterUnits="userSpaceOnUse">
      <feOffset dy="3" input="SourceAlpha"/>
      <feGaussianBlur stdDeviation="3" result="blur"/>
      <feFlood flood-opacity="0.161"/>
      <feComposite operator="in" in2="blur"/>
      <feComposite in="SourceGraphic"/>
    </filter>
  </defs>
  <g id="Grupo_108215" data-name="Grupo 108215" transform="translate(-906 -4992)">
    <path id="Trazado_113543" data-name="Trazado 113543" d="M314,0H0V99H314Z" transform="translate(1021 5158)" fill="#3d46c2"/>
    <g transform="matrix(1, 0, 0, 1, 906, 4992)" filter="url(#Rectángulo_36783)">
      <path id="Rectángulo_36783-2" data-name="Rectángulo 36783" d="M114,0H410a0,0,0,0,1,0,0V249a0,0,0,0,1,0,0H114A114,114,0,0,1,0,135V114A114,114,0,0,1,114,0Z" transform="translate(9 6)" fill="#f6f6f6"/>
    </g>
    <g id="Grupo_108225" data-name="Grupo 108225" transform="translate(2154 11270.621)">
      <path id="Trazado_158002" data-name="Trazado 158002" d="M-1011-6199.5v126.071" transform="translate(-10 -2.219)" fill="none" stroke="#3d46c2" stroke-width="3"/>
      <g id="Rectángulo_40086" data-name="Rectángulo 40086" transform="translate(-1073 -6236.621)" fill="#fff" stroke="#3d46c2" stroke-width="3">
        <rect width="104" height="50" rx="12" stroke="none"/>
        <rect x="1.5" y="1.5" width="101" height="47" rx="10.5" fill="none"/>
      </g>
      <path id="Trazado_158003" data-name="Trazado 158003" d="M-1133-6071.595V-6168.5h230.033v96.905" transform="translate(-2.781 -4.053)" fill="none" stroke="#3d46c2" stroke-width="3"/>
      <g id="Rectángulo_40088" data-name="Rectángulo 40088" transform="translate(-1178 -6155.621)" fill="#fff" stroke="#3d46c2" stroke-width="3">
        <rect width="85" height="50" rx="12" stroke="none"/>
        <rect x="1.5" y="1.5" width="82" height="47" rx="10.5" fill="none"/>
      </g>
      <g id="Rectángulo_40089" data-name="Rectángulo 40089" transform="translate(-949 -6155.621)" fill="#fff" stroke="#3d46c2" stroke-width="3">
        <rect width="85" height="50" rx="12" stroke="none"/>
        <rect x="1.5" y="1.5" width="82" height="47" rx="10.5" fill="none"/>
      </g>
      <g id="Rectángulo_40087" data-name="Rectángulo 40087" transform="translate(-1063 -6155.621)" fill="#fff" stroke="#3d46c2" stroke-width="3">
        <rect width="84" height="50" rx="12" stroke="none"/>
        <rect x="1.5" y="1.5" width="81" height="47" rx="10.5" fill="none"/>
      </g>
      <path id="Trazado_158004" data-name="Trazado 158004" d="M-1164-6066.752v-19.914h60.84v19.914" transform="translate(-2.201 -8.895)" fill="none" stroke="#3d46c2" stroke-width="3"/>
      <path id="Trazado_158005" data-name="Trazado 158005" d="M-1164-6066.752v-19.914h60.84v19.914" transform="translate(112.815 -8.895)" fill="none" stroke="#3d46c2" stroke-width="3"/>
      <path id="Trazado_158006" data-name="Trazado 158006" d="M-1164-6066.752v-19.914h60.84v19.914" transform="translate(227.831 -8.895)" fill="none" stroke="#3d46c2" stroke-width="3"/>
      <g id="Rectángulo_40090" data-name="Rectángulo 40090" transform="translate(-1180 -6085.621)" fill="#fff" stroke="#3d46c2" stroke-width="3">
        <rect width="27" height="27" rx="9" stroke="none"/>
        <rect x="1.5" y="1.5" width="24" height="24" rx="7.5" fill="none"/>
      </g>
      <g id="Rectángulo_40095" data-name="Rectángulo 40095" transform="translate(-1065 -6085.621)" fill="#fff" stroke="#3d46c2" stroke-width="3">
        <rect width="27" height="27" rx="9" stroke="none"/>
        <rect x="1.5" y="1.5" width="24" height="24" rx="7.5" fill="none"/>
      </g>
      <g id="Rectángulo_40091" data-name="Rectángulo 40091" transform="translate(-1149 -6085.621)" fill="#fff" stroke="#3d46c2" stroke-width="3">
        <rect width="27" height="27" rx="9" stroke="none"/>
        <rect x="1.5" y="1.5" width="24" height="24" rx="7.5" fill="none"/>
      </g>
      <g id="Rectángulo_40094" data-name="Rectángulo 40094" transform="translate(-1034 -6085.621)" fill="#fff" stroke="#3d46c2" stroke-width="3">
        <rect width="27" height="27" rx="9" stroke="none"/>
        <rect x="1.5" y="1.5" width="24" height="24" rx="7.5" fill="none"/>
      </g>
      <g id="Rectángulo_40092" data-name="Rectángulo 40092" transform="translate(-1119 -6085.621)" fill="#fff" stroke="#3d46c2" stroke-width="3">
        <rect width="27" height="27" rx="9" stroke="none"/>
        <rect x="1.5" y="1.5" width="24" height="24" rx="7.5" fill="none"/>
      </g>
      <g id="Rectángulo_40093" data-name="Rectángulo 40093" transform="translate(-1004 -6085.621)" fill="#fff" stroke="#3d46c2" stroke-width="3">
        <rect width="27" height="27" rx="9" stroke="none"/>
        <rect x="1.5" y="1.5" width="24" height="24" rx="7.5" fill="none"/>
      </g>
      <g id="Rectángulo_40096" data-name="Rectángulo 40096" transform="translate(-949 -6085.621)" fill="#fff" stroke="#3d46c2" stroke-width="3">
        <rect width="27" height="27" rx="9" stroke="none"/>
        <rect x="1.5" y="1.5" width="24" height="24" rx="7.5" fill="none"/>
      </g>
      <g id="Rectángulo_40097" data-name="Rectángulo 40097" transform="translate(-919 -6085.621)" fill="#fff" stroke="#3d46c2" stroke-width="3">
        <rect width="27" height="27" rx="9" stroke="none"/>
        <rect x="1.5" y="1.5" width="24" height="24" rx="7.5" fill="none"/>
      </g>
      <g id="Rectángulo_40098" data-name="Rectángulo 40098" transform="translate(-889 -6085.621)" fill="#fff" stroke="#3d46c2" stroke-width="3">
        <rect width="27" height="27" rx="9" stroke="none"/>
        <rect x="1.5" y="1.5" width="24" height="24" rx="7.5" fill="none"/>
      </g>
    </g>
  </g>
</svg>
