<svg xmlns="http://www.w3.org/2000/svg" xmlns:xlink="http://www.w3.org/1999/xlink" width="429" height="267" viewBox="0 0 429 267">
  <defs>
    <filter id="Rectángulo_36783" x="0" y="0" width="428" height="267" filterUnits="userSpaceOnUse">
      <feOffset dy="3" input="SourceAlpha"/>
      <feGaussianBlur stdDeviation="3" result="blur"/>
      <feFlood flood-opacity="0.161"/>
      <feComposite operator="in" in2="blur"/>
      <feComposite in="SourceGraphic"/>
    </filter>
  </defs>
  <g id="Grupo_108214" data-name="Grupo 108214" transform="translate(-906 -4992)">
    <path id="Trazado_113543" data-name="Trazado 113543" d="M314,0H0V99H314Z" transform="translate(1021 5158)" fill="#f85316"/>
    <g transform="matrix(1, 0, 0, 1, 906, 4992)" filter="url(#Rectángulo_36783)">
      <path id="Rectángulo_36783-2" data-name="Rectángulo 36783" d="M114,0H410a0,0,0,0,1,0,0V249a0,0,0,0,1,0,0H114A114,114,0,0,1,0,135V114A114,114,0,0,1,114,0Z" transform="translate(9 6)" fill="#f6f6f6"/>
    </g>
    <g id="Grupo_108221" data-name="Grupo 108221" transform="translate(2787 11294.065)">
      <path id="Trazado_157995" data-name="Trazado 157995" d="M-1760-6070.611V-6249h207.4v98.259" transform="translate(-16.216 -5.222)" fill="none" stroke="#707070" stroke-width="2"/>
      <rect id="Rectángulo_40079" data-name="Rectángulo 40079" width="74" height="28" rx="10" transform="translate(-1709 -6268.065)" fill="#f85316"/>
      <rect id="Rectángulo_40080" data-name="Rectángulo 40080" width="88" height="20" rx="7" transform="translate(-1613 -6226.065)" fill="#3d46c2"/>
      <rect id="Rectángulo_40081" data-name="Rectángulo 40081" width="88" height="20" rx="7" transform="translate(-1819 -6226.065)" fill="#3d46c2"/>
      <g id="Rectángulo_40082" data-name="Rectángulo 40082" transform="translate(-1808 -6185.065)" fill="#fff" stroke="#3d46c2" stroke-width="2">
        <rect width="64" height="20" rx="7" stroke="none"/>
        <rect x="1" y="1" width="62" height="18" rx="6" fill="none"/>
      </g>
      <g id="Rectángulo_40083" data-name="Rectángulo 40083" transform="translate(-1601 -6185.065)" fill="#fff" stroke="#3d46c2" stroke-width="2">
        <rect width="64" height="20" rx="7" stroke="none"/>
        <rect x="1" y="1" width="62" height="18" rx="6" fill="none"/>
      </g>
      <circle id="Elipse_5089" data-name="Elipse 5089" cx="10" cy="10" r="10" transform="translate(-1786 -6196.065)" fill="#3d46c2"/>
      <circle id="Elipse_5090" data-name="Elipse 5090" cx="10" cy="10" r="10" transform="translate(-1579 -6196.065)" fill="#3d46c2"/>
      <path id="Trazado_157996" data-name="Trazado 157996" d="M-1804-6097.14V-6114h66.533v19.942" transform="translate(-4.123 -42.326)" fill="none" stroke="#707070" stroke-width="2"/>
      <path id="Trazado_157997" data-name="Trazado 157997" d="M-1804-6060.882V-6114h113.125v42.422" transform="translate(177.892 -41.6)" fill="none" stroke="#707070" stroke-width="2"/>
      <g id="Elipse_5091" data-name="Elipse 5091" transform="translate(-1816 -6144.065)" fill="#fff" stroke="#3d46c2" stroke-width="2">
        <circle cx="8" cy="8" r="8" stroke="none"/>
        <circle cx="8" cy="8" r="7" fill="none"/>
      </g>
      <g id="Elipse_5092" data-name="Elipse 5092" transform="translate(-1784 -6144.065)" fill="#fff" stroke="#3d46c2" stroke-width="2">
        <circle cx="8" cy="8" r="8" stroke="none"/>
        <circle cx="8" cy="8" r="7" fill="none"/>
      </g>
      <g id="Elipse_5094" data-name="Elipse 5094" transform="translate(-1784 -6113.065)" fill="#fff" stroke="#3d46c2" stroke-width="2">
        <ellipse cx="8" cy="7.5" rx="8" ry="7.5" stroke="none"/>
        <ellipse cx="8" cy="7.5" rx="7" ry="6.5" fill="none"/>
      </g>
      <g id="Elipse_5095" data-name="Elipse 5095" transform="translate(-1784 -6083.065)" fill="#fff" stroke="#3d46c2" stroke-width="2">
        <circle cx="8" cy="8" r="8" stroke="none"/>
        <circle cx="8" cy="8" r="7" fill="none"/>
      </g>
      <g id="Elipse_5093" data-name="Elipse 5093" transform="translate(-1749 -6144.065)" fill="#fff" stroke="#3d46c2" stroke-width="2">
        <circle cx="8" cy="8" r="8" stroke="none"/>
        <circle cx="8" cy="8" r="7" fill="none"/>
      </g>
      <g id="Rectángulo_40084" data-name="Rectángulo 40084" transform="translate(-1663 -6145.065)" fill="#fff" stroke="#3d46c2" stroke-width="2">
        <rect width="74" height="17" rx="7" stroke="none"/>
        <rect x="1" y="1" width="72" height="15" rx="6" fill="none"/>
      </g>
      <g id="Rectángulo_40085" data-name="Rectángulo 40085" transform="translate(-1550 -6145.065)" fill="#fff" stroke="#3d46c2" stroke-width="2">
        <rect width="74" height="17" rx="7" stroke="none"/>
        <rect x="1" y="1" width="72" height="15" rx="6" fill="none"/>
      </g>
      <g id="user" transform="translate(-1781.582 -6192.163)">
        <g id="Grupo_108222" data-name="Grupo 108222" transform="translate(2.146)">
          <g id="Grupo_108221-2" data-name="Grupo 108221">
            <path id="Trazado_157998" data-name="Trazado 157998" d="M124.22,0a3.22,3.22,0,1,0,3.22,3.22A3.223,3.223,0,0,0,124.22,0Z" transform="translate(-121)" fill="#fff"/>
          </g>
        </g>
        <g id="Grupo_108224" data-name="Grupo 108224" transform="translate(0 7.155)">
          <g id="Grupo_108223" data-name="Grupo 108223">
            <path id="Trazado_157999" data-name="Trazado 157999" d="M40.372,301.388A4.59,4.59,0,0,0,37.082,300H35.651a4.59,4.59,0,0,0-3.29,1.388A4.692,4.692,0,0,0,31,304.7a.358.358,0,0,0,.358.358H41.375a.358.358,0,0,0,.358-.358A4.692,4.692,0,0,0,40.372,301.388Z" transform="translate(-31 -300)" fill="#fff"/>
          </g>
        </g>
      </g>
      <g id="user-2" data-name="user" transform="translate(-1574.187 -6192.163)">
        <g id="Grupo_108222-2" data-name="Grupo 108222" transform="translate(2.146)">
          <g id="Grupo_108221-3" data-name="Grupo 108221">
            <path id="Trazado_157998-2" data-name="Trazado 157998" d="M124.22,0a3.22,3.22,0,1,0,3.22,3.22A3.223,3.223,0,0,0,124.22,0Z" transform="translate(-121)" fill="#fff"/>
          </g>
        </g>
        <g id="Grupo_108224-2" data-name="Grupo 108224" transform="translate(0 7.155)">
          <g id="Grupo_108223-2" data-name="Grupo 108223">
            <path id="Trazado_157999-2" data-name="Trazado 157999" d="M40.372,301.388A4.59,4.59,0,0,0,37.082,300H35.651a4.59,4.59,0,0,0-3.29,1.388A4.692,4.692,0,0,0,31,304.7a.358.358,0,0,0,.358.358H41.375a.358.358,0,0,0,.358-.358A4.692,4.692,0,0,0,40.372,301.388Z" transform="translate(-31 -300)" fill="#fff"/>
          </g>
        </g>
      </g>
      <g id="user-3" data-name="user" transform="translate(-1779.551 -6140.179)">
        <g id="Grupo_108222-3" data-name="Grupo 108222" transform="translate(1.334)">
          <g id="Grupo_108221-4" data-name="Grupo 108221">
            <path id="Trazado_157998-3" data-name="Trazado 157998" d="M123,0a2,2,0,1,0,2,2A2,2,0,0,0,123,0Z" transform="translate(-121)" fill="#3d46c2"/>
          </g>
        </g>
        <g id="Grupo_108224-3" data-name="Grupo 108224" transform="translate(0 4.448)">
          <g id="Grupo_108223-3" data-name="Grupo 108223">
            <path id="Trazado_157999-3" data-name="Trazado 157999" d="M36.826,300.863A2.853,2.853,0,0,0,34.78,300h-.89a2.853,2.853,0,0,0-2.045.863A2.917,2.917,0,0,0,31,302.921a.222.222,0,0,0,.222.222h6.227a.222.222,0,0,0,.222-.222A2.917,2.917,0,0,0,36.826,300.863Z" transform="translate(-31 -300)" fill="#3d46c2"/>
          </g>
        </g>
      </g>
      <g id="user-4" data-name="user" transform="translate(-1779.551 -6109.359)">
        <g id="Grupo_108222-4" data-name="Grupo 108222" transform="translate(1.334)">
          <g id="Grupo_108221-5" data-name="Grupo 108221">
            <path id="Trazado_157998-4" data-name="Trazado 157998" d="M123,0a2,2,0,1,0,2,2A2,2,0,0,0,123,0Z" transform="translate(-121)" fill="#3d46c2"/>
          </g>
        </g>
        <g id="Grupo_108224-4" data-name="Grupo 108224" transform="translate(0 4.448)">
          <g id="Grupo_108223-4" data-name="Grupo 108223">
            <path id="Trazado_157999-4" data-name="Trazado 157999" d="M36.826,300.863A2.853,2.853,0,0,0,34.78,300h-.89a2.853,2.853,0,0,0-2.045.863A2.917,2.917,0,0,0,31,302.921a.222.222,0,0,0,.222.222h6.227a.222.222,0,0,0,.222-.222A2.917,2.917,0,0,0,36.826,300.863Z" transform="translate(-31 -300)" fill="#3d46c2"/>
          </g>
        </g>
      </g>
      <g id="user-5" data-name="user" transform="translate(-1779.551 -6078.903)">
        <g id="Grupo_108222-5" data-name="Grupo 108222" transform="translate(1.334)">
          <g id="Grupo_108221-6" data-name="Grupo 108221">
            <path id="Trazado_157998-5" data-name="Trazado 157998" d="M123,0a2,2,0,1,0,2,2A2,2,0,0,0,123,0Z" transform="translate(-121)" fill="#3d46c2"/>
          </g>
        </g>
        <g id="Grupo_108224-5" data-name="Grupo 108224" transform="translate(0 4.448)">
          <g id="Grupo_108223-5" data-name="Grupo 108223">
            <path id="Trazado_157999-5" data-name="Trazado 157999" d="M36.826,300.863A2.853,2.853,0,0,0,34.78,300h-.89a2.853,2.853,0,0,0-2.045.863A2.917,2.917,0,0,0,31,302.921a.222.222,0,0,0,.222.222h6.227a.222.222,0,0,0,.222-.222A2.917,2.917,0,0,0,36.826,300.863Z" transform="translate(-31 -300)" fill="#3d46c2"/>
          </g>
        </g>
      </g>
      <g id="user-6" data-name="user" transform="translate(-1744.925 -6140.179)">
        <g id="Grupo_108222-6" data-name="Grupo 108222" transform="translate(1.334)">
          <g id="Grupo_108221-7" data-name="Grupo 108221">
            <path id="Trazado_157998-6" data-name="Trazado 157998" d="M123,0a2,2,0,1,0,2,2A2,2,0,0,0,123,0Z" transform="translate(-121)" fill="#3d46c2"/>
          </g>
        </g>
        <g id="Grupo_108224-6" data-name="Grupo 108224" transform="translate(0 4.448)">
          <g id="Grupo_108223-6" data-name="Grupo 108223">
            <path id="Trazado_157999-6" data-name="Trazado 157999" d="M36.826,300.863A2.853,2.853,0,0,0,34.78,300h-.89a2.853,2.853,0,0,0-2.045.863A2.917,2.917,0,0,0,31,302.921a.222.222,0,0,0,.222.222h6.227a.222.222,0,0,0,.222-.222A2.917,2.917,0,0,0,36.826,300.863Z" transform="translate(-31 -300)" fill="#3d46c2"/>
          </g>
        </g>
      </g>
      <g id="user-7" data-name="user" transform="translate(-1811.458 -6140.179)">
        <g id="Grupo_108222-7" data-name="Grupo 108222" transform="translate(1.334)">
          <g id="Grupo_108221-8" data-name="Grupo 108221">
            <path id="Trazado_157998-7" data-name="Trazado 157998" d="M123,0a2,2,0,1,0,2,2A2,2,0,0,0,123,0Z" transform="translate(-121)" fill="#3d46c2"/>
          </g>
        </g>
        <g id="Grupo_108224-7" data-name="Grupo 108224" transform="translate(0 4.448)">
          <g id="Grupo_108223-7" data-name="Grupo 108223">
            <path id="Trazado_157999-7" data-name="Trazado 157999" d="M36.826,300.863A2.853,2.853,0,0,0,34.78,300h-.89a2.853,2.853,0,0,0-2.045.863A2.917,2.917,0,0,0,31,302.921a.222.222,0,0,0,.222.222h6.227a.222.222,0,0,0,.222-.222A2.917,2.917,0,0,0,36.826,300.863Z" transform="translate(-31 -300)" fill="#3d46c2"/>
          </g>
        </g>
      </g>
      <path id="Trazado_158000" data-name="Trazado 158000" d="M-1598.333-6043.655v-16.679h66.231v16.679" transform="translate(-60.648 -57.075)" fill="none" stroke="#707070" stroke-width="2"/>
      <path id="Trazado_158001" data-name="Trazado 158001" d="M-1598.333-6043.655v-16.679h34.808v16.679" transform="translate(67.946 -52.724)" fill="none" stroke="#707070" stroke-width="2"/>
      <g id="Elipse_5096" data-name="Elipse 5096" transform="translate(-1667 -6105.065)" fill="#fff" stroke="#3d46c2" stroke-width="2">
        <ellipse cx="8" cy="7.5" rx="8" ry="7.5" stroke="none"/>
        <ellipse cx="8" cy="7.5" rx="7" ry="6.5" fill="none"/>
      </g>
      <g id="Elipse_5097" data-name="Elipse 5097" transform="translate(-1634 -6105.065)" fill="#fff" stroke="#3d46c2" stroke-width="2">
        <ellipse cx="8" cy="7.5" rx="8" ry="7.5" stroke="none"/>
        <ellipse cx="8" cy="7.5" rx="7" ry="6.5" fill="none"/>
      </g>
      <g id="Elipse_5098" data-name="Elipse 5098" transform="translate(-1601 -6105.065)" fill="#fff" stroke="#3d46c2" stroke-width="2">
        <ellipse cx="8" cy="7.5" rx="8" ry="7.5" stroke="none"/>
        <ellipse cx="8" cy="7.5" rx="7" ry="6.5" fill="none"/>
      </g>
      <g id="Elipse_5099" data-name="Elipse 5099" transform="translate(-1538 -6102.065)" fill="#fff" stroke="#3d46c2" stroke-width="2">
        <circle cx="8" cy="8" r="8" stroke="none"/>
        <circle cx="8" cy="8" r="7" fill="none"/>
      </g>
      <g id="Elipse_5100" data-name="Elipse 5100" transform="translate(-1504 -6102.065)" fill="#fff" stroke="#3d46c2" stroke-width="2">
        <circle cx="8" cy="8" r="8" stroke="none"/>
        <circle cx="8" cy="8" r="7" fill="none"/>
      </g>
      <g id="user-8" data-name="user" transform="translate(-1662.257 -6101.746)">
        <g id="Grupo_108222-8" data-name="Grupo 108222" transform="translate(1.334)">
          <g id="Grupo_108221-9" data-name="Grupo 108221">
            <path id="Trazado_157998-8" data-name="Trazado 157998" d="M123,0a2,2,0,1,0,2,2A2,2,0,0,0,123,0Z" transform="translate(-121)" fill="#3d46c2"/>
          </g>
        </g>
        <g id="Grupo_108224-8" data-name="Grupo 108224" transform="translate(0 4.448)">
          <g id="Grupo_108223-8" data-name="Grupo 108223">
            <path id="Trazado_157999-8" data-name="Trazado 157999" d="M36.826,300.863A2.853,2.853,0,0,0,34.78,300h-.89a2.853,2.853,0,0,0-2.045.863A2.917,2.917,0,0,0,31,302.921a.222.222,0,0,0,.222.222h6.227a.222.222,0,0,0,.222-.222A2.917,2.917,0,0,0,36.826,300.863Z" transform="translate(-31 -300)" fill="#3d46c2"/>
          </g>
        </g>
      </g>
      <g id="user-9" data-name="user" transform="translate(-1629.625 -6101.746)">
        <g id="Grupo_108222-9" data-name="Grupo 108222" transform="translate(1.334)">
          <g id="Grupo_108221-10" data-name="Grupo 108221">
            <path id="Trazado_157998-9" data-name="Trazado 157998" d="M123,0a2,2,0,1,0,2,2A2,2,0,0,0,123,0Z" transform="translate(-121)" fill="#3d46c2"/>
          </g>
        </g>
        <g id="Grupo_108224-9" data-name="Grupo 108224" transform="translate(0 4.448)">
          <g id="Grupo_108223-9" data-name="Grupo 108223">
            <path id="Trazado_157999-9" data-name="Trazado 157999" d="M36.826,300.863A2.853,2.853,0,0,0,34.78,300h-.89a2.853,2.853,0,0,0-2.045.863A2.917,2.917,0,0,0,31,302.921a.222.222,0,0,0,.222.222h6.227a.222.222,0,0,0,.222-.222A2.917,2.917,0,0,0,36.826,300.863Z" transform="translate(-31 -300)" fill="#3d46c2"/>
          </g>
        </g>
      </g>
      <g id="user-10" data-name="user" transform="translate(-1596.268 -6101.746)">
        <g id="Grupo_108222-10" data-name="Grupo 108222" transform="translate(1.334)">
          <g id="Grupo_108221-11" data-name="Grupo 108221">
            <path id="Trazado_157998-10" data-name="Trazado 157998" d="M123,0a2,2,0,1,0,2,2A2,2,0,0,0,123,0Z" transform="translate(-121)" fill="#3d46c2"/>
          </g>
        </g>
        <g id="Grupo_108224-10" data-name="Grupo 108224" transform="translate(0 4.448)">
          <g id="Grupo_108223-10" data-name="Grupo 108223">
            <path id="Trazado_157999-10" data-name="Trazado 157999" d="M36.826,300.863A2.853,2.853,0,0,0,34.78,300h-.89a2.853,2.853,0,0,0-2.045.863A2.917,2.917,0,0,0,31,302.921a.222.222,0,0,0,.222.222h6.227a.222.222,0,0,0,.222-.222A2.917,2.917,0,0,0,36.826,300.863Z" transform="translate(-31 -300)" fill="#3d46c2"/>
          </g>
        </g>
      </g>
      <g id="user-11" data-name="user" transform="translate(-1533.904 -6098.12)">
        <g id="Grupo_108222-11" data-name="Grupo 108222" transform="translate(1.334)">
          <g id="Grupo_108221-12" data-name="Grupo 108221">
            <path id="Trazado_157998-11" data-name="Trazado 157998" d="M123,0a2,2,0,1,0,2,2A2,2,0,0,0,123,0Z" transform="translate(-121)" fill="#3d46c2"/>
          </g>
        </g>
        <g id="Grupo_108224-11" data-name="Grupo 108224" transform="translate(0 4.448)">
          <g id="Grupo_108223-11" data-name="Grupo 108223">
            <path id="Trazado_157999-11" data-name="Trazado 157999" d="M36.826,300.863A2.853,2.853,0,0,0,34.78,300h-.89a2.853,2.853,0,0,0-2.045.863A2.917,2.917,0,0,0,31,302.921a.222.222,0,0,0,.222.222h6.227a.222.222,0,0,0,.222-.222A2.917,2.917,0,0,0,36.826,300.863Z" transform="translate(-31 -300)" fill="#3d46c2"/>
          </g>
        </g>
      </g>
      <g id="user-12" data-name="user" transform="translate(-1499.096 -6098.12)">
        <g id="Grupo_108222-12" data-name="Grupo 108222" transform="translate(1.334)">
          <g id="Grupo_108221-13" data-name="Grupo 108221">
            <path id="Trazado_157998-12" data-name="Trazado 157998" d="M123,0a2,2,0,1,0,2,2A2,2,0,0,0,123,0Z" transform="translate(-121)" fill="#3d46c2"/>
          </g>
        </g>
        <g id="Grupo_108224-12" data-name="Grupo 108224" transform="translate(0 4.448)">
          <g id="Grupo_108223-12" data-name="Grupo 108223">
            <path id="Trazado_157999-12" data-name="Trazado 157999" d="M36.826,300.863A2.853,2.853,0,0,0,34.78,300h-.89a2.853,2.853,0,0,0-2.045.863A2.917,2.917,0,0,0,31,302.921a.222.222,0,0,0,.222.222h6.227a.222.222,0,0,0,.222-.222A2.917,2.917,0,0,0,36.826,300.863Z" transform="translate(-31 -300)" fill="#3d46c2"/>
          </g>
        </g>
      </g>
    </g>
  </g>
</svg>
