<svg xmlns="http://www.w3.org/2000/svg" xmlns:xlink="http://www.w3.org/1999/xlink" width="122.789" height="140.293" viewBox="0 0 122.789 140.293">
  <defs>
    <linearGradient id="linear-gradient" x1="0.235" y1="0.735" x2="0.769" y2="0.009" gradientUnits="objectBoundingBox">
      <stop offset="0" stop-color="#fff"/>
      <stop offset="0.439" stop-color="#fcfcfc"/>
      <stop offset="0.682" stop-color="#f4f5f5"/>
      <stop offset="0.875" stop-color="#e6e9e9"/>
      <stop offset="0.995" stop-color="#dadede"/>
    </linearGradient>
  </defs>
  <g id="Grupo_108386" data-name="Grupo 108386" transform="translate(0 -0.001)">
    <path id="Trazado_157626" data-name="Trazado 157626" d="M713.775,2325.684v-56.069a8.494,8.494,0,0,1,4.246-7.355l48.557-28.034a8.493,8.493,0,0,1,8.493,0l48.557,28.034a8.492,8.492,0,0,1,4.246,7.355v56.069a8.492,8.492,0,0,1-4.246,7.355l-48.557,28.034a8.493,8.493,0,0,1-8.493,0l-48.557-28.034A8.494,8.494,0,0,1,713.775,2325.684Z" transform="translate(-713.775 -2233.088)" fill="#f85316"/>
    <g id="Grupo_108102" data-name="Grupo 108102" transform="translate(7.743 8.524)" opacity="0.4" style="mix-blend-mode: multiply;isolation: isolate">
      <path id="Trazado_157627" data-name="Trazado 157627" d="M835.131,2340.9v-49.866a7.554,7.554,0,0,0-3.777-6.542l-43.185-24.933a7.557,7.557,0,0,0-7.554,0l-43.185,24.933a7.554,7.554,0,0,0-3.777,6.542V2340.9a7.555,7.555,0,0,0,3.777,6.542l43.185,24.933a7.557,7.557,0,0,0,7.554,0l43.185-24.933A7.555,7.555,0,0,0,835.131,2340.9Z" transform="translate(-720.085 -2241.612)" fill="#fff"/>
      <path id="Trazado_157628" data-name="Trazado 157628" d="M834.889,2340.593v-49.867a7.553,7.553,0,0,0-3.777-6.541l-43.185-24.933a7.552,7.552,0,0,0-7.554,0l-43.185,24.933a7.551,7.551,0,0,0-3.777,6.541v49.867a7.551,7.551,0,0,0,3.777,6.541l43.185,24.933a7.551,7.551,0,0,0,7.554,0l43.185-24.933A7.554,7.554,0,0,0,834.889,2340.593Z" transform="translate(-720.085 -2241.612)" fill="#fcfcfc"/>
      <path id="Trazado_157629" data-name="Trazado 157629" d="M834.647,2340.29v-49.866a7.555,7.555,0,0,0-3.777-6.542l-43.186-24.933a7.555,7.555,0,0,0-7.553,0l-43.186,24.933a7.555,7.555,0,0,0-3.777,6.542v49.866a7.554,7.554,0,0,0,3.777,6.542l43.186,24.933a7.549,7.549,0,0,0,7.553,0l43.186-24.933A7.554,7.554,0,0,0,834.647,2340.29Z" transform="translate(-720.085 -2241.612)" fill="#f8f8f9"/>
      <path id="Trazado_157630" data-name="Trazado 157630" d="M834.4,2339.988v-49.866a7.552,7.552,0,0,0-3.777-6.542l-43.185-24.933a7.557,7.557,0,0,0-7.554,0L736.7,2283.58a7.554,7.554,0,0,0-3.777,6.542v49.866a7.555,7.555,0,0,0,3.777,6.542l43.185,24.933a7.555,7.555,0,0,0,7.554,0l43.185-24.933A7.553,7.553,0,0,0,834.4,2339.988Z" transform="translate(-720.085 -2241.612)" fill="#f5f5f5"/>
      <path id="Trazado_157631" data-name="Trazado 157631" d="M834.162,2339.686v-49.867a7.553,7.553,0,0,0-3.777-6.541L787.2,2258.345a7.552,7.552,0,0,0-7.554,0l-43.185,24.933a7.553,7.553,0,0,0-3.777,6.541v49.867a7.554,7.554,0,0,0,3.777,6.541l43.185,24.934a7.555,7.555,0,0,0,7.554,0l43.185-24.934A7.554,7.554,0,0,0,834.162,2339.686Z" transform="translate(-720.085 -2241.612)" fill="#f2f2f2"/>
      <path id="Trazado_157632" data-name="Trazado 157632" d="M833.92,2339.383v-49.866a7.555,7.555,0,0,0-3.777-6.542l-43.186-24.933a7.555,7.555,0,0,0-7.553,0l-43.186,24.933a7.555,7.555,0,0,0-3.777,6.542v49.866a7.554,7.554,0,0,0,3.777,6.542l43.186,24.933a7.549,7.549,0,0,0,7.553,0l43.186-24.933A7.554,7.554,0,0,0,833.92,2339.383Z" transform="translate(-720.085 -2241.612)" fill="#eeefef"/>
      <path id="Trazado_157633" data-name="Trazado 157633" d="M833.677,2339.081v-49.866a7.553,7.553,0,0,0-3.776-6.542l-43.186-24.933a7.557,7.557,0,0,0-7.554,0l-43.185,24.933a7.554,7.554,0,0,0-3.777,6.542v49.866a7.555,7.555,0,0,0,3.777,6.542l43.185,24.933a7.555,7.555,0,0,0,7.554,0l43.186-24.933A7.554,7.554,0,0,0,833.677,2339.081Z" transform="translate(-720.085 -2241.612)" fill="#ebebec"/>
      <path id="Trazado_157634" data-name="Trazado 157634" d="M833.435,2338.779v-49.866a7.554,7.554,0,0,0-3.777-6.542l-43.185-24.933a7.551,7.551,0,0,0-7.554,0l-43.185,24.933a7.554,7.554,0,0,0-3.777,6.542v49.866a7.556,7.556,0,0,0,3.777,6.542l43.185,24.933a7.555,7.555,0,0,0,7.554,0l43.185-24.933A7.556,7.556,0,0,0,833.435,2338.779Z" transform="translate(-720.085 -2241.612)" fill="#e8e8e8"/>
      <path id="Trazado_157635" data-name="Trazado 157635" d="M833.193,2338.476V2288.61a7.556,7.556,0,0,0-3.777-6.542l-43.185-24.933a7.555,7.555,0,0,0-7.554,0l-43.185,24.933a7.554,7.554,0,0,0-3.777,6.542v49.866a7.552,7.552,0,0,0,3.777,6.542l43.185,24.933a7.551,7.551,0,0,0,7.554,0l43.185-24.933A7.554,7.554,0,0,0,833.193,2338.476Z" transform="translate(-720.085 -2241.612)" fill="#e5e5e5"/>
      <path id="Trazado_157636" data-name="Trazado 157636" d="M832.951,2338.174v-49.866a7.553,7.553,0,0,0-3.777-6.542l-43.186-24.933a7.553,7.553,0,0,0-7.553,0l-43.186,24.933a7.553,7.553,0,0,0-3.777,6.542v49.866a7.555,7.555,0,0,0,3.777,6.542l43.186,24.933a7.553,7.553,0,0,0,7.553,0l43.186-24.933A7.555,7.555,0,0,0,832.951,2338.174Z" transform="translate(-720.085 -2241.612)" fill="#e1e2e2"/>
      <path id="Trazado_157637" data-name="Trazado 157637" d="M832.708,2337.872v-49.866a7.551,7.551,0,0,0-3.777-6.542l-43.185-24.933a7.55,7.55,0,0,0-7.554,0l-43.185,24.933a7.553,7.553,0,0,0-3.777,6.542v49.866a7.556,7.556,0,0,0,3.777,6.542l43.185,24.933a7.555,7.555,0,0,0,7.554,0l43.185-24.933A7.554,7.554,0,0,0,832.708,2337.872Z" transform="translate(-720.085 -2241.612)" fill="#dededf"/>
      <path id="Trazado_157638" data-name="Trazado 157638" d="M832.466,2337.569V2287.7a7.556,7.556,0,0,0-3.777-6.542L785.5,2256.228a7.555,7.555,0,0,0-7.554,0l-43.185,24.933a7.556,7.556,0,0,0-3.777,6.542v49.866a7.554,7.554,0,0,0,3.777,6.542l43.185,24.933a7.551,7.551,0,0,0,7.554,0l43.185-24.933A7.554,7.554,0,0,0,832.466,2337.569Z" transform="translate(-720.085 -2241.612)" fill="#dbdbdb"/>
      <path id="Trazado_157639" data-name="Trazado 157639" d="M832.224,2337.267V2287.4a7.554,7.554,0,0,0-3.777-6.542l-43.185-24.933a7.555,7.555,0,0,0-7.554,0l-43.186,24.933a7.553,7.553,0,0,0-3.776,6.542v49.866a7.553,7.553,0,0,0,3.776,6.542l43.186,24.933a7.555,7.555,0,0,0,7.554,0l43.185-24.933A7.554,7.554,0,0,0,832.224,2337.267Z" transform="translate(-720.085 -2241.612)" fill="#d7d8d8"/>
      <path id="Trazado_157640" data-name="Trazado 157640" d="M831.982,2336.965V2287.1a7.554,7.554,0,0,0-3.777-6.542l-43.186-24.933a7.55,7.55,0,0,0-7.554,0l-43.185,24.933a7.554,7.554,0,0,0-3.777,6.542v49.866a7.556,7.556,0,0,0,3.777,6.542l43.185,24.933a7.555,7.555,0,0,0,7.554,0l43.186-24.933A7.556,7.556,0,0,0,831.982,2336.965Z" transform="translate(-720.085 -2241.612)" fill="#d4d5d5"/>
      <path id="Trazado_157641" data-name="Trazado 157641" d="M831.739,2336.662V2286.8a7.556,7.556,0,0,0-3.777-6.542l-43.185-24.933a7.555,7.555,0,0,0-7.554,0l-43.185,24.933a7.556,7.556,0,0,0-3.777,6.542v49.866a7.554,7.554,0,0,0,3.777,6.542l43.185,24.933a7.55,7.55,0,0,0,7.554,0l43.185-24.933A7.554,7.554,0,0,0,831.739,2336.662Z" transform="translate(-720.085 -2241.612)" fill="#d1d1d2"/>
      <path id="Trazado_157642" data-name="Trazado 157642" d="M831.5,2336.36v-49.866a7.555,7.555,0,0,0-3.777-6.542l-43.185-24.933a7.555,7.555,0,0,0-7.554,0L733.8,2279.952a7.553,7.553,0,0,0-3.777,6.542v49.866a7.552,7.552,0,0,0,3.777,6.542l43.185,24.933a7.555,7.555,0,0,0,7.554,0L827.72,2342.9A7.554,7.554,0,0,0,831.5,2336.36Z" transform="translate(-720.085 -2241.612)" fill="#cdcecf"/>
      <path id="Trazado_157643" data-name="Trazado 157643" d="M831.255,2336.058v-49.866a7.554,7.554,0,0,0-3.777-6.542l-43.186-24.933a7.549,7.549,0,0,0-7.553,0l-43.186,24.933a7.554,7.554,0,0,0-3.777,6.542v49.866a7.556,7.556,0,0,0,3.777,6.542l43.186,24.933a7.553,7.553,0,0,0,7.553,0l43.186-24.933A7.556,7.556,0,0,0,831.255,2336.058Z" transform="translate(-720.085 -2241.612)" fill="#cacbcb"/>
      <path id="Trazado_157644" data-name="Trazado 157644" d="M831.012,2335.755v-49.866a7.551,7.551,0,0,0-3.777-6.541l-43.185-24.934a7.555,7.555,0,0,0-7.554,0l-43.185,24.934a7.554,7.554,0,0,0-3.777,6.541v49.866a7.554,7.554,0,0,0,3.777,6.542L776.5,2367.23a7.551,7.551,0,0,0,7.554,0l43.185-24.933A7.552,7.552,0,0,0,831.012,2335.755Z" transform="translate(-720.085 -2241.612)" fill="#c7c8c8"/>
      <path id="Trazado_157645" data-name="Trazado 157645" d="M830.77,2335.453v-49.866a7.555,7.555,0,0,0-3.777-6.542l-43.185-24.933a7.555,7.555,0,0,0-7.554,0l-43.185,24.933a7.555,7.555,0,0,0-3.777,6.542v49.866a7.554,7.554,0,0,0,3.777,6.542l43.185,24.933a7.555,7.555,0,0,0,7.554,0L826.993,2342A7.554,7.554,0,0,0,830.77,2335.453Z" transform="translate(-720.085 -2241.612)" fill="#c4c4c5"/>
      <path id="Trazado_157646" data-name="Trazado 157646" d="M830.528,2335.151v-49.866a7.554,7.554,0,0,0-3.777-6.542l-43.185-24.933a7.55,7.55,0,0,0-7.554,0l-43.186,24.933a7.553,7.553,0,0,0-3.776,6.542v49.866a7.554,7.554,0,0,0,3.776,6.542l43.186,24.933a7.555,7.555,0,0,0,7.554,0l43.185-24.933A7.555,7.555,0,0,0,830.528,2335.151Z" transform="translate(-720.085 -2241.612)" fill="#c0c1c2"/>
      <path id="Trazado_157647" data-name="Trazado 157647" d="M830.286,2334.848v-49.866a7.554,7.554,0,0,0-3.777-6.541l-43.186-24.934a7.555,7.555,0,0,0-7.554,0l-43.185,24.934a7.554,7.554,0,0,0-3.777,6.541v49.866a7.553,7.553,0,0,0,3.777,6.542l43.185,24.933a7.551,7.551,0,0,0,7.554,0l43.186-24.933A7.553,7.553,0,0,0,830.286,2334.848Z" transform="translate(-720.085 -2241.612)" fill="#bdbebe"/>
      <path id="Trazado_157648" data-name="Trazado 157648" d="M830.043,2334.546V2284.68a7.553,7.553,0,0,0-3.777-6.542l-43.185-24.933a7.555,7.555,0,0,0-7.554,0l-43.185,24.933a7.555,7.555,0,0,0-3.777,6.542v49.866a7.553,7.553,0,0,0,3.777,6.542l43.185,24.933a7.555,7.555,0,0,0,7.554,0l43.185-24.933A7.551,7.551,0,0,0,830.043,2334.546Z" transform="translate(-720.085 -2241.612)" fill="#babbbb"/>
      <path id="Trazado_157649" data-name="Trazado 157649" d="M829.8,2334.244v-49.866a7.554,7.554,0,0,0-3.777-6.542L782.839,2252.9a7.551,7.551,0,0,0-7.554,0L732.1,2277.836a7.552,7.552,0,0,0-3.777,6.542v49.866a7.553,7.553,0,0,0,3.777,6.542l43.185,24.933a7.555,7.555,0,0,0,7.554,0l43.185-24.933A7.555,7.555,0,0,0,829.8,2334.244Z" transform="translate(-720.085 -2241.612)" fill="#b6b7b8"/>
      <path id="Trazado_157650" data-name="Trazado 157650" d="M829.559,2333.941v-49.866a7.554,7.554,0,0,0-3.777-6.541L782.6,2252.6a7.549,7.549,0,0,0-7.553,0l-43.186,24.933a7.554,7.554,0,0,0-3.777,6.541v49.866a7.554,7.554,0,0,0,3.777,6.542l43.186,24.933a7.549,7.549,0,0,0,7.553,0l43.186-24.933A7.554,7.554,0,0,0,829.559,2333.941Z" transform="translate(-720.085 -2241.612)" fill="#b3b4b5"/>
      <path id="Trazado_157651" data-name="Trazado 157651" d="M829.316,2333.639v-49.866a7.554,7.554,0,0,0-3.776-6.542L782.354,2252.3a7.555,7.555,0,0,0-7.554,0l-43.185,24.933a7.555,7.555,0,0,0-3.777,6.542v49.866a7.554,7.554,0,0,0,3.777,6.542l43.185,24.933a7.557,7.557,0,0,0,7.554,0l43.186-24.933A7.553,7.553,0,0,0,829.316,2333.639Z" transform="translate(-720.085 -2241.612)" fill="#b0b1b1"/>
      <path id="Trazado_157652" data-name="Trazado 157652" d="M829.074,2333.337v-49.866a7.554,7.554,0,0,0-3.777-6.542L782.112,2252a7.555,7.555,0,0,0-7.554,0l-43.185,24.933a7.554,7.554,0,0,0-3.777,6.542v49.866a7.555,7.555,0,0,0,3.777,6.542l43.185,24.933a7.557,7.557,0,0,0,7.554,0l43.185-24.933A7.555,7.555,0,0,0,829.074,2333.337Z" transform="translate(-720.085 -2241.612)" fill="#acaeae"/>
      <path id="Trazado_157653" data-name="Trazado 157653" d="M828.832,2333.035v-49.867a7.553,7.553,0,0,0-3.777-6.541l-43.185-24.933a7.551,7.551,0,0,0-7.554,0l-43.185,24.933a7.552,7.552,0,0,0-3.777,6.541v49.867a7.551,7.551,0,0,0,3.777,6.541l43.185,24.933a7.552,7.552,0,0,0,7.554,0l43.185-24.933A7.553,7.553,0,0,0,828.832,2333.035Z" transform="translate(-720.085 -2241.612)" fill="#a9aaab"/>
      <path id="Trazado_157654" data-name="Trazado 157654" d="M828.59,2332.732v-49.866a7.555,7.555,0,0,0-3.777-6.542l-43.186-24.933a7.554,7.554,0,0,0-7.553,0l-43.186,24.933a7.555,7.555,0,0,0-3.777,6.542v49.866a7.554,7.554,0,0,0,3.777,6.542l43.186,24.933a7.555,7.555,0,0,0,7.553,0l43.186-24.933A7.554,7.554,0,0,0,828.59,2332.732Z" transform="translate(-720.085 -2241.612)" fill="#a6a7a8"/>
      <path id="Trazado_157655" data-name="Trazado 157655" d="M828.347,2332.43v-49.866a7.552,7.552,0,0,0-3.777-6.542l-43.185-24.933a7.555,7.555,0,0,0-7.554,0l-43.185,24.933a7.554,7.554,0,0,0-3.777,6.542v49.866a7.555,7.555,0,0,0,3.777,6.542l43.185,24.933a7.557,7.557,0,0,0,7.554,0l43.185-24.933A7.553,7.553,0,0,0,828.347,2332.43Z" transform="translate(-720.085 -2241.612)" fill="#a3a4a5"/>
      <path id="Trazado_157656" data-name="Trazado 157656" d="M828.1,2332.128v-49.867a7.554,7.554,0,0,0-3.777-6.541l-43.185-24.933a7.551,7.551,0,0,0-7.554,0L730.4,2275.72a7.554,7.554,0,0,0-3.777,6.541v49.867a7.553,7.553,0,0,0,3.777,6.541l43.185,24.933a7.552,7.552,0,0,0,7.554,0l43.185-24.933A7.553,7.553,0,0,0,828.1,2332.128Z" transform="translate(-720.085 -2241.612)" fill="#9fa1a1"/>
      <path id="Trazado_157657" data-name="Trazado 157657" d="M827.863,2331.825v-49.866a7.555,7.555,0,0,0-3.777-6.542L780.9,2250.484a7.557,7.557,0,0,0-7.554,0l-43.186,24.933a7.555,7.555,0,0,0-3.777,6.542v49.866a7.554,7.554,0,0,0,3.777,6.542l43.186,24.933a7.557,7.557,0,0,0,7.554,0l43.185-24.933A7.554,7.554,0,0,0,827.863,2331.825Z" transform="translate(-720.085 -2241.612)" fill="#9c9e9e"/>
      <path id="Trazado_157658" data-name="Trazado 157658" d="M827.62,2331.523v-49.866a7.553,7.553,0,0,0-3.776-6.542l-43.186-24.933a7.557,7.557,0,0,0-7.554,0l-43.185,24.933a7.554,7.554,0,0,0-3.777,6.542v49.866a7.555,7.555,0,0,0,3.777,6.542L773.1,2363a7.557,7.557,0,0,0,7.554,0l43.186-24.933A7.554,7.554,0,0,0,827.62,2331.523Z" transform="translate(-720.085 -2241.612)" fill="#999a9b"/>
      <path id="Trazado_157659" data-name="Trazado 157659" d="M827.378,2331.221v-49.867a7.554,7.554,0,0,0-3.777-6.541l-43.185-24.933a7.552,7.552,0,0,0-7.554,0l-43.185,24.933a7.554,7.554,0,0,0-3.777,6.541v49.867a7.553,7.553,0,0,0,3.777,6.541l43.185,24.933a7.552,7.552,0,0,0,7.554,0l43.185-24.933A7.553,7.553,0,0,0,827.378,2331.221Z" transform="translate(-720.085 -2241.612)" fill="#959798"/>
      <path id="Trazado_157660" data-name="Trazado 157660" d="M827.136,2330.918v-49.866a7.555,7.555,0,0,0-3.777-6.542l-43.185-24.933a7.557,7.557,0,0,0-7.554,0l-43.185,24.933a7.553,7.553,0,0,0-3.777,6.542v49.866a7.552,7.552,0,0,0,3.777,6.542l43.185,24.933a7.557,7.557,0,0,0,7.554,0l43.185-24.933A7.554,7.554,0,0,0,827.136,2330.918Z" transform="translate(-720.085 -2241.612)" fill="#929494"/>
      <path id="Trazado_157661" data-name="Trazado 157661" d="M826.894,2330.616V2280.75a7.554,7.554,0,0,0-3.777-6.542l-43.186-24.933a7.555,7.555,0,0,0-7.553,0l-43.186,24.933a7.554,7.554,0,0,0-3.777,6.542v49.866a7.555,7.555,0,0,0,3.777,6.542l43.186,24.933a7.555,7.555,0,0,0,7.553,0l43.186-24.933A7.555,7.555,0,0,0,826.894,2330.616Z" transform="translate(-720.085 -2241.612)" fill="#8f9191"/>
      <path id="Trazado_157662" data-name="Trazado 157662" d="M826.651,2330.314v-49.866a7.552,7.552,0,0,0-3.777-6.542l-43.185-24.933a7.552,7.552,0,0,0-7.554,0l-43.185,24.933a7.554,7.554,0,0,0-3.777,6.542v49.866a7.553,7.553,0,0,0,3.777,6.541l43.185,24.933a7.552,7.552,0,0,0,7.554,0l43.185-24.933A7.551,7.551,0,0,0,826.651,2330.314Z" transform="translate(-720.085 -2241.612)" fill="#8b8d8e"/>
      <path id="Trazado_157663" data-name="Trazado 157663" d="M826.409,2330.011v-49.866a7.555,7.555,0,0,0-3.777-6.542l-43.185-24.933a7.557,7.557,0,0,0-7.554,0L728.708,2273.6a7.555,7.555,0,0,0-3.777,6.542v49.866a7.554,7.554,0,0,0,3.777,6.542l43.185,24.933a7.552,7.552,0,0,0,7.554,0l43.185-24.933A7.554,7.554,0,0,0,826.409,2330.011Z" transform="translate(-720.085 -2241.612)" fill="#888a8b"/>
      <path id="Trazado_157664" data-name="Trazado 157664" d="M826.167,2329.709v-49.866a7.554,7.554,0,0,0-3.777-6.542l-43.185-24.933a7.557,7.557,0,0,0-7.554,0L728.465,2273.3a7.553,7.553,0,0,0-3.776,6.542v49.866a7.554,7.554,0,0,0,3.776,6.542l43.186,24.933a7.557,7.557,0,0,0,7.554,0l43.185-24.933A7.555,7.555,0,0,0,826.167,2329.709Z" transform="translate(-720.085 -2241.612)" fill="#858787"/>
      <path id="Trazado_157665" data-name="Trazado 157665" d="M825.925,2329.407v-49.866a7.554,7.554,0,0,0-3.777-6.542l-43.186-24.933a7.552,7.552,0,0,0-7.554,0L728.223,2273a7.554,7.554,0,0,0-3.777,6.542v49.866a7.553,7.553,0,0,0,3.777,6.541l43.185,24.934a7.556,7.556,0,0,0,7.554,0l43.186-24.934A7.553,7.553,0,0,0,825.925,2329.407Z" transform="translate(-720.085 -2241.612)" fill="#818484"/>
      <path id="Trazado_157666" data-name="Trazado 157666" d="M825.682,2329.1v-49.866a7.555,7.555,0,0,0-3.777-6.542l-43.185-24.933a7.556,7.556,0,0,0-7.554,0L727.981,2272.7a7.555,7.555,0,0,0-3.777,6.542V2329.1a7.554,7.554,0,0,0,3.777,6.542l43.185,24.933a7.552,7.552,0,0,0,7.554,0l43.185-24.933A7.554,7.554,0,0,0,825.682,2329.1Z" transform="translate(-720.085 -2241.612)" fill="#7e8081"/>
      <path id="Trazado_157667" data-name="Trazado 157667" d="M825.44,2328.8v-49.866a7.554,7.554,0,0,0-3.777-6.542l-43.185-24.933a7.557,7.557,0,0,0-7.554,0l-43.185,24.933a7.552,7.552,0,0,0-3.777,6.542V2328.8a7.553,7.553,0,0,0,3.777,6.542l43.185,24.933a7.557,7.557,0,0,0,7.554,0l43.185-24.933A7.555,7.555,0,0,0,825.44,2328.8Z" transform="translate(-720.085 -2241.612)" fill="#7b7d7e"/>
      <path id="Trazado_157668" data-name="Trazado 157668" d="M825.2,2328.5v-49.866a7.554,7.554,0,0,0-3.777-6.542l-43.186-24.933a7.55,7.55,0,0,0-7.553,0L727.5,2272.092a7.554,7.554,0,0,0-3.777,6.542V2328.5a7.556,7.556,0,0,0,3.777,6.542l43.186,24.933a7.555,7.555,0,0,0,7.553,0l43.186-24.933A7.556,7.556,0,0,0,825.2,2328.5Z" transform="translate(-720.085 -2241.612)" fill="#787a7a"/>
      <path id="Trazado_157669" data-name="Trazado 157669" d="M824.955,2328.2v-49.866a7.554,7.554,0,0,0-3.777-6.542l-43.185-24.933a7.556,7.556,0,0,0-7.554,0l-43.185,24.933a7.556,7.556,0,0,0-3.777,6.542V2328.2a7.554,7.554,0,0,0,3.777,6.542l43.185,24.933a7.552,7.552,0,0,0,7.554,0l43.185-24.933A7.552,7.552,0,0,0,824.955,2328.2Z" transform="translate(-720.085 -2241.612)" fill="#747777"/>
      <path id="Trazado_157670" data-name="Trazado 157670" d="M824.713,2327.9v-49.866a7.554,7.554,0,0,0-3.777-6.542l-43.185-24.933a7.556,7.556,0,0,0-7.554,0l-43.185,24.933a7.554,7.554,0,0,0-3.777,6.542V2327.9a7.555,7.555,0,0,0,3.777,6.542L770.2,2359.37a7.556,7.556,0,0,0,7.554,0l43.185-24.933A7.555,7.555,0,0,0,824.713,2327.9Z" transform="translate(-720.085 -2241.612)" fill="#717374"/>
      <path id="Trazado_157671" data-name="Trazado 157671" d="M824.471,2327.593v-49.866a7.554,7.554,0,0,0-3.777-6.542l-43.185-24.933a7.552,7.552,0,0,0-7.554,0l-43.186,24.933a7.553,7.553,0,0,0-3.776,6.542v49.866a7.555,7.555,0,0,0,3.776,6.542l43.186,24.933a7.556,7.556,0,0,0,7.554,0l43.185-24.933A7.556,7.556,0,0,0,824.471,2327.593Z" transform="translate(-720.085 -2241.612)" fill="#6e7071"/>
      <path id="Trazado_157672" data-name="Trazado 157672" d="M824.229,2327.29v-49.866a7.556,7.556,0,0,0-3.777-6.542l-43.186-24.933a7.557,7.557,0,0,0-7.554,0l-43.185,24.933a7.556,7.556,0,0,0-3.777,6.542v49.866a7.554,7.554,0,0,0,3.777,6.542l43.185,24.933a7.551,7.551,0,0,0,7.554,0l43.186-24.933A7.554,7.554,0,0,0,824.229,2327.29Z" transform="translate(-720.085 -2241.612)" fill="#6a6d6e"/>
      <path id="Trazado_157673" data-name="Trazado 157673" d="M823.986,2326.988v-49.866a7.552,7.552,0,0,0-3.777-6.542l-43.185-24.933a7.557,7.557,0,0,0-7.554,0l-43.185,24.933a7.554,7.554,0,0,0-3.777,6.542v49.866a7.554,7.554,0,0,0,3.777,6.542l43.185,24.933a7.555,7.555,0,0,0,7.554,0l43.185-24.933A7.552,7.552,0,0,0,823.986,2326.988Z" transform="translate(-720.085 -2241.612)" fill="#676a6a"/>
      <path id="Trazado_157674" data-name="Trazado 157674" d="M823.744,2326.686V2276.82a7.554,7.554,0,0,0-3.777-6.542l-43.185-24.933a7.552,7.552,0,0,0-7.554,0l-43.185,24.933a7.554,7.554,0,0,0-3.777,6.542v49.866a7.556,7.556,0,0,0,3.777,6.542l43.185,24.933a7.555,7.555,0,0,0,7.554,0l43.185-24.933A7.556,7.556,0,0,0,823.744,2326.686Z" transform="translate(-720.085 -2241.612)" fill="#646667"/>
      <path id="Trazado_157675" data-name="Trazado 157675" d="M823.5,2326.383v-49.866a7.553,7.553,0,0,0-3.777-6.541l-43.186-24.934a7.555,7.555,0,0,0-7.553,0L725.8,2269.976a7.553,7.553,0,0,0-3.777,6.541v49.866a7.554,7.554,0,0,0,3.777,6.542l43.186,24.933a7.549,7.549,0,0,0,7.553,0l43.186-24.933A7.554,7.554,0,0,0,823.5,2326.383Z" transform="translate(-720.085 -2241.612)" fill="#606364"/>
      <path id="Trazado_157676" data-name="Trazado 157676" d="M823.259,2326.081v-49.866a7.554,7.554,0,0,0-3.776-6.542L776.3,2244.74a7.557,7.557,0,0,0-7.554,0l-43.185,24.933a7.555,7.555,0,0,0-3.777,6.542v49.866a7.554,7.554,0,0,0,3.777,6.542l43.185,24.933a7.555,7.555,0,0,0,7.554,0l43.186-24.933A7.553,7.553,0,0,0,823.259,2326.081Z" transform="translate(-720.085 -2241.612)" fill="#5d6061"/>
      <path id="Trazado_157677" data-name="Trazado 157677" d="M823.017,2325.779v-49.866a7.554,7.554,0,0,0-3.777-6.542l-43.185-24.933a7.551,7.551,0,0,0-7.554,0l-43.185,24.933a7.554,7.554,0,0,0-3.777,6.542v49.866a7.555,7.555,0,0,0,3.777,6.542l43.185,24.933a7.555,7.555,0,0,0,7.554,0l43.185-24.933A7.555,7.555,0,0,0,823.017,2325.779Z" transform="translate(-720.085 -2241.612)" fill="#5a5d5d"/>
      <path id="Trazado_157678" data-name="Trazado 157678" d="M822.775,2325.476V2275.61a7.553,7.553,0,0,0-3.777-6.541l-43.185-24.934a7.555,7.555,0,0,0-7.554,0l-43.185,24.934a7.551,7.551,0,0,0-3.777,6.541v49.866a7.552,7.552,0,0,0,3.777,6.542l43.185,24.933a7.551,7.551,0,0,0,7.554,0L819,2332.018A7.554,7.554,0,0,0,822.775,2325.476Z" transform="translate(-720.085 -2241.612)" fill="#57595a"/>
      <path id="Trazado_157679" data-name="Trazado 157679" d="M822.533,2325.174v-49.866a7.555,7.555,0,0,0-3.777-6.542l-43.186-24.933a7.553,7.553,0,0,0-7.553,0l-43.186,24.933a7.555,7.555,0,0,0-3.777,6.542v49.866a7.554,7.554,0,0,0,3.777,6.542l43.186,24.933a7.553,7.553,0,0,0,7.553,0l43.186-24.933A7.554,7.554,0,0,0,822.533,2325.174Z" transform="translate(-720.085 -2241.612)" fill="#535657"/>
      <path id="Trazado_157680" data-name="Trazado 157680" d="M822.29,2324.872v-49.866a7.551,7.551,0,0,0-3.777-6.542l-43.185-24.933a7.551,7.551,0,0,0-7.554,0l-43.185,24.933a7.553,7.553,0,0,0-3.777,6.542v49.866a7.555,7.555,0,0,0,3.777,6.542l43.185,24.933a7.555,7.555,0,0,0,7.554,0l43.185-24.933A7.553,7.553,0,0,0,822.29,2324.872Z" transform="translate(-720.085 -2241.612)" fill="#505354"/>
      <path id="Trazado_157681" data-name="Trazado 157681" d="M822.048,2324.569V2274.7a7.553,7.553,0,0,0-3.777-6.541l-43.185-24.933a7.551,7.551,0,0,0-7.554,0l-43.185,24.933a7.553,7.553,0,0,0-3.777,6.541v49.866a7.554,7.554,0,0,0,3.777,6.542l43.185,24.933a7.551,7.551,0,0,0,7.554,0l43.185-24.933A7.554,7.554,0,0,0,822.048,2324.569Z" transform="translate(-720.085 -2241.612)" fill="#4d5050"/>
      <path id="Trazado_157682" data-name="Trazado 157682" d="M821.806,2324.267V2274.4a7.555,7.555,0,0,0-3.777-6.542l-43.185-24.933a7.555,7.555,0,0,0-7.554,0L724.1,2267.859a7.555,7.555,0,0,0-3.777,6.542v49.866a7.554,7.554,0,0,0,3.777,6.542l43.186,24.933a7.555,7.555,0,0,0,7.554,0l43.185-24.933A7.554,7.554,0,0,0,821.806,2324.267Z" transform="translate(-720.085 -2241.612)" fill="#494c4d"/>
      <path id="Trazado_157683" data-name="Trazado 157683" d="M821.564,2323.965V2274.1a7.554,7.554,0,0,0-3.777-6.542L774.6,2242.624a7.555,7.555,0,0,0-7.554,0l-43.185,24.933a7.554,7.554,0,0,0-3.777,6.542v49.866a7.555,7.555,0,0,0,3.777,6.542l43.185,24.933a7.555,7.555,0,0,0,7.554,0l43.186-24.933A7.555,7.555,0,0,0,821.564,2323.965Z" transform="translate(-720.085 -2241.612)" fill="#46494a"/>
    </g>
    <g id="Grupo_108103" data-name="Grupo 108103" transform="translate(6.31 7.142)">
      <path id="Trazado_157684" data-name="Trazado 157684" d="M720.085,2322.583v-49.867a7.553,7.553,0,0,1,3.777-6.541l43.186-24.933a7.552,7.552,0,0,1,7.554,0l43.185,24.933a7.553,7.553,0,0,1,3.777,6.541v49.867a7.554,7.554,0,0,1-3.777,6.541L774.6,2354.057a7.551,7.551,0,0,1-7.554,0l-43.186-24.933A7.554,7.554,0,0,1,720.085,2322.583Z" transform="translate(-720.085 -2240.229)" fill="#fff"/>
      <path id="Trazado_157685" data-name="Trazado 157685" d="M722.059,2322.317v-49.335a6.04,6.04,0,0,1,3.02-5.231l42.725-24.667a6.036,6.036,0,0,1,6.041,0l42.725,24.667a6.04,6.04,0,0,1,3.02,5.231v49.335a6.04,6.04,0,0,1-3.02,5.231l-42.725,24.667a6.037,6.037,0,0,1-6.041,0l-42.725-24.667A6.04,6.04,0,0,1,722.059,2322.317Z" transform="translate(-720.085 -2240.229)" fill="url(#linear-gradient)"/>
    </g>
    <g id="Page-1" transform="translate(22.048 29.562)">
      <g id="_035---Agriculture" data-name="035---Agriculture" transform="translate(0 0)">
        <path id="Shape" d="M1.96,35c0,.4.012.782.047,1.167A14.022,14.022,0,1,0,1.96,35Z" transform="translate(38.873 3.5)" fill="#727997"/>
        <path id="Shape-2" data-name="Shape" d="M26.479,21a14.359,14.359,0,0,1,1.775.117A13.991,13.991,0,0,0,15.979,35c0,.4.012.782.047,1.167a14,14,0,0,0,12.2,12.717,13.914,13.914,0,0,1-15.7-12.717c-.035-.385-.047-.77-.047-1.167a14,14,0,0,1,14-14Z" transform="translate(28.354 3.5)" fill="#4b5063"/>
        <ellipse id="Oval" cx="8.225" cy="8.133" rx="8.225" ry="8.133" transform="translate(46.607 30.341)" fill="#f3ff3c"/>
        <path id="Shape-3" data-name="Shape" d="M20.685,26a8.167,8.167,0,0,1,1.75.194,8.167,8.167,0,0,0,0,15.946A8.167,8.167,0,1,1,20.685,26Z" transform="translate(34.149 4.333)" fill="#dce736"/>
        <path id="Shape-4" data-name="Shape" d="M40,36.667a11.667,11.667,0,0,0,23.333,0c0-.4-.023-.782-.058-1.167A11.667,11.667,0,0,0,40,36.667Z" transform="translate(-38.833 4.166)" fill="#727997"/>
        <path id="Shape-5" data-name="Shape" d="M52,28.337A11.6,11.6,0,0,1,60.166,25a11.748,11.748,0,0,1,1.75.143,11.651,11.651,0,0,0,0,23.044A11.657,11.657,0,0,1,52,28.337Z" transform="translate(-47.333 4.167)" fill="#4b5063"/>
        <ellipse id="Oval-2" data-name="Oval" cx="5.849" cy="5.849" rx="5.849" ry="5.849" transform="translate(6.945 34.91)" fill="#f3ff3c"/>
        <path id="Shape-6" data-name="Shape" d="M54.333,30a5.766,5.766,0,0,1,1.75.3,5.794,5.794,0,0,0,0,11.072,5.766,5.766,0,0,1-1.75.3,5.833,5.833,0,0,1,0-11.667Z" transform="translate(-41.5 5)" fill="#dce736"/>
        <path id="Shape-7" data-name="Shape" d="M8,22.333v8A11.667,11.667,0,0,1,27.775,37.5H44.213c-.035-.385-.047-.77-.047-1.167a14.013,14.013,0,0,1,21-12.133V19.02a18.7,18.7,0,0,0-23.193,8.027,2.305,2.305,0,0,1-2,1.12H36a2.34,2.34,0,0,1-2.333-2.333V13H17.333A9.333,9.333,0,0,0,8,22.333Z" transform="translate(-3.333 2.167)" fill="#ff7947"/>
        <path id="Shape-8" data-name="Shape" d="M38.8,25A11.674,11.674,0,0,1,50.408,35.5h-3.5A11.667,11.667,0,0,0,37.05,25.143,11.8,11.8,0,0,1,38.8,25Z" transform="translate(-22.467 4.167)" fill="#d44713"/>
        <path id="Shape-9" data-name="Shape" d="M55.333,13h3.5A9.333,9.333,0,0,0,49.5,22.333v5.644A11.657,11.657,0,0,0,46,30.337v-8A9.333,9.333,0,0,1,55.333,13Z" transform="translate(-41.333 2.167)" fill="#d44713"/>
        <path id="Shape-10" data-name="Shape" d="M5,18.16a19.017,19.017,0,0,1,3.5,1.878" transform="translate(56.833 3.027)" fill="#00bcd4"/>
        <path id="Shape-11" data-name="Shape" d="M14,14.333V19H38.5L35,5H15.167Z" transform="translate(16.333 0.833)" fill="#838cfc"/>
        <path id="Shape-12" data-name="Shape" d="M32.167,5h3.5L34.5,14.333V19H31V14.333Z" transform="translate(-0.667 0.833)" fill="#3d46c2"/>
        <path id="Shape-13" data-name="Shape" d="M13,3.333V5.667H35.167a2.281,2.281,0,0,0,1.645-.688A2.281,2.281,0,0,0,37.5,3.333,2.34,2.34,0,0,0,35.167,1H15.333A2.34,2.34,0,0,0,13,3.333Z" transform="translate(18.5 0.167)" fill="#ff642b"/>
        <path id="Shape-14" data-name="Shape" d="M31.333,1h3.5A2.34,2.34,0,0,0,32.5,3.333V5.667H29V3.333A2.34,2.34,0,0,1,31.333,1Z" transform="translate(2.5 0.167)" fill="#d44713"/>
        <path id="Shape-15" data-name="Shape" d="M40,6.167v8.167h4.667V6.167A1.167,1.167,0,0,0,43.5,5H41.167A1.167,1.167,0,0,0,40,6.167Z" transform="translate(-20.167 0.833)" fill="#727997"/>
        <path id="Shape-16" data-name="Shape" d="M14,17v8.167A2.34,2.34,0,0,0,16.333,27.5h3.978a2.305,2.305,0,0,0,1.995-1.12A18.639,18.639,0,0,1,38.5,17Z" transform="translate(16.333 2.833)" fill="#f85316"/>
        <path id="Shape-17" data-name="Shape" d="M15,47.333v2.578A108.537,108.537,0,0,1,54.958,61.333H67.5c-1.143-.758-2.3-1.493-3.442-2.182-2.368-1.423-4.748-2.707-7.117-3.862-2.742-1.33-5.46-2.5-8.108-3.5A106.794,106.794,0,0,0,17.333,45,2.34,2.34,0,0,0,15,47.333Z" transform="translate(-13.833 7.5)" fill="#b1e874"/>
        <path id="Shape-18" data-name="Shape" d="M25.083,45c.694.034,1.588.091,2.618.176a2.342,2.342,0,0,0-1.451,2.157v2.578A108.537,108.537,0,0,1,66.208,61.333h-3.5A108.537,108.537,0,0,0,22.75,49.912V47.333A2.34,2.34,0,0,1,25.083,45Z" transform="translate(-21.583 7.5)" fill="#75b62f"/>
        <path id="Shape-19" data-name="Shape" d="M4,45a106.794,106.794,0,0,1,31.5,6.79A106.794,106.794,0,0,1,67,45Z" transform="translate(-0.5 7.5)" fill="#75b62f"/>
        <path id="Shape-20" data-name="Shape" d="M2,51.79c2.648,1,5.367,2.17,8.108,3.5a111.3,111.3,0,0,1,25.725-5.378V47.333A2.34,2.34,0,0,0,33.5,45,106.794,106.794,0,0,0,2,51.79Z" transform="translate(33 7.5)" fill="#b1e874"/>
        <path id="Shape-21" data-name="Shape" d="M2,54.588c2.368,1.155,4.748,2.438,7.117,3.862a113.2,113.2,0,0,1,18.608-4.072V49.21A111.3,111.3,0,0,0,2,54.588Z" transform="translate(41.108 8.202)" fill="#75b62f"/>
        <path id="Shape-22" data-name="Shape" d="M2,57.712c1.143.688,2.3,1.423,3.442,2.182H18.275a2.34,2.34,0,0,0,2.333-2.333V53.64A113.2,113.2,0,0,0,2,57.712Z" transform="translate(48.225 8.94)" fill="#b1e874"/>
        <path id="Shape-23" data-name="Shape" d="M25.75,49.21v5.168a111.441,111.441,0,0,1,24.908,6.253h15.05A108.537,108.537,0,0,0,25.75,49.21Z" transform="translate(-24.583 8.202)" fill="#75b62f"/>
        <path id="Shape-24" data-name="Shape" d="M38.65,53.64v3.92a2.34,2.34,0,0,0,2.333,2.333H63.558A111.443,111.443,0,0,0,38.65,53.64Z" transform="translate(-37.483 8.94)" fill="#b1e874"/>
        <path id="Shape-25" data-name="Shape" d="M58.5,54.167V57.56a2.34,2.34,0,0,0,2.333,2.333h-3.5A2.34,2.34,0,0,1,55,57.56V53.64C56.086,53.784,57.271,53.966,58.5,54.167Z" transform="translate(-53.833 8.94)" fill="#75b62f"/>
        <g id="Grupo_107680" data-name="Grupo 107680">
          <path id="Shape-26" data-name="Shape" d="M15.333,25A9.333,9.333,0,1,1,6,34.333,9.333,9.333,0,0,1,15.333,25Zm0,16.333a7,7,0,1,0-7-7A7,7,0,0,0,15.333,41.333Z" transform="translate(39.5 4.167)" fill="#12263f"/>
          <path id="Shape-27" data-name="Shape" d="M1,40.833a12.773,12.773,0,0,1,3.5-8.78V24.5A10.512,10.512,0,0,1,15,14h4.667V7A2.333,2.333,0,0,1,22,4.667h2.333A2.333,2.333,0,0,1,26.665,7v7H30.3l1.03-8.239V3.5a3.5,3.5,0,0,1,3.5-3.5H54.665a3.5,3.5,0,1,1,0,7h-.839l2.925,11.7A19.652,19.652,0,0,1,66.99,22.1a1.169,1.169,0,0,1-1.316,1.932,17.187,17.187,0,0,0-1.675-1v2.71a15.127,15.127,0,0,1-.117,25.593H67.5a3.5,3.5,0,0,1,3.5,3.5V66.5A3.5,3.5,0,0,1,67.5,70H4.5A3.5,3.5,0,0,1,1,66.5V54.833a3.5,3.5,0,0,1,3.5-3.5H6.481A12.822,12.822,0,0,1,1,40.833ZM24.331,7H22v7h2.333Zm31.5-3.5a1.167,1.167,0,0,0-1.167-1.167H34.832A1.167,1.167,0,0,0,33.665,3.5V4.667h21A1.167,1.167,0,0,0,55.832,3.5ZM33.528,7,32.5,15.239v3.428H54.337L51.42,7ZM32.5,21v7a1.167,1.167,0,0,0,1.167,1.167h3.982a1.12,1.12,0,0,0,.98-.539A19.819,19.819,0,0,1,46.533,21Zm29.167,1.006a17.486,17.486,0,0,0-21.014,7.783,3.46,3.46,0,0,1-3,1.711H33.665a3.5,3.5,0,0,1-3.5-3.5V16.333H15A8.176,8.176,0,0,0,6.831,24.5v5.591A12.808,12.808,0,0,1,26.442,38.5H40.665a15.16,15.16,0,0,1,21-14ZM36.009,58.044a109.541,109.541,0,0,1,14.756-4.377H21.236a108.79,108.79,0,0,1,14.772,4.377Zm11.773-6.711a15.176,15.176,0,0,1-6.922-10.5H26.665a12.822,12.822,0,0,1-5.483,10.5ZM68.665,38.5A12.833,12.833,0,1,0,55.832,51.333,12.833,12.833,0,0,0,68.665,38.5Zm-1.16,15.167a104.65,104.65,0,0,0-28.219,5.67q2.427,1.011,4.9,2.2A112.2,112.2,0,0,1,68.665,56.35V54.833a1.167,1.167,0,0,0-1.16-1.167ZM51.384,65.392a113.984,113.984,0,0,1,17.281-3.813V58.69a109.872,109.872,0,0,0-21.5,4.342Q49.273,64.142,51.384,65.392ZM68.665,66.5V63.933a111.967,111.967,0,0,0-14.606,3.113c.316.2.633.406.95.615H67.5A1.167,1.167,0,0,0,68.665,66.5ZM3.331,61.572a111.343,111.343,0,0,1,23.947,6.095h9.779A108.51,108.51,0,0,0,3.331,58.693ZM4.5,67.667H20.052A112.62,112.62,0,0,0,3.331,63.933V66.5A1.167,1.167,0,0,0,4.5,67.667ZM3.331,54.833V56.35A109.324,109.324,0,0,1,42.4,67.667h8.236a103.7,103.7,0,0,0-46.143-14A1.167,1.167,0,0,0,3.331,54.833Zm10.5-3.5a10.5,10.5,0,1,0-10.5-10.5A10.5,10.5,0,0,0,13.831,51.333Z" transform="translate(-0.998 0)" fill="#12263f"/>
          <path id="Shape-28" data-name="Shape" d="M51,29a7,7,0,1,1-7,7A7,7,0,0,1,51,29Zm0,11.667A4.667,4.667,0,1,0,46.333,36,4.667,4.667,0,0,0,51,40.667Z" transform="translate(-38.167 4.833)" fill="#12263f"/>
          <ellipse id="Oval-3" data-name="Oval" cx="1.188" cy="1.188" rx="1.188" ry="1.188" transform="translate(11.697 39.662)" fill="#12263f"/>
          <ellipse id="Oval-4" data-name="Oval" cx="1.097" cy="1.188" rx="1.097" ry="1.188" transform="translate(53.735 37.286)" fill="#12263f"/>
        </g>
      </g>
    </g>
  </g>
</svg>
