<svg xmlns="http://www.w3.org/2000/svg" xmlns:xlink="http://www.w3.org/1999/xlink" width="122.523" height="140.293" viewBox="0 0 122.523 140.293">
  <defs>
    <linearGradient id="linear-gradient" x1="-65.631" y1="0.735" x2="-66.166" y2="0.009" gradientUnits="objectBoundingBox">
      <stop offset="0" stop-color="#fff"/>
      <stop offset="0.439" stop-color="#fcfcfc"/>
      <stop offset="0.682" stop-color="#f4f5f5"/>
      <stop offset="0.875" stop-color="#e6e9e9"/>
      <stop offset="0.995" stop-color="#dadede"/>
    </linearGradient>
  </defs>
  <g id="Grupo_108385" data-name="Grupo 108385" transform="translate(-2761.829 10741.077)">
    <path id="Trazado_157810" data-name="Trazado 157810" d="M1078.96,2325.684v-56.069a8.492,8.492,0,0,1,4.246-7.355l48.557-28.034a8.493,8.493,0,0,1,8.493,0l48.557,28.034a8.494,8.494,0,0,1,4.246,7.355v56.069a8.494,8.494,0,0,1-4.246,7.355l-48.557,28.034a8.493,8.493,0,0,1-8.493,0l-48.557-28.034A8.492,8.492,0,0,1,1078.96,2325.684Z" transform="translate(1682.869 -12974.166)" fill="#3d46c2"/>
    <g id="Grupo_108108" data-name="Grupo 108108" transform="translate(2769.306 -10732.554)" opacity="0.4" style="mix-blend-mode: multiply;isolation: isolate">
      <path id="Trazado_157811" data-name="Trazado 157811" d="M1173.181,2340.9v-49.866a7.552,7.552,0,0,0-3.777-6.542l-43.185-24.933a7.556,7.556,0,0,0-7.554,0l-43.185,24.933a7.554,7.554,0,0,0-3.777,6.542V2340.9a7.555,7.555,0,0,0,3.777,6.542l43.185,24.933a7.556,7.556,0,0,0,7.554,0l43.185-24.933A7.553,7.553,0,0,0,1173.181,2340.9Z" transform="translate(-1058.135 -2241.612)" fill="#fff"/>
      <path id="Trazado_157812" data-name="Trazado 157812" d="M1173.423,2340.593v-49.867a7.553,7.553,0,0,0-3.777-6.541l-43.185-24.933a7.552,7.552,0,0,0-7.554,0l-43.185,24.933a7.553,7.553,0,0,0-3.777,6.541v49.867a7.553,7.553,0,0,0,3.777,6.541l43.185,24.933a7.551,7.551,0,0,0,7.554,0l43.185-24.933A7.554,7.554,0,0,0,1173.423,2340.593Z" transform="translate(-1058.619 -2241.612)" fill="#fcfcfc"/>
      <path id="Trazado_157813" data-name="Trazado 157813" d="M1173.665,2340.29v-49.866a7.555,7.555,0,0,0-3.777-6.542l-43.185-24.933a7.556,7.556,0,0,0-7.554,0l-43.186,24.933a7.554,7.554,0,0,0-3.776,6.542v49.866a7.553,7.553,0,0,0,3.776,6.542l43.186,24.933a7.55,7.55,0,0,0,7.554,0l43.185-24.933A7.554,7.554,0,0,0,1173.665,2340.29Z" transform="translate(-1059.103 -2241.612)" fill="#f8f8f9"/>
      <path id="Trazado_157814" data-name="Trazado 157814" d="M1173.908,2339.988v-49.866a7.554,7.554,0,0,0-3.777-6.542l-43.186-24.933a7.557,7.557,0,0,0-7.554,0l-43.185,24.933a7.554,7.554,0,0,0-3.777,6.542v49.866a7.555,7.555,0,0,0,3.777,6.542l43.185,24.933a7.555,7.555,0,0,0,7.554,0l43.186-24.933A7.555,7.555,0,0,0,1173.908,2339.988Z" transform="translate(-1059.588 -2241.612)" fill="#f5f5f5"/>
      <path id="Trazado_157815" data-name="Trazado 157815" d="M1174.15,2339.686v-49.867a7.551,7.551,0,0,0-3.777-6.541l-43.185-24.933a7.552,7.552,0,0,0-7.554,0l-43.185,24.933a7.553,7.553,0,0,0-3.777,6.541v49.867a7.554,7.554,0,0,0,3.777,6.541l43.185,24.934a7.555,7.555,0,0,0,7.554,0l43.185-24.934A7.551,7.551,0,0,0,1174.15,2339.686Z" transform="translate(-1060.073 -2241.612)" fill="#f2f2f2"/>
      <path id="Trazado_157816" data-name="Trazado 157816" d="M1174.392,2339.383v-49.866a7.555,7.555,0,0,0-3.777-6.542l-43.185-24.933a7.557,7.557,0,0,0-7.554,0l-43.185,24.933a7.553,7.553,0,0,0-3.777,6.542v49.866a7.552,7.552,0,0,0,3.777,6.542l43.185,24.933a7.551,7.551,0,0,0,7.554,0l43.185-24.933A7.554,7.554,0,0,0,1174.392,2339.383Z" transform="translate(-1060.557 -2241.612)" fill="#eeefef"/>
      <path id="Trazado_157817" data-name="Trazado 157817" d="M1174.635,2339.081v-49.866a7.554,7.554,0,0,0-3.777-6.542l-43.186-24.933a7.555,7.555,0,0,0-7.553,0l-43.186,24.933a7.554,7.554,0,0,0-3.777,6.542v49.866a7.555,7.555,0,0,0,3.777,6.542l43.186,24.933a7.553,7.553,0,0,0,7.553,0l43.186-24.933A7.555,7.555,0,0,0,1174.635,2339.081Z" transform="translate(-1061.042 -2241.612)" fill="#ebebec"/>
      <path id="Trazado_157818" data-name="Trazado 157818" d="M1174.877,2338.779v-49.866a7.553,7.553,0,0,0-3.776-6.542l-43.186-24.933a7.551,7.551,0,0,0-7.554,0l-43.185,24.933a7.554,7.554,0,0,0-3.777,6.542v49.866a7.556,7.556,0,0,0,3.777,6.542l43.185,24.933a7.555,7.555,0,0,0,7.554,0l43.186-24.933A7.555,7.555,0,0,0,1174.877,2338.779Z" transform="translate(-1061.527 -2241.612)" fill="#e8e8e8"/>
      <path id="Trazado_157819" data-name="Trazado 157819" d="M1175.119,2338.476V2288.61a7.556,7.556,0,0,0-3.777-6.542l-43.185-24.933a7.555,7.555,0,0,0-7.554,0l-43.185,24.933a7.556,7.556,0,0,0-3.777,6.542v49.866a7.554,7.554,0,0,0,3.777,6.542l43.185,24.933a7.55,7.55,0,0,0,7.554,0l43.185-24.933A7.554,7.554,0,0,0,1175.119,2338.476Z" transform="translate(-1062.011 -2241.612)" fill="#e5e5e5"/>
      <path id="Trazado_157820" data-name="Trazado 157820" d="M1175.361,2338.174v-49.866a7.553,7.553,0,0,0-3.777-6.542l-43.185-24.933a7.555,7.555,0,0,0-7.554,0l-43.185,24.933a7.551,7.551,0,0,0-3.777,6.542v49.866a7.553,7.553,0,0,0,3.777,6.542l43.185,24.933a7.555,7.555,0,0,0,7.554,0l43.185-24.933A7.555,7.555,0,0,0,1175.361,2338.174Z" transform="translate(-1062.495 -2241.612)" fill="#e1e2e2"/>
      <path id="Trazado_157821" data-name="Trazado 157821" d="M1175.6,2337.872v-49.866a7.553,7.553,0,0,0-3.777-6.542l-43.186-24.933a7.549,7.549,0,0,0-7.553,0l-43.186,24.933a7.554,7.554,0,0,0-3.777,6.542v49.866a7.556,7.556,0,0,0,3.777,6.542l43.186,24.933a7.553,7.553,0,0,0,7.553,0l43.186-24.933A7.556,7.556,0,0,0,1175.6,2337.872Z" transform="translate(-1062.98 -2241.612)" fill="#dededf"/>
      <path id="Trazado_157822" data-name="Trazado 157822" d="M1175.846,2337.569V2287.7a7.554,7.554,0,0,0-3.777-6.542l-43.185-24.933a7.555,7.555,0,0,0-7.554,0l-43.185,24.933a7.556,7.556,0,0,0-3.777,6.542v49.866a7.554,7.554,0,0,0,3.777,6.542l43.185,24.933a7.551,7.551,0,0,0,7.554,0l43.185-24.933A7.552,7.552,0,0,0,1175.846,2337.569Z" transform="translate(-1063.465 -2241.612)" fill="#dbdbdb"/>
      <path id="Trazado_157823" data-name="Trazado 157823" d="M1176.088,2337.267V2287.4a7.554,7.554,0,0,0-3.777-6.542l-43.185-24.933a7.555,7.555,0,0,0-7.554,0l-43.185,24.933a7.554,7.554,0,0,0-3.777,6.542v49.866a7.554,7.554,0,0,0,3.777,6.542l43.185,24.933a7.555,7.555,0,0,0,7.554,0l43.185-24.933A7.554,7.554,0,0,0,1176.088,2337.267Z" transform="translate(-1063.949 -2241.612)" fill="#d7d8d8"/>
      <path id="Trazado_157824" data-name="Trazado 157824" d="M1176.331,2336.965V2287.1a7.554,7.554,0,0,0-3.777-6.542l-43.185-24.933a7.551,7.551,0,0,0-7.554,0l-43.186,24.933a7.554,7.554,0,0,0-3.777,6.542v49.866a7.556,7.556,0,0,0,3.777,6.542l43.186,24.933a7.555,7.555,0,0,0,7.554,0l43.185-24.933A7.556,7.556,0,0,0,1176.331,2336.965Z" transform="translate(-1064.434 -2241.612)" fill="#d4d5d5"/>
      <path id="Trazado_157825" data-name="Trazado 157825" d="M1176.573,2336.662V2286.8a7.556,7.556,0,0,0-3.777-6.542l-43.186-24.933a7.555,7.555,0,0,0-7.554,0l-43.185,24.933a7.556,7.556,0,0,0-3.777,6.542v49.866a7.554,7.554,0,0,0,3.777,6.542l43.185,24.933a7.55,7.55,0,0,0,7.554,0L1172.8,2343.2A7.554,7.554,0,0,0,1176.573,2336.662Z" transform="translate(-1064.918 -2241.612)" fill="#d1d1d2"/>
      <path id="Trazado_157826" data-name="Trazado 157826" d="M1176.815,2336.36v-49.866a7.555,7.555,0,0,0-3.777-6.542l-43.185-24.933a7.555,7.555,0,0,0-7.554,0l-43.185,24.933a7.555,7.555,0,0,0-3.777,6.542v49.866a7.554,7.554,0,0,0,3.777,6.542l43.185,24.933a7.555,7.555,0,0,0,7.554,0l43.185-24.933A7.554,7.554,0,0,0,1176.815,2336.36Z" transform="translate(-1065.403 -2241.612)" fill="#cdcecf"/>
      <path id="Trazado_157827" data-name="Trazado 157827" d="M1177.057,2336.058v-49.866a7.554,7.554,0,0,0-3.777-6.542l-43.185-24.933a7.55,7.55,0,0,0-7.554,0l-43.185,24.933a7.552,7.552,0,0,0-3.777,6.542v49.866a7.554,7.554,0,0,0,3.777,6.542l43.185,24.933a7.555,7.555,0,0,0,7.554,0l43.185-24.933A7.556,7.556,0,0,0,1177.057,2336.058Z" transform="translate(-1065.887 -2241.612)" fill="#cacbcb"/>
      <path id="Trazado_157828" data-name="Trazado 157828" d="M1177.3,2335.755v-49.866a7.553,7.553,0,0,0-3.777-6.541l-43.186-24.934a7.553,7.553,0,0,0-7.553,0l-43.186,24.934a7.554,7.554,0,0,0-3.777,6.541v49.866a7.554,7.554,0,0,0,3.777,6.542l43.186,24.933a7.549,7.549,0,0,0,7.553,0l43.186-24.933A7.554,7.554,0,0,0,1177.3,2335.755Z" transform="translate(-1066.372 -2241.612)" fill="#c7c8c8"/>
      <path id="Trazado_157829" data-name="Trazado 157829" d="M1177.542,2335.453v-49.866a7.553,7.553,0,0,0-3.777-6.542l-43.185-24.933a7.555,7.555,0,0,0-7.554,0l-43.185,24.933a7.555,7.555,0,0,0-3.777,6.542v49.866a7.554,7.554,0,0,0,3.777,6.542l43.185,24.933a7.555,7.555,0,0,0,7.554,0L1173.765,2342A7.552,7.552,0,0,0,1177.542,2335.453Z" transform="translate(-1066.857 -2241.612)" fill="#c4c4c5"/>
      <path id="Trazado_157830" data-name="Trazado 157830" d="M1177.784,2335.151v-49.866a7.554,7.554,0,0,0-3.777-6.542l-43.185-24.933a7.551,7.551,0,0,0-7.554,0l-43.185,24.933a7.554,7.554,0,0,0-3.777,6.542v49.866a7.555,7.555,0,0,0,3.777,6.542l43.185,24.933a7.555,7.555,0,0,0,7.554,0l43.185-24.933A7.555,7.555,0,0,0,1177.784,2335.151Z" transform="translate(-1067.341 -2241.612)" fill="#c0c1c2"/>
      <path id="Trazado_157831" data-name="Trazado 157831" d="M1178.026,2334.848v-49.866a7.554,7.554,0,0,0-3.777-6.541l-43.185-24.934a7.555,7.555,0,0,0-7.554,0l-43.186,24.934a7.553,7.553,0,0,0-3.776,6.541v49.866a7.552,7.552,0,0,0,3.776,6.542l43.186,24.933a7.55,7.55,0,0,0,7.554,0l43.185-24.933A7.554,7.554,0,0,0,1178.026,2334.848Z" transform="translate(-1067.825 -2241.612)" fill="#bdbebe"/>
      <path id="Trazado_157832" data-name="Trazado 157832" d="M1178.269,2334.546V2284.68a7.555,7.555,0,0,0-3.777-6.542l-43.186-24.933a7.555,7.555,0,0,0-7.554,0l-43.185,24.933a7.555,7.555,0,0,0-3.777,6.542v49.866a7.553,7.553,0,0,0,3.777,6.542l43.185,24.933a7.555,7.555,0,0,0,7.554,0l43.186-24.933A7.553,7.553,0,0,0,1178.269,2334.546Z" transform="translate(-1068.31 -2241.612)" fill="#babbbb"/>
      <path id="Trazado_157833" data-name="Trazado 157833" d="M1178.511,2334.244v-49.866a7.552,7.552,0,0,0-3.777-6.542l-43.185-24.933a7.55,7.55,0,0,0-7.554,0l-43.185,24.933a7.554,7.554,0,0,0-3.777,6.542v49.866a7.554,7.554,0,0,0,3.777,6.542l43.185,24.933a7.555,7.555,0,0,0,7.554,0l43.185-24.933A7.553,7.553,0,0,0,1178.511,2334.244Z" transform="translate(-1068.795 -2241.612)" fill="#b6b7b8"/>
      <path id="Trazado_157834" data-name="Trazado 157834" d="M1178.753,2333.941v-49.866a7.553,7.553,0,0,0-3.777-6.541l-43.185-24.933a7.55,7.55,0,0,0-7.554,0l-43.185,24.933a7.552,7.552,0,0,0-3.777,6.541v49.866a7.552,7.552,0,0,0,3.777,6.542l43.185,24.933a7.55,7.55,0,0,0,7.554,0l43.185-24.933A7.554,7.554,0,0,0,1178.753,2333.941Z" transform="translate(-1069.279 -2241.612)" fill="#b3b4b5"/>
      <path id="Trazado_157835" data-name="Trazado 157835" d="M1179,2333.639v-49.866a7.555,7.555,0,0,0-3.777-6.542l-43.186-24.933a7.553,7.553,0,0,0-7.553,0l-43.186,24.933a7.555,7.555,0,0,0-3.777,6.542v49.866a7.554,7.554,0,0,0,3.777,6.542l43.186,24.933a7.555,7.555,0,0,0,7.553,0l43.186-24.933A7.554,7.554,0,0,0,1179,2333.639Z" transform="translate(-1069.764 -2241.612)" fill="#b0b1b1"/>
      <path id="Trazado_157836" data-name="Trazado 157836" d="M1179.238,2333.337v-49.866a7.552,7.552,0,0,0-3.777-6.542L1132.276,2252a7.555,7.555,0,0,0-7.554,0l-43.185,24.933a7.554,7.554,0,0,0-3.777,6.542v49.866a7.555,7.555,0,0,0,3.777,6.542l43.185,24.933a7.556,7.556,0,0,0,7.554,0l43.185-24.933A7.553,7.553,0,0,0,1179.238,2333.337Z" transform="translate(-1070.249 -2241.612)" fill="#acaeae"/>
      <path id="Trazado_157837" data-name="Trazado 157837" d="M1179.48,2333.035v-49.867a7.554,7.554,0,0,0-3.777-6.541l-43.185-24.933a7.55,7.55,0,0,0-7.554,0l-43.185,24.933a7.553,7.553,0,0,0-3.777,6.541v49.867a7.553,7.553,0,0,0,3.777,6.541l43.185,24.933a7.552,7.552,0,0,0,7.554,0l43.185-24.933A7.553,7.553,0,0,0,1179.48,2333.035Z" transform="translate(-1070.733 -2241.612)" fill="#a9aaab"/>
      <path id="Trazado_157838" data-name="Trazado 157838" d="M1179.722,2332.732v-49.866a7.555,7.555,0,0,0-3.777-6.542l-43.185-24.933a7.555,7.555,0,0,0-7.554,0l-43.186,24.933a7.554,7.554,0,0,0-3.776,6.542v49.866a7.553,7.553,0,0,0,3.776,6.542l43.186,24.933a7.556,7.556,0,0,0,7.554,0l43.185-24.933A7.554,7.554,0,0,0,1179.722,2332.732Z" transform="translate(-1071.217 -2241.612)" fill="#a6a7a8"/>
      <path id="Trazado_157839" data-name="Trazado 157839" d="M1179.965,2332.43v-49.866a7.554,7.554,0,0,0-3.777-6.542L1133,2251.089a7.553,7.553,0,0,0-7.553,0l-43.186,24.933a7.554,7.554,0,0,0-3.777,6.542v49.866a7.555,7.555,0,0,0,3.777,6.542l43.186,24.933a7.555,7.555,0,0,0,7.553,0l43.186-24.933A7.555,7.555,0,0,0,1179.965,2332.43Z" transform="translate(-1071.702 -2241.612)" fill="#a3a4a5"/>
      <path id="Trazado_157840" data-name="Trazado 157840" d="M1180.207,2332.128v-49.867a7.551,7.551,0,0,0-3.777-6.541l-43.185-24.933a7.55,7.55,0,0,0-7.554,0l-43.185,24.933a7.554,7.554,0,0,0-3.777,6.541v49.867a7.553,7.553,0,0,0,3.777,6.541l43.185,24.933a7.552,7.552,0,0,0,7.554,0l43.185-24.933A7.551,7.551,0,0,0,1180.207,2332.128Z" transform="translate(-1072.187 -2241.612)" fill="#9fa1a1"/>
      <path id="Trazado_157841" data-name="Trazado 157841" d="M1180.449,2331.825v-49.866a7.555,7.555,0,0,0-3.777-6.542l-43.185-24.933a7.557,7.557,0,0,0-7.554,0l-43.185,24.933a7.555,7.555,0,0,0-3.777,6.542v49.866a7.554,7.554,0,0,0,3.777,6.542l43.185,24.933a7.557,7.557,0,0,0,7.554,0l43.185-24.933A7.554,7.554,0,0,0,1180.449,2331.825Z" transform="translate(-1072.671 -2241.612)" fill="#9c9e9e"/>
      <path id="Trazado_157842" data-name="Trazado 157842" d="M1180.692,2331.523v-49.866a7.554,7.554,0,0,0-3.777-6.542l-43.186-24.933a7.555,7.555,0,0,0-7.553,0l-43.186,24.933a7.554,7.554,0,0,0-3.777,6.542v49.866a7.555,7.555,0,0,0,3.777,6.542L1126.176,2363a7.555,7.555,0,0,0,7.553,0l43.186-24.933A7.555,7.555,0,0,0,1180.692,2331.523Z" transform="translate(-1073.156 -2241.612)" fill="#999a9b"/>
      <path id="Trazado_157843" data-name="Trazado 157843" d="M1180.934,2331.221v-49.867a7.553,7.553,0,0,0-3.776-6.541l-43.186-24.933a7.552,7.552,0,0,0-7.554,0l-43.185,24.933a7.553,7.553,0,0,0-3.777,6.541v49.867a7.553,7.553,0,0,0,3.777,6.541l43.185,24.933a7.552,7.552,0,0,0,7.554,0l43.186-24.933A7.552,7.552,0,0,0,1180.934,2331.221Z" transform="translate(-1073.641 -2241.612)" fill="#959798"/>
      <path id="Trazado_157844" data-name="Trazado 157844" d="M1181.176,2330.918v-49.866a7.555,7.555,0,0,0-3.777-6.542l-43.185-24.933a7.556,7.556,0,0,0-7.554,0l-43.185,24.933a7.555,7.555,0,0,0-3.777,6.542v49.866a7.554,7.554,0,0,0,3.777,6.542l43.185,24.933a7.556,7.556,0,0,0,7.554,0l43.185-24.933A7.554,7.554,0,0,0,1181.176,2330.918Z" transform="translate(-1074.125 -2241.612)" fill="#929494"/>
      <path id="Trazado_157845" data-name="Trazado 157845" d="M1181.418,2330.616V2280.75a7.554,7.554,0,0,0-3.777-6.542l-43.185-24.933a7.557,7.557,0,0,0-7.554,0l-43.185,24.933a7.552,7.552,0,0,0-3.777,6.542v49.866a7.553,7.553,0,0,0,3.777,6.542l43.185,24.933a7.557,7.557,0,0,0,7.554,0l43.185-24.933A7.555,7.555,0,0,0,1181.418,2330.616Z" transform="translate(-1074.609 -2241.612)" fill="#8f9191"/>
      <path id="Trazado_157846" data-name="Trazado 157846" d="M1181.661,2330.314v-49.866a7.554,7.554,0,0,0-3.777-6.542l-43.186-24.933a7.55,7.55,0,0,0-7.553,0l-43.186,24.933a7.554,7.554,0,0,0-3.777,6.542v49.866a7.553,7.553,0,0,0,3.777,6.541l43.186,24.933a7.55,7.55,0,0,0,7.553,0l43.186-24.933A7.553,7.553,0,0,0,1181.661,2330.314Z" transform="translate(-1075.094 -2241.612)" fill="#8b8d8e"/>
      <path id="Trazado_157847" data-name="Trazado 157847" d="M1181.9,2330.011v-49.866a7.553,7.553,0,0,0-3.777-6.542l-43.185-24.933a7.557,7.557,0,0,0-7.554,0L1084.2,2273.6a7.555,7.555,0,0,0-3.777,6.542v49.866a7.554,7.554,0,0,0,3.777,6.542l43.185,24.933a7.552,7.552,0,0,0,7.554,0l43.185-24.933A7.552,7.552,0,0,0,1181.9,2330.011Z" transform="translate(-1075.579 -2241.612)" fill="#888a8b"/>
      <path id="Trazado_157848" data-name="Trazado 157848" d="M1182.145,2329.709v-49.866a7.554,7.554,0,0,0-3.777-6.542l-43.185-24.933a7.556,7.556,0,0,0-7.554,0l-43.185,24.933a7.554,7.554,0,0,0-3.777,6.542v49.866a7.555,7.555,0,0,0,3.777,6.542l43.185,24.933a7.556,7.556,0,0,0,7.554,0l43.185-24.933A7.555,7.555,0,0,0,1182.145,2329.709Z" transform="translate(-1076.063 -2241.612)" fill="#858787"/>
      <path id="Trazado_157849" data-name="Trazado 157849" d="M1182.388,2329.407v-49.866a7.554,7.554,0,0,0-3.777-6.542l-43.185-24.933a7.552,7.552,0,0,0-7.554,0L1084.686,2273a7.554,7.554,0,0,0-3.777,6.542v49.866a7.553,7.553,0,0,0,3.777,6.541l43.186,24.934a7.557,7.557,0,0,0,7.554,0l43.185-24.934A7.553,7.553,0,0,0,1182.388,2329.407Z" transform="translate(-1076.548 -2241.612)" fill="#818484"/>
      <path id="Trazado_157850" data-name="Trazado 157850" d="M1182.63,2329.1v-49.866a7.555,7.555,0,0,0-3.777-6.542l-43.186-24.933a7.556,7.556,0,0,0-7.554,0l-43.185,24.933a7.555,7.555,0,0,0-3.777,6.542V2329.1a7.554,7.554,0,0,0,3.777,6.542l43.185,24.933a7.552,7.552,0,0,0,7.554,0l43.186-24.933A7.554,7.554,0,0,0,1182.63,2329.1Z" transform="translate(-1077.032 -2241.612)" fill="#7e8081"/>
      <path id="Trazado_157851" data-name="Trazado 157851" d="M1182.872,2328.8v-49.866a7.554,7.554,0,0,0-3.777-6.542l-43.185-24.933a7.557,7.557,0,0,0-7.554,0l-43.185,24.933a7.554,7.554,0,0,0-3.777,6.542V2328.8a7.555,7.555,0,0,0,3.777,6.542l43.185,24.933a7.557,7.557,0,0,0,7.554,0l43.185-24.933A7.555,7.555,0,0,0,1182.872,2328.8Z" transform="translate(-1077.517 -2241.612)" fill="#7b7d7e"/>
      <path id="Trazado_157852" data-name="Trazado 157852" d="M1183.114,2328.5v-49.866a7.554,7.554,0,0,0-3.777-6.542l-43.185-24.933a7.552,7.552,0,0,0-7.554,0l-43.185,24.933a7.552,7.552,0,0,0-3.777,6.542V2328.5a7.554,7.554,0,0,0,3.777,6.542l43.185,24.933a7.556,7.556,0,0,0,7.554,0l43.185-24.933A7.556,7.556,0,0,0,1183.114,2328.5Z" transform="translate(-1078.001 -2241.612)" fill="#787a7a"/>
      <path id="Trazado_157853" data-name="Trazado 157853" d="M1183.357,2328.2v-49.866a7.556,7.556,0,0,0-3.777-6.542l-43.186-24.933a7.555,7.555,0,0,0-7.553,0l-43.186,24.933a7.556,7.556,0,0,0-3.777,6.542V2328.2a7.554,7.554,0,0,0,3.777,6.542l43.186,24.933a7.55,7.55,0,0,0,7.553,0l43.186-24.933A7.554,7.554,0,0,0,1183.357,2328.2Z" transform="translate(-1078.486 -2241.612)" fill="#747777"/>
      <path id="Trazado_157854" data-name="Trazado 157854" d="M1183.6,2327.9v-49.866a7.552,7.552,0,0,0-3.777-6.542l-43.185-24.933a7.556,7.556,0,0,0-7.554,0l-43.185,24.933a7.554,7.554,0,0,0-3.777,6.542V2327.9a7.555,7.555,0,0,0,3.777,6.542l43.185,24.933a7.556,7.556,0,0,0,7.554,0l43.185-24.933A7.553,7.553,0,0,0,1183.6,2327.9Z" transform="translate(-1078.971 -2241.612)" fill="#717374"/>
      <path id="Trazado_157855" data-name="Trazado 157855" d="M1183.841,2327.593v-49.866a7.554,7.554,0,0,0-3.777-6.542l-43.185-24.933a7.552,7.552,0,0,0-7.554,0l-43.185,24.933a7.554,7.554,0,0,0-3.777,6.542v49.866a7.556,7.556,0,0,0,3.777,6.542l43.185,24.933a7.557,7.557,0,0,0,7.554,0l43.185-24.933A7.556,7.556,0,0,0,1183.841,2327.593Z" transform="translate(-1079.455 -2241.612)" fill="#6e7071"/>
      <path id="Trazado_157856" data-name="Trazado 157856" d="M1184.083,2327.29v-49.866a7.556,7.556,0,0,0-3.777-6.542l-43.185-24.933a7.556,7.556,0,0,0-7.554,0l-43.186,24.933a7.555,7.555,0,0,0-3.776,6.542v49.866a7.553,7.553,0,0,0,3.776,6.542l43.186,24.933a7.55,7.55,0,0,0,7.554,0l43.185-24.933A7.554,7.554,0,0,0,1184.083,2327.29Z" transform="translate(-1079.939 -2241.612)" fill="#6a6d6e"/>
      <path id="Trazado_157857" data-name="Trazado 157857" d="M1184.326,2326.988v-49.866a7.554,7.554,0,0,0-3.777-6.542l-43.186-24.933a7.556,7.556,0,0,0-7.554,0l-43.185,24.933a7.554,7.554,0,0,0-3.777,6.542v49.866a7.554,7.554,0,0,0,3.777,6.542l43.185,24.933a7.555,7.555,0,0,0,7.554,0l43.186-24.933A7.554,7.554,0,0,0,1184.326,2326.988Z" transform="translate(-1080.424 -2241.612)" fill="#676a6a"/>
      <path id="Trazado_157858" data-name="Trazado 157858" d="M1184.568,2326.686V2276.82a7.552,7.552,0,0,0-3.777-6.542l-43.185-24.933a7.552,7.552,0,0,0-7.554,0l-43.185,24.933a7.554,7.554,0,0,0-3.777,6.542v49.866a7.556,7.556,0,0,0,3.777,6.542l43.185,24.933a7.555,7.555,0,0,0,7.554,0l43.185-24.933A7.554,7.554,0,0,0,1184.568,2326.686Z" transform="translate(-1080.909 -2241.612)" fill="#646667"/>
      <path id="Trazado_157859" data-name="Trazado 157859" d="M1184.81,2326.383v-49.866a7.553,7.553,0,0,0-3.777-6.541l-43.185-24.934a7.557,7.557,0,0,0-7.554,0l-43.185,24.934a7.551,7.551,0,0,0-3.777,6.541v49.866a7.552,7.552,0,0,0,3.777,6.542l43.185,24.933a7.551,7.551,0,0,0,7.554,0l43.185-24.933A7.554,7.554,0,0,0,1184.81,2326.383Z" transform="translate(-1081.393 -2241.612)" fill="#606364"/>
      <path id="Trazado_157860" data-name="Trazado 157860" d="M1185.053,2326.081v-49.866a7.555,7.555,0,0,0-3.777-6.542l-43.186-24.933a7.555,7.555,0,0,0-7.553,0l-43.186,24.933a7.555,7.555,0,0,0-3.777,6.542v49.866a7.554,7.554,0,0,0,3.777,6.542l43.186,24.933a7.553,7.553,0,0,0,7.553,0l43.186-24.933A7.554,7.554,0,0,0,1185.053,2326.081Z" transform="translate(-1081.878 -2241.612)" fill="#5d6061"/>
      <path id="Trazado_157861" data-name="Trazado 157861" d="M1185.3,2325.779v-49.866a7.553,7.553,0,0,0-3.776-6.542l-43.186-24.933a7.55,7.55,0,0,0-7.554,0l-43.185,24.933a7.554,7.554,0,0,0-3.777,6.542v49.866a7.555,7.555,0,0,0,3.777,6.542l43.185,24.933a7.555,7.555,0,0,0,7.554,0l43.186-24.933A7.554,7.554,0,0,0,1185.3,2325.779Z" transform="translate(-1082.363 -2241.612)" fill="#5a5d5d"/>
      <path id="Trazado_157862" data-name="Trazado 157862" d="M1185.537,2325.476V2275.61a7.553,7.553,0,0,0-3.777-6.541l-43.185-24.934a7.555,7.555,0,0,0-7.554,0l-43.185,24.934a7.553,7.553,0,0,0-3.777,6.541v49.866a7.554,7.554,0,0,0,3.777,6.542l43.185,24.933a7.55,7.55,0,0,0,7.554,0l43.185-24.933A7.554,7.554,0,0,0,1185.537,2325.476Z" transform="translate(-1082.847 -2241.612)" fill="#57595a"/>
      <path id="Trazado_157863" data-name="Trazado 157863" d="M1185.779,2325.174v-49.866a7.554,7.554,0,0,0-3.777-6.542l-43.185-24.933a7.555,7.555,0,0,0-7.554,0l-43.186,24.933a7.554,7.554,0,0,0-3.776,6.542v49.866a7.553,7.553,0,0,0,3.776,6.542l43.186,24.933a7.555,7.555,0,0,0,7.554,0L1182,2331.716A7.554,7.554,0,0,0,1185.779,2325.174Z" transform="translate(-1083.331 -2241.612)" fill="#535657"/>
      <path id="Trazado_157864" data-name="Trazado 157864" d="M1186.022,2324.872v-49.866a7.554,7.554,0,0,0-3.777-6.542l-43.186-24.933a7.549,7.549,0,0,0-7.553,0l-43.186,24.933a7.553,7.553,0,0,0-3.777,6.542v49.866a7.555,7.555,0,0,0,3.777,6.542l43.186,24.933a7.553,7.553,0,0,0,7.553,0l43.186-24.933A7.555,7.555,0,0,0,1186.022,2324.872Z" transform="translate(-1083.816 -2241.612)" fill="#505354"/>
      <path id="Trazado_157865" data-name="Trazado 157865" d="M1186.264,2324.569V2274.7a7.551,7.551,0,0,0-3.777-6.541l-43.185-24.933a7.55,7.55,0,0,0-7.554,0l-43.185,24.933a7.553,7.553,0,0,0-3.777,6.541v49.866a7.554,7.554,0,0,0,3.777,6.542l43.185,24.933a7.55,7.55,0,0,0,7.554,0l43.185-24.933A7.552,7.552,0,0,0,1186.264,2324.569Z" transform="translate(-1084.301 -2241.612)" fill="#4d5050"/>
      <path id="Trazado_157866" data-name="Trazado 157866" d="M1186.506,2324.267V2274.4a7.555,7.555,0,0,0-3.777-6.542l-43.185-24.933a7.555,7.555,0,0,0-7.554,0l-43.185,24.933a7.555,7.555,0,0,0-3.777,6.542v49.866a7.554,7.554,0,0,0,3.777,6.542l43.185,24.933a7.555,7.555,0,0,0,7.554,0l43.185-24.933A7.554,7.554,0,0,0,1186.506,2324.267Z" transform="translate(-1084.785 -2241.612)" fill="#494c4d"/>
      <path id="Trazado_157867" data-name="Trazado 157867" d="M1186.749,2323.965V2274.1a7.554,7.554,0,0,0-3.777-6.542l-43.185-24.933a7.555,7.555,0,0,0-7.554,0l-43.186,24.933a7.554,7.554,0,0,0-3.777,6.542v49.866a7.555,7.555,0,0,0,3.777,6.542l43.186,24.933a7.555,7.555,0,0,0,7.554,0l43.185-24.933A7.555,7.555,0,0,0,1186.749,2323.965Z" transform="translate(-1085.27 -2241.612)" fill="#46494a"/>
    </g>
    <g id="Grupo_108109" data-name="Grupo 108109" transform="translate(1682.73 -12974.229)">
      <path id="Trazado_157868" data-name="Trazado 157868" d="M1085.27,2322.583v-49.867a7.553,7.553,0,0,1,3.777-6.541l43.185-24.933a7.552,7.552,0,0,1,7.554,0l43.186,24.933a7.553,7.553,0,0,1,3.777,6.541v49.867a7.554,7.554,0,0,1-3.777,6.541l-43.186,24.933a7.55,7.55,0,0,1-7.554,0l-43.185-24.933A7.553,7.553,0,0,1,1085.27,2322.583Z" fill="#fff"/>
      <path id="Trazado_157869" data-name="Trazado 157869" d="M1087.244,2322.317v-49.335a6.04,6.04,0,0,1,3.02-5.231l42.725-24.667a6.036,6.036,0,0,1,6.041,0l42.725,24.667a6.04,6.04,0,0,1,3.02,5.231v49.335a6.04,6.04,0,0,1-3.02,5.231l-42.725,24.667a6.038,6.038,0,0,1-6.041,0l-42.725-24.667A6.04,6.04,0,0,1,1087.244,2322.317Z" fill="url(#linear-gradient)"/>
    </g>
    <g id="internacional" transform="translate(2784 -10714)">
      <ellipse id="Elipse_5079" data-name="Elipse 5079" cx="33.911" cy="33.911" rx="33.911" ry="33.911" transform="translate(1.089 5.556)" fill="#838cfc"/>
      <path id="Trazado_157369" data-name="Trazado 157369" d="M217.9,38.2a34.071,34.071,0,0,0-6.485.622,33.915,33.915,0,0,1,0,66.577A33.912,33.912,0,1,0,217.9,38.2Z" transform="translate(-182.897 -32.644)" fill="#4752e3"/>
      <path id="Trazado_157370" data-name="Trazado 157370" d="M163.367,201.613l-3.66,5.17a5.526,5.526,0,0,0,1.317,7.7l.93.659a5.526,5.526,0,0,1,2.329,4.713l-.536,14.577a3.463,3.463,0,0,0,5.437,2.972l10.027-6.966a15.23,15.23,0,0,0,3.74-3.707l6.461-9.127a4.361,4.361,0,0,0-1.04-6.079L172.227,200.1A6.356,6.356,0,0,0,163.367,201.613Z" transform="translate(-137.844 -169.996)" fill="#96e83c"/>
      <path id="Trazado_157371" data-name="Trazado 157371" d="M106.511,41.97a2.8,2.8,0,0,1-.355-3.17,33.713,33.713,0,0,0-15.99,5.346L85.415,48.9a6.566,6.566,0,0,0-1.923,4.643v5.293a1.7,1.7,0,0,0,2.674,1.4l3.9-2.711a7.583,7.583,0,0,1,4.325-1.354h5.025a6.207,6.207,0,0,0,4.389-1.818l4.958-4.958a3.41,3.41,0,0,0,.159-4.652Z" transform="translate(-73.582 -33.157)" fill="#96e83c"/>
      <path id="Trazado_157372" data-name="Trazado 157372" d="M396.938,97.214,395,103.97a11.7,11.7,0,0,0,.572,8.022l2.119,4.718a5.958,5.958,0,0,0,8.759,2.5l1.574-1.058A33.841,33.841,0,0,0,396.938,97.214Z" transform="translate(-339.392 -83.075)" fill="#96e83c"/>
      <path id="Trazado_157373" data-name="Trazado 157373" d="M404.407,82.654c-.215,5.164-4.152,9.68-6.094,11.6a1.511,1.511,0,0,1-2.128,0c-2-1.978-6.1-6.7-6.1-12.046a7.167,7.167,0,0,1,7.246-7.167A7.249,7.249,0,0,1,404.407,82.654Z" transform="translate(-335.581 -64.131)" fill="#ff7542"/>
      <path id="Trazado_157374" data-name="Trazado 157374" d="M420.54,75.35a7.368,7.368,0,0,1,1.814,5.162c-.21,5.03-3.949,9.444-5.937,11.448a27.163,27.163,0,0,0,2.274,2.559,1.511,1.511,0,0,0,2.128,0c1.941-1.924,5.878-6.44,6.094-11.6A7.268,7.268,0,0,0,420.54,75.35Z" transform="translate(-358.086 -64.391)" fill="#f85316"/>
      <ellipse id="Elipse_5080" data-name="Elipse 5080" cx="3.507" cy="3.507" rx="3.507" ry="3.507" transform="translate(58.162 14.844)" fill="#e5ecf1"/>
      <path id="Trazado_157375" data-name="Trazado 157375" d="M425.686,102.518a3.506,3.506,0,0,1-3.121,5.956,3.507,3.507,0,1,0,3.121-5.956Z" transform="translate(-363.339 -87.608)" fill="#c2d0da"/>
      <path id="Trazado_157376" data-name="Trazado 157376" d="M249.426,161.247c-.215,5.164-4.152,9.681-6.094,11.6a1.511,1.511,0,0,1-2.128,0c-2-1.978-6.1-6.7-6.1-12.046a7.167,7.167,0,0,1,7.246-7.167A7.249,7.249,0,0,1,249.426,161.247Z" transform="translate(-203.14 -131.293)" fill="#ff7542"/>
      <path id="Trazado_157377" data-name="Trazado 157377" d="M265.558,153.943a7.368,7.368,0,0,1,1.814,5.162c-.21,5.03-3.949,9.444-5.937,11.448a27.15,27.15,0,0,0,2.274,2.559,1.511,1.511,0,0,0,2.128,0c1.941-1.924,5.878-6.44,6.094-11.6A7.268,7.268,0,0,0,265.558,153.943Z" transform="translate(-225.645 -131.553)" fill="#f85316"/>
      <ellipse id="Elipse_5081" data-name="Elipse 5081" cx="3.507" cy="3.507" rx="3.507" ry="3.507" transform="translate(35.621 26.275)" fill="#e5ecf1"/>
      <path id="Trazado_157378" data-name="Trazado 157378" d="M270.7,181.112a3.506,3.506,0,0,1-3.121,5.956,3.507,3.507,0,1,0,3.121-5.956Z" transform="translate(-230.897 -154.771)" fill="#c2d0da"/>
      <path id="Trazado_157379" data-name="Trazado 157379" d="M173.016,276.857c-.215,5.164-4.152,9.681-6.094,11.6a1.511,1.511,0,0,1-2.128,0c-2-1.978-6.1-6.7-6.1-12.046a7.167,7.167,0,0,1,7.246-7.167A7.249,7.249,0,0,1,173.016,276.857Z" transform="translate(-137.843 -230.089)" fill="#ff7542"/>
      <path id="Trazado_157380" data-name="Trazado 157380" d="M189.148,269.553a7.368,7.368,0,0,1,1.814,5.162c-.21,5.03-3.949,9.444-5.937,11.448a27.151,27.151,0,0,0,2.274,2.56,1.511,1.511,0,0,0,2.128,0c1.941-1.924,5.878-6.44,6.094-11.6A7.268,7.268,0,0,0,189.148,269.553Z" transform="translate(-160.348 -230.349)" fill="#f85316"/>
      <ellipse id="Elipse_5082" data-name="Elipse 5082" cx="3.507" cy="3.507" rx="3.507" ry="3.507" transform="translate(24.507 43.09)" fill="#e5ecf1"/>
      <path id="Trazado_157381" data-name="Trazado 157381" d="M194.294,296.721a3.507,3.507,0,0,1-3.121,5.956,3.507,3.507,0,1,0,3.121-5.956Z" transform="translate(-165.602 -253.565)" fill="#c2d0da"/>
      <path id="Trazado_157382" data-name="Trazado 157382" d="M64.136,15.1c-.215,5.164-4.152,9.68-6.094,11.6a1.511,1.511,0,0,1-2.128,0c-2-1.978-6.1-6.7-6.1-12.046a7.167,7.167,0,0,1,7.246-7.167A7.249,7.249,0,0,1,64.136,15.1Z" transform="translate(-44.8 -6.401)" fill="#ff7542"/>
      <path id="Trazado_157383" data-name="Trazado 157383" d="M80.268,7.793a7.368,7.368,0,0,1,1.814,5.162c-.21,5.03-3.949,9.444-5.937,11.448a27.152,27.152,0,0,0,2.274,2.559,1.511,1.511,0,0,0,2.128,0c1.941-1.924,5.878-6.44,6.094-11.6a7.268,7.268,0,0,0-6.372-7.564Z" transform="translate(-67.304 -6.66)" fill="#f85316"/>
      <ellipse id="Elipse_5083" data-name="Elipse 5083" cx="3.507" cy="3.507" rx="3.507" ry="3.507" transform="translate(8.672 5.019)" fill="#e5ecf1"/>
      <path id="Trazado_157384" data-name="Trazado 157384" d="M85.414,34.962a3.507,3.507,0,0,1-3.121,5.956,3.507,3.507,0,1,0,3.121-5.956Z" transform="translate(-72.557 -29.877)" fill="#c2d0da"/>
      <path id="Trazado_157385" data-name="Trazado 157385" d="M82.715,26.115a15.72,15.72,0,0,0,2.555-7.547,8.509,8.509,0,0,0-2.313-6.181,8.118,8.118,0,0,0-5.843-2.561h-.092a8.188,8.188,0,0,0-5.294,1.923A35.02,35.02,0,0,0,35.752,7.655a8.508,8.508,0,0,0-2.285-5.093A8.118,8.118,0,0,0,27.625,0h-.092a8.257,8.257,0,0,0-8.256,8.257A16.539,16.539,0,0,0,22.865,17.8a34.884,34.884,0,0,0-5.2,9.124,1.089,1.089,0,1,0,2.034.781,32.693,32.693,0,0,1,4.515-8.094,7.662,7.662,0,0,0-.043.772v5.293a2.79,2.79,0,0,0,4.384,2.293l3.9-2.711a6.464,6.464,0,0,1,3.7-1.159h5.025a7.249,7.249,0,0,0,5.159-2.137L51.31,17a4.512,4.512,0,0,0,.209-6.138L49.105,8.1a1.719,1.719,0,0,1-.4-1.407c.548-.028,1.1-.045,1.646-.045a32.909,32.909,0,0,1,19.894,6.717,8.191,8.191,0,0,0-1.482,4.72,13.2,13.2,0,0,0,.765,4.325,12.772,12.772,0,0,0,1.006,6.957l2.119,4.718a7.047,7.047,0,0,0,10.36,2.961L83.086,37q.091,1.227.091,2.469A32.821,32.821,0,1,1,18.4,31.948a1.089,1.089,0,1,0-2.121-.5,35.169,35.169,0,0,0-.923,8.016,35,35,0,1,0,67.36-13.352ZM23.259,3.936a6.035,6.035,0,0,1,4.274-1.757H27.6a5.956,5.956,0,0,1,4.286,1.882A6.319,6.319,0,0,1,33.6,8.652c-.2,4.854-4.1,9.223-5.772,10.876a.424.424,0,0,1-.595,0C25.5,17.806,21.456,13.26,21.456,8.257A6.035,6.035,0,0,1,23.259,3.936Zm24.2,5.593L49.878,12.3a2.327,2.327,0,0,1-.108,3.166l-4.958,4.958a5.084,5.084,0,0,1-3.619,1.5H36.168a8.633,8.633,0,0,0-4.946,1.549l-3.9,2.711a.613.613,0,0,1-.963-.5V21.545a2.61,2.61,0,0,0,3.011-.469c2.1-2.082,5.529-6.131,6.277-10.952A32.85,32.85,0,0,1,46.512,6.873a3.9,3.9,0,0,0,.951,2.656ZM77.023,12h.067a5.956,5.956,0,0,1,4.286,1.882,6.319,6.319,0,0,1,1.717,4.59c-.2,4.854-4.1,9.223-5.772,10.876a.424.424,0,0,1-.595,0c-1.738-1.723-5.781-6.269-5.781-11.272A6.078,6.078,0,0,1,77.023,12ZM81.8,35.235a4.869,4.869,0,0,1-7.158-2.046l-2.119-4.718a10.642,10.642,0,0,1-.473-1.267,27.869,27.869,0,0,0,3.141,3.7,2.609,2.609,0,0,0,3.662,0,28.528,28.528,0,0,0,2.357-2.645,32.434,32.434,0,0,1,1.6,6.3Z" transform="translate(-15.355 0)" fill="#12263f"/>
      <path id="Trazado_157386" data-name="Trazado 157386" d="M412.357,103.768a4.6,4.6,0,1,0-4.6-4.6A4.6,4.6,0,0,0,412.357,103.768Zm0-7.014a2.418,2.418,0,1,1-2.418,2.418A2.42,2.42,0,0,1,412.357,96.753Z" transform="translate(-350.689 -80.82)" fill="#12263f"/>
      <path id="Trazado_157387" data-name="Trazado 157387" d="M176.494,148.712a8.118,8.118,0,0,0-5.843-2.562h-.092a8.262,8.262,0,0,0-8.089,6.594,7.456,7.456,0,0,0-6.4,3.137l-3.66,5.17a6.6,6.6,0,0,0-.5,6.809,8.231,8.231,0,0,0-.713,3.361c0,4.8,2.941,9.021,5.294,11.632l-.237,6.439a4.555,4.555,0,0,0,7.147,3.906l10.027-6.966a16.27,16.27,0,0,0,4.008-3.973l3.027-4.276a1.089,1.089,0,0,0-1.778-1.259L175.651,181a14.1,14.1,0,0,1-3.473,3.442l-10.027,6.966a2.374,2.374,0,0,1-3.727-2.037l.177-4.724a2.6,2.6,0,0,0,2.676-.609c2.3-2.278,6.189-6.91,6.415-12.333a8.51,8.51,0,0,0-2.313-6.181,8.2,8.2,0,0,0-11.74-.175c-.074.073-.144.148-.214.223a4.428,4.428,0,0,1,.759-3.264l3.66-5.17a5.276,5.276,0,0,1,4.47-2.219c.234,5.393,4.089,10,6.415,12.306a2.609,2.609,0,0,0,3.662,0,27.674,27.674,0,0,0,3.289-3.913l5.652,4a3.272,3.272,0,0,1,.78,4.561L181.317,173a1.089,1.089,0,1,0,1.778,1.259l.795-1.123a5.45,5.45,0,0,0-1.3-7.6l-5.763-4.08a15.03,15.03,0,0,0,1.978-6.564,8.508,8.508,0,0,0-2.313-6.181Zm-17.047,16.431h.067a5.956,5.956,0,0,1,4.286,1.882,6.32,6.32,0,0,1,1.717,4.59c-.2,4.854-4.1,9.223-5.772,10.876a.423.423,0,0,1-.594,0c-1.738-1.722-5.781-6.268-5.781-11.272a6.078,6.078,0,0,1,6.078-6.078Zm11.411.535a.423.423,0,0,1-.595,0c-1.738-1.723-5.781-6.269-5.781-11.272a6.078,6.078,0,0,1,6.078-6.078h.067a5.956,5.956,0,0,1,4.286,1.882,6.319,6.319,0,0,1,1.717,4.59C176.427,159.656,172.526,164.025,170.858,165.678Z" transform="translate(-131.432 -124.894)" fill="#12263f"/>
      <path id="Trazado_157388" data-name="Trazado 157388" d="M260.881,176.676a1.089,1.089,0,0,0-1.089,1.089,2.415,2.415,0,1,1-1.938-2.37,1.089,1.089,0,0,0,.429-2.136,4.6,4.6,0,1,0,3.687,4.506A1.089,1.089,0,0,0,260.881,176.676Z" transform="translate(-218.247 -147.983)" fill="#12263f"/>
      <path id="Trazado_157389" data-name="Trazado 157389" d="M180.964,297.971a4.6,4.6,0,1,0-4.6-4.6A4.6,4.6,0,0,0,180.964,297.971Zm0-7.014a2.418,2.418,0,1,1-2.418,2.418A2.42,2.42,0,0,1,180.964,290.956Z" transform="translate(-152.95 -246.777)" fill="#12263f"/>
      <path id="Trazado_157390" data-name="Trazado 157390" d="M76.681,31.614a4.6,4.6,0,1,0-4.6,4.6A4.6,4.6,0,0,0,76.681,31.614Zm-7.014,0a2.418,2.418,0,1,1,2.418,2.418A2.42,2.42,0,0,1,69.667,31.614Z" transform="translate(-59.906 -23.088)" fill="#12263f"/>
    </g>
  </g>
</svg>
