<svg id="Grupo_108387" data-name="Grupo 108387" xmlns="http://www.w3.org/2000/svg" xmlns:xlink="http://www.w3.org/1999/xlink" width="121.789" height="140.293" viewBox="0 0 121.789 140.293">
  <defs>
    <linearGradient id="linear-gradient" x1="0.235" y1="0.86" x2="0.769" y2="0.134" gradientUnits="objectBoundingBox">
      <stop offset="0" stop-color="#fff"/>
      <stop offset="0.439" stop-color="#fcfcfc"/>
      <stop offset="0.682" stop-color="#f4f5f5"/>
      <stop offset="0.875" stop-color="#e6e9e9"/>
      <stop offset="0.995" stop-color="#dadede"/>
    </linearGradient>
  </defs>
  <ellipse id="Elipse_5084" data-name="Elipse 5084" cx="8.792" cy="8.792" rx="8.792" ry="8.792" transform="matrix(-0.161, -0.987, 0.987, -0.161, 54.142, 56.039)" fill="#fde947"/>
  <ellipse id="Elipse_5085" data-name="Elipse 5085" cx="8.792" cy="8.792" rx="8.792" ry="8.792" transform="matrix(-0.161, -0.987, 0.987, -0.161, 43.142, 86.039)" fill="#3ca8f4"/>
  <path id="Trazado_157687" data-name="Trazado 157687" d="M648.775,2147.762v-56.068a8.495,8.495,0,0,1,4.246-7.356l48.557-28.034a8.494,8.494,0,0,1,8.493,0l48.557,28.034a8.493,8.493,0,0,1,4.246,7.356v56.068a8.492,8.492,0,0,1-4.246,7.355l-48.557,28.034a8.488,8.488,0,0,1-8.493,0l-48.557-28.034A8.494,8.494,0,0,1,648.775,2147.762Z" transform="translate(-648.775 -2055.166)" fill="#3d46c2"/>
  <g id="Grupo_108104" data-name="Grupo 108104" transform="translate(6.743 8.524)" opacity="0.4" style="mix-blend-mode: multiply;isolation: isolate">
    <path id="Trazado_157688" data-name="Trazado 157688" d="M770.131,2162.973v-49.866a7.555,7.555,0,0,0-3.777-6.542l-43.185-24.933a7.555,7.555,0,0,0-7.554,0l-43.185,24.933a7.555,7.555,0,0,0-3.777,6.542v49.866a7.553,7.553,0,0,0,3.777,6.542l43.185,24.933a7.555,7.555,0,0,0,7.554,0l43.185-24.933A7.553,7.553,0,0,0,770.131,2162.973Z" transform="translate(-655.085 -2063.69)" fill="#fff"/>
    <path id="Trazado_157689" data-name="Trazado 157689" d="M769.889,2162.671V2112.8a7.554,7.554,0,0,0-3.777-6.542l-43.185-24.933a7.551,7.551,0,0,0-7.554,0l-43.185,24.933a7.552,7.552,0,0,0-3.777,6.542v49.866a7.552,7.552,0,0,0,3.777,6.542l43.185,24.933a7.555,7.555,0,0,0,7.554,0l43.185-24.933A7.555,7.555,0,0,0,769.889,2162.671Z" transform="translate(-655.085 -2063.69)" fill="#fcfcfc"/>
    <path id="Trazado_157690" data-name="Trazado 157690" d="M769.647,2162.368V2112.5a7.554,7.554,0,0,0-3.777-6.541l-43.186-24.933a7.549,7.549,0,0,0-7.553,0l-43.186,24.933a7.553,7.553,0,0,0-3.777,6.541v49.866a7.554,7.554,0,0,0,3.777,6.542l43.186,24.933a7.549,7.549,0,0,0,7.553,0l43.186-24.933A7.554,7.554,0,0,0,769.647,2162.368Z" transform="translate(-655.085 -2063.69)" fill="#f8f8f9"/>
    <path id="Trazado_157691" data-name="Trazado 157691" d="M769.4,2162.066V2112.2a7.553,7.553,0,0,0-3.777-6.542l-43.185-24.933a7.555,7.555,0,0,0-7.554,0L671.7,2105.658a7.555,7.555,0,0,0-3.777,6.542v49.866a7.554,7.554,0,0,0,3.777,6.542l43.185,24.933a7.557,7.557,0,0,0,7.554,0l43.185-24.933A7.552,7.552,0,0,0,769.4,2162.066Z" transform="translate(-655.085 -2063.69)" fill="#f5f5f5"/>
    <path id="Trazado_157692" data-name="Trazado 157692" d="M769.162,2161.764V2111.9a7.554,7.554,0,0,0-3.777-6.542L722.2,2080.423a7.551,7.551,0,0,0-7.554,0l-43.185,24.933a7.554,7.554,0,0,0-3.777,6.542v49.866a7.555,7.555,0,0,0,3.777,6.542l43.185,24.933a7.557,7.557,0,0,0,7.554,0l43.185-24.933A7.555,7.555,0,0,0,769.162,2161.764Z" transform="translate(-655.085 -2063.69)" fill="#f2f2f2"/>
    <path id="Trazado_157693" data-name="Trazado 157693" d="M768.92,2161.462v-49.867a7.554,7.554,0,0,0-3.777-6.541l-43.186-24.933a7.549,7.549,0,0,0-7.553,0l-43.186,24.933a7.554,7.554,0,0,0-3.777,6.541v49.867a7.553,7.553,0,0,0,3.777,6.541l43.186,24.933a7.55,7.55,0,0,0,7.553,0L765.143,2168A7.553,7.553,0,0,0,768.92,2161.462Z" transform="translate(-655.085 -2063.69)" fill="#eeefef"/>
    <path id="Trazado_157694" data-name="Trazado 157694" d="M768.677,2161.159v-49.866a7.554,7.554,0,0,0-3.776-6.542l-43.186-24.933a7.555,7.555,0,0,0-7.554,0l-43.185,24.933a7.555,7.555,0,0,0-3.777,6.542v49.866a7.554,7.554,0,0,0,3.777,6.542l43.185,24.933a7.557,7.557,0,0,0,7.554,0L764.9,2167.7A7.553,7.553,0,0,0,768.677,2161.159Z" transform="translate(-655.085 -2063.69)" fill="#ebebec"/>
    <path id="Trazado_157695" data-name="Trazado 157695" d="M768.435,2160.857v-49.866a7.554,7.554,0,0,0-3.777-6.542l-43.185-24.933a7.555,7.555,0,0,0-7.554,0l-43.185,24.933a7.554,7.554,0,0,0-3.777,6.542v49.866a7.555,7.555,0,0,0,3.777,6.542l43.185,24.933a7.557,7.557,0,0,0,7.554,0l43.185-24.933A7.555,7.555,0,0,0,768.435,2160.857Z" transform="translate(-655.085 -2063.69)" fill="#e8e8e8"/>
    <path id="Trazado_157696" data-name="Trazado 157696" d="M768.193,2160.555v-49.867a7.554,7.554,0,0,0-3.777-6.541l-43.185-24.933a7.551,7.551,0,0,0-7.554,0l-43.185,24.933a7.551,7.551,0,0,0-3.777,6.541v49.867a7.551,7.551,0,0,0,3.777,6.541l43.185,24.933a7.552,7.552,0,0,0,7.554,0l43.185-24.933A7.553,7.553,0,0,0,768.193,2160.555Z" transform="translate(-655.085 -2063.69)" fill="#e5e5e5"/>
    <path id="Trazado_157697" data-name="Trazado 157697" d="M767.951,2160.252v-49.866a7.555,7.555,0,0,0-3.777-6.542l-43.186-24.933a7.555,7.555,0,0,0-7.553,0l-43.186,24.933a7.555,7.555,0,0,0-3.777,6.542v49.866a7.554,7.554,0,0,0,3.777,6.542l43.186,24.933a7.555,7.555,0,0,0,7.553,0l43.186-24.933A7.554,7.554,0,0,0,767.951,2160.252Z" transform="translate(-655.085 -2063.69)" fill="#e1e2e2"/>
    <path id="Trazado_157698" data-name="Trazado 157698" d="M767.708,2159.95v-49.866a7.552,7.552,0,0,0-3.777-6.542l-43.185-24.933a7.556,7.556,0,0,0-7.554,0l-43.185,24.933a7.554,7.554,0,0,0-3.777,6.542v49.866a7.555,7.555,0,0,0,3.777,6.542l43.185,24.933a7.556,7.556,0,0,0,7.554,0l43.185-24.933A7.553,7.553,0,0,0,767.708,2159.95Z" transform="translate(-655.085 -2063.69)" fill="#dededf"/>
    <path id="Trazado_157699" data-name="Trazado 157699" d="M767.466,2159.648v-49.867a7.554,7.554,0,0,0-3.777-6.541L720.5,2078.307a7.552,7.552,0,0,0-7.554,0l-43.185,24.933a7.554,7.554,0,0,0-3.777,6.541v49.867a7.553,7.553,0,0,0,3.777,6.541l43.185,24.933a7.552,7.552,0,0,0,7.554,0l43.185-24.933A7.553,7.553,0,0,0,767.466,2159.648Z" transform="translate(-655.085 -2063.69)" fill="#dbdbdb"/>
    <path id="Trazado_157700" data-name="Trazado 157700" d="M767.224,2159.345v-49.866a7.555,7.555,0,0,0-3.777-6.542L720.262,2078a7.557,7.557,0,0,0-7.554,0l-43.186,24.933a7.554,7.554,0,0,0-3.776,6.542v49.866a7.553,7.553,0,0,0,3.776,6.542l43.186,24.933a7.552,7.552,0,0,0,7.554,0l43.185-24.933A7.554,7.554,0,0,0,767.224,2159.345Z" transform="translate(-655.085 -2063.69)" fill="#d7d8d8"/>
    <path id="Trazado_157701" data-name="Trazado 157701" d="M766.982,2159.043v-49.866a7.554,7.554,0,0,0-3.777-6.542L720.019,2077.7a7.556,7.556,0,0,0-7.554,0l-43.185,24.933a7.554,7.554,0,0,0-3.777,6.542v49.866a7.555,7.555,0,0,0,3.777,6.542l43.185,24.933a7.556,7.556,0,0,0,7.554,0l43.186-24.933A7.555,7.555,0,0,0,766.982,2159.043Z" transform="translate(-655.085 -2063.69)" fill="#d4d5d5"/>
    <path id="Trazado_157702" data-name="Trazado 157702" d="M766.739,2158.741v-49.867a7.553,7.553,0,0,0-3.777-6.541L719.777,2077.4a7.552,7.552,0,0,0-7.554,0l-43.185,24.933a7.553,7.553,0,0,0-3.777,6.541v49.867a7.553,7.553,0,0,0,3.777,6.541l43.185,24.933a7.552,7.552,0,0,0,7.554,0l43.185-24.933A7.553,7.553,0,0,0,766.739,2158.741Z" transform="translate(-655.085 -2063.69)" fill="#d1d1d2"/>
    <path id="Trazado_157703" data-name="Trazado 157703" d="M766.5,2158.438v-49.866a7.555,7.555,0,0,0-3.777-6.542L719.535,2077.1a7.556,7.556,0,0,0-7.554,0L668.8,2102.03a7.553,7.553,0,0,0-3.777,6.542v49.866a7.552,7.552,0,0,0,3.777,6.542l43.185,24.933a7.552,7.552,0,0,0,7.554,0l43.185-24.933A7.554,7.554,0,0,0,766.5,2158.438Z" transform="translate(-655.085 -2063.69)" fill="#cdcecf"/>
    <path id="Trazado_157704" data-name="Trazado 157704" d="M766.255,2158.136V2108.27a7.554,7.554,0,0,0-3.777-6.542l-43.186-24.933a7.555,7.555,0,0,0-7.553,0l-43.186,24.933a7.554,7.554,0,0,0-3.777,6.542v49.866a7.555,7.555,0,0,0,3.777,6.542l43.186,24.933a7.555,7.555,0,0,0,7.553,0l43.186-24.933A7.555,7.555,0,0,0,766.255,2158.136Z" transform="translate(-655.085 -2063.69)" fill="#cacbcb"/>
    <path id="Trazado_157705" data-name="Trazado 157705" d="M766.012,2157.834v-49.866a7.552,7.552,0,0,0-3.777-6.542l-43.185-24.933a7.552,7.552,0,0,0-7.554,0l-43.185,24.933a7.554,7.554,0,0,0-3.777,6.542v49.866a7.554,7.554,0,0,0,3.777,6.541l43.185,24.934a7.557,7.557,0,0,0,7.554,0l43.185-24.934A7.551,7.551,0,0,0,766.012,2157.834Z" transform="translate(-655.085 -2063.69)" fill="#c7c8c8"/>
    <path id="Trazado_157706" data-name="Trazado 157706" d="M765.77,2157.531v-49.866a7.555,7.555,0,0,0-3.777-6.542l-43.185-24.933a7.556,7.556,0,0,0-7.554,0l-43.185,24.933a7.555,7.555,0,0,0-3.777,6.542v49.866a7.554,7.554,0,0,0,3.777,6.542l43.185,24.933a7.552,7.552,0,0,0,7.554,0l43.185-24.933A7.554,7.554,0,0,0,765.77,2157.531Z" transform="translate(-655.085 -2063.69)" fill="#c4c4c5"/>
    <path id="Trazado_157707" data-name="Trazado 157707" d="M765.528,2157.229v-49.866a7.554,7.554,0,0,0-3.777-6.542l-43.185-24.933a7.556,7.556,0,0,0-7.554,0l-43.186,24.933a7.553,7.553,0,0,0-3.776,6.542v49.866a7.554,7.554,0,0,0,3.776,6.542l43.186,24.933a7.556,7.556,0,0,0,7.554,0l43.185-24.933A7.555,7.555,0,0,0,765.528,2157.229Z" transform="translate(-655.085 -2063.69)" fill="#c0c1c2"/>
    <path id="Trazado_157708" data-name="Trazado 157708" d="M765.286,2156.927v-49.866a7.554,7.554,0,0,0-3.777-6.542l-43.186-24.933a7.552,7.552,0,0,0-7.554,0l-43.185,24.933a7.554,7.554,0,0,0-3.777,6.542v49.866a7.556,7.556,0,0,0,3.777,6.542l43.185,24.933a7.557,7.557,0,0,0,7.554,0l43.186-24.933A7.556,7.556,0,0,0,765.286,2156.927Z" transform="translate(-655.085 -2063.69)" fill="#bdbebe"/>
    <path id="Trazado_157709" data-name="Trazado 157709" d="M765.043,2156.624v-49.866a7.554,7.554,0,0,0-3.777-6.542l-43.185-24.933a7.557,7.557,0,0,0-7.554,0l-43.185,24.933a7.556,7.556,0,0,0-3.777,6.542v49.866a7.554,7.554,0,0,0,3.777,6.542l43.185,24.933a7.552,7.552,0,0,0,7.554,0l43.185-24.933A7.552,7.552,0,0,0,765.043,2156.624Z" transform="translate(-655.085 -2063.69)" fill="#babbbb"/>
    <path id="Trazado_157710" data-name="Trazado 157710" d="M764.8,2156.322v-49.866a7.554,7.554,0,0,0-3.777-6.542l-43.185-24.933a7.557,7.557,0,0,0-7.554,0L667.1,2099.914a7.552,7.552,0,0,0-3.777,6.542v49.866a7.553,7.553,0,0,0,3.777,6.542l43.185,24.933a7.557,7.557,0,0,0,7.554,0l43.185-24.933A7.555,7.555,0,0,0,764.8,2156.322Z" transform="translate(-655.085 -2063.69)" fill="#b6b7b8"/>
    <path id="Trazado_157711" data-name="Trazado 157711" d="M764.559,2156.02v-49.866a7.554,7.554,0,0,0-3.777-6.542L717.6,2074.679a7.55,7.55,0,0,0-7.553,0l-43.186,24.933a7.554,7.554,0,0,0-3.777,6.542v49.866a7.556,7.556,0,0,0,3.777,6.542l43.186,24.933a7.555,7.555,0,0,0,7.553,0l43.186-24.933A7.556,7.556,0,0,0,764.559,2156.02Z" transform="translate(-655.085 -2063.69)" fill="#b3b4b5"/>
    <path id="Trazado_157712" data-name="Trazado 157712" d="M764.316,2155.717v-49.866a7.555,7.555,0,0,0-3.776-6.542l-43.186-24.933a7.557,7.557,0,0,0-7.554,0l-43.185,24.933a7.556,7.556,0,0,0-3.777,6.542v49.866a7.554,7.554,0,0,0,3.777,6.542l43.185,24.933a7.551,7.551,0,0,0,7.554,0l43.186-24.933A7.553,7.553,0,0,0,764.316,2155.717Z" transform="translate(-655.085 -2063.69)" fill="#b0b1b1"/>
    <path id="Trazado_157713" data-name="Trazado 157713" d="M764.074,2155.415v-49.866a7.554,7.554,0,0,0-3.777-6.542l-43.185-24.933a7.557,7.557,0,0,0-7.554,0l-43.185,24.933a7.554,7.554,0,0,0-3.777,6.542v49.866a7.554,7.554,0,0,0,3.777,6.542l43.185,24.933a7.555,7.555,0,0,0,7.554,0l43.185-24.933A7.554,7.554,0,0,0,764.074,2155.415Z" transform="translate(-655.085 -2063.69)" fill="#acaeae"/>
    <path id="Trazado_157714" data-name="Trazado 157714" d="M763.832,2155.113v-49.866a7.554,7.554,0,0,0-3.777-6.542l-43.185-24.933a7.552,7.552,0,0,0-7.554,0l-43.185,24.933a7.552,7.552,0,0,0-3.777,6.542v49.866a7.554,7.554,0,0,0,3.777,6.542l43.185,24.933a7.555,7.555,0,0,0,7.554,0l43.185-24.933A7.556,7.556,0,0,0,763.832,2155.113Z" transform="translate(-655.085 -2063.69)" fill="#a9aaab"/>
    <path id="Trazado_157715" data-name="Trazado 157715" d="M763.59,2154.81v-49.866a7.556,7.556,0,0,0-3.777-6.542l-43.186-24.933a7.555,7.555,0,0,0-7.553,0L665.888,2098.4a7.556,7.556,0,0,0-3.777,6.542v49.866a7.554,7.554,0,0,0,3.777,6.542l43.186,24.933a7.549,7.549,0,0,0,7.553,0l43.186-24.933A7.554,7.554,0,0,0,763.59,2154.81Z" transform="translate(-655.085 -2063.69)" fill="#a6a7a8"/>
    <path id="Trazado_157716" data-name="Trazado 157716" d="M763.347,2154.508v-49.866a7.553,7.553,0,0,0-3.777-6.542l-43.185-24.933a7.557,7.557,0,0,0-7.554,0L665.646,2098.1a7.555,7.555,0,0,0-3.777,6.542v49.866a7.554,7.554,0,0,0,3.777,6.542l43.185,24.933a7.555,7.555,0,0,0,7.554,0l43.185-24.933A7.552,7.552,0,0,0,763.347,2154.508Z" transform="translate(-655.085 -2063.69)" fill="#a3a4a5"/>
    <path id="Trazado_157717" data-name="Trazado 157717" d="M763.1,2154.206V2104.34a7.554,7.554,0,0,0-3.777-6.542l-43.185-24.933a7.551,7.551,0,0,0-7.554,0L665.4,2097.8a7.554,7.554,0,0,0-3.777,6.542v49.866a7.556,7.556,0,0,0,3.777,6.542l43.185,24.933a7.555,7.555,0,0,0,7.554,0l43.185-24.933A7.556,7.556,0,0,0,763.1,2154.206Z" transform="translate(-655.085 -2063.69)" fill="#9fa1a1"/>
    <path id="Trazado_157718" data-name="Trazado 157718" d="M762.863,2153.9v-49.866a7.553,7.553,0,0,0-3.777-6.541L715.9,2072.562a7.555,7.555,0,0,0-7.554,0L665.161,2097.5a7.553,7.553,0,0,0-3.777,6.541V2153.9a7.554,7.554,0,0,0,3.777,6.542l43.186,24.933a7.551,7.551,0,0,0,7.554,0l43.185-24.933A7.554,7.554,0,0,0,762.863,2153.9Z" transform="translate(-655.085 -2063.69)" fill="#9c9e9e"/>
    <path id="Trazado_157719" data-name="Trazado 157719" d="M762.62,2153.6v-49.866a7.554,7.554,0,0,0-3.776-6.542l-43.186-24.933a7.555,7.555,0,0,0-7.554,0l-43.185,24.933a7.554,7.554,0,0,0-3.777,6.542V2153.6a7.554,7.554,0,0,0,3.777,6.542l43.185,24.933a7.555,7.555,0,0,0,7.554,0l43.186-24.933A7.553,7.553,0,0,0,762.62,2153.6Z" transform="translate(-655.085 -2063.69)" fill="#999a9b"/>
    <path id="Trazado_157720" data-name="Trazado 157720" d="M762.378,2153.3v-49.866a7.553,7.553,0,0,0-3.777-6.542l-43.185-24.933a7.551,7.551,0,0,0-7.554,0l-43.185,24.933a7.553,7.553,0,0,0-3.777,6.542V2153.3a7.555,7.555,0,0,0,3.777,6.542l43.185,24.933a7.555,7.555,0,0,0,7.554,0l43.185-24.933A7.555,7.555,0,0,0,762.378,2153.3Z" transform="translate(-655.085 -2063.69)" fill="#959798"/>
    <path id="Trazado_157721" data-name="Trazado 157721" d="M762.136,2153V2103.13a7.553,7.553,0,0,0-3.777-6.541l-43.185-24.934a7.555,7.555,0,0,0-7.554,0l-43.185,24.934a7.551,7.551,0,0,0-3.777,6.541V2153a7.552,7.552,0,0,0,3.777,6.542l43.185,24.933a7.551,7.551,0,0,0,7.554,0l43.185-24.933A7.554,7.554,0,0,0,762.136,2153Z" transform="translate(-655.085 -2063.69)" fill="#929494"/>
    <path id="Trazado_157722" data-name="Trazado 157722" d="M761.894,2152.694v-49.866a7.555,7.555,0,0,0-3.777-6.542l-43.186-24.933a7.554,7.554,0,0,0-7.553,0l-43.186,24.933a7.555,7.555,0,0,0-3.777,6.542v49.866a7.554,7.554,0,0,0,3.777,6.542l43.186,24.933a7.554,7.554,0,0,0,7.553,0l43.186-24.933A7.554,7.554,0,0,0,761.894,2152.694Z" transform="translate(-655.085 -2063.69)" fill="#8f9191"/>
    <path id="Trazado_157723" data-name="Trazado 157723" d="M761.651,2152.392v-49.866a7.552,7.552,0,0,0-3.777-6.542l-43.185-24.933a7.551,7.551,0,0,0-7.554,0l-43.185,24.933a7.554,7.554,0,0,0-3.777,6.542v49.866a7.555,7.555,0,0,0,3.777,6.542l43.185,24.933a7.555,7.555,0,0,0,7.554,0l43.185-24.933A7.553,7.553,0,0,0,761.651,2152.392Z" transform="translate(-655.085 -2063.69)" fill="#8b8d8e"/>
    <path id="Trazado_157724" data-name="Trazado 157724" d="M761.409,2152.089v-49.866a7.554,7.554,0,0,0-3.777-6.541l-43.185-24.933a7.551,7.551,0,0,0-7.554,0l-43.185,24.933a7.553,7.553,0,0,0-3.777,6.541v49.866a7.554,7.554,0,0,0,3.777,6.542l43.185,24.933a7.551,7.551,0,0,0,7.554,0l43.185-24.933A7.554,7.554,0,0,0,761.409,2152.089Z" transform="translate(-655.085 -2063.69)" fill="#888a8b"/>
    <path id="Trazado_157725" data-name="Trazado 157725" d="M761.167,2151.787v-49.866a7.555,7.555,0,0,0-3.777-6.542l-43.185-24.933a7.555,7.555,0,0,0-7.554,0l-43.186,24.933a7.554,7.554,0,0,0-3.776,6.542v49.866a7.553,7.553,0,0,0,3.776,6.542l43.186,24.933a7.555,7.555,0,0,0,7.554,0l43.185-24.933A7.554,7.554,0,0,0,761.167,2151.787Z" transform="translate(-655.085 -2063.69)" fill="#858787"/>
    <path id="Trazado_157726" data-name="Trazado 157726" d="M760.925,2151.485v-49.866a7.554,7.554,0,0,0-3.777-6.542l-43.186-24.933a7.555,7.555,0,0,0-7.554,0l-43.185,24.933a7.554,7.554,0,0,0-3.777,6.542v49.866a7.555,7.555,0,0,0,3.777,6.542l43.185,24.933a7.555,7.555,0,0,0,7.554,0l43.186-24.933A7.555,7.555,0,0,0,760.925,2151.485Z" transform="translate(-655.085 -2063.69)" fill="#818484"/>
    <path id="Trazado_157727" data-name="Trazado 157727" d="M760.682,2151.183v-49.867a7.554,7.554,0,0,0-3.777-6.541l-43.185-24.933a7.55,7.55,0,0,0-7.554,0l-43.185,24.933a7.554,7.554,0,0,0-3.777,6.541v49.867a7.554,7.554,0,0,0,3.777,6.541l43.185,24.933a7.55,7.55,0,0,0,7.554,0l43.185-24.933A7.554,7.554,0,0,0,760.682,2151.183Z" transform="translate(-655.085 -2063.69)" fill="#7e8081"/>
    <path id="Trazado_157728" data-name="Trazado 157728" d="M760.44,2150.88v-49.866a7.555,7.555,0,0,0-3.777-6.542l-43.185-24.933a7.555,7.555,0,0,0-7.554,0l-43.185,24.933a7.553,7.553,0,0,0-3.777,6.542v49.866a7.552,7.552,0,0,0,3.777,6.542l43.185,24.933a7.555,7.555,0,0,0,7.554,0l43.185-24.933A7.554,7.554,0,0,0,760.44,2150.88Z" transform="translate(-655.085 -2063.69)" fill="#7b7d7e"/>
    <path id="Trazado_157729" data-name="Trazado 157729" d="M760.2,2150.578v-49.866a7.554,7.554,0,0,0-3.777-6.542l-43.186-24.933a7.553,7.553,0,0,0-7.553,0L662.5,2094.17a7.554,7.554,0,0,0-3.777,6.542v49.866a7.555,7.555,0,0,0,3.777,6.542l43.186,24.933a7.553,7.553,0,0,0,7.553,0l43.186-24.933A7.555,7.555,0,0,0,760.2,2150.578Z" transform="translate(-655.085 -2063.69)" fill="#787a7a"/>
    <path id="Trazado_157730" data-name="Trazado 157730" d="M759.955,2150.276v-49.867a7.551,7.551,0,0,0-3.777-6.541l-43.185-24.933a7.55,7.55,0,0,0-7.554,0l-43.185,24.933a7.554,7.554,0,0,0-3.777,6.541v49.867a7.553,7.553,0,0,0,3.777,6.541l43.185,24.933a7.55,7.55,0,0,0,7.554,0l43.185-24.933A7.551,7.551,0,0,0,759.955,2150.276Z" transform="translate(-655.085 -2063.69)" fill="#747777"/>
    <path id="Trazado_157731" data-name="Trazado 157731" d="M759.713,2149.973v-49.866a7.555,7.555,0,0,0-3.777-6.542l-43.185-24.933a7.555,7.555,0,0,0-7.554,0l-43.185,24.933a7.555,7.555,0,0,0-3.777,6.542v49.866a7.553,7.553,0,0,0,3.777,6.542l43.185,24.933a7.555,7.555,0,0,0,7.554,0l43.185-24.933A7.553,7.553,0,0,0,759.713,2149.973Z" transform="translate(-655.085 -2063.69)" fill="#717374"/>
    <path id="Trazado_157732" data-name="Trazado 157732" d="M759.471,2149.671V2099.8a7.554,7.554,0,0,0-3.777-6.542l-43.185-24.933a7.555,7.555,0,0,0-7.554,0l-43.186,24.933a7.553,7.553,0,0,0-3.776,6.542v49.866a7.554,7.554,0,0,0,3.776,6.542l43.186,24.933a7.555,7.555,0,0,0,7.554,0l43.185-24.933A7.555,7.555,0,0,0,759.471,2149.671Z" transform="translate(-655.085 -2063.69)" fill="#6e7071"/>
    <path id="Trazado_157733" data-name="Trazado 157733" d="M759.229,2149.369V2099.5a7.554,7.554,0,0,0-3.777-6.542l-43.186-24.933a7.551,7.551,0,0,0-7.554,0l-43.185,24.933a7.554,7.554,0,0,0-3.777,6.542v49.866a7.553,7.553,0,0,0,3.777,6.541l43.185,24.933a7.551,7.551,0,0,0,7.554,0l43.186-24.933A7.553,7.553,0,0,0,759.229,2149.369Z" transform="translate(-655.085 -2063.69)" fill="#6a6d6e"/>
    <path id="Trazado_157734" data-name="Trazado 157734" d="M758.986,2149.066V2099.2a7.553,7.553,0,0,0-3.777-6.542l-43.185-24.933a7.555,7.555,0,0,0-7.554,0l-43.185,24.933a7.555,7.555,0,0,0-3.777,6.542v49.866a7.554,7.554,0,0,0,3.777,6.542l43.185,24.933a7.557,7.557,0,0,0,7.554,0l43.185-24.933A7.552,7.552,0,0,0,758.986,2149.066Z" transform="translate(-655.085 -2063.69)" fill="#676a6a"/>
    <path id="Trazado_157735" data-name="Trazado 157735" d="M758.744,2148.764V2098.9a7.554,7.554,0,0,0-3.777-6.542l-43.185-24.933a7.555,7.555,0,0,0-7.554,0l-43.185,24.933a7.554,7.554,0,0,0-3.777,6.542v49.866a7.555,7.555,0,0,0,3.777,6.542l43.185,24.933a7.556,7.556,0,0,0,7.554,0l43.185-24.933A7.555,7.555,0,0,0,758.744,2148.764Z" transform="translate(-655.085 -2063.69)" fill="#646667"/>
    <path id="Trazado_157736" data-name="Trazado 157736" d="M758.5,2148.462V2098.6a7.554,7.554,0,0,0-3.777-6.542l-43.186-24.933a7.549,7.549,0,0,0-7.553,0L660.8,2092.054a7.554,7.554,0,0,0-3.777,6.542v49.866A7.553,7.553,0,0,0,660.8,2155l43.186,24.933a7.551,7.551,0,0,0,7.553,0L754.725,2155A7.553,7.553,0,0,0,758.5,2148.462Z" transform="translate(-655.085 -2063.69)" fill="#606364"/>
    <path id="Trazado_157737" data-name="Trazado 157737" d="M758.259,2148.159v-49.866a7.554,7.554,0,0,0-3.776-6.542L711.3,2066.818a7.555,7.555,0,0,0-7.554,0l-43.185,24.933a7.555,7.555,0,0,0-3.777,6.542v49.866a7.554,7.554,0,0,0,3.777,6.542l43.185,24.933a7.553,7.553,0,0,0,7.554,0l43.186-24.933A7.553,7.553,0,0,0,758.259,2148.159Z" transform="translate(-655.085 -2063.69)" fill="#5d6061"/>
    <path id="Trazado_157738" data-name="Trazado 157738" d="M758.017,2147.857v-49.866a7.554,7.554,0,0,0-3.777-6.542l-43.185-24.933a7.555,7.555,0,0,0-7.554,0l-43.185,24.933a7.554,7.554,0,0,0-3.777,6.542v49.866a7.555,7.555,0,0,0,3.777,6.542l43.185,24.933a7.558,7.558,0,0,0,7.554,0L754.24,2154.4A7.555,7.555,0,0,0,758.017,2147.857Z" transform="translate(-655.085 -2063.69)" fill="#5a5d5d"/>
    <path id="Trazado_157739" data-name="Trazado 157739" d="M757.775,2147.555v-49.866a7.554,7.554,0,0,0-3.777-6.542l-43.185-24.933a7.551,7.551,0,0,0-7.554,0l-43.185,24.933a7.552,7.552,0,0,0-3.777,6.542v49.866a7.551,7.551,0,0,0,3.777,6.541l43.185,24.934a7.558,7.558,0,0,0,7.554,0L754,2154.1A7.553,7.553,0,0,0,757.775,2147.555Z" transform="translate(-655.085 -2063.69)" fill="#57595a"/>
    <path id="Trazado_157740" data-name="Trazado 157740" d="M757.533,2147.252v-49.866a7.555,7.555,0,0,0-3.777-6.542l-43.186-24.933a7.555,7.555,0,0,0-7.553,0l-43.186,24.933a7.555,7.555,0,0,0-3.777,6.542v49.866a7.554,7.554,0,0,0,3.777,6.542l43.186,24.933a7.55,7.55,0,0,0,7.553,0l43.186-24.933A7.554,7.554,0,0,0,757.533,2147.252Z" transform="translate(-655.085 -2063.69)" fill="#535657"/>
    <path id="Trazado_157741" data-name="Trazado 157741" d="M757.29,2146.95v-49.866a7.552,7.552,0,0,0-3.777-6.542l-43.185-24.933a7.557,7.557,0,0,0-7.554,0l-43.185,24.933a7.554,7.554,0,0,0-3.777,6.542v49.866a7.555,7.555,0,0,0,3.777,6.542l43.185,24.933a7.557,7.557,0,0,0,7.554,0l43.185-24.933A7.553,7.553,0,0,0,757.29,2146.95Z" transform="translate(-655.085 -2063.69)" fill="#505354"/>
    <path id="Trazado_157742" data-name="Trazado 157742" d="M757.048,2146.648v-49.866a7.554,7.554,0,0,0-3.777-6.542l-43.185-24.933a7.552,7.552,0,0,0-7.554,0l-43.185,24.933a7.554,7.554,0,0,0-3.777,6.542v49.866a7.556,7.556,0,0,0,3.777,6.542l43.185,24.933a7.557,7.557,0,0,0,7.554,0l43.185-24.933A7.556,7.556,0,0,0,757.048,2146.648Z" transform="translate(-655.085 -2063.69)" fill="#4d5050"/>
    <path id="Trazado_157743" data-name="Trazado 157743" d="M756.806,2146.345v-49.866a7.556,7.556,0,0,0-3.777-6.542L709.844,2065a7.557,7.557,0,0,0-7.554,0L659.1,2089.937a7.556,7.556,0,0,0-3.777,6.542v49.866a7.554,7.554,0,0,0,3.777,6.542l43.186,24.933a7.552,7.552,0,0,0,7.554,0l43.185-24.933A7.554,7.554,0,0,0,756.806,2146.345Z" transform="translate(-655.085 -2063.69)" fill="#494c4d"/>
    <path id="Trazado_157744" data-name="Trazado 157744" d="M756.564,2146.043v-49.866a7.554,7.554,0,0,0-3.777-6.542L709.6,2064.7a7.557,7.557,0,0,0-7.554,0l-43.185,24.933a7.554,7.554,0,0,0-3.777,6.542v49.866a7.555,7.555,0,0,0,3.777,6.542l43.185,24.933a7.557,7.557,0,0,0,7.554,0l43.186-24.933A7.555,7.555,0,0,0,756.564,2146.043Z" transform="translate(-655.085 -2063.69)" fill="#46494a"/>
  </g>
  <g id="Grupo_108105" data-name="Grupo 108105" transform="translate(6.264 7)">
    <path id="Trazado_157745" data-name="Trazado 157745" d="M655.085,2144.661v-49.866a7.554,7.554,0,0,1,3.777-6.542l43.186-24.933a7.551,7.551,0,0,1,7.554,0l43.185,24.933a7.554,7.554,0,0,1,3.777,6.542v49.866a7.556,7.556,0,0,1-3.777,6.542L709.6,2176.136a7.555,7.555,0,0,1-7.554,0L658.862,2151.2A7.556,7.556,0,0,1,655.085,2144.661Z" transform="translate(-655.085 -2062.308)" fill="#fff"/>
    <path id="Trazado_157746" data-name="Trazado 157746" d="M657.059,2144.4v-49.334a6.04,6.04,0,0,1,3.02-5.232l42.725-24.667a6.041,6.041,0,0,1,6.041,0l42.725,24.667a6.04,6.04,0,0,1,3.02,5.232V2144.4a6.042,6.042,0,0,1-3.02,5.232l-42.725,24.667a6.041,6.041,0,0,1-6.041,0l-42.725-24.667A6.042,6.042,0,0,1,657.059,2144.4Z" transform="translate(-655.085 -2062.308)" fill="url(#linear-gradient)"/>
  </g>
  <g id="empresa" transform="translate(21.743 30)">
    <g id="Grupo_107675" data-name="Grupo 107675" transform="translate(1.129 1.129)">
      <g id="Grupo_107643" data-name="Grupo 107643" transform="translate(4.516)">
        <path id="Trazado_157295" data-name="Trazado 157295" d="M6,27.968v4.516l6.865-3a22.567,22.567,0,0,1,44.981,0l6.865,3V27.968h-.474a2.359,2.359,0,0,1-.892-4.539l.429-.181-2.6-6.255-.44.181a2.342,2.342,0,0,1-2.845-.858l-.011-.011a2.375,2.375,0,0,1,.294-2.981L58.511,13l-4.8-4.8-.327.339a2.361,2.361,0,0,1-3.85-2.574l.181-.429-6.255-2.6-.181.44A2.352,2.352,0,0,1,40.65,4.789l-.011-.011a2.336,2.336,0,0,1-1.9-2.3V2H31.968v.474a2.336,2.336,0,0,1-1.9,2.3H30.06a2.347,2.347,0,0,1-2.631-1.411l-.181-.429-6.255,2.6.181.429A2.367,2.367,0,0,1,20.3,8.831h-.011a2.329,2.329,0,0,1-2.958-.294L17,8.2,12.2,13l.339.339a2.329,2.329,0,0,1,.294,2.958l-.011.023a2.342,2.342,0,0,1-2.845.858l-.44-.181-2.6,6.255.44.181A2.352,2.352,0,0,1,8.789,26.06l-.011.011a2.336,2.336,0,0,1-2.3,1.9Z" transform="translate(-6 -2)" fill="#f3ff3c"/>
      </g>
      <g id="Grupo_107644" data-name="Grupo 107644" transform="translate(45.161 22.581)">
        <path id="Trazado_157296" data-name="Trazado 157296" d="M10.516,37.761a7.579,7.579,0,0,1,5.363-2.213h6.255a4.105,4.105,0,0,1,1.931.474V29.9l-6.865-3L6,22V38.935H9.545l.948-1.152Z" transform="translate(-6 -22)" fill="#ccd1d9"/>
      </g>
      <g id="Grupo_107645" data-name="Grupo 107645" transform="translate(4.516 22.581)">
        <path id="Trazado_157297" data-name="Trazado 157297" d="M51.032,35.8a10.246,10.246,0,0,1,4.516,2.337c.135.135.271.26.406.4s.26.271.384.406h3.726V22l-11.2,4.9L42,29.9v8.231A10.246,10.246,0,0,1,46.516,35.8a10.388,10.388,0,0,1,4.516,0Z" transform="translate(-42 -22)" fill="#ccd1d9"/>
      </g>
      <g id="Grupo_107646" data-name="Grupo 107646" transform="translate(22.581 11.29)">
        <path id="Trazado_157298" data-name="Trazado 157298" d="M22,12v4.516L44.581,19.9V15.387Z" transform="translate(-22 -12)" fill="#ccd1d9"/>
      </g>
      <g id="Grupo_107647" data-name="Grupo 107647" transform="translate(22.581 15.806)">
        <path id="Trazado_157299" data-name="Trazado 157299" d="M44.581,19.387V39.71H22V16Z" transform="translate(-22 -16)" fill="#e6e9ed"/>
      </g>
      <g id="Grupo_107648" data-name="Grupo 107648" transform="translate(27.097 22.581)">
        <path id="Trazado_157300" data-name="Trazado 157300" d="M38.516,22H34v4.516h4.516Z" transform="translate(-34 -22)" fill="#838cfc"/>
      </g>
      <g id="Grupo_107649" data-name="Grupo 107649" transform="translate(27.097 31.613)">
        <path id="Trazado_157301" data-name="Trazado 157301" d="M34,30v6.244a6.741,6.741,0,0,1,4.516-1.727V30Z" transform="translate(-34 -30)" fill="#838cfc"/>
      </g>
      <g id="Grupo_107650" data-name="Grupo 107650" transform="translate(36.129 31.613)">
        <path id="Trazado_157302" data-name="Trazado 157302" d="M26,30v4.516a6.741,6.741,0,0,1,4.516,1.727V30Z" transform="translate(-26 -30)" fill="#838cfc"/>
      </g>
      <g id="Grupo_107651" data-name="Grupo 107651" transform="translate(36.129 22.581)">
        <path id="Trazado_157303" data-name="Trazado 157303" d="M30.516,22H26v4.516h4.516Z" transform="translate(-26 -22)" fill="#838cfc"/>
      </g>
      <g id="Grupo_107652" data-name="Grupo 107652" transform="translate(56.452 58.608)">
        <path id="Trazado_157304" data-name="Trazado 157304" d="M5.884,58.054,2,63.044H13.29V60.266a6.931,6.931,0,0,0-2.032-4.9A6.8,6.8,0,0,0,9.1,53.91Z" transform="translate(-2 -53.91)" fill="#f3ff3c"/>
      </g>
      <g id="Grupo_107653" data-name="Grupo 107653" transform="translate(45.161 58.608)">
        <path id="Trazado_157305" data-name="Trazado 157305" d="M12,63.044H23.29l-3.884-4.99L16.189,53.91a6.8,6.8,0,0,0-2.156,1.456A6.931,6.931,0,0,0,12,60.266Z" transform="translate(-12 -53.91)" fill="#f3ff3c"/>
      </g>
      <g id="Grupo_107654" data-name="Grupo 107654" transform="translate(52.568 59.839)">
        <path id="Trazado_157306" data-name="Trazado 157306" d="M8.56,57.913l3.884,4.99,3.884-4.99L12.444,55Z" transform="translate(-8.56 -55)" fill="#838cfc"/>
      </g>
      <g id="Grupo_107655" data-name="Grupo 107655" transform="translate(49.35 57.581)">
        <path id="Trazado_157307" data-name="Trazado 157307" d="M12,54.027l3.218,4.144L19.1,55.258,15.715,53l-2.653.666A6.911,6.911,0,0,0,12,54.027Z" transform="translate(-12 -53)" fill="#f85316"/>
      </g>
      <g id="Grupo_107656" data-name="Grupo 107656" transform="translate(56.452 57.581)">
        <path id="Trazado_157308" data-name="Trazado 157308" d="M5.71,55.258l3.884,2.913,3.218-4.144a6.91,6.91,0,0,0-1.061-.361L9.1,53Z" transform="translate(-5.71 -53)" fill="#f85316"/>
      </g>
      <g id="Grupo_107657" data-name="Grupo 107657" transform="translate(22.581 58.608)">
        <path id="Trazado_157309" data-name="Trazado 157309" d="M32,60.266v2.777H43.29l-3.884-4.99L36.189,53.91a6.8,6.8,0,0,0-2.156,1.456A6.931,6.931,0,0,0,32,60.266Z" transform="translate(-32 -53.91)" fill="#b4dd7f"/>
      </g>
      <g id="Grupo_107658" data-name="Grupo 107658" transform="translate(33.871 58.608)">
        <path id="Trazado_157310" data-name="Trazado 157310" d="M25.884,58.054,22,63.044H33.29V60.266a6.931,6.931,0,0,0-2.032-4.9A6.8,6.8,0,0,0,29.1,53.91Z" transform="translate(-22 -53.91)" fill="#b4dd7f"/>
      </g>
      <g id="Grupo_107659" data-name="Grupo 107659" transform="translate(29.987 59.839)">
        <path id="Trazado_157311" data-name="Trazado 157311" d="M28.56,57.913l3.884,4.99,3.884-4.99L32.444,55Z" transform="translate(-28.56 -55)" fill="#f85316"/>
      </g>
      <g id="Grupo_107660" data-name="Grupo 107660" transform="translate(26.769 57.581)">
        <path id="Trazado_157312" data-name="Trazado 157312" d="M32,54.027l3.218,4.144L39.1,55.258,35.715,53l-2.653.666A6.911,6.911,0,0,0,32,54.027Z" transform="translate(-32 -53)" fill="#838cfc"/>
      </g>
      <g id="Grupo_107661" data-name="Grupo 107661" transform="translate(33.871 57.581)">
        <path id="Trazado_157313" data-name="Trazado 157313" d="M25.71,55.258l3.884,2.913,3.218-4.144a6.91,6.91,0,0,0-1.061-.361L29.1,53Z" transform="translate(-25.71 -53)" fill="#838cfc"/>
      </g>
      <g id="Grupo_107662" data-name="Grupo 107662" transform="translate(0 58.608)">
        <path id="Trazado_157314" data-name="Trazado 157314" d="M52,60.266v2.777H63.29L58.9,57.4l-2.71-3.489a6.753,6.753,0,0,0-1.919,1.242c-.079.068-.158.135-.237.215A6.931,6.931,0,0,0,52,60.266Z" transform="translate(-52 -53.91)" fill="#f85316"/>
      </g>
      <g id="Grupo_107663" data-name="Grupo 107663" transform="translate(11.29 58.608)">
        <path id="Trazado_157315" data-name="Trazado 157315" d="M46.392,57.4,42,63.044H53.29V60.266a6.931,6.931,0,0,0-2.032-4.9c-.079-.079-.158-.147-.237-.215A6.753,6.753,0,0,0,49.1,53.91Z" transform="translate(-42 -53.91)" fill="#f85316"/>
      </g>
      <g id="Grupo_107664" data-name="Grupo 107664" transform="translate(6.898 62.097)">
        <path id="Trazado_157316" data-name="Trazado 157316" d="M48.11,57,52.5,62.645,56.894,57Z" transform="translate(-48.11 -57)" fill="#838cfc"/>
      </g>
      <g id="Grupo_107665" data-name="Grupo 107665" transform="translate(50.806 43.185)">
        <path id="Trazado_157317" data-name="Trazado 157317" d="M7,44.484v2.258a5.32,5.32,0,0,0,.113,1.129,5.651,5.651,0,0,0,1.535,2.868,5.484,5.484,0,0,0,1.344.982l2.653.666a5.538,5.538,0,0,0,2.653-.666,5.631,5.631,0,0,0,2.992-4.979V44.619a4.509,4.509,0,0,0-3.41-4.369,2.256,2.256,0,0,1-2.235,1.976H9.258A2.265,2.265,0,0,0,7,44.484Z" transform="translate(-7 -40.25)" fill="#f0d0b4"/>
      </g>
      <g id="Grupo_107666" data-name="Grupo 107666" transform="translate(53.065 54.656)">
        <path id="Trazado_157318" data-name="Trazado 157318" d="M12.387,51.076,9.734,50.41,9,53.334l3.387,2.258,3.387-2.258L15.04,50.41A5.538,5.538,0,0,1,12.387,51.076Z" transform="translate(-9 -50.41)" fill="#f0d0b4"/>
      </g>
      <g id="Grupo_107667" data-name="Grupo 107667" transform="translate(28.226 43.185)">
        <path id="Trazado_157319" data-name="Trazado 157319" d="M27,44.484v2.258a5.32,5.32,0,0,0,.113,1.129,5.651,5.651,0,0,0,1.535,2.868,5.484,5.484,0,0,0,1.344.982l2.653.666a5.538,5.538,0,0,0,2.653-.666,5.626,5.626,0,0,0,2.879-3.85,5.321,5.321,0,0,0,.113-1.129V44.619a4.5,4.5,0,0,0-3.41-4.369,2.256,2.256,0,0,1-2.235,1.976H29.258A2.265,2.265,0,0,0,27,44.484Z" transform="translate(-27 -40.25)" fill="#f0d0b4"/>
      </g>
      <g id="Grupo_107668" data-name="Grupo 107668" transform="translate(30.484 54.656)">
        <path id="Trazado_157320" data-name="Trazado 157320" d="M35.774,53.334,35.04,50.41a5.538,5.538,0,0,1-2.653.666l-2.653-.666L29,53.334l3.387,2.258Z" transform="translate(-29 -50.41)" fill="#f0d0b4"/>
      </g>
      <g id="Grupo_107669" data-name="Grupo 107669" transform="translate(5.645 42.982)">
        <path id="Trazado_157321" data-name="Trazado 157321" d="M54.113,40.07a3.856,3.856,0,0,1-2.563,1.524l-2.608.373A2.269,2.269,0,0,0,47,44.2v2.563a5.67,5.67,0,0,0,1.648,4,5.65,5.65,0,0,0,6.65.982,5.631,5.631,0,0,0,2.992-4.979V44.643a4.526,4.526,0,0,0-3.421-4.381l-.745-.181Z" transform="translate(-47 -40.07)" fill="#f0d0b4"/>
      </g>
      <g id="Grupo_107670" data-name="Grupo 107670" transform="translate(4.189 54.656)">
        <path id="Trazado_157322" data-name="Trazado 157322" d="M57.2,57.85l2.71-3.489A6.912,6.912,0,0,0,58.852,54l-.677-.169A3.394,3.394,0,0,1,55.7,51.358l-.237-.948a5.617,5.617,0,0,1-5.306,0l-.237.948a3.394,3.394,0,0,1-2.473,2.473L46.771,54a6.912,6.912,0,0,0-1.061.361l2.71,3.489Z" transform="translate(-45.71 -50.41)" fill="#f0d0b4"/>
      </g>
      <g id="Grupo_107671" data-name="Grupo 107671" transform="translate(1.129 36.129)">
        <path id="Trazado_157323" data-name="Trazado 157323" d="M59.2,56.118a6.913,6.913,0,0,1,1.061.361,6.753,6.753,0,0,1,1.919,1.242l.011-.011.565-4.55a72.663,72.663,0,0,0,.565-9c0-2.2-.7-4.234-2.6-6.774-.124-.135-.248-.271-.384-.406s-.271-.26-.406-.4a10.246,10.246,0,0,0-4.516-2.337,10.388,10.388,0,0,0-4.516,0,10.246,10.246,0,0,0-4.516,2.337c-.135.135-.271.26-.406.4A10.11,10.11,0,0,0,43,44.161a72.662,72.662,0,0,0,.565,9l.565,4.55.011.011a6.753,6.753,0,0,1,1.919-1.242,6.913,6.913,0,0,1,1.061-.361l.677-.169a3.394,3.394,0,0,0,2.473-2.473l.237-.948a5.484,5.484,0,0,1-1.344-.982,5.67,5.67,0,0,1-1.648-4V44.985a2.269,2.269,0,0,1,1.942-2.235l2.608-.373a3.857,3.857,0,0,0,2.563-1.524l.011.011.745.181a4.526,4.526,0,0,1,3.421,4.381v2.123a5.631,5.631,0,0,1-2.992,4.979l.237.948a3.394,3.394,0,0,0,2.473,2.473Z" transform="translate(-43 -34)" fill="#636363"/>
      </g>
      <g id="Grupo_107672" data-name="Grupo 107672" transform="translate(47.419 36.129)">
        <path id="Trazado_157324" data-name="Trazado 157324" d="M15.268,41.056a4.51,4.51,0,0,1,2.608,1.806l1.874-.937a4.135,4.135,0,0,0,1.31-1.016,4.185,4.185,0,0,0-1.253-6.435A4.105,4.105,0,0,0,17.876,34H11.621a7.579,7.579,0,0,0-5.363,2.213l-.023.023-.948,1.152C4.045,40.639,4,41.124,4,41.621A8.623,8.623,0,0,0,6.7,47.91l.8.768a5.32,5.32,0,0,1-.113-1.129V45.29a2.265,2.265,0,0,1,2.258-2.258h3.387a2.256,2.256,0,0,0,2.235-1.976Z" transform="translate(-4 -34)" fill="#727997"/>
      </g>
      <g id="Grupo_107673" data-name="Grupo 107673" transform="translate(61.295 43.039)">
        <path id="Trazado_157325" data-name="Trazado 157325" d="M4.8,44.636v2.123l.666-.226a4.064,4.064,0,0,0,1.976-1.445,3.988,3.988,0,0,0-.26-4.968,4.135,4.135,0,0,1-1.31,1.016L4,42.073a4.481,4.481,0,0,1,.8,2.563Z" transform="translate(-4 -40.12)" fill="#727997"/>
      </g>
      <g id="Grupo_107674" data-name="Grupo 107674" transform="translate(24.839 36.129)">
        <path id="Trazado_157326" data-name="Trazado 157326" d="M35.268,41.056a4.5,4.5,0,0,1,3.41,4.369v2.123a5.32,5.32,0,0,1-.113,1.129l.8-.768a8.623,8.623,0,0,0,2.7-6.289v-.847a6.643,6.643,0,0,0-.915-3.387,6.574,6.574,0,0,0-1.344-1.66A6.741,6.741,0,0,0,35.29,34H30.774a6.741,6.741,0,0,0-4.516,1.727,6.573,6.573,0,0,0-1.344,1.66A6.643,6.643,0,0,0,24,40.774v.847a8.623,8.623,0,0,0,2.7,6.289l.8.768a5.32,5.32,0,0,1-.113-1.129V45.29a2.265,2.265,0,0,1,2.258-2.258h3.387A2.256,2.256,0,0,0,35.268,41.056Z" transform="translate(-24 -34)" fill="#b0c0d2"/>
      </g>
    </g>
    <g id="Grupo_107676" data-name="Grupo 107676" transform="translate(0 0)">
      <path id="Trazado_157327" data-name="Trazado 157327" d="M3.2,61.575l-.5-4.017a74.11,74.11,0,0,1-.569-9.138A11.249,11.249,0,0,1,5.516,40.37v-13.4H7.123a1.23,1.23,0,0,0,.47-2.363l-1.484-.615,3.457-8.345,1.486.615a1.229,1.229,0,0,0,1.336-2l-1.135-1.138,6.384-6.385,1.139,1.137a1.229,1.229,0,0,0,2-1.345L20.16,5.048,28.509,1.59l.609,1.477A1.239,1.239,0,0,0,30.5,3.8a1.218,1.218,0,0,0,.982-1.193V1h9.032V2.607a1.23,1.23,0,0,0,2.362.471l.613-1.486L51.84,5.049l-.614,1.478a1.23,1.23,0,0,0,2.006,1.34l1.131-1.129,6.384,6.385-1.129,1.132a1.236,1.236,0,0,0-.148,1.56,1.219,1.219,0,0,0,1.479.448l1.486-.615,3.457,8.345-1.471.611a1.238,1.238,0,0,0-.738,1.381,1.225,1.225,0,0,0,1.2.983h1.6V38.11A5.3,5.3,0,0,1,68,45.155a5.1,5.1,0,0,1-2.7,7.479A6.767,6.767,0,0,1,62.53,57.3l.37,1.479,2,.5A8.056,8.056,0,0,1,71,67.1V71H1V67.1a7.993,7.993,0,0,1,2.2-5.521Zm51.783-.648-1.616.4,1.541,1.981,1.718-1.289Zm3.6,2.452-2.286,1.715,2.286,2.939,2.286-2.939Zm-7.414-1.2A5.714,5.714,0,0,0,48.419,67.1v1.646h7.854ZM46.161,67.1a5.714,5.714,0,0,0-2.747-4.919l-5.107,6.565h7.854ZM42.774,49.687v.155A7.453,7.453,0,0,0,43.9,45.881v-.849a5.652,5.652,0,0,0-5.645-5.645H33.742A5.652,5.652,0,0,0,28.1,45.032v.849a7.453,7.453,0,0,0,1.129,3.961v-.294a3.391,3.391,0,0,1,3.387-3.387H36A1.129,1.129,0,1,0,36,43.9H34.871V41.645H36a3.393,3.393,0,0,1,3.344,2.849A5.643,5.643,0,0,1,42.774,49.687ZM39.387,37.219a7.833,7.833,0,0,1,2.258.683V34.871H39.387Zm-9.032.683a7.833,7.833,0,0,1,2.258-.683V34.871H30.355ZM40.516,49.687a3.39,3.39,0,0,0-1.624-2.894A3.39,3.39,0,0,1,36,48.419H32.613a1.13,1.13,0,0,0-1.129,1.129v2.258a4.516,4.516,0,1,0,9.032,0ZM36,63.379l-2.286,1.715L36,68.033l2.286-2.939Zm-3.673-.068,1.718-1.289-1.644-1.1-1.616.4ZM36,58.581a6.721,6.721,0,0,1-1.874-.27l-.225.9,2.1,1.4,2.1-1.4-.225-.9a6.721,6.721,0,0,1-1.874.27Zm3.6,2.346-1.644,1.1,1.718,1.289,1.541-1.981ZM28.586,62.178A5.714,5.714,0,0,0,25.839,67.1v1.646h7.854Zm-5,4.918a5.714,5.714,0,0,0-2.747-4.919l-5.107,6.565h7.854ZM15.5,65.355H11.336l2.083,2.678ZM9.58,63.1h7.679l1.374-1.767L18.5,61.3a4.5,4.5,0,0,1-3.192-2.992,6.657,6.657,0,0,1-3.787,0A4.5,4.5,0,0,1,8.335,61.3l-.13.033Zm3.84-6.774a4.521,4.521,0,0,0,4.516-4.516V49.687A3.382,3.382,0,0,0,15.369,46.4l-.093-.024a5.006,5.006,0,0,1-2.792,1.38l-2.611.374a1.133,1.133,0,0,0-.97,1.117v2.558A4.521,4.521,0,0,0,13.419,56.323Zm-9.032-7.9a71.763,71.763,0,0,0,.551,8.857l.34,2.715A8.072,8.072,0,0,1,7.1,59.277l.683-.17a2.252,2.252,0,0,0,1.642-1.643L9.47,57.3a6.763,6.763,0,0,1-2.825-5.493V49.248A3.4,3.4,0,0,1,9.552,45.9l2.611-.374a2.789,2.789,0,0,0,2.385-2.748V41.645h2.258v1.129a4.987,4.987,0,0,1-.273,1.628,5.637,5.637,0,0,1,3.66,5.285v2.119A6.765,6.765,0,0,1,17.368,57.3l.041.165a2.255,2.255,0,0,0,1.644,1.643l.682.17a8.06,8.06,0,0,1,1.827.715l.34-2.715a71.8,71.8,0,0,0,.551-8.858,9.032,9.032,0,0,0-18.065,0Zm57.079-22a3.506,3.506,0,0,1,1.5-3.589L61.19,18.54A3.487,3.487,0,0,1,57.6,13.168L54.319,9.884A3.488,3.488,0,0,1,48.947,6.3L44.66,4.519a3.491,3.491,0,0,1-6.34-1.261H33.681a3.489,3.489,0,0,1-6.337,1.26L23.055,6.294a3.489,3.489,0,0,1-5.373,3.591l-3.28,3.28a3.488,3.488,0,0,1-3.59,5.373L9.035,22.825a3.49,3.49,0,0,1-1.26,6.338v1.723l4.7-2.058a23.665,23.665,0,0,1,47.041,0l4.7,2.058V29.163a3.492,3.492,0,0,1-2.759-2.745ZM48.419,23.971l8.687,3.8A21.567,21.567,0,0,0,36,10.032a21.19,21.19,0,0,0-9.88,2.457l22.3,3.345Zm-2.258-6.193L25.839,14.73v2.233l20.323,3.048ZM23.581,14.071a21.5,21.5,0,0,0-8.687,13.7l8.687-3.8Zm40.645,19.28L48.419,26.436V41.645H46.161V22.295L25.839,19.246v22.4H23.581V26.436L7.774,33.351v5.305a11.177,11.177,0,0,1,2.258-1.007V34.871H12.29v2.316a11.1,11.1,0,0,1,2.258,0V32.613h2.258V37.65a11.178,11.178,0,0,1,2.258,1.007v-8.3h2.258V40.37a11.251,11.251,0,0,1,3.387,8.049,74.08,74.08,0,0,1-.569,9.137l-.5,4.017a8.1,8.1,0,0,1,1.071,1.42,8,8,0,0,1,4.976-3.716l2-.5.37-1.479a6.782,6.782,0,0,1-2.595-3.768l-.574-.546a9.808,9.808,0,0,1-3.045-7.1v-.849a7.871,7.871,0,0,1,2.258-5.52v-6.9h6.774v4.516h2.258V32.613H43.9v6.9a7.875,7.875,0,0,1,2.258,5.52v.849a9.813,9.813,0,0,1-3.044,7.1l-.575.548A6.79,6.79,0,0,1,39.948,57.3l.37,1.479,2,.5a8,8,0,0,1,4.976,3.716,8,8,0,0,1,4.976-3.716l2-.5.37-1.479a6.782,6.782,0,0,1-2.595-3.768l-.574-.546a9.808,9.808,0,0,1-3.045-7.1,8.707,8.707,0,0,1,2.258-5.847V30.355h2.258v7.873a8.676,8.676,0,0,1,2.258-.865v-4.75h2.258v4.516H59.71V34.871h2.258v2.258h1.459a5.2,5.2,0,0,1,.8.081Zm-.8,6.036H57.172a6.5,6.5,0,0,0-6.494,6.494,7.453,7.453,0,0,0,1.129,3.961v-.294a3.391,3.391,0,0,1,3.387-3.387h3.387a1.129,1.129,0,0,0,0-2.258H57.452V41.645h1.129a3.393,3.393,0,0,1,3.344,2.849,5.6,5.6,0,0,1,1.785,1.227l1.084-.542a3.057,3.057,0,0,0-1.367-5.792Zm3.057,8.423a2.832,2.832,0,0,0-.159-.918,5.427,5.427,0,0,1-.52.307l-.854.427a5.63,5.63,0,0,1,.4,2.062v.392A2.84,2.84,0,0,0,66.484,47.81ZM63.1,49.687a3.39,3.39,0,0,0-1.624-2.894,3.39,3.39,0,0,1-2.893,1.626H55.194a1.13,1.13,0,0,0-1.129,1.129v2.258a4.516,4.516,0,0,0,9.032,0Zm-4.516,8.893a6.721,6.721,0,0,1-1.874-.27l-.225.9,2.1,1.4,2.1-1.4-.225-.9A6.721,6.721,0,0,1,58.581,58.581Zm3.6,2.346-1.644,1.1,1.72,1.289,1.541-1.981ZM68.742,67.1A5.714,5.714,0,0,0,66,62.177l-5.107,6.565h7.854ZM3.258,68.742h7.854L6.005,62.178A5.714,5.714,0,0,0,3.258,67.1Z" transform="translate(-1 -1)" fill="#12263f"/>
      <path id="Trazado_157328" data-name="Trazado 157328" d="M25,21h6.774v6.774H25Zm2.258,4.516h2.258V23.258H27.258Z" transform="translate(11.129 1.581)" fill="#12263f"/>
      <path id="Trazado_157329" data-name="Trazado 157329" d="M33,21h6.774v6.774H33Zm2.258,4.516h2.258V23.258H35.258Z" transform="translate(-5.903 1.581)" fill="#12263f"/>
    </g>
  </g>
</svg>
