<svg xmlns="http://www.w3.org/2000/svg" xmlns:xlink="http://www.w3.org/1999/xlink" width="123.523" height="140.295" viewBox="0 0 123.523 140.295">
  <defs>
    <linearGradient id="linear-gradient" x1="-65.631" y1="0.86" x2="-66.166" y2="0.134" gradientUnits="objectBoundingBox">
      <stop offset="0" stop-color="#fff"/>
      <stop offset="0.439" stop-color="#fcfcfc"/>
      <stop offset="0.682" stop-color="#f4f5f5"/>
      <stop offset="0.875" stop-color="#e6e9e9"/>
      <stop offset="0.995" stop-color="#dadede"/>
    </linearGradient>
  </defs>
  <g id="Grupo_108372" data-name="Grupo 108372" transform="translate(-2761.829 11107)">
    <path id="Trazado_157748" data-name="Trazado 157748" d="M1078.96,1959.762v-56.068a8.492,8.492,0,0,1,4.246-7.356l48.557-28.034a8.494,8.494,0,0,1,8.493,0l48.557,28.034a8.494,8.494,0,0,1,4.246,7.356v56.068a8.494,8.494,0,0,1-4.246,7.355l-48.557,28.034a8.489,8.489,0,0,1-8.493,0l-48.557-28.034A8.492,8.492,0,0,1,1078.96,1959.762Z" transform="translate(1682.869 -12974.166)" fill="#3d46c2"/>
    <g id="Grupo_108106" data-name="Grupo 108106" transform="translate(2770.306 -11098.476)" opacity="0.4" style="mix-blend-mode: multiply;isolation: isolate">
      <path id="Trazado_157749" data-name="Trazado 157749" d="M1173.181,1974.973v-49.866a7.553,7.553,0,0,0-3.777-6.542l-43.185-24.933a7.556,7.556,0,0,0-7.554,0l-43.185,24.933a7.555,7.555,0,0,0-3.777,6.542v49.866a7.554,7.554,0,0,0,3.777,6.542l43.185,24.933a7.556,7.556,0,0,0,7.554,0l43.185-24.933A7.552,7.552,0,0,0,1173.181,1974.973Z" transform="translate(-1058.135 -1875.69)" fill="#fff"/>
      <path id="Trazado_157750" data-name="Trazado 157750" d="M1173.423,1974.671v-49.866a7.554,7.554,0,0,0-3.777-6.542l-43.185-24.933a7.551,7.551,0,0,0-7.554,0l-43.185,24.933a7.554,7.554,0,0,0-3.777,6.542v49.866a7.555,7.555,0,0,0,3.777,6.542l43.185,24.933a7.556,7.556,0,0,0,7.554,0l43.185-24.933A7.555,7.555,0,0,0,1173.423,1974.671Z" transform="translate(-1058.619 -1875.69)" fill="#fcfcfc"/>
      <path id="Trazado_157751" data-name="Trazado 157751" d="M1173.665,1974.368V1924.5a7.553,7.553,0,0,0-3.777-6.541l-43.185-24.933a7.551,7.551,0,0,0-7.554,0l-43.186,24.933a7.552,7.552,0,0,0-3.776,6.541v49.866a7.553,7.553,0,0,0,3.776,6.542l43.186,24.933a7.551,7.551,0,0,0,7.554,0l43.185-24.933A7.554,7.554,0,0,0,1173.665,1974.368Z" transform="translate(-1059.103 -1875.69)" fill="#f8f8f9"/>
      <path id="Trazado_157752" data-name="Trazado 157752" d="M1173.908,1974.066V1924.2a7.555,7.555,0,0,0-3.777-6.542l-43.186-24.933a7.556,7.556,0,0,0-7.554,0l-43.185,24.933a7.555,7.555,0,0,0-3.777,6.542v49.866a7.554,7.554,0,0,0,3.777,6.542l43.185,24.933a7.556,7.556,0,0,0,7.554,0l43.186-24.933A7.554,7.554,0,0,0,1173.908,1974.066Z" transform="translate(-1059.588 -1875.69)" fill="#f5f5f5"/>
      <path id="Trazado_157753" data-name="Trazado 157753" d="M1174.15,1973.764V1923.9a7.552,7.552,0,0,0-3.777-6.542l-43.185-24.933a7.551,7.551,0,0,0-7.554,0l-43.185,24.933a7.554,7.554,0,0,0-3.777,6.542v49.866a7.555,7.555,0,0,0,3.777,6.542l43.185,24.933a7.556,7.556,0,0,0,7.554,0l43.185-24.933A7.553,7.553,0,0,0,1174.15,1973.764Z" transform="translate(-1060.073 -1875.69)" fill="#f2f2f2"/>
      <path id="Trazado_157754" data-name="Trazado 157754" d="M1174.392,1973.462V1923.6a7.553,7.553,0,0,0-3.777-6.541l-43.185-24.933a7.551,7.551,0,0,0-7.554,0l-43.185,24.933a7.551,7.551,0,0,0-3.777,6.541v49.867a7.551,7.551,0,0,0,3.777,6.541l43.185,24.933a7.551,7.551,0,0,0,7.554,0L1170.615,1980A7.553,7.553,0,0,0,1174.392,1973.462Z" transform="translate(-1060.557 -1875.69)" fill="#eeefef"/>
      <path id="Trazado_157755" data-name="Trazado 157755" d="M1174.635,1973.159v-49.866a7.555,7.555,0,0,0-3.777-6.542l-43.186-24.933a7.554,7.554,0,0,0-7.553,0l-43.186,24.933a7.555,7.555,0,0,0-3.777,6.542v49.866a7.554,7.554,0,0,0,3.777,6.542l43.186,24.933a7.554,7.554,0,0,0,7.553,0l43.186-24.933A7.554,7.554,0,0,0,1174.635,1973.159Z" transform="translate(-1061.042 -1875.69)" fill="#ebebec"/>
      <path id="Trazado_157756" data-name="Trazado 157756" d="M1174.877,1972.857v-49.866a7.553,7.553,0,0,0-3.776-6.542l-43.186-24.933a7.556,7.556,0,0,0-7.554,0l-43.185,24.933a7.554,7.554,0,0,0-3.777,6.542v49.866a7.555,7.555,0,0,0,3.777,6.542l43.185,24.933a7.556,7.556,0,0,0,7.554,0L1171.1,1979.4A7.554,7.554,0,0,0,1174.877,1972.857Z" transform="translate(-1061.527 -1875.69)" fill="#e8e8e8"/>
      <path id="Trazado_157757" data-name="Trazado 157757" d="M1175.119,1972.555v-49.867a7.554,7.554,0,0,0-3.777-6.541l-43.185-24.933a7.551,7.551,0,0,0-7.554,0l-43.185,24.933a7.554,7.554,0,0,0-3.777,6.541v49.867a7.553,7.553,0,0,0,3.777,6.541l43.185,24.933a7.551,7.551,0,0,0,7.554,0l43.185-24.933A7.553,7.553,0,0,0,1175.119,1972.555Z" transform="translate(-1062.011 -1875.69)" fill="#e5e5e5"/>
      <path id="Trazado_157758" data-name="Trazado 157758" d="M1175.361,1972.252v-49.866a7.555,7.555,0,0,0-3.777-6.542l-43.185-24.933a7.556,7.556,0,0,0-7.554,0l-43.185,24.933a7.553,7.553,0,0,0-3.777,6.542v49.866a7.552,7.552,0,0,0,3.777,6.542l43.185,24.933a7.556,7.556,0,0,0,7.554,0l43.185-24.933A7.554,7.554,0,0,0,1175.361,1972.252Z" transform="translate(-1062.495 -1875.69)" fill="#e1e2e2"/>
      <path id="Trazado_157759" data-name="Trazado 157759" d="M1175.6,1971.95v-49.866a7.554,7.554,0,0,0-3.777-6.542l-43.186-24.933a7.554,7.554,0,0,0-7.553,0l-43.186,24.933a7.554,7.554,0,0,0-3.777,6.542v49.866a7.555,7.555,0,0,0,3.777,6.542l43.186,24.933a7.554,7.554,0,0,0,7.553,0l43.186-24.933A7.555,7.555,0,0,0,1175.6,1971.95Z" transform="translate(-1062.98 -1875.69)" fill="#dededf"/>
      <path id="Trazado_157760" data-name="Trazado 157760" d="M1175.846,1971.648v-49.867a7.551,7.551,0,0,0-3.777-6.541l-43.185-24.933a7.551,7.551,0,0,0-7.554,0l-43.185,24.933a7.553,7.553,0,0,0-3.777,6.541v49.867a7.553,7.553,0,0,0,3.777,6.541l43.185,24.933a7.551,7.551,0,0,0,7.554,0l43.185-24.933A7.551,7.551,0,0,0,1175.846,1971.648Z" transform="translate(-1063.465 -1875.69)" fill="#dbdbdb"/>
      <path id="Trazado_157761" data-name="Trazado 157761" d="M1176.088,1971.345v-49.866a7.555,7.555,0,0,0-3.777-6.542L1129.126,1890a7.556,7.556,0,0,0-7.554,0l-43.185,24.933a7.555,7.555,0,0,0-3.777,6.542v49.866a7.554,7.554,0,0,0,3.777,6.542l43.185,24.933a7.55,7.55,0,0,0,7.554,0l43.185-24.933A7.554,7.554,0,0,0,1176.088,1971.345Z" transform="translate(-1063.949 -1875.69)" fill="#d7d8d8"/>
      <path id="Trazado_157762" data-name="Trazado 157762" d="M1176.331,1971.043v-49.866a7.554,7.554,0,0,0-3.777-6.542l-43.185-24.933a7.556,7.556,0,0,0-7.554,0l-43.186,24.933a7.554,7.554,0,0,0-3.777,6.542v49.866a7.555,7.555,0,0,0,3.777,6.542l43.186,24.933a7.556,7.556,0,0,0,7.554,0l43.185-24.933A7.555,7.555,0,0,0,1176.331,1971.043Z" transform="translate(-1064.434 -1875.69)" fill="#d4d5d5"/>
      <path id="Trazado_157763" data-name="Trazado 157763" d="M1176.573,1970.741v-49.867a7.554,7.554,0,0,0-3.777-6.541L1129.61,1889.4a7.551,7.551,0,0,0-7.554,0l-43.185,24.933a7.553,7.553,0,0,0-3.777,6.541v49.867a7.553,7.553,0,0,0,3.777,6.541l43.185,24.933a7.551,7.551,0,0,0,7.554,0l43.186-24.933A7.554,7.554,0,0,0,1176.573,1970.741Z" transform="translate(-1064.918 -1875.69)" fill="#d1d1d2"/>
      <path id="Trazado_157764" data-name="Trazado 157764" d="M1176.815,1970.438v-49.866a7.555,7.555,0,0,0-3.777-6.542l-43.185-24.933a7.556,7.556,0,0,0-7.554,0l-43.185,24.933a7.555,7.555,0,0,0-3.777,6.542v49.866a7.554,7.554,0,0,0,3.777,6.542l43.185,24.933a7.551,7.551,0,0,0,7.554,0l43.185-24.933A7.554,7.554,0,0,0,1176.815,1970.438Z" transform="translate(-1065.403 -1875.69)" fill="#cdcecf"/>
      <path id="Trazado_157765" data-name="Trazado 157765" d="M1177.057,1970.136V1920.27a7.554,7.554,0,0,0-3.777-6.542l-43.185-24.933a7.556,7.556,0,0,0-7.554,0l-43.185,24.933a7.552,7.552,0,0,0-3.777,6.542v49.866a7.553,7.553,0,0,0,3.777,6.542l43.185,24.933a7.556,7.556,0,0,0,7.554,0l43.185-24.933A7.555,7.555,0,0,0,1177.057,1970.136Z" transform="translate(-1065.887 -1875.69)" fill="#cacbcb"/>
      <path id="Trazado_157766" data-name="Trazado 157766" d="M1177.3,1969.834v-49.866a7.554,7.554,0,0,0-3.777-6.542l-43.186-24.933a7.549,7.549,0,0,0-7.553,0l-43.186,24.933a7.554,7.554,0,0,0-3.777,6.542v49.866a7.553,7.553,0,0,0,3.777,6.541l43.186,24.934a7.554,7.554,0,0,0,7.553,0l43.186-24.934A7.553,7.553,0,0,0,1177.3,1969.834Z" transform="translate(-1066.372 -1875.69)" fill="#c7c8c8"/>
      <path id="Trazado_157767" data-name="Trazado 157767" d="M1177.542,1969.531v-49.866a7.553,7.553,0,0,0-3.777-6.542l-43.185-24.933a7.556,7.556,0,0,0-7.554,0l-43.185,24.933a7.555,7.555,0,0,0-3.777,6.542v49.866a7.554,7.554,0,0,0,3.777,6.542l43.185,24.933a7.551,7.551,0,0,0,7.554,0l43.185-24.933A7.552,7.552,0,0,0,1177.542,1969.531Z" transform="translate(-1066.857 -1875.69)" fill="#c4c4c5"/>
      <path id="Trazado_157768" data-name="Trazado 157768" d="M1177.784,1969.229v-49.866a7.554,7.554,0,0,0-3.777-6.542l-43.185-24.933a7.556,7.556,0,0,0-7.554,0l-43.185,24.933a7.554,7.554,0,0,0-3.777,6.542v49.866a7.555,7.555,0,0,0,3.777,6.542l43.185,24.933a7.556,7.556,0,0,0,7.554,0l43.185-24.933A7.555,7.555,0,0,0,1177.784,1969.229Z" transform="translate(-1067.341 -1875.69)" fill="#c0c1c2"/>
      <path id="Trazado_157769" data-name="Trazado 157769" d="M1178.026,1968.927v-49.866a7.554,7.554,0,0,0-3.777-6.542l-43.185-24.933a7.55,7.55,0,0,0-7.554,0l-43.186,24.933a7.553,7.553,0,0,0-3.776,6.542v49.866a7.555,7.555,0,0,0,3.776,6.542l43.186,24.933a7.556,7.556,0,0,0,7.554,0l43.185-24.933A7.556,7.556,0,0,0,1178.026,1968.927Z" transform="translate(-1067.825 -1875.69)" fill="#bdbebe"/>
      <path id="Trazado_157770" data-name="Trazado 157770" d="M1178.269,1968.624v-49.866a7.556,7.556,0,0,0-3.777-6.542l-43.186-24.933a7.556,7.556,0,0,0-7.554,0l-43.185,24.933a7.557,7.557,0,0,0-3.777,6.542v49.866a7.554,7.554,0,0,0,3.777,6.542l43.185,24.933a7.551,7.551,0,0,0,7.554,0l43.186-24.933A7.554,7.554,0,0,0,1178.269,1968.624Z" transform="translate(-1068.31 -1875.69)" fill="#babbbb"/>
      <path id="Trazado_157771" data-name="Trazado 157771" d="M1178.511,1968.322v-49.866a7.552,7.552,0,0,0-3.777-6.542l-43.185-24.933a7.556,7.556,0,0,0-7.554,0l-43.185,24.933a7.554,7.554,0,0,0-3.777,6.542v49.866a7.555,7.555,0,0,0,3.777,6.542l43.185,24.933a7.556,7.556,0,0,0,7.554,0l43.185-24.933A7.553,7.553,0,0,0,1178.511,1968.322Z" transform="translate(-1068.795 -1875.69)" fill="#b6b7b8"/>
      <path id="Trazado_157772" data-name="Trazado 157772" d="M1178.753,1968.02v-49.866a7.554,7.554,0,0,0-3.777-6.542l-43.185-24.933a7.551,7.551,0,0,0-7.554,0l-43.185,24.933a7.552,7.552,0,0,0-3.777,6.542v49.866a7.554,7.554,0,0,0,3.777,6.542l43.185,24.933a7.556,7.556,0,0,0,7.554,0l43.185-24.933A7.556,7.556,0,0,0,1178.753,1968.02Z" transform="translate(-1069.279 -1875.69)" fill="#b3b4b5"/>
      <path id="Trazado_157773" data-name="Trazado 157773" d="M1179,1967.717v-49.866a7.556,7.556,0,0,0-3.777-6.542l-43.186-24.933a7.554,7.554,0,0,0-7.553,0l-43.186,24.933a7.556,7.556,0,0,0-3.777,6.542v49.866a7.554,7.554,0,0,0,3.777,6.542l43.186,24.933a7.549,7.549,0,0,0,7.553,0l43.186-24.933A7.554,7.554,0,0,0,1179,1967.717Z" transform="translate(-1069.764 -1875.69)" fill="#b0b1b1"/>
      <path id="Trazado_157774" data-name="Trazado 157774" d="M1179.238,1967.415v-49.866a7.552,7.552,0,0,0-3.777-6.542l-43.185-24.933a7.556,7.556,0,0,0-7.554,0l-43.185,24.933a7.554,7.554,0,0,0-3.777,6.542v49.866a7.554,7.554,0,0,0,3.777,6.542l43.185,24.933a7.556,7.556,0,0,0,7.554,0l43.185-24.933A7.552,7.552,0,0,0,1179.238,1967.415Z" transform="translate(-1070.249 -1875.69)" fill="#acaeae"/>
      <path id="Trazado_157775" data-name="Trazado 157775" d="M1179.48,1967.113v-49.866a7.554,7.554,0,0,0-3.777-6.542l-43.185-24.933a7.551,7.551,0,0,0-7.554,0l-43.185,24.933a7.554,7.554,0,0,0-3.777,6.542v49.866a7.556,7.556,0,0,0,3.777,6.542l43.185,24.933a7.556,7.556,0,0,0,7.554,0l43.185-24.933A7.556,7.556,0,0,0,1179.48,1967.113Z" transform="translate(-1070.733 -1875.69)" fill="#a9aaab"/>
      <path id="Trazado_157776" data-name="Trazado 157776" d="M1179.722,1966.81v-49.866a7.556,7.556,0,0,0-3.777-6.542l-43.185-24.933a7.556,7.556,0,0,0-7.554,0L1082.02,1910.4a7.555,7.555,0,0,0-3.776,6.542v49.866a7.553,7.553,0,0,0,3.776,6.542l43.186,24.933a7.551,7.551,0,0,0,7.554,0l43.185-24.933A7.554,7.554,0,0,0,1179.722,1966.81Z" transform="translate(-1071.217 -1875.69)" fill="#a6a7a8"/>
      <path id="Trazado_157777" data-name="Trazado 157777" d="M1179.965,1966.508v-49.866a7.555,7.555,0,0,0-3.777-6.542L1133,1885.167a7.554,7.554,0,0,0-7.553,0l-43.186,24.933a7.555,7.555,0,0,0-3.777,6.542v49.866a7.554,7.554,0,0,0,3.777,6.542l43.186,24.933a7.554,7.554,0,0,0,7.553,0l43.186-24.933A7.554,7.554,0,0,0,1179.965,1966.508Z" transform="translate(-1071.702 -1875.69)" fill="#a3a4a5"/>
      <path id="Trazado_157778" data-name="Trazado 157778" d="M1180.207,1966.206V1916.34a7.552,7.552,0,0,0-3.777-6.542l-43.185-24.933a7.551,7.551,0,0,0-7.554,0l-43.185,24.933a7.554,7.554,0,0,0-3.777,6.542v49.866a7.556,7.556,0,0,0,3.777,6.542l43.185,24.933a7.556,7.556,0,0,0,7.554,0l43.185-24.933A7.554,7.554,0,0,0,1180.207,1966.206Z" transform="translate(-1072.187 -1875.69)" fill="#9fa1a1"/>
      <path id="Trazado_157779" data-name="Trazado 157779" d="M1180.449,1965.9v-49.866a7.553,7.553,0,0,0-3.777-6.541l-43.185-24.934a7.556,7.556,0,0,0-7.554,0l-43.185,24.934a7.553,7.553,0,0,0-3.777,6.541V1965.9a7.554,7.554,0,0,0,3.777,6.542l43.185,24.933a7.551,7.551,0,0,0,7.554,0l43.185-24.933A7.554,7.554,0,0,0,1180.449,1965.9Z" transform="translate(-1072.671 -1875.69)" fill="#9c9e9e"/>
      <path id="Trazado_157780" data-name="Trazado 157780" d="M1180.692,1965.6v-49.866a7.555,7.555,0,0,0-3.777-6.542l-43.186-24.933a7.554,7.554,0,0,0-7.553,0l-43.186,24.933a7.555,7.555,0,0,0-3.777,6.542V1965.6a7.554,7.554,0,0,0,3.777,6.542l43.186,24.933a7.554,7.554,0,0,0,7.553,0l43.186-24.933A7.554,7.554,0,0,0,1180.692,1965.6Z" transform="translate(-1073.156 -1875.69)" fill="#999a9b"/>
      <path id="Trazado_157781" data-name="Trazado 157781" d="M1180.934,1965.3v-49.866a7.553,7.553,0,0,0-3.776-6.542l-43.186-24.933a7.551,7.551,0,0,0-7.554,0l-43.185,24.933a7.554,7.554,0,0,0-3.777,6.542V1965.3a7.555,7.555,0,0,0,3.777,6.542l43.185,24.933a7.556,7.556,0,0,0,7.554,0l43.186-24.933A7.554,7.554,0,0,0,1180.934,1965.3Z" transform="translate(-1073.641 -1875.69)" fill="#959798"/>
      <path id="Trazado_157782" data-name="Trazado 157782" d="M1181.176,1965V1915.13a7.553,7.553,0,0,0-3.777-6.541l-43.185-24.934a7.556,7.556,0,0,0-7.554,0l-43.185,24.934a7.554,7.554,0,0,0-3.777,6.541V1965a7.554,7.554,0,0,0,3.777,6.542l43.185,24.933a7.55,7.55,0,0,0,7.554,0l43.185-24.933A7.554,7.554,0,0,0,1181.176,1965Z" transform="translate(-1074.125 -1875.69)" fill="#929494"/>
      <path id="Trazado_157783" data-name="Trazado 157783" d="M1181.418,1964.694v-49.866a7.555,7.555,0,0,0-3.777-6.542l-43.185-24.933a7.556,7.556,0,0,0-7.554,0l-43.185,24.933a7.553,7.553,0,0,0-3.777,6.542v49.866a7.552,7.552,0,0,0,3.777,6.542l43.185,24.933a7.556,7.556,0,0,0,7.554,0l43.185-24.933A7.554,7.554,0,0,0,1181.418,1964.694Z" transform="translate(-1074.609 -1875.69)" fill="#8f9191"/>
      <path id="Trazado_157784" data-name="Trazado 157784" d="M1181.661,1964.392v-49.866a7.554,7.554,0,0,0-3.777-6.542l-43.186-24.933a7.549,7.549,0,0,0-7.553,0l-43.186,24.933a7.554,7.554,0,0,0-3.777,6.542v49.866a7.555,7.555,0,0,0,3.777,6.542l43.186,24.933a7.554,7.554,0,0,0,7.553,0l43.186-24.933A7.555,7.555,0,0,0,1181.661,1964.392Z" transform="translate(-1075.094 -1875.69)" fill="#8b8d8e"/>
      <path id="Trazado_157785" data-name="Trazado 157785" d="M1181.9,1964.089v-49.866a7.551,7.551,0,0,0-3.777-6.541l-43.185-24.933a7.551,7.551,0,0,0-7.554,0l-43.185,24.933a7.553,7.553,0,0,0-3.777,6.541v49.866a7.554,7.554,0,0,0,3.777,6.542l43.185,24.933a7.551,7.551,0,0,0,7.554,0l43.185-24.933A7.552,7.552,0,0,0,1181.9,1964.089Z" transform="translate(-1075.579 -1875.69)" fill="#888a8b"/>
      <path id="Trazado_157786" data-name="Trazado 157786" d="M1182.145,1963.787v-49.866a7.555,7.555,0,0,0-3.777-6.542l-43.185-24.933a7.556,7.556,0,0,0-7.554,0l-43.185,24.933a7.555,7.555,0,0,0-3.777,6.542v49.866a7.554,7.554,0,0,0,3.777,6.542l43.185,24.933a7.556,7.556,0,0,0,7.554,0l43.185-24.933A7.554,7.554,0,0,0,1182.145,1963.787Z" transform="translate(-1076.063 -1875.69)" fill="#858787"/>
      <path id="Trazado_157787" data-name="Trazado 157787" d="M1182.388,1963.485v-49.866a7.554,7.554,0,0,0-3.777-6.542l-43.185-24.933a7.556,7.556,0,0,0-7.554,0l-43.186,24.933a7.554,7.554,0,0,0-3.777,6.542v49.866a7.555,7.555,0,0,0,3.777,6.542l43.186,24.933a7.556,7.556,0,0,0,7.554,0l43.185-24.933A7.555,7.555,0,0,0,1182.388,1963.485Z" transform="translate(-1076.548 -1875.69)" fill="#818484"/>
      <path id="Trazado_157788" data-name="Trazado 157788" d="M1182.63,1963.183v-49.867a7.553,7.553,0,0,0-3.777-6.541l-43.186-24.933a7.55,7.55,0,0,0-7.554,0l-43.185,24.933a7.554,7.554,0,0,0-3.777,6.541v49.867a7.554,7.554,0,0,0,3.777,6.541l43.185,24.933a7.551,7.551,0,0,0,7.554,0l43.186-24.933A7.553,7.553,0,0,0,1182.63,1963.183Z" transform="translate(-1077.032 -1875.69)" fill="#7e8081"/>
      <path id="Trazado_157789" data-name="Trazado 157789" d="M1182.872,1962.88v-49.866a7.555,7.555,0,0,0-3.777-6.542l-43.185-24.933a7.556,7.556,0,0,0-7.554,0l-43.185,24.933a7.555,7.555,0,0,0-3.777,6.542v49.866a7.554,7.554,0,0,0,3.777,6.542l43.185,24.933a7.556,7.556,0,0,0,7.554,0l43.185-24.933A7.554,7.554,0,0,0,1182.872,1962.88Z" transform="translate(-1077.517 -1875.69)" fill="#7b7d7e"/>
      <path id="Trazado_157790" data-name="Trazado 157790" d="M1183.114,1962.578v-49.866a7.554,7.554,0,0,0-3.777-6.542l-43.185-24.933a7.555,7.555,0,0,0-7.554,0l-43.185,24.933a7.552,7.552,0,0,0-3.777,6.542v49.866a7.553,7.553,0,0,0,3.777,6.542l43.185,24.933a7.556,7.556,0,0,0,7.554,0l43.185-24.933A7.555,7.555,0,0,0,1183.114,1962.578Z" transform="translate(-1078.001 -1875.69)" fill="#787a7a"/>
      <path id="Trazado_157791" data-name="Trazado 157791" d="M1183.357,1962.276v-49.867a7.553,7.553,0,0,0-3.777-6.541l-43.186-24.933a7.549,7.549,0,0,0-7.553,0l-43.186,24.933a7.553,7.553,0,0,0-3.777,6.541v49.867a7.553,7.553,0,0,0,3.777,6.541l43.186,24.933a7.549,7.549,0,0,0,7.553,0l43.186-24.933A7.553,7.553,0,0,0,1183.357,1962.276Z" transform="translate(-1078.486 -1875.69)" fill="#747777"/>
      <path id="Trazado_157792" data-name="Trazado 157792" d="M1183.6,1961.973v-49.866a7.553,7.553,0,0,0-3.777-6.542l-43.185-24.933a7.556,7.556,0,0,0-7.554,0l-43.185,24.933a7.555,7.555,0,0,0-3.777,6.542v49.866a7.554,7.554,0,0,0,3.777,6.542l43.185,24.933a7.556,7.556,0,0,0,7.554,0l43.185-24.933A7.552,7.552,0,0,0,1183.6,1961.973Z" transform="translate(-1078.971 -1875.69)" fill="#717374"/>
      <path id="Trazado_157793" data-name="Trazado 157793" d="M1183.841,1961.671v-49.866a7.554,7.554,0,0,0-3.777-6.542l-43.185-24.933a7.556,7.556,0,0,0-7.554,0l-43.185,24.933a7.554,7.554,0,0,0-3.777,6.542v49.866a7.555,7.555,0,0,0,3.777,6.542l43.185,24.933a7.556,7.556,0,0,0,7.554,0l43.185-24.933A7.555,7.555,0,0,0,1183.841,1961.671Z" transform="translate(-1079.455 -1875.69)" fill="#6e7071"/>
      <path id="Trazado_157794" data-name="Trazado 157794" d="M1184.083,1961.369V1911.5a7.554,7.554,0,0,0-3.777-6.542l-43.185-24.933a7.551,7.551,0,0,0-7.554,0l-43.186,24.933a7.553,7.553,0,0,0-3.776,6.542v49.866a7.552,7.552,0,0,0,3.776,6.541l43.186,24.933a7.551,7.551,0,0,0,7.554,0l43.185-24.933A7.554,7.554,0,0,0,1184.083,1961.369Z" transform="translate(-1079.939 -1875.69)" fill="#6a6d6e"/>
      <path id="Trazado_157795" data-name="Trazado 157795" d="M1184.326,1961.066V1911.2a7.555,7.555,0,0,0-3.777-6.542l-43.186-24.933a7.556,7.556,0,0,0-7.554,0l-43.185,24.933a7.555,7.555,0,0,0-3.777,6.542v49.866a7.554,7.554,0,0,0,3.777,6.542l43.185,24.933a7.556,7.556,0,0,0,7.554,0l43.186-24.933A7.554,7.554,0,0,0,1184.326,1961.066Z" transform="translate(-1080.424 -1875.69)" fill="#676a6a"/>
      <path id="Trazado_157796" data-name="Trazado 157796" d="M1184.568,1960.764V1910.9a7.552,7.552,0,0,0-3.777-6.542l-43.185-24.933a7.556,7.556,0,0,0-7.554,0l-43.185,24.933a7.554,7.554,0,0,0-3.777,6.542v49.866a7.555,7.555,0,0,0,3.777,6.542l43.185,24.933a7.556,7.556,0,0,0,7.554,0l43.185-24.933A7.553,7.553,0,0,0,1184.568,1960.764Z" transform="translate(-1080.909 -1875.69)" fill="#646667"/>
      <path id="Trazado_157797" data-name="Trazado 157797" d="M1184.81,1960.462V1910.6a7.554,7.554,0,0,0-3.777-6.542l-43.185-24.933a7.551,7.551,0,0,0-7.554,0l-43.185,24.933a7.552,7.552,0,0,0-3.777,6.542v49.866a7.551,7.551,0,0,0,3.777,6.541l43.185,24.933a7.551,7.551,0,0,0,7.554,0L1181.033,1967A7.553,7.553,0,0,0,1184.81,1960.462Z" transform="translate(-1081.393 -1875.69)" fill="#606364"/>
      <path id="Trazado_157798" data-name="Trazado 157798" d="M1185.053,1960.159v-49.866a7.555,7.555,0,0,0-3.777-6.542l-43.186-24.933a7.554,7.554,0,0,0-7.553,0l-43.186,24.933a7.555,7.555,0,0,0-3.777,6.542v49.866a7.554,7.554,0,0,0,3.777,6.542l43.186,24.933a7.549,7.549,0,0,0,7.553,0l43.186-24.933A7.554,7.554,0,0,0,1185.053,1960.159Z" transform="translate(-1081.878 -1875.69)" fill="#5d6061"/>
      <path id="Trazado_157799" data-name="Trazado 157799" d="M1185.3,1959.857v-49.866a7.553,7.553,0,0,0-3.776-6.542l-43.186-24.933a7.556,7.556,0,0,0-7.554,0l-43.185,24.933a7.554,7.554,0,0,0-3.777,6.542v49.866a7.555,7.555,0,0,0,3.777,6.542l43.185,24.933a7.556,7.556,0,0,0,7.554,0l43.186-24.933A7.554,7.554,0,0,0,1185.3,1959.857Z" transform="translate(-1082.363 -1875.69)" fill="#5a5d5d"/>
      <path id="Trazado_157800" data-name="Trazado 157800" d="M1185.537,1959.555v-49.866a7.554,7.554,0,0,0-3.777-6.542l-43.185-24.933a7.551,7.551,0,0,0-7.554,0l-43.185,24.933a7.554,7.554,0,0,0-3.777,6.542v49.866a7.553,7.553,0,0,0,3.777,6.541l43.185,24.934a7.556,7.556,0,0,0,7.554,0l43.185-24.934A7.553,7.553,0,0,0,1185.537,1959.555Z" transform="translate(-1082.847 -1875.69)" fill="#57595a"/>
      <path id="Trazado_157801" data-name="Trazado 157801" d="M1185.779,1959.252v-49.866a7.555,7.555,0,0,0-3.777-6.542l-43.185-24.933a7.556,7.556,0,0,0-7.554,0l-43.186,24.933a7.554,7.554,0,0,0-3.776,6.542v49.866a7.553,7.553,0,0,0,3.776,6.542l43.186,24.933a7.551,7.551,0,0,0,7.554,0L1182,1965.794A7.554,7.554,0,0,0,1185.779,1959.252Z" transform="translate(-1083.331 -1875.69)" fill="#535657"/>
      <path id="Trazado_157802" data-name="Trazado 157802" d="M1186.022,1958.95v-49.866a7.554,7.554,0,0,0-3.777-6.542l-43.186-24.933a7.554,7.554,0,0,0-7.553,0l-43.186,24.933a7.554,7.554,0,0,0-3.777,6.542v49.866a7.555,7.555,0,0,0,3.777,6.542l43.186,24.933a7.554,7.554,0,0,0,7.553,0l43.186-24.933A7.555,7.555,0,0,0,1186.022,1958.95Z" transform="translate(-1083.816 -1875.69)" fill="#505354"/>
      <path id="Trazado_157803" data-name="Trazado 157803" d="M1186.264,1958.648v-49.866a7.552,7.552,0,0,0-3.777-6.542l-43.185-24.933a7.551,7.551,0,0,0-7.554,0l-43.185,24.933a7.554,7.554,0,0,0-3.777,6.542v49.866a7.556,7.556,0,0,0,3.777,6.542l43.185,24.933a7.556,7.556,0,0,0,7.554,0l43.185-24.933A7.554,7.554,0,0,0,1186.264,1958.648Z" transform="translate(-1084.301 -1875.69)" fill="#4d5050"/>
      <path id="Trazado_157804" data-name="Trazado 157804" d="M1186.506,1958.345v-49.866a7.556,7.556,0,0,0-3.777-6.542L1139.544,1877a7.556,7.556,0,0,0-7.554,0l-43.185,24.933a7.556,7.556,0,0,0-3.777,6.542v49.866a7.554,7.554,0,0,0,3.777,6.542l43.185,24.933a7.55,7.55,0,0,0,7.554,0l43.185-24.933A7.554,7.554,0,0,0,1186.506,1958.345Z" transform="translate(-1084.785 -1875.69)" fill="#494c4d"/>
      <path id="Trazado_157805" data-name="Trazado 157805" d="M1186.749,1958.043v-49.866a7.554,7.554,0,0,0-3.777-6.542l-43.185-24.933a7.556,7.556,0,0,0-7.554,0l-43.186,24.933a7.554,7.554,0,0,0-3.777,6.542v49.866a7.555,7.555,0,0,0,3.777,6.542l43.186,24.933a7.556,7.556,0,0,0,7.554,0l43.185-24.933A7.555,7.555,0,0,0,1186.749,1958.043Z" transform="translate(-1085.27 -1875.69)" fill="#46494a"/>
    </g>
    <g id="Grupo_108107" data-name="Grupo 108107" transform="translate(1682.73 -12974.308)">
      <path id="Trazado_157806" data-name="Trazado 157806" d="M1085.27,1956.661V1906.8a7.554,7.554,0,0,1,3.777-6.542l43.185-24.933a7.551,7.551,0,0,1,7.554,0l43.186,24.933a7.554,7.554,0,0,1,3.777,6.542v49.866a7.556,7.556,0,0,1-3.777,6.542l-43.186,24.933a7.556,7.556,0,0,1-7.554,0l-43.185-24.933A7.556,7.556,0,0,1,1085.27,1956.661Z" fill="#fff"/>
      <path id="Trazado_157807" data-name="Trazado 157807" d="M1087.244,1956.4v-49.334a6.04,6.04,0,0,1,3.02-5.232l42.725-24.667a6.042,6.042,0,0,1,6.041,0l42.725,24.667a6.04,6.04,0,0,1,3.02,5.232V1956.4a6.043,6.043,0,0,1-3.02,5.232l-42.725,24.667a6.041,6.041,0,0,1-6.041,0l-42.725-24.667A6.043,6.043,0,0,1,1087.244,1956.4Z" fill="url(#linear-gradient)"/>
    </g>
    <g id="subasta" transform="translate(2784 -11077.001)">
      <path id="Trazado_157957" data-name="Trazado 157957" d="M387.975,378.723a6.74,6.74,0,0,1,.226,6.847,6.854,6.854,0,0,1-10.874,1.6q-.2-.2-.377-.41l-5.812-6.677,8.777-8.777,6.67,5.818A7.243,7.243,0,0,1,387.975,378.723Z" transform="translate(-320.396 -321.863)" fill="#d44713"/>
      <path id="Trazado_157958" data-name="Trazado 157958" d="M357.184,348.561l-8.777,8.777-3.6-4.137.025-.022,8.216-8.217,0,0Z" transform="translate(-297.665 -297.796)" fill="#f3ff3c"/>
      <path id="Trazado_157959" data-name="Trazado 157959" d="M198.3,22.8a4.1,4.1,0,0,1-5.8,5.8L180.9,17a4.1,4.1,0,1,1,5.8-5.8Z" transform="translate(-155.132 -8.633)" fill="#ff642b"/>
      <path id="Trazado_157960" data-name="Trazado 157960" d="M85.073,67.675l-4.808,4.808-.026.025L72.5,80.241l-.025.026-4.808,4.808-.967-.967-11.6-11.6-.967-.967,17.4-17.4.967.967,11.6,11.6Z" transform="translate(-46.735 -46.737)" fill="#f3ff3c"/>
      <g id="Grupo_108128" data-name="Grupo 108128" transform="translate(1.367 24.57)">
        <path id="Trazado_157961" data-name="Trazado 157961" d="M194.059,188.262l.967-.967a2.734,2.734,0,0,0-3.842-3.892l-7.784,7.785a2.734,2.734,0,0,0,3.892,3.842l.967-.967,16.538,19,.025-.022,8.217-8.217,0,0Z" transform="translate(-159.022 -182.228)" fill="#ff642b"/>
        <path id="Trazado_157962" data-name="Trazado 157962" d="M45.546,457.453v1.367H10v-1.367a5.469,5.469,0,0,1,5.469-5.469H40.077A5.469,5.469,0,0,1,45.546,457.453Z" transform="translate(-10 -416.079)" fill="#d44713"/>
        <path id="Trazado_157963" data-name="Trazado 157963" d="M56.658,401.987a3.418,3.418,0,1,1,0,6.836H33.417a3.418,3.418,0,1,1,0-6.836Z" transform="translate(-27.265 -371.597)" fill="#ff642b"/>
        <path id="Trazado_157964" data-name="Trazado 157964" d="M28.6,192.507a4.1,4.1,0,0,1-5.8,5.8l-11.6-11.6a4.1,4.1,0,0,1,5.8-5.8Z" transform="translate(-10 -179.705)" fill="#ff642b"/>
      </g>
      <path id="Trazado_157965" data-name="Trazado 157965" d="M101.1,171.82a1.367,1.367,0,1,0,1.933,0A1.365,1.365,0,0,0,101.1,171.82Z" transform="translate(-86.935 -147.983)"/>
      <path id="Trazado_157966" data-name="Trazado 157966" d="M34.617,399.607a4.786,4.786,0,0,0-3.856-7.62H7.519A4.782,4.782,0,0,0,3.666,399.6,6.841,6.841,0,0,0,0,405.658v1.367a1.367,1.367,0,0,0,1.367,1.367H36.913a1.367,1.367,0,0,0,1.367-1.367v-1.367A6.841,6.841,0,0,0,34.617,399.607ZM6.069,395.321a2.037,2.037,0,0,1,1.45-.6H30.761a2.051,2.051,0,1,1,0,4.1H7.519a2.051,2.051,0,0,1-1.45-3.5ZM2.734,405.658a4.106,4.106,0,0,1,4.1-4.1H31.444a4.106,4.106,0,0,1,4.1,4.1Z" transform="translate(0 -338.394)"/>
      <path id="Trazado_157967" data-name="Trazado 157967" d="M68.746,57.44A8.609,8.609,0,0,0,67.1,55.549l-6.388-5.572a1.377,1.377,0,0,0-.174-.212,1.363,1.363,0,0,0-.371-.262L56.3,46.133l-17.881-15.6a4.094,4.094,0,0,0-1.2-6.53l1.654-1.654a5.472,5.472,0,0,0,5.279-1.413,5.468,5.468,0,0,0,0-7.734L32.555,1.6a5.467,5.467,0,0,0-9.147,5.279L6.9,23.388A5.5,5.5,0,0,0,5.487,23.2,5.468,5.468,0,0,0,1.62,32.538l11.6,11.6a5.467,5.467,0,0,0,9.147-5.279l1.651-1.651a4.1,4.1,0,0,0,6.532,1.2L49.6,60.289a1.373,1.373,0,0,0,.185.232c.024.024.05.047.076.069l5.675,6.521c.141.167.292.33.448.487A8.132,8.132,0,0,0,61.761,70a8.393,8.393,0,0,0,1.151-.08,8.273,8.273,0,0,0,6.1-4.226A8.09,8.09,0,0,0,68.746,57.44ZM49.03,55.472l6.439-6.439,2.065,1.8L50.829,57.54Zm-16.54-19,4-4L53.4,47.231,47.23,53.4ZM26.754,3.537a2.733,2.733,0,0,1,3.867,0l11.6,11.6A2.734,2.734,0,0,1,38.356,19L26.755,7.4h0A2.737,2.737,0,0,1,26.754,3.537ZM19.021,42.2a2.738,2.738,0,0,1-3.867,0L3.554,30.6a2.734,2.734,0,0,1,3.865-3.868l11.6,11.6A2.736,2.736,0,0,1,19.021,42.2ZM9.353,24.8,24.821,9.336l11.6,11.6-3.83,3.83-.038.036-7.73,7.73-.047.049-3.823,3.823Zm18.368,12a1.367,1.367,0,0,1-.983-2.317L34.5,26.723a1.367,1.367,0,0,1,2.32.982,1.355,1.355,0,0,1-.4.966l-.957.957-.02.02-5.786,5.786-.008.008-.963.963A1.359,1.359,0,0,1,27.721,36.805ZM66.63,64.36a5.561,5.561,0,0,1-4.093,2.853,5.432,5.432,0,0,1-4.622-1.549c-.105-.105-.206-.215-.3-.326l-.013-.015-4.974-5.715L59.6,52.635l5.708,4.979.013.011a5.886,5.886,0,0,1,1.128,1.3A5.4,5.4,0,0,1,66.63,64.36Z" transform="translate(-0.018 0)"/>
      <path id="Trazado_157968" data-name="Trazado 157968" d="M137.12,101.108a1.367,1.367,0,0,0-1.933,0l-5.8,5.8a1.367,1.367,0,0,0,1.933,1.933l5.8-5.8A1.367,1.367,0,0,0,137.12,101.108Z" transform="translate(-111.351 -86.938)"/>
    </g>
  </g>
</svg>
