<svg id="Grupo_108388" data-name="Grupo 108388" xmlns="http://www.w3.org/2000/svg" xmlns:xlink="http://www.w3.org/1999/xlink" width="121.789" height="140.294" viewBox="0 0 121.789 140.294">
  <defs>
    <linearGradient id="linear-gradient" x1="0.235" y1="0.86" x2="0.769" y2="0.134" gradientUnits="objectBoundingBox">
      <stop offset="0" stop-color="#fff"/>
      <stop offset="0.439" stop-color="#fcfcfc"/>
      <stop offset="0.682" stop-color="#f4f5f5"/>
      <stop offset="0.875" stop-color="#e6e9e9"/>
      <stop offset="0.995" stop-color="#dadede"/>
    </linearGradient>
  </defs>
  <path id="Trazado_157556" data-name="Trazado 157556" d="M713.775,1959.762v-56.068a8.494,8.494,0,0,1,4.246-7.356l48.557-28.034a8.494,8.494,0,0,1,8.493,0l48.557,28.034a8.492,8.492,0,0,1,4.246,7.356v56.068a8.492,8.492,0,0,1-4.246,7.355l-48.557,28.034a8.489,8.489,0,0,1-8.493,0l-48.557-28.034A8.494,8.494,0,0,1,713.775,1959.762Z" transform="translate(-713.775 -1867.166)" fill="#f85316"/>
  <g id="Grupo_108097" data-name="Grupo 108097" transform="translate(6.743 8.524)" opacity="0.4" style="mix-blend-mode: multiply;isolation: isolate">
    <path id="Trazado_157557" data-name="Trazado 157557" d="M835.131,1974.973v-49.866a7.555,7.555,0,0,0-3.777-6.542l-43.185-24.933a7.556,7.556,0,0,0-7.554,0l-43.185,24.933a7.555,7.555,0,0,0-3.777,6.542v49.866a7.554,7.554,0,0,0,3.777,6.542l43.185,24.933a7.556,7.556,0,0,0,7.554,0l43.185-24.933A7.554,7.554,0,0,0,835.131,1974.973Z" transform="translate(-720.085 -1875.69)" fill="#fff"/>
    <path id="Trazado_157558" data-name="Trazado 157558" d="M834.889,1974.671v-49.866a7.554,7.554,0,0,0-3.777-6.542l-43.185-24.933a7.551,7.551,0,0,0-7.554,0l-43.185,24.933a7.552,7.552,0,0,0-3.777,6.542v49.866a7.553,7.553,0,0,0,3.777,6.542l43.185,24.933a7.556,7.556,0,0,0,7.554,0l43.185-24.933A7.555,7.555,0,0,0,834.889,1974.671Z" transform="translate(-720.085 -1875.69)" fill="#fcfcfc"/>
    <path id="Trazado_157559" data-name="Trazado 157559" d="M834.647,1974.368V1924.5a7.553,7.553,0,0,0-3.777-6.541l-43.186-24.933a7.549,7.549,0,0,0-7.553,0l-43.186,24.933a7.553,7.553,0,0,0-3.777,6.541v49.866a7.554,7.554,0,0,0,3.777,6.542l43.186,24.933a7.549,7.549,0,0,0,7.553,0l43.186-24.933A7.554,7.554,0,0,0,834.647,1974.368Z" transform="translate(-720.085 -1875.69)" fill="#f8f8f9"/>
    <path id="Trazado_157560" data-name="Trazado 157560" d="M834.4,1974.066V1924.2a7.553,7.553,0,0,0-3.777-6.542l-43.185-24.933a7.556,7.556,0,0,0-7.554,0L736.7,1917.658a7.555,7.555,0,0,0-3.777,6.542v49.866a7.554,7.554,0,0,0,3.777,6.542l43.185,24.933a7.556,7.556,0,0,0,7.554,0l43.185-24.933A7.552,7.552,0,0,0,834.4,1974.066Z" transform="translate(-720.085 -1875.69)" fill="#f5f5f5"/>
    <path id="Trazado_157561" data-name="Trazado 157561" d="M834.162,1973.764V1923.9a7.554,7.554,0,0,0-3.777-6.542L787.2,1892.423a7.551,7.551,0,0,0-7.554,0l-43.185,24.933a7.554,7.554,0,0,0-3.777,6.542v49.866a7.555,7.555,0,0,0,3.777,6.542l43.185,24.933a7.556,7.556,0,0,0,7.554,0l43.185-24.933A7.555,7.555,0,0,0,834.162,1973.764Z" transform="translate(-720.085 -1875.69)" fill="#f2f2f2"/>
    <path id="Trazado_157562" data-name="Trazado 157562" d="M833.92,1973.462V1923.6a7.553,7.553,0,0,0-3.777-6.541l-43.186-24.933a7.549,7.549,0,0,0-7.553,0l-43.186,24.933a7.553,7.553,0,0,0-3.777,6.541v49.867a7.553,7.553,0,0,0,3.777,6.541l43.186,24.933a7.549,7.549,0,0,0,7.553,0L830.143,1980A7.553,7.553,0,0,0,833.92,1973.462Z" transform="translate(-720.085 -1875.69)" fill="#eeefef"/>
    <path id="Trazado_157563" data-name="Trazado 157563" d="M833.677,1973.159v-49.866a7.554,7.554,0,0,0-3.776-6.542l-43.186-24.933a7.556,7.556,0,0,0-7.554,0l-43.185,24.933a7.555,7.555,0,0,0-3.777,6.542v49.866a7.554,7.554,0,0,0,3.777,6.542l43.185,24.933a7.556,7.556,0,0,0,7.554,0L829.9,1979.7A7.553,7.553,0,0,0,833.677,1973.159Z" transform="translate(-720.085 -1875.69)" fill="#ebebec"/>
    <path id="Trazado_157564" data-name="Trazado 157564" d="M833.435,1972.857v-49.866a7.554,7.554,0,0,0-3.777-6.542l-43.185-24.933a7.556,7.556,0,0,0-7.554,0l-43.185,24.933a7.554,7.554,0,0,0-3.777,6.542v49.866a7.555,7.555,0,0,0,3.777,6.542l43.185,24.933a7.556,7.556,0,0,0,7.554,0l43.185-24.933A7.555,7.555,0,0,0,833.435,1972.857Z" transform="translate(-720.085 -1875.69)" fill="#e8e8e8"/>
    <path id="Trazado_157565" data-name="Trazado 157565" d="M833.193,1972.555v-49.867a7.553,7.553,0,0,0-3.777-6.541l-43.185-24.933a7.551,7.551,0,0,0-7.554,0l-43.185,24.933a7.551,7.551,0,0,0-3.777,6.541v49.867a7.551,7.551,0,0,0,3.777,6.541l43.185,24.933a7.551,7.551,0,0,0,7.554,0l43.185-24.933A7.553,7.553,0,0,0,833.193,1972.555Z" transform="translate(-720.085 -1875.69)" fill="#e5e5e5"/>
    <path id="Trazado_157566" data-name="Trazado 157566" d="M832.951,1972.252v-49.866a7.555,7.555,0,0,0-3.777-6.542l-43.186-24.933a7.554,7.554,0,0,0-7.553,0l-43.186,24.933a7.555,7.555,0,0,0-3.777,6.542v49.866a7.554,7.554,0,0,0,3.777,6.542l43.186,24.933a7.554,7.554,0,0,0,7.553,0l43.186-24.933A7.554,7.554,0,0,0,832.951,1972.252Z" transform="translate(-720.085 -1875.69)" fill="#e1e2e2"/>
    <path id="Trazado_157567" data-name="Trazado 157567" d="M832.708,1971.95v-49.866a7.552,7.552,0,0,0-3.777-6.542l-43.185-24.933a7.556,7.556,0,0,0-7.554,0l-43.185,24.933a7.554,7.554,0,0,0-3.777,6.542v49.866a7.555,7.555,0,0,0,3.777,6.542l43.185,24.933a7.556,7.556,0,0,0,7.554,0l43.185-24.933A7.553,7.553,0,0,0,832.708,1971.95Z" transform="translate(-720.085 -1875.69)" fill="#dededf"/>
    <path id="Trazado_157568" data-name="Trazado 157568" d="M832.466,1971.648v-49.867a7.553,7.553,0,0,0-3.777-6.541L785.5,1890.307a7.551,7.551,0,0,0-7.554,0l-43.185,24.933a7.553,7.553,0,0,0-3.777,6.541v49.867a7.553,7.553,0,0,0,3.777,6.541l43.185,24.933a7.551,7.551,0,0,0,7.554,0l43.185-24.933A7.553,7.553,0,0,0,832.466,1971.648Z" transform="translate(-720.085 -1875.69)" fill="#dbdbdb"/>
    <path id="Trazado_157569" data-name="Trazado 157569" d="M832.224,1971.345v-49.866a7.555,7.555,0,0,0-3.777-6.542L785.262,1890a7.556,7.556,0,0,0-7.554,0l-43.186,24.933a7.554,7.554,0,0,0-3.776,6.542v49.866a7.553,7.553,0,0,0,3.776,6.542l43.186,24.933a7.551,7.551,0,0,0,7.554,0l43.185-24.933A7.554,7.554,0,0,0,832.224,1971.345Z" transform="translate(-720.085 -1875.69)" fill="#d7d8d8"/>
    <path id="Trazado_157570" data-name="Trazado 157570" d="M831.982,1971.043v-49.866a7.554,7.554,0,0,0-3.777-6.542L785.019,1889.7a7.556,7.556,0,0,0-7.554,0l-43.185,24.933a7.554,7.554,0,0,0-3.777,6.542v49.866a7.555,7.555,0,0,0,3.777,6.542l43.185,24.933a7.556,7.556,0,0,0,7.554,0l43.186-24.933A7.555,7.555,0,0,0,831.982,1971.043Z" transform="translate(-720.085 -1875.69)" fill="#d4d5d5"/>
    <path id="Trazado_157571" data-name="Trazado 157571" d="M831.739,1970.741v-49.867a7.553,7.553,0,0,0-3.777-6.541L784.777,1889.4a7.551,7.551,0,0,0-7.554,0l-43.185,24.933a7.553,7.553,0,0,0-3.777,6.541v49.867a7.553,7.553,0,0,0,3.777,6.541l43.185,24.933a7.551,7.551,0,0,0,7.554,0l43.185-24.933A7.553,7.553,0,0,0,831.739,1970.741Z" transform="translate(-720.085 -1875.69)" fill="#d1d1d2"/>
    <path id="Trazado_157572" data-name="Trazado 157572" d="M831.5,1970.438v-49.866a7.555,7.555,0,0,0-3.777-6.542L784.535,1889.1a7.556,7.556,0,0,0-7.554,0L733.8,1914.03a7.553,7.553,0,0,0-3.777,6.542v49.866a7.552,7.552,0,0,0,3.777,6.542l43.185,24.933a7.551,7.551,0,0,0,7.554,0l43.185-24.933A7.554,7.554,0,0,0,831.5,1970.438Z" transform="translate(-720.085 -1875.69)" fill="#cdcecf"/>
    <path id="Trazado_157573" data-name="Trazado 157573" d="M831.255,1970.136V1920.27a7.554,7.554,0,0,0-3.777-6.542L784.292,1888.8a7.554,7.554,0,0,0-7.553,0l-43.186,24.933a7.554,7.554,0,0,0-3.777,6.542v49.866a7.555,7.555,0,0,0,3.777,6.542l43.186,24.933a7.554,7.554,0,0,0,7.553,0l43.186-24.933A7.555,7.555,0,0,0,831.255,1970.136Z" transform="translate(-720.085 -1875.69)" fill="#cacbcb"/>
    <path id="Trazado_157574" data-name="Trazado 157574" d="M831.012,1969.834v-49.866a7.552,7.552,0,0,0-3.777-6.542l-43.185-24.933a7.551,7.551,0,0,0-7.554,0l-43.185,24.933a7.554,7.554,0,0,0-3.777,6.542v49.866a7.553,7.553,0,0,0,3.777,6.541l43.185,24.934a7.556,7.556,0,0,0,7.554,0l43.185-24.934A7.551,7.551,0,0,0,831.012,1969.834Z" transform="translate(-720.085 -1875.69)" fill="#c7c8c8"/>
    <path id="Trazado_157575" data-name="Trazado 157575" d="M830.77,1969.531v-49.866a7.555,7.555,0,0,0-3.777-6.542l-43.185-24.933a7.556,7.556,0,0,0-7.554,0l-43.185,24.933a7.555,7.555,0,0,0-3.777,6.542v49.866a7.554,7.554,0,0,0,3.777,6.542l43.185,24.933a7.551,7.551,0,0,0,7.554,0l43.185-24.933A7.554,7.554,0,0,0,830.77,1969.531Z" transform="translate(-720.085 -1875.69)" fill="#c4c4c5"/>
    <path id="Trazado_157576" data-name="Trazado 157576" d="M830.528,1969.229v-49.866a7.554,7.554,0,0,0-3.777-6.542l-43.185-24.933a7.556,7.556,0,0,0-7.554,0l-43.186,24.933a7.553,7.553,0,0,0-3.776,6.542v49.866a7.554,7.554,0,0,0,3.776,6.542l43.186,24.933a7.556,7.556,0,0,0,7.554,0l43.185-24.933A7.555,7.555,0,0,0,830.528,1969.229Z" transform="translate(-720.085 -1875.69)" fill="#c0c1c2"/>
    <path id="Trazado_157577" data-name="Trazado 157577" d="M830.286,1968.927v-49.866a7.554,7.554,0,0,0-3.777-6.542l-43.186-24.933a7.551,7.551,0,0,0-7.554,0l-43.185,24.933a7.554,7.554,0,0,0-3.777,6.542v49.866a7.556,7.556,0,0,0,3.777,6.542l43.185,24.933a7.556,7.556,0,0,0,7.554,0l43.186-24.933A7.556,7.556,0,0,0,830.286,1968.927Z" transform="translate(-720.085 -1875.69)" fill="#bdbebe"/>
    <path id="Trazado_157578" data-name="Trazado 157578" d="M830.043,1968.624v-49.866a7.554,7.554,0,0,0-3.777-6.542l-43.185-24.933a7.556,7.556,0,0,0-7.554,0l-43.185,24.933a7.557,7.557,0,0,0-3.777,6.542v49.866a7.554,7.554,0,0,0,3.777,6.542l43.185,24.933a7.551,7.551,0,0,0,7.554,0l43.185-24.933A7.552,7.552,0,0,0,830.043,1968.624Z" transform="translate(-720.085 -1875.69)" fill="#babbbb"/>
    <path id="Trazado_157579" data-name="Trazado 157579" d="M829.8,1968.322v-49.866a7.554,7.554,0,0,0-3.777-6.542l-43.185-24.933a7.556,7.556,0,0,0-7.554,0L732.1,1911.914a7.552,7.552,0,0,0-3.777,6.542v49.866a7.553,7.553,0,0,0,3.777,6.542l43.185,24.933a7.556,7.556,0,0,0,7.554,0l43.185-24.933A7.555,7.555,0,0,0,829.8,1968.322Z" transform="translate(-720.085 -1875.69)" fill="#b6b7b8"/>
    <path id="Trazado_157580" data-name="Trazado 157580" d="M829.559,1968.02v-49.866a7.554,7.554,0,0,0-3.777-6.542L782.6,1886.679a7.549,7.549,0,0,0-7.553,0l-43.186,24.933a7.554,7.554,0,0,0-3.777,6.542v49.866a7.556,7.556,0,0,0,3.777,6.542l43.186,24.933a7.554,7.554,0,0,0,7.553,0l43.186-24.933A7.556,7.556,0,0,0,829.559,1968.02Z" transform="translate(-720.085 -1875.69)" fill="#b3b4b5"/>
    <path id="Trazado_157581" data-name="Trazado 157581" d="M829.316,1967.717v-49.866a7.555,7.555,0,0,0-3.776-6.542l-43.186-24.933a7.556,7.556,0,0,0-7.554,0l-43.185,24.933a7.556,7.556,0,0,0-3.777,6.542v49.866a7.554,7.554,0,0,0,3.777,6.542l43.185,24.933a7.551,7.551,0,0,0,7.554,0l43.186-24.933A7.553,7.553,0,0,0,829.316,1967.717Z" transform="translate(-720.085 -1875.69)" fill="#b0b1b1"/>
    <path id="Trazado_157582" data-name="Trazado 157582" d="M829.074,1967.415v-49.866a7.554,7.554,0,0,0-3.777-6.542l-43.185-24.933a7.556,7.556,0,0,0-7.554,0l-43.185,24.933a7.554,7.554,0,0,0-3.777,6.542v49.866a7.554,7.554,0,0,0,3.777,6.542l43.185,24.933a7.556,7.556,0,0,0,7.554,0l43.185-24.933A7.554,7.554,0,0,0,829.074,1967.415Z" transform="translate(-720.085 -1875.69)" fill="#acaeae"/>
    <path id="Trazado_157583" data-name="Trazado 157583" d="M828.832,1967.113v-49.866a7.554,7.554,0,0,0-3.777-6.542l-43.185-24.933a7.551,7.551,0,0,0-7.554,0l-43.185,24.933a7.552,7.552,0,0,0-3.777,6.542v49.866a7.554,7.554,0,0,0,3.777,6.542l43.185,24.933a7.556,7.556,0,0,0,7.554,0l43.185-24.933A7.556,7.556,0,0,0,828.832,1967.113Z" transform="translate(-720.085 -1875.69)" fill="#a9aaab"/>
    <path id="Trazado_157584" data-name="Trazado 157584" d="M828.59,1966.81v-49.866a7.556,7.556,0,0,0-3.777-6.542l-43.186-24.933a7.554,7.554,0,0,0-7.553,0L730.888,1910.4a7.556,7.556,0,0,0-3.777,6.542v49.866a7.554,7.554,0,0,0,3.777,6.542l43.186,24.933a7.549,7.549,0,0,0,7.553,0l43.186-24.933A7.554,7.554,0,0,0,828.59,1966.81Z" transform="translate(-720.085 -1875.69)" fill="#a6a7a8"/>
    <path id="Trazado_157585" data-name="Trazado 157585" d="M828.347,1966.508v-49.866a7.553,7.553,0,0,0-3.777-6.542l-43.185-24.933a7.556,7.556,0,0,0-7.554,0L730.646,1910.1a7.555,7.555,0,0,0-3.777,6.542v49.866a7.554,7.554,0,0,0,3.777,6.542l43.185,24.933a7.556,7.556,0,0,0,7.554,0l43.185-24.933A7.552,7.552,0,0,0,828.347,1966.508Z" transform="translate(-720.085 -1875.69)" fill="#a3a4a5"/>
    <path id="Trazado_157586" data-name="Trazado 157586" d="M828.1,1966.206V1916.34a7.554,7.554,0,0,0-3.777-6.542l-43.185-24.933a7.551,7.551,0,0,0-7.554,0L730.4,1909.8a7.554,7.554,0,0,0-3.777,6.542v49.866a7.556,7.556,0,0,0,3.777,6.542l43.185,24.933a7.556,7.556,0,0,0,7.554,0l43.185-24.933A7.556,7.556,0,0,0,828.1,1966.206Z" transform="translate(-720.085 -1875.69)" fill="#9fa1a1"/>
    <path id="Trazado_157587" data-name="Trazado 157587" d="M827.863,1965.9v-49.866a7.553,7.553,0,0,0-3.777-6.541L780.9,1884.562a7.556,7.556,0,0,0-7.554,0L730.161,1909.5a7.553,7.553,0,0,0-3.777,6.541V1965.9a7.554,7.554,0,0,0,3.777,6.542l43.186,24.933a7.551,7.551,0,0,0,7.554,0l43.185-24.933A7.554,7.554,0,0,0,827.863,1965.9Z" transform="translate(-720.085 -1875.69)" fill="#9c9e9e"/>
    <path id="Trazado_157588" data-name="Trazado 157588" d="M827.62,1965.6v-49.866a7.554,7.554,0,0,0-3.776-6.542l-43.186-24.933a7.556,7.556,0,0,0-7.554,0l-43.185,24.933a7.555,7.555,0,0,0-3.777,6.542V1965.6a7.554,7.554,0,0,0,3.777,6.542l43.185,24.933a7.556,7.556,0,0,0,7.554,0l43.186-24.933A7.553,7.553,0,0,0,827.62,1965.6Z" transform="translate(-720.085 -1875.69)" fill="#999a9b"/>
    <path id="Trazado_157589" data-name="Trazado 157589" d="M827.378,1965.3v-49.866a7.554,7.554,0,0,0-3.777-6.542l-43.185-24.933a7.551,7.551,0,0,0-7.554,0l-43.185,24.933a7.554,7.554,0,0,0-3.777,6.542V1965.3a7.555,7.555,0,0,0,3.777,6.542l43.185,24.933a7.556,7.556,0,0,0,7.554,0l43.185-24.933A7.555,7.555,0,0,0,827.378,1965.3Z" transform="translate(-720.085 -1875.69)" fill="#959798"/>
    <path id="Trazado_157590" data-name="Trazado 157590" d="M827.136,1965V1915.13a7.553,7.553,0,0,0-3.777-6.541l-43.185-24.934a7.556,7.556,0,0,0-7.554,0l-43.185,24.934a7.551,7.551,0,0,0-3.777,6.541V1965a7.552,7.552,0,0,0,3.777,6.542l43.185,24.933a7.551,7.551,0,0,0,7.554,0l43.185-24.933A7.554,7.554,0,0,0,827.136,1965Z" transform="translate(-720.085 -1875.69)" fill="#929494"/>
    <path id="Trazado_157591" data-name="Trazado 157591" d="M826.894,1964.694v-49.866a7.555,7.555,0,0,0-3.777-6.542l-43.186-24.933a7.554,7.554,0,0,0-7.553,0l-43.186,24.933a7.555,7.555,0,0,0-3.777,6.542v49.866a7.554,7.554,0,0,0,3.777,6.542l43.186,24.933a7.554,7.554,0,0,0,7.553,0l43.186-24.933A7.554,7.554,0,0,0,826.894,1964.694Z" transform="translate(-720.085 -1875.69)" fill="#8f9191"/>
    <path id="Trazado_157592" data-name="Trazado 157592" d="M826.651,1964.392v-49.866a7.552,7.552,0,0,0-3.777-6.542l-43.185-24.933a7.551,7.551,0,0,0-7.554,0l-43.185,24.933a7.554,7.554,0,0,0-3.777,6.542v49.866a7.555,7.555,0,0,0,3.777,6.542l43.185,24.933a7.556,7.556,0,0,0,7.554,0l43.185-24.933A7.553,7.553,0,0,0,826.651,1964.392Z" transform="translate(-720.085 -1875.69)" fill="#8b8d8e"/>
    <path id="Trazado_157593" data-name="Trazado 157593" d="M826.409,1964.089v-49.866a7.553,7.553,0,0,0-3.777-6.541l-43.185-24.933a7.551,7.551,0,0,0-7.554,0l-43.185,24.933a7.553,7.553,0,0,0-3.777,6.541v49.866a7.554,7.554,0,0,0,3.777,6.542l43.185,24.933a7.551,7.551,0,0,0,7.554,0l43.185-24.933A7.554,7.554,0,0,0,826.409,1964.089Z" transform="translate(-720.085 -1875.69)" fill="#888a8b"/>
    <path id="Trazado_157594" data-name="Trazado 157594" d="M826.167,1963.787v-49.866a7.555,7.555,0,0,0-3.777-6.542l-43.185-24.933a7.556,7.556,0,0,0-7.554,0l-43.186,24.933a7.554,7.554,0,0,0-3.776,6.542v49.866a7.553,7.553,0,0,0,3.776,6.542l43.186,24.933a7.556,7.556,0,0,0,7.554,0l43.185-24.933A7.554,7.554,0,0,0,826.167,1963.787Z" transform="translate(-720.085 -1875.69)" fill="#858787"/>
    <path id="Trazado_157595" data-name="Trazado 157595" d="M825.925,1963.485v-49.866a7.554,7.554,0,0,0-3.777-6.542l-43.186-24.933a7.556,7.556,0,0,0-7.554,0l-43.185,24.933a7.554,7.554,0,0,0-3.777,6.542v49.866a7.555,7.555,0,0,0,3.777,6.542l43.185,24.933a7.556,7.556,0,0,0,7.554,0l43.186-24.933A7.555,7.555,0,0,0,825.925,1963.485Z" transform="translate(-720.085 -1875.69)" fill="#818484"/>
    <path id="Trazado_157596" data-name="Trazado 157596" d="M825.682,1963.183v-49.867a7.553,7.553,0,0,0-3.777-6.541l-43.185-24.933a7.55,7.55,0,0,0-7.554,0l-43.185,24.933a7.553,7.553,0,0,0-3.777,6.541v49.867a7.553,7.553,0,0,0,3.777,6.541l43.185,24.933a7.551,7.551,0,0,0,7.554,0l43.185-24.933A7.553,7.553,0,0,0,825.682,1963.183Z" transform="translate(-720.085 -1875.69)" fill="#7e8081"/>
    <path id="Trazado_157597" data-name="Trazado 157597" d="M825.44,1962.88v-49.866a7.555,7.555,0,0,0-3.777-6.542l-43.185-24.933a7.556,7.556,0,0,0-7.554,0l-43.185,24.933a7.553,7.553,0,0,0-3.777,6.542v49.866a7.552,7.552,0,0,0,3.777,6.542l43.185,24.933a7.556,7.556,0,0,0,7.554,0l43.185-24.933A7.554,7.554,0,0,0,825.44,1962.88Z" transform="translate(-720.085 -1875.69)" fill="#7b7d7e"/>
    <path id="Trazado_157598" data-name="Trazado 157598" d="M825.2,1962.578v-49.866a7.554,7.554,0,0,0-3.777-6.542l-43.186-24.933a7.553,7.553,0,0,0-7.553,0L727.5,1906.17a7.554,7.554,0,0,0-3.777,6.542v49.866a7.555,7.555,0,0,0,3.777,6.542l43.186,24.933a7.554,7.554,0,0,0,7.553,0l43.186-24.933A7.555,7.555,0,0,0,825.2,1962.578Z" transform="translate(-720.085 -1875.69)" fill="#787a7a"/>
    <path id="Trazado_157599" data-name="Trazado 157599" d="M824.955,1962.276v-49.867a7.551,7.551,0,0,0-3.777-6.541l-43.185-24.933a7.55,7.55,0,0,0-7.554,0l-43.185,24.933a7.553,7.553,0,0,0-3.777,6.541v49.867a7.553,7.553,0,0,0,3.777,6.541l43.185,24.933a7.551,7.551,0,0,0,7.554,0l43.185-24.933A7.551,7.551,0,0,0,824.955,1962.276Z" transform="translate(-720.085 -1875.69)" fill="#747777"/>
    <path id="Trazado_157600" data-name="Trazado 157600" d="M824.713,1961.973v-49.866a7.555,7.555,0,0,0-3.777-6.542l-43.185-24.933a7.556,7.556,0,0,0-7.554,0l-43.185,24.933a7.555,7.555,0,0,0-3.777,6.542v49.866a7.554,7.554,0,0,0,3.777,6.542l43.185,24.933a7.556,7.556,0,0,0,7.554,0l43.185-24.933A7.554,7.554,0,0,0,824.713,1961.973Z" transform="translate(-720.085 -1875.69)" fill="#717374"/>
    <path id="Trazado_157601" data-name="Trazado 157601" d="M824.471,1961.671v-49.866a7.554,7.554,0,0,0-3.777-6.542l-43.185-24.933a7.556,7.556,0,0,0-7.554,0l-43.186,24.933a7.553,7.553,0,0,0-3.776,6.542v49.866a7.554,7.554,0,0,0,3.776,6.542l43.186,24.933a7.556,7.556,0,0,0,7.554,0l43.185-24.933A7.555,7.555,0,0,0,824.471,1961.671Z" transform="translate(-720.085 -1875.69)" fill="#6e7071"/>
    <path id="Trazado_157602" data-name="Trazado 157602" d="M824.229,1961.369V1911.5a7.554,7.554,0,0,0-3.777-6.542l-43.186-24.933a7.551,7.551,0,0,0-7.554,0l-43.185,24.933a7.554,7.554,0,0,0-3.777,6.542v49.866a7.553,7.553,0,0,0,3.777,6.541l43.185,24.933a7.551,7.551,0,0,0,7.554,0l43.186-24.933A7.553,7.553,0,0,0,824.229,1961.369Z" transform="translate(-720.085 -1875.69)" fill="#6a6d6e"/>
    <path id="Trazado_157603" data-name="Trazado 157603" d="M823.986,1961.066V1911.2a7.553,7.553,0,0,0-3.777-6.542l-43.185-24.933a7.556,7.556,0,0,0-7.554,0l-43.185,24.933a7.555,7.555,0,0,0-3.777,6.542v49.866a7.554,7.554,0,0,0,3.777,6.542l43.185,24.933a7.556,7.556,0,0,0,7.554,0l43.185-24.933A7.552,7.552,0,0,0,823.986,1961.066Z" transform="translate(-720.085 -1875.69)" fill="#676a6a"/>
    <path id="Trazado_157604" data-name="Trazado 157604" d="M823.744,1960.764V1910.9a7.554,7.554,0,0,0-3.777-6.542l-43.185-24.933a7.556,7.556,0,0,0-7.554,0l-43.185,24.933a7.554,7.554,0,0,0-3.777,6.542v49.866a7.555,7.555,0,0,0,3.777,6.542l43.185,24.933a7.556,7.556,0,0,0,7.554,0l43.185-24.933A7.555,7.555,0,0,0,823.744,1960.764Z" transform="translate(-720.085 -1875.69)" fill="#646667"/>
    <path id="Trazado_157605" data-name="Trazado 157605" d="M823.5,1960.462V1910.6a7.554,7.554,0,0,0-3.777-6.542l-43.186-24.933a7.549,7.549,0,0,0-7.553,0L725.8,1904.054a7.554,7.554,0,0,0-3.777,6.542v49.866A7.553,7.553,0,0,0,725.8,1967l43.186,24.933a7.549,7.549,0,0,0,7.553,0L819.725,1967A7.553,7.553,0,0,0,823.5,1960.462Z" transform="translate(-720.085 -1875.69)" fill="#606364"/>
    <path id="Trazado_157606" data-name="Trazado 157606" d="M823.259,1960.159v-49.866a7.554,7.554,0,0,0-3.776-6.542L776.3,1878.818a7.556,7.556,0,0,0-7.554,0l-43.185,24.933a7.555,7.555,0,0,0-3.777,6.542v49.866a7.554,7.554,0,0,0,3.777,6.542l43.185,24.933a7.551,7.551,0,0,0,7.554,0l43.186-24.933A7.553,7.553,0,0,0,823.259,1960.159Z" transform="translate(-720.085 -1875.69)" fill="#5d6061"/>
    <path id="Trazado_157607" data-name="Trazado 157607" d="M823.017,1959.857v-49.866a7.554,7.554,0,0,0-3.777-6.542l-43.185-24.933a7.556,7.556,0,0,0-7.554,0l-43.185,24.933a7.554,7.554,0,0,0-3.777,6.542v49.866a7.555,7.555,0,0,0,3.777,6.542l43.185,24.933a7.556,7.556,0,0,0,7.554,0L819.24,1966.4A7.555,7.555,0,0,0,823.017,1959.857Z" transform="translate(-720.085 -1875.69)" fill="#5a5d5d"/>
    <path id="Trazado_157608" data-name="Trazado 157608" d="M822.775,1959.555v-49.866a7.554,7.554,0,0,0-3.777-6.542l-43.185-24.933a7.551,7.551,0,0,0-7.554,0l-43.185,24.933a7.552,7.552,0,0,0-3.777,6.542v49.866a7.551,7.551,0,0,0,3.777,6.541l43.185,24.934a7.556,7.556,0,0,0,7.554,0L819,1966.1A7.553,7.553,0,0,0,822.775,1959.555Z" transform="translate(-720.085 -1875.69)" fill="#57595a"/>
    <path id="Trazado_157609" data-name="Trazado 157609" d="M822.533,1959.252v-49.866a7.555,7.555,0,0,0-3.777-6.542l-43.186-24.933a7.554,7.554,0,0,0-7.553,0l-43.186,24.933a7.555,7.555,0,0,0-3.777,6.542v49.866a7.554,7.554,0,0,0,3.777,6.542l43.186,24.933a7.549,7.549,0,0,0,7.553,0l43.186-24.933A7.554,7.554,0,0,0,822.533,1959.252Z" transform="translate(-720.085 -1875.69)" fill="#535657"/>
    <path id="Trazado_157610" data-name="Trazado 157610" d="M822.29,1958.95v-49.866a7.552,7.552,0,0,0-3.777-6.542l-43.185-24.933a7.556,7.556,0,0,0-7.554,0l-43.185,24.933a7.554,7.554,0,0,0-3.777,6.542v49.866a7.555,7.555,0,0,0,3.777,6.542l43.185,24.933a7.556,7.556,0,0,0,7.554,0l43.185-24.933A7.553,7.553,0,0,0,822.29,1958.95Z" transform="translate(-720.085 -1875.69)" fill="#505354"/>
    <path id="Trazado_157611" data-name="Trazado 157611" d="M822.048,1958.648v-49.866a7.554,7.554,0,0,0-3.777-6.542l-43.185-24.933a7.551,7.551,0,0,0-7.554,0l-43.185,24.933a7.554,7.554,0,0,0-3.777,6.542v49.866a7.556,7.556,0,0,0,3.777,6.542l43.185,24.933a7.556,7.556,0,0,0,7.554,0l43.185-24.933A7.556,7.556,0,0,0,822.048,1958.648Z" transform="translate(-720.085 -1875.69)" fill="#4d5050"/>
    <path id="Trazado_157612" data-name="Trazado 157612" d="M821.806,1958.345v-49.866a7.556,7.556,0,0,0-3.777-6.542L774.844,1877a7.556,7.556,0,0,0-7.554,0L724.1,1901.937a7.556,7.556,0,0,0-3.777,6.542v49.866a7.554,7.554,0,0,0,3.777,6.542l43.186,24.933a7.551,7.551,0,0,0,7.554,0l43.185-24.933A7.554,7.554,0,0,0,821.806,1958.345Z" transform="translate(-720.085 -1875.69)" fill="#494c4d"/>
    <path id="Trazado_157613" data-name="Trazado 157613" d="M821.564,1958.043v-49.866a7.554,7.554,0,0,0-3.777-6.542L774.6,1876.7a7.556,7.556,0,0,0-7.554,0l-43.185,24.933a7.554,7.554,0,0,0-3.777,6.542v49.866a7.555,7.555,0,0,0,3.777,6.542l43.185,24.933a7.556,7.556,0,0,0,7.554,0l43.186-24.933A7.555,7.555,0,0,0,821.564,1958.043Z" transform="translate(-720.085 -1875.69)" fill="#46494a"/>
  </g>
  <g id="Grupo_108098" data-name="Grupo 108098" transform="translate(6.264 7)">
    <path id="Trazado_157614" data-name="Trazado 157614" d="M720.085,1956.661V1906.8a7.554,7.554,0,0,1,3.777-6.542l43.186-24.933a7.551,7.551,0,0,1,7.554,0l43.185,24.933a7.554,7.554,0,0,1,3.777,6.542v49.866a7.556,7.556,0,0,1-3.777,6.542L774.6,1988.136a7.556,7.556,0,0,1-7.554,0L723.862,1963.2A7.556,7.556,0,0,1,720.085,1956.661Z" transform="translate(-720.085 -1874.307)" fill="#fff"/>
    <path id="Trazado_157615" data-name="Trazado 157615" d="M722.059,1956.4v-49.334a6.04,6.04,0,0,1,3.02-5.232l42.725-24.667a6.042,6.042,0,0,1,6.041,0l42.725,24.667a6.04,6.04,0,0,1,3.02,5.232V1956.4a6.043,6.043,0,0,1-3.02,5.232l-42.725,24.667a6.041,6.041,0,0,1-6.041,0l-42.725-24.667A6.043,6.043,0,0,1,722.059,1956.4Z" transform="translate(-720.085 -1874.307)" fill="url(#linear-gradient)"/>
  </g>
  <g id="fabrica" transform="translate(21.743 29)">
    <g id="Grupo_107678" data-name="Grupo 107678" transform="translate(1.019 1.019)">
      <path id="Trazado_157330" data-name="Trazado 157330" d="M364.865,130.945l.3-3.008-.3-.469.5-5.4.875-.543h5.913l.718.543.5,5.4-.315.349.315,3.281.367.3,1.317,14.118-.649.483H363.749l-.568-.483,1.318-14.118Z" transform="translate(-355.735 -105.932)" fill="#dbedff"/>
      <path id="Trazado_157331" data-name="Trazado 157331" d="M364.769,131.395l-.366-.3-.315-3.281.315-.349-.5-5.4-.718-.543h4.147l.718.543.5,5.4-.315.349.315,3.281.367.3,1.317,14.118-.649.483h-4.147l.649-.483Z" transform="translate(-350.906 -105.932)" fill="#b5dcff"/>
      <path id="Trazado_157332" data-name="Trazado 157332" d="M321.86,296.962h20.5L343.422,298V321.6H321.41l-.313-.28v-23.6A.763.763,0,0,1,321.86,296.962Z" transform="translate(-318.341 -257.381)" fill="#ff642b"/>
      <path id="Trazado_157333" data-name="Trazado 157333" d="M321.86,297.725a.762.762,0,0,0-.762-.762h5.453L327.613,298V321.6h-6.067l.313-.28Z" transform="translate(-302.532 -257.381)" fill="#d44713"/>
      <path id="Trazado_157334" data-name="Trazado 157334" d="M371.678,96.78H380a.713.713,0,0,1,.713.713v2.5a.713.713,0,0,1-.713.713h-8.326a.713.713,0,0,1-.713-.713v-2.5A.713.713,0,0,1,371.678,96.78Z" transform="translate(-362.454 -84.568)" fill="#b5dcff"/>
      <path id="Trazado_157335" data-name="Trazado 157335" d="M371.678,99.994v-2.5a.713.713,0,0,0-.713-.713h4.01a.713.713,0,0,1,.713.713v2.5a.713.713,0,0,1-.713.713h-4.01A.713.713,0,0,0,371.678,99.994Z" transform="translate(-357.425 -84.568)" fill="#8bcaff"/>
      <path id="Trazado_157336" data-name="Trazado 157336" d="M249.6,9.984a.612.612,0,0,0,.675-.335,4.009,4.009,0,0,1,6.276-1.141.608.608,0,0,0,.822,0,4,4,0,0,1,5.406,0,.607.607,0,0,0,.822,0,4,4,0,1,1,0,5.9.607.607,0,0,0-.822,0,4,4,0,0,1-5.407,0,.608.608,0,0,0-.821,0,4,4,0,0,1-4.979.345.614.614,0,0,0-.757.033,2.769,2.769,0,1,1-1.214-4.8Z" transform="translate(-234.989 -7.456)" fill="#dbedff"/>
      <path id="Trazado_157337" data-name="Trazado 157337" d="M250.813,27.111a.614.614,0,0,1,.757-.033,4,4,0,0,0,4.979-.345.608.608,0,0,1,.821,0,4,4,0,0,0,5.407,0,.607.607,0,0,1,.822,0,4.03,4.03,0,0,0,6.4-1.394,4.014,4.014,0,0,1-6.4,4.5.607.607,0,0,0-.822,0,4,4,0,0,1-5.407,0,.608.608,0,0,0-.821,0,4,4,0,0,1-4.979.345.614.614,0,0,0-.757.033,2.774,2.774,0,0,1-4.583-2.092,2.736,2.736,0,0,1,.472-1.548A2.8,2.8,0,0,0,250.813,27.111Z" transform="translate(-234.989 -22.897)" fill="#b5dcff"/>
      <path id="Trazado_157338" data-name="Trazado 157338" d="M382.063,168.9h-9.246l.367-3.927H381.7Z" transform="translate(-364.053 -143.438)" fill="#ff642b"/>
      <path id="Trazado_157339" data-name="Trazado 157339" d="M376.964,164.974l.367,3.927h-4.147l-.367-3.927Z" transform="translate(-359.321 -143.438)" fill="#d44713"/>
      <path id="Trazado_157340" data-name="Trazado 157340" d="M374.088,446.384H361.84v4.11h12.248Z" transform="translate(-354.577 -386.375)" fill="#838cfc"/>
      <path id="Trazado_157341" data-name="Trazado 157341" d="M367.6,446.384H361.84v4.11H367.6Z" transform="translate(-348.09 -386.375)" fill="#3d46c2"/>
      <path id="Trazado_157342" data-name="Trazado 157342" d="M374.088,391.47H361.84v4.11h12.248Z" transform="translate(-354.577 -338.968)" fill="#838cfc"/>
      <path id="Trazado_157343" data-name="Trazado 157343" d="M367.6,391.47H361.84v4.11H367.6Z" transform="translate(-348.09 -338.968)" fill="#3d46c2"/>
      <path id="Trazado_157344" data-name="Trazado 157344" d="M226.305,246.548l12.059,6.071a.833.833,0,0,1,.459.744l.463.483V278H225.659l-.562-.28V247.292A.833.833,0,0,1,226.305,246.548Z" transform="translate(-201.079 -213.782)" fill="#f3ff3c"/>
      <path id="Trazado_157345" data-name="Trazado 157345" d="M374.088,420.231H361.84v3.754h12.248Z" transform="translate(-354.577 -363.797)" fill="#838cfc"/>
      <path id="Trazado_157346" data-name="Trazado 157346" d="M367.6,420.231H361.84v3.754H367.6Z" transform="translate(-348.09 -363.797)" fill="#3d46c2"/>
      <path id="Trazado_157347" data-name="Trazado 157347" d="M362.023,362.309H373.9a.644.644,0,0,0,.183-.03v4.169H361.84v-4.169A.644.644,0,0,0,362.023,362.309Z" transform="translate(-354.577 -313.768)" fill="#838cfc"/>
      <path id="Trazado_157348" data-name="Trazado 157348" d="M361.925,362.309h5.589a.165.165,0,0,0,.086-.03v4.169h-5.761v-4.169A.163.163,0,0,0,361.925,362.309Z" transform="translate(-348.089 -313.768)" fill="#3d46c2"/>
      <path id="Trazado_157349" data-name="Trazado 157349" d="M358.678,336.791h11.881a.713.713,0,0,1,.713.713V340a.713.713,0,0,1-.713.713H358.678a.713.713,0,0,1-.713-.713v-2.5A.713.713,0,0,1,358.678,336.791Z" transform="translate(-351.232 -291.765)" fill="#dbedff"/>
      <path id="Trazado_157350" data-name="Trazado 157350" d="M358.678,340v-2.5a.713.713,0,0,0-.713-.713h5.578a.713.713,0,0,1,.713.713V340a.713.713,0,0,1-.713.713h-5.578A.713.713,0,0,0,358.678,340Z" transform="translate(-344.215 -291.764)" fill="#b5dcff"/>
      <path id="Trazado_157351" data-name="Trazado 157351" d="M238.368,254.69a.834.834,0,0,0-.459-.744l-9.425-4.745v-1.909a.833.833,0,0,1,1.208-.744l12.059,6.071a.833.833,0,0,1,.459.744v24.361h-3.841V254.69Z" transform="translate(-204.466 -213.782)" fill="#b1ba2c"/>
      <path id="Trazado_157352" data-name="Trazado 157352" d="M124.971,246.548l12.059,6.071a.833.833,0,0,1,.459.744l.592.483v24.523H124.819l-1.056-.645V247.292A.833.833,0,0,1,124.971,246.548Z" transform="translate(-86.02 -213.782)" fill="#f3ff3c"/>
      <path id="Trazado_157353" data-name="Trazado 157353" d="M137.978,254.69a.834.834,0,0,0-.459-.744l-9.425-4.745v-1.909a.833.833,0,0,1,1.208-.744l12.059,6.071a.833.833,0,0,1,.459.744v24.361h-3.841V254.69Z" transform="translate(-90.351 -213.782)" fill="#b1ba2c"/>
      <path id="Trazado_157354" data-name="Trazado 157354" d="M28.912,246.548l12.059,6.071a.833.833,0,0,1,.459.744v24.361H27.7V247.292a.833.833,0,0,1,1.208-.744Z" transform="translate(23.764 -213.782)" fill="#f3ff3c"/>
      <path id="Trazado_157355" data-name="Trazado 157355" d="M37.588,254.69a.834.834,0,0,0-.459-.744L27.7,249.2v-1.909a.833.833,0,0,1,1.208-.744l12.059,6.071a.833.833,0,0,1,.459.744v24.361H37.588V254.69Z" transform="translate(23.764 -213.782)" fill="#b1ba2c"/>
      <path id="Trazado_157356" data-name="Trazado 157356" d="M8.536,474.145H74.5a.991.991,0,0,1,.991.991V477.3a.991.991,0,0,1-.991.991H8.536a.991.991,0,0,1-.991-.991v-2.162A.991.991,0,0,1,8.536,474.145Z" transform="translate(-7.545 -410.34)" fill="#dbedff"/>
      <path id="Trazado_157357" data-name="Trazado 157357" d="M8.536,483.043H74.5a.991.991,0,0,0,.991-.991v2.072a.991.991,0,0,1-.991.991H8.536a.991.991,0,0,1-.991-.991v-2.072A.991.991,0,0,0,8.536,483.043Z" transform="translate(-7.545 -417.166)" fill="#b5dcff"/>
      <g id="Grupo_107677" data-name="Grupo 107677" transform="translate(27.722 42.637)">
        <path id="Trazado_157358" data-name="Trazado 157358" d="M256.428,319.319h4.622a.847.847,0,0,1,.847.847v5.169a.847.847,0,0,1-.847.847h-4.622a.847.847,0,0,1-.847-.847v-5.169A.847.847,0,0,1,256.428,319.319Z" transform="translate(-255.581 -319.319)" fill="#838cfc"/>
        <path id="Trazado_157359" data-name="Trazado 157359" d="M156.038,319.319h4.622a.847.847,0,0,1,.847.847v5.169a.847.847,0,0,1-.847.847h-4.622a.847.847,0,0,1-.847-.847v-5.169A.847.847,0,0,1,156.038,319.319Z" transform="translate(-141.466 -319.319)" fill="#838cfc"/>
        <path id="Trazado_157360" data-name="Trazado 157360" d="M55.648,319.319H60.27a.847.847,0,0,1,.847.847v5.169a.847.847,0,0,1-.847.847H55.648a.847.847,0,0,1-.847-.847v-5.169A.847.847,0,0,1,55.648,319.319Z" transform="translate(-27.351 -319.319)" fill="#838cfc"/>
      </g>
      <path id="Trazado_157361" data-name="Trazado 157361" d="M256.428,325.334v-5.169a.847.847,0,0,0-.847-.847h3.158a.847.847,0,0,1,.847.847v5.169a.847.847,0,0,1-.847.847h-3.158A.847.847,0,0,0,256.428,325.334Z" transform="translate(-225.547 -276.681)" fill="#3d46c2"/>
      <path id="Trazado_157362" data-name="Trazado 157362" d="M156.038,325.334v-5.169a.847.847,0,0,0-.847-.847h3.158a.847.847,0,0,1,.847.847v5.169a.847.847,0,0,1-.847.847h-3.158A.847.847,0,0,0,156.038,325.334Z" transform="translate(-111.432 -276.681)" fill="#3d46c2"/>
      <path id="Trazado_157363" data-name="Trazado 157363" d="M55.648,325.334v-5.169a.847.847,0,0,0-.847-.847h3.158a.847.847,0,0,1,.847.847v5.169a.847.847,0,0,1-.847.847H54.8A.847.847,0,0,0,55.648,325.334Z" transform="translate(2.683 -276.681)" fill="#3d46c2"/>
    </g>
    <g id="Grupo_107679" data-name="Grupo 107679" transform="translate(0 0)">
      <path id="Trazado_157364" data-name="Trazado 157364" d="M53.75,320.774H49.128a1.874,1.874,0,0,1-1.872-1.872v-5.169a1.874,1.874,0,0,1,1.872-1.872H53.75a1.874,1.874,0,0,1,1.872,1.872V318.9A1.874,1.874,0,0,1,53.75,320.774Zm-.179-6.863H49.307v4.812h4.265Z" transform="translate(7.917 -269.224)" fill="#12263f"/>
      <path id="Trazado_157365" data-name="Trazado 157365" d="M154.14,320.774h-4.622a1.874,1.874,0,0,1-1.872-1.872v-5.169a1.874,1.874,0,0,1,1.872-1.872h4.622a1.874,1.874,0,0,1,1.872,1.872V318.9A1.874,1.874,0,0,1,154.14,320.774Zm-.179-6.863H149.7v4.812h4.265Z" transform="translate(-106.198 -269.224)" fill="#12263f"/>
      <path id="Trazado_157366" data-name="Trazado 157366" d="M254.532,320.774h-4.622a1.874,1.874,0,0,1-1.872-1.872v-5.169a1.874,1.874,0,0,1,1.872-1.872h4.622a1.874,1.874,0,0,1,1.872,1.872V318.9A1.874,1.874,0,0,1,254.532,320.774Zm-.179-6.863h-4.265v4.812h4.265Z" transform="translate(-220.315 -269.224)" fill="#12263f"/>
      <path id="Trazado_157367" data-name="Trazado 157367" d="M242.98,2.5a5.04,5.04,0,0,1,7.462-1.414,5.053,5.053,0,0,1,6.226,0A5.023,5.023,0,0,1,261.8.433a4.941,4.941,0,0,1,3.007,4.594,4.941,4.941,0,0,1-3.006,4.594,5.023,5.023,0,0,1-5.138-.647,5.053,5.053,0,0,1-6.228,0,5.062,5.062,0,0,1-5.721.354A3.8,3.8,0,1,1,242.98,2.5Zm.635,5.087a1.636,1.636,0,0,1,2.02-.107,2.988,2.988,0,0,0,3.7-.256,1.64,1.64,0,0,1,2.21,0,2.982,2.982,0,0,0,4.018,0,1.637,1.637,0,0,1,2.216,0,2.935,2.935,0,0,0,3.208.513,2.881,2.881,0,0,0,1.773-2.713,2.881,2.881,0,0,0-1.773-2.713,2.928,2.928,0,0,0-3.208.514,1.637,1.637,0,0,1-2.216,0,2.982,2.982,0,0,0-4.017,0,1.639,1.639,0,0,1-2.213,0,2.983,2.983,0,0,0-4.662.847,1.633,1.633,0,0,1-1.817.877h0a1.744,1.744,0,1,0,.761,3.028Z" transform="translate(-227.444 -0.001)" fill="#12263f"/>
      <path id="Trazado_157368" data-name="Trazado 157368" d="M2.016,141.052h.74V118.479a1.79,1.79,0,0,1,1.788-1.788H7.538l.407-4.357a1.025,1.025,0,1,1,2.042.191L9.6,116.691h9.63L18.1,104.624H10.724l-.291,3.116a1.025,1.025,0,0,1-2.042-.191l1.157-12.4a1.74,1.74,0,0,1-1.037-1.589v-2.5a1.741,1.741,0,0,1,1.739-1.739h8.326a1.741,1.741,0,0,1,1.739,1.739v2.5a1.74,1.74,0,0,1-1.037,1.589l2.01,21.54h2.731v-5.045a1.859,1.859,0,0,1,2.694-1.66l11.031,5.553v-3.893a1.859,1.859,0,0,1,2.694-1.66l11.031,5.553v-3.893a1.859,1.859,0,0,1,2.694-1.66l12.059,6.071a1.849,1.849,0,0,1,1.023,1.66v23.335h.74A2.019,2.019,0,0,1,70,143.069v2.026a2.019,2.019,0,0,1-2.016,2.016H37.393a1.025,1.025,0,1,1,0-2.051H67.949V143.1H2.051v1.957H32.607a1.025,1.025,0,1,1,0,2.051H2.016A2.019,2.019,0,0,1,0,145.094v-2.026A2.019,2.019,0,0,1,2.016,141.052ZM17.91,102.573l-.175-1.876H11.09l-.175,1.876Zm-.366-3.927L17.231,95.3H11.594l-.312,3.346Zm.72-7.273h-7.7V93.25h7.7Zm35.256,49.679H65.193V117.835l-11.674-5.877Zm-13.725,0H51.468V117.835l-11.674-5.877Zm-13.725,0H37.743V117.835l-11.674-5.877Zm-16.755,0h10.2v-1.7H9.314Zm0-3.754h10.2v-1.7H9.314Zm0-3.754h10.2v-1.7H9.314Zm0-3.754h10.2v-1.676H9.314Zm-.53-3.727H20.041v-1.876H8.784ZM4.807,141.052H7.263V127.623a1.732,1.732,0,0,1-.53-1.247v-2.5a1.741,1.741,0,0,1,1.739-1.739H20.353a1.741,1.741,0,0,1,1.739,1.739v2.5a1.732,1.732,0,0,1-.53,1.247v13.429h2.456v-22.31H4.807Z" transform="translate(0 -77.111)" fill="#12263f"/>
    </g>
  </g>
</svg>
