<svg xmlns="http://www.w3.org/2000/svg" xmlns:xlink="http://www.w3.org/1999/xlink" width="122.046" height="140.294" viewBox="0 0 122.046 140.294">
  <defs>
    <linearGradient id="linear-gradient" x1="-66.964" y1="0.86" x2="-67.499" y2="0.134" gradientUnits="objectBoundingBox">
      <stop offset="0" stop-color="#fff"/>
      <stop offset="0.439" stop-color="#fcfcfc"/>
      <stop offset="0.682" stop-color="#f4f5f5"/>
      <stop offset="0.875" stop-color="#e6e9e9"/>
      <stop offset="0.995" stop-color="#dadede"/>
    </linearGradient>
  </defs>
  <g id="Grupo_108376" data-name="Grupo 108376" transform="translate(-2827 10919)">
    <circle id="Elipse_5087" data-name="Elipse 5087" cx="8.792" cy="8.792" r="8.792" transform="translate(2878.138 -10880.313) rotate(-9.273)" fill="#fde947"/>
    <circle id="Elipse_5088" data-name="Elipse 5088" cx="8.792" cy="8.792" r="8.792" transform="translate(2867.138 -10850.313) rotate(-9.273)" fill="#3ca8f4"/>
    <path id="Trazado_157871" data-name="Trazado 157871" d="M1143.96,2147.762v-56.068a8.493,8.493,0,0,1,4.246-7.356l48.557-28.034a8.494,8.494,0,0,1,8.493,0l48.557,28.034a8.495,8.495,0,0,1,4.246,7.356v56.068a8.494,8.494,0,0,1-4.246,7.355l-48.557,28.034a8.489,8.489,0,0,1-8.493,0l-48.557-28.034A8.492,8.492,0,0,1,1143.96,2147.762Z" transform="translate(1683.04 -12974.166)" fill="#f85316"/>
    <g id="Grupo_108110" data-name="Grupo 108110" transform="translate(2834 -10910.476)" opacity="0.4" style="mix-blend-mode: multiply;isolation: isolate">
      <path id="Trazado_157872" data-name="Trazado 157872" d="M1238.181,2162.973v-49.866a7.553,7.553,0,0,0-3.777-6.542l-43.185-24.933a7.555,7.555,0,0,0-7.554,0l-43.185,24.933a7.555,7.555,0,0,0-3.777,6.542v49.866a7.554,7.554,0,0,0,3.777,6.542l43.185,24.933a7.555,7.555,0,0,0,7.554,0l43.185-24.933A7.551,7.551,0,0,0,1238.181,2162.973Z" transform="translate(-1123.135 -2063.69)" fill="#fff"/>
      <path id="Trazado_157873" data-name="Trazado 157873" d="M1238.423,2162.671V2112.8a7.554,7.554,0,0,0-3.777-6.542l-43.185-24.933a7.551,7.551,0,0,0-7.554,0l-43.185,24.933a7.554,7.554,0,0,0-3.777,6.542v49.866a7.554,7.554,0,0,0,3.777,6.542l43.185,24.933a7.555,7.555,0,0,0,7.554,0l43.185-24.933A7.555,7.555,0,0,0,1238.423,2162.671Z" transform="translate(-1123.619 -2063.69)" fill="#fcfcfc"/>
      <path id="Trazado_157874" data-name="Trazado 157874" d="M1238.665,2162.368V2112.5a7.553,7.553,0,0,0-3.777-6.541l-43.185-24.933a7.55,7.55,0,0,0-7.554,0l-43.186,24.933a7.553,7.553,0,0,0-3.776,6.541v49.866a7.553,7.553,0,0,0,3.776,6.542l43.186,24.933a7.55,7.55,0,0,0,7.554,0l43.185-24.933A7.554,7.554,0,0,0,1238.665,2162.368Z" transform="translate(-1124.103 -2063.69)" fill="#f8f8f9"/>
      <path id="Trazado_157875" data-name="Trazado 157875" d="M1238.908,2162.066V2112.2a7.555,7.555,0,0,0-3.777-6.542l-43.186-24.933a7.555,7.555,0,0,0-7.554,0l-43.185,24.933a7.555,7.555,0,0,0-3.777,6.542v49.866a7.554,7.554,0,0,0,3.777,6.542l43.185,24.933a7.557,7.557,0,0,0,7.554,0l43.186-24.933A7.554,7.554,0,0,0,1238.908,2162.066Z" transform="translate(-1124.588 -2063.69)" fill="#f5f5f5"/>
      <path id="Trazado_157876" data-name="Trazado 157876" d="M1239.15,2161.764V2111.9a7.552,7.552,0,0,0-3.777-6.542l-43.185-24.933a7.55,7.55,0,0,0-7.554,0l-43.185,24.933a7.554,7.554,0,0,0-3.777,6.542v49.866a7.555,7.555,0,0,0,3.777,6.542l43.185,24.933a7.556,7.556,0,0,0,7.554,0l43.185-24.933A7.553,7.553,0,0,0,1239.15,2161.764Z" transform="translate(-1125.073 -2063.69)" fill="#f2f2f2"/>
      <path id="Trazado_157877" data-name="Trazado 157877" d="M1239.392,2161.462v-49.867a7.554,7.554,0,0,0-3.777-6.541l-43.185-24.933a7.551,7.551,0,0,0-7.554,0l-43.185,24.933a7.551,7.551,0,0,0-3.777,6.541v49.867a7.551,7.551,0,0,0,3.777,6.541l43.185,24.933a7.552,7.552,0,0,0,7.554,0L1235.615,2168A7.553,7.553,0,0,0,1239.392,2161.462Z" transform="translate(-1125.557 -2063.69)" fill="#eeefef"/>
      <path id="Trazado_157878" data-name="Trazado 157878" d="M1239.635,2161.159v-49.866a7.555,7.555,0,0,0-3.777-6.542l-43.186-24.933a7.553,7.553,0,0,0-7.553,0l-43.186,24.933a7.555,7.555,0,0,0-3.777,6.542v49.866a7.554,7.554,0,0,0,3.777,6.542l43.186,24.933a7.555,7.555,0,0,0,7.553,0l43.186-24.933A7.554,7.554,0,0,0,1239.635,2161.159Z" transform="translate(-1126.042 -2063.69)" fill="#ebebec"/>
      <path id="Trazado_157879" data-name="Trazado 157879" d="M1239.877,2160.857v-49.866a7.553,7.553,0,0,0-3.776-6.542l-43.186-24.933a7.555,7.555,0,0,0-7.554,0l-43.185,24.933a7.554,7.554,0,0,0-3.777,6.542v49.866a7.555,7.555,0,0,0,3.777,6.542l43.185,24.933a7.557,7.557,0,0,0,7.554,0L1236.1,2167.4A7.554,7.554,0,0,0,1239.877,2160.857Z" transform="translate(-1126.527 -2063.69)" fill="#e8e8e8"/>
      <path id="Trazado_157880" data-name="Trazado 157880" d="M1240.119,2160.555v-49.867a7.554,7.554,0,0,0-3.777-6.541l-43.185-24.933a7.55,7.55,0,0,0-7.554,0l-43.185,24.933a7.554,7.554,0,0,0-3.777,6.541v49.867a7.553,7.553,0,0,0,3.777,6.541l43.185,24.933a7.552,7.552,0,0,0,7.554,0l43.185-24.933A7.553,7.553,0,0,0,1240.119,2160.555Z" transform="translate(-1127.011 -2063.69)" fill="#e5e5e5"/>
      <path id="Trazado_157881" data-name="Trazado 157881" d="M1240.361,2160.252v-49.866a7.555,7.555,0,0,0-3.777-6.542l-43.185-24.933a7.557,7.557,0,0,0-7.554,0l-43.185,24.933a7.553,7.553,0,0,0-3.777,6.542v49.866a7.552,7.552,0,0,0,3.777,6.542l43.185,24.933a7.557,7.557,0,0,0,7.554,0l43.185-24.933A7.554,7.554,0,0,0,1240.361,2160.252Z" transform="translate(-1127.495 -2063.69)" fill="#e1e2e2"/>
      <path id="Trazado_157882" data-name="Trazado 157882" d="M1240.6,2159.95v-49.866a7.554,7.554,0,0,0-3.777-6.542l-43.186-24.933a7.555,7.555,0,0,0-7.553,0l-43.186,24.933a7.554,7.554,0,0,0-3.777,6.542v49.866a7.555,7.555,0,0,0,3.777,6.542l43.186,24.933a7.555,7.555,0,0,0,7.553,0l43.186-24.933A7.555,7.555,0,0,0,1240.6,2159.95Z" transform="translate(-1127.98 -2063.69)" fill="#dededf"/>
      <path id="Trazado_157883" data-name="Trazado 157883" d="M1240.846,2159.648v-49.867a7.551,7.551,0,0,0-3.777-6.541l-43.185-24.933a7.552,7.552,0,0,0-7.554,0l-43.185,24.933a7.553,7.553,0,0,0-3.777,6.541v49.867a7.553,7.553,0,0,0,3.777,6.541l43.185,24.933a7.552,7.552,0,0,0,7.554,0l43.185-24.933A7.551,7.551,0,0,0,1240.846,2159.648Z" transform="translate(-1128.465 -2063.69)" fill="#dbdbdb"/>
      <path id="Trazado_157884" data-name="Trazado 157884" d="M1241.088,2159.345v-49.866a7.555,7.555,0,0,0-3.777-6.542L1194.126,2078a7.556,7.556,0,0,0-7.554,0l-43.185,24.933a7.555,7.555,0,0,0-3.777,6.542v49.866a7.554,7.554,0,0,0,3.777,6.542l43.185,24.933a7.552,7.552,0,0,0,7.554,0l43.185-24.933A7.554,7.554,0,0,0,1241.088,2159.345Z" transform="translate(-1128.949 -2063.69)" fill="#d7d8d8"/>
      <path id="Trazado_157885" data-name="Trazado 157885" d="M1241.331,2159.043v-49.866a7.554,7.554,0,0,0-3.777-6.542l-43.185-24.933a7.557,7.557,0,0,0-7.554,0l-43.186,24.933a7.554,7.554,0,0,0-3.777,6.542v49.866a7.555,7.555,0,0,0,3.777,6.542l43.186,24.933a7.557,7.557,0,0,0,7.554,0l43.185-24.933A7.555,7.555,0,0,0,1241.331,2159.043Z" transform="translate(-1129.434 -2063.69)" fill="#d4d5d5"/>
      <path id="Trazado_157886" data-name="Trazado 157886" d="M1241.573,2158.741v-49.867a7.553,7.553,0,0,0-3.777-6.541L1194.61,2077.4a7.552,7.552,0,0,0-7.554,0l-43.185,24.933a7.553,7.553,0,0,0-3.777,6.541v49.867a7.553,7.553,0,0,0,3.777,6.541l43.185,24.933a7.552,7.552,0,0,0,7.554,0l43.186-24.933A7.553,7.553,0,0,0,1241.573,2158.741Z" transform="translate(-1129.918 -2063.69)" fill="#d1d1d2"/>
      <path id="Trazado_157887" data-name="Trazado 157887" d="M1241.815,2158.438v-49.866a7.555,7.555,0,0,0-3.777-6.542l-43.185-24.933a7.557,7.557,0,0,0-7.554,0l-43.185,24.933a7.555,7.555,0,0,0-3.777,6.542v49.866a7.554,7.554,0,0,0,3.777,6.542l43.185,24.933a7.552,7.552,0,0,0,7.554,0l43.185-24.933A7.554,7.554,0,0,0,1241.815,2158.438Z" transform="translate(-1130.403 -2063.69)" fill="#cdcecf"/>
      <path id="Trazado_157888" data-name="Trazado 157888" d="M1242.057,2158.136V2108.27a7.554,7.554,0,0,0-3.777-6.542l-43.185-24.933a7.556,7.556,0,0,0-7.554,0l-43.185,24.933a7.552,7.552,0,0,0-3.777,6.542v49.866a7.553,7.553,0,0,0,3.777,6.542l43.185,24.933a7.556,7.556,0,0,0,7.554,0l43.185-24.933A7.555,7.555,0,0,0,1242.057,2158.136Z" transform="translate(-1130.887 -2063.69)" fill="#cacbcb"/>
      <path id="Trazado_157889" data-name="Trazado 157889" d="M1242.3,2157.834v-49.866a7.554,7.554,0,0,0-3.777-6.542l-43.186-24.933a7.55,7.55,0,0,0-7.553,0l-43.186,24.933a7.554,7.554,0,0,0-3.777,6.542v49.866a7.554,7.554,0,0,0,3.777,6.541l43.186,24.934a7.555,7.555,0,0,0,7.553,0l43.186-24.934A7.553,7.553,0,0,0,1242.3,2157.834Z" transform="translate(-1131.372 -2063.69)" fill="#c7c8c8"/>
      <path id="Trazado_157890" data-name="Trazado 157890" d="M1242.542,2157.531v-49.866a7.553,7.553,0,0,0-3.777-6.542l-43.185-24.933a7.556,7.556,0,0,0-7.554,0l-43.185,24.933a7.555,7.555,0,0,0-3.777,6.542v49.866a7.554,7.554,0,0,0,3.777,6.542l43.185,24.933a7.552,7.552,0,0,0,7.554,0l43.185-24.933A7.552,7.552,0,0,0,1242.542,2157.531Z" transform="translate(-1131.857 -2063.69)" fill="#c4c4c5"/>
      <path id="Trazado_157891" data-name="Trazado 157891" d="M1242.784,2157.229v-49.866a7.554,7.554,0,0,0-3.777-6.542l-43.185-24.933a7.557,7.557,0,0,0-7.554,0l-43.185,24.933a7.554,7.554,0,0,0-3.777,6.542v49.866a7.555,7.555,0,0,0,3.777,6.542l43.185,24.933a7.557,7.557,0,0,0,7.554,0l43.185-24.933A7.555,7.555,0,0,0,1242.784,2157.229Z" transform="translate(-1132.341 -2063.69)" fill="#c0c1c2"/>
      <path id="Trazado_157892" data-name="Trazado 157892" d="M1243.026,2156.927v-49.866a7.554,7.554,0,0,0-3.777-6.542l-43.185-24.933a7.552,7.552,0,0,0-7.554,0l-43.186,24.933a7.553,7.553,0,0,0-3.776,6.542v49.866a7.555,7.555,0,0,0,3.776,6.542l43.186,24.933a7.556,7.556,0,0,0,7.554,0l43.185-24.933A7.556,7.556,0,0,0,1243.026,2156.927Z" transform="translate(-1132.825 -2063.69)" fill="#bdbebe"/>
      <path id="Trazado_157893" data-name="Trazado 157893" d="M1243.269,2156.624v-49.866a7.556,7.556,0,0,0-3.777-6.542l-43.186-24.933a7.556,7.556,0,0,0-7.554,0l-43.185,24.933a7.556,7.556,0,0,0-3.777,6.542v49.866a7.554,7.554,0,0,0,3.777,6.542l43.185,24.933a7.552,7.552,0,0,0,7.554,0l43.186-24.933A7.554,7.554,0,0,0,1243.269,2156.624Z" transform="translate(-1133.31 -2063.69)" fill="#babbbb"/>
      <path id="Trazado_157894" data-name="Trazado 157894" d="M1243.511,2156.322v-49.866a7.552,7.552,0,0,0-3.777-6.542l-43.185-24.933a7.556,7.556,0,0,0-7.554,0l-43.185,24.933a7.554,7.554,0,0,0-3.777,6.542v49.866a7.555,7.555,0,0,0,3.777,6.542l43.185,24.933a7.556,7.556,0,0,0,7.554,0l43.185-24.933A7.553,7.553,0,0,0,1243.511,2156.322Z" transform="translate(-1133.795 -2063.69)" fill="#b6b7b8"/>
      <path id="Trazado_157895" data-name="Trazado 157895" d="M1243.753,2156.02v-49.866a7.554,7.554,0,0,0-3.777-6.542l-43.185-24.933a7.552,7.552,0,0,0-7.554,0l-43.185,24.933a7.552,7.552,0,0,0-3.777,6.542v49.866a7.554,7.554,0,0,0,3.777,6.542l43.185,24.933a7.556,7.556,0,0,0,7.554,0l43.185-24.933A7.556,7.556,0,0,0,1243.753,2156.02Z" transform="translate(-1134.279 -2063.69)" fill="#b3b4b5"/>
      <path id="Trazado_157896" data-name="Trazado 157896" d="M1244,2155.717v-49.866a7.556,7.556,0,0,0-3.777-6.542l-43.186-24.933a7.555,7.555,0,0,0-7.553,0l-43.186,24.933a7.556,7.556,0,0,0-3.777,6.542v49.866a7.554,7.554,0,0,0,3.777,6.542l43.186,24.933a7.549,7.549,0,0,0,7.553,0l43.186-24.933A7.554,7.554,0,0,0,1244,2155.717Z" transform="translate(-1134.764 -2063.69)" fill="#b0b1b1"/>
      <path id="Trazado_157897" data-name="Trazado 157897" d="M1244.238,2155.415v-49.866a7.552,7.552,0,0,0-3.777-6.542l-43.185-24.933a7.556,7.556,0,0,0-7.554,0l-43.185,24.933a7.554,7.554,0,0,0-3.777,6.542v49.866a7.554,7.554,0,0,0,3.777,6.542l43.185,24.933a7.555,7.555,0,0,0,7.554,0l43.185-24.933A7.552,7.552,0,0,0,1244.238,2155.415Z" transform="translate(-1135.249 -2063.69)" fill="#acaeae"/>
      <path id="Trazado_157898" data-name="Trazado 157898" d="M1244.48,2155.113v-49.866a7.554,7.554,0,0,0-3.777-6.542l-43.185-24.933a7.552,7.552,0,0,0-7.554,0l-43.185,24.933a7.554,7.554,0,0,0-3.777,6.542v49.866a7.556,7.556,0,0,0,3.777,6.542l43.185,24.933a7.555,7.555,0,0,0,7.554,0l43.185-24.933A7.556,7.556,0,0,0,1244.48,2155.113Z" transform="translate(-1135.733 -2063.69)" fill="#a9aaab"/>
      <path id="Trazado_157899" data-name="Trazado 157899" d="M1244.722,2154.81v-49.866a7.556,7.556,0,0,0-3.777-6.542l-43.185-24.933a7.556,7.556,0,0,0-7.554,0L1147.02,2098.4a7.555,7.555,0,0,0-3.776,6.542v49.866a7.553,7.553,0,0,0,3.776,6.542l43.186,24.933a7.55,7.55,0,0,0,7.554,0l43.185-24.933A7.554,7.554,0,0,0,1244.722,2154.81Z" transform="translate(-1136.217 -2063.69)" fill="#a6a7a8"/>
      <path id="Trazado_157900" data-name="Trazado 157900" d="M1244.965,2154.508v-49.866a7.555,7.555,0,0,0-3.777-6.542L1198,2073.167a7.555,7.555,0,0,0-7.553,0l-43.186,24.933a7.555,7.555,0,0,0-3.777,6.542v49.866a7.554,7.554,0,0,0,3.777,6.542l43.186,24.933a7.553,7.553,0,0,0,7.553,0l43.186-24.933A7.554,7.554,0,0,0,1244.965,2154.508Z" transform="translate(-1136.702 -2063.69)" fill="#a3a4a5"/>
      <path id="Trazado_157901" data-name="Trazado 157901" d="M1245.207,2154.206V2104.34a7.552,7.552,0,0,0-3.777-6.542l-43.185-24.933a7.55,7.55,0,0,0-7.554,0l-43.185,24.933a7.554,7.554,0,0,0-3.777,6.542v49.866a7.556,7.556,0,0,0,3.777,6.542l43.185,24.933a7.555,7.555,0,0,0,7.554,0l43.185-24.933A7.554,7.554,0,0,0,1245.207,2154.206Z" transform="translate(-1137.187 -2063.69)" fill="#9fa1a1"/>
      <path id="Trazado_157902" data-name="Trazado 157902" d="M1245.449,2153.9v-49.866a7.553,7.553,0,0,0-3.777-6.541l-43.185-24.934a7.555,7.555,0,0,0-7.554,0l-43.185,24.934a7.553,7.553,0,0,0-3.777,6.541V2153.9a7.554,7.554,0,0,0,3.777,6.542l43.185,24.933a7.551,7.551,0,0,0,7.554,0l43.185-24.933A7.554,7.554,0,0,0,1245.449,2153.9Z" transform="translate(-1137.671 -2063.69)" fill="#9c9e9e"/>
      <path id="Trazado_157903" data-name="Trazado 157903" d="M1245.692,2153.6v-49.866a7.554,7.554,0,0,0-3.777-6.542l-43.186-24.933a7.553,7.553,0,0,0-7.553,0l-43.186,24.933a7.555,7.555,0,0,0-3.777,6.542V2153.6a7.554,7.554,0,0,0,3.777,6.542l43.186,24.933a7.553,7.553,0,0,0,7.553,0l43.186-24.933A7.554,7.554,0,0,0,1245.692,2153.6Z" transform="translate(-1138.156 -2063.69)" fill="#999a9b"/>
      <path id="Trazado_157904" data-name="Trazado 157904" d="M1245.934,2153.3v-49.866a7.552,7.552,0,0,0-3.776-6.542l-43.186-24.933a7.551,7.551,0,0,0-7.554,0l-43.185,24.933a7.553,7.553,0,0,0-3.777,6.542V2153.3a7.555,7.555,0,0,0,3.777,6.542l43.185,24.933a7.555,7.555,0,0,0,7.554,0l43.186-24.933A7.554,7.554,0,0,0,1245.934,2153.3Z" transform="translate(-1138.641 -2063.69)" fill="#959798"/>
      <path id="Trazado_157905" data-name="Trazado 157905" d="M1246.176,2153V2103.13a7.553,7.553,0,0,0-3.777-6.541l-43.185-24.934a7.555,7.555,0,0,0-7.554,0l-43.185,24.934a7.553,7.553,0,0,0-3.777,6.541V2153a7.554,7.554,0,0,0,3.777,6.542l43.185,24.933a7.55,7.55,0,0,0,7.554,0l43.185-24.933A7.554,7.554,0,0,0,1246.176,2153Z" transform="translate(-1139.125 -2063.69)" fill="#929494"/>
      <path id="Trazado_157906" data-name="Trazado 157906" d="M1246.418,2152.694v-49.866a7.555,7.555,0,0,0-3.777-6.542l-43.185-24.933a7.555,7.555,0,0,0-7.554,0l-43.185,24.933a7.553,7.553,0,0,0-3.777,6.542v49.866a7.552,7.552,0,0,0,3.777,6.542l43.185,24.933a7.555,7.555,0,0,0,7.554,0l43.185-24.933A7.554,7.554,0,0,0,1246.418,2152.694Z" transform="translate(-1139.609 -2063.69)" fill="#8f9191"/>
      <path id="Trazado_157907" data-name="Trazado 157907" d="M1246.661,2152.392v-49.866a7.554,7.554,0,0,0-3.777-6.542l-43.186-24.933a7.549,7.549,0,0,0-7.553,0l-43.186,24.933a7.554,7.554,0,0,0-3.777,6.542v49.866a7.555,7.555,0,0,0,3.777,6.542l43.186,24.933a7.553,7.553,0,0,0,7.553,0l43.186-24.933A7.555,7.555,0,0,0,1246.661,2152.392Z" transform="translate(-1140.094 -2063.69)" fill="#8b8d8e"/>
      <path id="Trazado_157908" data-name="Trazado 157908" d="M1246.9,2152.089v-49.866a7.551,7.551,0,0,0-3.777-6.541l-43.185-24.933a7.551,7.551,0,0,0-7.554,0l-43.185,24.933a7.553,7.553,0,0,0-3.777,6.541v49.866a7.554,7.554,0,0,0,3.777,6.542l43.185,24.933a7.551,7.551,0,0,0,7.554,0l43.185-24.933A7.552,7.552,0,0,0,1246.9,2152.089Z" transform="translate(-1140.579 -2063.69)" fill="#888a8b"/>
      <path id="Trazado_157909" data-name="Trazado 157909" d="M1247.145,2151.787v-49.866a7.555,7.555,0,0,0-3.777-6.542l-43.185-24.933a7.555,7.555,0,0,0-7.554,0l-43.185,24.933a7.555,7.555,0,0,0-3.777,6.542v49.866a7.554,7.554,0,0,0,3.777,6.542l43.185,24.933a7.555,7.555,0,0,0,7.554,0l43.185-24.933A7.554,7.554,0,0,0,1247.145,2151.787Z" transform="translate(-1141.063 -2063.69)" fill="#858787"/>
      <path id="Trazado_157910" data-name="Trazado 157910" d="M1247.388,2151.485v-49.866a7.554,7.554,0,0,0-3.777-6.542l-43.185-24.933a7.555,7.555,0,0,0-7.554,0l-43.186,24.933a7.554,7.554,0,0,0-3.777,6.542v49.866a7.555,7.555,0,0,0,3.777,6.542l43.186,24.933a7.555,7.555,0,0,0,7.554,0l43.185-24.933A7.555,7.555,0,0,0,1247.388,2151.485Z" transform="translate(-1141.548 -2063.69)" fill="#818484"/>
      <path id="Trazado_157911" data-name="Trazado 157911" d="M1247.63,2151.183v-49.867a7.553,7.553,0,0,0-3.777-6.541l-43.186-24.933a7.55,7.55,0,0,0-7.554,0l-43.185,24.933a7.554,7.554,0,0,0-3.777,6.541v49.867a7.554,7.554,0,0,0,3.777,6.541l43.185,24.933a7.55,7.55,0,0,0,7.554,0l43.186-24.933A7.553,7.553,0,0,0,1247.63,2151.183Z" transform="translate(-1142.032 -2063.69)" fill="#7e8081"/>
      <path id="Trazado_157912" data-name="Trazado 157912" d="M1247.872,2150.88v-49.866a7.555,7.555,0,0,0-3.777-6.542l-43.185-24.933a7.555,7.555,0,0,0-7.554,0l-43.185,24.933a7.555,7.555,0,0,0-3.777,6.542v49.866a7.554,7.554,0,0,0,3.777,6.542l43.185,24.933a7.555,7.555,0,0,0,7.554,0l43.185-24.933A7.554,7.554,0,0,0,1247.872,2150.88Z" transform="translate(-1142.517 -2063.69)" fill="#7b7d7e"/>
      <path id="Trazado_157913" data-name="Trazado 157913" d="M1248.114,2150.578v-49.866a7.554,7.554,0,0,0-3.777-6.542l-43.185-24.933a7.555,7.555,0,0,0-7.554,0l-43.185,24.933a7.552,7.552,0,0,0-3.777,6.542v49.866a7.553,7.553,0,0,0,3.777,6.542l43.185,24.933a7.555,7.555,0,0,0,7.554,0l43.185-24.933A7.555,7.555,0,0,0,1248.114,2150.578Z" transform="translate(-1143.001 -2063.69)" fill="#787a7a"/>
      <path id="Trazado_157914" data-name="Trazado 157914" d="M1248.357,2150.276v-49.867a7.553,7.553,0,0,0-3.777-6.541l-43.186-24.933a7.549,7.549,0,0,0-7.553,0l-43.186,24.933a7.554,7.554,0,0,0-3.777,6.541v49.867a7.553,7.553,0,0,0,3.777,6.541l43.186,24.933a7.549,7.549,0,0,0,7.553,0l43.186-24.933A7.553,7.553,0,0,0,1248.357,2150.276Z" transform="translate(-1143.486 -2063.69)" fill="#747777"/>
      <path id="Trazado_157915" data-name="Trazado 157915" d="M1248.6,2149.973v-49.866a7.553,7.553,0,0,0-3.777-6.542l-43.185-24.933a7.555,7.555,0,0,0-7.554,0l-43.185,24.933a7.555,7.555,0,0,0-3.777,6.542v49.866a7.553,7.553,0,0,0,3.777,6.542l43.185,24.933a7.555,7.555,0,0,0,7.554,0l43.185-24.933A7.551,7.551,0,0,0,1248.6,2149.973Z" transform="translate(-1143.971 -2063.69)" fill="#717374"/>
      <path id="Trazado_157916" data-name="Trazado 157916" d="M1248.841,2149.671V2099.8a7.554,7.554,0,0,0-3.777-6.542l-43.185-24.933a7.555,7.555,0,0,0-7.554,0l-43.185,24.933a7.554,7.554,0,0,0-3.777,6.542v49.866a7.554,7.554,0,0,0,3.777,6.542l43.185,24.933a7.555,7.555,0,0,0,7.554,0l43.185-24.933A7.554,7.554,0,0,0,1248.841,2149.671Z" transform="translate(-1144.455 -2063.69)" fill="#6e7071"/>
      <path id="Trazado_157917" data-name="Trazado 157917" d="M1249.083,2149.369V2099.5a7.554,7.554,0,0,0-3.777-6.542l-43.185-24.933a7.55,7.55,0,0,0-7.554,0l-43.186,24.933a7.553,7.553,0,0,0-3.776,6.542v49.866a7.552,7.552,0,0,0,3.776,6.541l43.186,24.933a7.55,7.55,0,0,0,7.554,0l43.185-24.933A7.553,7.553,0,0,0,1249.083,2149.369Z" transform="translate(-1144.939 -2063.69)" fill="#6a6d6e"/>
      <path id="Trazado_157918" data-name="Trazado 157918" d="M1249.326,2149.066V2099.2a7.555,7.555,0,0,0-3.777-6.542l-43.186-24.933a7.555,7.555,0,0,0-7.554,0l-43.185,24.933a7.555,7.555,0,0,0-3.777,6.542v49.866a7.554,7.554,0,0,0,3.777,6.542l43.185,24.933a7.556,7.556,0,0,0,7.554,0l43.186-24.933A7.554,7.554,0,0,0,1249.326,2149.066Z" transform="translate(-1145.424 -2063.69)" fill="#676a6a"/>
      <path id="Trazado_157919" data-name="Trazado 157919" d="M1249.568,2148.764V2098.9a7.552,7.552,0,0,0-3.777-6.542l-43.185-24.933a7.555,7.555,0,0,0-7.554,0l-43.185,24.933a7.554,7.554,0,0,0-3.777,6.542v49.866a7.555,7.555,0,0,0,3.777,6.542l43.185,24.933a7.556,7.556,0,0,0,7.554,0l43.185-24.933A7.553,7.553,0,0,0,1249.568,2148.764Z" transform="translate(-1145.909 -2063.69)" fill="#646667"/>
      <path id="Trazado_157920" data-name="Trazado 157920" d="M1249.81,2148.462V2098.6a7.554,7.554,0,0,0-3.777-6.542l-43.185-24.933a7.551,7.551,0,0,0-7.554,0l-43.185,24.933a7.552,7.552,0,0,0-3.777,6.542v49.866a7.551,7.551,0,0,0,3.777,6.541l43.185,24.933a7.553,7.553,0,0,0,7.554,0L1246.033,2155A7.553,7.553,0,0,0,1249.81,2148.462Z" transform="translate(-1146.393 -2063.69)" fill="#606364"/>
      <path id="Trazado_157921" data-name="Trazado 157921" d="M1250.053,2148.159v-49.866a7.555,7.555,0,0,0-3.777-6.542l-43.186-24.933a7.553,7.553,0,0,0-7.553,0l-43.186,24.933a7.555,7.555,0,0,0-3.777,6.542v49.866a7.554,7.554,0,0,0,3.777,6.542l43.186,24.933a7.551,7.551,0,0,0,7.553,0l43.186-24.933A7.554,7.554,0,0,0,1250.053,2148.159Z" transform="translate(-1146.878 -2063.69)" fill="#5d6061"/>
      <path id="Trazado_157922" data-name="Trazado 157922" d="M1250.3,2147.857v-49.866a7.553,7.553,0,0,0-3.776-6.542l-43.186-24.933a7.555,7.555,0,0,0-7.554,0l-43.185,24.933a7.554,7.554,0,0,0-3.777,6.542v49.866a7.555,7.555,0,0,0,3.777,6.542l43.185,24.933a7.558,7.558,0,0,0,7.554,0l43.186-24.933A7.554,7.554,0,0,0,1250.3,2147.857Z" transform="translate(-1147.363 -2063.69)" fill="#5a5d5d"/>
      <path id="Trazado_157923" data-name="Trazado 157923" d="M1250.537,2147.555v-49.866a7.554,7.554,0,0,0-3.777-6.542l-43.185-24.933a7.55,7.55,0,0,0-7.554,0l-43.185,24.933a7.554,7.554,0,0,0-3.777,6.542v49.866a7.553,7.553,0,0,0,3.777,6.541l43.185,24.934a7.558,7.558,0,0,0,7.554,0l43.185-24.934A7.553,7.553,0,0,0,1250.537,2147.555Z" transform="translate(-1147.847 -2063.69)" fill="#57595a"/>
      <path id="Trazado_157924" data-name="Trazado 157924" d="M1250.779,2147.252v-49.866a7.555,7.555,0,0,0-3.777-6.542l-43.185-24.933a7.557,7.557,0,0,0-7.554,0l-43.186,24.933a7.554,7.554,0,0,0-3.776,6.542v49.866a7.553,7.553,0,0,0,3.776,6.542l43.186,24.933a7.552,7.552,0,0,0,7.554,0L1247,2153.794A7.554,7.554,0,0,0,1250.779,2147.252Z" transform="translate(-1148.331 -2063.69)" fill="#535657"/>
      <path id="Trazado_157925" data-name="Trazado 157925" d="M1251.022,2146.95v-49.866a7.554,7.554,0,0,0-3.777-6.542l-43.186-24.933a7.555,7.555,0,0,0-7.553,0l-43.186,24.933a7.554,7.554,0,0,0-3.777,6.542v49.866a7.555,7.555,0,0,0,3.777,6.542l43.186,24.933a7.555,7.555,0,0,0,7.553,0l43.186-24.933A7.555,7.555,0,0,0,1251.022,2146.95Z" transform="translate(-1148.816 -2063.69)" fill="#505354"/>
      <path id="Trazado_157926" data-name="Trazado 157926" d="M1251.264,2146.648v-49.866a7.552,7.552,0,0,0-3.777-6.542l-43.185-24.933a7.552,7.552,0,0,0-7.554,0l-43.185,24.933a7.554,7.554,0,0,0-3.777,6.542v49.866a7.556,7.556,0,0,0,3.777,6.542l43.185,24.933a7.556,7.556,0,0,0,7.554,0l43.185-24.933A7.554,7.554,0,0,0,1251.264,2146.648Z" transform="translate(-1149.301 -2063.69)" fill="#4d5050"/>
      <path id="Trazado_157927" data-name="Trazado 157927" d="M1251.506,2146.345v-49.866a7.556,7.556,0,0,0-3.777-6.542L1204.544,2065a7.556,7.556,0,0,0-7.554,0l-43.185,24.933a7.556,7.556,0,0,0-3.777,6.542v49.866a7.554,7.554,0,0,0,3.777,6.542l43.185,24.933a7.552,7.552,0,0,0,7.554,0l43.185-24.933A7.554,7.554,0,0,0,1251.506,2146.345Z" transform="translate(-1149.785 -2063.69)" fill="#494c4d"/>
      <path id="Trazado_157928" data-name="Trazado 157928" d="M1251.749,2146.043v-49.866a7.554,7.554,0,0,0-3.777-6.542l-43.185-24.933a7.556,7.556,0,0,0-7.554,0l-43.186,24.933a7.554,7.554,0,0,0-3.777,6.542v49.866a7.555,7.555,0,0,0,3.777,6.542l43.186,24.933a7.556,7.556,0,0,0,7.554,0l43.185-24.933A7.555,7.555,0,0,0,1251.749,2146.043Z" transform="translate(-1150.27 -2063.69)" fill="#46494a"/>
    </g>
    <g id="Grupo_108111" data-name="Grupo 108111" transform="translate(1682.869 -12974.308)">
      <path id="Trazado_157929" data-name="Trazado 157929" d="M1150.27,2144.661v-49.866a7.554,7.554,0,0,1,3.777-6.542l43.185-24.933a7.55,7.55,0,0,1,7.554,0l43.186,24.933a7.554,7.554,0,0,1,3.777,6.542v49.866a7.556,7.556,0,0,1-3.777,6.542l-43.186,24.933a7.555,7.555,0,0,1-7.554,0l-43.185-24.933A7.556,7.556,0,0,1,1150.27,2144.661Z" fill="#fff"/>
      <path id="Trazado_157930" data-name="Trazado 157930" d="M1152.244,2144.4v-49.334a6.04,6.04,0,0,1,3.02-5.232l42.725-24.667a6.041,6.041,0,0,1,6.041,0l42.725,24.667a6.04,6.04,0,0,1,3.02,5.232V2144.4a6.042,6.042,0,0,1-3.02,5.232l-42.725,24.667a6.041,6.041,0,0,1-6.041,0l-42.725-24.667A6.042,6.042,0,0,1,1152.244,2144.4Z" fill="url(#linear-gradient)"/>
    </g>
    <g id="plataforma-petrolifera" transform="translate(2849 -10889.012)">
      <g id="Grupo_108129" data-name="Grupo 108129" transform="translate(3.217 1.036)">
        <rect id="Rectángulo_37294" data-name="Rectángulo 37294" width="4.384" height="4.384" transform="translate(16.439)" fill="#dad8db"/>
        <rect id="Rectángulo_37295" data-name="Rectángulo 37295" width="15.343" height="6.576" transform="translate(10.96 27.399)" fill="#dad8db"/>
        <rect id="Rectángulo_37296" data-name="Rectángulo 37296" width="32.879" height="9.864" transform="translate(4.384 32.879)" fill="#f3ff3c"/>
        <rect id="Rectángulo_37297" data-name="Rectángulo 37297" width="6.576" height="6.576" transform="translate(41.646 46.03)" fill="#6f6571"/>
        <rect id="Rectángulo_37298" data-name="Rectángulo 37298" width="6.576" height="6.576" transform="translate(6.576 46.03)" fill="#6f6571"/>
        <path id="Trazado_157973" data-name="Trazado 157973" d="M77.234,324.525H24.628a1.1,1.1,0,0,1-1.1-1.1v-3.288h54.8v3.288A1.1,1.1,0,0,1,77.234,324.525Z" transform="translate(-23.532 -277.399)" fill="#96e83c"/>
        <rect id="Rectángulo_37299" data-name="Rectángulo 37299" width="15.343" height="16.439" transform="translate(35.071 26.303)" fill="#dad8db"/>
        <path id="Trazado_157974" data-name="Trazado 157974" d="M283.337,210.859V199.9h-3.288v16.439h15.343v-3.288h-9.864A2.192,2.192,0,0,1,283.337,210.859Z" transform="translate(-244.978 -173.596)" fill="#c8c5c9"/>
        <rect id="Rectángulo_37300" data-name="Rectángulo 37300" width="10.96" height="15.891" transform="translate(4.384 51.51)" fill="#96e83c"/>
        <rect id="Rectángulo_37301" data-name="Rectángulo 37301" width="3.288" height="15.891" transform="translate(4.384 51.51)" fill="#609627"/>
        <rect id="Rectángulo_37302" data-name="Rectángulo 37302" width="10.96" height="15.891" transform="translate(39.454 51.51)" fill="#96e83c"/>
        <rect id="Rectángulo_37303" data-name="Rectángulo 37303" width="3.288" height="15.891" transform="translate(39.454 51.51)" fill="#609627"/>
        <rect id="Rectángulo_37304" data-name="Rectángulo 37304" width="3.288" height="5.48" transform="translate(31.783 37.263)" fill="#b1ba2c"/>
        <rect id="Rectángulo_37305" data-name="Rectángulo 37305" width="3.288" height="4.384" transform="translate(31.783 32.879)" fill="#b1ba2c"/>
      </g>
      <g id="Grupo_108130" data-name="Grupo 108130" transform="translate(0 0.011)">
        <path id="Trazado_157975" data-name="Trazado 157975" d="M68.306,35.464a1.074,1.074,0,0,1-.5-.957V18.8l1.347-1.443a3.142,3.142,0,0,0-4.225-4.623L47.462,26.314H38.288a1.025,1.025,0,0,0-1.025,1.025v5.55H30.546V28.435A1.025,1.025,0,0,0,29.52,27.41h-1.3L25.066,5.347V1.036A1.025,1.025,0,0,0,24.04.011H19.657a1.025,1.025,0,0,0-1.025,1.025V5.347L15.479,27.41h-1.3a1.025,1.025,0,0,0-1.025,1.025V32.89H7.6a1.025,1.025,0,0,0-1.025,1.025v3.358H5.409a1.025,1.025,0,0,0,0,2.051H6.576v3.429H1.025a1.025,1.025,0,0,0,0,2.051H2.192v3.358a1.025,1.025,0,0,0,1.025,1.025h5.55v2.333H7.6a1.025,1.025,0,0,0-1.025,1.025V67.953a6.217,6.217,0,0,1-2.238-.477,8.332,8.332,0,0,0-3.312-.612,1.025,1.025,0,0,0,0,2.051,6.327,6.327,0,0,1,2.6.484,8.331,8.331,0,0,0,3.312.612,8.336,8.336,0,0,0,3.314-.612,6.332,6.332,0,0,1,2.6-.484,6.338,6.338,0,0,1,2.6.484,8.345,8.345,0,0,0,3.315.612,8.344,8.344,0,0,0,3.315-.612,6.338,6.338,0,0,1,2.6-.484,6.338,6.338,0,0,1,2.6.484,8.345,8.345,0,0,0,3.315.612,8.348,8.348,0,0,0,3.315-.612,7.236,7.236,0,0,1,5.2,0,9.288,9.288,0,0,0,6.63,0,7.251,7.251,0,0,1,5.211,0,9.306,9.306,0,0,0,6.636,0,6.358,6.358,0,0,1,2.607-.484,1.025,1.025,0,0,0,0-2.051,8.363,8.363,0,0,0-3.318.612,6.241,6.241,0,0,1-2.232.477V52.546a1.025,1.025,0,0,0-1.025-1.025H52.465V49.188h5.55a1.025,1.025,0,0,0,1.025-1.025V44.8h1.166a1.025,1.025,0,0,0,0-2.051h-5.55v-9.87l11.1-11.891V34.507a3.1,3.1,0,0,0,1.577,2.763A1.167,1.167,0,1,1,65.616,38.3a1.025,1.025,0,0,0-2.051,0,3.217,3.217,0,1,0,4.74-2.834ZM24.99,19.316l.811,5.675L23.155,21.64ZM25.1,27.41H18.6L21.849,23.3Zm-5.234-9.939,1.985-2.552,1.985,2.552-1.985,2.515Zm4.479-2.686-1.195-1.536.824-1.059ZM20.682,2.062h2.333V4.395H20.682Zm-.136,4.384h2.605l.418,2.922-1.72,2.211-1.72-2.211Zm-.821,5.744.824,1.059-1.195,1.536Zm-1.018,7.126,1.835,2.324L17.9,24.991ZM15.2,29.461H28.495V32.89H15.2ZM8.627,34.94H37.263v2.333H8.627Zm5.492,4.384h4.5l-2.25,2.813Zm.117,3.429h-4.5l2.25-2.813Zm6.517-2.813L23,42.753H18.5Zm2.133-.616h4.5l-2.25,2.813Zm6.634.616,2.25,2.813h-4.5Zm2.133-.616h4.5L33.9,42.137Zm5.609,1.9v1.531H36.037Zm-28.636-1.9H9.852L8.627,40.856Zm33.02,28.6a6.3,6.3,0,0,1-1.811-.45,9.285,9.285,0,0,0-6.629,0,6.343,6.343,0,0,1-2.6.484,6.338,6.338,0,0,1-2.6-.484,8.344,8.344,0,0,0-3.315-.612,8.344,8.344,0,0,0-3.315.612,6.311,6.311,0,0,1-1.785.448V62.41a1.025,1.025,0,0,0-2.051,0v5.462a6.861,6.861,0,0,1-1.369-.395,8.345,8.345,0,0,0-3.315-.612,8.336,8.336,0,0,0-3.314.612,8.773,8.773,0,0,1-.911.3v-14.2h8.909v4.455a1.025,1.025,0,1,0,2.051,0v-.671l8.167-8.167h5.726l8.167,8.167V67.927ZM10.818,51.521V49.188h4.525v2.333Zm7.742,0H17.394V49.188h7.459l-5.267,5.267V52.546A1.025,1.025,0,0,0,18.561,51.521Zm23.086,1.025v1.908L36.38,49.188h7.459v2.333H42.672A1.025,1.025,0,0,0,41.646,52.546Zm10.96,1.025V67.78a8.705,8.705,0,0,1-.93-.3,9.3,9.3,0,0,0-6.635,0,6.928,6.928,0,0,1-1.344.39V53.572Zm-6.717-2.051V49.188h4.525v2.333ZM56.99,44.8v2.333H4.243V44.8H47.055a1.025,1.025,0,0,0,0-2.051H39.313V28.365H52.606V42.753H51.44a1.025,1.025,0,0,0,0,2.051ZM54.657,29.88V27.339a1.025,1.025,0,0,0-1.025-1.025H50.8L66.189,14.347a1.091,1.091,0,0,1,1.467,1.605Z" transform="translate(0 -0.011)"/>
        <path id="Trazado_157976" data-name="Trazado 157976" d="M306.734,224.463h-1.1a1.025,1.025,0,0,0,0,2.051h1.1a1.025,1.025,0,0,0,0-2.051Z" transform="translate(-262.967 -193.776)"/>
        <path id="Trazado_157977" data-name="Trazado 157977" d="M346.814,224.463h-1.1a1.025,1.025,0,0,0,0,2.051h1.1a1.025,1.025,0,0,0,0-2.051Z" transform="translate(-297.567 -193.776)"/>
        <path id="Trazado_157978" data-name="Trazado 157978" d="M306.734,256.528h-1.1a1.025,1.025,0,0,0,0,2.051h1.1a1.025,1.025,0,0,0,0-2.051Z" transform="translate(-262.967 -221.457)"/>
        <path id="Trazado_157979" data-name="Trazado 157979" d="M346.814,256.528h-1.1a1.025,1.025,0,0,0,0,2.051h1.1a1.025,1.025,0,0,0,0-2.051Z" transform="translate(-297.567 -221.457)"/>
      </g>
    </g>
  </g>
</svg>
