<svg xmlns="http://www.w3.org/2000/svg" width="190" height="90" viewBox="0 0 190 90">
  <g id="Grupo_80167" data-name="Grupo 80167" transform="translate(-180 -404)">
    <rect id="Rect치ngulo_36775" data-name="Rect치ngulo 36775" width="190" height="90" transform="translate(180 404)" fill="none"/>
    <rect id="Rect치ngulo_36776" data-name="Rect치ngulo 36776" width="161" height="75" rx="37.5" transform="translate(195 412)" fill="#dce736" opacity="0.2"/>
    <g id="timeline" transform="translate(229 393.291)">
      <g id="Grupo_80164" data-name="Grupo 80164" transform="translate(1.419 12.094)">
        <circle id="Elipse_4722" data-name="Elipse 4722" cx="14.96" cy="14.96" r="14.96" transform="translate(0 57.329)" fill="#f3ff3c"/>
        <circle id="Elipse_4723" data-name="Elipse 4723" cx="14.96" cy="14.96" r="14.96" transform="translate(30.629)" fill="#ff642b"/>
        <circle id="Elipse_4724" data-name="Elipse 4724" cx="4.686" cy="4.686" r="4.686" transform="translate(10.274 38.938)" fill="#f3ff3c"/>
        <circle id="Elipse_4725" data-name="Elipse 4725" cx="4.686" cy="4.686" r="4.686" transform="translate(40.903 38.938)" fill="#ff642b"/>
        <circle id="Elipse_4726" data-name="Elipse 4726" cx="4.686" cy="4.686" r="4.686" transform="translate(71.532 38.938)" fill="#96e83c"/>
        <path id="Trazado_113588" data-name="Trazado 113588" d="M68.424,235.192a4.683,4.683,0,0,1,2.343-4.058,4.686,4.686,0,1,0,0,8.115A4.683,4.683,0,0,1,68.424,235.192Z" transform="translate(-53.464 -191.568)" fill="#dce736"/>
        <path id="Trazado_113589" data-name="Trazado 113589" d="M235.38,235.192a4.683,4.683,0,0,1,2.343-4.058,4.686,4.686,0,1,0,0,8.115A4.683,4.683,0,0,1,235.38,235.192Z" transform="translate(-189.791 -191.568)" fill="#f85316"/>
        <path id="Trazado_113590" data-name="Trazado 113590" d="M402.335,235.192a4.683,4.683,0,0,1,2.343-4.058,4.686,4.686,0,1,0,0,8.115A4.683,4.683,0,0,1,402.335,235.192Z" transform="translate(-326.117 -191.568)" fill="#75b62f"/>
        <circle id="Elipse_4727" data-name="Elipse 4727" cx="14.96" cy="14.96" r="14.96" transform="translate(61.258 57.329)" fill="#96e83c"/>
        <path id="Trazado_113591" data-name="Trazado 113591" d="M15.81,345.714a14.963,14.963,0,0,1,10.923-14.4,14.96,14.96,0,1,0,0,28.808A14.963,14.963,0,0,1,15.81,345.714Z" transform="translate(-7.737 -273.425)" fill="#dce736"/>
        <path id="Trazado_113592" data-name="Trazado 113592" d="M182.766,33.218a14.963,14.963,0,0,1,10.923-14.4,14.96,14.96,0,1,0,0,28.808A14.963,14.963,0,0,1,182.766,33.218Z" transform="translate(-144.065 -18.258)" fill="#f85316"/>
        <path id="Trazado_113593" data-name="Trazado 113593" d="M349.722,345.714a14.963,14.963,0,0,1,10.923-14.4,14.96,14.96,0,1,0,0,28.808A14.963,14.963,0,0,1,349.722,345.714Z" transform="translate(-280.391 -273.425)" fill="#75b62f"/>
      </g>
      <g id="Grupo_80165" data-name="Grupo 80165" transform="translate(0 10.709)">
        <path id="Trazado_113594" data-name="Trazado 113594" d="M83.5,57.085h9.057a1.376,1.376,0,0,0,0-2.752H83.5a6.061,6.061,0,0,0-11.805,0H52.867a6.08,6.08,0,0,0-4.527-4.527V43.321A16.336,16.336,0,0,0,62.919,30.549a1.376,1.376,0,0,0-2.689-.588,13.584,13.584,0,1,1,0-5.833,1.376,1.376,0,0,0,2.689-.588,16.335,16.335,0,1,0-17.33,19.781v6.485a6.08,6.08,0,0,0-4.527,4.527H22.238a6.061,6.061,0,0,0-11.805,0H1.376a1.376,1.376,0,0,0,0,2.752h9.057a6.08,6.08,0,0,0,4.527,4.527V68.1a16.334,16.334,0,1,0,2.752,0V61.611a6.08,6.08,0,0,0,4.527-4.527H41.062a6.061,6.061,0,0,0,11.805,0H71.691a6.08,6.08,0,0,0,4.527,4.527V68.1a16.335,16.335,0,0,0-2.128,32.232,1.376,1.376,0,1,0,.588-2.688,13.584,13.584,0,1,1,5.833,0,1.376,1.376,0,1,0,.588,2.688A16.335,16.335,0,0,0,78.97,68.1V61.611A6.08,6.08,0,0,0,83.5,57.085ZM29.919,84.373A13.584,13.584,0,1,1,16.335,70.79,13.6,13.6,0,0,1,29.919,84.373ZM16.335,59.019a3.31,3.31,0,1,1,3.31-3.31A3.314,3.314,0,0,1,16.335,59.019Zm30.629,0a3.31,3.31,0,1,1,3.31-3.31A3.314,3.314,0,0,1,46.964,59.019Zm30.629,0a3.31,3.31,0,1,1,3.31-3.31A3.314,3.314,0,0,1,77.593,59.019Z" transform="translate(0 -10.709)" fill="#12263f"/>
        <path id="Trazado_113595" data-name="Trazado 113595" d="M67.67,377.168a1.376,1.376,0,0,0,1.376,1.376h5.09a1.376,1.376,0,0,0,0-2.752h-5.09A1.376,1.376,0,0,0,67.67,377.168Z" transform="translate(-55.256 -308.815)" fill="#12263f"/>
        <path id="Trazado_113596" data-name="Trazado 113596" d="M51.5,406.123a1.376,1.376,0,0,0,1.376,1.376H63.9a1.376,1.376,0,0,0,0-2.752H52.878A1.376,1.376,0,0,0,51.5,406.123Z" transform="translate(-42.054 -332.459)" fill="#12263f"/>
        <path id="Trazado_113597" data-name="Trazado 113597" d="M63.9,433.7H52.878a1.376,1.376,0,1,0,0,2.752H63.9a1.376,1.376,0,1,0,0-2.752Z" transform="translate(-42.054 -356.102)" fill="#12263f"/>
        <path id="Trazado_113598" data-name="Trazado 113598" d="M241.092,66.049a1.376,1.376,0,0,0,0-2.752H236a1.376,1.376,0,0,0,0,2.752Z" transform="translate(-191.583 -53.649)" fill="#12263f"/>
        <path id="Trazado_113599" data-name="Trazado 113599" d="M230.856,92.252H219.834a1.376,1.376,0,0,0,0,2.752h11.023a1.376,1.376,0,0,0,0-2.752Z" transform="translate(-178.381 -77.292)" fill="#12263f"/>
        <path id="Trazado_113600" data-name="Trazado 113600" d="M230.856,121.207H219.834a1.376,1.376,0,1,0,0,2.752h11.023a1.376,1.376,0,0,0,0-2.752Z" transform="translate(-178.381 -100.936)" fill="#12263f"/>
        <path id="Trazado_113601" data-name="Trazado 113601" d="M408.048,378.544a1.376,1.376,0,1,0,0-2.752h-5.09a1.376,1.376,0,1,0,0,2.752Z" transform="translate(-327.91 -308.815)" fill="#12263f"/>
        <path id="Trazado_113602" data-name="Trazado 113602" d="M385.413,406.123a1.376,1.376,0,0,0,1.376,1.376h11.023a1.376,1.376,0,0,0,0-2.752H386.789A1.376,1.376,0,0,0,385.413,406.123Z" transform="translate(-314.707 -332.459)" fill="#12263f"/>
        <path id="Trazado_113603" data-name="Trazado 113603" d="M386.789,436.454h11.023a1.376,1.376,0,1,0,0-2.752H386.789a1.376,1.376,0,1,0,0,2.752Z" transform="translate(-314.707 -356.102)" fill="#12263f"/>
      </g>
    </g>
  </g>
</svg>
