<svg id="_x37__Copywtiting" xmlns="http://www.w3.org/2000/svg" width="142.15" height="142" viewBox="0 0 142.15 142">
  <g id="Grupo_107477" data-name="Grupo 107477" transform="translate(0 0)">
    <g id="Grupo_107474" data-name="Grupo 107474" transform="translate(2.111 2.111)">
      <path id="Trazado_156894" data-name="Trazado 156894" d="M394.071,383.368a17.515,17.515,0,0,1-17.515-17.515V337.392h35.029v28.461A17.515,17.515,0,0,1,394.071,383.368Z" transform="translate(-273.657 -245.591)" fill="#75b62f"/>
      <path id="Trazado_156895" data-name="Trazado 156895" d="M113.9,131.536a17.515,17.515,0,0,0,17.515,17.515H28.515A17.515,17.515,0,0,1,11,131.536V21.978a10.7,10.7,0,0,1,10.7-10.7H103.2a10.7,10.7,0,0,1,10.7,10.7Z" transform="translate(-11 -11.275)" fill="#b1e874"/>
      <path id="Trazado_156896" data-name="Trazado 156896" d="M302.693,131.536V21.978a10.7,10.7,0,0,0-10.7-10.7H273.756a10.7,10.7,0,0,1,10.7,10.7V131.536a17.515,17.515,0,0,0,17.515,17.515h18.233A17.515,17.515,0,0,1,302.693,131.536Z" transform="translate(-199.794 -11.275)" fill="#96e83c"/>
    </g>
    <g id="Grupo_107476" data-name="Grupo 107476">
      <path id="Trazado_156897" data-name="Trazado 156897" d="M192.044,390.187l4.881-17.922,13.041,13.041Z" transform="translate(-138.972 -268.537)" fill="#fff"/>
      <path id="Trazado_156898" data-name="Trazado 156898" d="M222.424,209.064l-13.041-13.041,67.135-67.135a6.519,6.519,0,0,1,9.22,0l3.821,3.821a6.519,6.519,0,0,1,0,9.22Z" transform="translate(-151.43 -92.296)" fill="#ff642b"/>
      <path id="Trazado_156899" data-name="Trazado 156899" d="M306.2,142.461l-1.911-1.911-71.745,71.745,6.521,6.521L306.2,151.68A6.519,6.519,0,0,0,306.2,142.461Z" transform="translate(-168.074 -102.048)" fill="#f85316"/>
      <g id="Grupo_107475" data-name="Grupo 107475">
        <path id="Trazado_156900" data-name="Trazado 156900" d="M138.6,107.291H74.477a2.111,2.111,0,0,0,0,4.222H138.6a2.111,2.111,0,1,0,0-4.222Z" transform="translate(-52.981 -78.152)" fill="#12263f"/>
        <path id="Trazado_156901" data-name="Trazado 156901" d="M74.477,151.283H89.305a2.111,2.111,0,1,0,0-4.222H74.477a2.111,2.111,0,1,0,0,4.222Z" transform="translate(-52.981 -106.727)" fill="#12263f"/>
        <path id="Trazado_156902" data-name="Trazado 156902" d="M215.329,147.061h-34.07a2.111,2.111,0,1,0,0,4.222h34.07a2.111,2.111,0,1,0,0-4.222Z" transform="translate(-129.706 -106.727)" fill="#12263f"/>
        <path id="Trazado_156903" data-name="Trazado 156903" d="M74.477,195.648H113.02a2.111,2.111,0,1,0,0-4.222H74.477a2.111,2.111,0,0,0,0,4.222Z" transform="translate(-52.981 -138.604)" fill="#12263f"/>
        <path id="Trazado_156904" data-name="Trazado 156904" d="M269.755,191.426H257.006a2.111,2.111,0,0,0,0,4.222h12.748a2.111,2.111,0,1,0,0-4.222Z" transform="translate(-184.131 -138.604)" fill="#12263f"/>
        <path id="Trazado_156905" data-name="Trazado 156905" d="M74.477,235.418h20.05a2.111,2.111,0,1,0,0-4.222H74.477a2.111,2.111,0,1,0,0,4.222Z" transform="translate(-52.981 -167.179)" fill="#12263f"/>
        <path id="Trazado_156906" data-name="Trazado 156906" d="M231.325,233.307a2.111,2.111,0,0,0-2.111-2.111H200.583a2.111,2.111,0,1,0,0,4.222h28.631A2.111,2.111,0,0,0,231.325,233.307Z" transform="translate(-143.59 -167.179)" fill="#12263f"/>
        <path id="Trazado_156907" data-name="Trazado 156907" d="M114.914,277.673a2.111,2.111,0,0,0-2.111-2.111H74.477a2.111,2.111,0,1,0,0,4.222H112.8A2.111,2.111,0,0,0,114.914,277.673Z" transform="translate(-52.981 -199.056)" fill="#12263f"/>
        <path id="Trazado_156908" data-name="Trazado 156908" d="M74.477,315.332a2.111,2.111,0,1,0,0,4.222H89.707a2.111,2.111,0,1,0,0-4.222Z" transform="translate(-52.981 -227.631)" fill="#12263f"/>
        <path id="Trazado_156909" data-name="Trazado 156909" d="M5.611,102.849a2.111,2.111,0,0,0,2.111-2.111V16.589A8.6,8.6,0,0,1,16.314,8H63.935a2.111,2.111,0,0,0,0-4.222H16.314A12.829,12.829,0,0,0,3.5,16.589v84.148a2.111,2.111,0,0,0,2.111,2.111Z" transform="translate(-3.5 -3.775)" fill="#12263f"/>
        <path id="Trazado_156910" data-name="Trazado 156910" d="M277.247,8h15.734a8.6,8.6,0,0,1,8.592,8.592,2.111,2.111,0,0,0,4.222,0A12.829,12.829,0,0,0,292.981,3.775H277.247a2.111,2.111,0,1,0,0,4.222Z" transform="translate(-198.675 -3.775)" fill="#12263f"/>
        <path id="Trazado_156911" data-name="Trazado 156911" d="M137.365,211.506a15.4,15.4,0,0,1-26.744-10.421V174.734h7.291a2.111,2.111,0,0,0,0-4.222h-7.291V162.59a2.078,2.078,0,0,0-.018-.234l32.518-32.519a8.64,8.64,0,0,0,0-12.206l-3.821-3.822a8.63,8.63,0,0,0-12.205,0l-16.473,16.474v-20.1a2.111,2.111,0,1,0-4.222,0v24.324L85.689,155.217H72.241a2.111,2.111,0,0,0,0,4.222h9.225L59.96,180.946a2.1,2.1,0,0,0-.541.931s0,0,0,.006l-4.88,17.922a2.111,2.111,0,0,0,2.592,2.592l17.922-4.881.009,0a2.11,2.11,0,0,0,.929-.54L106.4,166.56v34.525a19.6,19.6,0,0,0,7.477,15.4v.008H23.125a15.422,15.422,0,0,1-15.4-15.406v-8.132a2.111,2.111,0,1,0-4.222,0v8.132a19.65,19.65,0,0,0,19.625,19.629h102.9a19.682,19.682,0,0,0,14.449-6.347,2.111,2.111,0,0,0-3.108-2.858Zm-7.284-94.711a4.408,4.408,0,0,1,6.234,0l3.821,3.822a4.413,4.413,0,0,1,0,6.234L74.494,192.495,64.438,182.439Zm-65,79.063-4-4,1.458-5.352,7.894,7.895Z" transform="translate(-3.5 -78.713)" fill="#12263f"/>
        <path id="Trazado_156912" data-name="Trazado 156912" d="M474.293,329.892h-8.351a2.111,2.111,0,0,0,0,4.222h6.24v21.3a2.111,2.111,0,0,0,4.222,0V332A2.111,2.111,0,0,0,474.293,329.892Z" transform="translate(-334.255 -238.092)" fill="#12263f"/>
        <path id="Trazado_156913" data-name="Trazado 156913" d="M281.257,307.821a2.1,2.1,0,0,0,1.493-.618l11.845-11.845a2.111,2.111,0,0,0-2.985-2.985l-11.845,11.845a2.111,2.111,0,0,0,1.493,3.6Z" transform="translate(-201.556 -210.69)" fill="#12263f"/>
        <path id="Trazado_156914" data-name="Trazado 156914" d="M358.283,199.222a2.1,2.1,0,0,0,1.493-.618l24.213-24.214A2.111,2.111,0,1,0,381,171.4l-24.213,24.214a2.111,2.111,0,0,0,1.493,3.6Z" transform="translate(-256.9 -123.774)" fill="#12263f"/>
      </g>
    </g>
  </g>
</svg>
